<?xml version="1.0" standalone="no"?>
<!DOCTYPE svg PUBLIC "-//W3C//DTD SVG 20010904//EN"
 "http://www.w3.org/TR/2001/REC-SVG-20010904/DTD/svg10.dtd">
<svg version="1.0" xmlns="http://www.w3.org/2000/svg"
 width="100.000000pt" height="100.000000pt" viewBox="0 0 183.000000 80.000000"
 preserveAspectRatio="xMidYMid meet">
<g transform="translate(0.000000,80.000000) scale(0.100000,-0.100000)"
fill="#000000" stroke="none">
<path d="M940 756 c0 -30 30 -43 47 -21 16 23 5 45 -23 45 -19 0 -24 -5 -24
-24z"/>
<path d="M1153 764 c-3 -8 2 -23 11 -32 15 -15 17 -15 32 0 21 21 11 48 -16
48 -11 0 -23 -7 -27 -16z"/>
<path d="M1062 758 c-7 -7 -12 -24 -12 -39 0 -15 -7 -29 -15 -33 -8 -3 -15
-12 -15 -21 0 -8 7 -15 15 -15 12 0 15 -19 15 -110 0 -103 1 -110 20 -110 19
0 20 7 20 110 0 103 1 110 20 110 12 0 20 7 20 16 0 9 -9 18 -20 21 -11 3 -20
12 -20 20 0 8 9 17 20 20 11 3 20 14 20 24 0 14 -7 19 -28 19 -15 0 -33 -5
-40 -12z"/>
<path d="M420 591 l0 -161 24 0 c22 0 25 5 28 47 3 43 5 47 35 55 41 11 63 51
63 112 0 65 -30 97 -98 104 l-52 5 0 -162z m88 107 c15 -15 16 -92 2 -119 -6
-10 -17 -19 -25 -19 -12 0 -15 16 -15 75 0 76 9 92 38 63z"/>
<path d="M618 673 c-24 -28 -28 -40 -22 -57 9 -24 31 -19 38 9 4 16 13 25 26
25 16 0 20 -7 20 -34 0 -28 -5 -36 -30 -46 -38 -16 -60 -46 -60 -82 0 -35 35
-72 58 -62 9 4 32 7 50 6 l32 -2 0 110 c0 97 -2 112 -20 130 -25 25 -72 26
-92 3z m54 -205 c-16 -16 -32 1 -32 32 0 17 7 33 18 39 15 8 17 5 20 -26 2
-20 -1 -40 -6 -45z"/>
<path d="M799 671 c-19 -16 -24 -30 -27 -89 -7 -122 31 -181 96 -150 34 17 44
68 14 68 -12 0 -22 -9 -25 -21 -3 -12 -12 -19 -19 -17 -9 3 -13 29 -13 94 0
75 3 89 17 92 11 2 18 -5 20 -20 2 -12 11 -24 21 -26 13 -3 17 3 17 27 0 57
-55 80 -101 42z"/>
<path d="M947 683 c-4 -3 -7 -62 -7 -130 l0 -123 25 0 25 0 0 130 c0 119 -1
130 -18 130 -10 0 -22 -3 -25 -7z"/>
<path d="M1160 560 c0 -123 1 -130 20 -130 19 0 20 7 20 130 0 123 -1 130 -20
130 -19 0 -20 -7 -20 -130z"/>
<path d="M1271 664 c-17 -22 -21 -41 -21 -109 0 -96 16 -127 65 -127 30 0 65
31 65 58 0 22 -38 16 -45 -6 -24 -75 -61 66 -39 148 8 30 32 28 40 -4 4 -16
12 -24 23 -22 24 5 25 44 2 67 -29 29 -65 27 -90 -5z"/>
<path d="M1130 386 c0 -13 6 -26 13 -29 22 -7 37 4 37 29 0 19 -5 24 -25 24
-20 0 -25 -5 -25 -24z"/>
<path d="M552 388 c-7 -7 -12 -24 -12 -39 0 -15 -7 -29 -15 -33 -8 -3 -15 -12
-15 -21 0 -8 7 -15 15 -15 12 0 15 -19 15 -110 0 -103 1 -110 20 -110 19 0 20
7 20 110 0 103 1 110 20 110 13 0 20 7 20 20 0 13 -7 20 -20 20 -12 0 -20 7
-20 16 0 9 9 18 20 21 11 3 20 14 20 24 0 14 -7 19 -28 19 -15 0 -33 -5 -40
-12z"/>
<path d="M1770 230 l0 -170 25 0 25 0 0 170 0 170 -25 0 -25 0 0 -170z"/>
<path d="M20 220 l0 -160 25 0 c23 0 25 3 25 50 0 47 2 50 25 50 51 0 85 69
71 145 -9 47 -47 75 -102 75 l-44 0 0 -160z m90 105 c16 -20 8 -114 -11 -126
-26 -16 -29 -9 -29 66 0 57 3 75 14 75 7 0 19 -7 26 -15z"/>
<path d="M200 190 l0 -130 25 0 25 0 0 110 c0 91 3 110 15 110 9 0 15 -10 15
-26 0 -19 4 -25 18 -22 12 2 17 13 17 37 0 42 -25 62 -55 44 -12 -8 -21 -9
-25 -3 -3 6 -13 10 -21 10 -11 0 -14 -23 -14 -130z"/>
<path d="M371 301 c-37 -37 -39 -184 -4 -223 24 -26 79 -23 97 5 34 52 32 181
-5 218 -10 10 -30 19 -44 19 -14 0 -34 -9 -44 -19z m67 -96 c4 -81 -3 -115
-22 -115 -20 0 -26 23 -26 95 0 75 7 97 29 93 13 -3 17 -18 19 -73z"/>
<path d="M661 294 c-17 -22 -21 -41 -21 -108 0 -101 14 -126 69 -126 41 0 55
11 64 48 7 30 -25 30 -45 0 -20 -30 -38 -15 -38 33 0 39 0 39 39 39 26 0 41 5
45 16 33 86 -59 166 -113 98z m69 -49 c0 -28 -4 -35 -20 -35 -16 0 -20 7 -20
35 0 28 4 35 20 35 16 0 20 -7 20 -35z"/>
<path d="M832 304 c-34 -23 -28 -64 18 -125 22 -30 40 -62 40 -72 0 -27 -34
-17 -38 11 -5 35 -42 30 -42 -6 0 -38 17 -52 62 -52 29 0 41 6 54 25 20 30 13
50 -37 117 -43 58 -48 78 -20 78 12 0 21 -9 25 -25 10 -39 36 -32 36 10 0 52
-51 72 -98 39z"/>
<path d="M992 313 c-21 -8 -33 -50 -22 -79 6 -14 26 -46 46 -70 23 -27 34 -50
30 -60 -8 -20 -28 -14 -41 14 -18 40 -53 16 -38 -26 9 -25 23 -32 64 -32 72 0
81 58 19 135 -44 55 -51 85 -20 85 15 0 20 -7 20 -26 0 -33 33 -29 38 4 7 45
-47 75 -96 55z"/>
<path d="M1130 190 l0 -130 25 0 25 0 0 130 0 130 -25 0 -25 0 0 -130z"/>
<path d="M1249 301 c-20 -16 -24 -30 -27 -93 -3 -51 1 -85 12 -111 14 -34 18
-37 55 -37 58 0 71 23 71 132 0 75 -3 91 -20 108 -25 25 -61 26 -91 1z m65
-43 c19 -72 -3 -182 -32 -164 -13 8 -17 167 -5 179 13 14 31 6 37 -15z"/>
<path d="M1410 190 c0 -123 1 -130 20 -130 18 0 20 8 22 108 3 102 4 107 26
110 22 3 22 2 22 -107 l0 -111 25 0 25 0 0 113 c0 102 -2 116 -21 132 -17 17
-24 17 -52 7 -21 -8 -33 -9 -35 -2 -2 5 -10 10 -18 10 -11 0 -14 -25 -14 -130z"/>
<path d="M1612 304 c-16 -11 -22 -24 -20 -42 4 -35 26 -39 38 -7 13 34 44 30
48 -6 2 -20 -5 -30 -35 -50 -50 -32 -69 -71 -53 -110 12 -27 15 -29 71 -27
l59 2 0 112 c0 89 -3 116 -16 128 -20 21 -63 20 -92 0z m66 -166 c-2 -35 -7
-43 -23 -43 -27 0 -32 40 -9 66 26 29 35 23 32 -23z"/>
</g>
</svg>
