<svg width="200" height="48" viewBox="0 0 200 48" fill="none" xmlns="http://www.w3.org/2000/svg">
<mask id="mask0_1209_767" style="mask-type:alpha" maskUnits="userSpaceOnUse" x="0" y="0" width="200" height="48">
<rect width="200" height="48" fill="#D9D9D9"/>
</mask>
<g mask="url(#mask0_1209_767)">
<path d="M100.354 5.23789C101.143 5.27481 101.897 5.57637 102.494 6.094C103.307 6.8645 103.521 8.14929 103.135 9.17724C101.639 12.2599 98.0794 14.3189 95.6471 15C94.1919 15.3425 92.3524 15.3425 91.0256 14.8288C90.3833 15.2141 89.8414 16.4591 89.0571 15.9418C87.9219 15.0546 88.9046 13.6662 88.2492 12.6811C88.1141 12.4782 87.7737 12.4633 87.6026 12.1314C86.7035 10.1618 87.8165 8.2777 89.0571 6.77951C91.1254 4.4705 97.0595 1.89782 100.354 5.23789ZM93.4647 6.77889C92.309 6.99292 91.0039 7.49604 90.2983 8.32051C89.5921 9.14436 89.1433 9.94774 89.5711 10.8038C91.069 9.69091 91.7963 8.14929 93.4653 7.20757C93.4647 7.03573 93.7214 6.90731 93.4647 6.77889ZM100.44 7.20757C97.4873 6.95011 95.2621 9.17724 93.1652 11.3175C93.0369 11.66 92.2668 12.0452 92.8658 12.4305C95.6905 12.6873 98.3863 11.8746 100.44 9.98993C101.04 9.43345 101.466 8.70576 101.168 7.93464C101.04 7.63562 100.738 7.33598 100.44 7.20757ZM126.028 19.9667C127.398 23.3068 128.553 28.5725 126.028 31.7841C125.344 32.5546 124.146 33.265 123.376 32.683C120.551 30.4144 119.354 27.1599 117.6 24.2479C117.343 24.1195 117.343 24.4625 117.215 24.5909C116.573 27.5451 117.771 31.3989 115.76 33.7104C114.99 33.8388 114.269 33.4424 114.005 32.683C113.021 29.6432 114.047 26.4744 114.304 23.4346C114.903 21.893 115.16 20.0951 116.487 18.9388C118.626 19.7949 119.653 22.1932 120.893 23.9489C121.793 25.2758 122.519 26.7746 123.546 27.9732C124.444 27.588 124.002 26.413 123.974 25.7039C123.631 22.9209 122.861 20.352 122.133 17.6974C122.091 17.0125 121.706 15.8561 122.432 15.4281C124.361 16.2848 125.172 18.2967 126.028 19.9667ZM113.106 18.9388C113.106 19.5815 112.592 20.3842 112.163 20.4804C108.056 21.1225 103.477 20.7372 99.6263 22.0214C99.4979 22.4922 100.054 22.5778 100.354 22.7063C103.648 23.2199 107.115 23.3483 110.324 24.1623C112.021 24.5934 112.636 26.6034 112.764 28.2728C112.843 29.5893 112.337 31.1842 111.052 32.0838C107.887 34.0963 103.051 34.01 99.8408 32.17C98.6138 31.4814 97.4445 30.3722 97.3589 29.0018C97.3664 27.9136 97.8301 27.0569 98.6002 26.6469C101.682 25.4049 105.49 26.091 108.143 27.6742C108.313 28.5309 107.387 28.4844 106.944 28.7877C103.99 30.5006 101.766 26.8621 99.0273 28.1879C98.6423 28.4447 98.3639 29.1612 98.8134 29.387C102.194 30.8858 105.96 29.8151 109.297 28.8734C109.682 28.7449 110.153 28.3597 110.195 27.9744C110.067 26.604 108.527 26.305 107.542 25.9198C104.633 25.1921 101.424 25.1921 98.2995 24.8924C97.7005 24.764 96.9373 24.3465 96.7594 23.8651C96.4171 22.8378 96.4171 21.4246 97.1872 20.5685C101.166 17.0572 107.2 17.3574 112.249 18.2992C112.592 18.4251 112.977 18.5535 113.106 18.9388ZM94.4065 20.566C94.7915 24.6759 95.0054 28.4875 94.9198 32.8115C94.8343 33.3673 94.1926 33.4964 93.7648 33.7104C93.0803 33.8388 92.1955 33.693 91.9246 33.3251C90.9406 31.7401 91.2829 29.6004 91.1973 27.6736C91.3257 24.6344 91.2829 21.3371 92.1391 18.5107C92.3028 18.1 92.7808 17.7402 93.1658 17.9964C94.1926 18.5107 94.3637 19.5387 94.4065 20.566ZM141.948 19.9667C142.154 20.3129 142.369 20.8476 141.948 21.0797C140.023 21.9358 137.413 21.5505 135.187 21.8073C134.588 22.321 134.117 23.1771 134.33 23.9482C134.545 24.0767 134.737 24.2721 134.973 24.2473C136.342 24.3335 138.396 23.6052 139.296 24.8893C139.515 25.2715 139.266 26.6983 138.654 26.7306C136.985 26.9459 134.239 26.5209 133.433 26.9459C132.406 27.6308 132.491 28.9577 132.106 30.0291C132.834 30.5 133.596 30.0179 134.459 29.9001C136.043 29.6432 137.798 29.1724 139.38 29.5148C139.68 30.0713 140.108 30.6712 139.808 31.3561C137.11 33.497 133.631 35.6912 129.924 34.1391C128.533 33.515 127.913 31.3989 128.384 29.6017C128.683 28.3169 130.009 27.0755 129.197 25.7051C129.068 25.1052 129.411 24.5922 129.925 24.4638C131.336 24.4638 131.036 22.7081 131.764 21.8942C130.951 20.9953 128.898 21.0381 129.112 19.2396C130.096 18.726 131.295 18.8972 132.406 18.726C134.93 18.2117 137.755 17.912 140.324 18.2117C140.835 18.3147 141.52 19.3246 141.948 19.9667ZM80.8414 10.2046C84.7902 13.4342 89.9133 18.9394 89.2716 25.2758C88.5009 30.2859 83.195 34.0534 78.7018 35.2526C74.337 36.5368 68.8599 36.4084 64.4089 35.381C64.1094 36.195 63.8099 37.1789 62.8688 37.5219C62.2699 37.736 61.4992 37.6075 61.0286 37.2223C59.7024 35.9803 60.7719 33.5826 58.8462 32.8127C55.0803 31.2283 51.0149 28.1022 49.0898 24.2491C48.8331 23.4786 49.1326 22.7081 49.6032 22.1088C52.5563 19.7539 56.2788 18.8122 60.0019 18.0839C60.2158 18.1695 60.1302 17.8699 60.3013 17.7842C60.5152 15.2153 60.6008 12.6029 61.4136 10.2908C61.599 9.96635 62.0553 9.86275 62.3554 10.0768C64.7089 11.8746 63.596 15.2581 64.6234 17.698C69.1165 17.912 73.6097 18.1261 77.1611 20.6528C78.3595 21.6374 78.6516 23.5177 78.2734 24.5922C77.8958 25.6648 76.6477 26.4334 75.492 26.5178C74.7214 26.5178 73.2668 26.5929 73.3524 26.0048C73.438 25.416 75.9701 24.4526 75.1926 23.6492C74.0747 22.4947 68.4817 21.808 65.0152 21.3799C64.5874 21.2943 64.195 21.4227 64.195 21.8936C64.1094 25.1474 63.8527 28.7437 64.4089 31.8704C64.4516 32.085 64.7083 32.3418 64.9228 32.3834C71.0417 33.3686 77.5033 32.8115 82.2959 29.3008C84.5211 27.5036 85.249 24.9756 84.8634 22.1932C82.9376 14.4436 74.8503 9.7759 68.2175 6.77889C61.7565 3.95311 54.6097 2.4971 46.9502 2.88297C45.7307 2.9723 43.7981 3.39353 43.7838 3.82531C43.7696 4.25709 45.9731 4.12123 45.709 4.93825C45.4454 5.75466 43.206 5.27015 42.5426 5.06667C41.8792 4.86319 41.9437 3.9103 42.1148 3.31102C43.7838 0.356824 48.4413 0.117982 50.545 0.0143802C62.1837 -0.285879 73.4386 4.14915 80.8414 10.2046ZM59.8735 21.6795C56.9205 21.7224 53.7969 22.022 51.0583 23.0493C50.5022 23.2634 49.8171 23.8626 50.2449 24.5909C51.3572 26.0891 52.9481 27.3193 54.4386 28.1872C55.9291 29.0539 57.905 30.1569 59.7024 30.4144C60.1302 27.6308 60.1302 24.8906 60.0874 22.022C59.9157 21.9364 60.0868 21.7652 59.8735 21.6795ZM148.323 17.783C148.195 21.5077 144.728 23.8204 144.728 27.5451C144.856 27.6736 144.943 27.8448 145.113 27.7604C147.895 24.72 150.633 20.3954 154.699 19.1112C155.77 19.0256 156.738 19.9568 157.138 20.6528C158.551 23.4786 158.21 27.4608 156.241 30.0297C154.209 32.5515 150.677 35.082 146.656 34.6533C144.988 38.7639 143.83 43.0885 143.188 47.5843C142.846 48.4832 142.034 47.6699 141.52 47.4987C138.055 44.7585 140.9 37.5046 141.135 36.579C141.37 35.6559 142.298 33.4784 142.976 31.6551C141.35 28.7443 142.377 25.2324 143.703 22.535C144.73 20.7366 146.143 18.9381 147.812 17.5684C148.024 17.569 148.195 17.6118 148.323 17.783ZM155.214 22.4072C154.701 22.3216 154.486 23.0071 154.059 23.1356C152.091 25.3621 150.122 27.5886 149.137 30.2431C150.465 30.4144 151.576 29.5582 152.733 29.0874C154.701 27.8454 155.942 25.7914 155.813 23.4358C155.727 23.0493 155.385 22.7497 155.214 22.4072Z" fill="white"/>
</g>
</svg>
