<svg width="200" height="48" viewBox="0 0 200 48" fill="none" xmlns="http://www.w3.org/2000/svg">
<mask id="mask0_1209_755" style="mask-type:alpha" maskUnits="userSpaceOnUse" x="0" y="0" width="200" height="48">
<rect width="200" height="48" fill="#D9D9D9"/>
</mask>
<g mask="url(#mask0_1209_755)">
<path d="M13.9966 9.2875C11.629 9.63525 9.00593 11.0495 9.00593 11.9536C9.00593 12.6491 9.98086 13.6692 11.2343 14.2952C12.5807 14.9675 12.6735 14.9907 15.8537 14.9675C18.5928 14.9211 19.2659 14.8516 20.148 14.4574C21.6568 13.7619 22.2371 13.136 22.2371 12.2318C22.2371 10.1917 18.0356 8.68472 13.9966 9.2875ZM60.3523 9.58888C60.2362 9.75117 59.8416 10.5626 59.5166 11.3972C59.1684 12.2318 58.797 13.1128 58.681 13.3678C58.5649 13.6228 57.9846 15.1298 57.3578 16.7063C56.7543 18.2828 56.1276 19.6042 55.9651 19.6738C55.8026 19.7433 55.083 19.5115 54.3634 19.1637C51.485 17.8191 50.0459 17.5872 43.7088 17.5872C37.1396 17.5872 34.4702 17.935 30.4776 19.326C30.1062 19.4419 29.5259 19.6042 29.2241 19.6738C28.4581 19.8592 25.7887 21.2966 24.5352 22.2008C22.1675 23.9164 20.148 27.4867 20.148 29.8978C20.148 32.1698 21.7961 34.3722 24.2102 35.3227C26.5779 36.2501 27.1582 36.4124 29.4098 36.8065C31.3829 37.1079 32.7292 37.1774 36.4897 37.0615C42.1304 36.9224 44.8694 36.5283 48.4674 35.3691C49.9762 34.9054 50.0923 34.9286 50.0923 35.856V36.6674H60.979L61.4433 36.0646C61.7218 35.7168 61.9307 35.3227 61.9307 35.1373C61.9307 34.975 62.07 34.5577 62.2557 34.1867C62.4182 33.839 62.72 33.1667 62.9057 32.7262C63.0914 32.2857 63.4163 31.5438 63.602 31.1033C63.9734 30.2687 64.5073 28.9009 65.1109 27.278C65.2966 26.768 65.5983 26.0261 65.7608 25.6551C66.0394 24.9828 66.759 23.244 68.2214 19.5578C69.057 17.5177 69.7534 15.8717 70.0784 15.2921C70.1944 15.0602 70.2873 14.7357 70.2873 14.5502C70.2873 14.3647 70.4265 13.9242 70.6122 13.5533C71.1926 12.4173 72.1443 9.983 72.1443 9.63525C72.1443 9.35705 71.239 9.31068 66.3643 9.31068C62.0236 9.31068 60.538 9.38023 60.3523 9.58888ZM47.8174 21.6212C51.9029 22.2472 53.8295 24.1946 53.0867 26.8839C52.7385 28.159 50.5798 30.4542 49.0477 31.196C46.0533 32.6566 44.498 33.0044 40.9233 33.0275C37.1164 33.0739 35.4451 32.6334 33.9595 31.196C32.7292 30.0137 32.4971 29.1559 33.0542 27.6258C34.6327 23.2209 41.109 20.6011 47.8174 21.6212ZM77.7617 9.8439C77.4832 10.1453 77.2511 10.493 77.2511 10.6321C77.2511 10.7712 77.0421 11.374 76.7636 12C76.1369 13.5069 75.9744 13.901 75.5565 14.9907C74.7441 17.1699 73.6067 19.9288 72.7478 21.8994C72.5389 22.3863 72.3764 22.8731 72.3764 22.989C72.3764 23.1281 72.0746 23.87 71.7265 24.6583C71.3551 25.4697 70.8676 26.5825 70.6587 27.1621C70.4266 27.7417 70.1016 28.5067 69.9391 28.9009C69.7766 29.2718 69.4052 30.176 69.1499 30.8715C68.8713 31.567 68.5463 32.3552 68.4535 32.6102C68.3374 32.8653 68.0821 33.5376 67.8499 34.1172C67.641 34.6968 67.3625 35.3459 67.2464 35.5546C66.6661 36.6674 66.6429 36.6674 72.8174 36.6674C77.785 36.6674 78.667 36.621 78.9688 36.2964C79.1777 36.111 79.3402 35.7864 79.3402 35.5777C79.3402 35.3923 79.4795 34.9518 79.642 34.6272C80.2223 33.4912 81.6615 30.0137 82.4739 27.8576C82.6364 27.4171 83.1006 26.2347 83.4953 25.2378C83.8899 24.2641 84.5398 22.6413 84.9344 21.6444C85.3291 20.6707 85.8165 19.4419 86.0254 18.9319C86.2111 18.4219 86.6754 17.3554 87.0468 16.544C87.395 15.7557 87.6967 15.0139 87.6967 14.8979C87.6967 14.8052 88.161 13.6228 88.7413 12.3014C89.3216 10.9799 89.7395 9.77435 89.693 9.61207C89.6002 9.38023 88.3235 9.31068 83.9131 9.31068C78.2956 9.31068 78.2492 9.31068 77.7617 9.8439ZM108.472 17.6336C106.313 17.7263 104.062 17.935 103.481 18.0973C102.901 18.2596 101.81 18.5378 101.044 18.7464C99.0709 19.2565 97.4461 19.7433 96.564 20.1143C96.1461 20.2997 95.6819 20.4388 95.4962 20.4388C95.3337 20.4388 94.6373 20.7402 93.9409 21.088C90.4358 22.9195 88.4628 25.006 87.4182 27.9735C86.8611 29.5036 86.8843 29.9673 87.6039 31.4511C88.8574 34.1404 92.4089 35.7864 99.0941 36.7601C101.996 37.2006 110.631 37.2702 112.999 36.876C113.834 36.7369 115.668 36.5515 117.061 36.4355C119.777 36.2269 122.655 35.8096 123.189 35.5314C123.583 35.3227 123.676 35.1836 124.466 33.2362C125.208 31.4511 125.069 31.3351 122.609 31.8915C121.657 32.1002 120.519 32.2625 120.055 32.2625C119.614 32.2625 118.546 32.4016 117.687 32.5871C116.829 32.7725 114.577 33.0275 112.674 33.1898C109.076 33.468 106.336 33.2826 103.365 32.6102C102.599 32.4248 101.648 32.2161 101.253 32.1466C99.6977 31.8452 97.9567 29.5732 98.862 28.9936C99.0477 28.8777 105.942 28.7849 114.206 28.7849H129.201L129.712 27.9735C130.129 27.3012 130.222 26.768 130.269 25.1219C130.292 22.7804 129.897 21.9226 128.249 20.6011C124.953 18.0509 119.521 17.2395 108.472 17.6336ZM115.436 21.4821C118.082 22.0385 119.73 23.3832 119.452 24.7742C119.382 25.1683 118.871 25.1915 110.097 25.261C104.99 25.2842 100.673 25.261 100.487 25.1915C99.9762 24.9828 101.23 23.8236 102.762 23.0818C103.481 22.734 104.317 22.3167 104.642 22.1776C105.199 21.8994 108.008 21.4125 109.865 21.2734C112.256 21.1112 113.857 21.1575 115.436 21.4821ZM159.076 17.6568C156.545 17.8423 153.087 18.7001 151.578 19.4883C151.369 19.6042 151.021 19.7665 150.835 19.8592C150.324 20.0679 149.535 20.5316 149.117 20.8793C148.816 21.1343 148.653 21.1343 148.467 20.9489C148.258 20.7402 148.282 20.462 148.583 19.8592C148.792 19.3956 148.978 18.7696 148.978 18.445V17.8886L143.848 17.935L138.741 18.0045L137.906 19.9752C137.465 21.0648 136.954 22.2472 136.791 22.6413C136.629 23.0122 136.165 24.125 135.793 25.0756C134.284 28.8777 134.076 29.3645 133.867 29.5732C133.751 29.7123 133.658 29.9905 133.658 30.1991C133.658 30.5701 132.752 32.8189 131.754 34.9982C130.965 36.7137 130.849 36.6674 137.07 36.6674C140.111 36.6674 142.734 36.5746 142.92 36.4587C143.221 36.2501 145.496 31.2424 145.496 30.7556C145.496 30.3151 147.284 26.9766 147.934 26.1884C149.164 24.7278 150.928 23.615 153.11 22.9427C154.433 22.5485 155.338 22.479 159.029 22.4326L163.416 22.4094L163.834 21.598C164.066 21.1575 164.438 20.3693 164.67 19.8592C164.879 19.3492 165.157 18.7232 165.297 18.4914C165.807 17.4481 164.368 17.2627 159.076 17.6568ZM183.565 17.5872C181.522 17.6568 177.39 18.2132 175.092 18.7232C172.376 19.326 170.496 20.1374 168.964 21.343C167.827 22.2472 166.968 23.87 167.177 24.7278C167.386 25.5624 168.361 26.5825 169.336 26.9766C170.496 27.4403 173.282 28.0894 174.141 28.0894C174.512 28.0894 175.417 28.2285 176.114 28.414C176.833 28.5995 178.458 28.924 179.735 29.1559C184.145 29.9441 185.306 30.6628 183.867 31.7061C182.729 32.5407 181.429 32.8884 178.388 33.1898C175.998 33.4449 174.93 33.4449 173.166 33.2362C171.912 33.0739 170.427 32.958 169.846 32.958C169.266 32.958 168.268 32.7957 167.641 32.6102C165.389 31.9379 164.856 32.1234 163.788 34.0708C163.509 34.6272 163.138 35.2995 162.975 35.5777C162.604 36.2501 162.79 36.4355 163.881 36.4355C164.391 36.4355 165.923 36.5978 167.293 36.8065C169.266 37.1079 170.914 37.1542 175.557 37.0615C187 36.8065 193.105 35.485 196.03 32.5871C198.003 30.5933 197.609 28.3445 195.055 27.0925C193.686 26.4202 189.09 25.3074 187.72 25.3074C186.675 25.3074 183.008 24.6583 181.499 24.1946C180.826 23.9859 180.199 23.6845 180.129 23.4991C179.921 22.9427 181.406 21.9458 182.961 21.5748C184.818 21.1575 191.48 21.1343 194.614 21.5748C195.914 21.7603 197.214 21.8298 197.516 21.7603C197.864 21.6676 198.398 21.088 198.955 20.207C199.907 18.6537 199.999 18.2364 199.419 18.0045C198.537 17.6568 188.695 17.4018 183.565 17.5872ZM7.2882 18.3987C7.07929 18.6769 6.9168 19.071 6.9168 19.2333C6.9168 19.4187 6.77752 19.8361 6.59182 20.1606C6.40612 20.5084 6.03472 21.3662 5.75617 22.0617C5.50083 22.7572 5.17585 23.5454 5.083 23.8005C4.96694 24.0555 4.38662 25.4697 3.78309 26.9302C3.20278 28.3908 2.57604 29.8978 2.39034 30.2919C2.22785 30.6628 1.92608 31.4511 1.69396 32.0307C1.27613 33.1203 0.974366 33.8622 0.324412 35.3459C0.115499 35.8328 -0.000564492 36.3428 0.0690734 36.4587C0.161924 36.5746 2.62246 36.6674 5.89544 36.6674C11.2576 36.6674 11.5825 36.6442 12.0236 36.2037C12.2789 35.9487 12.4878 35.6241 12.4878 35.485C12.4878 35.3459 12.6271 34.9054 12.8128 34.5113C12.9753 34.094 13.4628 32.9348 13.8806 31.9147C14.2752 30.8947 14.7395 29.7355 14.9252 29.3645C15.2037 28.669 15.668 27.4867 16.2947 25.8174C16.6893 24.7742 17.7803 22.0153 18.616 20.0215C18.9409 19.2101 19.2195 18.3987 19.2195 18.2132C19.2195 17.935 18.3142 17.8886 13.4395 17.8886C7.70603 17.8886 7.63639 17.8886 7.2882 18.3987Z" fill="white"/>
</g>
</svg>
