<svg width="184" height="48" viewBox="0 0 184 48" fill="none" xmlns="http://www.w3.org/2000/svg">
<mask id="mask0_1209_783" style="mask-type:alpha" maskUnits="userSpaceOnUse" x="0" y="0" width="184" height="48">
<rect width="184" height="48" fill="#D9D9D9"/>
</mask>
<g mask="url(#mask0_1209_783)">
<path d="M25.2246 15.626H30.2682V40.6912H25.2246V15.626ZM36.5052 15.626H41.5488V18.2969H41.6482C43.2253 16.3221 45.502 15.3276 48.1694 15.3276C52.0764 15.3276 56.5269 18.3467 56.5269 24.0296V40.6876H51.4833V25.7629C51.4833 22.3531 49.3557 20.3747 46.5427 20.3747C43.6728 20.3747 41.5488 22.3531 41.5488 25.7629V40.6947H36.5052V15.626ZM63.4067 19.4832H60.8849V15.626H63.4067V12.3157C63.4067 7.61659 66.3228 5.49615 70.2298 5.49615H73.4939V10.2343H70.624C68.9902 10.2343 68.4468 10.7777 68.4468 12.3121V15.6224H73.4904V19.4797H68.4468V40.6841H63.4067V19.4832ZM78.4345 15.626H83.4781V40.6912H78.4345V15.626ZM90.2834 15.626H95.327V18.2969H95.43C97.0141 16.3221 99.2837 15.3276 101.958 15.3276C105.865 15.3276 110.312 18.3467 110.312 24.0296V40.6876H105.269V25.7629C105.269 22.3531 103.145 20.3747 100.324 20.3747C97.4581 20.3747 95.3305 22.3531 95.3305 25.7629V40.6947H90.287L90.2834 15.626ZM135.221 30.0606V25.9085C135.221 19.4335 130.426 15.3276 124.885 15.3276C120.041 15.3276 114.557 18.4923 114.557 28.2314C114.557 38.5139 120.538 40.9824 125.681 40.9824C129.037 40.9824 132.252 39.7997 134.724 36.9334L131.065 33.8184C129.584 35.3457 127.507 36.2443 125.578 36.2443C122.118 36.2443 119.597 34.1665 119.597 30.0606H135.221ZM119.593 25.9085C119.7 22.1009 121.923 20.0764 124.885 20.0764C127.855 20.0764 130.025 22.1009 130.178 25.9085H119.593ZM140.076 15.626H145.12V18.2969H145.212C146.796 16.3221 149.073 15.3276 151.744 15.3276C153.769 15.3276 155.449 16.0735 156.983 17.2598L153.325 21.6072C152.138 20.7193 151.3 20.3712 150.011 20.3712C147.539 20.3712 145.116 21.9553 145.116 25.6137V40.6912H140.073L140.076 15.626ZM172.604 40.6912H177.648V23.5856C177.648 17.4054 173.396 15.3276 167.216 15.3276C163.462 15.3276 160.691 16.3221 158.763 18.986L162.716 22.005C163.607 20.5737 164.847 20.0764 167.461 20.0764C171.07 20.0764 172.604 20.9182 172.604 23.2872V25.9085H165.635C160.247 25.9085 157.477 29.3182 157.477 33.3247C157.477 37.6757 160.737 40.986 166.328 40.986C169.738 40.986 171.471 40.1939 172.508 38.4642H172.604V40.6912ZM172.604 31.8898C172.604 35.7968 171.173 36.2408 166.971 36.2408C163.561 36.2408 162.226 34.7561 162.226 33.0796C162.226 31.2504 163.611 30.0606 166.573 30.0606H172.604V31.8898ZM83.5172 7.52069C83.5172 7.85676 83.451 8.18953 83.3224 8.50001C83.1938 8.8105 83.0053 9.09261 82.7676 9.33024C82.53 9.56788 82.2479 9.75638 81.9374 9.88498C81.6269 10.0136 81.2941 10.0798 80.9581 10.0798C80.622 10.0798 80.2892 10.0136 79.9788 9.88498C79.6683 9.75638 79.3862 9.56788 79.1485 9.33024C78.9109 9.09261 78.7224 8.8105 78.5938 8.50001C78.4652 8.18953 78.399 7.85676 78.399 7.52069C78.399 6.84245 78.6684 6.19199 79.148 5.7124C79.6276 5.23281 80.2781 4.96338 80.9563 4.96338C81.6345 4.96338 82.285 5.23281 82.7646 5.7124C83.2442 6.19199 83.5172 6.84245 83.5172 7.52069Z" fill="white"/>
<path d="M179.676 13.974H180.408C180.76 13.974 180.998 13.9208 181.126 13.8178C181.188 13.7689 181.237 13.7061 181.271 13.6346C181.304 13.563 181.32 13.4846 181.317 13.4057C181.319 13.3001 181.287 13.1968 181.225 13.1109C181.162 13.0213 181.072 12.9532 180.969 12.9156C180.771 12.8625 180.567 12.8409 180.362 12.8517H179.676V13.974ZM179.083 16.0519V12.358H180.355C180.788 12.358 181.101 12.3935 181.293 12.4574C181.483 12.5215 181.647 12.6478 181.758 12.8161C181.869 12.9743 181.928 13.1628 181.928 13.356C181.931 13.6199 181.829 13.8741 181.644 14.0628C181.435 14.2663 181.158 14.3852 180.866 14.3967C180.984 14.4403 181.091 14.5067 181.182 14.5921C181.332 14.7412 181.513 14.9828 181.726 15.3273L182.177 16.0519H181.459L181.126 15.4658C180.866 15.0112 180.664 14.727 180.504 14.6134C180.397 14.5246 180.238 14.4784 180.025 14.482H179.676V16.0519H179.083ZM180.586 11.2924C180.094 11.2948 179.612 11.4219 179.183 11.6618C178.524 12.0393 178.042 12.6618 177.84 13.3937C177.638 14.1255 177.734 14.9073 178.107 15.5688C178.355 16.0234 178.71 16.3786 179.165 16.6308C179.599 16.8761 180.089 17.005 180.587 17.005C181.086 17.005 181.576 16.8761 182.01 16.6308C182.548 16.312 182.967 15.8262 183.204 15.2473C183.44 14.6684 183.481 14.0282 183.32 13.4239C183.159 12.8196 182.806 12.2844 182.313 11.8996C181.82 11.5149 181.215 11.3017 180.589 11.2924M180.589 10.7241C181.161 10.7241 181.722 10.8733 182.273 11.1681C182.812 11.4569 183.257 11.8962 183.551 12.4325C184 13.2229 184.119 14.158 183.883 15.0355C183.647 15.9129 183.075 16.6622 182.291 17.121C181.77 17.4185 181.18 17.5742 180.58 17.5725C179.98 17.5708 179.39 17.4117 178.871 17.1113C178.352 16.8108 177.92 16.3794 177.62 15.86C177.319 15.3407 177.16 14.7517 177.158 14.1516C177.158 13.5549 177.314 12.9795 177.62 12.4325C177.916 11.8947 178.363 11.4551 178.906 11.1681C179.419 10.8803 179.997 10.7275 180.586 10.7241" fill="white"/>
<path d="M28.9282 9.04417C28.193 9.35673 23.9166 8.9092 23.9166 8.9092C23.9166 8.9092 24.8933 5.22951 25.7919 4.76422C26.7971 4.24566 27.5394 4.37352 29.0667 6.25599C30.594 8.1278 29.2976 8.89144 28.9247 9.04772M14.4119 23.6883C9.18005 31.1188 7.45031 29.0623 5.20911 27.0555C2.96436 25.0451 1.47259 18.5524 1.51876 14.7662C1.56494 10.987 3.1526 10.7064 4.27498 10.4685C5.39381 10.234 7.78063 10.0493 10.9524 10.4685C14.1277 10.8947 20.8087 11.5447 20.8087 11.5447C20.8087 11.5447 19.6437 16.265 14.4119 23.6955M29.7664 5.19754C28.3564 3.0771 26.7793 3.05935 25.7422 3.32573C24.2185 3.71643 22.1797 8.61795 22.1797 8.61795C22.1797 8.61795 16.8449 7.99283 12.2595 7.73C7.67763 7.47071 4.36022 8.25567 2.5701 9.39225C0.783536 10.5288 -0.743749 15.1533 0.389284 22.399C1.52587 29.6448 4.71186 32.2625 6.85005 33.0048C8.98825 33.7507 13.0942 32.6141 16.8449 25.8905C20.5956 19.1669 22.9114 11.7045 22.9114 11.7045C27.8946 11.8643 29.1093 10.6567 30.3347 9.52367C31.5566 8.38708 30.9492 6.98766 29.7664 5.2011" fill="#75DAB4"/>
</g>
</svg>
