<svg width="200" height="48" viewBox="0 0 200 48" fill="none" xmlns="http://www.w3.org/2000/svg">
<mask id="mask0_1209_770" style="mask-type:alpha" maskUnits="userSpaceOnUse" x="0" y="0" width="200" height="48">
<rect width="200" height="48" fill="#D9D9D9"/>
</mask>
<g mask="url(#mask0_1209_770)">
<path fill-rule="evenodd" clip-rule="evenodd" d="M25.9425 12.0458L25.2129 12.2282V35.5885L25.9425 35.955C49.6685 43.8029 74.4889 48 99.8574 48C125.044 48 149.865 43.9853 173.589 35.955L174.32 35.7709V12.2282L173.589 12.0458C149.865 4.01556 125.043 0 99.8574 0C74.4889 0 49.6685 4.01556 25.9425 12.0458ZM99.8574 2.37302C124.495 2.37302 148.769 6.38773 171.947 14.0532V33.946C148.77 41.6114 124.495 45.4446 99.8574 45.4446C75.037 45.4446 50.7629 41.6114 27.5851 33.946V14.0532C50.7638 6.38858 75.037 2.37302 99.8574 2.37302Z" fill="white"/>
<path fill-rule="evenodd" clip-rule="evenodd" d="M75.7659 24.4564C75.7659 29.5664 79.9638 33.582 85.0738 33.582C90.1839 33.582 94.3818 29.5673 94.3818 24.4564C94.3818 19.3464 90.1839 15.1484 85.0738 15.1484C79.9638 15.1484 75.7659 19.3464 75.7659 24.4564ZM78.5037 24.4564C78.5037 20.6233 81.424 17.7039 85.0747 17.7039C88.7254 17.7039 91.8272 20.6241 91.8272 24.4564C91.8272 28.1071 88.7246 31.0266 85.0747 31.0266C81.4248 31.0266 78.5037 28.1071 78.5037 24.4564ZM116.1 24.4564C116.1 29.5664 120.298 33.582 125.408 33.582C130.519 33.582 134.716 29.5673 134.716 24.4564C134.716 19.3464 130.519 15.1484 125.408 15.1484C120.298 15.1484 116.1 19.3464 116.1 24.4564ZM118.837 24.4564C118.837 20.6233 121.757 17.7039 125.408 17.7039C129.058 17.7039 132.16 20.6241 132.16 24.4564C132.16 28.1071 129.058 31.0266 125.408 31.0266C121.757 31.0266 118.837 28.1071 118.837 24.4564Z" fill="white"/>
<path fill-rule="evenodd" clip-rule="evenodd" d="M59.707 24.4565C59.707 29.5665 63.9041 33.5821 69.015 33.5821C71.3872 33.5821 73.7602 32.6692 75.5851 30.8443L73.7602 29.0185C72.4825 30.2962 70.6575 31.0267 69.015 31.0267C65.7299 31.0267 62.9921 28.6536 62.4449 25.7342H78.1406V24.4565C78.1406 19.3465 74.125 15.1486 69.015 15.1486C63.9041 15.1486 59.707 19.3465 59.707 24.4565ZM69.0142 17.704C72.1168 17.704 74.8547 20.077 75.5843 22.9964H62.444C62.9921 20.0762 65.7291 17.704 69.0142 17.704ZM91.8281 32.8516H94.3827V7.66553H91.8281V32.8516ZM146.58 24.4565C146.58 29.5665 150.594 33.5821 155.705 33.5821C160.816 33.5821 165.013 29.5674 165.013 24.4565C165.013 19.3465 160.816 15.1486 155.705 15.1486C150.594 15.1486 146.58 19.3465 146.58 24.4565ZM149.134 24.4565C149.134 20.6234 152.054 17.704 155.704 17.704C159.355 17.704 162.457 20.6242 162.457 24.4565C162.457 28.1073 159.355 31.0267 155.704 31.0267C152.054 31.0267 149.134 28.1073 149.134 24.4565Z" fill="white"/>
<path fill-rule="evenodd" clip-rule="evenodd" d="M162.457 32.8518H165.011V15.6959H162.457V32.8518ZM96.389 14.2367H98.9444V11.3164H96.389V14.2367ZM34.8848 32.8518H37.6218V15.8792H34.8848V32.8518ZM96.389 32.8518H98.9444V15.8792H96.389V32.8518ZM101.865 22.4493H104.42C104.42 19.8939 106.611 17.7041 109.166 17.7041C111.722 17.7041 113.91 19.8947 113.91 22.4493V32.8518H116.466V22.4493C116.466 18.4338 113.182 15.1495 109.166 15.1495C105.151 15.1495 101.865 18.4338 101.865 22.4493Z" fill="white"/>
<path fill-rule="evenodd" clip-rule="evenodd" d="M35.0684 22.4492H37.6229C37.6229 19.8938 39.6311 17.704 42.0033 17.704C44.5587 17.704 46.5661 19.8946 46.5661 22.4492V32.8516H49.1215V22.4492C49.1215 18.4336 46.0189 15.1494 42.0033 15.1494C38.171 15.1486 35.0684 18.4336 35.0684 22.4492Z" fill="white"/>
<path fill-rule="evenodd" clip-rule="evenodd" d="M46.5662 22.4492H49.1216C49.1216 19.8938 51.1289 17.704 53.502 17.704C55.875 17.704 57.8823 19.8946 57.8823 22.4492V32.8516H60.4378V22.4492C60.4378 18.4336 57.3351 15.1494 53.5028 15.1494C49.6705 15.1494 46.5662 18.4336 46.5662 22.4492ZM101.684 32.8516H104.238V15.8791H101.684V32.8516ZM142.564 32.8516L149.865 15.6966H146.944C145.484 19.3474 142.2 27.1944 140.74 30.2962C139.463 27.1944 136.542 19.5289 134.899 15.6966H131.797L138.55 32.8516H142.564Z" fill="white"/>
</g>
</svg>
