<svg width="200" height="48" viewBox="0 0 200 48" fill="none" xmlns="http://www.w3.org/2000/svg">
<mask id="mask0_1209_779" style="mask-type:alpha" maskUnits="userSpaceOnUse" x="0" y="0" width="200" height="48">
<rect width="200" height="48" fill="#D9D9D9"/>
</mask>
<g mask="url(#mask0_1209_779)">
<path fill-rule="evenodd" clip-rule="evenodd" d="M22.9636 15.4755C21.4256 15.4755 20.1809 16.6549 20.1809 18.1108C20.1809 19.5666 21.4256 20.7433 22.9636 20.7433H38.2034C31.72 23.5765 25.1996 26.4281 25.1881 26.4317C21.4053 27.8911 17.1172 30.1641 17.1172 34.802C17.1172 39.3604 20.7056 42.19 26.4796 42.19H50.8725C52.4087 42.19 53.6561 41.0115 53.6561 39.5557C53.6561 38.0998 52.4079 36.9213 50.8725 36.9213H26.4805C22.6845 36.9213 22.6845 35.4354 22.6845 34.8029C22.6845 34.2852 22.6845 33.0741 27.3878 31.2728C27.4302 31.2569 27.4699 31.2401 27.5115 31.2224L52.0412 20.5022C53.2277 19.9845 53.8726 18.7548 53.5916 17.5445C53.3098 16.336 52.1791 15.4764 50.8734 15.4764L22.9636 15.4755ZM128.069 17.9624V33.7384C128.069 38.9461 124.912 38.9461 123.874 38.9461C121.419 38.9461 119.932 38.1316 117.294 35.3436L101.896 16.7035C101.197 15.8563 100.006 15.5232 98.9312 15.8731C97.8578 16.2247 97.1361 17.1814 97.1361 18.2565V39.5716C97.1361 40.9656 98.326 42.0937 99.7978 42.0937C101.27 42.0937 102.46 40.9656 102.46 39.5716V25.5747L113.164 38.5309C113.2 38.5742 113.236 38.6157 113.273 38.6555C116.457 42.0319 119.215 43.9869 123.874 43.9869C129.746 43.9869 133.396 40.0619 133.396 33.7393V17.9624C133.396 16.5701 132.201 15.4411 130.731 15.4411C129.261 15.4411 128.069 16.571 128.069 17.9624ZM137.519 17.9624V40.1175C137.519 41.5098 138.71 42.6397 140.181 42.6397C141.651 42.6397 142.846 41.5098 142.846 40.1175V17.9624C142.846 16.5701 141.651 15.4411 140.181 15.4411C138.71 15.4411 137.519 16.571 137.519 17.9624ZM143.658 8.29338C143.658 10.1097 142.101 11.5823 140.18 11.5823C138.26 11.5823 136.703 10.1097 136.703 8.29338C136.703 6.47442 138.26 5 140.18 5C142.101 5 143.658 6.47442 143.658 8.29338ZM88.7198 37.1174H66.8005C64.4532 37.1174 62.4708 35.749 62.4708 34.1306V30.1694C63.6405 31.1076 65.3534 31.4168 66.8349 31.4168L83.717 31.4548C89.089 31.4548 93.4416 27.9388 93.4416 23.497C93.4416 19.0551 89.0881 15.4411 83.7382 15.4411H66.8005C61.4761 15.4411 57.1447 19.0437 57.1447 23.4713V34.1306C57.1447 38.5565 61.4761 42.1591 66.8005 42.1591H88.7198C90.188 42.1591 91.3824 41.0292 91.3824 39.6369C91.3815 38.2473 90.188 37.1174 88.7198 37.1174ZM83.7355 20.481C83.9228 20.481 84.1145 20.4951 84.3027 20.5119C86.4194 20.7089 88.1155 21.9907 88.1155 23.4961C88.1155 25.1286 86.111 26.3504 83.7382 26.3504C83.7382 26.3469 66.8561 26.3742 66.8561 26.3742C65.6193 26.3742 62.47 25.8566 62.47 23.4961C62.47 21.8617 64.4674 20.481 66.834 20.481H83.7355ZM150.819 20.481H172.738C175.084 20.481 177.068 21.8512 177.068 23.4687V27.4326C175.897 26.4926 174.185 26.1852 172.705 26.1852L155.819 26.1472C150.448 26.1472 146.096 29.6623 146.096 34.1032C146.096 38.5442 150.448 42.1591 155.797 42.1591H172.738C178.06 42.1591 182.394 38.5565 182.394 34.1306V23.4687C182.394 19.0428 178.061 15.4411 172.738 15.4411H150.819C149.35 15.4411 148.156 16.571 148.156 17.9624C148.156 19.3555 149.35 20.481 150.819 20.481ZM155.805 37.1174C155.614 37.1171 155.424 37.1073 155.235 37.0883C153.118 36.8913 151.42 35.6042 151.42 34.1032C151.42 32.4707 153.424 31.2498 155.797 31.2498L172.681 31.2268C173.918 31.2268 177.069 31.7427 177.069 34.1032C177.069 35.7358 175.069 37.1174 172.706 37.1174H155.805Z" fill="white"/>
</g>
</svg>
