<svg width="200" height="48" viewBox="0 0 200 48" fill="none" xmlns="http://www.w3.org/2000/svg">
<mask id="mask0_1209_758" style="mask-type:alpha" maskUnits="userSpaceOnUse" x="0" y="0" width="200" height="48">
<rect width="200" height="48" fill="#D9D9D9"/>
</mask>
<g mask="url(#mask0_1209_758)">
<path fill-rule="evenodd" clip-rule="evenodd" d="M30.0786 32.8239L33.771 14.3611H34.962C37.3442 14.3611 38.8928 14.2419 40.0839 16.2664C41.1557 18.1726 41.2749 21.1498 40.7981 23.4137C40.4415 25.6757 39.6071 27.9405 37.9402 29.965C37.225 30.9177 36.3915 31.6329 35.3206 32.2279C33.8911 32.8249 33.0567 32.8249 31.6282 32.8249L30.0786 32.8239ZM18.168 40.5654H31.3889C36.1531 40.5654 40.5607 39.4944 44.6097 36.0404C48.3021 32.8249 50.8034 28.0597 51.7561 23.6521C52.7088 18.7686 51.8753 14.1236 49.0164 10.7888C46.0383 7.21562 42.2267 6.61963 37.3432 6.61963H24.7193L18.168 40.5654Z" fill="white"/>
<path fill-rule="evenodd" clip-rule="evenodd" d="M66.1681 29.2508C65.573 32.1097 64.9771 35.2061 61.2847 35.2061C59.736 35.2061 58.7833 34.4909 59.1409 32.8249C59.7369 29.8459 63.786 29.0124 66.2873 28.774L66.1681 29.2508ZM74.2672 40.6856C73.9105 38.8976 74.1479 36.9932 74.5055 35.0869L76.2917 26.1526C77.0069 22.4611 78.0787 19.2446 75.1006 16.8625C73.0761 15.0763 69.2645 14.7188 66.2864 14.7188C60.5695 14.7188 54.2566 16.3866 51.5168 22.6995L60.4503 23.533C61.1655 21.3893 62.9516 20.675 64.8569 20.675C67.239 20.675 67.7149 21.6277 67.239 23.8906L67.1198 24.0098C63.7851 24.2482 60.3311 24.6058 56.8762 25.6767C53.1838 26.7495 49.4914 29.4892 48.7771 33.4191C47.7053 38.5409 51.2784 41.1614 56.0427 41.1614C59.4967 41.1614 62.5931 40.0887 65.0953 37.1105C64.8584 38.2872 64.7386 39.4844 64.7377 40.6846L74.2672 40.6856Z" fill="white"/>
<path fill-rule="evenodd" clip-rule="evenodd" d="M76.7695 21.7457L77.9606 15.1944H82.1298L84.3927 7.21453L93.0877 6.85693L91.4199 15.1944H96.5417L95.2315 21.7457H90.2288L88.561 30.4407C88.2034 32.347 87.7266 33.7746 90.1096 33.7746C91.0623 33.7746 92.0149 33.5362 92.9685 33.2978L91.5391 40.446L85.703 41.1612C82.9642 41.5179 80.5811 40.6844 79.0325 38.5407C77.4838 36.5161 78.0798 34.0139 78.5566 31.2742L80.4619 21.7457H76.7695Z" fill="white"/>
<path fill-rule="evenodd" clip-rule="evenodd" d="M110.002 29.2505C109.407 32.1094 108.811 35.2058 105 35.2058C103.571 35.2058 102.617 34.4906 102.974 32.8246C103.571 29.8456 107.619 29.0121 110.12 28.7737L110.002 29.2505ZM118.101 40.6853C117.624 38.8973 117.982 36.9929 118.339 35.0866L120.125 26.1523C120.84 22.4608 121.793 19.2443 118.934 16.8622C116.791 15.076 113.099 14.7185 110.12 14.7185C104.403 14.7185 98.0911 16.3863 95.3513 22.6992L104.285 23.5327C105 21.389 106.786 20.6747 108.691 20.6747C111.073 20.6747 111.43 21.6274 111.073 23.8903L110.954 24.0095C107.619 24.2479 104.165 24.6055 100.711 25.6764C97.0183 26.7492 93.3259 29.4889 92.4924 33.4188C91.5398 38.5406 95.1129 41.1611 99.8772 41.1611C103.331 41.1611 106.309 40.0884 108.93 37.1102C108.693 38.2868 108.572 39.4841 108.571 40.6843L118.101 40.6853ZM144.9 17.339H135.135L130.964 39.0174C134.538 37.1112 138.231 34.729 142.042 32.1094L144.9 17.339ZM146.806 7.81048H137.039L135.491 15.1953H145.377L146.806 7.81048ZM170.868 6.14355C170.509 8.04888 169.08 10.6694 166.697 13.7667H167.055C171.7 13.7667 170.868 20.4363 170.271 23.772C169.556 26.9885 168.008 33.2996 163.243 33.2996C158.479 33.2996 159.312 26.9885 160.027 23.772C160.147 22.8194 160.386 21.6283 160.862 20.318C157.408 23.772 153.357 27.3452 148.712 30.9193C149.783 36.9938 154.19 41.163 161.694 41.163C172.056 41.163 179.561 33.4206 181.347 23.6528C183.253 14.3618 179.561 7.21449 170.868 6.14355Z" fill="white"/>
<path fill-rule="evenodd" clip-rule="evenodd" d="M108.094 46.7598C105.355 42.8271 114.884 30.5598 127.629 19.6019L127.509 19.3644C113.216 30.3215 104.164 41.4005 106.785 45.3303L108.094 46.7598ZM169.079 1.73597C166.34 -2.19482 152.524 0.30651 136.323 11.7413L137.873 14.0042C153.236 3.28463 166.457 0.425706 170.149 3.4029L169.079 1.73597Z" fill="white"/>
<path fill-rule="evenodd" clip-rule="evenodd" d="M168.722 1.25928C171.818 5.54673 160.623 19.2444 143.351 31.2742C126.2 43.304 109.763 49.617 106.785 45.3304L107.738 46.5196C110.715 50.808 127.867 45.5688 145.018 33.5372C162.17 21.5083 173.129 7.45299 170.746 3.999L168.722 1.25928Z" fill="#75DAB4"/>
</g>
</svg>
