<svg width="184" height="48" viewBox="0 0 184 48" fill="none" xmlns="http://www.w3.org/2000/svg">
<mask id="mask0_1209_789" style="mask-type:alpha" maskUnits="userSpaceOnUse" x="0" y="0" width="184" height="48">
<rect width="184" height="48" fill="#D9D9D9"/>
</mask>
<g mask="url(#mask0_1209_789)">
<path fill-rule="evenodd" clip-rule="evenodd" d="M5.89805 16.3616H16.7362L16.7234 4H22.59V34.4256H16.7234L16.7362 22.239L5.89805 22.238L5.88821 34.4383H0V4.02459H5.88821L5.89805 16.3616ZM66.3833 15.9417C66.3833 13.002 64.1724 11.0183 61.2327 11.0183L52.691 11.0232C49.7503 11.0232 47.4784 12.9961 47.4784 15.9367L47.4745 34.4383H52.8002L52.7805 15.9358L61.034 15.9426L61.0439 34.456H66.3695L66.3833 15.9417ZM44.2211 15.9505C44.2211 13.0098 41.9138 11.033 38.9731 11.033L26.0981 11.036L26.104 15.9574L38.8551 15.9515L38.8561 19.1882L30.5583 19.198C27.6177 19.198 25.3527 21.1768 25.3527 24.1165L25.3704 29.5198C25.3704 32.4822 27.6127 34.4472 30.5534 34.4472L39.0961 34.4433C42.0358 34.4433 44.2299 32.4802 44.2299 29.5179L44.2211 15.9505ZM38.8709 29.5198L30.6675 29.5238L30.6557 24.1145L38.8787 24.1008L38.8709 29.5198ZM113.034 29.5198C113.034 32.4585 115.301 34.4275 118.241 34.4275L130.152 34.4295L130.147 29.5385L118.341 29.5208V15.9485L130.131 15.9259L130.137 11.0251L118.226 11.0468C115.285 11.0468 113.026 13.0138 113.026 15.9535L113.034 29.5198ZM88.1235 4.00295H82.7979V11.0153L74.4952 11.0143C71.5545 11.0143 69.258 12.999 69.258 15.9397L69.2472 29.4854C69.2472 32.4261 71.5122 34.4236 74.4519 34.4236L82.9936 34.4177C85.9343 34.4177 88.1462 32.4467 88.1462 29.5061L88.1235 4.00295ZM82.793 29.5061L74.5394 29.4864V15.9367L82.8008 15.9171L82.793 29.5061ZM104.989 34.4177L104.975 38.3822L92.2818 38.3743L92.2729 43.2839L105.1 43.28C108.04 43.28 110.305 41.3228 110.305 38.3822L110.315 11.0468H104.989L104.993 29.5061L96.7439 29.5198V11.0212H91.4192L91.4232 29.5228C91.4232 32.4635 93.6951 34.4364 96.6338 34.4364L104.984 34.4285L104.989 34.4177ZM159.94 15.9485L159.96 34.4256H154.634L154.636 15.9495C154.636 12.9882 156.903 11.034 159.843 11.034L165.789 11.0291C167.171 11.0291 168.397 11.4805 169.306 12.2486C170.229 11.4539 171.486 11.0212 172.893 11.0212L178.839 11.0163C181.779 11.0163 184 12.9666 184 15.9279L183.996 34.461H178.669L178.66 15.9289L171.969 15.9476L171.989 34.4246H166.662L166.642 15.9525L159.94 15.9485ZM151.445 15.9436C151.445 13.003 149.138 11.0261 146.197 11.0261L133.321 11.0291L133.327 15.9505L146.078 15.9446L146.08 19.1813L137.781 19.1921C134.841 19.1921 132.576 21.1709 132.576 24.1116L132.593 29.513C132.593 32.4753 134.835 34.4423 137.776 34.4423L146.319 34.4364C149.26 34.4364 151.454 32.4733 151.454 29.513L151.445 15.9436ZM146.094 29.512L137.892 29.5159L137.88 24.1067L146.103 24.0929L146.094 29.512Z" fill="white"/>
</g>
</svg>
