<svg width="15" height="13" viewBox="0 0 15 13" fill="none" xmlns="http://www.w3.org/2000/svg">
<path d="M12.6568 6.41709C12.0805 6.41709 11.4858 6.34058 10.8766 6.18755C10.5509 6.10581 10.323 5.81067 10.323 5.46993V3.84926C10.323 3.67271 10.2065 3.51363 10.0397 3.46277C9.19148 3.20377 8.33674 3.07248 7.49936 3.07248C6.66198 3.07248 5.80725 3.20389 4.95892 3.46277C4.79209 3.51362 4.6756 3.67271 4.6756 3.84926V5.46993C4.6756 5.81067 4.44785 6.10579 4.12176 6.18755C2.88036 6.49918 1.69885 6.49337 0.610454 6.16949C0.355618 6.09464 0.159145 5.87235 0.11102 5.60349C-0.0439499 4.70694 -0.0366254 3.78606 0.132644 2.86457C0.164498 2.69123 0.264596 2.53311 0.407477 2.43055C4.92593 -0.808669 9.692 -0.81019 14.5729 2.42603C14.7271 2.52821 14.8346 2.69146 14.868 2.87384C15.0357 3.79201 15.0423 4.70979 14.8881 5.60193C14.8396 5.87234 14.6433 6.09462 14.3876 6.16972C13.8334 6.33451 13.2551 6.41708 12.6568 6.41708L12.6568 6.41709ZM7.49932 2.57808C8.38369 2.57808 9.28491 2.71638 10.1781 2.98905C10.5484 3.10216 10.8068 3.45599 10.8068 3.84947V5.47014C10.8068 5.58254 10.8829 5.6802 10.9919 5.7074C12.1501 5.99849 13.2472 5.99421 14.2529 5.69481C14.3343 5.67093 14.3964 5.60036 14.4117 5.51458C14.5556 4.68266 14.549 3.82428 14.3922 2.96481C14.3833 2.91574 14.3523 2.86953 14.3096 2.84113C9.61016 -0.274907 5.02623 -0.277037 0.685161 2.83566C0.645518 2.86418 0.616569 2.90921 0.607965 2.9559C0.449623 3.81857 0.44253 4.67983 0.587039 5.51613C0.602152 5.60036 0.664116 5.67094 0.7448 5.6947C1.75147 5.99446 2.84861 5.99861 4.00641 5.70741H4.00664C4.11569 5.6802 4.19172 5.58254 4.19172 5.47015V3.84948C4.19172 3.45608 4.45016 3.1023 4.82032 2.98906C5.71366 2.71639 6.61487 2.57809 7.49925 2.57809L7.49932 2.57808Z" fill="white"/>
<path d="M13.9517 13.0002H1.04842C0.470387 13.0002 0 12.5195 0 11.9287V10.1074C0 9.36578 0.422827 8.68216 1.07711 8.36588L5.31759 6.30941L5.36653 5.35574C5.38374 4.97543 5.69111 4.67627 6.06617 4.67627C6.24591 4.67627 6.41704 4.74577 6.54817 4.87219C6.6821 5.00371 6.75882 5.17598 6.76603 5.35883L6.78149 5.66535H8.21867L8.23425 5.35597C8.24122 5.17597 8.31807 5.00382 8.45025 4.87383C8.58313 4.74587 8.75427 4.67637 8.934 4.67637C9.30915 4.67637 9.61644 4.97541 9.63376 5.35727L9.68259 6.30954L13.9231 8.36588C14.5771 8.68214 15 9.36578 15 10.1074V11.9287C15 12.5195 14.5296 13.0002 13.9515 13.0002L13.9517 13.0002ZM6.06628 5.1707C5.95025 5.1707 5.85527 5.26266 5.84992 5.37992L5.79342 6.48235C5.78877 6.57312 5.73587 6.65391 5.65554 6.69288L1.28441 8.81267C0.797985 9.04779 0.483967 9.55605 0.483967 10.1073V11.9287C0.483967 12.2467 0.737291 12.5056 1.04852 12.5056H13.9518C14.263 12.5056 14.5163 12.2467 14.5163 11.9287V10.1073C14.5163 9.55605 14.2022 9.04778 13.7161 8.81267L9.34471 6.69288C9.26437 6.65391 9.21147 6.57312 9.20683 6.48235L9.15033 5.38135C9.14498 5.26254 9.04988 5.1707 8.93386 5.1707C8.87886 5.1707 8.82411 5.19304 8.78365 5.23201C8.75587 5.25921 8.72017 5.30852 8.7175 5.37838L8.68995 5.92515C8.68332 6.05668 8.57706 6.15968 8.44836 6.15968H6.55173C6.42291 6.15968 6.31677 6.05668 6.31014 5.92515L6.28271 5.38124C6.27992 5.30853 6.24423 5.25922 6.21469 5.23047C6.17586 5.19305 6.12111 5.17071 6.06612 5.17071L6.06628 5.1707Z" fill="white"/>
</svg>
