<svg width="16" height="9" viewBox="0 0 16 9" fill="none" xmlns="http://www.w3.org/2000/svg">
<path d="M0.0919919 4.87815C0.144379 4.95392 0.237065 5.05915 0.297512 5.10545C0.410347 5.18964 0.454675 5.19385 1.81675 5.19385C3.17883 5.19385 3.22315 5.18964 3.33599 5.10545C3.5536 4.93708 3.63822 4.75608 3.62211 4.49511C3.60196 4.22151 3.49315 4.0363 3.29166 3.93528C3.1748 3.87635 2.96928 3.86793 1.80869 3.86793C0.494973 3.86793 0.462734 3.87214 0.309601 3.96474C0.0113956 4.14153 -0.0933793 4.59192 0.0919919 4.87815Z" fill="white"/>
<path d="M4.74664 4.75221C4.80306 4.89533 4.93201 5.05107 5.0529 5.12263C5.1738 5.18998 5.49215 5.19419 9.37286 5.21523L13.5639 5.23628L12.0446 6.57904C11.0573 7.45036 10.5012 7.97231 10.4609 8.0607C10.3239 8.36377 10.4488 8.77207 10.7228 8.9236C10.88 9.01621 11.1822 9.02462 11.3152 8.94886C11.3636 8.91939 12.4073 8.01019 13.6404 6.9242C15.1476 5.59407 15.8971 4.90375 15.9415 4.81535C16.0623 4.54175 15.9938 4.24289 15.7561 4.00717C15.3571 3.61992 11.287 0.105177 11.1782 0.0546658C11.0049 -0.0253103 10.8558 -0.0168913 10.6584 0.0757124C10.34 0.227247 10.203 0.681847 10.3763 0.989124C10.4166 1.06068 11.146 1.72575 11.9963 2.46237C12.8425 3.2032 13.5397 3.81775 13.5397 3.83459C13.5437 3.85564 11.6618 3.86827 9.35674 3.86827L5.1738 3.86827L5.04082 3.96087C4.83932 4.10819 4.75067 4.25973 4.73455 4.48703C4.72649 4.59647 4.73052 4.71854 4.74664 4.75221Z" fill="white"/>
</svg>
