<svg width="40" height="40" viewBox="0 0 40 40" fill="none" xmlns="http://www.w3.org/2000/svg">
<g opacity="0.1" clip-path="url(#clip0_2325_48)">
<g clip-path="url(#clip1_2325_48)">
<path d="M39.9879 0.459129C39.9875 0.45199 39.9856 0.445421 39.9848 0.438472C39.9833 0.424364 39.9811 0.410327 39.9784 0.396397C39.9765 0.387068 39.9758 0.377358 39.9734 0.36822C39.9714 0.360414 39.9682 0.353275 39.9658 0.345754C39.9621 0.333846 39.9579 0.322095 39.9532 0.310533C39.9498 0.301966 39.947 0.293017 39.9431 0.284736C39.9388 0.275788 39.9338 0.267411 39.929 0.258843C39.924 0.249765 39.9187 0.240874 39.9131 0.232189C39.9083 0.224478 39.9037 0.216673 39.8985 0.209343C39.8917 0.20025 39.8846 0.191423 39.8772 0.182879C39.8657 0.169055 39.8534 0.155837 39.8405 0.143279C39.8316 0.135017 39.8225 0.127079 39.8131 0.119481C39.8067 0.114144 39.8002 0.108939 39.7935 0.103869C39.786 0.098443 39.7784 0.0934929 39.7706 0.0883525C39.7601 0.0816845 39.7494 0.0753977 39.7384 0.0695043C39.7314 0.0656966 39.7247 0.0615081 39.7175 0.0580811C39.7087 0.0538926 39.6995 0.0507513 39.6905 0.0470387C39.6785 0.0423011 39.6664 0.0380143 39.6542 0.0341877C39.647 0.0319982 39.6403 0.0288569 39.6331 0.026953C39.6232 0.0243828 39.6127 0.0233357 39.6025 0.0214318C39.5897 0.0189787 39.5768 0.01701 39.5639 0.0155298C39.5562 0.0146731 39.549 0.0124837 39.5412 0.0120077C39.5392 0.0119125 39.5234 0.0109606 39.4965 0.00981827C39.1177 -0.00807801 36.4782 -0.0892777 32.8176 0.830953C32.712 0.85719 32.6065 0.884257 32.5013 0.912153C32.4225 0.93281 32.3432 0.954133 32.2635 0.975742C32.2252 0.986118 32.1871 0.996399 32.1485 1.00706C32.0228 1.04165 31.8974 1.07709 31.7722 1.11339L31.7713 1.11377C27.5269 2.34728 21.4504 5.19013 16.4763 11.7286C14.9178 11.5196 12.1138 11.458 9.09171 12.899C5.14463 14.7812 2.0956 18.579 0.0293391 24.1871C-0.00662089 24.2851 -0.00939384 24.3922 0.0214468 24.4919C0.0522875 24.5916 0.115033 24.6784 0.200032 24.739C0.28503 24.7995 0.387573 24.8305 0.491885 24.8271C0.596198 24.8237 0.696501 24.7861 0.777366 24.7201C0.839907 24.6691 6.86896 19.7988 11.3225 21.1148C11.1315 21.6079 10.9488 22.1042 10.7742 22.6034L10.5569 22.3862C10.4677 22.2969 10.3466 22.2468 10.2204 22.2468C10.0941 22.2468 9.97307 22.2969 9.88381 22.3862L8.57586 23.6941C8.53166 23.7383 8.49659 23.7908 8.47267 23.8485C8.44874 23.9062 8.43643 23.9681 8.43643 24.0306C8.43643 24.0931 8.44874 24.155 8.47267 24.2128C8.49659 24.2705 8.53166 24.323 8.57586 24.3671L9.61889 25.4102L7.92836 27.1008C7.88415 27.145 7.84909 27.1974 7.82516 27.2552C7.80124 27.3129 7.78892 27.3748 7.78892 27.4373C7.78892 27.4998 7.80124 27.5617 7.82516 27.6194C7.84909 27.6772 7.88415 27.7296 7.92836 27.7738L12.226 32.0715C12.2702 32.1158 12.3227 32.1509 12.3804 32.1748C12.4382 32.1987 12.5001 32.211 12.5626 32.2109C12.6252 32.211 12.6871 32.1987 12.7449 32.1748C12.8026 32.1509 12.8551 32.1158 12.8992 32.0715L14.5899 30.381L15.6323 31.4234C15.6765 31.4677 15.7289 31.5028 15.7867 31.5267C15.8445 31.5507 15.9064 31.563 15.9689 31.5629C16.0908 31.5629 16.2125 31.5164 16.3055 31.4234L17.6135 30.1155C17.6577 30.0713 17.6928 30.0188 17.7167 29.9611C17.7406 29.9033 17.7529 29.8415 17.7529 29.779C17.7529 29.7165 17.7406 29.6546 17.7167 29.5968C17.6928 29.5391 17.6577 29.4866 17.6135 29.4424L17.3966 29.2256C17.8959 29.0511 18.3921 28.8684 18.8853 28.6774C20.2011 33.1308 15.3309 39.16 15.2798 39.2224C15.2229 39.2922 15.1868 39.3766 15.176 39.4661C15.1651 39.5555 15.1798 39.6461 15.2184 39.7275C15.2569 39.8089 15.3178 39.8777 15.3939 39.9259C15.47 39.9741 15.5582 39.9997 15.6483 39.9997C15.7032 39.9997 15.7588 39.9902 15.8127 39.9703C21.4208 37.9041 25.2187 34.8551 27.1009 30.908C28.542 27.886 28.4805 25.0819 28.2715 23.5235C34.8105 18.549 37.6533 12.4721 38.8867 8.22773C40.1694 3.81268 39.9959 0.593922 39.9879 0.459129ZM1.52891 22.9914C3.47257 18.459 6.14968 15.3567 9.50133 13.7585C11.9947 12.5696 14.3253 12.4831 15.8264 12.6145C14.2218 14.8761 12.8285 17.4316 11.6765 20.2279C8.0444 19.0947 3.69408 21.5283 1.52891 22.9914ZM12.5624 31.0621L8.93779 27.4375L10.2918 26.0834L13.9166 29.708L12.5624 31.0621ZM15.9686 30.414L14.9265 29.3718L14.9263 29.3715L14.9261 29.3713L10.6287 25.0739L10.6285 25.0737L10.6283 25.0735L9.58557 24.0307L10.2204 23.3959L16.1871 29.3627L16.1878 29.3632L16.6037 29.7791L15.9686 30.414ZM26.2415 30.4986C24.6433 33.8502 21.5411 36.5272 17.0085 38.4709C18.4717 36.3059 20.9052 31.9554 19.7723 28.3235C22.5686 27.1714 25.1239 25.7783 27.3856 24.1735C27.5171 25.6746 27.4305 28.0053 26.2415 30.4986ZM27.4747 22.9328C25.0105 24.7737 22.1577 26.3482 18.9955 27.6126L18.9946 27.6129C18.241 27.9141 17.4518 28.2032 16.6468 28.476L11.5241 23.3532C11.7964 22.5494 12.0857 21.76 12.3875 21.0045C13.6518 17.8424 15.2264 14.9896 17.0673 12.5253C21.7217 6.29484 27.4085 3.46523 31.5309 2.18098C31.8565 3.72682 32.6137 5.12711 33.7433 6.25667C34.8728 7.38623 36.2732 8.14339 37.8191 8.46905C36.5348 12.5918 33.7052 18.2783 27.4747 22.9328ZM39.046 1.07941L39.0458 1.10939C39.0454 1.15512 39.0447 1.20084 39.0439 1.24657C39.043 1.29388 39.0419 1.34309 39.0407 1.39459L39.0401 1.41439C39.0389 1.45847 39.0375 1.50435 39.0359 1.55137L39.0341 1.59964C39.0325 1.64219 39.0308 1.68598 39.0288 1.73072L39.0269 1.77565C39.0242 1.83486 39.0212 1.89578 39.0177 1.9588L39.0159 1.99069C39.0118 2.06557 39.0073 2.14043 39.0022 2.21525C38.9989 2.26637 38.9953 2.31844 38.9915 2.37156C38.99 2.3905 38.9888 2.40906 38.9873 2.42829C38.9819 2.4995 38.9763 2.57213 38.9699 2.64666L38.967 2.68122C38.9615 2.74509 38.9557 2.81021 38.9494 2.87646C38.9473 2.90007 38.9449 2.92396 38.9426 2.94785C38.9368 3.00745 38.9307 3.06799 38.9244 3.12939L38.9177 3.19488C38.9075 3.29038 38.8967 3.38583 38.8855 3.48122C38.8767 3.55576 38.8674 3.63153 38.8577 3.70826L38.8476 3.78679C38.8386 3.85609 38.8293 3.92536 38.8197 3.9946C38.8165 4.01821 38.8133 4.04153 38.8099 4.06533C38.7831 4.25703 38.754 4.44841 38.7227 4.63943C38.7183 4.66723 38.7136 4.69512 38.7089 4.72311C38.6919 4.82576 38.6743 4.92832 38.6562 5.03077C38.638 5.13358 38.6191 5.23744 38.5991 5.34282L38.5948 5.3649C38.5706 5.49215 38.5455 5.6192 38.5194 5.74605C38.5022 5.8303 38.4844 5.91521 38.466 6.00089C38.4603 6.02735 38.4548 6.05372 38.4489 6.08028C38.4244 6.19301 38.3993 6.30559 38.3735 6.41802L38.3699 6.43335C38.3168 6.66307 38.2608 6.89212 38.2019 7.12045C38.1947 7.14882 38.1875 7.17699 38.1801 7.20546C38.1501 7.32064 38.1191 7.43668 38.0869 7.55377C36.6932 7.27466 35.4311 6.5987 34.4157 5.58337C33.4006 4.56814 32.7245 3.30597 32.4455 1.91225C32.5643 1.87965 32.6834 1.84786 32.8027 1.81687L32.8538 1.80373C32.9629 1.77555 33.0713 1.74823 33.1788 1.72186L33.2169 1.71244C35.9899 1.03571 38.1576 0.953657 39.0459 0.953752L39.046 0.962795C39.0466 0.963747 39.0466 0.964604 39.0466 0.96527C39.0466 1.00106 39.0464 1.03971 39.046 1.07941Z" fill="white"/>
<path d="M26.6308 9.33789C24.4081 9.33789 22.5999 11.1462 22.5999 13.3688C22.5999 15.5916 24.4081 17.3999 26.6308 17.3999C28.8536 17.3999 30.6618 15.5916 30.6618 13.3688C30.6618 11.1463 28.8536 9.33789 26.6308 9.33789ZM26.6308 16.4479C24.933 16.4479 23.5518 15.0666 23.5518 13.3687C23.5518 11.671 24.933 10.2897 26.6308 10.2897C28.3287 10.2897 29.7099 11.671 29.7099 13.3687C29.7099 15.0666 28.3287 16.4479 26.6308 16.4479ZM9.04771 30.9519C8.95845 30.8627 8.83739 30.8125 8.71115 30.8125C8.58492 30.8125 8.46386 30.8627 8.3746 30.9519L2.76887 36.5576C2.70223 36.6241 2.65683 36.7089 2.63842 36.8013C2.62002 36.8936 2.62943 36.9894 2.66548 37.0764C2.70152 37.1634 2.76257 37.2377 2.8409 37.29C2.91923 37.3423 3.01131 37.3701 3.10548 37.37C3.168 37.3701 3.22993 37.3578 3.2877 37.3339C3.34546 37.31 3.39793 37.2749 3.44208 37.2306L9.0478 31.625C9.09199 31.5808 9.12704 31.5283 9.15095 31.4705C9.17486 31.4128 9.18716 31.3509 9.18715 31.2884C9.18714 31.2259 9.17482 31.164 9.1509 31.1063C9.12697 31.0486 9.09191 30.9961 9.04771 30.9519ZM11.1986 33.1028C11.1093 33.0136 10.9883 32.9634 10.862 32.9634C10.7358 32.9634 10.6147 33.0136 10.5255 33.1028L6.86503 36.7633C6.79838 36.8298 6.75299 36.9146 6.73458 37.007C6.71617 37.0993 6.72559 37.1951 6.76163 37.2821C6.79767 37.3691 6.85873 37.4434 6.93705 37.4957C7.01538 37.548 7.10746 37.5758 7.20163 37.5758C7.32348 37.5758 7.44523 37.5293 7.53823 37.4363L11.1987 33.7758C11.2879 33.6866 11.338 33.5655 11.338 33.4393C11.338 33.3131 11.2878 33.1921 11.1986 33.1028ZM15.146 33.4574C15.0567 33.3682 14.9356 33.318 14.8094 33.318C14.6832 33.318 14.5621 33.3682 14.4729 33.4574L10.6366 37.2937C10.5699 37.3602 10.5245 37.445 10.5061 37.5374C10.4877 37.6298 10.4971 37.7255 10.5332 37.8125C10.5692 37.8995 10.6303 37.9738 10.7086 38.0261C10.7869 38.0784 10.879 38.1063 10.9732 38.1062C11.095 38.1062 11.2168 38.0597 11.3098 37.9667L15.1461 34.1304C15.1902 34.0862 15.2253 34.0338 15.2492 33.976C15.2731 33.9183 15.2854 33.8564 15.2854 33.7939C15.2854 33.7314 15.2731 33.6695 15.2492 33.6118C15.2252 33.5541 15.1902 33.5016 15.146 33.4574ZM6.54232 25.5267C6.58744 25.4827 6.62337 25.4302 6.64803 25.3722C6.67269 25.3142 6.6856 25.2519 6.68599 25.1889C6.68638 25.1259 6.67426 25.0634 6.65033 25.0051C6.6264 24.9469 6.59113 24.8939 6.54657 24.8493C6.50201 24.8048 6.44905 24.7695 6.39075 24.7456C6.33246 24.7217 6.26999 24.7096 6.20698 24.71C6.14397 24.7104 6.08167 24.7233 6.02369 24.748C5.96571 24.7726 5.9132 24.8086 5.86921 24.8537L2.03294 28.69C1.96629 28.7565 1.92089 28.8413 1.90249 28.9337C1.88408 29.026 1.8935 29.1218 1.92954 29.2088C1.96558 29.2958 2.02663 29.3701 2.10496 29.4224C2.18329 29.4747 2.27537 29.5025 2.36954 29.5024C2.49139 29.5024 2.61314 29.456 2.70614 29.363L6.54232 25.5267ZM3.23637 33.1344L6.89663 29.474C6.94175 29.43 6.97768 29.3775 7.00234 29.3195C7.027 29.2615 7.0399 29.1992 7.0403 29.1362C7.04069 29.0732 7.02857 29.0107 7.00464 28.9524C6.98071 28.8941 6.94544 28.8412 6.90088 28.7966C6.85632 28.7521 6.80335 28.7168 6.74506 28.6929C6.68677 28.6689 6.6243 28.6568 6.56129 28.6572C6.49828 28.6576 6.43598 28.6706 6.378 28.6952C6.32001 28.7199 6.26751 28.7558 6.22352 28.801L2.56326 32.4614C2.49661 32.5279 2.45121 32.6128 2.43281 32.7051C2.4144 32.7975 2.42382 32.8932 2.45986 32.9802C2.4959 33.0672 2.55695 33.1416 2.63528 33.1938C2.71361 33.2461 2.80569 33.274 2.89986 33.2739C2.96237 33.274 3.02429 33.2617 3.08204 33.2378C3.13979 33.2138 3.19224 33.1787 3.23637 33.1344Z" fill="white"/>
</g>
</g>
<defs>
<clipPath id="clip0_2325_48">
<rect width="40" height="40" fill="white"/>
</clipPath>
<clipPath id="clip1_2325_48">
<rect width="40" height="40" fill="white"/>
</clipPath>
</defs>
</svg>
