<svg width="44" height="42" viewBox="0 0 44 42" fill="none" xmlns="http://www.w3.org/2000/svg">
<g opacity="0.1">
<path d="M1 12.394H39.8858" stroke="white" stroke-miterlimit="10" stroke-linecap="round" stroke-linejoin="round"/>
<path d="M8.12867 8.75684C9.24662 8.75684 10.1588 7.84641 10.1588 6.72769C10.1588 5.60897 9.24662 4.69854 8.12867 4.69854C7.0132 4.69854 6.10089 5.60897 6.10089 6.72769C6.10089 7.84641 7.0132 8.75684 8.12867 8.75684Z" stroke="white" stroke-miterlimit="10" stroke-linecap="round" stroke-linejoin="round"/>
<path d="M25.7518 4.69854H33.3887C34.5041 4.69854 35.4165 5.61144 35.4165 6.72769C35.4165 7.84401 34.5041 8.75684 33.3887 8.75684H25.7518C24.6364 8.75684 23.7241 7.84401 23.7241 6.72769C23.7241 5.61144 24.6364 4.69854 25.7518 4.69854Z" stroke="white" stroke-miterlimit="10" stroke-linecap="round" stroke-linejoin="round"/>
<path d="M15.6154 8.75684C16.7334 8.75684 17.6456 7.84641 17.6456 6.72769C17.6456 5.60897 16.7334 4.69854 15.6154 4.69854C14.5 4.69854 13.5876 5.60897 13.5876 6.72769C13.5876 7.84641 14.5 8.75684 15.6154 8.75684Z" stroke="white" stroke-miterlimit="10" stroke-linecap="round" stroke-linejoin="round"/>
<path d="M14.0112 18.9681L12.3027 26.126" stroke="white" stroke-miterlimit="10" stroke-linecap="round" stroke-linejoin="round"/>
<path d="M17.9457 25.4795L20.363 22.7626C20.4694 22.6439 20.4694 22.4503 20.363 22.3316L17.9457 19.6147" stroke="white" stroke-miterlimit="10" stroke-linecap="round" stroke-linejoin="round"/>
<path d="M8.36824 25.4795L5.95094 22.7626C5.8444 22.6439 5.8444 22.4503 5.95094 22.3316L8.36824 19.6147" stroke="white" stroke-miterlimit="10" stroke-linecap="round" stroke-linejoin="round"/>
<path d="M34.6785 22.7455C35.6124 22.9538 36.486 23.3218 37.2725 23.8158L37.9718 23.1184C38.3856 22.7019 39.0655 22.7019 39.4817 23.1184L40.5827 24.2202C40.9989 24.6367 40.9989 25.3171 40.5827 25.7312L39.8858 26.431C40.3836 27.2217 40.7436 28.0912 40.9505 29.0026H41.9305C42.5185 29.0026 43 29.4845 43 30.0705V31.6324C43 32.2183 42.5185 32.7001 41.9305 32.7001H40.9457C40.7382 33.606 40.3799 34.4705 39.8858 35.2572L40.5827 35.9546C40.9989 36.3711 40.9989 37.0515 40.5827 37.4656L39.4817 38.5698C39.0655 38.9863 38.3856 38.9863 37.9718 38.5698L37.2725 37.8724C36.4836 38.3692 35.6163 38.7286 34.7075 38.9355V39.9282C34.7075 40.5167 34.2259 40.9985 33.6404 40.9985H32.0797C31.494 40.9985 31.0125 40.5167 31.0125 39.9282V38.9331C30.0929 38.7248 29.2291 38.3591 28.4523 37.8724L27.7555 38.5698C27.3392 38.9863 26.6594 38.9863 26.2455 38.5698L25.1422 37.4656C24.7283 37.0515 24.7283 36.3711 25.1422 35.9546L25.8414 35.2572C25.3455 34.4711 24.9864 33.6065 24.7792 32.7001H23.7894C23.2015 32.7001 22.7223 32.2183 22.7223 31.6324V30.0705C22.7223 29.4845 23.2015 29.0026 23.7894 29.0026H24.7768C24.9816 28.1016 25.3357 27.2414 25.8245 26.4577L25.1228 25.753C24.7066 25.3389 24.7066 24.6585 25.1228 24.242L26.2237 23.1402C26.64 22.7237 27.3199 22.7237 27.7337 23.1402L28.4281 23.8328C29.2139 23.3344 30.0777 22.9718 30.9835 22.76V21.7746C30.9835 21.1861 31.4626 20.7042 32.0506 20.7042H33.6089C34.1969 20.7042 34.6785 21.1861 34.6785 21.7746V22.7455Z" stroke="white" stroke-miterlimit="10" stroke-linecap="round" stroke-linejoin="round"/>
<path d="M32.8611 26.448C35.2905 26.448 37.2603 28.4191 37.2603 30.8527C37.2603 33.2839 35.2905 35.2549 32.8611 35.2549C30.4293 35.2549 28.4595 33.2839 28.4595 30.8527C28.4595 28.4191 30.4293 26.448 32.8611 26.448Z" stroke="white" stroke-miterlimit="10" stroke-linecap="round" stroke-linejoin="round"/>
<path d="M9.23208 32.7002H4.17954C2.43261 32.7002 1 30.9883 1 28.8986V4.80014C1 2.70808 2.43005 0.998504 4.17954 0.998504H36.7062C38.4557 0.998504 39.8858 2.71047 39.8858 4.80014V23.5229M23.7894 32.7002H16.8617" stroke="white" stroke-miterlimit="10" stroke-linecap="round" stroke-linejoin="round"/>
<path d="M13.0554 32.7002H13.0723" stroke="white" stroke-miterlimit="10" stroke-linecap="round" stroke-linejoin="round"/>
</g>
</svg>
