<svg width="40" height="40" viewBox="0 0 40 40" fill="none" xmlns="http://www.w3.org/2000/svg">
<g opacity="0.1" clip-path="url(#clip0_2325_29)">
<path d="M2.5 13.75C2.33424 13.75 2.17527 13.8158 2.05806 13.9331C1.94085 14.0503 1.875 14.2092 1.875 14.375V16.875C1.875 17.0408 1.94085 17.1997 2.05806 17.3169C2.17527 17.4342 2.33424 17.5 2.5 17.5H3.86273C4.05873 18.3494 4.38375 19.1637 4.82648 19.9146L3.30805 21.433C3.25001 21.4911 3.20397 21.56 3.17256 21.6358C3.14114 21.7116 3.12498 21.7929 3.12498 21.875C3.12498 21.9571 3.14114 22.0384 3.17256 22.1142C3.20397 22.19 3.25001 22.2589 3.30805 22.317L5.18305 24.192C5.24108 24.25 5.30998 24.296 5.38582 24.3274C5.46165 24.3589 5.54292 24.375 5.625 24.375C5.70708 24.375 5.78835 24.3589 5.86418 24.3274C5.94001 24.296 6.00892 24.25 6.06695 24.192L7.58539 22.6735C8.33629 23.1162 9.15062 23.4413 10 23.6373V25.625C10 25.7908 10.0658 25.9497 10.1831 26.0669C10.3003 26.1842 10.4592 26.25 10.625 26.25H12.8164C13.2167 27.8027 13.9847 29.2363 15.0555 30.4297C16.1263 31.6232 17.4686 32.5415 18.9689 33.1072C20.4693 33.6729 22.0837 33.8694 23.6759 33.68C25.2681 33.4905 26.7914 32.9209 28.1172 32.019L34.2991 38.2009C34.4733 38.375 34.68 38.5131 34.9074 38.6073C35.1349 38.7015 35.3788 38.75 35.625 38.75C35.8712 38.75 36.1151 38.7015 36.3425 38.6073C36.57 38.5131 36.7767 38.375 36.9509 38.2009C37.125 38.0267 37.2631 37.82 37.3573 37.5925C37.4515 37.3651 37.5 37.1212 37.5 36.875C37.5 36.6288 37.4515 36.3849 37.3573 36.1574C37.2631 35.93 37.125 35.7233 36.9509 35.5491L30.7689 29.3672C32.1394 27.3543 32.7269 24.9098 32.4208 22.4939C32.1146 20.0781 30.9359 17.8574 29.1066 16.25H30C30.1658 16.25 30.3247 16.1842 30.4419 16.0669C30.5591 15.9497 30.625 15.7908 30.625 15.625V13.2391C30.7482 12.9125 32.5 8.25969 32.5 8.125C32.5 6.75062 32.1124 5.66625 31.3481 4.90187C30.5838 4.1375 29.4994 3.75 28.125 3.75C26.7506 3.75 25.6662 4.13758 24.9019 4.90187C24.1375 5.66617 23.75 6.75062 23.75 8.125C23.75 8.19992 25.625 13.2383 25.625 13.2383V14.2505C24.6167 13.9182 23.5617 13.7492 22.5 13.75H19.8873C19.6913 12.9006 19.3662 12.0863 18.9235 11.3354L20.442 9.81695C20.5 9.75892 20.546 9.69001 20.5774 9.61418C20.6089 9.53835 20.625 9.45708 20.625 9.375C20.625 9.29292 20.6089 9.21165 20.5774 9.13582C20.546 9.05998 20.5 8.99108 20.442 8.93305L18.567 7.05805C18.5089 7.00001 18.44 6.95397 18.3642 6.92256C18.2884 6.89114 18.2071 6.87498 18.125 6.87498C18.0429 6.87498 17.9616 6.89114 17.8858 6.92256C17.81 6.95397 17.7411 7.00001 17.683 7.05805L16.1646 8.57648C15.4137 8.13375 14.5994 7.80873 13.75 7.61273V5.625C13.75 5.45924 13.6842 5.30027 13.5669 5.18306C13.4497 5.06585 13.2908 5 13.125 5H10.625C10.4592 5 10.3003 5.06585 10.1831 5.18306C10.0658 5.30027 10 5.45924 10 5.625V7.61273C9.15062 7.80873 8.33629 8.13375 7.58539 8.57648L6.06695 7.05805C6.00892 7.00001 5.94001 6.95397 5.86418 6.92256C5.78835 6.89114 5.70708 6.87498 5.625 6.87498C5.54292 6.87498 5.46165 6.89114 5.38582 6.92256C5.30998 6.95397 5.24108 7.00001 5.18305 7.05805L3.30805 8.93305C3.25001 8.99108 3.20397 9.05998 3.17256 9.13582C3.14114 9.21165 3.12498 9.29292 3.12498 9.375C3.12498 9.45708 3.14114 9.53835 3.17256 9.61418C3.20397 9.69001 3.25001 9.75892 3.30805 9.81695L4.82648 11.3354C4.38375 12.0863 4.05873 12.9006 3.86273 13.75H2.5ZM36.067 36.4331C36.1264 36.4908 36.1737 36.5598 36.2063 36.636C36.2388 36.7122 36.2559 36.7941 36.2565 36.8769C36.2571 36.9598 36.2412 37.0419 36.2098 37.1185C36.1784 37.1952 36.132 37.2648 36.0734 37.3234C36.0148 37.382 35.9452 37.4283 35.8685 37.4598C35.7919 37.4912 35.7097 37.507 35.6269 37.5064C35.5441 37.5058 35.4622 37.4888 35.386 37.4562C35.3098 37.4237 35.2408 37.3763 35.1831 37.3169L29.1116 31.2455C29.4241 30.9694 29.7193 30.6742 29.9954 30.3616L36.067 36.4331ZM25.001 8.01437C25.038 6.01398 26.0887 5 28.125 5C30.1641 5 31.2145 6.01641 31.2491 8.02164C31.0734 8.50422 30.2192 10.7737 29.5679 12.5H26.683L25.001 8.01437ZM26.875 13.75H29.375V15H27.3366C27.1851 14.9159 27.0312 14.8357 26.875 14.7591V13.75ZM31.25 23.75C31.25 25.4803 30.737 27.1718 29.7758 28.6106C28.8146 30.0494 27.4484 31.1709 25.8499 31.8334C24.2514 32.4958 22.4923 32.6694 20.7952 32.3323C19.098 31.9952 17.5389 31.1624 16.3149 29.9393C15.091 28.7162 14.2572 27.1577 13.9189 25.4607C13.5806 23.7638 13.753 22.0046 14.4143 20.4057C15.0757 18.8067 16.1962 17.4397 17.6344 16.4776C19.0725 15.5154 20.7637 15.0012 22.494 15H22.5C24.8198 15.0026 27.0439 15.9253 28.6843 17.5657C30.3247 19.2061 31.2474 21.4302 31.25 23.75ZM11.875 18.75C11.2569 18.75 10.6527 18.5667 10.1388 18.2233C9.62494 17.88 9.2244 17.3919 8.98788 16.8209C8.75135 16.2499 8.68947 15.6215 8.81005 15.0153C8.93062 14.4092 9.22825 13.8523 9.66529 13.4153C10.1023 12.9783 10.6592 12.6806 11.2653 12.56C11.8715 12.4395 12.4999 12.5014 13.0709 12.7379C13.6419 12.9744 14.13 13.3749 14.4733 13.8888C14.8167 14.4027 15 15.0069 15 15.625C14.9991 16.4535 14.6695 17.2478 14.0837 17.8337C13.4978 18.4195 12.7035 18.7491 11.875 18.75ZM4.99148 14.4779C5.16323 13.4502 5.55402 12.4714 6.13734 11.608C6.22145 11.4876 6.2605 11.3415 6.24765 11.1952C6.23479 11.049 6.17085 10.9119 6.06703 10.808L4.63383 9.375L5.625 8.38383L7.05805 9.81695C7.16188 9.92077 7.29895 9.98471 7.44522 9.99757C7.59149 10.0104 7.73761 9.97137 7.85797 9.88727C8.72138 9.30394 9.70015 8.91315 10.7279 8.74141C10.8738 8.71706 11.0063 8.64175 11.1019 8.52889C11.1975 8.41602 11.25 8.27291 11.25 8.125V6.25H12.5V8.125C12.5 8.27292 12.5525 8.41606 12.6481 8.52894C12.7437 8.64182 12.8762 8.71713 13.0221 8.74148C14.0498 8.91323 15.0286 9.30402 15.892 9.88734C16.0124 9.97145 16.1585 10.0105 16.3048 9.99765C16.451 9.98479 16.5881 9.92085 16.692 9.81703L18.125 8.38383L19.1162 9.375L17.683 10.808C17.5792 10.9119 17.5153 11.049 17.5024 11.1952C17.4896 11.3415 17.5286 11.4876 17.6127 11.608C18.1958 12.471 18.5865 13.4493 18.7584 14.4766C17.8493 14.8451 16.9994 15.3452 16.2358 15.9609C16.2443 15.8498 16.25 15.7379 16.25 15.6246C16.2504 14.6952 15.9549 13.7898 15.4064 13.0395C14.8579 12.2893 14.0848 11.7331 13.1991 11.4515C12.3133 11.17 11.361 11.1777 10.4799 11.4735C9.59888 11.7693 8.83486 12.338 8.29854 13.097C7.76222 13.856 7.48143 14.7661 7.49685 15.6954C7.51227 16.6246 7.82309 17.5249 8.3843 18.2657C8.94551 19.0065 9.72797 19.5495 10.6184 19.8159C11.5087 20.0823 12.4608 20.0584 13.3367 19.7477C12.7835 21.0094 12.4986 22.3723 12.5 23.75C12.5001 24.1679 12.5262 24.5854 12.5781 25H11.25V23.125C11.25 22.9771 11.1975 22.8339 11.1019 22.7211C11.0063 22.6082 10.8738 22.5329 10.7279 22.5085C9.70015 22.3368 8.72138 21.946 7.85797 21.3627C7.73761 21.2785 7.59149 21.2395 7.44522 21.2523C7.29895 21.2652 7.16188 21.3292 7.05805 21.433L5.625 22.8662L4.63383 21.875L6.06695 20.442C6.17077 20.3381 6.23471 20.201 6.24757 20.0548C6.26043 19.9085 6.22138 19.7624 6.13727 19.642C5.55394 18.7786 5.16315 17.7998 4.99141 16.7721C4.96706 16.6262 4.89175 16.4937 4.77889 16.3981C4.66602 16.3025 4.52291 16.25 4.375 16.25H3.125V15H4.375C4.52292 15 4.66606 14.9475 4.77894 14.8519C4.89182 14.7563 4.96713 14.6238 4.99148 14.4779Z" fill="white"/>
<path d="M21.316 3.47047C21.2419 3.61872 21.2297 3.79035 21.2821 3.9476C21.3345 4.10485 21.4472 4.23484 21.5955 4.30898L22.8455 4.93398C22.919 4.97145 22.9991 4.994 23.0814 5.00033C23.1636 5.00667 23.2463 4.99666 23.3247 4.97088C23.403 4.94511 23.4755 4.90408 23.5379 4.85016C23.6003 4.79624 23.6515 4.73049 23.6884 4.65672C23.7253 4.58294 23.7472 4.50259 23.7529 4.4203C23.7586 4.33802 23.7479 4.25541 23.7215 4.17726C23.6951 4.09911 23.6535 4.02695 23.5991 3.96495C23.5447 3.90295 23.4786 3.85233 23.4045 3.81602L22.1545 3.19102C22.0063 3.11688 21.8346 3.10468 21.6774 3.15709C21.5201 3.20949 21.3902 3.32222 21.316 3.47047ZM27.5 0.625V1.875C27.5 2.04076 27.5658 2.19973 27.6831 2.31694C27.8003 2.43415 27.9592 2.5 28.125 2.5C28.2908 2.5 28.4497 2.43415 28.5669 2.31694C28.6842 2.19973 28.75 2.04076 28.75 1.875V0.625C28.75 0.45924 28.6842 0.300269 28.5669 0.183058C28.4497 0.065848 28.2908 0 28.125 0C27.9592 0 27.8003 0.065848 27.6831 0.183058C27.5658 0.300269 27.5 0.45924 27.5 0.625ZM24.0955 0.691016C23.9472 0.765156 23.8345 0.895149 23.7821 1.0524C23.7297 1.20965 23.7419 1.38128 23.816 1.52953L24.441 2.77953C24.4773 2.85359 24.528 2.91973 24.59 2.97414C24.652 3.02854 24.7241 3.07014 24.8023 3.09652C24.8804 3.12291 24.963 3.13356 25.0453 3.12787C25.1276 3.12218 25.2079 3.10025 25.2817 3.06336C25.3555 3.02647 25.4212 2.97533 25.4752 2.91291C25.5291 2.85049 25.5701 2.77801 25.5959 2.69965C25.6217 2.6213 25.6317 2.53862 25.6253 2.45637C25.619 2.37413 25.5965 2.29395 25.559 2.22047L24.934 0.970469C24.8598 0.822221 24.7299 0.709495 24.5726 0.657087C24.4154 0.60468 24.2437 0.616885 24.0955 0.691016ZM31.316 0.970469L30.691 2.22047C30.6535 2.29395 30.631 2.37413 30.6247 2.45637C30.6183 2.53862 30.6283 2.6213 30.6541 2.69965C30.6799 2.77801 30.7209 2.85049 30.7748 2.91291C30.8288 2.97533 30.8945 3.02647 30.9683 3.06336C31.0421 3.10025 31.1224 3.12218 31.2047 3.12787C31.287 3.13356 31.3696 3.12291 31.4477 3.09652C31.5259 3.07014 31.598 3.02854 31.66 2.97414C31.722 2.91973 31.7727 2.85359 31.809 2.77953L32.434 1.52953C32.4715 1.45605 32.494 1.37587 32.5003 1.29363C32.5067 1.21138 32.4967 1.1287 32.4709 1.05035C32.4451 0.971989 32.4041 0.899511 32.3502 0.837088C32.2962 0.774665 32.2305 0.723533 32.1567 0.68664C32.0829 0.649747 32.0026 0.627823 31.9203 0.622131C31.838 0.616439 31.7554 0.627093 31.6773 0.653478C31.5991 0.679863 31.527 0.721457 31.465 0.775862C31.403 0.830268 31.3523 0.896407 31.316 0.970469ZM34.0955 3.19102L32.8455 3.81602C32.7714 3.85233 32.7053 3.90295 32.6509 3.96495C32.5965 4.02695 32.5549 4.09911 32.5285 4.17726C32.5021 4.25541 32.4914 4.33802 32.4971 4.4203C32.5028 4.50259 32.5247 4.58294 32.5616 4.65672C32.5985 4.73049 32.6497 4.79624 32.7121 4.85016C32.7745 4.90408 32.847 4.94511 32.9253 4.97088C33.0037 4.99666 33.0864 5.00667 33.1686 5.00033C33.2509 4.994 33.331 4.97145 33.4045 4.93398L34.6545 4.30898C34.7286 4.27267 34.7947 4.22205 34.8491 4.16005C34.9035 4.09805 34.9451 4.02589 34.9715 3.94774C34.9979 3.86959 35.0086 3.78698 35.0029 3.7047C34.9972 3.62241 34.9753 3.54206 34.9384 3.46828C34.9015 3.3945 34.8503 3.32876 34.7879 3.27484C34.7255 3.22092 34.653 3.17989 34.5747 3.15412C34.4963 3.12834 34.4136 3.11833 34.3314 3.12467C34.2491 3.131 34.169 3.15355 34.0955 3.19102ZM15 23.75C15 25.2334 15.4399 26.6834 16.264 27.9168C17.0881 29.1501 18.2594 30.1114 19.6299 30.6791C21.0003 31.2468 22.5083 31.3953 23.9632 31.1059C25.418 30.8165 26.7544 30.1022 27.8033 29.0533C28.8522 28.0044 29.5665 26.668 29.8559 25.2132C30.1453 23.7583 29.9968 22.2503 29.4291 20.8799C28.8614 19.5094 27.9001 18.3381 26.6668 17.514C25.4334 16.6899 23.9834 16.25 22.5 16.25C20.5116 16.2522 18.6052 17.0431 17.1992 18.4492C15.7931 19.8552 15.0022 21.7616 15 23.75ZM28.75 23.75C28.75 24.9861 28.3834 26.1945 27.6967 27.2223C27.0099 28.2501 26.0338 29.0512 24.8918 29.5242C23.7497 29.9973 22.4931 30.1211 21.2807 29.8799C20.0683 29.6388 18.9547 29.0435 18.0806 28.1694C17.2065 27.2953 16.6112 26.1817 16.3701 24.9693C16.1289 23.7569 16.2527 22.5003 16.7258 21.3582C17.1988 20.2162 17.9999 19.2401 19.0277 18.5533C20.0555 17.8666 21.2639 17.5 22.5 17.5C24.157 17.5019 25.7456 18.161 26.9173 19.3327C28.089 20.5044 28.7481 22.093 28.75 23.75Z" fill="white"/>
<path d="M18.75 23.75C18.75 23.5842 18.6842 23.4253 18.5669 23.3081C18.4497 23.1908 18.2908 23.125 18.125 23.125C17.9592 23.125 17.8003 23.1908 17.6831 23.3081C17.5658 23.4253 17.5 23.5842 17.5 23.75C17.5015 25.0756 18.0288 26.3465 18.9661 27.2839C19.9035 28.2212 21.1744 28.7485 22.5 28.75C22.6658 28.75 22.8247 28.6842 22.9419 28.5669C23.0592 28.4497 23.125 28.2908 23.125 28.125C23.125 27.9592 23.0592 27.8003 22.9419 27.6831C22.8247 27.5658 22.6658 27.5 22.5 27.5C21.5058 27.4989 20.5526 27.1035 19.8496 26.4004C19.1465 25.6974 18.7511 24.7442 18.75 23.75Z" fill="white"/>
</g>
<defs>
<clipPath id="clip0_2325_29">
<rect width="40" height="40" fill="white"/>
</clipPath>
</defs>
</svg>
