<svg width="40" height="40" viewBox="0 0 40 40" fill="none" xmlns="http://www.w3.org/2000/svg">
<g clip-path="url(#clip0_2354_187)">
<path d="M36.3637 31.3938H3.63638C1.93941 31.3938 0.606079 30.0605 0.606079 28.3635V9.63626C0.606079 7.93929 1.93941 6.60596 3.63638 6.60596H3.87881C4.24244 6.60596 4.48487 6.84838 4.48487 7.21202C4.48487 7.57565 4.24244 7.81808 3.87881 7.81808H3.63638C2.60608 7.81808 1.8182 8.60596 1.8182 9.63626V28.3635C1.8182 29.3938 2.60608 30.1817 3.63638 30.1817H36.3637C37.394 30.1817 38.1818 29.3938 38.1818 28.3635V9.63626C38.1818 8.60596 37.394 7.81808 36.3637 7.81808H17.697C17.3334 7.81808 17.0909 7.57565 17.0909 7.21202C17.0909 6.84838 17.3334 6.60596 17.697 6.60596H36.3637C38.0606 6.60596 39.394 7.93929 39.394 9.63626V28.3635C39.394 30.0605 38.0606 31.3938 36.3637 31.3938Z" fill="#1D1D1D"/>
<path d="M38.7879 27.697H1.21214C0.848503 27.697 0.606079 27.4546 0.606079 27.0909C0.606079 26.7273 0.848503 26.4849 1.21214 26.4849H38.7879C39.1515 26.4849 39.394 26.7273 39.394 27.0909C39.394 27.4546 39.1515 27.697 38.7879 27.697ZM24.1818 35.3333H15.8182C15.4546 35.3333 15.2121 35.0909 15.2121 34.7273V30.7879C15.2121 30.4243 15.4546 30.1818 15.8182 30.1818H24.1818C24.5455 30.1818 24.7879 30.4243 24.7879 30.7879V34.7273C24.7879 35.0909 24.5455 35.3333 24.1818 35.3333ZM16.4243 34.1212H23.5758V31.394H16.4243V34.1212Z" fill="#1D1D1D"/>
<path d="M26.7879 39.3334H13.2121C12.3637 39.3334 11.697 38.6667 11.697 37.8182V35.6364C11.697 34.7879 12.3637 34.1213 13.2121 34.1213H26.7879C27.6364 34.1213 28.303 34.7879 28.303 35.6364V37.8182C28.303 38.6667 27.6364 39.3334 26.7879 39.3334ZM13.2121 35.3334C13.0909 35.3334 12.9091 35.5152 12.9091 35.6364V37.8182C12.9091 37.9394 12.9697 38.1213 13.2121 38.1213H26.7879C26.9091 38.1213 27.0909 38.0607 27.0909 37.8182V35.6364C27.0909 35.5152 27.0303 35.3334 26.7879 35.3334H13.2121ZM20.9091 29.5758H19.0909C18.7273 29.5758 18.4849 29.3334 18.4849 28.9697C18.4849 28.6061 18.7273 28.3637 19.0909 28.3637H20.9091C21.2727 28.3637 21.5152 28.6061 21.5152 28.9697C21.5152 29.3334 21.2727 29.5758 20.9091 29.5758ZM10.7879 15.4546C10.1818 15.4546 9.63638 15.394 9.09092 15.2728C8.78789 15.2122 8.60608 14.9091 8.66668 14.6061C8.78789 13.9394 8.60608 13.5758 8.42426 13.4546C8.30305 13.394 7.93941 13.5758 7.57577 14.0607C7.39395 14.3031 7.03032 14.3637 6.78789 14.2425C5.8788 13.6364 5.15153 12.8485 4.60608 11.9394C4.42426 11.697 4.54547 11.3334 4.78789 11.1516C5.33335 10.7273 5.45456 10.3637 5.45456 10.2425C5.39395 10.1213 5.03032 9.93944 4.36365 9.93944C4.06062 9.93944 3.75759 9.75762 3.69699 9.45459C3.51517 8.36368 3.51517 7.27277 3.75759 6.30308C3.8182 6.00004 4.12123 5.81823 4.42426 5.87883C4.96971 5.87883 5.39395 5.69701 5.45456 5.5758C5.51517 5.45459 5.33335 5.03035 4.8485 4.66671C4.60608 4.48489 4.54547 4.12126 4.72729 3.87883C5.33335 2.96974 6.12123 2.24247 7.03032 1.69701C7.27274 1.5152 7.63638 1.63641 7.8182 1.87883C8.18183 2.42429 8.60608 2.5455 8.72729 2.5455C8.8485 2.42429 9.09092 2.00005 9.03032 1.33338C9.03032 1.03035 9.21214 0.727318 9.51517 0.666712C10.6061 0.484894 11.697 0.484894 12.6667 0.727318C12.9697 0.787924 13.1515 1.09095 13.0909 1.39398C12.9697 2.06065 13.1515 2.42429 13.3333 2.5455C13.4546 2.60611 13.8182 2.42429 14.1818 1.93944C14.3637 1.69701 14.7273 1.63641 14.9697 1.75762C15.8788 2.36368 16.6061 3.15156 17.1515 4.06065C17.3333 4.30308 17.2121 4.66671 16.9697 4.84853C16.4243 5.27277 16.303 5.63641 16.303 5.75762C16.3637 5.87883 16.7273 6.06065 17.3333 6.00004C17.6364 5.93944 17.9394 6.18186 18 6.48489C18.1818 7.5758 18.1818 8.66671 17.9394 9.63641C17.8788 9.93944 17.5758 10.1213 17.2727 10.0607C16.6061 9.93944 16.2424 10.1213 16.1212 10.3031C16 10.6061 16.3637 11.0303 16.7273 11.2728C16.9697 11.4546 17.0303 11.8182 16.9091 12.0607C16.303 12.9697 15.5152 13.697 14.6061 14.2425C14.3637 14.4243 14 14.3031 13.8182 14.0607C13.5152 13.5758 13.0909 13.3334 12.8485 13.4546C12.7273 13.5152 12.5455 13.8788 12.6061 14.5455C12.6061 14.8485 12.4243 15.1516 12.1212 15.2122C11.7576 15.394 11.2727 15.4546 10.7879 15.4546ZM9.8788 14.1819C10.4243 14.2425 10.9697 14.3031 11.5152 14.1819C11.5758 13.3334 12 12.6667 12.5455 12.4243C13.2121 12.1819 13.9394 12.4243 14.5455 13.0303C15.0303 12.7273 15.394 12.3637 15.7576 11.9394C15.1515 11.3334 14.9697 10.5455 15.2121 9.87883C15.5152 9.27277 16.1818 8.90914 17.0303 8.90914C17.0909 8.36368 17.1515 7.81823 17.0909 7.27277C16.2424 7.27277 15.5758 6.84853 15.3333 6.24247C15.0909 5.63641 15.3333 4.90914 15.9394 4.30308C15.6364 3.81823 15.2727 3.45459 14.8485 3.09095C14.2424 3.69701 13.4546 3.93944 12.8485 3.63641C12.2424 3.33338 11.9394 2.66671 11.9394 1.81823C11.394 1.75762 10.8485 1.69701 10.303 1.81823C10.2424 2.72732 9.8788 3.39398 9.21214 3.63641C8.60608 3.87883 7.8788 3.63641 7.27274 3.03035C6.78789 3.33338 6.42426 3.69702 6.06062 4.12126C6.66668 4.72732 6.90911 5.5152 6.60608 6.12126C6.30305 6.72732 5.63638 7.03035 4.78789 7.03035C4.72729 7.5758 4.66668 8.12126 4.78789 8.66671C5.63638 8.72732 6.30305 9.09095 6.54547 9.69701C6.78789 10.3031 6.54547 11.0303 5.93941 11.6364C6.24244 12.1213 6.60608 12.4849 7.03032 12.8485C7.63638 12.2425 8.42426 12 9.03032 12.3031C9.51517 12.6667 9.8788 13.3334 9.8788 14.1819Z" fill="#1D1D1D"/>
<path d="M10.8484 12.1212C9.77151 12.1212 8.73868 11.6934 7.97717 10.9319C7.21565 10.1704 6.78784 9.13755 6.78784 8.06061C6.78784 6.98367 7.21565 5.95084 7.97717 5.18932C8.73868 4.42781 9.77151 4 10.8484 4C11.9254 4 12.9582 4.42781 13.7197 5.18932C14.4812 5.95084 14.9091 6.98367 14.9091 8.06061C14.9091 9.13755 14.4812 10.1704 13.7197 10.9319C12.9582 11.6934 11.9254 12.1212 10.8484 12.1212ZM10.8484 5.21212C9.27269 5.21212 7.99996 6.48485 7.99996 8.06061C7.99996 9.63636 9.27269 10.9091 10.8484 10.9091C12.4242 10.9091 13.6969 9.63636 13.6969 8.06061C13.6969 6.48485 12.4242 5.21212 10.8484 5.21212ZM34.6666 24.9697H21.8787C20.6666 24.9697 19.7575 24.0606 19.7575 22.8485V11.8788C19.7575 10.6667 20.6666 9.75758 21.8787 9.75758H34.7272C35.9394 9.75758 36.8484 10.6667 36.8484 11.8788V22.9091C36.7878 24.0606 35.8181 24.9697 34.6666 24.9697ZM21.8787 10.9697C21.3939 10.9697 20.9697 11.3939 20.9697 11.8788V22.8485C20.9697 23.3333 21.3939 23.7576 21.8787 23.7576H34.6666C35.1515 23.7576 35.5757 23.3939 35.6363 22.8485V11.8788C35.6363 11.3939 35.2121 10.9697 34.7272 10.9697H21.8787Z" fill="#1D1D1D"/>
<path d="M36.1818 15.0305H20.3636C20 15.0305 19.7576 14.7881 19.7576 14.4244C19.7576 14.0608 20 13.8184 20.3636 13.8184H36.1818C36.5454 13.8184 36.7879 14.0608 36.7879 14.4244C36.7879 14.7881 36.5454 15.0305 36.1818 15.0305ZM28.9697 13.0305H22.4242C22.0606 13.0305 21.8182 12.7881 21.8182 12.4244C21.8182 12.0608 22.0606 11.8184 22.4242 11.8184H28.9697C29.3333 11.8184 29.5758 12.0608 29.5758 12.4244C29.5758 12.7881 29.3333 13.0305 28.9697 13.0305ZM31.5151 13.0305H30.8485C30.4848 13.0305 30.2424 12.7881 30.2424 12.4244C30.2424 12.0608 30.4848 11.8184 30.8485 11.8184H31.5151C31.8788 11.8184 32.1212 12.0608 32.1212 12.4244C32.1212 12.7881 31.8788 13.0305 31.5151 13.0305ZM34.1212 13.0305H33.4545C33.0909 13.0305 32.8485 12.7881 32.8485 12.4244C32.8485 12.0608 33.0909 11.8184 33.4545 11.8184H34.1212C34.4848 11.8184 34.7273 12.0608 34.7273 12.4244C34.7273 12.7881 34.4848 13.0305 34.1212 13.0305ZM26.0606 21.6365C25.8788 21.6365 25.7576 21.5759 25.6364 21.4547L23.8788 19.6971C23.7576 19.5759 23.697 19.4547 23.697 19.2729C23.697 19.0911 23.7576 18.9699 23.8788 18.8487L25.697 17.0911C25.9394 16.8487 26.303 16.8487 26.5454 17.0911C26.7879 17.3335 26.7879 17.6971 26.5454 17.9396L25.1515 19.2729L26.4848 20.6062C26.7273 20.8487 26.7273 21.2123 26.4848 21.4547C26.3636 21.5759 26.2424 21.6365 26.0606 21.6365ZM30.4848 21.6365C30.303 21.6365 30.1818 21.5759 30.0606 21.4547C29.8182 21.2123 29.8182 20.8487 30.0606 20.6062L31.8182 18.8487C32.0606 18.6062 32.4242 18.6062 32.6667 18.8487C32.9091 19.0911 32.9091 19.4547 32.6667 19.6971L30.9091 21.4547C30.7879 21.5759 30.6667 21.6365 30.4848 21.6365Z" fill="#1D1D1D"/>
<path d="M32.2424 19.8788C32.1212 19.8788 31.9394 19.8182 31.8182 19.697L30 17.9394C29.7576 17.697 29.7576 17.3334 30 17.0909C30.2424 16.8485 30.606 16.8485 30.8485 17.0909L32.6667 18.8485C32.9091 19.0909 32.9091 19.4546 32.6667 19.697C32.5454 19.8182 32.4242 19.8788 32.2424 19.8788ZM27.6363 22.2425H27.4545C27.1515 22.1818 26.9697 21.8182 27.0303 21.5152L28.303 16.7879C28.3636 16.4849 28.7273 16.3031 29.0303 16.3637C29.3333 16.4243 29.5151 16.7879 29.4545 17.0909L28.2424 21.8182C28.1212 22.0606 27.8788 22.2425 27.6363 22.2425ZM15.697 24.9697H5.99998C4.54544 24.9697 3.39392 23.8182 3.39392 22.3637C3.39392 20.9091 4.54544 19.7576 5.99998 19.7576H15.697C17.1515 19.7576 18.303 20.9091 18.303 22.3637C18.303 23.8182 17.1515 24.9697 15.697 24.9697ZM5.99998 20.9697C5.27271 20.9697 4.60604 21.6364 4.60604 22.3637C4.60604 23.0909 5.27271 23.7576 5.99998 23.7576H15.697C16.4242 23.7576 17.0909 23.0909 17.0909 22.3637C17.0909 21.6364 16.4242 20.9697 15.697 20.9697H5.99998Z" fill="#1D1D1D"/>
<path d="M12.2424 22.9699H6.84849C6.48486 22.9699 6.24243 22.7275 6.24243 22.3639C6.24243 22.0002 6.48486 21.7578 6.84849 21.7578H12.2424C12.6061 21.7578 12.8485 22.0002 12.8485 22.3639C12.8485 22.7275 12.6061 22.9699 12.2424 22.9699Z" fill="#1D1D1D"/>
</g>
<defs>
<clipPath id="clip0_2354_187">
<rect width="40" height="40" fill="white"/>
</clipPath>
</defs>
</svg>
