<svg width="42" height="42" viewBox="0 0 42 42" fill="none" xmlns="http://www.w3.org/2000/svg">
<path d="M33.2642 3.80859H38.1697" stroke="#1D1D1D" stroke-miterlimit="10" stroke-linecap="round" stroke-linejoin="round"/>
<path d="M29.8303 3.80859H30.8114" stroke="#1D1D1D" stroke-miterlimit="10" stroke-linecap="round" stroke-linejoin="round"/>
<path d="M29.8303 6.75586H38.1697" stroke="#1D1D1D" stroke-miterlimit="10" stroke-linecap="round" stroke-linejoin="round"/>
<path d="M25.8021 14.9292V17.4021C25.8021 18.4235 24.9751 19.2515 23.9549 19.2515H22.4324" stroke="#1D1D1D" stroke-miterlimit="10" stroke-linecap="round" stroke-linejoin="round"/>
<path d="M30.8042 38.4009H2.29795C1.58109 38.4009 1 38.9827 1 39.7005C1 40.4182 1.58109 41 2.29795 41H30.8042C31.521 41 32.1021 40.4182 32.1021 39.7005C32.1021 38.9827 31.521 38.4009 30.8042 38.4009Z" stroke="#1D1D1D" stroke-miterlimit="10" stroke-linecap="round" stroke-linejoin="round"/>
<path d="M18.1707 38.4009C18.1707 37.3359 18.5693 36.312 19.2809 35.5205L19.2968 35.5027C19.8788 34.8507 20.2327 33.9904 20.2327 33.0472C20.2327 31.6726 19.4812 30.4739 18.3672 29.8402C18.1558 29.7198 17.8934 29.8711 17.8934 30.1145V32.8568C17.8934 33.3165 17.5212 33.6891 17.0621 33.6891H16.0403C15.5812 33.6891 15.2089 33.3165 15.2089 32.8568V30.1145C15.2089 29.8711 14.9464 29.7198 14.7351 29.8402C13.6211 30.4739 12.8696 31.6726 12.8696 33.0472C12.8696 33.9904 13.2235 34.8507 13.8055 35.5027L13.8214 35.5205C14.533 36.312 14.9316 37.3359 14.9316 38.4009" stroke="#1D1D1D" stroke-miterlimit="10" stroke-linecap="round" stroke-linejoin="round"/>
<path d="M4.11182 36.0424L4.23978 38.4009" stroke="#1D1D1D" stroke-miterlimit="10" stroke-linecap="round" stroke-linejoin="round"/>
<path d="M28.8625 38.4009L29.4607 27.3655C29.5182 26.3029 28.6733 25.4097 27.6105 25.4097H5.4916C4.42882 25.4097 3.58383 26.3029 3.64145 27.3655L3.95968 33.2374" stroke="#1D1D1D" stroke-miterlimit="10" stroke-linecap="round" stroke-linejoin="round"/>
<path d="M31.6193 38.6899V36.1582C31.6193 33.7197 30.7731 31.4494 29.3367 29.656" stroke="#1D1D1D" stroke-miterlimit="10" stroke-linecap="round" stroke-linejoin="round"/>
<path d="M3.76581 29.6555C2.32935 31.4489 1.48315 33.7192 1.48315 36.1577V38.6895" stroke="#1D1D1D" stroke-miterlimit="10" stroke-linecap="round" stroke-linejoin="round"/>
<path d="M22.6961 5.95727H22.6285C22.5394 5.95728 22.4512 5.93972 22.3689 5.9056C22.2865 5.87147 22.2118 5.82145 22.1488 5.75838C22.0858 5.69531 22.0358 5.62044 22.0017 5.53803C21.9676 5.45563 21.9501 5.3673 21.9501 5.27811C21.9501 4.16741 21.0509 3.26704 19.9416 3.26704H13.5489C10.7039 3.26704 8.39771 5.57619 8.39771 8.42477V11.8332C8.39769 12.0775 8.47361 12.3157 8.61493 12.5148C8.75625 12.714 8.95596 12.8641 9.18636 12.9444L10.4552 13.3868C10.8987 13.5414 11.3619 13.2112 11.3612 12.741L11.3584 10.3375C11.3535 9.16864 12.2845 8.21702 13.4378 8.21202L13.4629 8.21194C13.8144 8.21053 14.164 8.26476 14.4986 8.37263C15.0895 8.56273 15.7019 8.67796 16.3225 8.6753H16.7798C17.4004 8.67796 18.0128 8.56273 18.6037 8.37263C18.9383 8.26476 19.2879 8.21053 19.6394 8.21194L19.6645 8.21202C20.8178 8.21702 21.7488 9.16864 21.7439 10.3375L21.7416 12.7412C21.741 13.2114 22.2041 13.5414 22.6475 13.3868L23.916 12.9444C24.1464 12.8641 24.3461 12.714 24.4874 12.5149C24.6287 12.3158 24.7046 12.0776 24.7046 11.8333V7.96834C24.7046 6.85764 23.8054 5.95727 22.6961 5.95727Z" stroke="#1D1D1D" stroke-miterlimit="10" stroke-linecap="round" stroke-linejoin="round"/>
<path d="M9.96338 16.4493H9.97465C10.0191 18.2024 10.7531 19.8868 12.0711 21.0273C13.1324 21.9454 14.622 22.7444 16.5854 22.7583C18.5485 22.7277 20.0315 21.916 21.0849 20.9887C22.3676 19.8599 23.0829 18.2132 23.139 16.4971" stroke="#1D1D1D" stroke-miterlimit="10" stroke-linecap="round" stroke-linejoin="round"/>
<path d="M8.39743 11.5682C7.77312 11.6833 7.2998 12.2299 7.2998 12.8883V15.1838C7.2998 15.9259 7.90053 16.5273 8.64162 16.5273H9.96314V13.215" stroke="#1D1D1D" stroke-miterlimit="10" stroke-linecap="round" stroke-linejoin="round"/>
<path d="M23.1389 13.2152V16.5273H24.4604C25.2015 16.5273 25.8022 15.9259 25.8022 15.1839V12.8884C25.8022 12.23 25.3289 11.6833 24.7045 11.5683" stroke="#1D1D1D" stroke-miterlimit="10" stroke-linecap="round" stroke-linejoin="round"/>
<path d="M21.1063 20.2002H19.5914C19.0135 20.2002 18.5449 19.7311 18.5449 19.1524C18.5449 18.5737 19.0135 18.1046 19.5914 18.1046H21.1063C21.6842 18.1046 22.1527 18.5737 22.1527 19.1524C22.1527 19.7311 21.6842 20.2002 21.1063 20.2002Z" stroke="#1D1D1D" stroke-miterlimit="10" stroke-linecap="round" stroke-linejoin="round"/>
<path d="M20.8319 25.4097C20.2773 25.1086 19.9111 24.5231 19.9111 23.8637V21.8377" stroke="#1D1D1D" stroke-miterlimit="10" stroke-linecap="round" stroke-linejoin="round"/>
<path d="M13.1912 21.8314V23.8637C13.1912 24.5344 12.8143 25.1126 12.2686 25.4097" stroke="#1D1D1D" stroke-miterlimit="10" stroke-linecap="round" stroke-linejoin="round"/>
<path d="M41.0001 3.92715V2.75739C41.0001 1.78667 40.2142 0.999765 39.2446 0.999765H29.0924C28.1228 0.999765 27.3369 1.78667 27.3369 2.75739V7.8413C27.3369 8.81202 28.1228 9.59893 29.0924 9.59893C29.6586 9.59893 30.1176 10.0585 30.1176 10.6254V13.7694C30.1176 14.1685 30.6426 14.3141 30.8476 13.9718L33.168 10.0975C33.259 9.94545 33.3879 9.81961 33.542 9.73223C33.6961 9.64486 33.8701 9.59893 34.0472 9.59893H39.2446C40.2142 9.59893 41.0001 8.81202 41.0001 7.8413V6.75277" stroke="#1D1D1D" stroke-miterlimit="10" stroke-linecap="round" stroke-linejoin="round"/>
</svg>
