<svg width="40" height="40" viewBox="0 0 40 40" fill="none" xmlns="http://www.w3.org/2000/svg">
<path d="M36.25 7.49995H16.9766C16.4905 6.38545 15.6898 5.437 14.6726 4.7709C13.6554 4.1048 12.4659 3.75 11.25 3.75C10.0341 3.75 8.84464 4.1048 7.82744 4.7709C6.81024 5.437 6.00951 6.38545 5.52344 7.49995H3.75C2.92145 7.50078 2.12708 7.83029 1.54121 8.41616C0.955333 9.00203 0.625827 9.79641 0.625 10.625V28.125C0.625827 28.9535 0.955333 29.7479 1.54121 30.3337C2.12708 30.9196 2.92145 31.2491 3.75 31.25H15.9906L15.1055 33.75H12.5C12.3342 33.75 12.1753 33.8158 12.0581 33.933C11.9408 34.0502 11.875 34.2092 11.875 34.3749V36.25C11.875 36.4157 11.9408 36.5747 12.0581 36.6919C12.1753 36.8091 12.3342 36.875 12.5 36.875H27.5C27.6658 36.875 27.8247 36.8091 27.9419 36.6919C28.0592 36.5747 28.125 36.4157 28.125 36.25V34.3749C28.125 34.2092 28.0592 34.0502 27.9419 33.933C27.8247 33.8158 27.6658 33.75 27.5 33.75H24.8164L23.9313 31.25H36.25C37.0785 31.2491 37.8729 30.9196 38.4588 30.3337C39.0447 29.7479 39.3742 28.9535 39.375 28.125V10.625C39.3742 9.79641 39.0447 9.00203 38.4588 8.41616C37.8729 7.83029 37.0785 7.50078 36.25 7.49995ZM16.25 9.99995C16.2508 11.2676 15.768 12.4878 14.9 13.4117C14.8866 13.3901 14.8717 13.3695 14.8555 13.35L12.0391 9.97027L14.6398 6.32886C15.1476 6.79609 15.5529 7.3636 15.83 7.9955C16.1072 8.6274 16.2502 9.30994 16.25 9.99995ZM11.25 4.99995C12.0791 4.99912 12.8953 5.20565 13.6242 5.60073L10.9281 9.37495H6.29062C6.44399 8.1674 7.03212 7.05711 7.94495 6.25184C8.85777 5.44658 10.0327 5.00152 11.25 4.99995ZM10.957 10.625L13.8945 14.15C13.9113 14.1698 13.9293 14.1886 13.9484 14.2062C13.2382 14.663 12.4238 14.9322 11.5813 14.9888C10.7388 15.0453 9.89574 14.8874 9.13086 14.5297C8.36597 14.172 7.70426 13.6262 7.20756 12.9433C6.71086 12.2605 6.39538 11.4628 6.29062 10.625H10.957ZM26.875 34.9999V35.6249H13.125V34.9999H26.875ZM16.4313 33.75L17.3164 31.25H22.6055L23.4906 33.75H16.4313ZM38.125 28.125C38.1243 28.622 37.9266 29.0986 37.5751 29.45C37.2236 29.8015 36.7471 29.9993 36.25 30H3.75C3.25292 29.9993 2.77639 29.8015 2.42491 29.45C2.07342 29.0986 1.87566 28.622 1.875 28.125V27.5H38.125V28.125ZM38.125 26.25H1.875V10.625C1.87566 10.1279 2.07342 9.65135 2.42491 9.29986C2.77639 8.94837 3.25292 8.75061 3.75 8.74995H5.12578C4.94082 9.65789 4.96006 10.5956 5.18209 11.4952C5.40412 12.3948 5.82339 13.2337 6.40955 13.9513C6.99572 14.6689 7.73411 15.2472 8.57127 15.6444C9.40843 16.0415 10.3234 16.2475 11.25 16.2475C12.1766 16.2475 13.0916 16.0415 13.9287 15.6444C14.7659 15.2472 15.5043 14.6689 16.0904 13.9513C16.6766 13.2337 17.0959 12.3948 17.3179 11.4952C17.5399 10.5956 17.5592 9.65789 17.3742 8.74995H36.25C36.7471 8.75061 37.2236 8.94837 37.5751 9.29986C37.9266 9.65135 38.1243 10.1279 38.125 10.625V26.25Z" fill="#1D1D1D"/>
<path d="M8.125 28.125H3.75C3.58424 28.125 3.42527 28.1908 3.30806 28.3081C3.19085 28.4253 3.125 28.5842 3.125 28.75C3.125 28.9158 3.19085 29.0747 3.30806 29.1919C3.42527 29.3092 3.58424 29.375 3.75 29.375H8.125C8.29076 29.375 8.44973 29.3092 8.56694 29.1919C8.68415 29.0747 8.75 28.9158 8.75 28.75C8.75 28.5842 8.68415 28.4253 8.56694 28.3081C8.44973 28.1908 8.29076 28.125 8.125 28.125ZM10.625 28.125H10C9.83424 28.125 9.67527 28.1908 9.55806 28.3081C9.44085 28.4253 9.375 28.5842 9.375 28.75C9.375 28.9158 9.44085 29.0747 9.55806 29.1919C9.67527 29.3092 9.83424 29.375 10 29.375H10.625C10.7908 29.375 10.9497 29.3092 11.0669 29.1919C11.1842 29.0747 11.25 28.9158 11.25 28.75C11.25 28.5842 11.1842 28.4253 11.0669 28.3081C10.9497 28.1908 10.7908 28.125 10.625 28.125ZM33.125 11.25C32.6279 11.2507 32.1514 11.4484 31.7999 11.7999C31.4484 12.1514 31.2507 12.6279 31.25 13.125C31.2495 13.4047 31.3123 13.6808 31.4336 13.9328H31.4328L28.9328 16.4328V16.4336C28.6807 16.3127 28.4046 16.25 28.125 16.25C27.8454 16.25 27.5693 16.3127 27.3172 16.4336V16.4328L24.8172 13.9328H24.8164C24.9377 13.6808 25.0005 13.4047 25 13.125C25 12.6277 24.8025 12.1508 24.4508 11.7992C24.0992 11.4475 23.6223 11.25 23.125 11.25C22.6277 11.25 22.1508 11.4475 21.7992 11.7992C21.4475 12.1508 21.25 12.6277 21.25 13.125C21.2495 13.4047 21.3123 13.6808 21.4336 13.9328H21.4328L18.9328 16.4328V16.4336C18.6808 16.3123 18.4047 16.2495 18.125 16.25C17.7542 16.25 17.3916 16.36 17.0833 16.566C16.775 16.772 16.5346 17.0649 16.3927 17.4075C16.2508 17.7501 16.2137 18.1271 16.286 18.4908C16.3584 18.8545 16.537 19.1886 16.7992 19.4508C17.0614 19.713 17.3955 19.8916 17.7592 19.964C18.1229 20.0363 18.4999 19.9992 18.8425 19.8573C19.1851 19.7154 19.478 19.475 19.684 19.1667C19.89 18.8584 20 18.4958 20 18.125C20.0005 17.8453 19.9377 17.5692 19.8164 17.3172H19.8172L22.3172 14.8172V14.8164C22.5693 14.9373 22.8454 15 23.125 15C23.4046 15 23.6807 14.9373 23.9328 14.8164V14.8172L26.4328 17.3172H26.4336C26.3123 17.5692 26.2495 17.8453 26.25 18.125C26.25 18.6223 26.4475 19.0992 26.7992 19.4508C27.1508 19.8025 27.6277 20 28.125 20C28.6223 20 29.0992 19.8025 29.4508 19.4508C29.8025 19.0992 30 18.6223 30 18.125C30.0005 17.8453 29.9377 17.5692 29.8164 17.3172H29.8172L32.3172 14.8172V14.8164C32.5692 14.9377 32.8453 15.0005 33.125 15C33.6223 15 34.0992 14.8025 34.4508 14.4508C34.8025 14.0992 35 13.6223 35 13.125C35 12.6277 34.8025 12.1508 34.4508 11.7992C34.0992 11.4475 33.6223 11.25 33.125 11.25ZM18.125 18.75C18.0014 18.75 17.8805 18.7133 17.7778 18.6447C17.675 18.576 17.5949 18.4784 17.5476 18.3642C17.5003 18.25 17.4879 18.1243 17.512 18.0031C17.5361 17.8818 17.5956 17.7705 17.6831 17.6831C17.7705 17.5957 17.8818 17.5361 18.0031 17.512C18.1243 17.4879 18.25 17.5003 18.3642 17.5476C18.4784 17.5949 18.576 17.675 18.6447 17.7778C18.7133 17.8805 18.75 18.0014 18.75 18.125C18.7498 18.2907 18.6839 18.4495 18.5667 18.5667C18.4495 18.6839 18.2907 18.7498 18.125 18.75ZM23.125 13.75C23.0014 13.75 22.8806 13.7133 22.7778 13.6447C22.675 13.576 22.5949 13.4784 22.5476 13.3642C22.5003 13.25 22.4879 13.1243 22.512 13.0031C22.5361 12.8818 22.5956 12.7705 22.6831 12.6831C22.7705 12.5956 22.8818 12.5361 23.0031 12.512C23.1243 12.4879 23.25 12.5003 23.3642 12.5476C23.4784 12.5949 23.576 12.675 23.6447 12.7778C23.7133 12.8805 23.75 13.0014 23.75 13.125C23.7498 13.2907 23.6839 13.4495 23.5667 13.5667C23.4495 13.6839 23.2907 13.7498 23.125 13.75ZM28.125 18.75C28.0014 18.75 27.8806 18.7133 27.7778 18.6447C27.675 18.576 27.5949 18.4784 27.5476 18.3642C27.5003 18.25 27.4879 18.1243 27.512 18.0031C27.5361 17.8818 27.5956 17.7705 27.6831 17.6831C27.7705 17.5957 27.8818 17.5361 28.0031 17.512C28.1243 17.4879 28.25 17.5003 28.3642 17.5476C28.4784 17.5949 28.576 17.675 28.6447 17.7778C28.7133 17.8805 28.75 18.0014 28.75 18.125C28.7498 18.2907 28.6839 18.4495 28.5667 18.5667C28.4495 18.6839 28.2907 18.7498 28.125 18.75ZM33.125 13.75C33.0014 13.75 32.8806 13.7133 32.7778 13.6447C32.675 13.576 32.5949 13.4784 32.5476 13.3642C32.5003 13.25 32.4879 13.1243 32.512 13.0031C32.5361 12.8818 32.5956 12.7705 32.6831 12.6831C32.7705 12.5956 32.8818 12.5361 33.0031 12.512C33.1243 12.4879 33.25 12.5003 33.3642 12.5476C33.4784 12.5949 33.576 12.675 33.6447 12.7778C33.7133 12.8805 33.75 13.0014 33.75 13.125C33.7498 13.2907 33.6839 13.4495 33.5667 13.5667C33.4495 13.6839 33.2907 13.7498 33.125 13.75ZM8.125 19.375H14.375C14.5408 19.375 14.6997 19.3092 14.8169 19.1919C14.9342 19.0747 15 18.9158 15 18.75C15 18.5842 14.9342 18.4253 14.8169 18.3081C14.6997 18.1908 14.5408 18.125 14.375 18.125H8.125C7.95924 18.125 7.80027 18.1908 7.68306 18.3081C7.56585 18.4253 7.5 18.5842 7.5 18.75C7.5 18.9158 7.56585 19.0747 7.68306 19.1919C7.80027 19.3092 7.95924 19.375 8.125 19.375ZM8.125 21.25H14.375C14.5408 21.25 14.6997 21.1842 14.8169 21.0669C14.9342 20.9497 15 20.7908 15 20.625C15 20.4592 14.9342 20.3003 14.8169 20.1831C14.6997 20.0658 14.5408 20 14.375 20H8.125C7.95924 20 7.80027 20.0658 7.68306 20.1831C7.56585 20.3003 7.5 20.4592 7.5 20.625C7.5 20.7908 7.56585 20.9497 7.68306 21.0669C7.80027 21.1842 7.95924 21.25 8.125 21.25ZM8.125 23.125H10C10.1658 23.125 10.3247 23.0592 10.4419 22.9419C10.5592 22.8247 10.625 22.6658 10.625 22.5C10.625 22.3342 10.5592 22.1753 10.4419 22.0581C10.3247 21.9408 10.1658 21.875 10 21.875H8.125C7.95924 21.875 7.80027 21.9408 7.68306 22.0581C7.56585 22.1753 7.5 22.3342 7.5 22.5C7.5 22.6658 7.56585 22.8247 7.68306 22.9419C7.80027 23.0592 7.95924 23.125 8.125 23.125Z" fill="#1D1D1D"/>
</svg>
