<svg width="42" height="42" viewBox="0 0 42 42" fill="none" xmlns="http://www.w3.org/2000/svg">
<path d="M6.05859 21.0101V30.0646C6.05859 32.6185 8.11783 34.6895 10.6582 34.6895H21.1114" stroke="#1D1D1D" stroke-miterlimit="10" stroke-linecap="round" stroke-linejoin="round"/>
<path d="M6.05859 10.8394V9.21766C6.05859 6.6638 8.11783 4.59362 10.6582 4.59362H11.8593" stroke="#1D1D1D" stroke-miterlimit="10" stroke-linecap="round" stroke-linejoin="round"/>
<path d="M32.6571 12.9886V30.0648C32.6571 31.6482 31.8651 33.0455 30.6587 33.8789" stroke="#1D1D1D" stroke-miterlimit="10" stroke-linecap="round" stroke-linejoin="round"/>
<path d="M26.8561 4.5934H28.0577C30.5977 4.5934 32.6573 6.66391 32.6573 9.21825V10.563" stroke="#1D1D1D" stroke-miterlimit="10" stroke-linecap="round" stroke-linejoin="round"/>
<path d="M23.2665 3.66965C22.6492 2.10637 21.1323 1.00041 19.3575 1.00041C17.5827 1.00041 16.0658 2.10637 15.4486 3.66965H13.9673C12.378 3.66965 11.0897 4.96487 11.0897 6.56261C11.0897 8.16027 12.378 9.45557 13.9673 9.45557H24.7477C26.337 9.45557 27.6253 8.16027 27.6253 6.56261C27.6253 4.96487 26.337 3.66965 24.7477 3.66965H23.2665Z" stroke="#1D1D1D" stroke-miterlimit="10" stroke-linecap="round" stroke-linejoin="round"/>
<path d="M21.0779 5.22781C21.0779 4.2725 20.3076 3.49802 19.3574 3.49802C18.407 3.49802 17.6367 4.2725 17.6367 5.22781C17.6367 6.18312 18.407 6.95752 19.3574 6.95752C20.3076 6.95752 21.0779 6.18312 21.0779 5.22781Z" stroke="#1D1D1D" stroke-miterlimit="10" stroke-linecap="round" stroke-linejoin="round"/>
<path d="M5.08936 13.3021H6.21523V18.5977" stroke="#1D1D1D" stroke-miterlimit="10" stroke-linecap="round" stroke-linejoin="round"/>
<path d="M11.1171 15.9243C11.1171 13.1157 8.85231 10.8389 6.05851 10.8389C3.26479 10.8389 1 13.1157 1 15.9243C1 18.7329 3.26479 21.0098 6.05851 21.0098C8.85231 21.0098 11.1171 18.7329 11.1171 15.9243Z" stroke="#1D1D1D" stroke-miterlimit="10" stroke-linecap="round" stroke-linejoin="round"/>
<path d="M17.4869 28.6069C17.4869 28.6069 14.924 28.6393 14.8027 28.5986C14.6813 28.558 14.9973 28.3431 16.6776 25.9295C16.9914 25.4788 17.1641 25.0985 17.2376 24.7799L17.2637 24.5751C17.2637 23.8267 16.6602 23.22 15.9158 23.22C15.2608 23.22 14.715 23.6898 14.5933 24.3124" stroke="#1D1D1D" stroke-miterlimit="10" stroke-linecap="round" stroke-linejoin="round"/>
<path d="M12.909 29.9137C13.8004 30.6218 14.9037 31.0061 16.0398 31.0044C18.8342 31.0044 21.0989 28.7276 21.0989 25.9192C21.0989 23.1107 18.8342 20.8339 16.0398 20.8339C13.2462 20.8339 10.9814 23.1107 10.9814 25.9192C10.9814 26.6789 11.1472 27.399 11.4442 28.0463" stroke="#1D1D1D" stroke-miterlimit="10" stroke-linecap="round" stroke-linejoin="round"/>
<path d="M24.7302 34.374C24.8518 33.7514 25.3978 33.2816 26.0528 33.2816C26.7972 33.2816 27.4006 33.8883 27.4006 34.6366C27.4006 35.385 26.7972 35.9916 26.0528 35.9916C26.7972 35.9916 27.4006 36.5983 27.4006 37.3467C27.4006 38.0951 26.7972 38.7017 26.0528 38.7017C25.3722 38.7017 24.8093 38.1946 24.7179 37.5357C24.7093 37.473 24.7049 37.4099 24.705 37.3467" stroke="#1D1D1D" stroke-miterlimit="10" stroke-linecap="round" stroke-linejoin="round"/>
<path d="M31.0805 35.9145C31.0805 33.106 28.8157 30.8291 26.022 30.8291C23.2283 30.8291 20.9635 33.106 20.9635 35.9145C20.9635 38.7231 23.2283 41 26.022 41C28.8157 41 31.0805 38.7231 31.0805 35.9145Z" stroke="#1D1D1D" stroke-miterlimit="10" stroke-linecap="round" stroke-linejoin="round"/>
<path d="M14.5933 14.3906H23.975" stroke="#1D1D1D" stroke-miterlimit="10" stroke-linecap="round" stroke-linejoin="round"/>
<path d="M14.5933 17.458H20.8535" stroke="#1D1D1D" stroke-miterlimit="10" stroke-linecap="round" stroke-linejoin="round"/>
<path d="M22.9287 24.3862H30.4585" stroke="#1D1D1D" stroke-miterlimit="10" stroke-linecap="round" stroke-linejoin="round"/>
<path d="M22.9287 27.4531H27.3371" stroke="#1D1D1D" stroke-miterlimit="10" stroke-linecap="round" stroke-linejoin="round"/>
<path d="M33.9357 34.3809H40.9999" stroke="#1D1D1D" stroke-miterlimit="10" stroke-linecap="round" stroke-linejoin="round"/>
<path d="M33.9357 37.4482H37.8785" stroke="#1D1D1D" stroke-miterlimit="10" stroke-linecap="round" stroke-linejoin="round"/>
</svg>
