<svg width="196" height="35" viewBox="0 0 196 35" fill="none" xmlns="http://www.w3.org/2000/svg">
<path d="M56.7523 30.9995C55.4611 30.9995 54.2265 30.8649 53.0485 30.5958C51.8705 30.3042 50.8284 29.8668 49.9223 29.2835C49.0162 28.6779 48.3026 27.9377 47.7815 27.0629C47.2605 26.1656 47 25.1113 47 23.9001C47 23.7655 47 23.6309 47 23.4963C47.0227 23.3617 47.034 23.2608 47.034 23.1935H51.4854C51.4854 23.2383 51.4741 23.3281 51.4514 23.4627C51.4514 23.5748 51.4514 23.6757 51.4514 23.7655C51.4514 24.5057 51.6666 25.145 52.097 25.6833C52.5275 26.1993 53.1504 26.603 53.9659 26.8946C54.7815 27.1638 55.7442 27.2984 56.8543 27.2984C57.6018 27.2984 58.2588 27.2535 58.8251 27.1638C59.4141 27.0741 59.9125 26.9507 60.3203 26.7937C60.7507 26.6142 61.1018 26.4123 61.3736 26.188C61.6455 25.9413 61.838 25.6721 61.9513 25.3805C62.0872 25.0889 62.1552 24.7749 62.1552 24.4384C62.1552 23.7879 61.9513 23.2496 61.5435 22.8234C61.1358 22.3972 60.5808 22.0383 59.8785 21.7467C59.1989 21.4551 58.4174 21.1971 57.5339 20.9728C56.673 20.7261 55.7782 20.4793 54.8494 20.2326C53.9433 19.9858 53.0485 19.6942 52.165 19.3578C51.3042 18.9989 50.5226 18.5727 49.8204 18.0792C49.1408 17.5857 48.5971 16.9688 48.1893 16.2286C47.7815 15.4659 47.5777 14.5575 47.5777 13.5032C47.5777 12.4265 47.8042 11.4844 48.2573 10.6769C48.733 9.86937 49.3899 9.20765 50.2281 8.69174C51.089 8.15339 52.0857 7.76085 53.2184 7.5141C54.3511 7.24493 55.5857 7.11034 56.9222 7.11034C58.1682 7.11034 59.3348 7.24493 60.4222 7.5141C61.5322 7.76085 62.5063 8.16461 63.3445 8.72538C64.1827 9.26373 64.8396 9.9591 65.3153 10.8115C65.7911 11.6414 66.0289 12.6396 66.0289 13.806V14.2098H61.6455V13.8733C61.6455 13.2228 61.4416 12.6733 61.0338 12.2246C60.6487 11.776 60.0937 11.4283 59.3688 11.1816C58.6665 10.9349 57.8397 10.8115 56.8882 10.8115C55.8688 10.8115 54.9967 10.9124 54.2718 11.1143C53.5469 11.2938 52.9918 11.5741 52.6067 11.9555C52.2216 12.3144 52.0291 12.763 52.0291 13.3013C52.0291 13.8621 52.233 14.3332 52.6407 14.7145C53.0485 15.0958 53.5922 15.4211 54.2718 15.6903C54.974 15.9594 55.7556 16.2062 56.6164 16.4305C57.4999 16.6548 58.3947 16.9015 59.3008 17.1707C60.2296 17.4175 61.1245 17.7091 61.9853 18.0455C62.8688 18.382 63.6503 18.8082 64.3299 19.3241C65.0322 19.8176 65.5872 20.4344 65.995 21.1747C66.4027 21.9149 66.6066 22.8009 66.6066 23.8328C66.6066 25.56 66.1762 26.9507 65.3153 28.005C64.4772 29.0592 63.3105 29.8219 61.8154 30.2929C60.3429 30.764 58.6552 30.9995 56.7523 30.9995Z" fill="white"/>
<path d="M78.2955 30.9995C76.3473 30.9995 74.7163 30.6743 73.4024 30.0238C72.0885 29.3508 71.103 28.3302 70.4461 26.9619C69.7891 25.5936 69.4607 23.8552 69.4607 21.7467C69.4607 19.6157 69.7891 17.8773 70.4461 16.5314C71.103 15.1631 72.0885 14.1537 73.4024 13.5032C74.7163 12.8303 76.3473 12.4938 78.2955 12.4938C80.2664 12.4938 81.8974 12.8303 83.1887 13.5032C84.5026 14.1537 85.488 15.1631 86.145 16.5314C86.8019 17.8773 87.1304 19.6157 87.1304 21.7467C87.1304 23.8552 86.8019 25.5936 86.145 26.9619C85.488 28.3302 84.5026 29.3508 83.1887 30.0238C81.8974 30.6743 80.2664 30.9995 78.2955 30.9995ZM78.2955 27.6348C79.3829 27.6348 80.2551 27.433 80.912 27.0292C81.5916 26.603 82.0787 25.9749 82.3732 25.145C82.6903 24.2926 82.8489 23.2383 82.8489 21.9822V21.5111C82.8489 20.255 82.6903 19.2119 82.3732 18.382C82.0787 17.5296 81.5916 16.9015 80.912 16.4978C80.2551 16.0716 79.3829 15.8585 78.2955 15.8585C77.2082 15.8585 76.3247 16.0716 75.6451 16.4978C74.9881 16.9015 74.5011 17.5296 74.1839 18.382C73.8894 19.2119 73.7422 20.255 73.7422 21.5111V21.9822C73.7422 23.2383 73.8894 24.2926 74.1839 25.145C74.5011 25.9749 74.9881 26.603 75.6451 27.0292C76.3247 27.433 77.2082 27.6348 78.2955 27.6348Z" fill="white"/>
<path d="M91.5022 30.5958V16.2623H88.9197V12.8976H91.5022V10.6432C91.5022 9.85816 91.6268 9.11793 91.8759 8.42256C92.1478 7.70477 92.6122 7.12156 93.2691 6.67293C93.9261 6.22431 94.8436 6 96.0215 6C96.3613 6 96.7011 6.02243 97.0409 6.06729C97.4034 6.11215 97.7432 6.17945 98.0603 6.26917C98.3775 6.33647 98.6493 6.41498 98.8759 6.5047V9.36467H97.1769C96.6785 9.36467 96.2934 9.49926 96.0215 9.76843C95.7723 10.0152 95.6477 10.3853 95.6477 10.8788V12.8976H98.8759V16.2623H95.6477V30.5958H91.5022Z" fill="white"/>
<path d="M105.796 30.9995C104.686 30.9995 103.813 30.7864 103.179 30.3602C102.545 29.9116 102.092 29.3508 101.82 28.6779C101.571 27.9825 101.446 27.2759 101.446 26.5582V16.2623H99.3054V12.8976H101.548L102.296 7.95151H105.592V12.8976H108.684V16.2623H105.592V26.1544C105.592 26.6254 105.716 26.9956 105.966 27.2647C106.215 27.5115 106.588 27.6348 107.087 27.6348H108.684V30.4612C108.457 30.5509 108.174 30.6294 107.834 30.6967C107.517 30.7864 107.177 30.8537 106.815 30.8986C106.453 30.9659 106.113 30.9995 105.796 30.9995Z" fill="white"/>
<path d="M121.226 30.9998C119.368 30.9998 117.816 30.6746 116.57 30.0241C115.347 29.3512 114.43 28.3305 113.818 26.9622C113.206 25.5939 112.9 23.8555 112.9 21.747C112.9 19.616 113.206 17.8776 113.818 16.5318C114.452 15.1634 115.381 14.154 116.604 13.5035C117.85 12.8306 119.391 12.4941 121.226 12.4941C122.426 12.4941 123.491 12.6399 124.42 12.9315C125.348 13.2232 126.141 13.6718 126.798 14.2774C127.478 14.8606 127.988 15.5896 128.327 16.4645C128.667 17.3393 128.837 18.3599 128.837 19.5263H124.624C124.624 18.6964 124.499 18.0122 124.25 17.4739C124.001 16.9355 123.615 16.5317 123.094 16.2626C122.596 15.971 121.95 15.8252 121.158 15.8252C120.229 15.8252 119.47 16.0383 118.881 16.4645C118.292 16.8906 117.85 17.5299 117.556 18.3823C117.284 19.2123 117.148 20.2665 117.148 21.5451V21.9825C117.148 23.2387 117.284 24.2929 117.556 25.1453C117.85 25.9977 118.303 26.637 118.915 27.0632C119.527 27.4669 120.331 27.6688 121.327 27.6688C122.098 27.6688 122.732 27.5342 123.23 27.2651C123.751 26.9735 124.148 26.5473 124.42 25.9865C124.692 25.4257 124.827 24.7528 124.827 23.9677H128.837C128.837 25.0668 128.667 26.0538 128.327 26.9286C127.988 27.8034 127.489 28.5436 126.832 29.1493C126.175 29.7549 125.371 30.2148 124.42 30.5288C123.491 30.8428 122.426 30.9998 121.226 30.9998Z" fill="#06D889"/>
<path d="M140.184 30.9994C138.236 30.9994 136.605 30.6741 135.291 30.0236C133.977 29.3507 132.992 28.3301 132.335 26.9618C131.678 25.5935 131.35 23.8551 131.35 21.7465C131.35 19.6156 131.678 17.8772 132.335 16.5313C132.992 15.163 133.977 14.1536 135.291 13.5031C136.605 12.8302 138.236 12.4937 140.184 12.4937C142.155 12.4937 143.786 12.8302 145.078 13.5031C146.392 14.1536 147.377 15.163 148.034 16.5313C148.691 17.8772 149.019 19.6156 149.019 21.7465C149.019 23.8551 148.691 25.5935 148.034 26.9618C147.377 28.3301 146.392 29.3507 145.078 30.0236C143.786 30.6741 142.155 30.9994 140.184 30.9994ZM140.184 27.6347C141.272 27.6347 142.144 27.4328 142.801 27.0291C143.481 26.6029 143.968 25.9748 144.262 25.1449C144.579 24.2925 144.738 23.2382 144.738 21.9821V21.511C144.738 20.2549 144.579 19.2118 144.262 18.3819C143.968 17.5295 143.481 16.9014 142.801 16.4977C142.144 16.0715 141.272 15.8584 140.184 15.8584C139.097 15.8584 138.214 16.0715 137.534 16.4977C136.877 16.9014 136.39 17.5295 136.073 18.3819C135.778 19.2118 135.631 20.2549 135.631 21.511V21.9821C135.631 23.2382 135.778 24.2925 136.073 25.1449C136.39 25.9748 136.877 26.6029 137.534 27.0291C138.214 27.4328 139.097 27.6347 140.184 27.6347Z" fill="white"/>
<path d="M152.542 30.5956V12.8975H156.008L156.347 15.2527H156.585C156.993 14.7144 157.469 14.2433 158.012 13.8396C158.579 13.4134 159.213 13.0881 159.915 12.8638C160.64 12.6171 161.433 12.4937 162.294 12.4937C163.427 12.4937 164.423 12.6956 165.284 13.0993C166.168 13.5031 166.859 14.1536 167.357 15.0508C167.855 15.9481 168.105 17.1482 168.105 18.651V30.5956H163.925V19.3913C163.925 18.7632 163.846 18.2473 163.687 17.8435C163.551 17.4173 163.336 17.0809 163.041 16.8341C162.77 16.5649 162.43 16.3743 162.022 16.2621C161.614 16.15 161.161 16.0939 160.663 16.0939C159.915 16.0939 159.236 16.2733 158.624 16.6322C158.035 16.9911 157.559 17.4846 157.197 18.1127C156.857 18.7408 156.687 19.4698 156.687 20.2997V30.5956H152.542Z" fill="white"/>
<path d="M172.386 10.1721V6.26904H176.531V10.1721H172.386ZM172.386 30.5956V12.8975H176.531V30.5956H172.386Z" fill="white"/>
<path d="M188.389 30.9994C186.531 30.9994 184.979 30.6741 183.733 30.0236C182.51 29.3507 181.593 28.3301 180.981 26.9618C180.369 25.5935 180.063 23.8551 180.063 21.7465C180.063 19.6156 180.369 17.8772 180.981 16.5313C181.615 15.163 182.544 14.1536 183.767 13.5031C185.013 12.8302 186.554 12.4937 188.389 12.4937C189.589 12.4937 190.654 12.6395 191.583 12.9311C192.512 13.2227 193.304 13.6713 193.961 14.277C194.641 14.8602 195.151 15.5892 195.49 16.464C195.83 17.3388 196 18.3594 196 19.5259H191.787C191.787 18.6959 191.662 18.0118 191.413 17.4734C191.164 16.9351 190.779 16.5313 190.258 16.2621C189.759 15.9705 189.114 15.8247 188.321 15.8247C187.392 15.8247 186.633 16.0378 186.044 16.464C185.455 16.8902 185.013 17.5295 184.719 18.3819C184.447 19.2118 184.311 20.2661 184.311 21.5447V21.9821C184.311 23.2382 184.447 24.2925 184.719 25.1449C185.013 25.9972 185.466 26.6365 186.078 27.0627C186.69 27.4665 187.494 27.6684 188.491 27.6684C189.261 27.6684 189.895 27.5338 190.393 27.2646C190.914 26.973 191.311 26.5468 191.583 25.986C191.855 25.4253 191.991 24.7523 191.991 23.9672H196C196 25.0664 195.83 26.0533 195.49 26.9281C195.151 27.803 194.652 28.5432 193.995 29.1488C193.338 29.7545 192.534 30.2143 191.583 30.5283C190.654 30.8424 189.589 30.9994 188.389 30.9994Z" fill="white"/>
<path fill-rule="evenodd" clip-rule="evenodd" d="M29.3396 7.18538C24.3126 2.50104 17.6264 3.07194 12.0909 6.78536C12.0217 6.86346 11.5921 7.08307 12.071 6.39975C22.6978 -5.11115 42.2432 10.606 31.3252 23.703C33.7695 18.5013 34.382 11.8844 29.3399 7.18549L29.3396 7.18538Z" fill="#06D889"/>
<path fill-rule="evenodd" clip-rule="evenodd" d="M24.8473 1.7599C7.57842 -3.34896 -7.25565 23.1232 11.9783 35C-9.60605 25.7821 0.996118 -2.21233 19.9979 0.139727C21.5486 0.329935 23.9238 1.05709 24.8472 1.75968L24.8473 1.7599Z" fill="#06D889"/>
<path fill-rule="evenodd" clip-rule="evenodd" d="M29.4039 18.7608C29.4039 24.4699 24.7471 29.1104 19.0137 29.1104C13.2755 29.1104 8.61914 24.4699 8.61914 18.7608C8.61914 13.0516 13.276 8.41113 19.0137 8.41113C24.7471 8.41113 29.4039 13.0516 29.4039 18.7608ZM11.3944 20.132C10.6191 21.3081 11.5277 24.2944 14.219 26.0608C16.8856 27.8271 20.3029 27.6954 21.098 26.5147C21.8732 25.3631 20.219 26.1048 17.1968 24.9921C12.2092 23.1575 12.1649 18.9513 11.3944 20.132Z" fill="#06D889"/>
<path fill-rule="evenodd" clip-rule="evenodd" d="M35.6625 12.1391C42.729 25.5919 23.1146 42.8663 9.4408 30.6376C7.69264 29.0859 6.92242 27.5879 5.64844 25.6408C16.2805 40.1869 39.6777 28.6953 35.4801 12.3533C35.327 11.753 35.4259 11.6994 35.6627 12.1386L35.6625 12.1391Z" fill="#06D889"/>
</svg>
