<svg width="38" height="35" viewBox="0 0 38 35" fill="none" xmlns="http://www.w3.org/2000/svg">
<path fill-rule="evenodd" clip-rule="evenodd" d="M29.3396 7.18538C24.3126 2.50104 17.6264 3.07194 12.0909 6.78536C12.0217 6.86346 11.5921 7.08307 12.071 6.39975C22.6978 -5.11115 42.2432 10.606 31.3252 23.703C33.7695 18.5013 34.382 11.8844 29.3399 7.18549L29.3396 7.18538Z" fill="#06D889"/>
<path fill-rule="evenodd" clip-rule="evenodd" d="M24.8473 1.7599C7.57842 -3.34896 -7.25565 23.1232 11.9783 35C-9.60605 25.7821 0.996118 -2.21233 19.9979 0.139727C21.5486 0.329935 23.9238 1.05709 24.8472 1.75968L24.8473 1.7599Z" fill="#06D889"/>
<path fill-rule="evenodd" clip-rule="evenodd" d="M29.4039 18.7608C29.4039 24.4699 24.7471 29.1104 19.0137 29.1104C13.2755 29.1104 8.61914 24.4699 8.61914 18.7608C8.61914 13.0516 13.276 8.41113 19.0137 8.41113C24.7471 8.41113 29.4039 13.0516 29.4039 18.7608ZM11.3944 20.132C10.6191 21.3081 11.5277 24.2944 14.219 26.0608C16.8856 27.8271 20.3029 27.6954 21.098 26.5147C21.8732 25.3631 20.219 26.1048 17.1968 24.9921C12.2092 23.1575 12.1649 18.9513 11.3944 20.132Z" fill="#06D889"/>
<path fill-rule="evenodd" clip-rule="evenodd" d="M35.6625 12.1391C42.729 25.5919 23.1146 42.8663 9.4408 30.6376C7.69264 29.0859 6.92242 27.5879 5.64844 25.6408C16.2805 40.1869 39.6777 28.6953 35.4801 12.3533C35.327 11.753 35.4259 11.6994 35.6627 12.1386L35.6625 12.1391Z" fill="#06D889"/>
</svg>
