<?xml version="1.0" standalone="no"?>
<!DOCTYPE svg PUBLIC "-//W3C//DTD SVG 1.1//EN" "http://www.w3.org/Graphics/SVG/1.1/DTD/svg11.dtd" >
<svg xmlns="http://www.w3.org/2000/svg" xmlns:xlink="http://www.w3.org/1999/xlink" version="1.1">
<metadata>
Created by FontForge 20170812 at Sun Apr 14 21:27:56 2019
 By www-data
Copyright (c) 2019 Monotype Imaging Inc. All rights reserved.
</metadata>
<defs>
<font id="HelveticaNowText-Medium" horiz-adv-x="650" >
  <font-face 
    font-family="HelveticaNowText Medium"
    font-weight="500"
    font-stretch="normal"
    units-per-em="1000"
    panose-1="2 11 6 4 3 2 2 2 2 4"
    ascent="875"
    descent="-125"
    x-height="516"
    cap-height="712"
    bbox="-368 -348 1588 1109"
    underline-thickness="50"
    underline-position="-250"
    unicode-range="U+000D-FEFF"
  />
<missing-glyph horiz-adv-x="718" 
d="M643 0h-568v712h568v-712zM196 605v-498h326v498h-326z" />
    <glyph glyph-name="fi" unicode="fi" horiz-adv-x="603" 
d="M105 513v39c0 106.667 53.333 160 160 160h64v-95h-45c-22.667 0 -38.667 -4.83301 -48 -14.5s-14 -25.5 -14 -47.5v-42l107 3v-88l-107 4v-432h-117v431l-78 -3v88zM417 598v114h117v-114h-117zM534 0h-117v516h117v-516z" />
    <glyph glyph-name="fl" unicode="fl" horiz-adv-x="603" 
d="M105 513v39c0 106.667 53.333 160 160 160h64v-95h-45c-22.667 0 -38.667 -4.83301 -48 -14.5s-14 -25.5 -14 -47.5v-42l107 3v-88l-107 4v-432h-117v431l-78 -3v88zM417 0v712h117v-712h-117z" />
    <glyph glyph-name=".notdef" horiz-adv-x="718" 
d="M643 0h-568v712h568v-712zM196 605v-498h326v498h-326z" />
    <glyph glyph-name="NULL" horiz-adv-x="0" 
 />
    <glyph glyph-name="NULL" horiz-adv-x="0" 
 />
    <glyph glyph-name="CR" unicode="&#xd;" horiz-adv-x="260" 
 />
    <glyph glyph-name="space" unicode=" " horiz-adv-x="260" 
 />
    <glyph glyph-name="exclam" unicode="!" horiz-adv-x="278" 
d="M167 202h-56l-33 317v193h121v-193zM203 0h-128v126h128v-126z" />
    <glyph glyph-name="quotedbl" unicode="&#x22;" horiz-adv-x="460" 
d="M176 429h-106v284h106v-284zM391 429h-106v284h106v-284z" />
    <glyph glyph-name="numbersign" unicode="#" horiz-adv-x="699" 
d="M661 542v-96l-124 3l-25 -181l111 3v-95l-124 3l-25 -179h-96l25 180h-159l-25 -180h-95l25 179l-111 -3v95l124 -3l25 181l-111 -3v96l124 -3l24 173h95l-24 -174h159l24 174h96l-24 -173zM282 450l-25 -183h159l25 183h-159z" />
    <glyph glyph-name="dollar" unicode="$" 
d="M609 212c0 -58.667 -19.3301 -106.502 -57.9971 -143.502s-92.667 -59.167 -162 -66.5v-146h-94v146c-69.333 6.66699 -123.833 29.334 -163.5 68.001s-62.834 91 -69.501 157h114c4 -44 19.167 -76.333 45.5 -97s66.833 -31 121.5 -31c100 0 150 33.667 150 101
c0 26 -7.83301 46.167 -23.5 60.5s-40.834 25.5 -75.501 33.5l-137 30c-117.333 27.333 -176 90 -176 188c0 54.667 18.5 99.834 55.5 135.501s89.833 56.5 158.5 62.5v137h94v-138c62.667 -8 111.667 -29.667 147 -65s55.666 -81.666 60.999 -138.999h-113
c-5.33301 38 -19.833 65.5 -43.5 82.5s-59.5 25.5 -107.5 25.5c-90.667 0 -136 -30.667 -136 -92c0 -24 7.16699 -43.333 21.5 -58s38.833 -26 73.5 -34l133 -29c122.667 -28.667 184 -91.334 184 -188.001z" />
    <glyph glyph-name="percent" unicode="%" horiz-adv-x="1193" 
d="M398 349c-32 -39.333 -78 -59 -138 -59s-105.667 19.667 -137 59c-32 39.333 -48 95.666 -48 168.999c0 72.667 15.833 128.334 47.5 167.001s77.5 58 137.5 58s105.833 -19.333 137.5 -58s47.5 -94.334 47.5 -167.001c0 -73.333 -15.667 -129.666 -47 -168.999zM417 -15
h-100l448 742h98zM193 406c15.333 -23.333 37.668 -35 67.001 -35s51.666 11.667 66.999 35c14.667 22.667 22 59.667 22 111s-7.33301 88.333 -22 111s-37 34 -67 34s-52.333 -11.333 -67 -34s-22 -59.667 -22 -111s7.33301 -88.333 22 -111zM1071 43
c-32 -39.333 -78 -59.001 -138 -59.001s-105.667 19.667 -137 59c-32 38.667 -48 95 -48 169c0 72.667 15.833 128.334 47.5 167.001s77.5 58 137.5 58s105.833 -19.333 137.5 -58s47.5 -94.334 47.5 -167.001c0 -73.333 -15.667 -129.666 -47 -168.999zM866.002 99.999
c15.333 -23.333 37.668 -35 67.001 -35s51.666 11.667 66.999 35c14.667 22.667 22 59.667 22 111c0 50 -7.33301 86.5 -22 109.5s-37 34.5 -67 34.5s-52.333 -11.5 -67 -34.5s-22 -59.5 -22 -109.5c0 -51.333 7.33301 -88.333 22 -111z" />
    <glyph glyph-name="ampersand" unicode="&#x26;" horiz-adv-x="757" 
d="M599 154l137.999 -155h-146l-64 73c-60.667 -58 -132.334 -87 -215.001 -87c-71.333 0 -129.666 18.667 -174.999 56c-44.667 36.667 -67 86.334 -67 149.001c0 98 55.333 169.333 166 214c-30.667 32.667 -52.167 65.667 -64.5 99s-15.833 63.166 -10.5 89.499
s16.333 50 33 71s38.667 37.167 66 48.5s57 17 89 17c56 0 102.333 -15.667 139 -47c36 -30.667 54 -70.667 54 -120c0 -77.333 -47 -139.666 -141 -186.999l128 -143c16.667 37.333 27.334 77.666 32.001 120.999h112c-10 -74.667 -34.667 -141 -74 -199zM408.999 612
c-18 12.667 -37.3311 19.333 -57.998 20s-39.334 -6 -56.001 -20s-24.334 -31.667 -23.001 -53c0 -27.333 13.333 -55.333 40 -84l23 -26c34 16 58.667 32.333 74 49s23 36 23 58c0 23.333 -7.66699 42 -23 56zM321.001 83.999c54.667 0 101.667 20.667 141 62l-160 184
c-76.667 -32 -115 -76.667 -115 -134c0 -33.333 12 -60.333 36 -81s56.667 -31 98 -31z" />
    <glyph glyph-name="quotesingle" unicode="'" horiz-adv-x="246" 
d="M176 429h-106v284h106v-284z" />
    <glyph glyph-name="parenleft" unicode="(" horiz-adv-x="346" 
d="M308 -204h-109c-100 141.333 -150 298.333 -150 471c0 180 50 340 150 480h109c-94 -140.667 -141 -300.667 -141 -480c0 -171.333 47 -328.333 141 -471z" />
    <glyph glyph-name="parenright" unicode=")" horiz-adv-x="346" 
d="M146 -204h-108c94 144 141 301 141 471c0 176.667 -47 336.667 -141 480h108c100 -139.333 150 -299.333 150 -480c0 -175.333 -50 -332.333 -150 -471z" />
    <glyph glyph-name="asterisk" unicode="*" horiz-adv-x="540" 
d="M270 461l-83 -124l-75 51l97 113l-139 40l30 83l133 -54l-7 142h88l-7 -142l133 54l30 -83l-138 -40l96 -113l-73 -51z" />
    <glyph glyph-name="plus" unicode="+" 
d="M388 361h222v-101h-222v-224h-105v224h-222v101h222v224h105v-224z" />
    <glyph glyph-name="comma" unicode="," horiz-adv-x="291" 
d="M93 -151h-15v57h15c37.333 0 56 19 56 57v39l-72 -2v126h137v-158c0 -79.333 -40.333 -119 -121 -119z" />
    <glyph glyph-name="hyphen" unicode="-" horiz-adv-x="380" 
d="M330 215h-280v103h280v-103z" />
    <glyph glyph-name="period" unicode="." horiz-adv-x="284" 
d="M212 0h-140v126h140v-126z" />
    <glyph glyph-name="slash" unicode="/" horiz-adv-x="484" 
d="M153 0h-118l296 712h118z" />
    <glyph glyph-name="zero" unicode="0" 
d="M325 -14c-88 0 -154.833 31.667 -200.5 95s-68.5 155.666 -68.5 276.999c0 120.667 23 212.167 69 274.5s113 93.5 201 93.5c87.333 0 153.833 -31.167 199.5 -93.5s68.5 -153.833 68.5 -274.5c0 -121.333 -23 -213.666 -69 -276.999s-112.667 -95 -200 -95zM215 154
c24 -43.333 61 -64.999 111 -64.999s86.667 21.667 110 65s35 111 35 203s-11.833 159.333 -35.5 202s-60.5 64 -110.5 64s-86.833 -21.333 -110.5 -64s-35.5 -110 -35.5 -202c0 -92.667 12 -160.334 36 -203.001z" />
    <glyph glyph-name="one" unicode="1" horiz-adv-x="454" 
d="M341 0h-120.999v500h-182v85h40c49.333 0 86.666 10.667 111.999 32c23.333 20 38.333 48.333 45 85l2 10h104v-712z" />
    <glyph glyph-name="two" unicode="2" 
d="M574 0l-500 -0.000976562c2 60.667 15.167 112.5 39.5 155.5s63.5 82.5 117.5 118.5l130 89c58 38.667 87 84.334 87 137.001c0 38 -10.667 67.667 -32 89s-51 32 -89 32c-38.667 0 -68.834 -12 -90.501 -36s-32.5 -58.667 -32.5 -104v-16h-119v14
c0 76 22 135.833 66 179.5s103.333 65.5 178 65.5c72.667 0 131.667 -19.667 177 -59c44.667 -40 67 -93 67 -159c0 -90 -46.667 -165.667 -140 -227l-106 -68c-37.333 -24 -62.666 -43.333 -75.999 -58s-21 -31 -23 -49h346v-104z" />
    <glyph glyph-name="three" unicode="3" 
d="M329 -16c-86.667 0 -154.168 22.332 -202.501 66.999s-73.5 105.667 -75.5 183h120c2 -47.333 16.5 -83.666 43.5 -108.999s64.833 -38 113.5 -38c46.667 0 82.5 11 107.5 33s37.5 51.667 37.5 89c0 36.667 -12.167 65 -36.5 85s-59.166 30 -104.499 30h-64v96h48
c38.667 0 68.5 8.66699 89.5 26s31.5 42 31.5 74c0 32.667 -10.667 58 -32 76s-51.666 27 -90.999 27c-40.667 0 -71.167 -10.167 -91.5 -30.5s-31.5 -52.833 -33.5 -97.5h-117c2.66699 75.333 25 132.5 67 171.5s102 58.5 180 58.5c73.333 0 131.833 -17.167 175.5 -51.5
s65.5 -79.833 65.5 -136.5c0 -72.667 -35.667 -123 -107 -151v-2c47.333 -10 83.666 -30.167 108.999 -60.5s38 -68.833 38 -115.5c0 -67.333 -24.333 -121.333 -73 -162c-49.333 -41.333 -115.333 -62 -198 -62z" />
    <glyph glyph-name="four" unicode="4" 
d="M493 712v-453h111v-100h-111v-159h-120v159h-326v120l332 433h114zM157 259h216v279h-2z" />
    <glyph glyph-name="five" unicode="5" 
d="M320 -16c-71.333 0 -129.835 18.166 -175.502 54.499s-72.834 86.5 -81.501 150.5l119 6c6.66699 -34.667 22.334 -61.5 47.001 -80.5s55.667 -28.5 93 -28.5c44 0 78.667 13.167 104 39.5s38 61.5 38 105.5s-12.667 79 -38 105s-60.666 39 -105.999 39
c-48 0 -88.667 -17.667 -122 -53l-116 11l69 379h392v-107h-304l-31 -171l2 -1c42.667 28.667 90 43 142 43c70.667 0 127.334 -22.333 170.001 -67s64 -102.667 64 -174c0 -73.333 -24 -133.666 -72 -180.999c-47.333 -46.667 -112 -70 -194 -70z" />
    <glyph glyph-name="six" unicode="6" 
d="M355 475c72 0 129.335 -21.998 172.002 -65.998c43.333 -45.333 65 -103.333 65 -174c0 -74.667 -23.667 -135 -71 -181c-48 -46 -110.333 -69 -187 -69c-86 0 -153 29 -201 87c-50 61.333 -75 151.666 -75 270.999c0 124 23.667 219.167 71 285.5
s115.666 99.5 204.999 99.5c66.667 0 121.167 -17.333 163.5 -52s66.5 -81.334 72.5 -140.001h-116c-5.33301 28.667 -18.833 51.5 -40.5 68.5s-48.5 25.5 -80.5 25.5c-100.667 0 -153.667 -81.667 -159 -245c41.333 60 101.666 90 180.999 90zM334.002 86.002
c42 0 75.332 13.5 99.999 40.5s37 62.5 37 106.5s-12.667 79.167 -38 105.5s-58.666 39.5 -99.999 39.5s-75 -13.167 -101 -39.5s-39 -60.833 -39 -103.5c0 -44.667 13 -80.667 39 -108s60 -41 102 -41z" />
    <glyph glyph-name="seven" unicode="7" 
d="M305 0h-133c15.333 233.333 105 434 269 602h-374v110h515v-98c-88.667 -86.667 -154.667 -178 -198 -274c-44 -96.667 -70.333 -210 -79 -340z" />
    <glyph glyph-name="eight" unicode="8" 
d="M528 43c-51.333 -39.333 -119 -59.001 -203 -59.001s-151.667 19.667 -203 59s-77 93.333 -77 162c0 44 12 82 36 114s57.333 54.667 100 68v2c-30.667 14 -55.167 34.667 -73.5 62s-27.5 58 -27.5 92c0 56.667 22 101.334 66 134.001s103.667 49 179 49
s135 -16.333 179 -49s66 -77.334 66 -134.001c0 -35.333 -9.16699 -66.666 -27.5 -93.999s-42.833 -47.333 -73.5 -60v-2c42.667 -13.333 76 -36 100 -68s36 -70 36 -114c0 -68.667 -25.667 -122.667 -77 -162zM228 453.999c22.667 -18.667 55 -28 97 -28
s74.333 9.33301 97 28c23.333 18 35 43.333 35 76c0 32 -11.5 56.667 -34.5 74s-55.5 26 -97.5 26s-74.5 -8.66699 -97.5 -26s-34.5 -42 -34.5 -74c0 -32.667 11.667 -58 35 -76zM210 114.999c28.667 -23.333 67 -35 115 -35s86.667 11.667 116 35
c28 23.333 42 54.333 42 93s-14 69.167 -42 91.5s-66.667 33.5 -116 33.5s-88 -11.167 -116 -33.5s-42 -52.833 -42 -91.5c0 -39.333 14.333 -70.333 43 -93z" />
    <glyph glyph-name="nine" unicode="9" 
d="M517 637c50.667 -61.333 75.999 -151.669 75.999 -271.002c0 -124 -23.833 -219.167 -71.5 -285.5s-116.167 -99.5 -205.5 -99.5c-66.667 0 -121.167 17.333 -163.5 52s-66.166 81.334 -71.499 140.001h115c5.33301 -28.667 18.833 -51.5 40.5 -68.5
s48.5 -25.5 80.5 -25.5c100.667 0 153.667 81.667 159 245c-40.667 -60 -101 -90 -181 -90c-72 0 -129.333 22.333 -172 67c-43.333 44.667 -65 102.334 -65 173.001c0 74.667 24 135 72 181c46.667 46 108.667 69 186 69c86 0 153 -29 201 -87zM216.999 370.997
c24.667 -26.667 58 -40 100 -40c41.333 0 75 13.333 101 40c26 26 39 60.333 39 103c0 44.667 -13 80.667 -39 108s-60 41 -102 41c-41.333 0 -74.5 -13.5 -99.5 -40.5s-37.5 -62.5 -37.5 -106.5c0 -43.333 12.667 -78.333 38 -105z" />
    <glyph glyph-name="colon" unicode=":" horiz-adv-x="284" 
d="M212 382h-140v126h140v-126zM212 0h-140v126h140v-126z" />
    <glyph glyph-name="semicolon" unicode=";" horiz-adv-x="294" 
d="M217 382h-140v126h140v-126zM94 -151h-14v57h14c38 0 57 19 57 57v39l-72 -2v126h137v-158c0 -79.333 -40.667 -119 -122 -119z" />
    <glyph glyph-name="less" unicode="&#x3c;" 
d="M60 360l552 200v-116l-424 -141l424 -140v-116l-552 199v114z" />
    <glyph glyph-name="equal" unicode="=" 
d="M603 374h-535v100h535v-100zM603 145h-535v100h535v-100z" />
    <glyph glyph-name="greater" unicode="&#x3e;" 
d="M60 444v116l552 -200v-114l-552 -199v116l424 140z" />
    <glyph glyph-name="question" unicode="?" horiz-adv-x="599" 
d="M348 206l-111 -0.00195312v29c0 38.667 7.83301 70.5 23.5 95.5s44.167 50.5 85.5 76.5c29.333 18 50.333 36 63 54s19 38.333 19 61c0 34.667 -12.167 60.834 -36.5 78.501s-57.166 26.5 -98.499 26.5c-88.667 0 -134.334 -45 -137.001 -135h-117
c3.33301 75.333 26.833 133.333 70.5 174s105.5 61 185.5 61c78 0 140 -18.333 186 -55s69 -86.334 69 -149.001c0 -67.333 -32 -122.666 -96 -165.999l-48 -31c-23.333 -15.333 -38.833 -30.166 -46.5 -44.499s-11.5 -35.833 -11.5 -64.5v-11zM357 -0.00195312h-128v126
h128v-126z" />
    <glyph glyph-name="at" unicode="@" horiz-adv-x="1078" 
d="M547 729c142 0 253.666 -37.667 334.999 -113c80.667 -76 121 -171.667 121 -287c0 -80.667 -19.667 -147.667 -59 -201s-92.333 -80 -159 -80c-63.333 0 -106.666 24.667 -129.999 74c-33.333 -49.333 -81.666 -74 -144.999 -74c-58.667 0 -105.334 21 -140.001 63
s-52 97.667 -52 167c0 68.667 17.667 123.667 53 165c34.667 40.667 81 61 139 61c58.667 0 104.334 -21.333 137.001 -64l8 49h91v-303c0 -38.667 17.667 -58 53 -58c33.333 0 60.666 16.833 81.999 50.5s32 80.167 32 139.5c0 96 -32.667 174 -98 234
c-66 60 -156.333 90 -271 90c-115.333 0 -205.333 -32.333 -270 -97s-97 -154 -97 -268c0 -113.333 32.333 -202 97 -266c64 -64.667 153.667 -97 269 -97c71.333 0 139 12.333 203 37v-90c-62.667 -21.333 -129 -32 -199 -32c-145.333 0 -260.333 39.667 -345 119
c-84.667 80 -127 189.667 -127 329c0 137.333 42.667 247 128 329s200 123 344 123zM530.999 130c28 0 51.667 9.66895 71 29.002s32 45.666 38 78.999v81c-6 31.333 -18.667 56.166 -38 74.499s-43 27.5 -71 27.5c-33.333 0 -59.166 -12.667 -77.499 -38
s-27.5 -60.333 -27.5 -105c0 -46 9.16699 -82.167 27.5 -108.5s44.166 -39.5 77.499 -39.5z" />
    <glyph glyph-name="A" unicode="A" horiz-adv-x="718" 
d="M690 0h-131l-62 178h-278l-63 -178h-129l264 712h139zM317 457l-62 -177h207l-61 177l-42 140z" />
    <glyph glyph-name="B" unicode="B" horiz-adv-x="700" 
d="M502 385c91.333 -27.333 137.001 -86.333 137.001 -177c0 -62.667 -20.833 -113 -62.5 -151s-98.834 -57 -171.501 -57h-330v712h326c64.667 0 116 -15.5 154 -46.5s57 -73.5 57 -127.5c0 -76.667 -36.667 -127.667 -110 -153zM382.001 611l-186 -0.000976562v-187h179
c38 0 66.833 8.33301 86.5 25s29.5 40.334 29.5 71.001c0 60.667 -36.333 91 -109 91zM196.001 102.999h193c42 0 74.167 9.66699 96.5 29s33.5 47 33.5 83c0 72.667 -42.333 109 -127 109h-196v-221z" />
    <glyph glyph-name="C" unicode="C" horiz-adv-x="712" 
d="M376 -20c-97.333 0 -176.001 34.666 -236.001 103.999c-60.667 68.667 -91 159.334 -91 272.001c0 112 30.333 201.667 91 269c60 68 138.667 102 236 102c80.667 0 148.334 -21.667 203.001 -65c53.333 -43.333 84.666 -102 93.999 -176h-118
c-9.33301 42.667 -29 75.834 -59 99.501s-68 35.5 -114 35.5c-66 0 -117.667 -23.667 -155 -71s-56 -112 -56 -194c0 -82.667 18.833 -148.334 56.5 -197.001s89.167 -73 154.5 -73c50 0 90.333 14 121 42s49.667 67.333 57 118h117
c-8.66699 -83.333 -39.667 -148.5 -93 -195.5s-122.666 -70.5 -207.999 -70.5z" />
    <glyph glyph-name="D" unicode="D" horiz-adv-x="705" 
d="M75 712h259c108 0 189.333 -30.5 244 -91.5s82 -149.167 82 -264.5c0 -113.333 -27.5 -201 -82.5 -263s-135.833 -93 -242.5 -93h-260v712zM196 103l127 0.000976562c75.333 0 130 20.167 164 60.5s51 104.5 51 192.5c0 89.333 -17.5 154.166 -52.5 194.499
s-91.833 60.5 -170.5 60.5h-119v-508z" />
    <glyph glyph-name="E" unicode="E" horiz-adv-x="648" 
d="M196 316v-213h399v-103h-520v712h511v-103h-390v-189h355v-104h-355z" />
    <glyph glyph-name="F" unicode="F" horiz-adv-x="585" 
d="M570 712v-107h-374v-188h318v-107h-318v-310h-121v712h495z" />
    <glyph glyph-name="G" unicode="G" horiz-adv-x="774" 
d="M667 383l-1.00098 -6l33 6v-383h-82l-23 88c-45.333 -69.333 -116.666 -104 -213.999 -104c-96 0 -175 34 -237 102c-62.667 66.667 -94 157 -94 271c0 112.667 31 202.667 93 270c60.667 66.667 142.334 100 245.001 100c84 0 152.667 -20.333 206 -61
s85.666 -97 96.999 -169l-118 -8c-8 42.667 -27.833 75.5 -59.5 98.5s-71.5 34.5 -119.5 34.5c-70 0 -124.5 -23.667 -163.5 -71s-58.5 -112.333 -58.5 -195c0 -82 19.333 -147.333 58 -196c39.333 -49.333 92.666 -74 159.999 -74c54 0 98.833 16 134.5 48
s57.834 76.667 66.501 134v12h-193v103h270z" />
    <glyph glyph-name="H" unicode="H" horiz-adv-x="718" 
d="M522 428v284h121v-712h-121v321h-326v-321h-121v712h121v-284h326z" />
    <glyph glyph-name="I" unicode="I" horiz-adv-x="271" 
d="M196 0h-121v712h121v-712z" />
    <glyph glyph-name="J" unicode="J" horiz-adv-x="561" 
d="M430 41c-36.667 -36.667 -90 -55.002 -160 -55.002c-68.667 0 -122.667 18.667 -162 56c-38.667 36.667 -58 88.334 -58 155.001v58h117v-56c0 -71.333 34 -107 102 -107c64 0 96 35.667 96 107v513h121v-514c0 -67.333 -18.667 -119.666 -56 -156.999z" />
    <glyph glyph-name="K" unicode="K" horiz-adv-x="703" 
d="M686 0h-151l-247 346l-92 -91v-255h-121v712h121v-311l306 311h157l-285 -286z" />
    <glyph glyph-name="L" unicode="L" horiz-adv-x="584" 
d="M196 712v-605h359v-107h-480v712h121z" />
    <glyph glyph-name="M" unicode="M" horiz-adv-x="852" 
d="M455 232l151 480h171v-712h-112v367l10 238l-50 -169l-136 -436h-121l-144 447l-48 162l10 -242v-367h-111v712h170l156 -480l27 -107z" />
    <glyph glyph-name="N" unicode="N" horiz-adv-x="720" 
d="M527 192v520h118v-712h-126l-326 518v-518h-118v712h124z" />
    <glyph glyph-name="O" unicode="O" horiz-adv-x="773" 
d="M385 -20c-98 0 -178.332 34.999 -240.999 104.999c-63.333 69.333 -95 160 -95 272c0 110 31.667 199.333 95 268c63.333 68 143.666 102 240.999 102c98.667 0 180 -34 244 -102c63.333 -69.333 95 -158.666 95 -267.999c0 -112 -31.667 -202.667 -95 -272
c-64 -70 -145.333 -105 -244 -105zM386.001 85.999c64.667 0 117 24.667 157 74c39.333 49.333 59 115 59 197c0 78.667 -19.667 142.667 -59 192c-40 48 -92.333 72 -157 72c-65.333 0 -117.333 -24 -156 -72c-39.333 -49.333 -59 -113.333 -59 -192
c0 -82 19.667 -147.667 59 -197s91.333 -74 156 -74z" />
    <glyph glyph-name="P" unicode="P" horiz-adv-x="630" 
d="M75 712h288c74.667 0 133 -18.833 175 -56.5s63 -91.167 63 -160.5c0 -71.333 -21.5 -126.333 -64.5 -165s-103.5 -58 -181.5 -58h-159v-272h-121v712zM196 375h153c42.667 0 75.667 10.333 99 31s35 50 35 88c0 37.333 -11.333 65.833 -34 85.5s-54 29.5 -94 29.5h-159
v-234z" />
    <glyph glyph-name="Q" unicode="Q" horiz-adv-x="770" 
d="M724 356c0 -108.667 -30.666 -197.666 -91.999 -266.999l91 -72l-64 -75l-95 89c-53.333 -34 -113 -51 -179 -51c-98 0 -178.333 35 -241 105c-63.333 69.333 -95 159.666 -95 270.999c0 110 31.667 199.667 95 269c63.333 68 143.666 102 240.999 102
c98.667 0 180 -34 244 -102c63.333 -69.333 95 -159 95 -269zM171.001 356.001c0 -81.333 19.666 -146.667 58.999 -196s91.333 -74 156 -74c30.667 0 60.334 6.66699 89.001 20l-73 56l65 76l78 -75c38 49.333 57 113.666 57 192.999c0 78.667 -20 142.667 -60 192
c-40 48.667 -92 73 -156 73c-65.333 0 -117.333 -24 -156 -72c-39.333 -49.333 -59 -113.666 -59 -192.999z" />
    <glyph glyph-name="R" unicode="R" horiz-adv-x="696" 
d="M603 226l28 -226.002h-124l-19 186c-3.33301 38 -14 65 -32 81s-46.667 24 -86 24h-174v-291h-121v712h331c71.333 0 126 -17.333 164 -52s57 -81.334 57 -140.001c0 -45.333 -11.333 -83.166 -34 -113.499s-55 -51.166 -97 -62.499
c63.333 -13.333 99 -52.666 107 -117.999zM196 391.998h172.998c44.667 0 78.834 10 102.501 30s35.5 47.667 35.5 83c0 32.667 -10.167 58.167 -30.5 76.5s-50.166 27.5 -89.499 27.5h-191v-217z" />
    <glyph glyph-name="S" unicode="S" horiz-adv-x="665" 
d="M341 -19c-90.667 0 -161.501 20.999 -212.501 62.999s-78.833 102.667 -83.5 182h118c7.33301 -97.333 67 -146 179 -146c50 0 88.5 9.5 115.5 28.5s40.5 45.833 40.5 80.5c0 28 -10 50.333 -30 67s-53 30 -99 40l-116 27c-124.667 28.667 -187 92.667 -187 192
c0 60.667 22.667 111.667 68 153c44.667 40 108.334 60 191.001 60c82 0 147.667 -20 197 -60s76.666 -95 81.999 -165h-117c-4.66699 40 -21.167 71 -49.5 93s-66.166 33 -113.499 33c-43.333 0 -77.333 -9.16699 -102 -27.5s-37 -43.166 -37 -74.499
c0 -47.333 34.333 -78.333 103 -93l134 -31c132.667 -30.667 199 -98.667 199 -204c0 -66.667 -24.5 -119.667 -73.5 -159s-117.833 -59 -206.5 -59z" />
    <glyph glyph-name="T" unicode="T" horiz-adv-x="627" 
d="M27 712h572v-107h-225v-605h-121v605h-226v107z" />
    <glyph glyph-name="U" unicode="U" horiz-adv-x="701" 
d="M554 43c-49.333 -42 -117.333 -63 -204 -63c-87.333 0 -155 21 -203 63s-72 101.667 -72 179v490h121v-493c0 -88.667 51.667 -133 155 -133c102.667 0 154 44.333 154 133v493h121v-490c0 -77.333 -24 -137 -72 -179z" />
    <glyph glyph-name="V" unicode="V" horiz-adv-x="676" 
d="M388 306l132 406h128l-248 -712h-124l-249 712h131l134 -406l48 -172z" />
    <glyph glyph-name="W" unicode="W" horiz-adv-x="963" 
d="M709 322l103 390h124l-203 -712h-116l-137 556l-136 -556h-117l-200 712h127l99 -390l34 -151l34 151l97 390h126l96 -390l33 -151z" />
    <glyph glyph-name="X" unicode="X" horiz-adv-x="682" 
d="M638 712l-229 -338l246 -374h-143l-141 235l-27 55l-30 -56l-144 -234h-143l253 375l-226 337h141l121 -197l30 -57l29 56l126 198h137z" />
    <glyph glyph-name="Y" unicode="Y" horiz-adv-x="670" 
d="M373 456l144 256h133l-252 -428v-284h-121v284l-258 428h138l145 -256l36 -77z" />
    <glyph glyph-name="Z" unicode="Z" horiz-adv-x="678" 
d="M618 617l-413 -512h420v-105h-573v103l407 504h-381v105h540v-95z" />
    <glyph glyph-name="bracketleft" unicode="[" horiz-adv-x="339" 
d="M301 -204h-226v951h226v-95h-114v-761h114v-95z" />
    <glyph glyph-name="backslash" unicode="\" horiz-adv-x="484" 
d="M449 0h-118l-296 712h118z" />
    <glyph glyph-name="bracketright" unicode="]" horiz-adv-x="339" 
d="M264 -204h-226v95h114v761h-114v95h226v-951z" />
    <glyph glyph-name="asciicircum" unicode="^" 
d="M274 712h118l184 -516h-121l-75 225c-14.667 48 -30 107 -46 177c-18 -70 -34 -129 -48 -177l-70 -225h-121z" />
    <glyph glyph-name="underscore" unicode="_" horiz-adv-x="500" 
d="M500 -154h-500v79h500v-79z" />
    <glyph glyph-name="grave" unicode="`" horiz-adv-x="500" 
d="M359 576h-88l-129 148h149z" />
    <glyph glyph-name="a" unicode="a" horiz-adv-x="562" 
d="M514 0h-118.001c-6.66699 27.333 -11 47.333 -13 60c-39.333 -49.333 -95.666 -74 -168.999 -74c-54 0 -96.833 13.833 -128.5 41.5s-47.5 65.167 -47.5 112.5c0 86.667 55.333 139.334 166 158.001l161 27c2.66699 0.666992 7.33398 2 14.001 4v45
c0 45.333 -34 68 -102 68c-32.667 0 -57.334 -6.33301 -74.001 -19s-26.667 -33 -30 -61l-110 1c10 110.667 82.333 166 217 166c142 0 213 -59.333 213 -178v-232c0 -38.667 7 -78.334 21 -119.001zM242.999 74c38.667 0 71 11.334 97 34.001s39 51 39 85v54l-143 -25
c-55.333 -10 -83 -35.333 -83 -76c0 -22.667 8 -40.334 24 -53.001s38 -19 66 -19z" />
    <glyph glyph-name="b" unicode="b" horiz-adv-x="597" 
d="M340 528c62.667 0 114.667 -23.667 156 -71c40.667 -47.333 61 -111.333 61 -192c0 -82.667 -20.333 -149.667 -61 -201c-40.667 -52 -95 -78 -163 -78c-69.333 0 -122 28.667 -158 86l-2 -72h-103v712h117v-253c35.333 46 86.333 69 153 69zM313 88
c38.667 0 69.833 16.168 93.5 48.501s35.5 75.166 35.5 128.499c0 51.333 -11.5 91.666 -34.5 120.999s-54.5 44 -94.5 44c-39.333 0 -71 -14.667 -95 -44c-24.667 -29.333 -37 -70.666 -37 -123.999s12.333 -95.333 37 -126c24 -32 55.667 -48 95 -48z" />
    <glyph glyph-name="c" unicode="c" horiz-adv-x="552" 
d="M285 -15c-76 0 -135.667 24 -179 72s-65 114 -65 198c0 84.667 22 151.5 66 200.5s104 73.5 180 73.5c63.333 0 115 -16.333 155 -49s64.667 -79 74 -139h-113c-14.667 62.667 -52.667 94 -114 94c-43.333 0 -76.333 -15.167 -99 -45.5s-34 -74.5 -34 -132.5
c0 -56.667 11.5 -100.5 34.5 -131.5s55.5 -46.5 97.5 -46.5c62 0 100.333 33.333 115 100h113c-10 -62 -35 -109.833 -75 -143.5s-92 -50.5 -156 -50.5z" />
    <glyph glyph-name="d" unicode="d" horiz-adv-x="598" 
d="M411 459v253h117v-712h-103l-2 73c-36 -58 -88.667 -87 -158 -87c-66.667 0 -120.667 25.667 -162 77s-62 118 -62 200c0 80 20.333 144.333 61 193c41.333 48 93.333 72 156 72c66.667 0 117.667 -23 153 -69zM285 88c38.667 0 70.333 16 95 48s37 74 37 126
c0 52.667 -12 94 -36 124c-25.333 29.333 -57.333 44 -96 44c-39.333 0 -70.666 -14.667 -93.999 -44s-35 -70.333 -35 -123c0 -53.333 11.667 -95.833 35 -127.5s54.666 -47.5 93.999 -47.5z" />
    <glyph glyph-name="e" unicode="e" horiz-adv-x="581" 
d="M541 255l0.000976562 -29.001h-381c2.66699 -47.333 16.167 -83.833 40.5 -109.5s57.166 -38.5 98.499 -38.5c59.333 0 99.333 28 120 84l112 -10c-16 -54 -44.167 -95.333 -84.5 -124s-89.5 -43 -147.5 -43c-80 0 -143 25.667 -189 77c-46 50.667 -69 116.667 -69 198
c0 78.667 22.333 143.334 67 194.001c45.333 50 106 75 182 75c75.333 0 136 -24.333 182 -73c46 -49.333 69 -116.333 69 -201zM383.001 404.999c-22.667 22.667 -52.667 34 -90 34c-38 0 -68.333 -11.333 -91 -34c-24 -23.333 -37.667 -56 -41 -98h263
c-5.33301 43.333 -19 76 -41 98z" />
    <glyph glyph-name="f" unicode="f" horiz-adv-x="347" 
d="M329 617h-45c-22.667 0 -38.667 -4.83301 -48 -14.5s-14 -25.5 -14 -47.5v-42l107 3v-88l-107 4v-432h-117v431l-78 -3v88l78 -3v39c0 106.667 53.333 160 160 160h64v-95z" />
    <glyph glyph-name="g" unicode="g" horiz-adv-x="600" 
d="M423 443l2.00293 73.001h106v-511c0 -72.667 -21.333 -127.667 -64 -165s-102.667 -56 -180 -56c-68 0 -121.5 13.833 -160.5 41.5s-61.5 68.167 -67.5 121.5h110c10 -49.333 49 -74 117 -74c45.333 0 78.166 10.167 98.499 30.5s30.5 52.5 30.5 96.5v68
c-36 -48.667 -86.333 -73 -151 -73c-66.667 0 -120.334 25.333 -161.001 76c-41.333 50.667 -62 116 -62 196c0 79.333 20.667 142.666 62 189.999s94.666 71 159.999 71c72.667 0 126 -28.333 160 -85zM285.003 95.001c38.667 0 70.333 15.666 95 46.999
s37 72.666 37 123.999c0 52.667 -12 93.334 -36 122.001c-25.333 29.333 -57.333 44 -96 44c-39.333 0 -70.666 -14.667 -93.999 -44s-35 -69.666 -35 -120.999c0 -52.667 11.667 -94.5 35 -125.5s54.666 -46.5 93.999 -46.5z" />
    <glyph glyph-name="h" unicode="h" horiz-adv-x="586" 
d="M344 529c54 0 96.168 -15.668 126.501 -47.001s45.5 -74.666 45.5 -129.999v-352h-117v327c0 65.333 -29.667 98 -89 98c-36.667 0 -66.334 -12.5 -89.001 -37.5s-34 -60.5 -34 -106.5v-281h-117v712h117v-263c36 53.333 88.333 80 157 80z" />
    <glyph glyph-name="i" unicode="i" horiz-adv-x="257" 
d="M187 598h-117v114h117v-114zM187 0h-117v516h117v-516z" />
    <glyph glyph-name="j" unicode="j" horiz-adv-x="257" 
d="M187 598h-117v114h117v-114zM41 -204l-59 0.000976562v101h30c22 0 37.167 3.83301 45.5 11.5s12.5 21.5 12.5 41.5v566h117v-570c0 -52.667 -11.5 -90.834 -34.5 -114.501s-60.167 -35.5 -111.5 -35.5z" />
    <glyph glyph-name="k" unicode="k" horiz-adv-x="568" 
d="M544 0h-138l-156 247l-63 -61v-186h-117v712h117v-402l201 206h147l-204 -197z" />
    <glyph glyph-name="l" unicode="l" horiz-adv-x="257" 
d="M187 0h-117v712h117v-712z" />
    <glyph glyph-name="m" unicode="m" horiz-adv-x="865" 
d="M634 529c52 0 91.999 -15.668 119.999 -47.001s42 -75.666 42 -132.999v-349h-117v335c0 28 -6.83301 50 -20.5 66s-33.167 24 -58.5 24c-32.667 0 -59 -12.5 -79 -37.5s-30 -61.5 -30 -109.5v-278h-117v335c0 28 -6.83301 50 -20.5 66s-33.167 24 -58.5 24
c-32 0 -58 -12.833 -78 -38.5s-30 -62.5 -30 -110.5v-276h-117v516h113l-1 -72c32.667 56.667 82.334 85 149.001 85c72.667 0 121 -30.667 145 -92c33.333 61.333 86 92 158 92z" />
    <glyph glyph-name="n" unicode="n" horiz-adv-x="586" 
d="M344 529c54 0 96.168 -15.668 126.501 -47.001s45.5 -74.666 45.5 -129.999v-352h-117v327c0 65.333 -29.667 98 -89 98c-36.667 0 -66.334 -12.5 -89.001 -37.5s-34 -60.5 -34 -106.5v-281h-117v516h112l2 -72c36 56.667 89.333 85 160 85z" />
    <glyph glyph-name="o" unicode="o" horiz-adv-x="594" 
d="M482 62c-48 -51.333 -109.666 -76.999 -184.999 -76.999c-76 0 -137.333 25.333 -184 76c-48 51.333 -72 116.666 -72 195.999c0 80.667 24 146.334 72 197.001c48 50 110 75 186 75c75.333 0 136.666 -25 183.999 -75c47.333 -50.667 71 -115.667 71 -195
c0 -80.667 -24 -146.334 -72 -197.001zM297.001 79.001c44 0 78.834 16.332 104.501 48.999s38.5 76.334 38.5 131.001s-12.667 97.667 -38 129s-60.333 47 -105 47c-44 0 -78.5 -16 -103.5 -48s-37.5 -75.333 -37.5 -130c0 -54 12.667 -97.167 38 -129.5
s59.666 -48.5 102.999 -48.5z" />
    <glyph glyph-name="p" unicode="p" horiz-adv-x="597" 
d="M340 528c62.667 0 114.667 -23.667 156 -71c40.667 -47.333 61 -111.333 61 -192c0 -82.667 -20.333 -149.667 -61 -201c-40.667 -52 -95 -78 -163 -78c-62 0 -110.667 23 -146 69v-259h-117v720h103l2 -74c35.333 57.333 90.333 86 165 86zM313 88
c38.667 0 69.833 16.168 93.5 48.501s35.5 75.166 35.5 128.499c0 51.333 -11.5 91.666 -34.5 120.999s-54.5 44 -94.5 44c-39.333 0 -71 -14.667 -95 -44c-24.667 -29.333 -37 -70.666 -37 -123.999s12.333 -95.333 37 -126c24 -32 55.667 -48 95 -48z" />
    <glyph glyph-name="q" unicode="q" horiz-adv-x="598" 
d="M423 442l2 74h103v-716h-117v256c-36 -46.667 -84.667 -70 -146 -70c-66.667 0 -120.667 25.667 -162 77s-62 118 -62 200c0 80 20.333 144.333 61 193c41.333 48 93.333 72 156 72c74.667 0 129.667 -28.667 165 -86zM285 88c38.667 0 70.333 16 95 48s37 74 37 126
c0 52.667 -12 94 -36 124c-25.333 29.333 -57.333 44 -96 44c-39.333 0 -70.666 -14.667 -93.999 -44s-35 -70.333 -35 -123c0 -53.333 11.667 -95.833 35 -127.5s54.666 -47.5 93.999 -47.5z" />
    <glyph glyph-name="r" unicode="r" horiz-adv-x="373" 
d="M323 532c11.333 0 22.333 -1 33 -3v-111c-20 1.33301 -30.333 2 -31 2c-41.333 0 -74.5 -13.5 -99.5 -40.5s-37.833 -64.833 -38.5 -113.5v-266h-117v516h112l-2 -94c27.333 73.333 75 110 143 110z" />
    <glyph glyph-name="s" unicode="s" horiz-adv-x="523" 
d="M266 -16c-68 0 -120.998 14.832 -158.998 44.499s-60 72.834 -66 129.501l109 3c8 -60.667 48 -91 120 -91c34 0 60.5 6 79.5 18s28.5 29 28.5 51c0 32 -24.667 53 -74 63l-103 21c-98 20.667 -147 69.334 -147 146.001c0 48.667 18 87.5 54 116.5s85 43.5 147 43.5
s112 -14.333 150 -43s60.333 -69 67 -121l-109 -3c-8.66699 54 -45.334 81 -110.001 81c-28.667 0 -51 -5.33301 -67 -16s-24 -26 -24 -46c0 -30 23 -50 69 -60l106 -22c52 -11.333 90.167 -29 114.5 -53s36.5 -55.333 36.5 -94c0 -52.667 -19.833 -93.834 -59.5 -123.501
s-93.834 -44.5 -162.501 -44.5z" />
    <glyph glyph-name="t" unicode="t" horiz-adv-x="349" 
d="M324 428l-106 4v-287c0 -18.667 3.66699 -31.667 11 -39s20 -11 38 -11h57v-95h-93c-46 0 -79.167 10.167 -99.5 30.5s-30.5 53.5 -30.5 99.5v301l-74 -3v88l74 -3v162h117v-162l106 3v-88z" />
    <glyph glyph-name="u" unicode="u" horiz-adv-x="586" 
d="M399 235l-0.000976562 281.001h117v-516h-112l-2 72c-36 -56.667 -89.333 -85 -160 -85c-54 0 -96.167 15.667 -126.5 47s-45.5 74.666 -45.5 129.999v352h117v-327c0 -65.333 29.667 -98 89 -98c36.667 0 66.334 12.5 89.001 37.5s34 60.5 34 106.5z" />
    <glyph glyph-name="v" unicode="v" horiz-adv-x="521" 
d="M311 291l72 225h118l-179 -516h-118l-184 516h124l73 -225l48 -187z" />
    <glyph glyph-name="w" unicode="w" horiz-adv-x="775" 
d="M562 253l71 263h122l-161 -516h-113l-74 297l-19 100l-20 -100l-76 -297h-114l-158 516h124l69 -263l27 -130l26 130l66 263h113l65 -262l26 -130z" />
    <glyph glyph-name="x" unicode="x" horiz-adv-x="556" 
d="M341 274l195 -274h-139l-117 190l-125 -190h-135l201 273l-176 243h137l100 -161l103 161h131z" />
    <glyph glyph-name="y" unicode="y" horiz-adv-x="548" 
d="M276 124l129.001 392.001h123l-223 -612c-14 -40.667 -31.833 -68.834 -53.5 -84.501s-51.834 -23.5 -90.501 -23.5h-89v99h59c22 0 38.667 4 50 12s21 22.667 29 44l14 38l-204 527h128l114 -322z" />
    <glyph glyph-name="z" unicode="z" horiz-adv-x="508" 
d="M459 430l-282 -335h296v-95h-438v89l282 332h-260v95h402v-86z" />
    <glyph glyph-name="braceleft" unicode="{" horiz-adv-x="391" 
d="M353 -204h-97c-78.667 0 -118 40.333 -118 121v215c0 62.667 -33.667 94.667 -101 96v90c67.333 1.33301 101 34 101 98v209c0 38.667 10.333 68.667 31 90s49.667 32 87 32h97v-95h-51c-34.667 0 -52 -18.333 -52 -55v-189c0 -79.333 -35.667 -124 -107 -134v-2
c71.333 -11.333 107 -56 107 -134v-193c0 -36.667 17.333 -55 52 -55h51v-94z" />
    <glyph glyph-name="bar" unicode="|" horiz-adv-x="267" 
d="M192 -204h-117v951h117v-951z" />
    <glyph glyph-name="braceright" unicode="}" horiz-adv-x="391" 
d="M134 -204l-97 0.000976562v94h51c35.333 0 53 18.333 53 55v193c0 78 35.667 122.667 107 134v2c-71.333 10 -107 54.667 -107 134v189c0 36.667 -17.333 55 -52 55h-52v95h97c37.333 0 66.5 -10.667 87.5 -32s31.5 -51.333 31.5 -90v-209c0 -33.333 8 -57.833 24 -73.5
s41.333 -23.834 76 -24.501v-90c-34.667 -0.666992 -60 -8.66699 -76 -24s-24 -39.333 -24 -72v-215c0 -80.667 -39.667 -121 -119 -121z" />
    <glyph glyph-name="asciitilde" unicode="~" 
d="M175 241l-100 -0.00390625c0 124 48.333 186 145 186c25.333 0.666992 53 -5.66602 83 -18.999s57.5 -26.666 82.5 -39.999s44.167 -19.666 57.5 -18.999c34.667 0 52 26 52 78h101c0 -61.333 -12.667 -107.666 -38 -138.999s-61.333 -47 -108 -47
c-44 0 -85.333 13.333 -124 40c-40 26 -72.667 39 -98 39c-35.333 0 -53 -26.333 -53 -79z" />
    <glyph glyph-name="uni00A0" unicode="&#xa0;" horiz-adv-x="260" 
 />
    <glyph glyph-name="exclamdown" unicode="&#xa1;" horiz-adv-x="278" 
d="M203 390h-128v126h128v-126zM199 -200h-121v194l33 320h56l32 -320v-194z" />
    <glyph glyph-name="cent" unicode="&#xa2;" 
d="M345 79c62 0 100.333 33.334 115 100.001h113c-8.66699 -53.333 -28.5 -96.333 -59.5 -129s-71.833 -53 -122.5 -61v-133h-95v132c-62 9.33301 -110.5 37.333 -145.5 84s-52.5 107.667 -52.5 183s17.5 136.666 52.5 183.999s83.5 76 145.5 86v141h95v-140
c50 -7.33301 90.667 -27 122 -59s51.333 -74 60 -126h-113c-14.667 62.667 -52.667 94 -114 94c-43.333 0 -76.333 -15.167 -99 -45.5s-34 -74.5 -34 -132.5c0 -56.667 11.5 -100.5 34.5 -131.5s55.5 -46.5 97.5 -46.5z" />
    <glyph glyph-name="sterling" unicode="&#xa3;" 
d="M324 103l290.001 0.00292969v-103h-557v103h35c58.667 0 105.167 11.833 139.5 35.5s51.5 53.5 51.5 89.5c0 21.333 -6.66699 40.666 -20 57.999l-206 -5v101l133 -4c-56 42.667 -84 93.667 -84 153c0 55.333 20.667 102 62 140c41.333 37.333 100.333 56 177 56
c77.333 0 138.666 -20 183.999 -60c44.667 -40.667 69 -92.667 73 -156h-118c-3.33301 36 -16.833 64 -40.5 84s-54.5 30 -92.5 30s-68.167 -9.33301 -90.5 -28s-33.5 -44.334 -33.5 -77.001c0 -44 33 -91.667 99 -143l218 5v-101l-154 5c8.66699 -16.667 13 -35 13 -55
c0 -52.667 -26.333 -95.334 -79 -128.001z" />
    <glyph glyph-name="currency" unicode="&#xa4;" 
d="M644 594l-96 -92c26.667 -40.667 40 -88.334 40 -143.001s-13.333 -102.334 -40 -143.001l96 -92l-74 -73l-92 96c-40.667 -26.667 -88.334 -40 -143.001 -40c-52.667 0 -100.334 13.333 -143.001 40l-92 -96l-73 73l96 92c-27.333 42.667 -41 90.334 -41 143.001
s13.667 100.334 41 143.001l-96 92l73 73l92 -96c42.667 26.667 90.334 40 143.001 40c54.667 0 102.334 -13.333 143.001 -40l92 96zM225 245c26.667 -28.667 63.334 -43 110.001 -43c46 0 83 14.333 111 43c27.333 29.333 41 67.333 41 114s-13.667 84.667 -41 114
c-28 28.667 -65 43 -111 43c-46.667 0 -83.334 -14.333 -110.001 -43c-27.333 -29.333 -41 -67.333 -41 -114s13.667 -84.667 41 -114z" />
    <glyph glyph-name="yen" unicode="&#xa5;" 
d="M518 712h133l-199 -337h149v-95h-203v-82h203v-95h-203v-103h-121v103h-203v95h203v82h-203v95h148l-202 337h138l145 -256l35 -77l36 77z" />
    <glyph glyph-name="brokenbar" unicode="&#xa6;" horiz-adv-x="267" 
d="M192 411h-117v336h117v-336zM192 -204h-117v336h117v-336z" />
    <glyph glyph-name="section" unicode="&#xa7;" horiz-adv-x="618" 
d="M569 295c0 -66 -31.3359 -114.999 -94.0029 -146.999c25.333 -29.333 38 -64.333 38 -105c0 -50.667 -18.667 -90.834 -56 -120.501s-87.666 -44.5 -150.999 -44.5c-62 0 -111.333 14.667 -148 44s-58 70.666 -64 123.999l108 4c8 -56.667 44 -85 108 -85
c30 0 53.333 6.16699 70 18.5s25 30.166 25 53.499c0 38 -26.667 64.667 -80 80l-120 32c-104 28.667 -156 87 -156 175c0 66 31.333 115 94 147c-25.333 29.333 -38 64 -38 104c0 50.667 18.833 91 56.5 121s87.834 45 150.501 45s112.334 -14.667 149.001 -44
s58 -70.666 64 -123.999l-109 -4c-8 56.667 -43.667 85 -107 85c-30 0 -53.5 -6.16699 -70.5 -18.5s-25.5 -30.166 -25.5 -53.499c0 -38 26.667 -64.667 80 -80l120 -33c104 -28 156 -86 156 -174zM242.997 242.001l130 -36.001c10.667 -2.66699 18 -5 22 -7
c46 16.667 69 45.334 69 86.001c0 45.333 -29.667 76 -89 92l-130 36c-10.667 2.66699 -18 5 -22 7c-46 -17.333 -69 -46 -69 -86c0 -45.333 29.667 -76 89 -92z" />
    <glyph glyph-name="dieresis" unicode="&#xa8;" horiz-adv-x="500" 
d="M202 598h-117v114h117v-114zM415 598h-117v114h117v-114z" />
    <glyph glyph-name="copyright" unicode="&#xa9;" horiz-adv-x="851" 
d="M425 -16c-108.667 0 -198.333 35.333 -269 106c-71.333 70 -107 158.667 -107 266c0 108.667 35.333 198 106 268c71.333 70 161.333 105 270 105c110 0 200.333 -35 271 -105s106 -159.333 106 -268c0 -107.333 -35.333 -196 -106 -266
c-70.667 -70.667 -161 -106 -271 -106zM425.001 60c86 0 156.332 28 210.999 84c54.667 54.667 82 125.667 82 213c0 86.667 -27.333 157.667 -82 213c-55.333 55.333 -125.666 83 -210.999 83c-84.667 0 -154.667 -27.667 -210 -83c-55.333 -56.667 -83 -127.667 -83 -213
c0 -86.667 27.667 -157.667 83 -213c55.333 -56 125.333 -84 210 -84zM427 169c-52 0 -92.999 16.5 -122.999 49.5s-45 79.167 -45 138.5s14.833 105.5 44.5 138.5s70.834 49.5 123.501 49.5c83.333 0 134.666 -36.667 153.999 -110l-78 -15c-11.333 34 -36.333 51 -75 51
c-56.667 0 -85 -38 -85 -114c0 -75.333 28.333 -113 85 -113c39.333 0 64.666 17.667 75.999 53l77 -16c-20 -74.667 -71.333 -112 -154 -112z" />
    <glyph glyph-name="ordfeminine" unicode="&#xaa;" horiz-adv-x="495" 
d="M252 725c60.667 0 104.667 -11.001 132 -33.001s41 -56 41 -102v-218h-86l-7 39c-33.333 -31.333 -77 -47 -131 -47c-41.333 0 -73.5 9.83301 -96.5 29.5s-34.5 45.834 -34.5 78.501c0 29.333 10 52.833 30 70.5s49.667 28.167 89 31.5l139 12v15
c0 36.667 -25.333 55 -76 55c-43.333 0 -70 -12 -80 -36l-91 22c22 55.333 79 83 171 83zM226 433.999c28.667 0 52.833 6.83203 72.5 20.499s29.5 29.834 29.5 48.501v26l-103 -9c-38 -2.66699 -57 -17.667 -57 -45s19.333 -41 58 -41z" />
    <glyph glyph-name="guillemotleft" unicode="&#xab;" horiz-adv-x="699" 
d="M331 124v-134l-261 213v108l261 213v-134l-166 -133zM629 124v-134l-261 213v108l261 213v-134l-166 -133z" />
    <glyph glyph-name="logicalnot" unicode="&#xac;" 
d="M596 117h-105v193h-416v100h521v-293z" />
    <glyph glyph-name="uni00AD" unicode="&#xad;" horiz-adv-x="380" 
d="M330 215h-280v103h280v-103z" />
    <glyph glyph-name="registered" unicode="&#xae;" horiz-adv-x="612" 
d="M124 655c49.333 48 110.001 72 182.001 72s133 -24 183 -72c49.333 -48 74 -107 74 -177s-24.667 -129 -74 -177c-50 -48 -111 -72 -183 -72c-72.667 0 -133.334 24.333 -182.001 73c-50 48 -75 106.667 -75 176s25 128.333 75 177zM164.001 339
c38.667 -37.333 86 -56 142 -56s103.333 18.667 142 56c38 36.667 57 83 57 139s-19 102.333 -57 139c-38.667 37.333 -86 56 -142 56s-103.333 -18.667 -142 -56c-38 -36.667 -57 -83 -57 -139s19 -102.333 57 -139zM411.001 422l2 -36.001c1.33301 -14 5 -25.333 11 -34
h-63c-4.66699 6.66699 -7.66699 18 -9 34l-2 27c-0.666992 12.667 -3.33398 21.334 -8.00098 26.001s-12.667 7 -24 7h-51v-94h-61v256h118c28.667 0 51.334 -6.5 68.001 -19.5s25 -31.167 25 -54.5c0 -27.333 -12.333 -47 -37 -59c18.667 -8 29 -25.667 31 -53z
M267.001 556.999v-61h53c22 0 33 10 33 30c0 20.667 -11.667 31 -35 31h-51z" />
    <glyph glyph-name="overscore" unicode="&#xaf;" horiz-adv-x="500" 
d="M421 609h-342v88h342v-88z" />
    <glyph glyph-name="degree" unicode="&#xb0;" horiz-adv-x="440" 
d="M220 379c-51.333 0 -94 17 -128 51s-51 77 -51 129c0 51.333 17 94 51 128s76.667 51 128 51c52 0 95 -17 129 -51s51 -76.667 51 -128s-16.667 -94.333 -50 -129c-34 -34 -77.333 -51 -130 -51zM220 461c28.667 0 51.834 9.16699 69.501 27.5s26.5 41.833 26.5 70.5
s-8.83301 52 -26.5 70s-40.834 27 -69.501 27c-27.333 0 -50 -9 -68 -27s-27 -41.333 -27 -70s9 -52.167 27 -70.5s40.667 -27.5 68 -27.5z" />
    <glyph glyph-name="plusminus" unicode="&#xb1;" 
d="M388 601v-165h220v-100h-220v-165h-105v165h-220v100h220v165h105zM603 -12h-535v101h535v-101z" />
    <glyph glyph-name="two.sups" unicode="&#xb2;" horiz-adv-x="432" 
d="M381 372h-330.002c0 47.333 7.5 85.666 22.5 114.999s39.5 53.333 73.5 72l91 47c36 18.667 54 41 54 67c0 18 -6.5 32.333 -19.5 43s-31.5 16 -55.5 16c-26 0 -44.667 -5.66699 -56 -17s-17.666 -29.333 -18.999 -54h-88c1.33301 46.667 16 82.834 44 108.501
s67.667 38.5 119 38.5c50.667 0 90.834 -12 120.501 -36s44.5 -56.667 44.5 -98c0 -52.667 -31.333 -95 -94 -127l-77 -40c-18.667 -10 -32 -19 -40 -27s-13 -17.667 -15 -29h225v-79z" />
    <glyph glyph-name="three.sups" unicode="&#xb3;" horiz-adv-x="446" 
d="M224 356c-54 0 -96.334 12.667 -127.001 38s-46.667 61 -48 107h89c2 -46.667 30.667 -70 86 -70c54.667 0 82 20 82 60c0 38.667 -28 58 -84 58h-37v77h39c46.667 0 70 17.333 70 52c0 36.667 -25.333 55 -76 55c-48.667 0 -74.667 -19.667 -78 -59h-88
c0.666992 42 15.834 74.833 45.501 98.5s69.834 35.5 120.501 35.5c51.333 0 91.666 -11 120.999 -33s44 -51.333 44 -88c0 -22.667 -6.16699 -42.167 -18.5 -58.5s-29.5 -27.5 -51.5 -33.5v-2c26 -6.66699 46.5 -19.334 61.5 -38.001s22.5 -41 22.5 -67
c0 -39.333 -15.667 -71.166 -47 -95.499s-73.333 -36.5 -126 -36.5z" />
    <glyph glyph-name="acute" unicode="&#xb4;" horiz-adv-x="500" 
d="M230 576h-88l67 148h150z" />
    <glyph glyph-name="uni00B5" unicode="&#xb5;" horiz-adv-x="586" 
d="M187 -204h-117v720h117v-323c0 -68 29.667 -102 89 -102c36.667 0 66.334 12.5 89.001 37.5s34 60.5 34 106.5v281h117v-516h-113v73c-28.667 -56.667 -77.334 -85 -146.001 -85c-36 0 -66.333 9.66699 -91 29l-2 -2l23 -125v-94z" />
    <glyph glyph-name="paragraph" unicode="&#xb6;" horiz-adv-x="632" 
d="M347 -103h-100v446c-69.333 0 -123 16 -161 48s-57 77 -57 135c0 124 75.333 186 226 186h302v-815h-100v715h-110v-715z" />
    <glyph glyph-name="middot" unicode="&#xb7;" horiz-adv-x="345" 
d="M237 293h-128v126h128v-126z" />
    <glyph glyph-name="cedilla" unicode="&#xb8;" horiz-adv-x="500" 
d="M203 -249h-40v60h30c38.667 0 58 11.333 58 34c0 19.333 -11.667 29 -35 29h-32l-32 49l49 77h65l-39 -59h16c30.667 0 55 -7.66699 73 -23s27 -37 27 -65c0 -32 -12.5 -57 -37.5 -75s-59.167 -27 -102.5 -27z" />
    <glyph glyph-name="one.sups" unicode="&#xb9;" horiz-adv-x="298" 
d="M228 372h-89v286h-104v67h32c23.333 0 42.333 5.5 57 16.5s22.667 25.833 24 44.5l1 13h79v-427z" />
    <glyph glyph-name="ordmasculine" unicode="&#xba;" horiz-adv-x="463" 
d="M233 364c-58.667 0 -105.334 16.333 -140.001 49s-52 76.667 -52 132c0 54.667 17.333 98.334 52 131.001s81.334 49 140.001 49c58 0 104.167 -16.333 138.5 -49s51.5 -76.334 51.5 -131.001c0 -55.333 -17.167 -99.333 -51.5 -132s-80.5 -49 -138.5 -49zM233 439
c28.667 0 51 9.16699 67 27.5s24 44.5 24 78.5s-8 60 -24 78s-38.333 27 -67 27c-30 0 -53.167 -9 -69.5 -27s-24.5 -44 -24.5 -78s8.16699 -60.167 24.5 -78.5s39.5 -27.5 69.5 -27.5z" />
    <glyph glyph-name="guillemotright" unicode="&#xbb;" horiz-adv-x="698" 
d="M330 203l-260 -213v134l165 133l-165 133v134l260 -213v-108zM628 203l-260 -213v134l165 133l-165 133v134l260 -213v-108z" />
    <glyph glyph-name="onequarter" unicode="&#xbc;" horiz-adv-x="1054" 
d="M268 306h-89v286h-104v67h32c23.333 0 42.333 5.5 57 16.5s22.667 25.833 24 44.5l1 13h79v-427zM312 -15h-101l448 742h99zM906 0h-86v88l-211 -3v74l200 268h97v-268l73 3v-77l-73 3v-88zM817 322l-119 -161l122 -2v163h-3z" />
    <glyph glyph-name="onehalf" unicode="&#xbd;" horiz-adv-x="1058" 
d="M268 306h-89v286h-104v67h32c23.333 0 42.333 5.5 57 16.5s22.667 25.833 24 44.5l1 13h79v-427zM312 -15h-101l448 742h99zM983 0l-329.999 -0.000976562c0 47.333 7.5 85.666 22.5 114.999s39.5 53.333 73.5 72l91 47c35.333 18 53 40.333 53 67
c0 18 -6.5 32.333 -19.5 43s-31.167 16 -54.5 16c-26 0 -44.833 -5.66699 -56.5 -17s-18.167 -29.333 -19.5 -54h-88c1.33301 46.667 16.166 82.834 44.499 108.501s68.166 38.5 119.499 38.5c50.667 0 90.834 -12 120.501 -36s44.5 -56.667 44.5 -98
c0 -53.333 -31.667 -95.666 -95 -126.999l-76 -40c-18.667 -10 -32 -18.833 -40 -26.5s-13 -17.5 -15 -29.5h225v-79z" />
    <glyph glyph-name="threequarters" unicode="&#xbe;" horiz-adv-x="1148" 
d="M371 327c-30.667 -24.667 -73.001 -36.9971 -127.001 -36.9971c-52.667 0 -94.667 12.667 -126 38c-30.667 24.667 -46.667 60.334 -48 107.001h88c2 -46.667 30.667 -70 86 -70s83 20 83 60c0 39.333 -28 59 -84 59h-37v76h38c46.667 0 70 17.333 70 52
c0 37.333 -25.333 56 -76 56c-49.333 0 -75.333 -20 -78 -60h-88c0.666992 42 15.834 74.833 45.501 98.5s69.834 35.5 120.501 35.5c51.333 0 91.666 -10.833 120.999 -32.5s44 -50.834 44 -87.501c0 -22.667 -6.16699 -42.334 -18.5 -59.001s-29.5 -28 -51.5 -34v-2
c26 -6.66699 46.5 -19.334 61.5 -38.001s22.5 -41 22.5 -67c0 -38.667 -15.333 -70.334 -46 -95.001zM410.999 -14.9971h-101l448 742h99zM1005 0.00292969h-86v88l-211 -3v74l199 268h98v-268l73 3v-77l-73 3v-88zM915.999 322.003l-119 -161l122 -2v163h-3z" />
    <glyph glyph-name="questiondown" unicode="&#xbf;" horiz-adv-x="599" 
d="M370 390h-128v126h128v-126zM304 -211c-78 0 -140 18.334 -186 55.001s-69 86.334 -69 149.001c0 67.333 32 122.666 96 165.999l48 31c23.333 15.333 38.833 30.333 46.5 45s11.5 36 11.5 64v11h111v-29c0 -38.667 -7.83301 -70.5 -23.5 -95.5
s-44.167 -50.5 -85.5 -76.5c-30 -18 -51.167 -36 -63.5 -54s-18.5 -38.333 -18.5 -61c0 -34.667 12.167 -60.834 36.5 -78.501s56.833 -26.5 97.5 -26.5c85.333 0 131.333 45 138 135h117c-3.33301 -75.333 -26.833 -133.333 -70.5 -174s-105.5 -61 -185.5 -61z" />
    <glyph glyph-name="Agrave" unicode="&#xc0;" horiz-adv-x="718" 
d="M362 920l67 -148h-87l-129 148h149zM690 0h-131l-62 178h-278l-63 -178h-129l264 712h139zM317 457l-62 -177h207l-61 177l-42 140z" />
    <glyph glyph-name="Aacute" unicode="&#xc1;" horiz-adv-x="718" 
d="M361 920h150l-129 -148h-88zM690 0h-131l-62 178h-278l-63 -178h-129l264 712h139zM317 457l-62 -177h207l-61 177l-42 140z" />
    <glyph glyph-name="Acircumflex" unicode="&#xc2;" horiz-adv-x="718" 
d="M429 777l-65 91l-65 -91h-111l119 151h114l119 -151h-111zM690 0h-131l-62 178h-278l-63 -178h-129l264 712h139zM317 457l-62 -177h207l-61 177l-42 140z" />
    <glyph glyph-name="Atilde" unicode="&#xc3;" horiz-adv-x="718" 
d="M295 855c-28 0 -42.668 -22.667 -44.001 -68h-89c0 54.667 10.667 96 32 124s51 42 89 42c20 0 39.833 -5.66699 59.5 -17s37.167 -22.666 52.5 -33.999s28 -17 38 -17c28 0 42.667 22.667 44 68h89c0 -110.667 -40.333 -166 -121 -166c-20 0 -39.667 5.66699 -59 17
s-36.666 22.666 -51.999 33.999s-28.333 17 -39 17zM689.999 0h-131l-62 178h-278l-63 -178h-129l264 712h139zM316.999 457l-62 -177h207l-61 177l-42 140z" />
    <glyph glyph-name="Adieresis" unicode="&#xc4;" horiz-adv-x="718" 
d="M199 904h117v-114h-117v114zM412 904h117v-114h-117v114zM690 0h-131l-62 178h-278l-63 -178h-129l264 712h139zM317 457l-62 -177h207l-61 177l-42 140z" />
    <glyph glyph-name="Aring" unicode="&#xc5;" horiz-adv-x="718" 
d="M690 0h-131l-62 178h-278l-63 -178h-129l248 670c-36 26.667 -54 64.667 -54 114c0 41.333 13.5 75.666 40.5 102.999s61.167 41 102.5 41s75.5 -13.667 102.5 -41s40.5 -61.666 40.5 -102.999c0 -52 -20 -91.333 -60 -118zM364 858
c-21.333 0 -38.666 -6.66602 -51.999 -19.999s-20 -31.333 -20 -54c0 -22 6.66699 -39.5 20 -52.5s30.666 -19.5 51.999 -19.5c20.667 0 37.834 6.66699 51.501 20s20.5 30.666 20.5 51.999c0 22 -6.83301 39.833 -20.5 53.5s-30.834 20.5 -51.501 20.5zM317 457.001
l-62 -177h207l-61 177l-42 140z" />
    <glyph glyph-name="AE" unicode="&#xc6;" horiz-adv-x="1138" 
d="M686 316v-213h400v-103h-521v183h-296l-110 -183h-132l429 712h620v-103h-390v-189h356v-104h-356zM525 609l-195 -325h235v325h-40z" />
    <glyph glyph-name="Ccedilla" unicode="&#xc7;" horiz-adv-x="712" 
d="M560 246h117.001c-8.66699 -80 -37.667 -143.333 -87 -190s-114 -72 -194 -76l-32 -48h16c30.667 0 55 -7.66699 73 -23s27 -37 27 -65c0 -32 -12.5 -57 -37.5 -75s-59.167 -27 -102.5 -27h-40v60h30c38.667 0 58 11.333 58 34c0 19.333 -11.667 29 -35 29h-32l-32 49
l44 69c-86.667 11.333 -155.334 50.333 -206.001 117c-52 66.667 -78 152 -78 256c0 112 30.333 201.667 91 269c60 68 138.667 102 236 102c80.667 0 148.334 -21.667 203.001 -65c53.333 -43.333 84.666 -102 93.999 -176h-118c-9.33301 42.667 -29 75.834 -59 99.501
s-68 35.5 -114 35.5c-66 0 -117.667 -23.667 -155 -71s-56 -112 -56 -194c0 -82.667 18.833 -148.334 56.5 -197.001s89.167 -73 154.5 -73c50 0 90.333 14 121 42s49.667 67.333 57 118z" />
    <glyph glyph-name="Egrave" unicode="&#xc8;" horiz-adv-x="648" 
d="M332 920l67 -148h-87l-129 148h149zM196 316v-213h399v-103h-520v712h511v-103h-390v-189h355v-104h-355z" />
    <glyph glyph-name="Eacute" unicode="&#xc9;" horiz-adv-x="648" 
d="M330 920h150l-129 -148h-88zM196 316v-213h399v-103h-520v712h511v-103h-390v-189h355v-104h-355z" />
    <glyph glyph-name="Ecircumflex" unicode="&#xca;" horiz-adv-x="648" 
d="M398 777l-65 91l-65 -91h-111l119 151h114l119 -151h-111zM196 316v-213h399v-103h-520v712h511v-103h-390v-189h355v-104h-355z" />
    <glyph glyph-name="Edieresis" unicode="&#xcb;" horiz-adv-x="648" 
d="M168 904h117v-114h-117v114zM381 904h117v-114h-117v114zM196 316v-213h399v-103h-520v712h511v-103h-390v-189h355v-104h-355z" />
    <glyph glyph-name="Igrave" unicode="&#xcc;" horiz-adv-x="271" 
d="M201 772h-87l-129 148h149zM196 0h-121v712h121v-712z" />
    <glyph glyph-name="Iacute" unicode="&#xcd;" horiz-adv-x="271" 
d="M154 772h-88l67 148h150zM196 0h-121v712h121v-712z" />
    <glyph glyph-name="Icircumflex" unicode="&#xce;" horiz-adv-x="271" 
d="M71 777h-111l119 151h114l119 -151h-111l-65 91zM196 0h-121v712h121v-712z" />
    <glyph glyph-name="Idieresis" unicode="&#xcf;" horiz-adv-x="271" 
d="M88 790h-117v114h117v-114zM300 790h-117v114h117v-114zM196 0h-121v712h121v-712z" />
    <glyph glyph-name="Eth" unicode="&#xd0;" horiz-adv-x="777" 
d="M147 712h260c108 0 189.333 -30.5 244 -91.5s82 -149.167 82 -264.5c0 -113.333 -27.667 -201 -83 -263s-136.333 -93 -243 -93h-260v314l-120 -5v102l120 -5v306zM269 103l127 0.000976562c75.333 0 130 20.167 164 60.5s51 104.5 51 192.5
c0 89.333 -17.5 154.166 -52.5 194.499s-91.833 60.5 -170.5 60.5h-119v-205l178 5v-102l-178 5v-211z" />
    <glyph glyph-name="Ntilde" unicode="&#xd1;" horiz-adv-x="720" 
d="M291 855c-28 0 -42.668 -22.667 -44.001 -68h-89c0 54.667 10.667 96 32 124s51 42 89 42c20 0 39.833 -5.66699 59.5 -17s37.167 -22.666 52.5 -33.999s28 -17 38 -17c28 0 42.667 22.667 44 68h89c0 -110.667 -40.333 -166 -121 -166c-20 0 -39.667 5.66699 -59 17
s-36.666 22.666 -51.999 33.999s-28.333 17 -39 17zM526.999 192v520h118v-712h-126l-326 518v-518h-118v712h124z" />
    <glyph glyph-name="Ograve" unicode="&#xd2;" horiz-adv-x="773" 
d="M452 772h-87l-129 148h149zM385 -20c-98 0 -178.332 34.999 -240.999 104.999c-63.333 69.333 -95 160 -95 272c0 110 31.667 199.333 95 268c63.333 68 143.666 102 240.999 102c98.667 0 180 -34 244 -102c63.333 -69.333 95 -158.666 95 -267.999
c0 -112 -31.667 -202.667 -95 -272c-64 -70 -145.333 -105 -244 -105zM386.001 85.999c64.667 0 117 24.667 157 74c39.333 49.333 59 115 59 197c0 78.667 -19.667 142.667 -59 192c-40 48 -92.333 72 -157 72c-65.333 0 -117.333 -24 -156 -72
c-39.333 -49.333 -59 -113.333 -59 -192c0 -82 19.667 -147.667 59 -197s91.333 -74 156 -74z" />
    <glyph glyph-name="Oacute" unicode="&#xd3;" horiz-adv-x="773" 
d="M404 772h-88l67 148h150zM385 -20c-98 0 -178.332 34.999 -240.999 104.999c-63.333 69.333 -95 160 -95 272c0 110 31.667 199.333 95 268c63.333 68 143.666 102 240.999 102c98.667 0 180 -34 244 -102c63.333 -69.333 95 -158.666 95 -267.999
c0 -112 -31.667 -202.667 -95 -272c-64 -70 -145.333 -105 -244 -105zM386.001 85.999c64.667 0 117 24.667 157 74c39.333 49.333 59 115 59 197c0 78.667 -19.667 142.667 -59 192c-40 48 -92.333 72 -157 72c-65.333 0 -117.333 -24 -156 -72
c-39.333 -49.333 -59 -113.333 -59 -192c0 -82 19.667 -147.667 59 -197s91.333 -74 156 -74z" />
    <glyph glyph-name="Ocircumflex" unicode="&#xd4;" horiz-adv-x="773" 
d="M321 777h-111l119 151h114l119 -151h-111l-65 91zM385 -20c-98 0 -178.332 34.999 -240.999 104.999c-63.333 69.333 -95 160 -95 272c0 110 31.667 199.333 95 268c63.333 68 143.666 102 240.999 102c98.667 0 180 -34 244 -102
c63.333 -69.333 95 -158.666 95 -267.999c0 -112 -31.667 -202.667 -95 -272c-64 -70 -145.333 -105 -244 -105zM386.001 85.999c64.667 0 117 24.667 157 74c39.333 49.333 59 115 59 197c0 78.667 -19.667 142.667 -59 192c-40 48 -92.333 72 -157 72
c-65.333 0 -117.333 -24 -156 -72c-39.333 -49.333 -59 -113.333 -59 -192c0 -82 19.667 -147.667 59 -197s91.333 -74 156 -74z" />
    <glyph glyph-name="Otilde" unicode="&#xd5;" horiz-adv-x="773" 
d="M273 787h-89.001c0 54.667 10.667 96 32 124s51 42 89 42c20 0 39.833 -5.66699 59.5 -17s37.167 -22.666 52.5 -33.999s28 -17 38 -17c28 0 42.667 22.667 44 68h89c0 -110.667 -40.333 -166 -121 -166c-20 0 -39.667 5.66699 -59 17s-36.666 22.666 -51.999 33.999
s-28.333 17 -39 17c-28 0 -42.667 -22.667 -44 -68zM384.999 -20c-98 0 -178.332 34.999 -240.999 104.999c-63.333 69.333 -95 160 -95 272c0 110 31.667 199.333 95 268c63.333 68 143.666 102 240.999 102c98.667 0 180 -34 244 -102
c63.333 -69.333 95 -158.666 95 -267.999c0 -112 -31.667 -202.667 -95 -272c-64 -70 -145.333 -105 -244 -105zM386 85.999c64.667 0 117 24.667 157 74c39.333 49.333 59 115 59 197c0 78.667 -19.667 142.667 -59 192c-40 48 -92.333 72 -157 72
c-65.333 0 -117.333 -24 -156 -72c-39.333 -49.333 -59 -113.333 -59 -192c0 -82 19.667 -147.667 59 -197s91.333 -74 156 -74z" />
    <glyph glyph-name="Odieresis" unicode="&#xd6;" horiz-adv-x="773" 
d="M338 790h-117v114h117v-114zM551 790h-117v114h117v-114zM385 -20c-98 0 -178.332 34.999 -240.999 104.999c-63.333 69.333 -95 160 -95 272c0 110 31.667 199.333 95 268c63.333 68 143.666 102 240.999 102c98.667 0 180 -34 244 -102
c63.333 -69.333 95 -158.666 95 -267.999c0 -112 -31.667 -202.667 -95 -272c-64 -70 -145.333 -105 -244 -105zM386.001 85.999c64.667 0 117 24.667 157 74c39.333 49.333 59 115 59 197c0 78.667 -19.667 142.667 -59 192c-40 48 -92.333 72 -157 72
c-65.333 0 -117.333 -24 -156 -72c-39.333 -49.333 -59 -113.333 -59 -192c0 -82 19.667 -147.667 59 -197s91.333 -74 156 -74z" />
    <glyph glyph-name="multiply" unicode="&#xd7;" 
d="M335 241l-197 -198l-69 70l197 198l-197 197l68 69l198 -198l199 198l69 -69l-198 -197l198 -199l-70 -69z" />
    <glyph glyph-name="Oslash" unicode="&#xd8;" horiz-adv-x="773" 
d="M711 686l-64.999 -81.001c52 -67.333 78 -150 78 -248c0 -112 -31.667 -202.667 -95 -272c-64 -70 -145.333 -105 -244 -105c-73.333 0 -137.666 20.333 -192.999 61l-58 -73l-62 48l63 78c-57.333 70.667 -86 158.334 -86 263.001c0 110 31.667 199.333 95 268
c63.333 68 143.666 102 240.999 102c79.333 0 147.666 -22.333 204.999 -67l59 74zM171.001 356.999c0 -67.333 13.333 -123.667 40 -169l308 385c-36 32 -80.333 48 -133 48c-65.333 0 -117.333 -24 -156 -72c-39.333 -49.333 -59 -113.333 -59 -192zM386.001 85.998
c64.667 0 117 24.667 157 74c39.333 49.333 59 115 59 197c0 57.333 -11 108 -33 152l-307 -382c36.667 -27.333 78 -41 124 -41z" />
    <glyph glyph-name="Ugrave" unicode="&#xd9;" horiz-adv-x="701" 
d="M416 772h-87l-129 148h149zM554 43c-49.333 -42 -117.333 -63 -204 -63c-87.333 0 -155 21 -203 63s-72 101.667 -72 179v490h121v-493c0 -88.667 51.667 -133 155 -133c102.667 0 154 44.333 154 133v493h121v-490c0 -77.333 -24 -137 -72 -179z" />
    <glyph glyph-name="Uacute" unicode="&#xda;" horiz-adv-x="701" 
d="M369 772h-88l67 148h150zM554 43c-49.333 -42 -117.333 -63 -204 -63c-87.333 0 -155 21 -203 63s-72 101.667 -72 179v490h121v-493c0 -88.667 51.667 -133 155 -133c102.667 0 154 44.333 154 133v493h121v-490c0 -77.333 -24 -137 -72 -179z" />
    <glyph glyph-name="Ucircumflex" unicode="&#xdb;" horiz-adv-x="701" 
d="M286 777h-111l119 151h114l119 -151h-111l-65 91zM554 43c-49.333 -42 -117.333 -63 -204 -63c-87.333 0 -155 21 -203 63s-72 101.667 -72 179v490h121v-493c0 -88.667 51.667 -133 155 -133c102.667 0 154 44.333 154 133v493h121v-490c0 -77.333 -24 -137 -72 -179z
" />
    <glyph glyph-name="Udieresis" unicode="&#xdc;" horiz-adv-x="701" 
d="M303 790h-117v114h117v-114zM516 790h-117v114h117v-114zM554 43c-49.333 -42 -117.333 -63 -204 -63c-87.333 0 -155 21 -203 63s-72 101.667 -72 179v490h121v-493c0 -88.667 51.667 -133 155 -133c102.667 0 154 44.333 154 133v493h121v-490
c0 -77.333 -24 -137 -72 -179z" />
    <glyph glyph-name="Yacute" unicode="&#xdd;" horiz-adv-x="670" 
d="M332 920h150l-129 -148h-88zM373 456l144 256h133l-252 -428v-284h-121v284l-258 428h138l145 -256l36 -77z" />
    <glyph glyph-name="Thorn" unicode="&#xde;" horiz-adv-x="630" 
d="M196 591h167c74.667 0 133 -19 175 -57s63 -91.333 63 -160c0 -70 -21.5 -124.667 -64.5 -164s-103.5 -59 -181.5 -59h-159v-151h-121v712h121v-121zM196 254h153c43.333 0 76.5 10.167 99.5 30.5s34.5 49.5 34.5 87.5c0 36.667 -11 65 -33 85s-53.667 30 -95 30h-159
v-233z" />
    <glyph glyph-name="germandbls" unicode="&#xdf;" horiz-adv-x="597" 
d="M187 0h-116.998v511c0 142 74.333 213 223 213c75.333 0 132.666 -16 171.999 -48s59 -75.667 59 -131c0 -74.667 -34 -124 -102 -148v-2c90 -24.667 135 -85.334 135 -182.001c0 -67.333 -21.333 -119.666 -64 -156.999s-102 -56 -178 -56h-48v94h44
c84.667 0 127 40.333 127 121c0 80 -42.667 120 -128 120h-43v94h29c35.333 0 62.666 8.66699 81.999 26s29 42.333 29 75c0 32 -9.5 56.833 -28.5 74.5s-46.833 26.5 -83.5 26.5c-72 0 -108 -34.667 -108 -104v-527z" />
    <glyph glyph-name="agrave" unicode="&#xe0;" horiz-adv-x="562" 
d="M279 724l67 -148h-87l-129 148h149zM514 0h-118.001c-6.66699 27.333 -11 47.333 -13 60c-39.333 -49.333 -95.666 -74 -168.999 -74c-54 0 -96.833 13.833 -128.5 41.5s-47.5 65.167 -47.5 112.5c0 86.667 55.333 139.334 166 158.001l161 27
c2.66699 0.666992 7.33398 2 14.001 4v45c0 45.333 -34 68 -102 68c-32.667 0 -57.334 -6.33301 -74.001 -19s-26.667 -33 -30 -61l-110 1c10 110.667 82.333 166 217 166c142 0 213 -59.333 213 -178v-232c0 -38.667 7 -78.334 21 -119.001zM242.999 74
c38.667 0 71 11.334 97 34.001s39 51 39 85v54l-143 -25c-55.333 -10 -83 -35.333 -83 -76c0 -22.667 8 -40.334 24 -53.001s38 -19 66 -19z" />
    <glyph glyph-name="aacute" unicode="&#xe1;" horiz-adv-x="562" 
d="M278 724h150l-129 -148h-88zM514 0h-118.001c-6.66699 27.333 -11 47.333 -13 60c-39.333 -49.333 -95.666 -74 -168.999 -74c-54 0 -96.833 13.833 -128.5 41.5s-47.5 65.167 -47.5 112.5c0 86.667 55.333 139.334 166 158.001l161 27
c2.66699 0.666992 7.33398 2 14.001 4v45c0 45.333 -34 68 -102 68c-32.667 0 -57.334 -6.33301 -74.001 -19s-26.667 -33 -30 -61l-110 1c10 110.667 82.333 166 217 166c142 0 213 -59.333 213 -178v-232c0 -38.667 7 -78.334 21 -119.001zM242.999 74
c38.667 0 71 11.334 97 34.001s39 51 39 85v54l-143 -25c-55.333 -10 -83 -35.333 -83 -76c0 -22.667 8 -40.334 24 -53.001s38 -19 66 -19z" />
    <glyph glyph-name="acircumflex" unicode="&#xe2;" horiz-adv-x="562" 
d="M346 581l-65 91l-65 -91h-111l119 151h114l119 -151h-111zM514 0h-118.001c-6.66699 27.333 -11 47.333 -13 60c-39.333 -49.333 -95.666 -74 -168.999 -74c-54 0 -96.833 13.833 -128.5 41.5s-47.5 65.167 -47.5 112.5c0 86.667 55.333 139.334 166 158.001l161 27
c2.66699 0.666992 7.33398 2 14.001 4v45c0 45.333 -34 68 -102 68c-32.667 0 -57.334 -6.33301 -74.001 -19s-26.667 -33 -30 -61l-110 1c10 110.667 82.333 166 217 166c142 0 213 -59.333 213 -178v-232c0 -38.667 7 -78.334 21 -119.001zM242.999 74
c38.667 0 71 11.334 97 34.001s39 51 39 85v54l-143 -25c-55.333 -10 -83 -35.333 -83 -76c0 -22.667 8 -40.334 24 -53.001s38 -19 66 -19z" />
    <glyph glyph-name="atilde" unicode="&#xe3;" horiz-adv-x="562" 
d="M212 659c-28 0 -42.668 -22.667 -44.001 -68h-89c0 54.667 10.667 96 32 124s51 42 89 42c20 0 39.833 -5.66699 59.5 -17s37.167 -22.666 52.5 -33.999s28 -17 38 -17c28 0 42.667 22.667 44 68h89c0 -110.667 -40.333 -166 -121 -166c-20 0 -39.667 5.66699 -59 17
s-36.666 22.666 -51.999 33.999s-28.333 17 -39 17zM513.999 0h-118.001c-6.66699 27.333 -11 47.333 -13 60c-39.333 -49.333 -95.666 -74 -168.999 -74c-54 0 -96.833 13.833 -128.5 41.5s-47.5 65.167 -47.5 112.5c0 86.667 55.333 139.334 166 158.001l161 27
c2.66699 0.666992 7.33398 2 14.001 4v45c0 45.333 -34 68 -102 68c-32.667 0 -57.334 -6.33301 -74.001 -19s-26.667 -33 -30 -61l-110 1c10 110.667 82.333 166 217 166c142 0 213 -59.333 213 -178v-232c0 -38.667 7 -78.334 21 -119.001zM242.998 74
c38.667 0 71 11.334 97 34.001s39 51 39 85v54l-143 -25c-55.333 -10 -83 -35.333 -83 -76c0 -22.667 8 -40.334 24 -53.001s38 -19 66 -19z" />
    <glyph glyph-name="adieresis" unicode="&#xe4;" horiz-adv-x="562" 
d="M116 712h117v-114h-117v114zM329 712h117v-114h-117v114zM514 0h-118.001c-6.66699 27.333 -11 47.333 -13 60c-39.333 -49.333 -95.666 -74 -168.999 -74c-54 0 -96.833 13.833 -128.5 41.5s-47.5 65.167 -47.5 112.5c0 86.667 55.333 139.334 166 158.001l161 27
c2.66699 0.666992 7.33398 2 14.001 4v45c0 45.333 -34 68 -102 68c-32.667 0 -57.334 -6.33301 -74.001 -19s-26.667 -33 -30 -61l-110 1c10 110.667 82.333 166 217 166c142 0 213 -59.333 213 -178v-232c0 -38.667 7 -78.334 21 -119.001zM242.999 74
c38.667 0 71 11.334 97 34.001s39 51 39 85v54l-143 -25c-55.333 -10 -83 -35.333 -83 -76c0 -22.667 8 -40.334 24 -53.001s38 -19 66 -19z" />
    <glyph glyph-name="aring" unicode="&#xe5;" horiz-adv-x="562" 
d="M384 618c-26.667 -26.667 -60.999 -39.999 -102.999 -39.999c-41.333 0 -75.333 13.333 -102 40c-27.333 27.333 -41 61.333 -41 102c0 41.333 13.667 75.666 41 102.999s61.333 41 102 41c41.333 0 75.666 -13.667 102.999 -41c26.667 -26.667 40 -61 40 -103
c0 -41.333 -13.333 -75.333 -40 -102zM333.001 774.001c-15.333 12.667 -32.502 19.333 -51.502 20s-36.167 -6 -51.5 -20s-22.333 -32 -21 -54c0 -21.333 6.83301 -38.666 20.5 -51.999s30.834 -20 51.501 -20s37.834 6.66699 51.501 20s20.5 30.666 20.5 51.999
c0 22.667 -6.66699 40.667 -20 54zM513.999 0h-118.001c-6.66699 27.333 -11 47.333 -13 60c-39.333 -49.333 -95.666 -74 -168.999 -74c-54 0 -96.833 13.833 -128.5 41.5s-47.5 65.167 -47.5 112.5c0 86.667 55.333 139.334 166 158.001l161 27
c2.66699 0.666992 7.33398 2 14.001 4v45c0 45.333 -34 68 -102 68c-32.667 0 -57.334 -6.33301 -74.001 -19s-26.667 -33 -30 -61l-110 1c10 110.667 82.333 166 217 166c142 0 213 -59.333 213 -178v-232c0 -38.667 7 -78.334 21 -119.001zM242.998 74
c38.667 0 71 11.334 97 34.001s39 51 39 85v54l-143 -25c-55.333 -10 -83 -35.333 -83 -76c0 -22.667 8 -40.334 24 -53.001s38 -19 66 -19z" />
    <glyph glyph-name="ae" unicode="&#xe6;" horiz-adv-x="915" 
d="M875 255l0.00195312 -29.999h-381c2.66699 -46.667 16.334 -82.834 41.001 -108.501s57.334 -38.5 98.001 -38.5c58.667 0 98.667 27.667 120 83l112 -13c-16.667 -52 -45.334 -92.167 -86.001 -120.5s-89.334 -42.5 -146.001 -42.5c-94 0 -161.667 36 -203 108
c-41.333 -71.333 -108.666 -107 -201.999 -107c-58.667 0 -105 14.333 -139 43s-51 67.334 -51 116.001c0 47.333 16.167 85.166 48.5 113.499s80.166 42.5 143.499 42.5h149v55c0 57.333 -35 86 -105 86c-32 0 -56 -6.33301 -72 -19s-25.667 -33 -29 -61l-110 1
c10 110.667 80.667 166 212 166c87.333 0 146.666 -25.667 177.999 -77c43.333 51.333 103.666 77 180.999 77c75.333 0 134.333 -24.333 177 -73s64 -115.667 64 -201zM627.002 439.001c-38 0 -68.668 -12.001 -92.001 -36.001s-36.666 -58 -39.999 -102h263
c-4.66699 44.667 -18.167 78.834 -40.5 102.501s-52.5 35.5 -90.5 35.5zM244.001 74c38.667 0 70.833 12 96.5 36s38.5 55 38.5 93v22l-134 -3c-30.667 -0.666992 -53.667 -7.5 -69 -20.5s-23 -30.833 -23 -53.5s8.16699 -40.667 24.5 -54s38.5 -20 66.5 -20z" />
    <glyph glyph-name="ccedilla" unicode="&#xe7;" horiz-adv-x="552" 
d="M288 79c62 0 100.331 33.333 114.998 100h113c-9.33301 -58 -31.666 -103.5 -66.999 -136.5s-81.666 -51.833 -138.999 -56.5l-34 -52h16c30.667 0 55 -7.66699 73 -23s27 -37 27 -65c0 -32 -12.5 -57 -37.5 -75s-59.167 -27 -102.5 -27h-40v60h30
c38.667 0 58 11.333 58 34c0 19.333 -11.667 29 -35 29h-32l-32 49l45 71c-64 8 -114.167 35.667 -150.5 83s-54.5 109 -54.5 185c0 84.667 22 151.5 66 200.5s104 73.5 180 73.5c63.333 0 115 -16.333 155 -49s64.667 -79 74 -139h-113c-14.667 62.667 -52.667 94 -114 94
c-43.333 0 -76.333 -15.167 -99 -45.5s-34 -74.5 -34 -132.5c0 -56.667 11.5 -100.5 34.5 -131.5s55.5 -46.5 97.5 -46.5z" />
    <glyph glyph-name="egrave" unicode="&#xe8;" horiz-adv-x="581" 
d="M291 724l67 -148h-87l-129 148h149zM541 255l0.000976562 -29.001h-381c2.66699 -47.333 16.167 -83.833 40.5 -109.5s57.166 -38.5 98.499 -38.5c59.333 0 99.333 28 120 84l112 -10c-16 -54 -44.167 -95.333 -84.5 -124s-89.5 -43 -147.5 -43
c-80 0 -143 25.667 -189 77c-46 50.667 -69 116.667 -69 198c0 78.667 22.333 143.334 67 194.001c45.333 50 106 75 182 75c75.333 0 136 -24.333 182 -73c46 -49.333 69 -116.333 69 -201zM383.001 404.999c-22.667 22.667 -52.667 34 -90 34
c-38 0 -68.333 -11.333 -91 -34c-24 -23.333 -37.667 -56 -41 -98h263c-5.33301 43.333 -19 76 -41 98z" />
    <glyph glyph-name="eacute" unicode="&#xe9;" horiz-adv-x="581" 
d="M289 724h150l-129 -148h-88zM541 255l0.000976562 -29.001h-381c2.66699 -47.333 16.167 -83.833 40.5 -109.5s57.166 -38.5 98.499 -38.5c59.333 0 99.333 28 120 84l112 -10c-16 -54 -44.167 -95.333 -84.5 -124s-89.5 -43 -147.5 -43c-80 0 -143 25.667 -189 77
c-46 50.667 -69 116.667 -69 198c0 78.667 22.333 143.334 67 194.001c45.333 50 106 75 182 75c75.333 0 136 -24.333 182 -73c46 -49.333 69 -116.333 69 -201zM383.001 404.999c-22.667 22.667 -52.667 34 -90 34c-38 0 -68.333 -11.333 -91 -34
c-24 -23.333 -37.667 -56 -41 -98h263c-5.33301 43.333 -19 76 -41 98z" />
    <glyph glyph-name="ecircumflex" unicode="&#xea;" horiz-adv-x="581" 
d="M357 581l-65 91l-65 -91h-111l119 151h114l119 -151h-111zM541 255l0.000976562 -29.001h-381c2.66699 -47.333 16.167 -83.833 40.5 -109.5s57.166 -38.5 98.499 -38.5c59.333 0 99.333 28 120 84l112 -10c-16 -54 -44.167 -95.333 -84.5 -124s-89.5 -43 -147.5 -43
c-80 0 -143 25.667 -189 77c-46 50.667 -69 116.667 -69 198c0 78.667 22.333 143.334 67 194.001c45.333 50 106 75 182 75c75.333 0 136 -24.333 182 -73c46 -49.333 69 -116.333 69 -201zM383.001 404.999c-22.667 22.667 -52.667 34 -90 34
c-38 0 -68.333 -11.333 -91 -34c-24 -23.333 -37.667 -56 -41 -98h263c-5.33301 43.333 -19 76 -41 98z" />
    <glyph glyph-name="edieresis" unicode="&#xeb;" horiz-adv-x="581" 
d="M127 712h117v-114h-117v114zM340 712h117v-114h-117v114zM541 255l0.000976562 -29.001h-381c2.66699 -47.333 16.167 -83.833 40.5 -109.5s57.166 -38.5 98.499 -38.5c59.333 0 99.333 28 120 84l112 -10c-16 -54 -44.167 -95.333 -84.5 -124s-89.5 -43 -147.5 -43
c-80 0 -143 25.667 -189 77c-46 50.667 -69 116.667 -69 198c0 78.667 22.333 143.334 67 194.001c45.333 50 106 75 182 75c75.333 0 136 -24.333 182 -73c46 -49.333 69 -116.333 69 -201zM383.001 404.999c-22.667 22.667 -52.667 34 -90 34
c-38 0 -68.333 -11.333 -91 -34c-24 -23.333 -37.667 -56 -41 -98h263c-5.33301 43.333 -19 76 -41 98z" />
    <glyph glyph-name="igrave" unicode="&#xec;" horiz-adv-x="257" 
d="M194 576h-87l-129 148h149zM187 0h-117v516h117v-516z" />
    <glyph glyph-name="iacute" unicode="&#xed;" horiz-adv-x="257" 
d="M147 576h-88l67 148h150zM187 0h-117v516h117v-516z" />
    <glyph glyph-name="icircumflex" unicode="&#xee;" horiz-adv-x="257" 
d="M64 581h-111l119 151h114l119 -151h-111l-65 91zM187 0h-117v516h117v-516z" />
    <glyph glyph-name="idieresis" unicode="&#xef;" horiz-adv-x="257" 
d="M85 598h-105v114h105v-114zM277 598h-110v114h110v-114zM187 0h-117v516h117v-516z" />
    <glyph glyph-name="eth" unicode="&#xf0;" horiz-adv-x="571" 
d="M471 681l-107.999 -63.001c112 -100 168 -219.667 168 -359c0 -86.667 -22.167 -154.167 -66.5 -202.5s-105.5 -72.5 -183.5 -72.5c-74 0 -132.333 22 -175 66c-43.333 44.667 -65 102.334 -65 173.001c0 67.333 20 123.333 60 168c40 44 92.333 66 157 66
c59.333 0 106.666 -17.667 141.999 -53c-20 57.333 -59.667 111.333 -119 162l-93 -68l-47 63l80 49c-30.667 19.333 -59.667 35 -87 47l45 79c42 -18.667 83.333 -42 124 -70l117 87zM417.001 248.999v13.001c-5.33301 29.333 -20.833 53.5 -46.5 72.5
s-55.5 28.5 -89.5 28.5c-39.333 0 -70 -12.833 -92 -38.5s-33 -59.5 -33 -101.5c0 -43.333 11.667 -78.333 35 -105s54.666 -40 93.999 -40c40.667 0 72.834 14.667 96.501 44s35.5 71.666 35.5 126.999z" />
    <glyph glyph-name="ntilde" unicode="&#xf1;" horiz-adv-x="586" 
d="M229 659c-28 0 -42.668 -22.667 -44.001 -68h-89c0 54.667 10.667 96 32 124s51 42 89 42c20 0 39.833 -5.66699 59.5 -17s37.167 -22.666 52.5 -33.999s28 -17 38 -17c28 0 42.667 22.667 44 68h89c0 -110.667 -40.333 -166 -121 -166c-20 0 -39.667 5.66699 -59 17
s-36.666 22.666 -51.999 33.999s-28.333 17 -39 17zM343.999 529c54 0 96.168 -15.668 126.501 -47.001s45.5 -74.666 45.5 -129.999v-352h-117v327c0 65.333 -29.667 98 -89 98c-36.667 0 -66.334 -12.5 -89.001 -37.5s-34 -60.5 -34 -106.5v-281h-117v516h112l2 -72
c36 56.667 89.333 85 160 85z" />
    <glyph glyph-name="ograve" unicode="&#xf2;" horiz-adv-x="594" 
d="M364 576h-87l-129 148h149zM482 62c-48 -51.333 -109.666 -76.999 -184.999 -76.999c-76 0 -137.333 25.333 -184 76c-48 51.333 -72 116.666 -72 195.999c0 80.667 24 146.334 72 197.001c48 50 110 75 186 75c75.333 0 136.666 -25 183.999 -75
c47.333 -50.667 71 -115.667 71 -195c0 -80.667 -24 -146.334 -72 -197.001zM297.001 79.001c44 0 78.834 16.332 104.501 48.999s38.5 76.334 38.5 131.001s-12.667 97.667 -38 129s-60.333 47 -105 47c-44 0 -78.5 -16 -103.5 -48s-37.5 -75.333 -37.5 -130
c0 -54 12.667 -97.167 38 -129.5s59.666 -48.5 102.999 -48.5z" />
    <glyph glyph-name="oacute" unicode="&#xf3;" horiz-adv-x="594" 
d="M317 576h-88l67 148h150zM482 62c-48 -51.333 -109.666 -76.999 -184.999 -76.999c-76 0 -137.333 25.333 -184 76c-48 51.333 -72 116.666 -72 195.999c0 80.667 24 146.334 72 197.001c48 50 110 75 186 75c75.333 0 136.666 -25 183.999 -75
c47.333 -50.667 71 -115.667 71 -195c0 -80.667 -24 -146.334 -72 -197.001zM297.001 79.001c44 0 78.834 16.332 104.501 48.999s38.5 76.334 38.5 131.001s-12.667 97.667 -38 129s-60.333 47 -105 47c-44 0 -78.5 -16 -103.5 -48s-37.5 -75.333 -37.5 -130
c0 -54 12.667 -97.167 38 -129.5s59.666 -48.5 102.999 -48.5z" />
    <glyph glyph-name="ocircumflex" unicode="&#xf4;" horiz-adv-x="594" 
d="M234 581h-111l119 151h114l119 -151h-111l-65 91zM482 62c-48 -51.333 -109.666 -76.999 -184.999 -76.999c-76 0 -137.333 25.333 -184 76c-48 51.333 -72 116.666 -72 195.999c0 80.667 24 146.334 72 197.001c48 50 110 75 186 75c75.333 0 136.666 -25 183.999 -75
c47.333 -50.667 71 -115.667 71 -195c0 -80.667 -24 -146.334 -72 -197.001zM297.001 79.001c44 0 78.834 16.332 104.501 48.999s38.5 76.334 38.5 131.001s-12.667 97.667 -38 129s-60.333 47 -105 47c-44 0 -78.5 -16 -103.5 -48s-37.5 -75.333 -37.5 -130
c0 -54 12.667 -97.167 38 -129.5s59.666 -48.5 102.999 -48.5z" />
    <glyph glyph-name="otilde" unicode="&#xf5;" horiz-adv-x="594" 
d="M186 591h-89.001c0 54.667 10.667 96 32 124s51 42 89 42c20 0 39.833 -5.66699 59.5 -17s37.167 -22.666 52.5 -33.999s28 -17 38 -17c28 0 42.667 22.667 44 68h89c0 -110.667 -40.333 -166 -121 -166c-20 0 -39.667 5.66699 -59 17s-36.666 22.666 -51.999 33.999
s-28.333 17 -39 17c-28 0 -42.667 -22.667 -44 -68zM481.999 62c-48 -51.333 -109.666 -76.999 -184.999 -76.999c-76 0 -137.333 25.333 -184 76c-48 51.333 -72 116.666 -72 195.999c0 80.667 24 146.334 72 197.001c48 50 110 75 186 75
c75.333 0 136.666 -25 183.999 -75c47.333 -50.667 71 -115.667 71 -195c0 -80.667 -24 -146.334 -72 -197.001zM297 79.001c44 0 78.834 16.332 104.501 48.999s38.5 76.334 38.5 131.001s-12.667 97.667 -38 129s-60.333 47 -105 47c-44 0 -78.5 -16 -103.5 -48
s-37.5 -75.333 -37.5 -130c0 -54 12.667 -97.167 38 -129.5s59.666 -48.5 102.999 -48.5z" />
    <glyph glyph-name="odieresis" unicode="&#xf6;" horiz-adv-x="594" 
d="M251 598h-117v114h117v-114zM464 598h-117v114h117v-114zM482 62c-48 -51.333 -109.666 -76.999 -184.999 -76.999c-76 0 -137.333 25.333 -184 76c-48 51.333 -72 116.666 -72 195.999c0 80.667 24 146.334 72 197.001c48 50 110 75 186 75
c75.333 0 136.666 -25 183.999 -75c47.333 -50.667 71 -115.667 71 -195c0 -80.667 -24 -146.334 -72 -197.001zM297.001 79.001c44 0 78.834 16.332 104.501 48.999s38.5 76.334 38.5 131.001s-12.667 97.667 -38 129s-60.333 47 -105 47c-44 0 -78.5 -16 -103.5 -48
s-37.5 -75.333 -37.5 -130c0 -54 12.667 -97.167 38 -129.5s59.666 -48.5 102.999 -48.5z" />
    <glyph glyph-name="divide" unicode="&#xf7;" 
d="M399 444h-126v128h126v-128zM623 255h-575v106h575v-106zM399 44h-126v128h126v-128z" />
    <glyph glyph-name="oslash" unicode="&#xf8;" horiz-adv-x="594" 
d="M544 485l-44 -51.002c36 -49.333 54 -107.666 54 -174.999c0 -80.667 -24 -146.334 -72 -197.001c-48 -51.333 -109.667 -77 -185 -77c-58 0 -107.333 15 -148 45l-42 -48l-57 47l46 52c-36.667 48.667 -55 107.334 -55 176.001c0 80.667 24 146.334 72 197.001
c48 50 110 75 186 75c55.333 0 104.333 -14.667 147 -44l41 47zM156 256.998c0 -33.333 5 -63 15 -89l209 241c-23.333 17.333 -51 26 -83 26c-44 0 -78.5 -16 -103.5 -48s-37.5 -75.333 -37.5 -130zM297 78.998c44 0 78.833 16.332 104.5 48.999s38.5 76.334 38.5 131.001
c0 34 -5 63.667 -15 89l-210 -242c22.667 -18 50 -27 82 -27z" />
    <glyph glyph-name="ugrave" unicode="&#xf9;" horiz-adv-x="586" 
d="M291 724l67 -148h-87l-129 148h149zM399 235l-0.000976562 281.001h117v-516h-112l-2 72c-36 -56.667 -89.333 -85 -160 -85c-54 0 -96.167 15.667 -126.5 47s-45.5 74.666 -45.5 129.999v352h117v-327c0 -65.333 29.667 -98 89 -98c36.667 0 66.334 12.5 89.001 37.5
s34 60.5 34 106.5z" />
    <glyph glyph-name="uacute" unicode="&#xfa;" horiz-adv-x="586" 
d="M290 724h150l-129 -148h-88zM399 235l-0.000976562 281.001h117v-516h-112l-2 72c-36 -56.667 -89.333 -85 -160 -85c-54 0 -96.167 15.667 -126.5 47s-45.5 74.666 -45.5 129.999v352h117v-327c0 -65.333 29.667 -98 89 -98c36.667 0 66.334 12.5 89.001 37.5
s34 60.5 34 106.5z" />
    <glyph glyph-name="ucircumflex" unicode="&#xfb;" horiz-adv-x="586" 
d="M358 581l-65 91l-65 -91h-111l119 151h114l119 -151h-111zM399 235l-0.000976562 281.001h117v-516h-112l-2 72c-36 -56.667 -89.333 -85 -160 -85c-54 0 -96.167 15.667 -126.5 47s-45.5 74.666 -45.5 129.999v352h117v-327c0 -65.333 29.667 -98 89 -98
c36.667 0 66.334 12.5 89.001 37.5s34 60.5 34 106.5z" />
    <glyph glyph-name="udieresis" unicode="&#xfc;" horiz-adv-x="586" 
d="M128 712h117v-114h-117v114zM341 712h117v-114h-117v114zM399 235l-0.000976562 281.001h117v-516h-112l-2 72c-36 -56.667 -89.333 -85 -160 -85c-54 0 -96.167 15.667 -126.5 47s-45.5 74.666 -45.5 129.999v352h117v-327c0 -65.333 29.667 -98 89 -98
c36.667 0 66.334 12.5 89.001 37.5s34 60.5 34 106.5z" />
    <glyph glyph-name="yacute" unicode="&#xfd;" horiz-adv-x="548" 
d="M273 724h150l-129 -148h-88zM276 124l129.001 392.001h123l-223 -612c-14 -40.667 -31.833 -68.834 -53.5 -84.501s-51.834 -23.5 -90.501 -23.5h-89v99h59c22 0 38.667 4 50 12s21 22.667 29 44l14 38l-204 527h128l114 -322z" />
    <glyph glyph-name="thorn" unicode="&#xfe;" horiz-adv-x="597" 
d="M340 528c62.667 0 114.667 -23.667 156 -71c40.667 -47.333 61 -111.333 61 -192c0 -82.667 -20.333 -149.667 -61 -201c-40.667 -52 -95 -78 -163 -78c-62 0 -110.667 23 -146 69v-259h-117v916h117v-253c35.333 46 86.333 69 153 69zM313 88
c38.667 0 69.833 16.168 93.5 48.501s35.5 75.166 35.5 128.499c0 51.333 -11.5 91.666 -34.5 120.999s-54.5 44 -94.5 44c-39.333 0 -71 -14.667 -95 -44c-24.667 -29.333 -37 -70.666 -37 -123.999s12.333 -95.333 37 -126c24 -32 55.667 -48 95 -48z" />
    <glyph glyph-name="ydieresis" unicode="&#xff;" horiz-adv-x="548" 
d="M111 712h117v-114h-117v114zM324 712h117v-114h-117v114zM276 124l129.001 392.001h123l-223 -612c-14 -40.667 -31.833 -68.834 -53.5 -84.501s-51.834 -23.5 -90.501 -23.5h-89v99h59c22 0 38.667 4 50 12s21 22.667 29 44l14 38l-204 527h128l114 -322z" />
    <glyph glyph-name="Amacron" unicode="&#x100;" horiz-adv-x="718" 
d="M193 893h342v-88h-342v88zM690 0h-131l-62 178h-278l-63 -178h-129l264 712h139zM317 457l-62 -177h207l-61 177l-42 140z" />
    <glyph glyph-name="amacron" unicode="&#x101;" horiz-adv-x="562" 
d="M110 697h342v-88h-342v88zM514 0h-118.001c-6.66699 27.333 -11 47.333 -13 60c-39.333 -49.333 -95.666 -74 -168.999 -74c-54 0 -96.833 13.833 -128.5 41.5s-47.5 65.167 -47.5 112.5c0 86.667 55.333 139.334 166 158.001l161 27
c2.66699 0.666992 7.33398 2 14.001 4v45c0 45.333 -34 68 -102 68c-32.667 0 -57.334 -6.33301 -74.001 -19s-26.667 -33 -30 -61l-110 1c10 110.667 82.333 166 217 166c142 0 213 -59.333 213 -178v-232c0 -38.667 7 -78.334 21 -119.001zM242.999 74
c38.667 0 71 11.334 97 34.001s39 51 39 85v54l-143 -25c-55.333 -10 -83 -35.333 -83 -76c0 -22.667 8 -40.334 24 -53.001s38 -19 66 -19z" />
    <glyph glyph-name="Abreve" unicode="&#x102;" horiz-adv-x="718" 
d="M363 773c-56.667 0 -98.332 12.5 -124.999 37.5s-41 62.5 -43 112.5h74c2 -48.667 33.667 -73 95 -73s93 24.333 95 73h74c-4.66699 -100 -61.334 -150 -170.001 -150zM690.002 0h-131l-62 178h-278l-63 -178h-129l264 712h139zM317.002 457l-62 -177h207l-61 177
l-42 140z" />
    <glyph glyph-name="abreve" unicode="&#x103;" horiz-adv-x="562" 
d="M280 577c-56.667 0 -98.333 12.5 -125 37.5s-41 62.5 -43 112.5h74c2 -49.333 33.667 -74 95 -74s93 24.667 95 74h74c-5.33301 -100 -62 -150 -170 -150zM514.001 0h-118.001c-6.66699 27.333 -11 47.333 -13 60c-39.333 -49.333 -95.666 -74 -168.999 -74
c-54 0 -96.833 13.833 -128.5 41.5s-47.5 65.167 -47.5 112.5c0 86.667 55.333 139.334 166 158.001l161 27c2.66699 0.666992 7.33398 2 14.001 4v45c0 45.333 -34 68 -102 68c-32.667 0 -57.334 -6.33301 -74.001 -19s-26.667 -33 -30 -61l-110 1
c10 110.667 82.333 166 217 166c142 0 213 -59.333 213 -178v-232c0 -38.667 7 -78.334 21 -119.001zM243 74c38.667 0 71 11.334 97 34.001s39 51 39 85v54l-143 -25c-55.333 -10 -83 -35.333 -83 -76c0 -22.667 8 -40.334 24 -53.001s38 -19 66 -19z" />
    <glyph glyph-name="Aogonek" unicode="&#x104;" horiz-adv-x="718" 
d="M595 -97c0 -25.333 18.332 -38 54.999 -38h34v-76h-70c-83.333 0 -125 30 -125 90c0 21.333 6.33301 40.5 19 57.5s34.334 35.167 65.001 54.5l15 9h-29l-62 178h-278l-63 -178h-129l264 712h139l260 -712l-59 -44c-24 -18 -36 -35.667 -36 -53zM316.999 457l-62 -177
h207l-61 177l-42 140z" />
    <glyph glyph-name="aogonek" unicode="&#x105;" horiz-adv-x="562" 
d="M419 -97c0 -25.333 18.3311 -37.999 54.998 -37.999h34v-76h-70c-83.333 0 -125 30 -125 90c0 20.667 6.5 39.667 19.5 57s34.5 35.666 64.5 54.999l2 1c-5.33301 22 -10.666 44.667 -15.999 68c-39.333 -49.333 -95.666 -74 -168.999 -74
c-54 0 -96.833 13.833 -128.5 41.5s-47.5 65.167 -47.5 112.5c0 86.667 55.333 139.334 166 158.001l161 27c2.66699 0.666992 7.33398 2 14.001 4v45c0 45.333 -34 68 -102 68c-32.667 0 -57.334 -6.33301 -74.001 -19s-26.667 -33 -30 -61l-110 1
c10 110.667 82.333 166 217 166c142 0 213 -59.333 213 -178v-232c0 -38.667 7 -78.334 21 -119.001l-59 -44c-24 -18 -36 -35.667 -36 -53zM242.998 74.001c38.667 0 71 11.334 97 34.001s39 51 39 85v54l-143 -25c-55.333 -10 -83 -35.333 -83 -76
c0 -22.667 8 -40.334 24 -53.001s38 -19 66 -19z" />
    <glyph glyph-name="Cacute" unicode="&#x106;" horiz-adv-x="712" 
d="M392 772h-88l67 148h150zM376 -20c-97.333 0 -176.001 34.666 -236.001 103.999c-60.667 68.667 -91 159.334 -91 272.001c0 112 30.333 201.667 91 269c60 68 138.667 102 236 102c80.667 0 148.334 -21.667 203.001 -65c53.333 -43.333 84.666 -102 93.999 -176h-118
c-9.33301 42.667 -29 75.834 -59 99.501s-68 35.5 -114 35.5c-66 0 -117.667 -23.667 -155 -71s-56 -112 -56 -194c0 -82.667 18.833 -148.334 56.5 -197.001s89.167 -73 154.5 -73c50 0 90.333 14 121 42s49.667 67.333 57 118h117
c-8.66699 -83.333 -39.667 -148.5 -93 -195.5s-122.666 -70.5 -207.999 -70.5z" />
    <glyph glyph-name="cacute" unicode="&#x107;" horiz-adv-x="552" 
d="M308 576h-88l67 148h150zM285 -15c-76 0 -135.667 24 -179 72s-65 114 -65 198c0 84.667 22 151.5 66 200.5s104 73.5 180 73.5c63.333 0 115 -16.333 155 -49s64.667 -79 74 -139h-113c-14.667 62.667 -52.667 94 -114 94c-43.333 0 -76.333 -15.167 -99 -45.5
s-34 -74.5 -34 -132.5c0 -56.667 11.5 -100.5 34.5 -131.5s55.5 -46.5 97.5 -46.5c62 0 100.333 33.333 115 100h113c-10 -62 -35 -109.833 -75 -143.5s-92 -50.5 -156 -50.5z" />
    <glyph glyph-name="Ccircumflex" unicode="&#x108;" horiz-adv-x="712" 
d="M309 777h-111l119 151h114l119 -151h-111l-65 91zM376 -20c-97.333 0 -176.001 34.666 -236.001 103.999c-60.667 68.667 -91 159.334 -91 272.001c0 112 30.333 201.667 91 269c60 68 138.667 102 236 102c80.667 0 148.334 -21.667 203.001 -65
c53.333 -43.333 84.666 -102 93.999 -176h-118c-9.33301 42.667 -29 75.834 -59 99.501s-68 35.5 -114 35.5c-66 0 -117.667 -23.667 -155 -71s-56 -112 -56 -194c0 -82.667 18.833 -148.334 56.5 -197.001s89.167 -73 154.5 -73c50 0 90.333 14 121 42
s49.667 67.333 57 118h117c-8.66699 -83.333 -39.667 -148.5 -93 -195.5s-122.666 -70.5 -207.999 -70.5z" />
    <glyph glyph-name="ccircumflex" unicode="&#x109;" horiz-adv-x="552" 
d="M225 581h-111l119 151h114l119 -151h-111l-65 91zM285 -15c-76 0 -135.667 24 -179 72s-65 114 -65 198c0 84.667 22 151.5 66 200.5s104 73.5 180 73.5c63.333 0 115 -16.333 155 -49s64.667 -79 74 -139h-113c-14.667 62.667 -52.667 94 -114 94
c-43.333 0 -76.333 -15.167 -99 -45.5s-34 -74.5 -34 -132.5c0 -56.667 11.5 -100.5 34.5 -131.5s55.5 -46.5 97.5 -46.5c62 0 100.333 33.333 115 100h113c-10 -62 -35 -109.833 -75 -143.5s-92 -50.5 -156 -50.5z" />
    <glyph glyph-name="Cdotaccent" unicode="&#x10a;" horiz-adv-x="712" 
d="M432 790h-117v114h117v-114zM376 -20c-97.333 0 -176.001 34.666 -236.001 103.999c-60.667 68.667 -91 159.334 -91 272.001c0 112 30.333 201.667 91 269c60 68 138.667 102 236 102c80.667 0 148.334 -21.667 203.001 -65c53.333 -43.333 84.666 -102 93.999 -176
h-118c-9.33301 42.667 -29 75.834 -59 99.501s-68 35.5 -114 35.5c-66 0 -117.667 -23.667 -155 -71s-56 -112 -56 -194c0 -82.667 18.833 -148.334 56.5 -197.001s89.167 -73 154.5 -73c50 0 90.333 14 121 42s49.667 67.333 57 118h117
c-8.66699 -83.333 -39.667 -148.5 -93 -195.5s-122.666 -70.5 -207.999 -70.5z" />
    <glyph glyph-name="cdotaccent" unicode="&#x10b;" horiz-adv-x="552" 
d="M348 598h-117v114h117v-114zM285 -15c-76 0 -135.667 24 -179 72s-65 114 -65 198c0 84.667 22 151.5 66 200.5s104 73.5 180 73.5c63.333 0 115 -16.333 155 -49s64.667 -79 74 -139h-113c-14.667 62.667 -52.667 94 -114 94c-43.333 0 -76.333 -15.167 -99 -45.5
s-34 -74.5 -34 -132.5c0 -56.667 11.5 -100.5 34.5 -131.5s55.5 -46.5 97.5 -46.5c62 0 100.333 33.333 115 100h113c-10 -62 -35 -109.833 -75 -143.5s-92 -50.5 -156 -50.5z" />
    <glyph glyph-name="Ccaron" unicode="&#x10c;" horiz-adv-x="712" 
d="M431 778h-114l-119 151h111l65 -91l65 91h111zM376 -20c-97.333 0 -176.001 34.666 -236.001 103.999c-60.667 68.667 -91 159.334 -91 272.001c0 112 30.333 201.667 91 269c60 68 138.667 102 236 102c80.667 0 148.334 -21.667 203.001 -65
c53.333 -43.333 84.666 -102 93.999 -176h-118c-9.33301 42.667 -29 75.834 -59 99.501s-68 35.5 -114 35.5c-66 0 -117.667 -23.667 -155 -71s-56 -112 -56 -194c0 -82.667 18.833 -148.334 56.5 -197.001s89.167 -73 154.5 -73c50 0 90.333 14 121 42
s49.667 67.333 57 118h117c-8.66699 -83.333 -39.667 -148.5 -93 -195.5s-122.666 -70.5 -207.999 -70.5z" />
    <glyph glyph-name="ccaron" unicode="&#x10d;" horiz-adv-x="552" 
d="M347 576h-114l-119 151h111l65 -91l65 91h111zM285 -15c-76 0 -135.667 24 -179 72s-65 114 -65 198c0 84.667 22 151.5 66 200.5s104 73.5 180 73.5c63.333 0 115 -16.333 155 -49s64.667 -79 74 -139h-113c-14.667 62.667 -52.667 94 -114 94
c-43.333 0 -76.333 -15.167 -99 -45.5s-34 -74.5 -34 -132.5c0 -56.667 11.5 -100.5 34.5 -131.5s55.5 -46.5 97.5 -46.5c62 0 100.333 33.333 115 100h113c-10 -62 -35 -109.833 -75 -143.5s-92 -50.5 -156 -50.5z" />
    <glyph glyph-name="Dcaron" unicode="&#x10e;" horiz-adv-x="705" 
d="M521 929l-119 -151h-114l-119 151h111l65 -91l65 91h111zM75 712h259c108 0 189.333 -30.5 244 -91.5s82 -149.167 82 -264.5c0 -113.333 -27.5 -201 -82.5 -263s-135.833 -93 -242.5 -93h-260v712zM196 103l127 0.000976562c75.333 0 130 20.167 164 60.5
s51 104.5 51 192.5c0 89.333 -17.5 154.166 -52.5 194.499s-91.833 60.5 -170.5 60.5h-119v-508z" />
    <glyph glyph-name="dcaron" unicode="&#x10f;" horiz-adv-x="798" 
d="M411 459v253h117v-712h-103l-2 73c-36 -58 -88.667 -87 -158 -87c-66.667 0 -120.667 25.667 -162 77s-62 118 -62 200c0 80 20.333 144.333 61 193c41.333 48 93.333 72 156 72c66.667 0 117.667 -23 153 -69zM620 504l48 208h130l-89 -208h-89zM285 88
c38.667 0 70.333 16 95 48s37 74 37 126c0 52.667 -12 94 -36 124c-25.333 29.333 -57.333 44 -96 44c-39.333 0 -70.666 -14.667 -93.999 -44s-35 -70.333 -35 -123c0 -53.333 11.667 -95.833 35 -127.5s54.666 -47.5 93.999 -47.5z" />
    <glyph glyph-name="Dcroat" unicode="&#x110;" horiz-adv-x="777" 
d="M147 712h260c108 0 189.333 -30.5 244 -91.5s82 -149.167 82 -264.5c0 -113.333 -27.667 -201 -83 -263s-136.333 -93 -243 -93h-260v314l-120 -5v102l120 -5v306zM269 103l127 0.000976562c75.333 0 130 20.167 164 60.5s51 104.5 51 192.5
c0 89.333 -17.5 154.166 -52.5 194.499s-91.833 60.5 -170.5 60.5h-119v-205l178 5v-102l-178 5v-211z" />
    <glyph glyph-name="dslash" unicode="&#x111;" horiz-adv-x="639" 
d="M528 666l101 3v-91l-101 3v-581h-103l-2 73c-36 -58 -88.667 -87 -158 -87c-66.667 0 -120.667 25.667 -162 77s-62 118 -62 200c0 80 20.333 144.333 61 193c41.333 48 93.333 72 156 72c66.667 0 117.667 -23 153 -69v122l-138 -3v91l138 -3v56h117v-56zM285 88
c38.667 0 70.333 16 95 48s37 74 37 126c0 52.667 -12 94 -36 124c-25.333 29.333 -57.333 44 -96 44c-39.333 0 -70.666 -14.667 -93.999 -44s-35 -70.333 -35 -123c0 -53.333 11.667 -95.833 35 -127.5s54.666 -47.5 93.999 -47.5z" />
    <glyph glyph-name="Emacron" unicode="&#x112;" horiz-adv-x="648" 
d="M162 893h342v-88h-342v88zM196 316v-213h399v-103h-520v712h511v-103h-390v-189h355v-104h-355z" />
    <glyph glyph-name="emacron" unicode="&#x113;" horiz-adv-x="581" 
d="M121 697h342v-88h-342v88zM541 255l0.000976562 -29.001h-381c2.66699 -47.333 16.167 -83.833 40.5 -109.5s57.166 -38.5 98.499 -38.5c59.333 0 99.333 28 120 84l112 -10c-16 -54 -44.167 -95.333 -84.5 -124s-89.5 -43 -147.5 -43c-80 0 -143 25.667 -189 77
c-46 50.667 -69 116.667 -69 198c0 78.667 22.333 143.334 67 194.001c45.333 50 106 75 182 75c75.333 0 136 -24.333 182 -73c46 -49.333 69 -116.333 69 -201zM383.001 404.999c-22.667 22.667 -52.667 34 -90 34c-38 0 -68.333 -11.333 -91 -34
c-24 -23.333 -37.667 -56 -41 -98h263c-5.33301 43.333 -19 76 -41 98z" />
    <glyph glyph-name="Ebreve" unicode="&#x114;" horiz-adv-x="648" 
d="M332 773c-56.667 0 -98.333 12.5 -125 37.5s-41 62.5 -43 112.5h74c2 -48.667 33.667 -73 95 -73s93 24.333 95 73h74c-5.33301 -100 -62 -150 -170 -150zM196.001 316v-213h399v-103h-520v712h511v-103h-390v-189h355v-104h-355z" />
    <glyph glyph-name="ebreve" unicode="&#x115;" horiz-adv-x="581" 
d="M291 577c-56.667 0 -98.332 12.5 -124.999 37.5s-41 62.5 -43 112.5h74c2 -49.333 33.667 -74 95 -74s93 24.667 95 74h74c-4.66699 -100 -61.334 -150 -170.001 -150zM541.002 255l0.000976562 -29.001h-381c2.66699 -47.333 16.167 -83.833 40.5 -109.5
s57.166 -38.5 98.499 -38.5c59.333 0 99.333 28 120 84l112 -10c-16 -54 -44.167 -95.333 -84.5 -124s-89.5 -43 -147.5 -43c-80 0 -143 25.667 -189 77c-46 50.667 -69 116.667 -69 198c0 78.667 22.333 143.334 67 194.001c45.333 50 106 75 182 75
c75.333 0 136 -24.333 182 -73c46 -49.333 69 -116.333 69 -201zM383.003 404.999c-22.667 22.667 -52.667 34 -90 34c-38 0 -68.333 -11.333 -91 -34c-24 -23.333 -37.667 -56 -41 -98h263c-5.33301 43.333 -19 76 -41 98z" />
    <glyph glyph-name="Edotaccent" unicode="&#x116;" horiz-adv-x="648" 
d="M274 904h117v-114h-117v114zM196 316v-213h399v-103h-520v712h511v-103h-390v-189h355v-104h-355z" />
    <glyph glyph-name="edotaccent" unicode="&#x117;" horiz-adv-x="581" 
d="M233 712h117v-114h-117v114zM541 255l0.000976562 -29.001h-381c2.66699 -47.333 16.167 -83.833 40.5 -109.5s57.166 -38.5 98.499 -38.5c59.333 0 99.333 28 120 84l112 -10c-16 -54 -44.167 -95.333 -84.5 -124s-89.5 -43 -147.5 -43c-80 0 -143 25.667 -189 77
c-46 50.667 -69 116.667 -69 198c0 78.667 22.333 143.334 67 194.001c45.333 50 106 75 182 75c75.333 0 136 -24.333 182 -73c46 -49.333 69 -116.333 69 -201zM383.001 404.999c-22.667 22.667 -52.667 34 -90 34c-38 0 -68.333 -11.333 -91 -34
c-24 -23.333 -37.667 -56 -41 -98h263c-5.33301 43.333 -19 76 -41 98z" />
    <glyph glyph-name="Eogonek" unicode="&#x118;" horiz-adv-x="648" 
d="M595 0l-59.001 -44c-24 -18 -36 -35.667 -36 -53c0 -25.333 18.333 -38 55 -38h34v-76h-70c-83.333 0 -125 30 -125 90c0 21.333 6.33301 40.5 19 57.5s34.334 35.167 65.001 54.5l15 9h-418v712h511v-103h-390v-189h355v-104h-355v-213h399v-103z" />
    <glyph glyph-name="eogonek" unicode="&#x119;" horiz-adv-x="581" 
d="M541 255l0.000976562 -29.001h-381c2.66699 -47.333 16.167 -83.833 40.5 -109.5s57.166 -38.5 98.499 -38.5c59.333 0 99.333 28 120 84l112 -10c-20.667 -72.667 -64 -122 -130 -148l-54 -41c-24 -18 -36 -35.667 -36 -53c0 -25.333 18.333 -38 55 -38h34v-76h-70
c-83.333 0 -125 30 -125 90c0 36 22 69.333 66 100c-72 6.66699 -128.333 35 -169 85c-40.667 49.333 -61 112.333 -61 189c0 78.667 22.333 143.334 67 194.001c45.333 50 106 75 182 75c75.333 0 136 -24.333 182 -73c46 -49.333 69 -116.333 69 -201zM383.001 404.999
c-22.667 22.667 -52.667 34 -90 34c-38 0 -68.333 -11.333 -91 -34c-24 -23.333 -37.667 -56 -41 -98h263c-5.33301 43.333 -19 76 -41 98z" />
    <glyph glyph-name="Ecaron" unicode="&#x11a;" horiz-adv-x="648" 
d="M509 929l-119 -151h-114l-119 151h111l65 -91l65 91h111zM196 316v-213h399v-103h-520v712h511v-103h-390v-189h355v-104h-355z" />
    <glyph glyph-name="ecaron" unicode="&#x11b;" horiz-adv-x="581" 
d="M468 727l-119 -151h-114l-119 151h111l65 -91l65 91h111zM541 255l0.000976562 -29.001h-381c2.66699 -47.333 16.167 -83.833 40.5 -109.5s57.166 -38.5 98.499 -38.5c59.333 0 99.333 28 120 84l112 -10c-16 -54 -44.167 -95.333 -84.5 -124s-89.5 -43 -147.5 -43
c-80 0 -143 25.667 -189 77c-46 50.667 -69 116.667 -69 198c0 78.667 22.333 143.334 67 194.001c45.333 50 106 75 182 75c75.333 0 136 -24.333 182 -73c46 -49.333 69 -116.333 69 -201zM383.001 404.999c-22.667 22.667 -52.667 34 -90 34
c-38 0 -68.333 -11.333 -91 -34c-24 -23.333 -37.667 -56 -41 -98h263c-5.33301 43.333 -19 76 -41 98z" />
    <glyph glyph-name="Gcircumflex" unicode="&#x11c;" horiz-adv-x="774" 
d="M454 777l-65 91l-65 -91h-111l119 151h114l119 -151h-111zM667 383l-1.00098 -6l33 6v-383h-82l-23 88c-45.333 -69.333 -116.666 -104 -213.999 -104c-96 0 -175 34 -237 102c-62.667 66.667 -94 157 -94 271c0 112.667 31 202.667 93 270
c60.667 66.667 142.334 100 245.001 100c84 0 152.667 -20.333 206 -61s85.666 -97 96.999 -169l-118 -8c-8 42.667 -27.833 75.5 -59.5 98.5s-71.5 34.5 -119.5 34.5c-70 0 -124.5 -23.667 -163.5 -71s-58.5 -112.333 -58.5 -195c0 -82 19.333 -147.333 58 -196
c39.333 -49.333 92.666 -74 159.999 -74c54 0 98.833 16 134.5 48s57.834 76.667 66.501 134v12h-193v103h270z" />
    <glyph glyph-name="gcircumflex" unicode="&#x11d;" horiz-adv-x="600" 
d="M340 581l-65 91l-65 -91h-111l119 151h114l119 -151h-111zM423 443l2.00293 73.001h106v-511c0 -72.667 -21.333 -127.667 -64 -165s-102.667 -56 -180 -56c-68 0 -121.5 13.833 -160.5 41.5s-61.5 68.167 -67.5 121.5h110c10 -49.333 49 -74 117 -74
c45.333 0 78.166 10.167 98.499 30.5s30.5 52.5 30.5 96.5v68c-36 -48.667 -86.333 -73 -151 -73c-66.667 0 -120.334 25.333 -161.001 76c-41.333 50.667 -62 116 -62 196c0 79.333 20.667 142.666 62 189.999s94.666 71 159.999 71c72.667 0 126 -28.333 160 -85z
M285.003 95.001c38.667 0 70.333 15.666 95 46.999s37 72.666 37 123.999c0 52.667 -12 93.334 -36 122.001c-25.333 29.333 -57.333 44 -96 44c-39.333 0 -70.666 -14.667 -93.999 -44s-35 -69.666 -35 -120.999c0 -52.667 11.667 -94.5 35 -125.5
s54.666 -46.5 93.999 -46.5z" />
    <glyph glyph-name="Gbreve" unicode="&#x11e;" horiz-adv-x="774" 
d="M388 773c-56.667 0 -98.333 12.5 -125 37.5s-41 62.5 -43 112.5h74c2 -48.667 33.667 -73 95 -73s93 24.333 95 73h74c-5.33301 -100 -62 -150 -170 -150zM667.001 383l-1.00098 -6l33 6v-383h-82l-23 88c-45.333 -69.333 -116.666 -104 -213.999 -104
c-96 0 -175 34 -237 102c-62.667 66.667 -94 157 -94 271c0 112.667 31 202.667 93 270c60.667 66.667 142.334 100 245.001 100c84 0 152.667 -20.333 206 -61s85.666 -97 96.999 -169l-118 -8c-8 42.667 -27.833 75.5 -59.5 98.5s-71.5 34.5 -119.5 34.5
c-70 0 -124.5 -23.667 -163.5 -71s-58.5 -112.333 -58.5 -195c0 -82 19.333 -147.333 58 -196c39.333 -49.333 92.666 -74 159.999 -74c54 0 98.833 16 134.5 48s57.834 76.667 66.501 134v12h-193v103h270z" />
    <glyph glyph-name="gbreve" unicode="&#x11f;" horiz-adv-x="600" 
d="M274 577c-56.667 0 -98.333 12.5 -125 37.5s-41 62.5 -43 112.5h74c2 -49.333 33.667 -74 95 -74s93 24.667 95 74h74c-5.33301 -100 -62 -150 -170 -150zM423.001 443l2.00293 73.001h106v-511c0 -72.667 -21.333 -127.667 -64 -165s-102.667 -56 -180 -56
c-68 0 -121.5 13.833 -160.5 41.5s-61.5 68.167 -67.5 121.5h110c10 -49.333 49 -74 117 -74c45.333 0 78.166 10.167 98.499 30.5s30.5 52.5 30.5 96.5v68c-36 -48.667 -86.333 -73 -151 -73c-66.667 0 -120.334 25.333 -161.001 76c-41.333 50.667 -62 116 -62 196
c0 79.333 20.667 142.666 62 189.999s94.666 71 159.999 71c72.667 0 126 -28.333 160 -85zM285.004 95.001c38.667 0 70.333 15.666 95 46.999s37 72.666 37 123.999c0 52.667 -12 93.334 -36 122.001c-25.333 29.333 -57.333 44 -96 44
c-39.333 0 -70.666 -14.667 -93.999 -44s-35 -69.666 -35 -120.999c0 -52.667 11.667 -94.5 35 -125.5s54.666 -46.5 93.999 -46.5z" />
    <glyph glyph-name="Gdotaccent" unicode="&#x120;" horiz-adv-x="774" 
d="M330 904h117v-114h-117v114zM667 383l-1.00098 -6l33 6v-383h-82l-23 88c-45.333 -69.333 -116.666 -104 -213.999 -104c-96 0 -175 34 -237 102c-62.667 66.667 -94 157 -94 271c0 112.667 31 202.667 93 270c60.667 66.667 142.334 100 245.001 100
c84 0 152.667 -20.333 206 -61s85.666 -97 96.999 -169l-118 -8c-8 42.667 -27.833 75.5 -59.5 98.5s-71.5 34.5 -119.5 34.5c-70 0 -124.5 -23.667 -163.5 -71s-58.5 -112.333 -58.5 -195c0 -82 19.333 -147.333 58 -196c39.333 -49.333 92.666 -74 159.999 -74
c54 0 98.833 16 134.5 48s57.834 76.667 66.501 134v12h-193v103h270z" />
    <glyph glyph-name="gdotaccent" unicode="&#x121;" horiz-adv-x="600" 
d="M216 712h117v-114h-117v114zM423 443l2.00293 73.001h106v-511c0 -72.667 -21.333 -127.667 -64 -165s-102.667 -56 -180 -56c-68 0 -121.5 13.833 -160.5 41.5s-61.5 68.167 -67.5 121.5h110c10 -49.333 49 -74 117 -74c45.333 0 78.166 10.167 98.499 30.5
s30.5 52.5 30.5 96.5v68c-36 -48.667 -86.333 -73 -151 -73c-66.667 0 -120.334 25.333 -161.001 76c-41.333 50.667 -62 116 -62 196c0 79.333 20.667 142.666 62 189.999s94.666 71 159.999 71c72.667 0 126 -28.333 160 -85zM285.003 95.001
c38.667 0 70.333 15.666 95 46.999s37 72.666 37 123.999c0 52.667 -12 93.334 -36 122.001c-25.333 29.333 -57.333 44 -96 44c-39.333 0 -70.666 -14.667 -93.999 -44s-35 -69.666 -35 -120.999c0 -52.667 11.667 -94.5 35 -125.5s54.666 -46.5 93.999 -46.5z" />
    <glyph glyph-name="uni0122" unicode="&#x122;" horiz-adv-x="774" 
d="M667 383l-1.00098 -6l33 6v-383h-82l-23 88c-45.333 -69.333 -116.666 -104 -213.999 -104c-96 0 -175 34 -237 102c-62.667 66.667 -94 157 -94 271c0 112.667 31 202.667 93 270c60.667 66.667 142.334 100 245.001 100c84 0 152.667 -20.333 206 -61
s85.666 -97 96.999 -169l-118 -8c-8 42.667 -27.833 75.5 -59.5 98.5s-71.5 34.5 -119.5 34.5c-70 0 -124.5 -23.667 -163.5 -71s-58.5 -112.333 -58.5 -195c0 -82 19.333 -147.333 58 -196c39.333 -49.333 92.666 -74 159.999 -74c54 0 98.833 16 134.5 48
s57.834 76.667 66.501 134v12h-193v103h270zM397.999 -158l-86 -2v97h135v-118c0 -62 -31.667 -93 -95 -93h-40v46h40c30.667 0 46 14.333 46 43v27z" />
    <glyph glyph-name="uni0123" unicode="&#x123;" horiz-adv-x="600" 
d="M263 681l85 7v-90h-134v100c0 61.333 31.333 92 94 92h40v-45h-40c-30 0 -45 -14.333 -45 -43v-21zM423 443l2.00293 73.001h106v-511c0 -72.667 -21.333 -127.667 -64 -165s-102.667 -56 -180 -56c-68 0 -121.5 13.833 -160.5 41.5s-61.5 68.167 -67.5 121.5h110
c10 -49.333 49 -74 117 -74c45.333 0 78.166 10.167 98.499 30.5s30.5 52.5 30.5 96.5v68c-36 -48.667 -86.333 -73 -151 -73c-66.667 0 -120.334 25.333 -161.001 76c-41.333 50.667 -62 116 -62 196c0 79.333 20.667 142.666 62 189.999s94.666 71 159.999 71
c72.667 0 126 -28.333 160 -85zM285.003 95.001c38.667 0 70.333 15.666 95 46.999s37 72.666 37 123.999c0 52.667 -12 93.334 -36 122.001c-25.333 29.333 -57.333 44 -96 44c-39.333 0 -70.666 -14.667 -93.999 -44s-35 -69.666 -35 -120.999
c0 -52.667 11.667 -94.5 35 -125.5s54.666 -46.5 93.999 -46.5z" />
    <glyph glyph-name="Hcircumflex" unicode="&#x124;" horiz-adv-x="718" 
d="M424 777l-65 91l-65 -91h-111l119 151h114l119 -151h-111zM522 428v284h121v-712h-121v321h-326v-321h-121v712h121v-284h326z" />
    <glyph glyph-name="hcircumflex" unicode="&#x125;" horiz-adv-x="586" 
d="M305 777h-111l-65 91l-65 -91h-111l119 151h114zM344 529c54 0 96.168 -15.668 126.501 -47.001s45.5 -74.666 45.5 -129.999v-352h-117v327c0 65.333 -29.667 98 -89 98c-36.667 0 -66.334 -12.5 -89.001 -37.5s-34 -60.5 -34 -106.5v-281h-117v712h117v-263
c36 53.333 88.333 80 157 80z" />
    <glyph glyph-name="Hbar" unicode="&#x126;" horiz-adv-x="718" 
d="M522 613v99h121v-712h-121v299h-326v-299h-121v712h121v-99h326zM196 507v-102h326v102h-326z" />
    <glyph glyph-name="hbar" unicode="&#x127;" horiz-adv-x="616" 
d="M374 529c53.333 0 95.334 -15.668 126.001 -47.001s46 -74.666 46 -129.999v-352h-117v327c0 65.333 -29.667 98 -89 98c-36.667 0 -66.334 -12.5 -89.001 -37.5s-34 -60.5 -34 -106.5v-281h-117v582l-90 -3v88l90 -3v48h117v-49l141 4v-88l-141 4v-134
c36 53.333 88.333 80 157 80z" />
    <glyph glyph-name="Itilde" unicode="&#x128;" horiz-adv-x="271" 
d="M23 787h-89.001c0 54.667 10.667 96 32 124s51 42 89 42c20 0 39.833 -5.66699 59.5 -17s37.167 -22.666 52.5 -33.999s28 -17 38 -17c28 0 42.667 22.667 44 68h89c0 -110.667 -40.333 -166 -121 -166c-20 0 -39.667 5.66699 -59 17s-36.666 22.666 -51.999 33.999
s-28.333 17 -39 17c-28 0 -42.667 -22.667 -44 -68zM195.999 0h-121v712h121v-712z" />
    <glyph glyph-name="itilde" unicode="&#x129;" horiz-adv-x="257" 
d="M16 591h-89.001c0 54.667 10.667 96 32 124s51 42 89 42c20 0 39.833 -5.66699 59.5 -17s37.167 -22.666 52.5 -33.999s28 -17 38 -17c28 0 42.667 22.667 44 68h89c0 -110.667 -40.333 -166 -121 -166c-20 0 -39.667 5.66699 -59 17s-36.666 22.666 -51.999 33.999
s-28.333 17 -39 17c-28 0 -42.667 -22.667 -44 -68zM186.999 0h-117v516h117v-516z" />
    <glyph glyph-name="Imacron" unicode="&#x12a;" horiz-adv-x="271" 
d="M307 805h-342v88h342v-88zM196 0h-121v712h121v-712z" />
    <glyph glyph-name="imacron" unicode="&#x12b;" horiz-adv-x="257" 
d="M300 609h-342v88h342v-88zM187 0h-117v516h117v-516z" />
    <glyph glyph-name="Ibreve" unicode="&#x12c;" horiz-adv-x="271" 
d="M135 773c-56.667 0 -98.332 12.5 -124.999 37.5s-41 62.5 -43 112.5h74c2 -48.667 33.667 -73 95 -73s93 24.333 95 73h74c-4.66699 -100 -61.334 -150 -170.001 -150zM196.002 0h-121v712h121v-712z" />
    <glyph glyph-name="ibreve" unicode="&#x12d;" horiz-adv-x="257" 
d="M128 577c-56.667 0 -98.333 12.5 -125 37.5s-41 62.5 -43 112.5h74c2 -49.333 33.667 -74 95 -74s93 24.667 95 74h74c-5.33301 -100 -62 -150 -170 -150zM187.001 0h-117v516h117v-516z" />
    <glyph glyph-name="Iogonek" unicode="&#x12e;" horiz-adv-x="271" 
d="M196 0l-53 -48c-20.667 -18 -31 -34.667 -31 -50c0 -24.667 16.667 -37 50 -37h34v-76h-59c-40.667 0 -71.667 7.66699 -93 23s-32 37.333 -32 66c0 19.333 5.5 36.833 16.5 52.5s32.5 37.167 64.5 64.5l6 5h-24v712h121v-712z" />
    <glyph glyph-name="iogonek" unicode="&#x12f;" horiz-adv-x="257" 
d="M70 598v114h117v-114h-117zM90 0h-20.001v516h117v-516l-53 -48c-20.667 -18 -31 -34.667 -31 -50c0 -24.667 16.667 -37 50 -37h34v-76h-59c-41.333 0 -72.666 7.83301 -93.999 23.5s-32 37.5 -32 65.5c0 19.333 5.66699 36.833 17 52.5s33 37.167 65 64.5z" />
    <glyph glyph-name="Idot" unicode="&#x130;" horiz-adv-x="271" 
d="M194 790h-117v114h117v-114zM196 0h-121v712h121v-712z" />
    <glyph glyph-name="dotlessi" unicode="&#x131;" horiz-adv-x="257" 
d="M187 0h-117v516h117v-516z" />
    <glyph glyph-name="IJ" unicode="&#x132;" horiz-adv-x="824" 
d="M196 0h-121v712h121v-712zM693 41c-36.667 -36.667 -90 -55.002 -160 -55.002c-68.667 0 -122.667 18.667 -162 56c-38.667 36.667 -58 88.334 -58 155.001v58h117v-56c0 -71.333 34 -107 102 -107c64 0 96 35.667 96 107v513h121v-514
c0 -67.333 -18.667 -119.666 -56 -156.999z" />
    <glyph glyph-name="ij" unicode="&#x133;" horiz-adv-x="513" 
d="M187 598h-117v114h117v-114zM444 598h-117v114h117v-114zM187 0h-117v516h117v-516zM298 -204l-59 0.000976562v101h30c22 0 37.167 3.83301 45.5 11.5s12.5 21.5 12.5 41.5v566h117v-570c0 -52.667 -11.5 -90.834 -34.5 -114.501s-60.167 -35.5 -111.5 -35.5z" />
    <glyph glyph-name="Jcircumflex" unicode="&#x134;" horiz-adv-x="561" 
d="M361 777h-111l119 151h114l119 -151h-111l-65 91zM430 41c-36.667 -36.667 -90 -55.002 -160 -55.002c-68.667 0 -122.667 18.667 -162 56c-38.667 36.667 -58 88.334 -58 155.001v58h117v-56c0 -71.333 34 -107 102 -107c64 0 96 35.667 96 107v513h121v-514
c0 -67.333 -18.667 -119.666 -56 -156.999z" />
    <glyph glyph-name="jcircumflex" unicode="&#x135;" horiz-adv-x="257" 
d="M62 581h-111l119 151h114l119 -151h-111l-65 91zM41 -204l-59 0.000976562v101h30c22 0 37.167 3.83301 45.5 11.5s12.5 21.5 12.5 41.5v566h117v-570c0 -52.667 -11.5 -90.834 -34.5 -114.501s-60.167 -35.5 -111.5 -35.5z" />
    <glyph glyph-name="uni0136" unicode="&#x136;" horiz-adv-x="703" 
d="M659 712l-285 -286l312 -426h-151l-247 346l-92 -91v-255h-121v712h121v-311l306 311h157zM374 -158l-86 -2v97h135v-118c0 -62 -31.667 -93 -95 -93h-40v46h40c30.667 0 46 14.333 46 43v27z" />
    <glyph glyph-name="uni0137" unicode="&#x137;" horiz-adv-x="568" 
d="M535 516l-204 -197l213 -319h-138l-156 247l-63 -61v-186h-117v712h117v-402l201 206h147zM301 -158l-86 -2v97h135v-118c0 -62 -31.667 -93 -95 -93h-40v46h40c30.667 0 46 14.333 46 43v27z" />
    <glyph glyph-name="kgreenlandic" unicode="&#x138;" horiz-adv-x="568" 
d="M544 0h-138l-156 238l-63 -62v-176h-117v516h117v-215l201 215h147l-204 -205z" />
    <glyph glyph-name="Lacute" unicode="&#x139;" horiz-adv-x="584" 
d="M144 920h150l-129 -148h-88zM196 712v-605h359v-107h-480v712h121z" />
    <glyph glyph-name="lacute" unicode="&#x13a;" horiz-adv-x="257" 
d="M147 772h-88l67 148h150zM187 0h-117v712h117v-712z" />
    <glyph glyph-name="uni013B" unicode="&#x13b;" horiz-adv-x="584" 
d="M196 712v-605h359v-107h-480v712h121zM336 -158l-86 -2v97h135v-118c0 -62 -31.667 -93 -95 -93h-40v46h40c30.667 0 46 14.333 46 43v27z" />
    <glyph glyph-name="uni013C" unicode="&#x13c;" horiz-adv-x="257" 
d="M70 712h117v-712h-117v712zM61 -160v97h135v-118c0 -62 -31.667 -93 -95 -93h-40v46h40c30.667 0 46 14.333 46 43v27z" />
    <glyph glyph-name="Lcaron" unicode="&#x13d;" horiz-adv-x="584" 
d="M196 712v-605h359v-107h-480v712h121zM368 712h131l-90 -208h-89z" />
    <glyph glyph-name="lcaron" unicode="&#x13e;" horiz-adv-x="448" 
d="M187 0h-117v712h117v-712zM358 504h-89l48 208h131z" />
    <glyph glyph-name="Ldot" unicode="&#x13f;" horiz-adv-x="584" 
d="M196 712v-605h359v-107h-480v712h121zM331 451h128v-126h-128v126z" />
    <glyph glyph-name="ldot" unicode="&#x140;" horiz-adv-x="397" 
d="M187 0h-117v712h117v-712zM377 294h-128v126h128v-126z" />
    <glyph glyph-name="Lslash" unicode="&#x141;" horiz-adv-x="683" 
d="M295 326v-219h358v-107h-479v267l-133 -67v105l133 61v346h121v-287l251 125v-105z" />
    <glyph glyph-name="lslash" unicode="&#x142;" horiz-adv-x="372" 
d="M245 455l87 51v-112l-87 -42v-352h-117v288l-87 -51v111l87 43v321h117v-257z" />
    <glyph glyph-name="Nacute" unicode="&#x143;" horiz-adv-x="720" 
d="M357 920h150l-129 -148h-88zM527 192v520h118v-712h-126l-326 518v-518h-118v712h124z" />
    <glyph glyph-name="nacute" unicode="&#x144;" horiz-adv-x="586" 
d="M295 724h150l-129 -148h-88zM344 529c54 0 96.168 -15.668 126.501 -47.001s45.5 -74.666 45.5 -129.999v-352h-117v327c0 65.333 -29.667 98 -89 98c-36.667 0 -66.334 -12.5 -89.001 -37.5s-34 -60.5 -34 -106.5v-281h-117v516h112l2 -72c36 56.667 89.333 85 160 85z
" />
    <glyph glyph-name="uni0145" unicode="&#x145;" horiz-adv-x="720" 
d="M527 192v520h118v-712h-126l-326 518v-518h-118v712h124zM382 -158l-86 -2v97h135v-118c0 -62 -31.667 -93 -95 -93h-40v46h40c30.667 0 46 14.333 46 43v27z" />
    <glyph glyph-name="uni0146" unicode="&#x146;" horiz-adv-x="586" 
d="M344 529c54 0 96.168 -15.668 126.501 -47.001s45.5 -74.666 45.5 -129.999v-352h-117v327c0 65.333 -29.667 98 -89 98c-36.667 0 -66.334 -12.5 -89.001 -37.5s-34 -60.5 -34 -106.5v-281h-117v516h112l2 -72c36 56.667 89.333 85 160 85zM307.001 -158.001l-86 -2v97
h135v-118c0 -62 -31.667 -93 -95 -93h-40v46h40c30.667 0 46 14.333 46 43v27z" />
    <glyph glyph-name="Ncaron" unicode="&#x147;" horiz-adv-x="720" 
d="M536 929l-119 -151h-114l-119 151h111l65 -91l65 91h111zM527 192v520h118v-712h-126l-326 518v-518h-118v712h124z" />
    <glyph glyph-name="ncaron" unicode="&#x148;" horiz-adv-x="586" 
d="M474 727l-119 -151h-114l-119 151h111l65 -91l65 91h111zM344 529c54 0 96.168 -15.668 126.501 -47.001s45.5 -74.666 45.5 -129.999v-352h-117v327c0 65.333 -29.667 98 -89 98c-36.667 0 -66.334 -12.5 -89.001 -37.5s-34 -60.5 -34 -106.5v-281h-117v516h112l2 -72
c36 56.667 89.333 85 160 85z" />
    <glyph glyph-name="napostrophe" unicode="&#x149;" horiz-adv-x="806" 
d="M107 589l-72 -3v126h137v-157c0 -80 -40.667 -120 -122 -120h-14v57h14c38 0 57 19 57 57v40zM565 529c53.333 0 95.332 -15.668 125.999 -47.001s46 -74.666 46 -129.999v-352h-117v327c0 65.333 -29.667 98 -89 98c-36.667 0 -66.5 -12.5 -89.5 -37.5
s-34.5 -60.5 -34.5 -106.5v-281h-117v516h113l1 -74c34.667 58 88.334 87 161.001 87z" />
    <glyph glyph-name="Eng" unicode="&#x14a;" horiz-adv-x="720" 
d="M527 203v508.999h118v-766c0 -53.333 -11.167 -91.666 -33.5 -114.999s-58.833 -35 -109.5 -35h-68v101h35c22 0 37.167 3.83301 45.5 11.5s12.5 21.5 12.5 41.5v53l-334 519v-522h-118v712h124z" />
    <glyph glyph-name="eng" unicode="&#x14b;" horiz-adv-x="586" 
d="M344 529c54 0 96.168 -15.667 126.501 -47s45.5 -74.666 45.5 -129.999v-406c0 -52.667 -11.333 -90.834 -34 -114.501s-59.667 -35.5 -111 -35.5h-59v101h29c22 0 37.167 3.83301 45.5 11.5s12.5 21.5 12.5 41.5v377c0 65.333 -29.667 98 -89 98
c-36.667 0 -66.334 -12.5 -89.001 -37.5s-34 -60.5 -34 -106.5v-281h-117v516h112l2 -72c36 56.667 89.333 85 160 85z" />
    <glyph glyph-name="Omacron" unicode="&#x14c;" horiz-adv-x="773" 
d="M557 805h-342v88h342v-88zM385 -20c-98 0 -178.332 34.999 -240.999 104.999c-63.333 69.333 -95 160 -95 272c0 110 31.667 199.333 95 268c63.333 68 143.666 102 240.999 102c98.667 0 180 -34 244 -102c63.333 -69.333 95 -158.666 95 -267.999
c0 -112 -31.667 -202.667 -95 -272c-64 -70 -145.333 -105 -244 -105zM386.001 85.999c64.667 0 117 24.667 157 74c39.333 49.333 59 115 59 197c0 78.667 -19.667 142.667 -59 192c-40 48 -92.333 72 -157 72c-65.333 0 -117.333 -24 -156 -72
c-39.333 -49.333 -59 -113.333 -59 -192c0 -82 19.667 -147.667 59 -197s91.333 -74 156 -74z" />
    <glyph glyph-name="omacron" unicode="&#x14d;" horiz-adv-x="594" 
d="M470 609h-342v88h342v-88zM482 62c-48 -51.333 -109.666 -76.999 -184.999 -76.999c-76 0 -137.333 25.333 -184 76c-48 51.333 -72 116.666 -72 195.999c0 80.667 24 146.334 72 197.001c48 50 110 75 186 75c75.333 0 136.666 -25 183.999 -75
c47.333 -50.667 71 -115.667 71 -195c0 -80.667 -24 -146.334 -72 -197.001zM297.001 79.001c44 0 78.834 16.332 104.501 48.999s38.5 76.334 38.5 131.001s-12.667 97.667 -38 129s-60.333 47 -105 47c-44 0 -78.5 -16 -103.5 -48s-37.5 -75.333 -37.5 -130
c0 -54 12.667 -97.167 38 -129.5s59.666 -48.5 102.999 -48.5z" />
    <glyph glyph-name="Obreve" unicode="&#x14e;" horiz-adv-x="773" 
d="M385 773c-56.667 0 -98.332 12.5 -124.999 37.5s-41 62.5 -43 112.5h74c2 -48.667 33.667 -73 95 -73s93 24.333 95 73h74c-4.66699 -100 -61.334 -150 -170.001 -150zM385.002 -20c-98 0 -178.332 34.999 -240.999 104.999c-63.333 69.333 -95 160 -95 272
c0 110 31.667 199.333 95 268c63.333 68 143.666 102 240.999 102c98.667 0 180 -34 244 -102c63.333 -69.333 95 -158.666 95 -267.999c0 -112 -31.667 -202.667 -95 -272c-64 -70 -145.333 -105 -244 -105zM386.003 85.999c64.667 0 117 24.667 157 74
c39.333 49.333 59 115 59 197c0 78.667 -19.667 142.667 -59 192c-40 48 -92.333 72 -157 72c-65.333 0 -117.333 -24 -156 -72c-39.333 -49.333 -59 -113.333 -59 -192c0 -82 19.667 -147.667 59 -197s91.333 -74 156 -74z" />
    <glyph glyph-name="obreve" unicode="&#x14f;" horiz-adv-x="594" 
d="M298 577c-56.667 0 -98.333 12.5 -125 37.5s-41 62.5 -43 112.5h74c2 -49.333 33.667 -74 95 -74s93 24.667 95 74h74c-5.33301 -100 -62 -150 -170 -150zM482.001 62c-48 -51.333 -109.666 -76.999 -184.999 -76.999c-76 0 -137.333 25.333 -184 76
c-48 51.333 -72 116.666 -72 195.999c0 80.667 24 146.334 72 197.001c48 50 110 75 186 75c75.333 0 136.666 -25 183.999 -75c47.333 -50.667 71 -115.667 71 -195c0 -80.667 -24 -146.334 -72 -197.001zM297.002 79.001c44 0 78.834 16.332 104.501 48.999
s38.5 76.334 38.5 131.001s-12.667 97.667 -38 129s-60.333 47 -105 47c-44 0 -78.5 -16 -103.5 -48s-37.5 -75.333 -37.5 -130c0 -54 12.667 -97.167 38 -129.5s59.666 -48.5 102.999 -48.5z" />
    <glyph glyph-name="Ohungarumlaut" unicode="&#x150;" horiz-adv-x="773" 
d="M310 772h-86l73 158h131zM504 772h-87l79 158h130zM385 -20c-98 0 -178.332 34.999 -240.999 104.999c-63.333 69.333 -95 160 -95 272c0 110 31.667 199.333 95 268c63.333 68 143.666 102 240.999 102c98.667 0 180 -34 244 -102
c63.333 -69.333 95 -158.666 95 -267.999c0 -112 -31.667 -202.667 -95 -272c-64 -70 -145.333 -105 -244 -105zM386.001 85.999c64.667 0 117 24.667 157 74c39.333 49.333 59 115 59 197c0 78.667 -19.667 142.667 -59 192c-40 48 -92.333 72 -157 72
c-65.333 0 -117.333 -24 -156 -72c-39.333 -49.333 -59 -113.333 -59 -192c0 -82 19.667 -147.667 59 -197s91.333 -74 156 -74z" />
    <glyph glyph-name="ohungarumlaut" unicode="&#x151;" horiz-adv-x="594" 
d="M223 576h-86l73 158h131zM417 576h-87l79 158h130zM482 62c-48 -51.333 -109.666 -76.999 -184.999 -76.999c-76 0 -137.333 25.333 -184 76c-48 51.333 -72 116.666 -72 195.999c0 80.667 24 146.334 72 197.001c48 50 110 75 186 75c75.333 0 136.666 -25 183.999 -75
c47.333 -50.667 71 -115.667 71 -195c0 -80.667 -24 -146.334 -72 -197.001zM297.001 79.001c44 0 78.834 16.332 104.501 48.999s38.5 76.334 38.5 131.001s-12.667 97.667 -38 129s-60.333 47 -105 47c-44 0 -78.5 -16 -103.5 -48s-37.5 -75.333 -37.5 -130
c0 -54 12.667 -97.167 38 -129.5s59.666 -48.5 102.999 -48.5z" />
    <glyph glyph-name="OE" unicode="&#x152;" horiz-adv-x="1175" 
d="M723 316v-213h399v-103h-520v85c-53.333 -68 -127 -102 -221 -102c-96.667 0 -176 34.333 -238 103c-62.667 68.667 -94 158.667 -94 270c0 110.667 31.333 199.667 94 267c62 67.333 141.667 101 239 101c94.667 0 168 -32.667 220 -98v86h511v-103h-390v-189h355v-104
h-355zM388 86c66 0 118.168 23.8301 156.501 71.4971s57.5 113.834 57.5 198.501c0 82.667 -19.333 147.5 -58 194.5s-90.667 70.5 -156 70.5c-66.667 0 -119.334 -24 -158.001 -72c-39.333 -49.333 -59 -113.666 -59 -192.999c0 -81.333 19.667 -146.666 59 -195.999
s92 -74 158 -74z" />
    <glyph glyph-name="oe" unicode="&#x153;" horiz-adv-x="979" 
d="M939 255l0.00292969 -29h-381c2.66699 -47.333 16.167 -83.833 40.5 -109.5s57.166 -38.5 98.499 -38.5c59.333 0 99.666 28 120.999 84l112 -10c-16.667 -54 -45.167 -95.333 -85.5 -124s-89.5 -43 -147.5 -43c-87.333 0 -154.333 31.333 -201 94
c-48.667 -62.667 -115 -94 -199 -94c-76 0 -137.333 25.333 -184 76c-48 51.333 -72 116.666 -72 195.999c0 80.667 24 146.334 72 197.001c48 50 110 75 186 75c82.667 0 148 -29.667 196 -89c47.333 59.333 111.666 89 192.999 89c75.333 0 136 -24.333 182 -73
c46 -49.333 69 -116.333 69 -201zM691.003 439c-36.667 0 -66.832 -11.6689 -90.499 -35.002s-37.5 -55.666 -41.5 -96.999h263c-4.66699 42.667 -18.334 75.334 -41.001 98.001s-52.667 34 -90 34zM297.005 78.998c44 0 78.834 16.332 104.501 48.999
s38.5 76.334 38.5 131.001s-12.667 97.667 -38 129s-60.333 47 -105 47c-44 0 -78.5 -16 -103.5 -48s-37.5 -75.333 -37.5 -130c0 -54 12.667 -97.167 38 -129.5s59.666 -48.5 102.999 -48.5z" />
    <glyph glyph-name="Racute" unicode="&#x154;" horiz-adv-x="696" 
d="M342 920h150l-129 -148h-88zM603 226l28 -226.002h-124l-19 186c-3.33301 38 -14 65 -32 81s-46.667 24 -86 24h-174v-291h-121v712h331c71.333 0 126 -17.333 164 -52s57 -81.334 57 -140.001c0 -45.333 -11.333 -83.166 -34 -113.499s-55 -51.166 -97 -62.499
c63.333 -13.333 99 -52.666 107 -117.999zM196 391.998h172.998c44.667 0 78.834 10 102.501 30s35.5 47.667 35.5 83c0 32.667 -10.167 58.167 -30.5 76.5s-50.166 27.5 -89.499 27.5h-191v-217z" />
    <glyph glyph-name="racute" unicode="&#x155;" horiz-adv-x="373" 
d="M213 724h150l-129 -148h-88zM182 516l-2 -94c27.333 73.333 75 110 143 110c11.333 0 22.333 -1 33 -3v-111c-20 1.33301 -30.333 2 -31 2c-41.333 0 -74.5 -13.5 -99.5 -40.5s-37.833 -64.833 -38.5 -113.5v-266h-117v516h112z" />
    <glyph glyph-name="uni0156" unicode="&#x156;" horiz-adv-x="696" 
d="M603 226l28 -226.002h-124l-19 186c-3.33301 38 -14 65 -32 81s-46.667 24 -86 24h-174v-291h-121v712h331c71.333 0 126 -17.333 164 -52s57 -81.334 57 -140.001c0 -45.333 -11.333 -83.166 -34 -113.499s-55 -51.166 -97 -62.499
c63.333 -13.333 99 -52.666 107 -117.999zM196 391.998h172.998c44.667 0 78.834 10 102.501 30s35.5 47.667 35.5 83c0 32.667 -10.167 58.167 -30.5 76.5s-50.166 27.5 -89.499 27.5h-191v-217zM369.998 -158.002l-86 -2v97h135v-118c0 -62 -31.667 -93 -95 -93h-40v46h40
c30.667 0 46 14.333 46 43v27z" />
    <glyph glyph-name="uni0157" unicode="&#x157;" horiz-adv-x="373" 
d="M323 532c11.333 0 22.333 -1 33 -3v-111c-20 1.33301 -30.333 2 -31 2c-41.333 0 -74.5 -13.5 -99.5 -40.5s-37.833 -64.833 -38.5 -113.5v-266h-117v516h112l-2 -94c27.333 73.333 75 110 143 110zM147 -158l-86 -2v97h135v-118c0 -62 -31.667 -93 -95 -93h-40v46h40
c30.667 0 46 14.333 46 43v27z" />
    <glyph glyph-name="Rcaron" unicode="&#x158;" horiz-adv-x="696" 
d="M521 929l-119 -151h-114l-119 151h111l65 -91l65 91h111zM603 226l28 -226.002h-124l-19 186c-3.33301 38 -14 65 -32 81s-46.667 24 -86 24h-174v-291h-121v712h331c71.333 0 126 -17.333 164 -52s57 -81.334 57 -140.001c0 -45.333 -11.333 -83.166 -34 -113.499
s-55 -51.166 -97 -62.499c63.333 -13.333 99 -52.666 107 -117.999zM196 391.998h172.998c44.667 0 78.834 10 102.501 30s35.5 47.667 35.5 83c0 32.667 -10.167 58.167 -30.5 76.5s-50.166 27.5 -89.499 27.5h-191v-217z" />
    <glyph glyph-name="rcaron" unicode="&#x159;" horiz-adv-x="373" 
d="M392 727l-119 -151h-114l-119 151h111l65 -91l65 91h111zM182 516l-2 -94c27.333 73.333 75 110 143 110c11.333 0 22.333 -1 33 -3v-111c-20 1.33301 -30.333 2 -31 2c-41.333 0 -74.5 -13.5 -99.5 -40.5s-37.833 -64.833 -38.5 -113.5v-266h-117v516h112z" />
    <glyph glyph-name="Sacute" unicode="&#x15a;" horiz-adv-x="665" 
d="M347 772h-88l67 148h150zM341 -19c-90.667 0 -161.501 20.999 -212.501 62.999s-78.833 102.667 -83.5 182h118c7.33301 -97.333 67 -146 179 -146c50 0 88.5 9.5 115.5 28.5s40.5 45.833 40.5 80.5c0 28 -10 50.333 -30 67s-53 30 -99 40l-116 27
c-124.667 28.667 -187 92.667 -187 192c0 60.667 22.667 111.667 68 153c44.667 40 108.334 60 191.001 60c82 0 147.667 -20 197 -60s76.666 -95 81.999 -165h-117c-4.66699 40 -21.167 71 -49.5 93s-66.166 33 -113.499 33c-43.333 0 -77.333 -9.16699 -102 -27.5
s-37 -43.166 -37 -74.499c0 -47.333 34.333 -78.333 103 -93l134 -31c132.667 -30.667 199 -98.667 199 -204c0 -66.667 -24.5 -119.667 -73.5 -159s-117.833 -59 -206.5 -59z" />
    <glyph glyph-name="sacute" unicode="&#x15b;" horiz-adv-x="523" 
d="M278 576h-88l67 148h150zM266 -16c-68 0 -120.998 14.832 -158.998 44.499s-60 72.834 -66 129.501l109 3c8 -60.667 48 -91 120 -91c34 0 60.5 6 79.5 18s28.5 29 28.5 51c0 32 -24.667 53 -74 63l-103 21c-98 20.667 -147 69.334 -147 146.001
c0 48.667 18 87.5 54 116.5s85 43.5 147 43.5s112 -14.333 150 -43s60.333 -69 67 -121l-109 -3c-8.66699 54 -45.334 81 -110.001 81c-28.667 0 -51 -5.33301 -67 -16s-24 -26 -24 -46c0 -30 23 -50 69 -60l106 -22c52 -11.333 90.167 -29 114.5 -53s36.5 -55.333 36.5 -94
c0 -52.667 -19.833 -93.834 -59.5 -123.501s-93.834 -44.5 -162.501 -44.5z" />
    <glyph glyph-name="Scircumflex" unicode="&#x15c;" horiz-adv-x="665" 
d="M264 777h-111l119 151h114l119 -151h-111l-65 91zM341 -19c-90.667 0 -161.501 20.999 -212.501 62.999s-78.833 102.667 -83.5 182h118c7.33301 -97.333 67 -146 179 -146c50 0 88.5 9.5 115.5 28.5s40.5 45.833 40.5 80.5c0 28 -10 50.333 -30 67s-53 30 -99 40
l-116 27c-124.667 28.667 -187 92.667 -187 192c0 60.667 22.667 111.667 68 153c44.667 40 108.334 60 191.001 60c82 0 147.667 -20 197 -60s76.666 -95 81.999 -165h-117c-4.66699 40 -21.167 71 -49.5 93s-66.166 33 -113.499 33c-43.333 0 -77.333 -9.16699 -102 -27.5
s-37 -43.166 -37 -74.499c0 -47.333 34.333 -78.333 103 -93l134 -31c132.667 -30.667 199 -98.667 199 -204c0 -66.667 -24.5 -119.667 -73.5 -159s-117.833 -59 -206.5 -59z" />
    <glyph glyph-name="scircumflex" unicode="&#x15d;" horiz-adv-x="523" 
d="M195 581h-111l119 151h114l119 -151h-111l-65 91zM266 -16c-68 0 -120.998 14.832 -158.998 44.499s-60 72.834 -66 129.501l109 3c8 -60.667 48 -91 120 -91c34 0 60.5 6 79.5 18s28.5 29 28.5 51c0 32 -24.667 53 -74 63l-103 21c-98 20.667 -147 69.334 -147 146.001
c0 48.667 18 87.5 54 116.5s85 43.5 147 43.5s112 -14.333 150 -43s60.333 -69 67 -121l-109 -3c-8.66699 54 -45.334 81 -110.001 81c-28.667 0 -51 -5.33301 -67 -16s-24 -26 -24 -46c0 -30 23 -50 69 -60l106 -22c52 -11.333 90.167 -29 114.5 -53s36.5 -55.333 36.5 -94
c0 -52.667 -19.833 -93.834 -59.5 -123.501s-93.834 -44.5 -162.501 -44.5z" />
    <glyph glyph-name="Scedilla" unicode="&#x15e;" horiz-adv-x="665" 
d="M621 199c0 -62.667 -21.834 -113.333 -65.501 -152s-105.5 -60.334 -185.5 -65.001l-33 -50h16c30.667 0 55 -7.66699 73 -23s27 -37 27 -65c0 -32 -12.5 -57 -37.5 -75s-59.167 -27 -102.5 -27h-40v60h30c38.667 0 58 11.333 58 34c0 19.333 -11.667 29 -35 29h-32
l-32 49l43 68c-80 5.33301 -142.333 28.833 -187 70.5s-69 99.5 -73 173.5h118c7.33301 -97.333 67 -146 179 -146c50 0 88.5 9.5 115.5 28.5s40.5 45.833 40.5 80.5c0 28 -10 50.333 -30 67s-53 30 -99 40l-116 27c-124.667 28.667 -187 92.667 -187 192
c0 60.667 22.667 111.667 68 153c44.667 40 108.334 60 191.001 60c82 0 147.667 -20 197 -60s76.666 -95 81.999 -165h-117c-4.66699 40 -21.167 71 -49.5 93s-66.166 33 -113.499 33c-43.333 0 -77.333 -9.16699 -102 -27.5s-37 -43.166 -37 -74.499
c0 -47.333 34.333 -78.333 103 -93l134 -31c132.667 -30.667 199 -98.667 199 -204z" />
    <glyph glyph-name="scedilla" unicode="&#x15f;" horiz-adv-x="523" 
d="M488 152c0 -48.667 -17 -87.668 -51 -117.001s-81 -46 -141 -50l-34 -51h16c30.667 0 55 -7.66699 73 -23s27 -37 27 -65c0 -32 -12.5 -57 -37.5 -75s-59.167 -27 -102.5 -27h-40v60h30c38.667 0 58 11.333 58 34c0 19.333 -11.667 29 -35 29h-32l-32 49l44 69
c-115.333 10 -178.666 67.667 -189.999 173l109 3c8 -60.667 48 -91 120 -91c34 0 60.5 6 79.5 18s28.5 29 28.5 51c0 32 -24.667 53 -74 63l-103 21c-98 20.667 -147 69.334 -147 146.001c0 48.667 18 87.5 54 116.5s85 43.5 147 43.5s112 -14.333 150 -43
s60.333 -69 67 -121l-109 -3c-8.66699 54 -45.334 81 -110.001 81c-28.667 0 -51 -5.33301 -67 -16s-24 -26 -24 -46c0 -30 23 -50 69 -60l106 -22c52 -11.333 90.167 -29 114.5 -53s36.5 -55.333 36.5 -94z" />
    <glyph glyph-name="Scaron" unicode="&#x160;" horiz-adv-x="665" 
d="M386 778h-114l-119 151h111l65 -91l65 91h111zM341 -19c-90.667 0 -161.501 20.999 -212.501 62.999s-78.833 102.667 -83.5 182h118c7.33301 -97.333 67 -146 179 -146c50 0 88.5 9.5 115.5 28.5s40.5 45.833 40.5 80.5c0 28 -10 50.333 -30 67s-53 30 -99 40l-116 27
c-124.667 28.667 -187 92.667 -187 192c0 60.667 22.667 111.667 68 153c44.667 40 108.334 60 191.001 60c82 0 147.667 -20 197 -60s76.666 -95 81.999 -165h-117c-4.66699 40 -21.167 71 -49.5 93s-66.166 33 -113.499 33c-43.333 0 -77.333 -9.16699 -102 -27.5
s-37 -43.166 -37 -74.499c0 -47.333 34.333 -78.333 103 -93l134 -31c132.667 -30.667 199 -98.667 199 -204c0 -66.667 -24.5 -119.667 -73.5 -159s-117.833 -59 -206.5 -59z" />
    <glyph glyph-name="scaron" unicode="&#x161;" horiz-adv-x="523" 
d="M317 576h-114l-119 151h111l65 -91l65 91h111zM266 -16c-68 0 -120.998 14.832 -158.998 44.499s-60 72.834 -66 129.501l109 3c8 -60.667 48 -91 120 -91c34 0 60.5 6 79.5 18s28.5 29 28.5 51c0 32 -24.667 53 -74 63l-103 21c-98 20.667 -147 69.334 -147 146.001
c0 48.667 18 87.5 54 116.5s85 43.5 147 43.5s112 -14.333 150 -43s60.333 -69 67 -121l-109 -3c-8.66699 54 -45.334 81 -110.001 81c-28.667 0 -51 -5.33301 -67 -16s-24 -26 -24 -46c0 -30 23 -50 69 -60l106 -22c52 -11.333 90.167 -29 114.5 -53s36.5 -55.333 36.5 -94
c0 -52.667 -19.833 -93.834 -59.5 -123.501s-93.834 -44.5 -162.501 -44.5z" />
    <glyph glyph-name="uni0162" unicode="&#x162;" horiz-adv-x="627" 
d="M374 605v-605h-25l-39 -59h16c30.667 0 55 -7.66699 73 -23s27 -37 27 -65c0 -32 -12.5 -57 -37.5 -75s-59.167 -27 -102.5 -27h-40v60h30c38.667 0 58 11.333 58 34c0 19.333 -11.667 29 -35 29h-32l-32 49l49 77h-31v605h-226v107h572v-107h-225z" />
    <glyph glyph-name="uni0163" unicode="&#x163;" horiz-adv-x="349" 
d="M324 428l-106.001 4v-287c0 -18.667 3.66699 -31.667 11 -39s20 -11 38 -11h57v-95h-93h-4l-33 -50h16c30.667 0 54.834 -7.66699 72.501 -23s26.5 -36.666 26.5 -63.999c0 -32 -12.333 -57 -37 -75s-58.667 -27 -102 -27h-40v59h30c38.667 0 58 11.667 58 35
c0 18.667 -11.667 28 -35 28h-32l-32 50l48 76c-44 15.333 -66 55.666 -66 120.999v301l-74 -3v88l74 -3v162h117v-162l106 3v-88z" />
    <glyph glyph-name="Tcaron" unicode="&#x164;" horiz-adv-x="627" 
d="M490 929l-119 -151h-114l-119 151h111l65 -91l65 91h111zM27 712h572v-107h-225v-605h-121v605h-226v107z" />
    <glyph glyph-name="tcaron" unicode="&#x165;" horiz-adv-x="375" 
d="M273 571l48 209h131l-90 -209h-89zM218 675v-162l106 3v-88l-106 4v-287c0 -18.667 3.66699 -31.667 11 -39s20 -11 38 -11h57v-95h-93c-46 0 -79.167 10.167 -99.5 30.5s-30.5 53.5 -30.5 99.5v301l-74 -3v88l74 -3v162h117z" />
    <glyph glyph-name="Tbar" unicode="&#x166;" horiz-adv-x="627" 
d="M599 712v-107h-225v-205l205 4v-107l-205 4v-301h-121v301l-204 -4v107l204 -4v205h-226v107h572z" />
    <glyph glyph-name="tbar" unicode="&#x167;" horiz-adv-x="347" 
d="M322 516v-88l-113 4v-121l113 3v-88l-110 3l3 -41v-43c0 -18.667 3.66699 -31.667 11 -39s20.333 -11 39 -11h57v-95h-93c-46.667 0 -80.167 10.167 -100.5 30.5s-30.5 53.5 -30.5 99.5v58l2 41l-75 -3v88l77 -3v121l-77 -4v88l75 -3l-2 42v120h117v-120l-3 -42z" />
    <glyph glyph-name="Utilde" unicode="&#x168;" horiz-adv-x="701" 
d="M238 787h-89c0 54.667 10.667 96 32 124s51 42 89 42c20.667 0 40.667 -5.66699 60 -17s36.666 -22.666 51.999 -33.999s28 -17 38 -17c28 0 42.667 22.667 44 68h89c0 -110.667 -40.333 -166 -121 -166c-20 0 -39.667 5.66699 -59 17s-36.666 22.666 -51.999 33.999
s-28.333 17 -39 17c-28 0 -42.667 -22.667 -44 -68zM554 43c-49.333 -42 -117.333 -63 -204 -63c-87.333 0 -155 21 -203 63s-72 101.667 -72 179v490h121v-493c0 -88.667 51.667 -133 155 -133c102.667 0 154 44.333 154 133v493h121v-490c0 -77.333 -24 -137 -72 -179z
" />
    <glyph glyph-name="utilde" unicode="&#x169;" horiz-adv-x="586" 
d="M224 659c-28 0 -42.668 -22.667 -44.001 -68h-89c0 54.667 10.667 96 32 124s51 42 89 42c20 0 39.833 -5.66699 59.5 -17s37.167 -22.666 52.5 -33.999s28 -17 38 -17c28 0 42.667 22.667 44 68h89c0 -110.667 -40.333 -166 -121 -166c-20 0 -39.667 5.66699 -59 17
s-36.666 22.666 -51.999 33.999s-28.333 17 -39 17zM398.999 235l-0.000976562 281.001h117v-516h-112l-2 72c-36 -56.667 -89.333 -85 -160 -85c-54 0 -96.167 15.667 -126.5 47s-45.5 74.666 -45.5 129.999v352h117v-327c0 -65.333 29.667 -98 89 -98
c36.667 0 66.334 12.5 89.001 37.5s34 60.5 34 106.5z" />
    <glyph glyph-name="Umacron" unicode="&#x16a;" horiz-adv-x="701" 
d="M522 805h-342v88h342v-88zM554 43c-49.333 -42 -117.333 -63 -204 -63c-87.333 0 -155 21 -203 63s-72 101.667 -72 179v490h121v-493c0 -88.667 51.667 -133 155 -133c102.667 0 154 44.333 154 133v493h121v-490c0 -77.333 -24 -137 -72 -179z" />
    <glyph glyph-name="umacron" unicode="&#x16b;" horiz-adv-x="586" 
d="M122 697h342v-88h-342v88zM399 235l-0.000976562 281.001h117v-516h-112l-2 72c-36 -56.667 -89.333 -85 -160 -85c-54 0 -96.167 15.667 -126.5 47s-45.5 74.666 -45.5 129.999v352h117v-327c0 -65.333 29.667 -98 89 -98c36.667 0 66.334 12.5 89.001 37.5
s34 60.5 34 106.5z" />
    <glyph glyph-name="Ubreve" unicode="&#x16c;" horiz-adv-x="701" 
d="M350 773c-56.667 0 -98.333 12.5 -125 37.5s-41 62.5 -43 112.5h74c2 -48.667 33.667 -73 95 -73s93 24.333 95 73h74c-5.33301 -100 -62 -150 -170 -150zM554.001 43c-49.333 -42 -117.333 -63 -204 -63c-87.333 0 -155 21 -203 63s-72 101.667 -72 179v490h121v-493
c0 -88.667 51.667 -133 155 -133c102.667 0 154 44.333 154 133v493h121v-490c0 -77.333 -24 -137 -72 -179z" />
    <glyph glyph-name="ubreve" unicode="&#x16d;" horiz-adv-x="586" 
d="M292 577c-56.667 0 -98.333 12.5 -125 37.5s-41 62.5 -43 112.5h74c2 -49.333 33.667 -74 95 -74s93 24.667 95 74h74c-5.33301 -100 -62 -150 -170 -150zM399.001 235l-0.000976562 281.001h117v-516h-112l-2 72c-36 -56.667 -89.333 -85 -160 -85
c-54 0 -96.167 15.667 -126.5 47s-45.5 74.666 -45.5 129.999v352h117v-327c0 -65.333 29.667 -98 89 -98c36.667 0 66.334 12.5 89.001 37.5s34 60.5 34 106.5z" />
    <glyph glyph-name="Uring" unicode="&#x16e;" horiz-adv-x="701" 
d="M454 814c-26.667 -26.667 -60.999 -39.999 -102.999 -39.999c-41.333 0 -75.333 13.333 -102 40c-27.333 27.333 -41 61.333 -41 102c0 41.333 13.667 75.666 41 102.999s61.333 41 102 41c41.333 0 75.666 -13.667 102.999 -41c26.667 -26.667 40 -61 40 -103
c0 -41.333 -13.333 -75.333 -40 -102zM300.001 864.001c15.333 -12.667 32.502 -19.334 51.502 -20.001s36 6 51 20s21.833 31.333 20.5 52c0 22 -6.83301 39.833 -20.5 53.5s-30.834 20.5 -51.501 20.5s-37.834 -6.83301 -51.501 -20.5s-20.5 -31.5 -20.5 -53.5
c0 -21.333 7 -38.666 21 -51.999zM554.003 43.001c-49.333 -42 -117.333 -63 -204 -63c-87.333 0 -155 21 -203 63s-72 101.667 -72 179v490h121v-493c0 -88.667 51.667 -133 155 -133c102.667 0 154 44.333 154 133v493h121v-490c0 -77.333 -24 -137 -72 -179z" />
    <glyph glyph-name="uring" unicode="&#x16f;" horiz-adv-x="586" 
d="M396 618c-26.667 -26.667 -60.999 -39.999 -102.999 -39.999c-41.333 0 -75.333 13.333 -102 40c-27.333 27.333 -41 61.333 -41 102c0 41.333 13.667 75.666 41 102.999s61.333 41 102 41c41.333 0 75.666 -13.667 102.999 -41c26.667 -26.667 40 -61 40 -103
c0 -41.333 -13.333 -75.333 -40 -102zM345.001 774.001c-15.333 12.667 -32.502 19.333 -51.502 20s-36.167 -6 -51.5 -20s-22.333 -32 -21 -54c0 -21.333 6.83301 -38.666 20.5 -51.999s30.834 -20 51.501 -20s37.834 6.66699 51.501 20s20.5 30.666 20.5 51.999
c0 22.667 -6.66699 40.667 -20 54zM398.999 235l-0.000976562 281.001h117v-516h-112l-2 72c-36 -56.667 -89.333 -85 -160 -85c-54 0 -96.167 15.667 -126.5 47s-45.5 74.666 -45.5 129.999v352h117v-327c0 -65.333 29.667 -98 89 -98c36.667 0 66.334 12.5 89.001 37.5
s34 60.5 34 106.5z" />
    <glyph glyph-name="Uhungarumlaut" unicode="&#x170;" horiz-adv-x="701" 
d="M275 772h-86l73 158h131zM469 772h-87l79 158h130zM554 43c-49.333 -42 -117.333 -63 -204 -63c-87.333 0 -155 21 -203 63s-72 101.667 -72 179v490h121v-493c0 -88.667 51.667 -133 155 -133c102.667 0 154 44.333 154 133v493h121v-490c0 -77.333 -24 -137 -72 -179z
" />
    <glyph glyph-name="uhungarumlaut" unicode="&#x171;" horiz-adv-x="586" 
d="M204 734h131l-118 -158h-86zM533 734l-122 -158h-87l79 158h130zM399 235l-0.000976562 281.001h117v-516h-112l-2 72c-36 -56.667 -89.333 -85 -160 -85c-54 0 -96.167 15.667 -126.5 47s-45.5 74.666 -45.5 129.999v352h117v-327c0 -65.333 29.667 -98 89 -98
c36.667 0 66.334 12.5 89.001 37.5s34 60.5 34 106.5z" />
    <glyph glyph-name="Uogonek" unicode="&#x172;" horiz-adv-x="701" 
d="M505 219v492.999h121v-490c0 -64 -16.667 -116 -50 -156s-81 -66.333 -143 -79l-53 -39c-24 -18 -36 -35.667 -36 -53c0 -25.333 18.333 -38 55 -38h34v-76h-70c-83.333 0 -125 30 -125 90c0 40.667 27 77.334 81 110.001c-78 5.33301 -138.167 28.833 -180.5 70.5
s-63.5 98.5 -63.5 170.5v490h121v-493c0 -88.667 51.667 -133 155 -133c102.667 0 154 44.333 154 133z" />
    <glyph glyph-name="uogonek" unicode="&#x173;" horiz-adv-x="586" 
d="M516 0l-59 -43.998c-24 -18 -36 -35.667 -36 -53c0 -25.333 18.333 -38 55 -38h34v-76h-70c-83.333 0 -125 30 -125 90c0 20.667 6.5 39.667 19.5 57s34.5 35.666 64.5 54.999l21 12l-15 78c-35.333 -59.333 -89.333 -89 -162 -89c-52.667 0 -95.334 16 -128.001 48
c-30 30.667 -45 77.667 -45 141v335h117v-318c0 -34.667 7.33301 -60.334 22 -77.001c16.667 -16.667 39 -25 67 -25c36.667 0 66.334 12.5 89.001 37.5s34 60.5 34 106.5v276h117v-516z" />
    <glyph glyph-name="Wcircumflex" unicode="&#x174;" horiz-adv-x="963" 
d="M548 777l-65 91l-65 -91h-111l119 151h114l119 -151h-111zM709 322l103 390h124l-203 -712h-116l-137 556l-136 -556h-117l-200 712h127l99 -390l34 -151l34 151l97 390h126l96 -390l33 -151z" />
    <glyph glyph-name="wcircumflex" unicode="&#x175;" horiz-adv-x="775" 
d="M453 581l-65 91l-65 -91h-111l119 151h114l119 -151h-111zM562 253l71 263h122l-161 -516h-113l-74 297l-19 100l-20 -100l-76 -297h-114l-158 516h124l69 -263l27 -130l26 130l66 263h113l65 -262l26 -130z" />
    <glyph glyph-name="Ycircumflex" unicode="&#x176;" horiz-adv-x="670" 
d="M400 777l-65 91l-65 -91h-111l119 151h114l119 -151h-111zM373 456l144 256h133l-252 -428v-284h-121v284l-258 428h138l145 -256l36 -77z" />
    <glyph glyph-name="ycircumflex" unicode="&#x177;" horiz-adv-x="548" 
d="M341 581l-65 91l-65 -91h-111l119 151h114l119 -151h-111zM276 124l129.001 392.001h123l-223 -612c-14 -40.667 -31.833 -68.834 -53.5 -84.501s-51.834 -23.5 -90.501 -23.5h-89v99h59c22 0 38.667 4 50 12s21 22.667 29 44l14 38l-204 527h128l114 -322z" />
    <glyph glyph-name="Ydieresis" unicode="&#x178;" horiz-adv-x="670" 
d="M170 904h117v-114h-117v114zM383 904h117v-114h-117v114zM373 456l144 256h133l-252 -428v-284h-121v284l-258 428h138l145 -256l36 -77z" />
    <glyph glyph-name="Zacute" unicode="&#x179;" horiz-adv-x="678" 
d="M337 920h150l-129 -148h-88zM618 617l-413 -512h420v-105h-573v103l407 504h-381v105h540v-95z" />
    <glyph glyph-name="zacute" unicode="&#x17a;" horiz-adv-x="508" 
d="M256 724h150l-129 -148h-88zM459 430l-282 -335h296v-95h-438v89l282 332h-260v95h402v-86z" />
    <glyph glyph-name="Zdotaccent" unicode="&#x17b;" horiz-adv-x="678" 
d="M281 904h117v-114h-117v114zM618 617l-413 -512h420v-105h-573v103l407 504h-381v105h540v-95z" />
    <glyph glyph-name="zdotaccent" unicode="&#x17c;" horiz-adv-x="508" 
d="M200 712h117v-114h-117v114zM459 430l-282 -335h296v-95h-438v89l282 332h-260v95h402v-86z" />
    <glyph glyph-name="Zcaron" unicode="&#x17d;" horiz-adv-x="678" 
d="M516 929l-119 -151h-114l-119 151h111l65 -91l65 91h111zM618 617l-413 -512h420v-105h-573v103l407 504h-381v105h540v-95z" />
    <glyph glyph-name="zcaron" unicode="&#x17e;" horiz-adv-x="508" 
d="M435 727l-119 -151h-114l-119 151h111l65 -91l65 91h111zM459 430l-282 -335h296v-95h-438v89l282 332h-260v95h402v-86z" />
    <glyph glyph-name="uni018F" unicode="&#x18f;" horiz-adv-x="773" 
d="M378 727c104.667 0 188.334 -33.333 251.001 -100c63.333 -67.333 95 -157.666 95 -270.999c0 -112 -31 -202.667 -93 -272c-62 -70 -144.667 -105 -248 -105c-102.667 0 -184 34 -244 102c-60 67.333 -90 155.666 -90 264.999c0 16 0.333008 27.667 1 35h551
c-4 76 -25.667 135 -65 177s-92.333 63 -159 63c-84.667 0 -142.334 -32.333 -173.001 -97h-131c22 64 59.833 113.833 113.5 149.5s117.5 53.5 191.5 53.5zM385 86c57.333 0 104.167 16.832 140.5 50.499s59.833 80.834 70.5 141.501h-419c6 -60 27.167 -107 63.5 -141
s84.5 -51 144.5 -51z" />
    <glyph glyph-name="florin" unicode="&#x192;" 
d="M561 613h-42.999c-21.333 0 -37.666 -5.16699 -48.999 -15.5s-19.333 -27.5 -24 -51.5l-23 -120l98 3l-17 -88l-97 3l-68 -348c-20 -102 -80 -153 -180 -153h-68l19 99h41c21.333 0 37.666 5 48.999 15s19.666 27 24.999 51l65 336l-97 -3l17 88l96 -3l26 133
c20 102 80 153 180 153h70z" />
    <glyph glyph-name="uni01F4" unicode="&#x1f4;" horiz-adv-x="774" 
d="M386 920h150l-129 -148h-88zM667 383l-1.00098 -6l33 6v-383h-82l-23 88c-45.333 -69.333 -116.666 -104 -213.999 -104c-96 0 -175 34 -237 102c-62.667 66.667 -94 157 -94 271c0 112.667 31 202.667 93 270c60.667 66.667 142.334 100 245.001 100
c84 0 152.667 -20.333 206 -61s85.666 -97 96.999 -169l-118 -8c-8 42.667 -27.833 75.5 -59.5 98.5s-71.5 34.5 -119.5 34.5c-70 0 -124.5 -23.667 -163.5 -71s-58.5 -112.333 -58.5 -195c0 -82 19.333 -147.333 58 -196c39.333 -49.333 92.666 -74 159.999 -74
c54 0 98.833 16 134.5 48s57.834 76.667 66.501 134v12h-193v103h270z" />
    <glyph glyph-name="uni01F5" unicode="&#x1f5;" horiz-adv-x="600" 
d="M272 724h150l-129 -148h-88zM423 443l2.00293 73.001h106v-511c0 -72.667 -21.333 -127.667 -64 -165s-102.667 -56 -180 -56c-68 0 -121.5 13.833 -160.5 41.5s-61.5 68.167 -67.5 121.5h110c10 -49.333 49 -74 117 -74c45.333 0 78.166 10.167 98.499 30.5
s30.5 52.5 30.5 96.5v68c-36 -48.667 -86.333 -73 -151 -73c-66.667 0 -120.334 25.333 -161.001 76c-41.333 50.667 -62 116 -62 196c0 79.333 20.667 142.666 62 189.999s94.666 71 159.999 71c72.667 0 126 -28.333 160 -85zM285.003 95.001
c38.667 0 70.333 15.666 95 46.999s37 72.666 37 123.999c0 52.667 -12 93.334 -36 122.001c-25.333 29.333 -57.333 44 -96 44c-39.333 0 -70.666 -14.667 -93.999 -44s-35 -69.666 -35 -120.999c0 -52.667 11.667 -94.5 35 -125.5s54.666 -46.5 93.999 -46.5z" />
    <glyph glyph-name="Aringacute" unicode="&#x1fa;" horiz-adv-x="718" 
d="M359 1109h149l-128 -146h-87zM690 0l-131 0.000976562l-62 178h-278l-63 -178h-129l248 670c-37.333 27.333 -56 65.666 -56 114.999c0 41.333 13.5 75.666 40.5 102.999s61.167 41 102.5 41s75.5 -13.667 102.5 -41s40.5 -61.666 40.5 -102.999
c0 -50.667 -19.667 -89.667 -59 -117zM362 859.001c-21.333 0 -38.666 -6.66602 -51.999 -19.999s-20 -31.333 -20 -54c0 -22 6.66699 -39.5 20 -52.5s30.666 -19.5 51.999 -19.5c20.667 0 37.834 6.66699 51.501 20s20.5 30.666 20.5 51.999
c0 22 -6.83301 39.833 -20.5 53.5s-30.834 20.5 -51.501 20.5zM317 456.002l-62 -176h207l-61 176l-42 140z" />
    <glyph glyph-name="aringacute" unicode="&#x1fb;" horiz-adv-x="562" 
d="M278 1052h150l-129 -148h-88zM384 615c-26.667 -26.667 -60.999 -39.999 -102.999 -39.999c-41.333 0 -75.333 13.333 -102 40c-27.333 27.333 -41 61.333 -41 102c0 41.333 13.667 75.666 41 102.999s61.333 41 102 41c41.333 0 75.666 -13.667 102.999 -41
c26.667 -26.667 40 -61 40 -103c0 -41.333 -13.333 -75.333 -40 -102zM281.001 791.001c-21.333 0 -38.666 -6.66602 -51.999 -19.999s-20 -31.333 -20 -54c0 -22 6.66699 -39.5 20 -52.5s30.666 -19.5 51.999 -19.5c20.667 0 37.834 6.66699 51.501 20
s20.5 30.666 20.5 51.999c0 22 -6.83301 39.833 -20.5 53.5s-30.834 20.5 -51.501 20.5zM514.001 0.00195312h-118.001c-6.66699 27.333 -11 47.333 -13 60c-39.333 -49.333 -95.666 -74 -168.999 -74c-54 0 -96.833 13.833 -128.5 41.5s-47.5 65.167 -47.5 112.5
c0 86.667 55.333 139.334 166 158.001l161 27c2.66699 0.666992 7.33398 2 14.001 4v45c0 45.333 -34 68 -102 68c-32.667 0 -57.334 -6.33301 -74.001 -19s-26.667 -33 -30 -61l-110 1c10 110.667 82.333 166 217 166c142 0 213 -59.333 213 -178v-232
c0 -38.667 7 -78.334 21 -119.001zM243 74.002c38.667 0 71 11.334 97 34.001s39 51 39 85v54l-143 -25c-55.333 -10 -83 -35.333 -83 -76c0 -22.667 8 -40.334 24 -53.001s38 -19 66 -19z" />
    <glyph glyph-name="AEacute" unicode="&#x1fc;" horiz-adv-x="1138" 
d="M644 920h150l-129 -148h-88zM686 316v-213h400v-103h-521v183h-296l-110 -183h-132l429 712h620v-103h-390v-189h356v-104h-356zM525 609l-195 -325h235v325h-40z" />
    <glyph glyph-name="aeacute" unicode="&#x1fd;" horiz-adv-x="915" 
d="M455 724h150l-129 -148h-88zM875 255l0.00195312 -29.999h-381c2.66699 -46.667 16.334 -82.834 41.001 -108.501s57.334 -38.5 98.001 -38.5c58.667 0 98.667 27.667 120 83l112 -13c-16.667 -52 -45.334 -92.167 -86.001 -120.5s-89.334 -42.5 -146.001 -42.5
c-94 0 -161.667 36 -203 108c-41.333 -71.333 -108.666 -107 -201.999 -107c-58.667 0 -105 14.333 -139 43s-51 67.334 -51 116.001c0 47.333 16.167 85.166 48.5 113.499s80.166 42.5 143.499 42.5h149v55c0 57.333 -35 86 -105 86c-32 0 -56 -6.33301 -72 -19
s-25.667 -33 -29 -61l-110 1c10 110.667 80.667 166 212 166c87.333 0 146.666 -25.667 177.999 -77c43.333 51.333 103.666 77 180.999 77c75.333 0 134.333 -24.333 177 -73s64 -115.667 64 -201zM627.002 439.001c-38 0 -68.668 -12.001 -92.001 -36.001
s-36.666 -58 -39.999 -102h263c-4.66699 44.667 -18.167 78.834 -40.5 102.501s-52.5 35.5 -90.5 35.5zM244.001 74c38.667 0 70.833 12 96.5 36s38.5 55 38.5 93v22l-134 -3c-30.667 -0.666992 -53.667 -7.5 -69 -20.5s-23 -30.833 -23 -53.5s8.16699 -40.667 24.5 -54
s38.5 -20 66.5 -20z" />
    <glyph glyph-name="Oslashacute" unicode="&#x1fe;" horiz-adv-x="773" 
d="M383 920h150l-129 -148h-88zM711 686l-64.999 -81.001c52 -67.333 78 -150 78 -248c0 -112 -31.667 -202.667 -95 -272c-64 -70 -145.333 -105 -244 -105c-73.333 0 -137.666 20.333 -192.999 61l-58 -73l-62 48l63 78c-57.333 70.667 -86 158.334 -86 263.001
c0 110 31.667 199.333 95 268c63.333 68 143.666 102 240.999 102c79.333 0 147.666 -22.333 204.999 -67l59 74zM171.001 356.999c0 -67.333 13.333 -123.667 40 -169l308 385c-36 32 -80.333 48 -133 48c-65.333 0 -117.333 -24 -156 -72
c-39.333 -49.333 -59 -113.333 -59 -192zM386.001 85.998c64.667 0 117 24.667 157 74c39.333 49.333 59 115 59 197c0 57.333 -11 108 -33 152l-307 -382c36.667 -27.333 78 -41 124 -41z" />
    <glyph glyph-name="oslashacute" unicode="&#x1ff;" horiz-adv-x="594" 
d="M296 730h150l-129 -148h-88zM544 485l-44 -51.002c36 -49.333 54 -107.666 54 -174.999c0 -80.667 -24 -146.334 -72 -197.001c-48 -51.333 -109.667 -77 -185 -77c-58 0 -107.333 15 -148 45l-42 -48l-57 47l46 52c-36.667 48.667 -55 107.334 -55 176.001
c0 80.667 24 146.334 72 197.001c48 50 110 75 186 75c55.333 0 104.333 -14.667 147 -44l41 47zM156 256.998c0 -33.333 5 -63 15 -89l209 241c-23.333 17.333 -51 26 -83 26c-44 0 -78.5 -16 -103.5 -48s-37.5 -75.333 -37.5 -130zM297 78.998
c44 0 78.833 16.332 104.5 48.999s38.5 76.334 38.5 131.001c0 34 -5 63.667 -15 89l-210 -242c22.667 -18 50 -27 82 -27z" />
    <glyph glyph-name="uni0218" unicode="&#x218;" horiz-adv-x="665" 
d="M288 434l133.999 -31.001c132.667 -30.667 199 -98.667 199 -204c0 -66.667 -24.5 -119.667 -73.5 -159s-117.833 -59 -206.5 -59c-90.667 0 -161.5 21 -212.5 63s-78.833 102.667 -83.5 182h118c7.33301 -97.333 67 -146 179 -146c50 0 88.5 9.5 115.5 28.5
s40.5 45.833 40.5 80.5c0 28 -10 50.333 -30 67s-53 30 -99 40l-116 27c-124.667 28.667 -187 92.667 -187 192c0 60.667 22.667 111.667 68 153c44.667 40 108.334 60 191.001 60c82 0 147.667 -20 197 -60s76.666 -95 81.999 -165h-117c-4.66699 40 -21.167 71 -49.5 93
s-66.166 33 -113.499 33c-43.333 0 -77.333 -9.16699 -102 -27.5s-37 -43.166 -37 -74.499c0 -47.333 34.333 -78.333 103 -93zM359.999 -167.001l-86 -2v97h135v-118c0 -62 -31.667 -93 -95 -93h-40v46h40c30.667 0 46 14.333 46 43v27z" />
    <glyph glyph-name="uni0219" unicode="&#x219;" horiz-adv-x="523" 
d="M231 321l106.002 -22.001c52 -11.333 90.167 -29 114.5 -53s36.5 -55.333 36.5 -94c0 -52.667 -19.833 -93.834 -59.5 -123.501s-93.834 -44.5 -162.501 -44.5c-68 0 -121 14.833 -159 44.5s-60 72.834 -66 129.501l109 3c8 -60.667 48 -91 120 -91c34 0 60.5 6 79.5 18
s28.5 29 28.5 51c0 32 -24.667 53 -74 63l-103 21c-98 20.667 -147 69.334 -147 146.001c0 48.667 18 87.5 54 116.5s85 43.5 147 43.5s112 -14.333 150 -43s60.333 -69 67 -121l-109 -3c-8.66699 54 -45.334 81 -110.001 81c-28.667 0 -51 -5.33301 -67 -16
s-24 -26 -24 -46c0 -30 23 -50 69 -60zM285.002 -165.001l-86 -2v97h135v-118c0 -62 -31.667 -93 -95 -93h-40v46h40c30.667 0 46 14.333 46 43v27z" />
    <glyph glyph-name="uni021A" unicode="&#x21a;" horiz-adv-x="627" 
d="M27 605v107h572v-107h-225v-605h-121v605h-226zM332 -158l-86 -2v97h135v-118c0 -62 -31.667 -93 -95 -93h-40v46h40c30.667 0 46 14.333 46 43v27z" />
    <glyph glyph-name="uni021B" unicode="&#x21b;" horiz-adv-x="349" 
d="M324 428l-106 4v-287c0 -18.667 3.66699 -31.667 11 -39s20 -11 38 -11h57v-95h-93c-46 0 -79.167 10.167 -99.5 30.5s-30.5 53.5 -30.5 99.5v301l-74 -3v88l74 -3v162h117v-162l106 3v-88zM181 -154l-86 -2v97h135v-118c0 -62 -31.667 -93 -95 -93h-40v46h40
c30.667 0 46 14.333 46 43v27z" />
    <glyph glyph-name="uni0237" unicode="&#x237;" horiz-adv-x="257" 
d="M41 -204l-59 0.000976562v101h30c22 0 37.167 3.83301 45.5 11.5s12.5 21.5 12.5 41.5v566h117v-570c0 -52.667 -11.5 -90.834 -34.5 -114.501s-60.167 -35.5 -111.5 -35.5z" />
    <glyph glyph-name="uni0259" unicode="&#x259;" horiz-adv-x="581" 
d="M282 531c80 0 143 -25.6689 189 -77.002c46 -50.667 69 -116.667 69 -198c0 -79.333 -22.333 -143.666 -67 -192.999c-44.667 -50.667 -105.334 -76 -182.001 -76c-75.333 0 -136 24.667 -182 74c-46 48.667 -69 115.334 -69 200.001v29h381
c-2.66699 47.333 -16.167 83.833 -40.5 109.5s-56.833 38.5 -97.5 38.5c-59.333 0 -99.666 -28 -120.999 -84l-112 10c16.667 54 45 95.333 85 124s89 43 147 43zM198 110.998c22.667 -22.667 52.665 -34 89.998 -34c36.667 0 67.334 11.667 92.001 35
c24 24 37.333 56.333 40 97h-263c4.66699 -43.333 18.334 -76 41.001 -98z" />
    <glyph glyph-name="h.sups" unicode="&#x2b0;" horiz-adv-x="484" 
d="M283 722c42 0 74.499 -11.001 97.499 -33.001s34.5 -53 34.5 -93v-224h-97v204c0 44.667 -22.667 67 -68 67c-25.333 0 -45.666 -7.66699 -60.999 -23s-23 -36.666 -23 -63.999v-184h-96v470h96v-176c28 37.333 67 56 117 56z" />
    <glyph glyph-name="r.sups" unicode="&#x2b3;" horiz-adv-x="324" 
d="M277 720h29v-92h-31c-36.667 0 -64 -8.33301 -82 -25s-27 -42.667 -27 -78v-153h-96v340h86l6 -68c18 50.667 56.333 76 115 76z" />
    <glyph glyph-name="circumflex" unicode="&#x2c6;" horiz-adv-x="500" 
d="M185 581h-111l119 151h114l119 -151h-111l-65 91z" />
    <glyph glyph-name="caron" unicode="&#x2c7;" horiz-adv-x="500" 
d="M307 576h-114l-119 151h111l65 -91l65 91h111z" />
    <glyph glyph-name="uni02C9" unicode="&#x2c9;" horiz-adv-x="500" 
d="M421 609h-342v88h342v-88z" />
    <glyph glyph-name="breve" unicode="&#x2d8;" horiz-adv-x="500" 
d="M249 593c-56.667 0 -98.332 12.5 -124.999 37.5s-41 62.5 -43 112.5h74c2 -49.333 33.667 -74 95 -74s93 24.667 95 74h74c-4.66699 -100 -61.334 -150 -170.001 -150z" />
    <glyph glyph-name="dotaccent" unicode="&#x2d9;" horiz-adv-x="500" 
d="M309 598h-117v114h117v-114z" />
    <glyph glyph-name="ring" unicode="&#x2da;" horiz-adv-x="500" 
d="M353 618c-26.667 -26.667 -60.999 -39.999 -102.999 -39.999c-41.333 0 -75.333 13.333 -102 40c-27.333 27.333 -41 61.333 -41 102c0 41.333 13.667 75.666 41 102.999s61.333 41 102 41c41.333 0 75.666 -13.667 102.999 -41c26.667 -26.667 40 -61 40 -103
c0 -41.333 -13.333 -75.333 -40 -102zM199.001 668.001c15.333 -12.667 32.502 -19.334 51.502 -20.001s36 6 51 20s21.833 31.333 20.5 52c0 22 -6.83301 39.833 -20.5 53.5s-30.834 20.5 -51.501 20.5s-37.834 -6.83301 -51.501 -20.5s-20.5 -31.5 -20.5 -53.5
c0 -21.333 7 -38.666 21 -51.999z" />
    <glyph glyph-name="ogonek" unicode="&#x2db;" horiz-adv-x="500" 
d="M339 -211h-70.001c-83.333 0 -125 30 -125 90c0 21.333 6.33301 40.5 19 57.5s34.334 35.167 65.001 54.5l41 24l76 -15l-59 -44c-24 -18 -36 -35.667 -36 -53c0 -25.333 18.333 -38 55 -38h34v-76z" />
    <glyph glyph-name="tilde" unicode="&#x2dc;" horiz-adv-x="500" 
d="M137 631h-89.999c0 54.667 10.667 96 32 124s51 42 89 42c23.333 0 44.166 -5.66699 62.499 -17s34.333 -22.666 48 -33.999s27.167 -17 40.5 -17c27.333 0 41.666 22.667 42.999 68h90c0 -56 -10.667 -97.667 -32 -125s-51 -41 -89 -41
c-23.333 0 -43.833 5.66699 -61.5 17s-33.5 22.666 -47.5 33.999s-28 17 -42 17c-27.333 0 -41.666 -22.667 -42.999 -68z" />
    <glyph glyph-name="hungarumlaut" unicode="&#x2dd;" horiz-adv-x="500" 
d="M135 576h-86l73 158h131zM329 576h-87l79 158h130z" />
    <glyph glyph-name="s.sups" unicode="&#x2e2;" horiz-adv-x="423" 
d="M215 361c-100.667 0 -158.666 36.002 -173.999 108.002l93 8c8 -30.667 36.667 -46 86 -46c52 0 78 13 78 39c0 20 -17.667 31.667 -53 35l-72 6c-80.667 8 -121 42.333 -121 103c0 34.667 13.833 61.5 41.5 80.5s66.167 28.5 115.5 28.5
c93.333 0 147.333 -33.333 162 -100l-88 -7c-8 26.667 -33.667 40 -77 40c-44.667 0 -67 -12 -67 -36c0 -18.667 14 -29.334 42 -32.001l82 -9c80 -8 120 -41.667 120 -101c0 -36.667 -14.833 -65.334 -44.5 -86.001s-70.834 -31 -123.501 -31z" />
    <glyph glyph-name="gravecomb" unicode="&#x300;" horiz-adv-x="0" 
d="M66 576h-87l-129 148h149z" />
    <glyph glyph-name="acutecomb" unicode="&#x301;" horiz-adv-x="0" 
d="M18 576h-88l67 148h150z" />
    <glyph glyph-name="uni0302" unicode="&#x302;" horiz-adv-x="0" 
d="M-65 581h-111l119 151h114l119 -151h-111l-65 91z" />
    <glyph glyph-name="tildecomb" unicode="&#x303;" horiz-adv-x="0" 
d="M-113 631h-89.001c0 54.667 10.667 96 32 124s51 42 89 42c20 0 39.833 -5.66699 59.5 -17s37.167 -22.666 52.5 -33.999s28 -17 38 -17c28 0 42.667 22.667 44 68h89c0 -110.667 -40.333 -166 -121 -166c-20 0 -39.667 5.66699 -59 17s-36.666 22.666 -51.999 33.999
s-28.333 17 -39 17c-28 0 -42.667 -22.667 -44 -68z" />
    <glyph glyph-name="uni0304" unicode="&#x304;" horiz-adv-x="0" 
d="M171 609h-342v88h342v-88z" />
    <glyph glyph-name="uni0306" unicode="&#x306;" horiz-adv-x="0" 
d="M-1 593c-56.667 0 -98.332 12.5 -124.999 37.5s-41 62.5 -43 112.5h74c2 -49.333 33.667 -74 95 -74s93 24.667 95 74h74c-4.66699 -100 -61.334 -150 -170.001 -150z" />
    <glyph glyph-name="uni0307" unicode="&#x307;" horiz-adv-x="0" 
d="M58 598h-117v114h117v-114z" />
    <glyph glyph-name="uni0308" unicode="&#x308;" horiz-adv-x="0" 
d="M-48 598h-117v114h117v-114zM165 598h-117v114h117v-114z" />
    <glyph glyph-name="uni030A" unicode="&#x30a;" horiz-adv-x="0" 
d="M103 618c-26.667 -26.667 -60.998 -40 -102.998 -40s-76.333 13.333 -103 40s-40 60.667 -40 102c0 42 13.333 76.333 40 103c27.333 27.333 61.666 41 102.999 41s75.666 -13.667 102.999 -41c26.667 -26.667 40 -61 40 -103c0 -41.333 -13.333 -75.333 -40 -102z
M-51.998 668c15.333 -12.667 32.502 -19.334 51.502 -20.001s36.167 6 51.5 20s22.333 31.333 21 52c0 22 -6.83301 39.833 -20.5 53.5s-30.834 20.5 -51.501 20.5s-37.834 -6.83301 -51.501 -20.5s-20.5 -31.5 -20.5 -53.5c0 -21.333 6.66699 -38.666 20 -51.999z" />
    <glyph glyph-name="uni030B" unicode="&#x30b;" horiz-adv-x="0" 
d="M-76 576h-86l73 158h131zM118 576h-87l79 158h130z" />
    <glyph glyph-name="uni030C" unicode="&#x30c;" horiz-adv-x="0" 
d="M57 576h-114l-119 151h111l65 -91l65 91h111z" />
    <glyph glyph-name="uni0312" unicode="&#x312;" horiz-adv-x="0" 
d="M67 745h-40c-29.333 0 -44 -14.333 -44 -43v-21l84 7v-90h-134v100c0 61.333 31.333 92 94 92h40v-45z" />
    <glyph glyph-name="uni0313" unicode="&#x313;" horiz-adv-x="0" 
d="M-67 700v90h134v-99c0 -62 -31.333 -93 -94 -93h-40v45h40c30 0 45 14.667 45 44v20z" />
    <glyph glyph-name="dotbelowcomb" unicode="&#x323;" horiz-adv-x="0" 
d="M58 -196h-117v114h117v-114z" />
    <glyph glyph-name="uni0324" unicode="&#x324;" horiz-adv-x="0" 
d="M-48 -192h-117v114h117v-114zM165 -192h-117v114h117v-114z" />
    <glyph glyph-name="uni0325" unicode="&#x325;" horiz-adv-x="0" 
d="M103 -307c-27.333 -27.333 -61.668 -41 -103.001 -41s-75.666 13.667 -102.999 41c-26.667 26.667 -40 61 -40 103c0 41.333 13.333 75.333 40 102s61 40 103 40s76.333 -13.333 103 -40s40 -60.667 40 -102c0 -42 -13.333 -76.333 -40 -103zM-52.002 -258
c15.333 -12.667 32.502 -19.333 51.502 -20s36.167 6 51.5 20s22.333 32 21 54c0 21.333 -6.83301 38.666 -20.5 51.999s-30.834 20 -51.501 20s-37.834 -6.66699 -51.501 -20s-20.5 -30.666 -20.5 -51.999c0 -22.667 6.66699 -40.667 20 -54z" />
    <glyph glyph-name="uni0326" unicode="&#x326;" horiz-adv-x="0" 
d="M-68 -160v97h135v-118c0 -62 -31.667 -93 -95 -93h-40v46h40c30.667 0 46 14.333 46 43v27z" />
    <glyph glyph-name="uni0327" unicode="&#x327;" horiz-adv-x="0" 
d="M-28 -249h-40v60h30c38.667 0 58 11.333 58 34c0 19.333 -11.667 29 -35 29h-32l-32 49l49 77h65l-39 -59h16c30.667 0 55 -7.66699 73 -23s27 -37 27 -65c0 -32 -12.5 -57 -37.5 -75s-59.167 -27 -102.5 -27z" />
    <glyph glyph-name="uni0328" unicode="&#x328;" horiz-adv-x="0" 
d="M-6 -211h-70.001c-83.333 0 -125 30 -125 90c0 21.333 6.33301 40.5 19 57.5s34.334 35.167 65.001 54.5l41 24l76 -15l-59 -44c-24 -18 -36 -35.667 -36 -53c0 -25.333 18.333 -38 55 -38h34v-76z" />
    <glyph glyph-name="uni032E" unicode="&#x32e;" horiz-adv-x="0" 
d="M-1 -211c-56.667 0 -98.332 12.5 -124.999 37.5s-41 62.5 -43 112.5h74c2 -49.333 33.667 -74 95 -74s93 24.667 95 74h74c-4.66699 -100 -61.334 -150 -170.001 -150z" />
    <glyph glyph-name="uni0331" unicode="&#x331;" horiz-adv-x="0" 
d="M171 -181h-342v88h342v-88z" />
    <glyph glyph-name="uni0335" unicode="&#x335;" horiz-adv-x="0" 
d="M1 334l-150 -5v88l150 -5l148 5v-88z" />
    <glyph glyph-name="uni0337" unicode="&#x337;" horiz-adv-x="0" 
d="M251 516l-440 -548l-62 48l440 548z" />
    <glyph glyph-name="uni0338" unicode="&#x338;" horiz-adv-x="0" 
d="M319 686l-576 -718l-62 48l576 718z" />
    <glyph glyph-name="uni0394" unicode="&#x394;" horiz-adv-x="718" 
d="M291 712h139l260 -712h-663zM317 457l-125 -355h332l-122 355l-42 139z" />
    <glyph glyph-name="uni03A9" unicode="&#x3a9;" horiz-adv-x="785" 
d="M348 0l-298.999 -0.000976562v100h152v2c-98 66.667 -147 162.334 -147 287.001c0 102 31 184 93 246c62.667 61.333 144.667 92 246 92s182.666 -30.667 243.999 -92s92 -143.333 92 -246c0 -125.333 -48.333 -221 -145 -287v-2h152v-100h-298v93
c112.667 58.667 169 154.667 169 288c0 78 -19 137.5 -57 178.5s-90.333 61.5 -157 61.5c-67.333 0 -120.333 -20.5 -159 -61.5s-58 -100.5 -58 -178.5c0 -131.333 57.333 -227.333 172 -288v-93z" />
    <glyph glyph-name="uni03BC" unicode="&#x3bc;" horiz-adv-x="586" 
d="M187 -204h-117v720h117v-323c0 -68 29.667 -102 89 -102c36.667 0 66.334 12.5 89.001 37.5s34 60.5 34 106.5v281h117v-516h-113v73c-28.667 -56.667 -77.334 -85 -146.001 -85c-36 0 -66.333 9.66699 -91 29l-2 -2l23 -125v-94z" />
    <glyph glyph-name="pi" unicode="&#x3c0;" horiz-adv-x="675" 
d="M650 516v-107.999h-116v-245c0 -24 4.66699 -40.833 14 -50.5s26 -14.5 50 -14.5h25v-98h-47c-52 0 -90.5 13.167 -115.5 39.5s-37.5 67.166 -37.5 122.499v246h-171v-408h-111v408h-114v108h623z" />
    <glyph glyph-name="d.sups" unicode="&#x1d48;" horiz-adv-x="476" 
d="M310 673l-0.000976562 168.999h96v-470h-86l-5 47c-29.333 -39.333 -68.666 -59 -117.999 -59c-46.667 0 -84.334 16.833 -113.001 50.5s-43 77.834 -43 132.501c0 55.333 14.333 99.333 43 132s66.334 49 113.001 49c46 0 83.667 -17 113 -51zM223.999 439.999
c28 0 49.667 9.33203 65 27.999s23 44 23 76s-7.83301 57.5 -23.5 76.5s-37.5 28.5 -65.5 28.5c-26.667 0 -47.5 -9 -62.5 -27s-22.5 -43.667 -22.5 -77s7.66699 -59.166 23 -77.499s36.333 -27.5 63 -27.5z" />
    <glyph glyph-name="t.sups" unicode="&#x1d57;" horiz-adv-x="297" 
d="M272 713l0.000976562 -75l-79 2v-154c0 -27.333 13 -41 39 -41h40v-73h-73c-36.667 0 -62.834 7.16699 -78.501 21.5s-23.5 40.833 -23.5 79.5v167l-70 -2v75l70 -2v103h96v-103z" />
    <glyph glyph-name="Wgrave" unicode="&#x1e80;" horiz-adv-x="963" 
d="M482 920l67 -148h-87l-129 148h149zM709 322l103 390h124l-203 -712h-116l-137 556l-136 -556h-117l-200 712h127l99 -390l34 -151l34 151l97 390h126l96 -390l33 -151z" />
    <glyph glyph-name="wgrave" unicode="&#x1e81;" horiz-adv-x="775" 
d="M386 724l67 -148h-87l-129 148h149zM562 253l71 263h122l-161 -516h-113l-74 297l-19 100l-20 -100l-76 -297h-114l-158 516h124l69 -263l27 -130l26 130l66 263h113l65 -262l26 -130z" />
    <glyph glyph-name="Wacute" unicode="&#x1e82;" horiz-adv-x="963" 
d="M480 920h150l-129 -148h-88zM709 322l103 390h124l-203 -712h-116l-137 556l-136 -556h-117l-200 712h127l99 -390l34 -151l34 151l97 390h126l96 -390l33 -151z" />
    <glyph glyph-name="wacute" unicode="&#x1e83;" horiz-adv-x="775" 
d="M385 724h150l-129 -148h-88zM562 253l71 263h122l-161 -516h-113l-74 297l-19 100l-20 -100l-76 -297h-114l-158 516h124l69 -263l27 -130l26 130l66 263h113l65 -262l26 -130z" />
    <glyph glyph-name="Wdieresis" unicode="&#x1e84;" horiz-adv-x="963" 
d="M318 904h117v-114h-117v114zM531 904h117v-114h-117v114zM709 322l103 390h124l-203 -712h-116l-137 556l-136 -556h-117l-200 712h127l99 -390l34 -151l34 151l97 390h126l96 -390l33 -151z" />
    <glyph glyph-name="wdieresis" unicode="&#x1e85;" horiz-adv-x="775" 
d="M223 712h117v-114h-117v114zM436 712h117v-114h-117v114zM562 253l71 263h122l-161 -516h-113l-74 297l-19 100l-20 -100l-76 -297h-114l-158 516h124l69 -263l27 -130l26 130l66 263h113l65 -262l26 -130z" />
    <glyph glyph-name="uni1E9E" unicode="&#x1e9e;" horiz-adv-x="708" 
d="M634 623l-165 -200.001c62 -9.33301 110.5 -32.666 145.5 -69.999s52.5 -84 52.5 -140c0 -68 -23.5 -121.833 -70.5 -161.5s-112.167 -59.5 -195.5 -59.5c-32.667 0 -70 3.66699 -112 11v102c34.667 -7.33301 69.667 -11 105 -11c48.667 0 85.667 10.167 111 30.5
s38 49.5 38 87.5c0 37.333 -13 66 -39 86s-63.333 30 -112 30c-21.333 0 -41 -1 -59 -3v88l164 208c-31.333 4 -69.666 6 -114.999 6c-66.667 0 -114.334 -14.833 -143.001 -44.5s-43 -74.5 -43 -134.5v-448h-121v447c0 92 26 162.333 78 211s128 73 228 73
c80 0 164.333 -5.66699 253 -17v-91z" />
    <glyph glyph-name="Ygrave" unicode="&#x1ef2;" horiz-adv-x="670" 
d="M333 920l67 -148h-87l-129 148h149zM373 456l144 256h133l-252 -428v-284h-121v284l-258 428h138l145 -256l36 -77z" />
    <glyph glyph-name="ygrave" unicode="&#x1ef3;" horiz-adv-x="548" 
d="M274 724l67 -148h-87l-129 148h149zM276 124l129.001 392.001h123l-223 -612c-14 -40.667 -31.833 -68.834 -53.5 -84.501s-51.834 -23.5 -90.501 -23.5h-89v99h59c22 0 38.667 4 50 12s21 22.667 29 44l14 38l-204 527h128l114 -322z" />
    <glyph glyph-name="thinspace" unicode="&#x2009;" horiz-adv-x="257" 
 />
    <glyph glyph-name="uni2011" unicode="&#x2011;" horiz-adv-x="380" 
d="M330 215h-280v103h280v-103z" />
    <glyph glyph-name="endash" unicode="&#x2013;" horiz-adv-x="535" 
d="M485 215h-435v98h435v-98z" />
    <glyph glyph-name="emdash" unicode="&#x2014;" horiz-adv-x="829" 
d="M779 215h-729v98h729v-98z" />
    <glyph glyph-name="quoteleft" unicode="&#x2018;" horiz-adv-x="214" 
d="M178 437h-137v158c0 79.333 40.333 119 121 119h15v-57h-15c-37.333 0 -56 -19 -56 -57v-40l72 3v-126z" />
    <glyph glyph-name="quoteright" unicode="&#x2019;" horiz-adv-x="214" 
d="M51 435h-14v57h14c38 0 57 19 57 57v40l-72 -3v126h137v-157c0 -80 -40.667 -120 -122 -120z" />
    <glyph glyph-name="quotesinglbase" unicode="&#x201a;" horiz-adv-x="291" 
d="M93 -151h-15v57h15c37.333 0 56 19 56 57v39l-72 -2v126h137v-158c0 -79.333 -40.333 -119 -121 -119z" />
    <glyph glyph-name="quotedblleft" unicode="&#x201c;" horiz-adv-x="409" 
d="M178 438h-137v157c0 79.333 40.333 119 121 119h15v-57h-15c-37.333 0 -56 -18.667 -56 -56v-40l72 2v-125zM373 438h-137v157c0 79.333 40.333 119 121 119h15v-57h-15c-38 0 -57 -18.667 -57 -56v-40l73 2v-125z" />
    <glyph glyph-name="quotedblright" unicode="&#x201d;" horiz-adv-x="409" 
d="M51 435h-14v57h14c38 0 57 19 57 57v40l-72 -3v126h137v-157c0 -80 -40.667 -120 -122 -120zM246 435h-14v57h14c38 0 57 19 57 57v40l-72 -3v126h137v-157c0 -80 -40.667 -120 -122 -120z" />
    <glyph glyph-name="quotedblbase" unicode="&#x201e;" horiz-adv-x="485" 
d="M93 -151h-15v57h15c37.333 0 56 19 56 57v39l-72 -2v126h137v-157c0 -80 -40.333 -120 -121 -120zM286 -151h-14v57h14c38 0 57 19 57 57v39l-72 -2v126h137v-158c0 -79.333 -40.667 -119 -122 -119z" />
    <glyph glyph-name="dagger" unicode="&#x2020;" horiz-adv-x="620" 
d="M366 604l180 5v-104l-180 5v-615h-111v615l-180 -5v104l180 -5v246h111v-246z" />
    <glyph glyph-name="daggerdbl" unicode="&#x2021;" horiz-adv-x="620" 
d="M546 609v-104l-180 5v-271l180 5v-104l-180 5v-250h-111v250l-180 -5v104l180 -5v271l-180 -5v104l180 -5v246h111v-246z" />
    <glyph glyph-name="bullet" unicode="&#x2022;" horiz-adv-x="392" 
d="M317 173h-242v219h242v-219z" />
    <glyph glyph-name="ellipsis" unicode="&#x2026;" horiz-adv-x="847" 
d="M209 0h-139v126h139v-126zM493 0h-139v126h139v-126zM777 0h-139v126h139v-126z" />
    <glyph glyph-name="perthousand" unicode="&#x2030;" horiz-adv-x="1663" 
d="M398 349c-32 -39.333 -78 -59 -138 -59s-105.667 19.667 -137 59c-32 39.333 -48 95.666 -48 168.999c0 72.667 15.833 128.334 47.5 167.001s77.5 58 137.5 58s105.833 -19.333 137.5 -58s47.5 -94.334 47.5 -167.001c0 -73.333 -15.667 -129.666 -47 -168.999zM417 -15
h-100l448 742h98zM193 406c15.333 -23.333 37.668 -35 67.001 -35s51.666 11.667 66.999 35c14.667 22.667 22 59.667 22 111s-7.33301 88.333 -22 111s-37 34 -67 34s-52.333 -11.333 -67 -34s-22 -59.667 -22 -111s7.33301 -88.333 22 -111zM1071 43
c-32 -39.333 -78 -59.001 -138 -59.001s-105.667 19.667 -137 59c-32 38.667 -48 95 -48 169c0 72.667 15.833 128.334 47.5 167.001s77.5 58 137.5 58s105.833 -19.333 137.5 -58s47.5 -94.334 47.5 -167.001c0 -73.333 -15.667 -129.666 -47 -168.999zM1541 42.999
c-32 -39.333 -78 -59.001 -138 -59.001s-105.667 19.667 -137 59c-32 38.667 -48 95 -48 169c0 72.667 15.833 128.334 47.5 167.001s77.5 58 137.5 58s105.833 -19.333 137.5 -58s47.5 -94.334 47.5 -167.001c0 -73.333 -15.667 -129.666 -47 -168.999zM866.002 99.998
c15.333 -23.333 37.668 -35 67.001 -35s51.666 11.667 66.999 35c14.667 22.667 22 59.667 22 111c0 50 -7.33301 86.5 -22 109.5s-37 34.5 -67 34.5s-52.333 -11.5 -67 -34.5s-22 -59.5 -22 -109.5c0 -51.333 7.33301 -88.333 22 -111zM1336 99.998
c15.333 -23.333 37.668 -35 67.001 -35s51.666 11.667 66.999 35c14.667 22.667 22 59.667 22 111c0 50 -7.33301 86.5 -22 109.5s-37 34.5 -67 34.5s-52.333 -11.5 -67 -34.5s-22 -59.5 -22 -109.5c0 -51.333 7.33301 -88.333 22 -111z" />
    <glyph glyph-name="guilsinglleft" unicode="&#x2039;" horiz-adv-x="400" 
d="M331 124v-134l-261 213v108l261 213v-134l-166 -133z" />
    <glyph glyph-name="guilsinglright" unicode="&#x203a;" horiz-adv-x="400" 
d="M330 203l-260 -213v134l165 133l-165 133v134l260 -213v-108z" />
    <glyph glyph-name="uni203D" unicode="&#x203d;" horiz-adv-x="614" 
d="M301 727c82.667 0 147.166 -17.8301 193.499 -53.4971s69.5 -85.834 69.5 -150.501c0 -72.667 -33.667 -128.667 -101 -168l-46 -27c-26 -16 -44.667 -32.5 -56 -49.5s-18.666 -41.167 -21.999 -72.5h-76l-23 243v78h121v-78l-5 -53c2 1.33301 5.16699 3.33301 9.5 6
s7.5 4.66699 9.5 6c47.333 29.333 71 65.666 71 108.999c0 73.333 -48.333 110 -145 110c-50 0 -86.667 -10.833 -110 -32.5s-35.666 -55.834 -36.999 -102.501h-115c3.33301 75.333 27.166 133.333 71.499 174s107.833 61 190.5 61zM364.999 0.00292969h-128v126h128v-126z
" />
    <glyph glyph-name="fraction" unicode="&#x2044;" horiz-adv-x="365" 
d="M10 -15h-101l448 742h99z" />
    <glyph glyph-name="zero.sups" unicode="&#x2070;" horiz-adv-x="442" 
d="M359 415c-32 -39.333 -78 -59 -138 -59s-105.667 19.667 -137 59c-32 39.333 -48 95.666 -48 168.999c0 72.667 15.833 128.334 47.5 167.001s77.5 58 137.5 58s105.833 -19.333 137.5 -58s47.5 -94.334 47.5 -167.001c0 -73.333 -15.667 -129.666 -47 -168.999zM154 472
c15.333 -23.333 37.668 -35 67.001 -35s51.666 11.667 66.999 35c14.667 22.667 22 59.667 22 111c0 50 -7.33301 86.5 -22 109.5s-37 34.5 -67 34.5s-52.333 -11.5 -67 -34.5s-22 -59.5 -22 -109.5c0 -51.333 7.33301 -88.333 22 -111z" />
    <glyph glyph-name="four.sups" unicode="&#x2074;" horiz-adv-x="453" 
d="M337 372h-86v88l-211 -3v74l199 268h98v-268l72 3v-77l-72 3v-88zM248 694l-119 -161l122 -2v163h-3z" />
    <glyph glyph-name="five.sups" unicode="&#x2075;" horiz-adv-x="445" 
d="M219 356c-44 0 -80.833 9.5 -110.5 28.5s-49.167 45.5 -58.5 79.5l90 14c13.333 -32 40 -48 80 -48c27.333 0 48.333 6.5 63 19.5s22 30.833 22 53.5c0 23.333 -7.33301 41.833 -22 55.5s-35.334 20.5 -62.001 20.5c-30.667 0 -55 -10 -73 -30l-89 15l41 235h265v-76
h-202l-17 -96l2 -1c26.667 16.667 58 25 94 25c46.667 0 83.834 -13.167 111.501 -39.5s41.5 -60.833 41.5 -103.5c0 -45.333 -15.667 -82 -47 -110s-74.333 -42 -129 -42z" />
    <glyph glyph-name="six.sups" unicode="&#x2076;" horiz-adv-x="455" 
d="M237 356c-61.333 0 -107.833 19 -139.5 57s-47.5 92 -47.5 162c0 76 15.833 133.833 47.5 173.5s78.167 59.5 139.5 59.5c40 0 73.833 -8.33301 101.5 -25s46.5 -39 56.5 -67l-89 -17c-14 25.333 -37.667 38 -71 38c-61.333 0 -94 -44 -98 -132
c26.667 32.667 65.667 49 117 49c46.667 0 84.167 -13.333 112.5 -40s42.5 -62 42.5 -106c0 -46 -15.5 -82.833 -46.5 -110.5s-72.833 -41.5 -125.5 -41.5zM236 429c26 0 46.333 7.16699 61 21.5s22 33.5 22 57.5c0 23.333 -7.5 41.833 -22.5 55.5s-35.167 20.5 -60.5 20.5
c-26 0 -47 -7 -63 -21s-24 -32 -24 -54c0 -25.333 8 -45 24 -59s37 -21 63 -21z" />
    <glyph glyph-name="seven.sups" unicode="&#x2077;" horiz-adv-x="392" 
d="M196 372h-93.999c9.33301 136.667 61 253 155 349h-224v78h327v-73c-53.333 -49.333 -92.333 -101.333 -117 -156c-26.667 -56 -42.334 -122 -47.001 -198z" />
    <glyph glyph-name="eight.sups" unicode="&#x2078;" horiz-adv-x="465" 
d="M233 359c-58.667 0 -104.501 12.001 -137.501 36.001s-49.5 56.667 -49.5 98c0 26.667 7.83301 49.667 23.5 69s37.167 32.666 64.5 39.999v3c-20 8 -36 20 -48 36s-18 34 -18 54c0 35.333 14.5 63 43.5 83s69.5 30 121.5 30c51.333 0 91.333 -10 120 -30
s43 -47.667 43 -83c0 -21.333 -5.83301 -40 -17.5 -56s-27.5 -27.333 -47.5 -34v-3c26.667 -7.33301 47.834 -20.5 63.501 -39.5s23.5 -42.167 23.5 -69.5c0 -41.333 -16.333 -74 -49 -98s-78 -36 -136 -36zM232.999 631.001c24 0 42.833 4.83301 56.5 14.5
s20.5 23.167 20.5 40.5c0 36 -25.667 54 -77 54c-52 0 -78 -18 -78 -54c0 -36.667 26 -55 78 -55zM163.999 446.001c17.333 -12 40.332 -18 68.999 -18s51.667 6 69 18c16 12 24 28.667 24 50c0 22 -8.16699 38.833 -24.5 50.5s-39.166 17.5 -68.499 17.5
c-30 0 -53.333 -5.83301 -70 -17.5s-25 -28.5 -25 -50.5c0 -21.333 8.66699 -38 26 -50z" />
    <glyph glyph-name="nine.sups" unicode="&#x2079;" horiz-adv-x="455" 
d="M218 356c-40.667 0 -74.667 8.33301 -102 25s-46 39 -56 67l89 17c13.333 -25.333 37 -38 71 -38c61.333 0 94 44 98 132c-26.667 -32.667 -66 -49 -118 -49c-46.667 0 -84 13.167 -112 39.5s-42 61.833 -42 106.5c0 46 15.5 82.833 46.5 110.5s72.5 41.5 124.5 41.5
c61.333 0 108 -19 140 -57s48 -92 48 -162c0 -76 -15.833 -133.833 -47.5 -173.5s-78.167 -59.5 -139.5 -59.5zM158 601c15.333 -14 35.667 -21 61 -21c26 0 47 7 63 21s24 32 24 54c0 25.333 -8 45 -24 59s-37 21 -63 21s-46.333 -7.16699 -61 -21.5s-22 -33.5 -22 -57.5
s7.33301 -42.333 22 -55z" />
    <glyph glyph-name="plus.sups" unicode="&#x207a;" horiz-adv-x="482" 
d="M277 589h157v-69h-157v-148h-73v148h-156v69h156v149h73v-149z" />
    <glyph glyph-name="minus.sups" unicode="&#x207b;" horiz-adv-x="476" 
d="M428 521h-380v69h380v-69z" />
    <glyph glyph-name="parenleft.sups" unicode="&#x207d;" horiz-adv-x="304" 
d="M258 237l-96 -0.000976562c-66.667 92.667 -100 197.334 -100 314.001c0 118 33.333 222.667 100 314h96c-59.333 -97.333 -89 -202.333 -89 -315c0 -112 29.667 -216.333 89 -313z" />
    <glyph glyph-name="parenright.sups" unicode="&#x207e;" horiz-adv-x="304" 
d="M142 237l-95 0.00195312c58.667 96.667 88 201 88 313c0 115.333 -29.333 220.333 -88 315h95c66.667 -90.667 100 -195.334 100 -314.001c0 -116.667 -33.333 -221.334 -100 -314.001z" />
    <glyph glyph-name="n.sups" unicode="&#x207f;" horiz-adv-x="484" 
d="M283 722c42 0 74.499 -11.001 97.499 -33.001s34.5 -53 34.5 -93v-224h-97v204c0 44.667 -22.667 67 -68 67c-25.333 0 -45.666 -7.66699 -60.999 -23s-23 -36.666 -23 -63.999v-184h-96v340h87l2 -55c28 43.333 69.333 65 124 65z" />
    <glyph glyph-name="zero.subs" unicode="&#x2080;" horiz-adv-x="442" 
d="M359 -132c-32 -39.333 -78 -59.001 -138 -59.001s-105.667 19.667 -137 59c-32 38.667 -48 95 -48 169c0 72.667 15.833 128.334 47.5 167.001s77.5 58 137.5 58s105.833 -19.333 137.5 -58s47.5 -94.334 47.5 -167.001c0 -73.333 -15.667 -129.666 -47 -168.999z
M154 -76.001c14.667 -22.667 37 -34 67 -34s52.333 11.333 67 34s22 60 22 112c0 50 -7.33301 86.5 -22 109.5s-37 34.5 -67 34.5s-52.333 -11.5 -67 -34.5s-22 -59.5 -22 -109.5c0 -52 7.33301 -89.333 22 -112z" />
    <glyph glyph-name="one.subs" unicode="&#x2081;" horiz-adv-x="298" 
d="M228 -175h-89v286h-104v67h32c23.333 0 42.333 5.5 57 16.5s22.667 25.833 24 44.5l1 13h79v-427z" />
    <glyph glyph-name="two.subs" unicode="&#x2082;" horiz-adv-x="432" 
d="M381 -175l-330.002 0.000976562c0 47.333 7.5 85.666 22.5 114.999s39.5 53.333 73.5 72l91 47c36 19.333 54 41.666 54 66.999c0 18 -6.5 32.333 -19.5 43s-31.5 16 -55.5 16c-26 0 -44.667 -5.66699 -56 -17s-17.666 -29.333 -18.999 -54h-88
c1.33301 46.667 16 82.834 44 108.501s67.667 38.5 119 38.5c50.667 0 90.834 -12 120.501 -36s44.5 -56.667 44.5 -98c0 -52.667 -31.333 -95 -94 -127l-77 -40c-18.667 -10 -32 -19 -40 -27s-13 -17.667 -15 -29h225v-79z" />
    <glyph glyph-name="three.subs" unicode="&#x2083;" horiz-adv-x="446" 
d="M224 -191c-54 0 -96.334 12.667 -127.001 38s-46.667 61 -48 107h89c2 -46.667 30.667 -70 86 -70c54.667 0 82 20 82 60c0 38.667 -28 58 -84 58h-37v77h39c46.667 0 70 17.333 70 52c0 36.667 -25.333 55 -76 55c-48.667 0 -74.667 -19.667 -78 -59h-88
c0.666992 42 15.834 74.833 45.501 98.5s69.834 35.5 120.501 35.5c51.333 0 91.666 -11 120.999 -33s44 -51.333 44 -88c0 -22.667 -6.16699 -42.167 -18.5 -58.5s-29.5 -27.5 -51.5 -33.5v-2c26 -6.66699 46.5 -19.334 61.5 -38.001s22.5 -41 22.5 -67
c0 -39.333 -15.667 -71.166 -47 -95.499s-73.333 -36.5 -126 -36.5z" />
    <glyph glyph-name="four.subs" unicode="&#x2084;" horiz-adv-x="453" 
d="M337 -175h-86v88l-211 -3v74l199 268h98v-268l72 3v-77l-72 3v-88zM248 147l-119 -161l122 -2v163h-3z" />
    <glyph glyph-name="five.subs" unicode="&#x2085;" horiz-adv-x="445" 
d="M219 -191c-44 0 -80.833 9.5 -110.5 28.5s-49.167 45.5 -58.5 79.5l90 14c13.333 -32 40 -48 80 -48c27.333 0 48.333 6.5 63 19.5s22 30.833 22 53.5c0 23.333 -7.33301 41.833 -22 55.5s-35.334 20.5 -62.001 20.5c-30.667 0 -55 -10 -73 -30l-89 15l41 235h265v-76
h-202l-17 -96l2 -1c26.667 16.667 58 25 94 25c46.667 0 83.834 -13.167 111.501 -39.5s41.5 -60.833 41.5 -103.5c0 -45.333 -15.667 -82 -47 -110s-74.333 -42 -129 -42z" />
    <glyph glyph-name="six.subs" unicode="&#x2086;" horiz-adv-x="455" 
d="M237 -191c-61.333 0 -107.833 19 -139.5 57s-47.5 92 -47.5 162c0 76 15.833 133.833 47.5 173.5s78.167 59.5 139.5 59.5c40 0 73.833 -8.33301 101.5 -25s46.5 -39 56.5 -67l-89 -17c-14 25.333 -37.667 38 -71 38c-61.333 0 -94 -44 -98 -132
c26.667 32.667 65.667 49 117 49c46.667 0 84.167 -13.333 112.5 -40s42.5 -62 42.5 -106c0 -46 -15.5 -82.833 -46.5 -110.5s-72.833 -41.5 -125.5 -41.5zM236 -118c26 0 46.333 7.16699 61 21.5s22 33.5 22 57.5c0 23.333 -7.5 41.833 -22.5 55.5s-35.167 20.5 -60.5 20.5
c-26 0 -47 -7 -63 -21s-24 -32 -24 -54c0 -25.333 8 -45 24 -59s37 -21 63 -21z" />
    <glyph glyph-name="seven.subs" unicode="&#x2087;" horiz-adv-x="392" 
d="M196 -175h-93.999c9.33301 136.667 61 253 155 349h-224v78h327v-73c-53.333 -48.667 -92.333 -100.667 -117 -156c-26.667 -56 -42.334 -122 -47.001 -198z" />
    <glyph glyph-name="eight.subs" unicode="&#x2088;" horiz-adv-x="465" 
d="M233 -188c-58.667 0 -104.501 12.001 -137.501 36.001s-49.5 56.667 -49.5 98c0 26.667 7.83301 49.667 23.5 69s37.167 32.666 64.5 39.999v3c-20 8 -36 20 -48 36s-18 34 -18 54c0 35.333 14.5 63 43.5 83s69.5 30 121.5 30c51.333 0 91.333 -10 120 -30
s43 -47.667 43 -83c0 -21.333 -5.83301 -40 -17.5 -56s-27.5 -27.333 -47.5 -34v-3c26.667 -7.33301 47.834 -20.5 63.501 -39.5s23.5 -42.167 23.5 -69.5c0 -41.333 -16.333 -74 -49 -98s-78 -36 -136 -36zM232.999 84.001c24 0 42.833 4.83301 56.5 14.5
s20.5 23.167 20.5 40.5c0 36 -25.667 54 -77 54c-52 0 -78 -18 -78 -54c0 -36.667 26 -55 78 -55zM163.999 -100.999c17.333 -12 40.332 -18 68.999 -18s51.667 6 69 18c16 12 24 28.667 24 50c0 22 -8.16699 38.833 -24.5 50.5s-39.166 17.5 -68.499 17.5
c-30 0 -53.333 -5.83301 -70 -17.5s-25 -28.5 -25 -50.5c0 -21.333 8.66699 -38 26 -50z" />
    <glyph glyph-name="nine.subs" unicode="&#x2089;" horiz-adv-x="455" 
d="M218 -191c-40.667 0 -74.667 8.33301 -102 25s-46 39 -56 67l89 17c13.333 -25.333 37 -38 71 -38c61.333 0 94 44 98 132c-26.667 -32.667 -66 -49 -118 -49c-46.667 0 -84 13.167 -112 39.5s-42 61.833 -42 106.5c0 46 15.5 82.833 46.5 110.5s72.5 41.5 124.5 41.5
c61.333 0 108 -19 140 -57s48 -92 48 -162c0 -76 -15.833 -133.833 -47.5 -173.5s-78.167 -59.5 -139.5 -59.5zM158 54c14.667 -14 35 -21 61 -21s47 7 63 21s24 32 24 54c0 25.333 -8 45 -24 59s-37 21 -63 21s-46.333 -7.16699 -61 -21.5s-22 -33.5 -22 -57.5
s7.33301 -42.333 22 -55z" />
    <glyph glyph-name="plus.subs" unicode="&#x208a;" horiz-adv-x="482" 
d="M277 70h157v-69h-157v-148h-73v148h-156v69h156v148h73v-148z" />
    <glyph glyph-name="minus.subs" unicode="&#x208b;" horiz-adv-x="476" 
d="M428 1h-380v69h380v-69z" />
    <glyph glyph-name="equal.subs" unicode="&#x208c;" horiz-adv-x="476" 
d="M428 84h-380v68h380v-68zM428 -84h-380v70h380v-70z" />
    <glyph glyph-name="uni208D" unicode="&#x208d;" horiz-adv-x="304" 
d="M258 -310h-96c-66.667 92.667 -100 197.667 -100 315c0 118 33.333 222.333 100 313h96c-59.333 -96.667 -89 -201.667 -89 -315c0 -112 29.667 -216.333 89 -313z" />
    <glyph glyph-name="uni208E" unicode="&#x208e;" horiz-adv-x="304" 
d="M142 -310l-95 -0.000976562c58.667 96.667 88 201 88 313c0 115.333 -29.333 220.333 -88 315h95c66.667 -89.333 100 -193.666 100 -312.999c0 -117.333 -33.333 -222.333 -100 -315z" />
    <glyph glyph-name="n.subs" unicode="&#x2099;" horiz-adv-x="484" 
d="M283 176c41.333 0 73.666 -11 96.999 -33s35 -53.333 35 -94v-224h-97v205c0 44 -22.667 66 -68 66c-25.333 0 -45.666 -7.5 -60.999 -22.5s-23 -36.5 -23 -64.5v-184h-96v340h87l2 -54c28 43.333 69.333 65 124 65z" />
    <glyph glyph-name="Euro" unicode="&#x20ac;" 
d="M500 621c-101.333 0 -168.665 -41.668 -201.998 -125.001h331v-92h-351c-1.33301 -28 -2 -44.333 -2 -49c0 -3.33301 0.666992 -17.666 2 -42.999h351v-92h-333c32 -87.333 99.333 -131 202 -131c44 0 87.667 8 131 24v-108c-44 -14 -90 -21 -138 -21
c-80.667 0 -148.834 20.833 -204.501 62.5s-93.834 99.5 -114.501 173.5h-131v92h115c-1.33301 25.333 -2 39.666 -2 42.999c0 4.66699 0.666992 21 2 49h-115v92h132c22 72.667 60.5 129.334 115.5 170.001s122.167 61 201.5 61c48 0 94.333 -7.66699 139 -23v-107
c-43.333 16 -86.333 24 -129 24z" />
    <glyph glyph-name="uni20B8" unicode="&#x20b8;" horiz-adv-x="627" 
d="M27 605v107h572v-107h-572zM253 405h-226v107h572v-107h-225v-405h-121v405z" />
    <glyph glyph-name="uni20B9" unicode="&#x20b9;" 
d="M620 712l0.000976562 -89.998h-214c19.333 -20 31.666 -45.333 36.999 -76h177v-90h-181c-16 -58.667 -56.667 -97 -122 -115c31.333 -6.66699 55.833 -19.334 73.5 -38.001s31.834 -47 42.501 -85l61 -218h-126l-52 193c-10 37.333 -24 62.666 -42 75.999
s-46.667 20 -86 20h-138v91h160c33.333 0 58.833 6 76.5 18s29.167 31.333 34.5 58h-271v90h272c-4.66699 26.667 -14.834 46 -30.501 58s-39.167 18 -70.5 18h-171v90h570z" />
    <glyph glyph-name="uni20BA" unicode="&#x20ba;" 
d="M523 251h114c-8.66699 -80 -39.667 -141.833 -93 -185.5s-123 -65.5 -209 -65.5h-163v193l-137 -72v108l137 71v96l-137 -72v107l137 72v209h121v-146l202 106v-107l-202 -106v-95l202 105v-107l-202 -106v-148h36c114 0 178.667 47.667 194 143z" />
    <glyph glyph-name="uni20BC" unicode="&#x20bc;" 
d="M393 712v-184c154 -4 231 -86 231 -246v-282h-115v289c0 47.333 -9 81.833 -27 103.5s-47.667 34.167 -89 37.5v-324h-115v324c-41.333 -3.33301 -70.833 -16 -88.5 -38s-26.5 -56.333 -26.5 -103v-289h-116v282c0 160 77 242 231 246v184h115z" />
    <glyph glyph-name="uni20BF" unicode="&#x20bf;" 
d="M622 208c0 -52.667 -14.6689 -96.832 -44.002 -132.499s-70.666 -58.834 -123.999 -69.501v-150h-95v144h-87v-144h-95v144h-99v712h99v135h95v-135h87v135h95v-142c44.667 -10 79.334 -29.5 104.001 -58.5s37 -65.167 37 -108.5c0 -76.667 -36.667 -127.667 -110 -153
c91.333 -27.333 137 -86.333 137 -177zM193.998 424.002l164 -0.000976562c38 0 66.833 8.33301 86.5 25s29.5 40.334 29.5 71.001c0 60.667 -36.333 91 -109 91h-171v-187zM193.998 103.001h178c42 0 74.167 9.66699 96.5 29s33.5 47 33.5 83
c0 72.667 -42.333 109 -127 109h-181v-221z" />
    <glyph glyph-name="uni2105" unicode="&#x2105;" horiz-adv-x="1150" 
d="M403 -15h-100l448 742h98zM261 362c-56 0 -101.003 16.334 -135.003 49.001s-51 76.667 -51 132s16.5 99.333 49.5 132s77.5 49 133.5 49c46.667 0 86 -11.333 118 -34s51.667 -52.334 59 -89.001l-95 -10c-8.66699 38.667 -34.667 58 -78 58
c-57.333 0 -86 -35.333 -86 -106c0 -70 28.667 -105 86 -105c42.667 0 68.334 21 77.001 63l95 -10c-7.33301 -40 -26.166 -71.5 -56.499 -94.5s-69.166 -34.5 -116.499 -34.5zM1024 33.001c-33.333 -32.667 -79.668 -49.001 -139.001 -49.001s-105.666 16.333 -138.999 49
c-34.667 32.667 -52 76.667 -52 132c0 54.667 17.167 98.334 51.5 131.001s80.833 49 139.5 49s105 -16 139 -48c34 -32.667 51 -76.667 51 -132s-17 -99.333 -51 -132zM816.995 86c16 -18 38.666 -27.001 67.999 -27.001s52 9 68 27s24 44.333 24 79c0 34 -8 60 -24 78
s-38.667 27 -68 27s-52.166 -9 -68.499 -27s-24.5 -44 -24.5 -78c0 -35.333 8.33301 -61.666 25 -78.999z" />
    <glyph glyph-name="uni2113" unicode="&#x2113;" horiz-adv-x="520" 
d="M314 82c31.333 0 61.999 15 91.999 45l59 -74c-44.667 -46.667 -99 -70 -163 -70c-47.333 0 -85 12.667 -113 38s-42 60.333 -42 105v64l-81 -38l-39 91l120 47v285c0 48.667 13.5 86.167 40.5 112.5s66.167 39.5 117.5 39.5c111.333 0 167 -63.333 167 -190
c0 -75.333 -16.667 -136.5 -50 -183.5s-87.666 -85.5 -162.999 -115.5v-97c0 -39.333 18.333 -59 55 -59zM306.999 630c-32 0 -48.001 -19 -48.001 -57v-230c38.667 24 65.834 49.5 81.501 76.5s23.5 62.167 23.5 105.5c0 70 -19 105 -57 105z" />
    <glyph glyph-name="uni2116" unicode="&#x2116;" horiz-adv-x="1183" 
d="M953 725c58 0 104.167 -16.333 138.5 -49s51.5 -76.334 51.5 -131.001c0 -55.333 -17.167 -99.333 -51.5 -132s-80.5 -49 -138.5 -49c-58.667 0 -105.167 16.333 -139.5 49s-51.5 76.667 -51.5 132c0 54.667 17.167 98.334 51.5 131.001s80.833 49 139.5 49zM199 712
l328 -520v520h118v-712h-126l-326 518v-518h-118v712h124zM953 439c28.667 0 51.167 9.16797 67.5 27.501s24.5 44.5 24.5 78.5c0 33.333 -8.16699 59.166 -24.5 77.499s-38.833 27.5 -67.5 27.5c-30 0 -53.167 -9 -69.5 -27s-24.5 -44 -24.5 -78
s8.16699 -60.167 24.5 -78.5s39.5 -27.5 69.5 -27.5z" />
    <glyph glyph-name="uni2117" unicode="&#x2117;" horiz-adv-x="850" 
d="M155 624c71.333 70 161.334 105 270.001 105s198.667 -35 270 -105c70.667 -70 106 -159.333 106 -268c0 -107.333 -35.333 -196 -106 -266c-70.667 -70.667 -160.667 -106 -270 -106c-108.667 0 -198.334 35.333 -269.001 106c-71.333 70 -107 158.667 -107 266
c0 108.667 35.333 198 106 268zM425.001 60c86 0 156.332 27.999 210.999 83.999c54.667 54.667 82 125.334 82 212.001s-27.333 157.667 -82 213c-55.333 55.333 -125.666 83 -210.999 83c-84.667 0 -154.667 -27.667 -210 -83c-55.333 -56.667 -83 -127.667 -83 -213
c0 -86 27.667 -156.667 83 -212c55.333 -56 125.333 -84 210 -84zM302 546.999l158.001 0.000976562c39.333 0 70.666 -11.833 93.999 -35.5s35 -54.5 35 -92.5c0 -38.667 -12.333 -69.834 -37 -93.501s-57 -35.5 -97 -35.5h-68v-120h-85v377zM387.001 362h57
c40 0 60 19 60 57c0 37.333 -19.333 56 -58 56h-59v-113z" />
    <glyph glyph-name="trademark" unicode="&#x2122;" horiz-adv-x="995" 
d="M250 330h-90v305h-119v77h328v-77h-119v-305zM534 330h-83v382h157l75 -320h10l71 320h161v-382h-85v320h-11l-71 -320h-140l-73 320h-11v-320z" />
    <glyph glyph-name="uni2126" unicode="&#x2126;" horiz-adv-x="785" 
d="M348 0l-298.999 -0.000976562v100h152v2c-98 66.667 -147 162.334 -147 287.001c0 102 31 184 93 246c62.667 61.333 144.667 92 246 92s182.666 -30.667 243.999 -92s92 -143.333 92 -246c0 -125.333 -48.333 -221 -145 -287v-2h152v-100h-298v93
c112.667 58.667 169 154.667 169 288c0 78 -19 137.5 -57 178.5s-90.333 61.5 -157 61.5c-67.333 0 -120.333 -20.5 -159 -61.5s-58 -100.5 -58 -178.5c0 -131.333 57.333 -227.333 172 -288v-93z" />
    <glyph glyph-name="estimated" unicode="&#x212e;" horiz-adv-x="909" 
d="M160 621c73.333 70 171.666 104.999 294.999 104.999c122.667 0 220.667 -36.667 294 -110c72.667 -73.333 109 -163.666 109 -270.999h-644c-9.33301 0 -14 -4.33301 -14 -13v-175c0 -21.333 5.33301 -37 16 -47c65.333 -64 145 -96 239 -96
c49.333 0 96.333 10.333 141 31s81.334 48.667 110.001 84h73c-29.333 -41.333 -72.166 -75.333 -128.499 -102s-121.5 -40 -195.5 -40c-120.667 0 -218.334 34.667 -293.001 104c-74.667 68.667 -112 156.667 -112 264s36.667 196 110 266zM455 697.999
c-94 0 -173.666 -32.667 -238.999 -98c-10.667 -10 -16 -24.333 -16 -43v-176c0 -8.66699 4.66699 -13 14 -13h479c9.33301 0 14 4.33301 14 13v176c0 18.667 -5.33301 33 -16 43c-66.667 65.333 -145.334 98 -236.001 98z" />
    <glyph glyph-name="uni2153" unicode="&#x2153;" horiz-adv-x="1084" 
d="M268 306h-89v286h-104v67h32c23.333 0 42.333 5.5 57 16.5s22.667 25.833 24 44.5l1 13h79v-427zM312 -15h-101l448 742h99zM963 21c-30.667 -24.667 -72.998 -37 -126.998 -37c-52.667 0 -94.667 12.667 -126 38c-30.667 24.667 -46.667 60.334 -48 107.001h88
c2.66699 -46.667 31.667 -70 87 -70c54.667 0 82 20 82 60c0 38.667 -28 58 -84 58h-37v77h39c46 0 69 17.333 69 52c0 36.667 -25 55 -75 55c-48.667 0 -75 -19.667 -79 -59h-88c1.33301 42.667 16.666 75.667 45.999 99s69.666 35 120.999 35c50 0 89.833 -11 119.5 -33
s44.5 -51.333 44.5 -88c0 -22.667 -6 -42.167 -18 -58.5s-29 -27.5 -51 -33.5v-2c26 -6.66699 46.5 -19.334 61.5 -38.001s22.5 -41 22.5 -67c0 -38 -15.667 -69.667 -47 -95z" />
    <glyph glyph-name="uni2154" unicode="&#x2154;" horiz-adv-x="1219" 
d="M406 306l-330 -0.00195312c0 48 7.5 86.667 22.5 116s39.5 53 73.5 71l91 47c36 18.667 54 41.334 54 68.001c0 18 -6.5 32.167 -19.5 42.5s-31.5 15.5 -55.5 15.5c-26 0 -44.667 -5.66699 -56 -17s-17.666 -29.333 -18.999 -54h-89
c1.33301 46.667 16.166 82.834 44.499 108.501s68.166 38.5 119.499 38.5c50.667 0 90.834 -11.833 120.501 -35.5s44.5 -56.167 44.5 -97.5c0 -53.333 -31.333 -96 -94 -128l-77 -40c-18.667 -10 -32 -18.833 -40 -26.5s-13 -17.5 -15 -29.5h225v-79zM447 -15.002h-101
l448 742h99zM1098 20.998c-30.667 -24.667 -73.002 -36.999 -127.002 -36.999c-52.667 0 -94.667 12.667 -126 38c-30.667 24.667 -46.667 60.334 -48 107.001h88c2.66699 -46.667 31.334 -70 86.001 -70c55.333 0 83 20 83 60c0 38.667 -28 58 -84 58h-37v77h38
c46.667 0 70 17.333 70 52c0 36.667 -25.333 55 -76 55c-48 0 -74 -19.667 -78 -59h-88c0.666992 42 15.834 74.833 45.501 98.5s69.834 35.5 120.501 35.5c51.333 0 91.666 -11 120.999 -33s44 -51.333 44 -88c0 -22.667 -6.16699 -42.167 -18.5 -58.5
s-29.5 -27.5 -51.5 -33.5v-2c26 -6.66699 46.5 -19.334 61.5 -38.001s22.5 -41 22.5 -67c0 -38.667 -15.333 -70.334 -46 -95.001z" />
    <glyph glyph-name="uni2155" unicode="&#x2155;" horiz-adv-x="1103" 
d="M268 306h-89v286h-104v67h32c23.333 0 42.333 5.5 57 16.5s22.667 25.833 24 44.5l1 13h79v-427zM312 -15h-101l448 742h99zM852 -16c-44 0 -80.833 9.5 -110.5 28.5s-49.167 45.5 -58.5 79.5l90 14c12.667 -32 39.334 -48 80.001 -48c27.333 0 48.166 6.5 62.499 19.5
s21.5 30.833 21.5 53.5c0 23.333 -7.33301 41.833 -22 55.5s-35 20.5 -61 20.5c-30.667 0 -55.334 -10 -74.001 -30l-88 15l41 235h265v-76h-203l-16 -96l2 -1c26.667 16.667 58 25 94 25c46.667 0 83.834 -13.167 111.501 -39.5s41.5 -60.833 41.5 -103.5
c0 -45.333 -15.667 -82 -47 -110s-74.333 -42 -129 -42z" />
    <glyph glyph-name="uni2156" unicode="&#x2156;" horiz-adv-x="1225" 
d="M406 306l-330 -0.00195312c0 48 7.5 86.667 22.5 116s39.5 53 73.5 71l91 47c36 18.667 54 41.334 54 68.001c0 18 -6.5 32.167 -19.5 42.5s-31.5 15.5 -55.5 15.5c-26 0 -44.667 -5.66699 -56 -17s-17.666 -29.333 -18.999 -54h-89
c1.33301 46.667 16.166 82.834 44.499 108.501s68.166 38.5 119.499 38.5c50.667 0 90.834 -11.833 120.501 -35.5s44.5 -56.167 44.5 -97.5c0 -53.333 -31.333 -96 -94 -128l-77 -40c-18.667 -10 -32 -18.833 -40 -26.5s-13 -17.5 -15 -29.5h225v-79zM434 -15.002h-100
l448 742h98zM975 -16.002c-44 0 -81 9.5 -111 28.5s-49.667 45.5 -59 79.5l90 14c12.667 -32 39.667 -48 81 -48c26.667 0 47.334 6.5 62.001 19.5s22 30.833 22 53.5c0 23.333 -7.33301 41.833 -22 55.5s-35.334 20.5 -62.001 20.5c-30.667 0 -55 -10 -73 -30l-88 15
l40 235h265v-76h-202l-17 -96l2 -1c26.667 16.667 58 25 94 25c46.667 0 84 -13.167 112 -39.5s42 -60.833 42 -103.5c0 -45.333 -15.667 -82 -47 -110s-74.333 -42 -129 -42z" />
    <glyph glyph-name="uni2157" unicode="&#x2157;" horiz-adv-x="1207" 
d="M376 327c-30.667 -24.667 -73.001 -36.9971 -127.001 -36.9971c-52.667 0 -94.667 12.667 -126 38c-30.667 24.667 -46.667 60.334 -48 107.001h88c2 -46.667 30.667 -70 86 -70s83 20 83 60c0 39.333 -28 59 -84 59h-37v76h38c46.667 0 70 17.333 70 52
c0 37.333 -25.333 56 -76 56c-48.667 0 -74.667 -20 -78 -60h-88c0.666992 42 15.834 74.833 45.501 98.5s69.834 35.5 120.501 35.5c51.333 0 91.666 -10.833 120.999 -32.5s44 -50.834 44 -87.501c0 -22.667 -6.16699 -42.334 -18.5 -59.001s-29.5 -28 -51.5 -34v-2
c26 -6.66699 46.5 -19.334 61.5 -38.001s22.5 -41 22.5 -67c0 -38.667 -15.333 -70.334 -46 -95.001zM415.999 -14.9971h-101l448 742h99zM955.999 -15.9971c-44 0 -80.835 9.5 -110.502 28.5s-49.167 45.5 -58.5 79.5l90 14c12.667 -32 39.334 -48 80.001 -48
c26.667 0 47.334 6.5 62.001 19.5s22 30.833 22 53.5c0 23.333 -7.33301 41.833 -22 55.5s-35 20.5 -61 20.5c-30.667 0 -55.334 -10 -74.001 -30l-88 15l41 235h265v-76h-203l-16 -96l2 -1c26.667 16.667 58 25 94 25c46.667 0 83.834 -13.167 111.501 -39.5
s41.5 -60.833 41.5 -103.5c0 -45.333 -15.667 -82 -47 -110s-74.333 -42 -129 -42z" />
    <glyph glyph-name="uni2158" unicode="&#x2158;" horiz-adv-x="1248" 
d="M372 306h-86v88l-211 -3v75l199 267h98v-268l72 3v-77l-72 3v-88zM457 -15h-101l448 742h99zM283 628l-119 -161l122 -2v163h-3zM997 -16c-44 0 -80.834 9.5 -110.501 28.5s-49.167 45.5 -58.5 79.5l90 14c12.667 -32 39.334 -48 80.001 -48
c27.333 0 48.166 6.5 62.499 19.5s21.5 30.833 21.5 53.5c0 24 -7.33301 42.667 -22 56s-35 20 -61 20c-30 0 -54.667 -10 -74 -30l-88 15l41 235h265v-76h-203l-16 -96l2 -1c26.667 16.667 58 25 94 25c46.667 0 83.834 -13.167 111.501 -39.5s41.5 -60.833 41.5 -103.5
c0 -45.333 -15.667 -82 -47 -110s-74.333 -42 -129 -42z" />
    <glyph glyph-name="uni2159" unicode="&#x2159;" horiz-adv-x="1073" 
d="M268 306h-89v286h-104v67h32c23.333 0 42.333 5.5 57 16.5s22.667 25.833 24 44.5l1 13h79v-427zM312 -15h-101l448 742h99zM827 -16c-61.333 0 -107.833 19 -139.5 57s-47.5 92 -47.5 162c0 76 15.833 133.833 47.5 173.5s78.167 59.5 139.5 59.5
c40 0 73.667 -8.33301 101 -25s46 -39 56 -67l-88 -17c-14 25.333 -37.667 38 -71 38c-62 0 -95 -44 -99 -132c26.667 32.667 66 49 118 49c46.667 0 84 -13.167 112 -39.5s42 -61.833 42 -106.5c0 -46 -15.5 -82.833 -46.5 -110.5s-72.5 -41.5 -124.5 -41.5zM825 57
c26 0 46.5 7.16699 61.5 21.5s22.5 33.5 22.5 57.5c0 23.333 -7.33301 42 -22 56c-15.333 13.333 -36 20 -62 20s-47 -7 -63 -21s-24 -32 -24 -54c0 -25.333 8 -45 24 -59s37 -21 63 -21z" />
    <glyph glyph-name="uni215A" unicode="&#x215a;" horiz-adv-x="1169" 
d="M244 290c-44 0 -80.834 9.5 -110.501 28.5s-49.167 45.5 -58.5 79.5l90 14c12.667 -32 39.334 -48 80.001 -48c27.333 0 48.333 6.5 63 19.5s22 30.833 22 53.5c0 23.333 -7.33301 41.833 -22 55.5s-35.334 20.5 -62.001 20.5c-30 0 -54.667 -9.66699 -74 -29l-88 14
l41 235h265v-76h-203l-16 -96l2 -1c26.667 16.667 58 25 94 25c46.667 0 83.834 -13.167 111.501 -39.5s41.5 -60.833 41.5 -103.5c0 -44.667 -15.667 -81.167 -47 -109.5s-74.333 -42.5 -129 -42.5zM406.999 -15h-101l448 742h99zM921.999 -16
c-61.333 0 -107.833 19 -139.5 57s-47.5 92 -47.5 162c0 76 15.833 133.833 47.5 173.5s78.167 59.5 139.5 59.5c40 0 73.833 -8.33301 101.5 -25s46.5 -39 56.5 -67l-89 -17c-14 25.333 -37.667 38 -71 38c-61.333 0 -94 -44 -98 -132c26.667 32.667 65.667 49 117 49
c46.667 0 84.167 -13.333 112.5 -40s42.5 -62 42.5 -106c0 -46 -15.5 -82.833 -46.5 -110.5s-72.833 -41.5 -125.5 -41.5zM920.999 57c26 0 46.332 7.16699 60.999 21.5s22 33.5 22 57.5c0 23.333 -7.33301 42 -22 56c-15.333 13.333 -35.666 20 -60.999 20
c-26 0 -47 -7 -63 -21s-24 -32 -24 -54c0 -25.333 8 -45 24 -59s37 -21 63 -21z" />
    <glyph glyph-name="oneeighth" unicode="&#x215b;" horiz-adv-x="1095" 
d="M268 306h-89v286h-104v67h32c23.333 0 42.333 5.5 57 16.5s22.667 25.833 24 44.5l1 13h79v-427zM312 -15h-101l448 742h99zM971 23c-32.667 -24 -78.002 -36 -136.002 -36s-103.333 12 -136 36c-33.333 24 -50 56.667 -50 98c0 26 7.83301 48.833 23.5 68.5
s36.834 33.167 63.501 40.5v3c-20 7.33301 -35.833 19 -47.5 35s-17.5 34.333 -17.5 55c0 35.333 14.333 63 43 83s69 30 121 30c51.333 0 91.333 -10 120 -30s43 -47.667 43 -83c0 -21.333 -5.83301 -40 -17.5 -56s-27.5 -27.333 -47.5 -34v-3
c26.667 -7.33301 47.834 -20.5 63.501 -39.5s23.5 -42.167 23.5 -69.5c0 -41.333 -16.333 -74 -49 -98zM834.998 259c24 0 42.833 4.83301 56.5 14.5s20.5 23.167 20.5 40.5c0 36 -25.667 54 -77 54c-52 0 -78 -18 -78 -54c0 -36.667 26 -55 78 -55zM765.998 74
c17.333 -12 40.333 -18 69 -18s51.667 6 69 18c16.667 12 25 28.667 25 50c0 45.333 -31.333 68 -94 68c-30 0 -53.333 -5.83301 -70 -17.5s-25 -28.5 -25 -50.5c0 -21.333 8.66699 -38 26 -50z" />
    <glyph glyph-name="threeeighths" unicode="&#x215c;" horiz-adv-x="1199" 
d="M376 327c-30.667 -24.667 -73.001 -36.9971 -127.001 -36.9971c-52.667 0 -94.667 12.667 -126 38c-30.667 24.667 -46.667 60.334 -48 107.001h88c2 -46.667 30.667 -70 86 -70s83 20 83 60c0 39.333 -28 59 -84 59h-37v76h38c46.667 0 70 17.333 70 52
c0 37.333 -25.333 56 -76 56c-48.667 0 -74.667 -20 -78 -60h-88c0.666992 42 15.834 74.833 45.501 98.5s69.834 35.5 120.501 35.5c51.333 0 91.666 -10.833 120.999 -32.5s44 -50.834 44 -87.501c0 -22.667 -6.16699 -42.334 -18.5 -59.001s-29.5 -28 -51.5 -34v-2
c26 -6.66699 46.5 -19.334 61.5 -38.001s22.5 -41 22.5 -67c0 -38.667 -15.333 -70.334 -46 -95.001zM415.999 -14.9971h-101l448 742h99zM1075 23.0029c-32.667 -24 -78.002 -36 -136.002 -36s-103.333 12 -136 36c-33.333 24 -50 56.667 -50 98
c0 26 7.83301 48.833 23.5 68.5s36.834 33.167 63.501 40.5v3c-20 7.33301 -35.833 19 -47.5 35s-17.5 34.333 -17.5 55c0 35.333 14.333 63 43 83s69 30 121 30c51.333 0 91.333 -10 120 -30s43 -47.667 43 -83c0 -21.333 -5.83301 -40 -17.5 -56s-27.5 -27.333 -47.5 -34
v-3c26.667 -7.33301 47.834 -20.5 63.501 -39.5s23.5 -42.167 23.5 -69.5c0 -41.333 -16.333 -74 -49 -98zM938.997 259.003c24 0 42.833 4.83301 56.5 14.5s20.5 23.167 20.5 40.5c0 36 -25.667 54 -77 54c-52 0 -78 -18 -78 -54c0 -36.667 26 -55 78 -55zM869.997 74.0029
c17.333 -12 40.333 -18 69 -18s51.667 6 69 18c16.667 12 25 28.667 25 50c0 45.333 -31.333 68 -94 68c-30 0 -53.333 -5.83301 -70 -17.5s-25 -28.5 -25 -50.5c0 -21.333 8.66699 -38 26 -50z" />
    <glyph glyph-name="fiveeighths" unicode="&#x215d;" horiz-adv-x="1191" 
d="M244 290c-44 0 -80.834 9.5 -110.501 28.5s-49.167 45.5 -58.5 79.5l90 14c12.667 -32 39.334 -48 80.001 -48c27.333 0 48.333 6.5 63 19.5s22 30.833 22 53.5c0 23.333 -7.33301 41.833 -22 55.5s-35.334 20.5 -62.001 20.5c-30 0 -54.667 -9.66699 -74 -29l-88 14
l41 235h265v-76h-203l-16 -96l2 -1c26.667 16.667 58 25 94 25c46.667 0 83.834 -13.167 111.501 -39.5s41.5 -60.833 41.5 -103.5c0 -44.667 -15.667 -81.167 -47 -109.5s-74.333 -42.5 -129 -42.5zM406.999 -15h-101l448 742h99zM1067 23
c-32.667 -24 -78.335 -36 -137.002 -36c-57.333 0 -102.666 12 -135.999 36s-50 56.667 -50 98c0 26 7.83301 48.833 23.5 68.5s36.834 33.167 63.501 40.5v3c-43.333 18 -65 48 -65 90c0 35.333 14.333 63 43 83s69 30 121 30c51.333 0 91.5 -10 120.5 -30
s43.5 -47.667 43.5 -83c0 -21.333 -6 -40 -18 -56s-28 -27.333 -48 -34v-3c28 -7.33301 49.667 -20.5 65 -39.5s23 -42.167 23 -69.5c0 -41.333 -16.333 -74 -49 -98zM929.998 259c24 0 42.833 4.83301 56.5 14.5s20.5 23.167 20.5 40.5c0 36 -25.667 54 -77 54
s-77 -18 -77 -54c0 -36.667 25.667 -55 77 -55zM860.998 74c16.667 -12 39.667 -18 69 -18s52.333 6 69 18s25 28.667 25 50c0 45.333 -31.333 68 -94 68s-94 -22.667 -94 -68c0 -21.333 8.33301 -38 25 -50z" />
    <glyph glyph-name="seveneighths" unicode="&#x215e;" horiz-adv-x="1089" 
d="M238 306h-93.999c9.33301 136.667 61 253 155 349h-224v78h327v-73c-53.333 -49.333 -92.333 -101.333 -117 -156c-26.667 -56 -42.334 -122 -47.001 -198zM306.001 -15h-101l448 742h99zM966.001 23c-32.667 -24 -78.334 -36 -137.001 -36c-58 0 -103.333 12 -136 36
c-33.333 24 -50 56.667 -50 98c0 26 7.83301 48.833 23.5 68.5s36.834 33.167 63.501 40.5v3c-20 7.33301 -35.833 19 -47.5 35s-17.5 34.333 -17.5 55c0 35.333 14.333 63 43 83s69 30 121 30c51.333 0 91.5 -10 120.5 -30s43.5 -47.667 43.5 -83c0 -21.333 -6 -40 -18 -56
s-28 -27.333 -48 -34v-3c28 -7.33301 49.667 -20.5 65 -39.5s23 -42.167 23 -69.5c0 -41.333 -16.333 -74 -49 -98zM829.001 259c24 0 42.833 4.83301 56.5 14.5s20.5 23.167 20.5 40.5c0 36 -25.667 54 -77 54s-77 -18 -77 -54c0 -36.667 25.667 -55 77 -55zM760.001 74
c17.333 -12 40.333 -18 69 -18s51.667 6 69 18c16.667 12 25 28.667 25 50c0 45.333 -31.333 68 -94 68s-94 -22.667 -94 -68c0 -21.333 8.33301 -38 25 -50z" />
    <glyph glyph-name="arrowleft" unicode="&#x2190;" horiz-adv-x="827" 
d="M219 413h559v-114h-558l106 -134l124 -165h-132l-269 356l269 356h132l-124 -164z" />
    <glyph glyph-name="arrowup" unicode="&#x2191;" horiz-adv-x="802" 
d="M45 460l356 269l356 -269v-132l-165 124l-133 105v-557h-117v557l-132 -105l-165 -124v132z" />
    <glyph glyph-name="arrowright" unicode="&#x2192;" horiz-adv-x="827" 
d="M377 712h132l269 -356l-269 -356h-132l124 165l106 134h-558v114h559l-107 135z" />
    <glyph glyph-name="arrowdown" unicode="&#x2193;" horiz-adv-x="802" 
d="M459 155l133 105l165 124v-132l-356 -269l-356 269v132l165 -124l132 -105v557h117v-557z" />
    <glyph glyph-name="arrowboth" unicode="&#x2194;" horiz-adv-x="1177" 
d="M727 712h132l269 -356l-269 -356h-132l124 165l106 134h-737l106 -134l124 -165h-132l-269 356l269 356h132l-124 -164l-107 -135h739l-107 135z" />
    <glyph glyph-name="arrowupdn" unicode="&#x2195;" horiz-adv-x="802" 
d="M757 504l-165 124l-134 105v-738l134 106l165 124v-131l-356 -269l-356 269v131l165 -124l134 -106v738l-134 -105l-165 -124v131l356 269l356 -269v-131z" />
    <glyph glyph-name="uni2196" unicode="&#x2196;" horiz-adv-x="734" 
d="M230 560l484 -478l-84 -82l-482 480l6 -184v-254h-114v626h632v-114h-255z" />
    <glyph glyph-name="uni2197" unicode="&#x2197;" horiz-adv-x="734" 
d="M61 554v114h633v-626h-115v254l6 183l-482 -479l-83 82l484 478l-187 -6h-256z" />
    <glyph glyph-name="uni2198" unicode="&#x2198;" horiz-adv-x="734" 
d="M579 372v254h115v-626h-633v114h256l187 -6l-484 478l83 82l482 -479z" />
    <glyph glyph-name="uni2199" unicode="&#x2199;" horiz-adv-x="734" 
d="M714 586l-484 -478l187 6h255v-114h-632v626h114v-254l-6 -184l482 480z" />
    <glyph glyph-name="partialdiff" unicode="&#x2202;" horiz-adv-x="590" 
d="M270 721c180.667 0 271.001 -121 271.001 -363c0 -246.667 -86.333 -370 -259 -370c-72 0 -128.833 20.833 -170.5 62.5s-62.5 98.5 -62.5 170.5s20 128.667 60 170s94.333 62 163 62c59.333 0 109.666 -17.333 150.999 -52c-4.66699 77.333 -20.167 133.333 -46.5 168
s-64.833 52 -115.5 52c-38 0 -81.333 -10 -130 -30l-35 94c60 24 118 36 174 36zM286.001 87c41.333 0 72.999 14.832 94.999 44.499s35.667 75.834 41 138.501c-14.667 26 -34.167 46.5 -58.5 61.5s-50.833 22.5 -79.5 22.5c-35.333 0 -63.666 -11.5 -84.999 -34.5
s-32 -55.833 -32 -98.5c0 -42 10.333 -74.833 31 -98.5s50 -35.5 88 -35.5z" />
    <glyph glyph-name="uni2206" unicode="&#x2206;" horiz-adv-x="718" 
d="M291 712h139l260 -712h-663zM317 457l-125 -355h332l-122 355l-42 139z" />
    <glyph glyph-name="product" unicode="&#x220f;" horiz-adv-x="718" 
d="M75 712h568v-916h-121v807h-326v-807h-121v916z" />
    <glyph glyph-name="summation" unicode="&#x2211;" horiz-adv-x="669" 
d="M62 712h552v-107h-401l276 -346l-285 -356h409v-107h-564v96l297 370l-284 354v96z" />
    <glyph glyph-name="minus" unicode="&#x2212;" 
d="M603 258h-535v101h535v-101z" />
    <glyph glyph-name="uni2215" unicode="&#x2215;" horiz-adv-x="365" 
d="M10 -15h-101l448 742h99z" />
    <glyph glyph-name="uni2219" unicode="&#x2219;" horiz-adv-x="382" 
d="M312 173h-242v219h242v-219z" />
    <glyph glyph-name="radical" unicode="&#x221a;" 
d="M460 -204h-157l-108 297l-107 -41l-36 98l211 78l110 -319l172 838h112z" />
    <glyph glyph-name="infinity" unicode="&#x221e;" horiz-adv-x="787" 
d="M208 169c-51.333 0 -91.999 15.833 -121.999 47.5s-45 73.834 -45 126.501c0 53.333 15 95.833 45 127.5s70 47.5 120 47.5c34 0 65.5 -8.83301 94.5 -26.5s60.167 -45.5 93.5 -83.5c35.333 39.333 66.666 67.5 93.999 84.5s58 25.5 92 25.5
c50 0 90.333 -15.833 121 -47.5s46 -73.834 46 -126.501c0 -53.333 -15.167 -96 -45.5 -128s-70.833 -48 -121.5 -48c-61.333 0 -123.333 36 -186 108c-34.667 -38 -66 -65.333 -94 -82s-58.667 -25 -92 -25zM580.001 261c22.667 0 40.667 7.33203 54 21.999
s20 34.667 20 60c0 26.667 -6.83301 47.334 -20.5 62.001s-32.167 22 -55.5 22c-36 0 -77 -28.333 -123 -85c43.333 -54 85 -81 125 -81zM209.001 259.999c39.333 0 80.3311 27.333 122.998 82c-45.333 55.333 -86.666 83 -123.999 83c-22.667 0 -40.667 -7.5 -54 -22.5
s-20 -34.833 -20 -59.5c0 -25.333 6.83301 -45.5 20.5 -60.5s31.834 -22.5 54.501 -22.5z" />
    <glyph glyph-name="integral" unicode="&#x222b;" 
d="M233 -204h-44v95h26c22 0 37.833 4.83301 47.5 14.5s14.5 25.5 14.5 47.5v634c0 106.667 53.333 160 160 160h45v-95h-27c-22 0 -37.667 -4.83301 -47 -14.5s-14 -25.5 -14 -47.5v-634c0 -106.667 -53.667 -160 -161 -160z" />
    <glyph glyph-name="approxequal" unicode="&#x2248;" 
d="M175 349l-100 -0.00390625c0 124 48.333 186 145 186c25.333 0.666992 53 -5.66602 83 -18.999s57.5 -26.666 82.5 -39.999s44.167 -19.666 57.5 -18.999c34.667 0 52 26 52 78h101c0 -61.333 -12.667 -107.666 -38 -138.999s-61.333 -47 -108 -47
c-44 0 -85.333 13.333 -124 40c-40 26 -72.667 39 -98 39c-35.333 0 -53 -26.333 -53 -79zM175 98.9961l-100 -0.00390625c0 124 48.333 186 145 186c25.333 0.666992 53 -5.66602 83 -18.999s57.5 -26.666 82.5 -39.999s44.167 -19.666 57.5 -18.999c34.667 0 52 26 52 78
h101c0 -61.333 -12.667 -107.666 -38 -138.999s-61.333 -47 -108 -47c-44 0 -85.333 13.333 -124 40c-40 26 -72.667 39 -98 39c-35.333 0 -53 -26.333 -53 -79z" />
    <glyph glyph-name="notequal" unicode="&#x2260;" 
d="M603 474v-100h-193l-57 -129h250v-100h-295l-81 -182l-69 33l66 149h-156v100h201l58 129h-259v100h303l83 186l69 -33l-68 -153h148z" />
    <glyph glyph-name="lessequal" unicode="&#x2264;" 
d="M64 435l543 165v-115l-418 -107l418 -105v-116l-543 164v114zM607 0h-543v100h543v-100z" />
    <glyph glyph-name="greaterequal" unicode="&#x2265;" 
d="M64 485v115l543 -165v-114l-543 -164v116l418 105zM607 0h-543v100h543v-100z" />
    <glyph glyph-name="uni2460" unicode="&#x2460;" horiz-adv-x="1106" 
d="M914 31c-94 -93.333 -214.333 -140 -361 -140s-267 46.667 -361 140c-95.333 93.333 -143 210.333 -143 351c0 141.333 47.667 258.666 143 351.999c94.667 92.667 215 139 361 139s266.333 -46.333 361 -139c95.333 -93.333 143 -210.666 143 -351.999
c0 -140.667 -47.667 -257.667 -143 -351zM276 107c72.667 -72.667 165 -109 277 -109s204.333 36.333 277 109c73.333 73.333 110 165 110 275s-36.667 201.667 -110 275c-72.667 72.667 -165 109 -277 109s-204.333 -36.333 -277 -109c-73.333 -73.333 -110 -165 -110 -275
s36.667 -201.667 110 -275zM619 170h-88.001v285h-105v67h33c23.333 0 42.333 5.5 57 16.5s22.334 25.833 23.001 44.5l2 14h78v-427z" />
    <glyph glyph-name="uni2461" unicode="&#x2461;" horiz-adv-x="1106" 
d="M914 31c-94 -93.333 -214.333 -140 -361 -140s-267 46.667 -361 140c-95.333 93.333 -143 210.333 -143 351c0 141.333 47.667 258.666 143 351.999c94.667 92.667 215 139 361 139s266.333 -46.333 361 -139c95.333 -93.333 143 -210.666 143 -351.999
c0 -140.667 -47.667 -257.667 -143 -351zM276 107c72.667 -72.667 165 -109 277 -109s204.333 36.333 277 109c73.333 73.333 110 165 110 275s-36.667 201.667 -110 275c-72.667 72.667 -165 109 -277 109s-204.333 -36.333 -277 -109c-73.333 -73.333 -110 -165 -110 -275
s36.667 -201.667 110 -275zM722 178l-329.999 -0.000976562c0 47.333 7.5 85.666 22.5 114.999s39.5 53 73.5 71l91 48c35.333 18 53 40.333 53 67c0 18 -6.5 32.333 -19.5 43s-31.167 16 -54.5 16c-26 0 -44.833 -5.66699 -56.5 -17s-18.167 -29.333 -19.5 -54h-88
c1.33301 46.667 16.166 82.834 44.499 108.501s68.166 38.5 119.499 38.5c50.667 0 90.834 -12 120.501 -36s44.5 -56.667 44.5 -98c0 -53.333 -31.667 -95.666 -95 -126.999l-76 -40c-18.667 -10 -32 -18.833 -40 -26.5s-13 -17.5 -15 -29.5h225v-79z" />
    <glyph glyph-name="uni2462" unicode="&#x2462;" horiz-adv-x="1106" 
d="M914 31c-94 -93.333 -214.333 -140 -361 -140s-267 46.667 -361 140c-95.333 93.333 -143 210.333 -143 351c0 141.333 47.667 258.666 143 351.999c94.667 92.667 215 139 361 139s266.333 -46.333 361 -139c95.333 -93.333 143 -210.666 143 -351.999
c0 -140.667 -47.667 -257.667 -143 -351zM276 107c72.667 -72.667 165 -109 277 -109s204.333 36.333 277 109c73.333 73.333 110 165 110 275s-36.667 201.667 -110 275c-72.667 72.667 -165 109 -277 109s-204.333 -36.333 -277 -109c-73.333 -73.333 -110 -165 -110 -275
s36.667 -201.667 110 -275zM684 194c-30.667 -24.667 -73 -36.9971 -127 -36.9971c-52.667 0 -94.667 12.667 -126 38c-30.667 24.667 -46.667 60.334 -48 107.001h88c2 -46.667 30.667 -70 86 -70c54.667 0 82 20.333 82 61c0 38.667 -27.667 58 -83 58h-37v76h38
c46.667 0 70 17.333 70 52c0 37.333 -25.333 56 -76 56c-48.667 0 -74.667 -20 -78 -60h-88c0.666992 42 15.834 74.833 45.501 98.5s69.834 35.5 120.501 35.5c51.333 0 91.666 -10.833 120.999 -32.5s44 -50.834 44 -87.501c0 -22.667 -6.16699 -42.334 -18.5 -59.001
s-29.5 -28 -51.5 -34v-2c25.333 -6 45.666 -18.333 60.999 -37s23 -41.334 23 -68.001c0 -38.667 -15.333 -70.334 -46 -95.001z" />
    <glyph glyph-name="uni2463" unicode="&#x2463;" horiz-adv-x="1106" 
d="M914 31c-94 -93.333 -214.333 -140 -361 -140s-267 46.667 -361 140c-95.333 93.333 -143 210.333 -143 351c0 141.333 47.667 258.666 143 351.999c94.667 92.667 215 139 361 139s266.333 -46.333 361 -139c95.333 -93.333 143 -210.666 143 -351.999
c0 -140.667 -47.667 -257.667 -143 -351zM276 107c72.667 -72.667 165 -109 277 -109s204.333 36.333 277 109c73.333 73.333 110 165 110 275s-36.667 201.667 -110 275c-72.667 72.667 -165 109 -277 109s-204.333 -36.333 -277 -109c-73.333 -73.333 -110 -165 -110 -275
s36.667 -201.667 110 -275zM658 176h-86v88l-211 -3v74l200 268h97v-268l73 2v-76l-73 3v-88zM450 337l122 -2v163h-3z" />
    <glyph glyph-name="uni2464" unicode="&#x2464;" horiz-adv-x="1106" 
d="M914 31c-94 -93.333 -214.333 -140 -361 -140s-267 46.667 -361 140c-95.333 93.333 -143 210.333 -143 351c0 141.333 47.667 258.666 143 351.999c94.667 92.667 215 139 361 139s266.333 -46.333 361 -139c95.333 -93.333 143 -210.666 143 -351.999
c0 -140.667 -47.667 -257.667 -143 -351zM276 107c72.667 -72.667 165 -109 277 -109s204.333 36.333 277 109c73.333 73.333 110 165 110 275s-36.667 201.667 -110 275c-72.667 72.667 -165 109 -277 109s-204.333 -36.333 -277 -109c-73.333 -73.333 -110 -165 -110 -275
s36.667 -201.667 110 -275zM558 158c-44 0 -81 9.66602 -111 28.999s-49.667 46 -59 80l90 14c13.333 -32 40.333 -48 81 -48c26.667 0 47.334 6.5 62.001 19.5s22 30.833 22 53.5c0 23.333 -7.33301 41.833 -22 55.5s-35.334 20.5 -62.001 20.5c-30.667 0 -55 -10 -73 -30
l-88 15l40 235h265v-76h-202l-17 -96l2 -1c26.667 16.667 58 25 94 25c47.333 0 84.833 -13.167 112.5 -39.5s41.5 -60.833 41.5 -103.5c0 -45.333 -15.667 -82.166 -47 -110.499s-74.333 -42.5 -129 -42.5z" />
    <glyph glyph-name="uni2465" unicode="&#x2465;" horiz-adv-x="1106" 
d="M914 31c-94 -93.333 -214.333 -140 -361 -140s-267 46.667 -361 140c-95.333 93.333 -143 210.333 -143 351c0 141.333 47.667 258.666 143 351.999c94.667 92.667 215 139 361 139s266.333 -46.333 361 -139c95.333 -93.333 143 -210.666 143 -351.999
c0 -140.667 -47.667 -257.667 -143 -351zM276 107c72.667 -72.667 165 -109 277 -109s204.333 36.333 277 109c73.333 73.333 110 165 110 275s-36.667 201.667 -110 275c-72.667 72.667 -165 109 -277 109s-204.333 -36.333 -277 -109c-73.333 -73.333 -110 -165 -110 -275
s36.667 -201.667 110 -275zM564 161c-61.333 0 -107.834 19.001 -139.501 57.001s-47.5 92 -47.5 162c0 76 15.833 133.833 47.5 173.5s78.167 59.5 139.5 59.5c40 0 73.667 -8.33301 101 -25s46 -39 56 -67l-89 -17c-13.333 25.333 -36.666 38 -69.999 38
c-62 0 -95 -44 -99 -132c28 33.333 67.333 50 118 50c46.667 0 84 -13.333 112 -40s42 -62.334 42 -107.001c0 -46 -15.5 -82.833 -46.5 -110.5s-72.5 -41.5 -124.5 -41.5zM561.999 235.001c26 0 46.5 7.16797 61.5 21.501s22.5 33.166 22.5 56.499s-7.5 41.833 -22.5 55.5
s-35.5 20.5 -61.5 20.5s-47 -7 -63 -21s-24 -32 -24 -54c0 -24 8 -43.167 24 -57.5s37 -21.5 63 -21.5z" />
    <glyph glyph-name="uni2466" unicode="&#x2466;" horiz-adv-x="1106" 
d="M914 31c-94 -93.333 -214.333 -140 -361 -140s-267 46.667 -361 140c-95.333 93.333 -143 210.333 -143 351c0 141.333 47.667 258.666 143 351.999c94.667 92.667 215 139 361 139s266.333 -46.333 361 -139c95.333 -93.333 143 -210.666 143 -351.999
c0 -140.667 -47.667 -257.667 -143 -351zM276 107c72.667 -72.667 165 -109 277 -109s204.333 36.333 277 109c73.333 73.333 110 165 110 275s-36.667 201.667 -110 275c-72.667 72.667 -165 109 -277 109s-204.333 -36.333 -277 -109c-73.333 -73.333 -110 -165 -110 -275
s36.667 -201.667 110 -275zM567 157l-92.998 0.000976562c9.33301 135.333 60.666 251.666 153.999 348.999h-224v78h327v-73c-52.667 -48.667 -91.667 -100.667 -117 -156c-26.667 -56 -42.334 -122 -47.001 -198z" />
    <glyph glyph-name="uni2467" unicode="&#x2467;" horiz-adv-x="1106" 
d="M914 31c-94 -93.333 -214.333 -140 -361 -140s-267 46.667 -361 140c-95.333 93.333 -143 210.333 -143 351c0 141.333 47.667 258.666 143 351.999c94.667 92.667 215 139 361 139s266.333 -46.333 361 -139c95.333 -93.333 143 -210.666 143 -351.999
c0 -140.667 -47.667 -257.667 -143 -351zM276 107c72.667 -72.667 165 -109 277 -109s204.333 36.333 277 109c73.333 73.333 110 165 110 275s-36.667 201.667 -110 275c-72.667 72.667 -165 109 -277 109s-204.333 -36.333 -277 -109c-73.333 -73.333 -110 -165 -110 -275
s36.667 -201.667 110 -275zM690 197c-33.333 -24 -78.6699 -35.999 -136.003 -35.999s-102.666 12 -135.999 36s-50 56.667 -50 98c0 26 7.83301 48.667 23.5 68s36.834 32.666 63.501 39.999v3c-20 7.33301 -35.833 19.166 -47.5 35.499s-17.5 34.833 -17.5 55.5
c0 34.667 14.5 62 43.5 82s69.167 30 120.5 30s91.333 -10 120 -30s43 -47.333 43 -82c0 -44.667 -21.667 -75 -65 -91v-3c26.667 -7.33301 47.834 -20.666 63.501 -39.999s23.5 -42 23.5 -68c0 -41.333 -16.333 -74 -49 -98zM553.996 432.001
c24 0 42.833 4.83301 56.5 14.5s20.5 23.167 20.5 40.5c0 36 -25.667 54 -77 54c-52 0 -78 -18 -78 -54c0 -36.667 26 -55 78 -55zM553.996 229.001c29.333 0 52.333 6 69 18s25 29 25 51c0 44.667 -31.333 67 -94 67c-63.333 0 -95 -22.333 -95 -67
c0 -22 8.33301 -39 25 -51s40 -18 70 -18z" />
    <glyph glyph-name="uni2468" unicode="&#x2468;" horiz-adv-x="1106" 
d="M914 31c-94 -93.333 -214.333 -140 -361 -140s-267 46.667 -361 140c-95.333 93.333 -143 210.333 -143 351c0 141.333 47.667 258.666 143 351.999c94.667 92.667 215 139 361 139s266.333 -46.333 361 -139c95.333 -93.333 143 -210.666 143 -351.999
c0 -140.667 -47.667 -257.667 -143 -351zM276 107c72.667 -72.667 165 -109 277 -109s204.333 36.333 277 109c73.333 73.333 110 165 110 275s-36.667 201.667 -110 275c-72.667 72.667 -165 109 -277 109s-204.333 -36.333 -277 -109c-73.333 -73.333 -110 -165 -110 -275
s36.667 -201.667 110 -275zM553 156c-40 0 -73.668 8.33203 -101.001 24.999s-46 39 -56 67l88 16c14 -24.667 37.667 -37 71 -37c62 0 95 43.667 99 131c-28 -32.667 -67.333 -49 -118 -49c-46.667 0 -84 13.167 -112 39.5s-42 61.833 -42 106.5
c0 46.667 15.333 83.834 46 111.501s72.334 41.5 125.001 41.5c61.333 0 107.833 -19 139.5 -57s47.5 -92.333 47.5 -163c0 -74.667 -15.833 -132 -47.5 -172s-78.167 -60 -139.5 -60zM493.999 400.999c14.667 -14 35 -21.002 61 -21.002s47 7 63 21s24 32 24 54
c0 24 -8 43.167 -24 57.5s-37 21.5 -63 21.5s-46.5 -7.16699 -61.5 -21.5s-22.5 -33.166 -22.5 -56.499s7.66699 -41.666 23 -54.999z" />
    <glyph glyph-name="uni24EA" unicode="&#x24ea;" horiz-adv-x="1106" 
d="M914 31c-94 -93.333 -214.333 -140 -361 -140s-267 46.667 -361 140c-95.333 93.333 -143 210.333 -143 351c0 141.333 47.667 258.666 143 351.999c94.667 92.667 215 139 361 139s266.333 -46.333 361 -139c95.333 -93.333 143 -210.666 143 -351.999
c0 -140.667 -47.667 -257.667 -143 -351zM276 107c72.667 -72.667 165 -109 277 -109s204.333 36.333 277 109c73.333 73.333 110 165 110 275s-36.667 201.667 -110 275c-72.667 72.667 -165 109 -277 109s-204.333 -36.333 -277 -109c-73.333 -73.333 -110 -165 -110 -275
s36.667 -201.667 110 -275zM553 157c-60 0 -105.832 19.667 -137.499 59s-47.5 95.666 -47.5 168.999c0 72 15.833 127.5 47.5 166.5s77.5 58.5 137.5 58.5s106 -19.5 138 -58.5s48 -94.5 48 -166.5c0 -73.333 -15.833 -129.666 -47.5 -168.999s-77.834 -59 -138.501 -59z
M486.001 273c14.667 -22.667 37 -34 67 -34s52.333 11.333 67 34s22 59.667 22 111s-7.33301 88.333 -22 111s-37 34 -67 34s-52.333 -11.333 -67 -34s-22 -59.667 -22 -111s7.33301 -88.333 22 -111z" />
    <glyph glyph-name="uni24FF" unicode="&#x24ff;" horiz-adv-x="1106" 
d="M914 31c-94 -93.333 -214.333 -140 -361 -140s-267 46.667 -361 140c-95.333 93.333 -143 210.333 -143 351c0 141.333 47.667 258.666 143 351.999c94.667 92.667 215 139 361 139s266.333 -46.333 361 -139c95.333 -93.333 143 -210.666 143 -351.999
c0 -140.667 -47.667 -257.667 -143 -351zM553 157c60.667 0 106.833 19.667 138.5 59s47.5 95.666 47.5 168.999c0 72 -16 127.5 -48 166.5s-78 58.5 -138 58.5s-105.833 -19.5 -137.5 -58.5s-47.5 -94.5 -47.5 -166.5c0 -73.333 15.833 -129.666 47.5 -168.999
s77.5 -59 137.5 -59zM619.999 273c-14.667 -22.667 -37 -34 -67 -34s-52.333 11.333 -67 34s-22 59.667 -22 111s7.33301 88.333 22 111s37 34 67 34s52.333 -11.333 67 -34s22 -59.667 22 -111s-7.33301 -88.333 -22 -111z" />
    <glyph glyph-name="filledbox" unicode="&#x25a0;" horiz-adv-x="1058" 
d="M983 -88h-908v888h908v-888z" />
    <glyph glyph-name="uni25A1" unicode="&#x25a1;" horiz-adv-x="1058" 
d="M983 -88h-908v888h908v-888zM192 693v-674h673v674h-673z" />
    <glyph glyph-name="lozenge" unicode="&#x25ca;" horiz-adv-x="576" 
d="M212 712h152l174 -356l-174 -356h-152l-174 356zM152 356l136 -292l135 292l-135 292z" />
    <glyph glyph-name="circle" unicode="&#x25cb;" horiz-adv-x="1106" 
d="M914 31c-94 -93.333 -214.333 -140 -361 -140s-267 46.667 -361 140c-95.333 93.333 -143 210.333 -143 351c0 141.333 47.667 258.666 143 351.999c94.667 92.667 215 139 361 139s266.333 -46.333 361 -139c95.333 -93.333 143 -210.666 143 -351.999
c0 -140.667 -47.667 -257.667 -143 -351zM276 107c72.667 -72.667 165 -109 277 -109s204.333 36.333 277 109c73.333 73.333 110 165 110 275s-36.667 201.667 -110 275c-72.667 72.667 -165 109 -277 109s-204.333 -36.333 -277 -109c-73.333 -73.333 -110 -165 -110 -275
s36.667 -201.667 110 -275z" />
    </font>
</defs>
</svg>
