<svg width="75" height="25" viewBox="0 0 75 25" fill="none" xmlns="http://www.w3.org/2000/svg">
<g clip-path="url(#clip0_1979_215)">
<path d="M9.21377 0.00219727H9.87891C12.188 0.0532183 14.4595 0.997107 16.091 2.66804C15.4886 3.29305 14.8737 3.89255 14.2838 4.51756C13.3677 3.67571 12.2633 3.02519 11.0586 2.7956C9.27652 2.41294 7.35642 2.75733 5.86301 3.79051C4.23156 4.8747 3.12719 6.71146 2.88874 8.67577C2.6252 10.6146 3.16483 12.6554 4.40725 14.1605C5.59947 15.6274 7.41917 16.5458 9.30162 16.6095C11.0586 16.7116 12.8908 16.1631 14.1709 14.9131C15.1749 14.033 15.6392 12.6937 15.7898 11.3926C13.7066 11.3926 11.6233 11.4054 9.54007 11.3926V8.76505H18.3123C18.7641 11.584 18.1115 14.76 16.0031 16.7754C14.5976 18.2039 12.6524 19.0458 10.6695 19.2116C8.74944 19.4029 6.76659 19.033 5.05983 18.0891C3.01424 16.9794 1.38278 15.1044 0.579603 12.8978C-0.173377 10.8697 -0.185927 8.57372 0.516855 6.53289C1.15689 4.67062 2.38676 3.02519 3.96801 1.87722C5.48652 0.742002 7.33132 0.116995 9.21377 0.00219727Z" fill="#3780FF"/>
<path d="M59.5371 0.665527H62.2227V18.88C61.3317 18.88 60.4281 18.8928 59.5371 18.8673C59.5497 12.8085 59.5371 6.73703 59.5371 0.665527Z" fill="#38B137"/>
<path d="M24.2858 6.97936C25.9424 6.66048 27.737 7.01763 29.1049 8.02529C30.3473 8.91816 31.2132 10.3212 31.4768 11.8519C31.8156 13.6248 31.3889 15.5636 30.2595 16.9667C29.0421 18.5356 27.0467 19.3775 25.1015 19.2499C23.3195 19.1479 21.5876 18.2422 20.5335 16.7626C19.3412 15.13 19.0526 12.885 19.7052 10.9718C20.3578 8.91816 22.2026 7.34926 24.2858 6.97936ZM24.6623 9.40286C23.9846 9.58143 23.3571 9.97684 22.9054 10.5381C21.688 12.0177 21.7633 14.4284 23.1061 15.806C23.8717 16.5968 25.0262 16.9667 26.093 16.7499C27.0844 16.5713 27.9503 15.8953 28.4272 15.0024C29.2555 13.4845 29.017 11.3927 27.7495 10.2064C26.9338 9.44112 25.7416 9.12224 24.6623 9.40286Z" fill="#FA3913"/>
<path d="M37.5885 6.97957C39.4835 6.60966 41.5542 7.14538 42.9723 8.49744C45.2815 10.6021 45.5325 14.5434 43.5622 16.9669C42.3699 18.4976 40.4373 19.3394 38.5297 19.2501C36.71 19.1991 34.9154 18.2807 33.8362 16.7628C32.6188 15.0919 32.3553 12.796 33.0455 10.8444C33.7358 8.85459 35.5429 7.33671 37.5885 6.97957ZM37.965 9.40306C37.2873 9.58164 36.6598 9.97705 36.208 10.5255C35.0033 11.9796 35.0535 14.3521 36.3461 15.7424C37.1116 16.5715 38.3038 16.9797 39.4082 16.7501C40.3871 16.5588 41.2656 15.8955 41.7425 15.0026C42.5582 13.472 42.3197 11.3801 41.0397 10.1939C40.2239 9.42857 39.0317 9.12245 37.965 9.40306Z" fill="#FCBD06"/>
<path d="M48.8702 7.71903C50.3134 6.80066 52.2335 6.54555 53.7897 7.33638C54.2791 7.55322 54.6807 7.92312 55.0697 8.29302C55.0823 7.94863 55.0697 7.59148 55.0823 7.23434C55.9231 7.24709 56.7639 7.23434 57.6173 7.24709V18.4972C57.6048 20.1937 57.1781 21.9922 55.9733 23.2294C54.6556 24.5942 52.6351 25.0152 50.8154 24.7345C48.8702 24.4412 47.176 22.9998 46.423 21.1758C47.176 20.8059 47.9666 20.5126 48.7447 20.1682C49.1839 21.2141 50.075 22.107 51.1919 22.311C52.3088 22.5151 53.6014 22.2345 54.3293 21.2906C55.1074 20.3212 55.1074 18.9947 55.0697 17.8084C54.4924 18.3824 53.8273 18.8926 53.0241 19.084C51.2797 19.5814 49.3596 18.9692 48.0168 17.7702C46.6615 16.5712 45.8583 14.7217 45.9336 12.8849C45.9712 10.8058 47.1258 8.80323 48.8702 7.71903ZM51.468 9.35171C50.7025 9.47926 49.9871 9.91294 49.4977 10.5124C48.318 11.941 48.318 14.2242 49.5102 15.6273C50.1879 16.4564 51.2797 16.9156 52.3339 16.8008C53.3253 16.6987 54.2415 16.061 54.7309 15.1809C55.5592 13.6885 55.4211 11.6604 54.3042 10.3594C53.614 9.55579 52.5096 9.16038 51.468 9.35171Z" fill="#3780FF"/>
<path d="M65.4477 8.3697C66.9537 6.94111 69.2754 6.45641 71.208 7.20897C73.0403 7.91051 74.2074 9.68349 74.7972 11.5075C72.0739 12.6555 69.3632 13.7907 66.6399 14.9387C67.0164 15.6657 67.5937 16.329 68.3718 16.5968C69.4636 16.9923 70.7688 16.8519 71.6849 16.1121C72.0488 15.8315 72.3375 15.4616 72.6136 15.1045C73.3038 15.5764 73.994 16.0356 74.6843 16.5076C73.7054 17.9999 72.0614 19.0458 70.2919 19.2117C68.3341 19.454 66.2509 18.6887 64.9834 17.1326C62.9001 14.6836 63.1009 10.5764 65.4477 8.3697ZM66.7905 10.7294C66.3638 11.3544 66.1881 12.1197 66.2007 12.8723C68.0204 12.107 69.8401 11.3417 71.6598 10.5636C71.3586 9.84931 70.6307 9.41563 69.8903 9.30084C68.6981 9.084 67.4557 9.73451 66.7905 10.7294Z" fill="#FA3913"/>
</g>
<defs>
<clipPath id="clip0_1979_215">
<rect width="74.796" height="24.8133" fill="white" transform="translate(0.00195312)"/>
</clipPath>
</defs>
</svg>
