<svg width="132" height="154" viewBox="0 0 132 154" fill="none" xmlns="http://www.w3.org/2000/svg">
<path d="M37.1176 140.87H100.917C102.925 140.87 104.553 143.032 104.553 144.784V147.967C104.553 150.129 102.926 151.882 100.917 151.882H37.1176C35.1105 151.882 33.4824 149.719 33.4824 147.967V144.784C33.4824 142.622 35.1093 140.87 37.1176 140.87Z" fill="white"/>
<path d="M64.8507 27.1502L51.3423 29.1879C49.9681 38.5839 48.6142 48.0061 47.2303 57.4012L55.4529 68.6109L60.0989 112.164H52.7309C50.6761 112.164 50.0397 114.253 49.0469 116.347L39.8623 135.656H97.1022L88.9855 116.347C88.0928 114.208 87.3562 112.164 85.3015 112.164H76.3838L81.7234 69.791L90.8006 57.4006L86.6886 29.2412C83.6313 28.7516 78.8544 27.8141 75.2622 27.1497L64.8507 27.1502ZM45.6284 146.705C48.614 150.541 51.7701 154 52.7294 154H85.3006C86.2564 154 89.0813 150.565 91.7617 146.705H45.6284Z" fill="white"/>
<path d="M77.8424 11.4829C77.8436 14.5275 76.9139 17.4488 75.2584 19.6013C73.6029 21.7552 71.3575 22.9657 69.0154 22.9657C66.6734 22.9657 64.4268 21.7553 62.7712 19.6013C61.1157 17.4487 60.1861 14.5273 60.1885 11.4829C60.1861 8.43826 61.1158 5.51815 62.7712 3.3644C64.4267 1.21057 66.6734 0 69.0154 0C71.3575 0 73.6029 1.21041 75.2584 3.3644C76.9139 5.51824 77.8436 8.43844 77.8424 11.4829Z" fill="white"/>
<path d="M24.5761 52.5343L15.332 60.2672L25.8503 66.7873L14.561 62.6125L14.1999 75.0231L12.1546 63.1151L1.27417 69.0057L10.5183 61.2728L0 54.7527L11.2893 58.9275L11.6505 46.5168L13.6957 58.4248L24.5761 52.5343Z" fill="white"/>
<path d="M130.726 10.4896L121.481 18.2225L132 24.7426L120.71 20.5678L120.349 32.9784L118.304 21.0704L107.424 26.961L116.668 19.2281L106.149 12.708L117.439 16.8828L117.8 4.47217L119.845 16.3801L130.726 10.4896Z" fill="white"/>
<path d="M45.6299 146.677C48.6155 150.514 51.7716 153.972 52.7309 153.972H85.3021C86.2579 153.972 89.0828 150.537 91.7632 146.677H45.6299Z" fill="white"/>
</svg>
