<svg width="132" height="154" viewBox="0 0 132 154" fill="none" xmlns="http://www.w3.org/2000/svg">
<mask id="mask0_2390_121" style="mask-type:alpha" maskUnits="userSpaceOnUse" x="0" y="0" width="132" height="154">
<rect width="132" height="154" fill="#D9D9D9"/>
</mask>
<g mask="url(#mask0_2390_121)">
<path d="M100.326 24.7679C99.9089 23.4529 98.6567 22.5545 97.2778 22.5545H75.9101L69.3011 2.21345C68.8519 0.898406 67.6323 0 66.2534 0C64.8417 0 63.6221 0.898406 63.2056 2.21345L56.5966 22.5545H35.2289C33.8173 22.5545 32.5977 23.4529 32.1484 24.7679C31.7318 26.083 32.2124 27.5272 33.3355 28.3614L50.6288 40.9065L44.0198 61.2476C43.5694 62.5626 44.0512 64.0057 45.1742 64.8402C46.2972 65.642 47.8368 65.642 48.9599 64.8402L66.2532 52.2635L83.5465 64.8402C84.0923 65.2254 84.7661 65.45 85.4073 65.45C86.0812 65.45 86.755 65.2254 87.3008 64.8402C88.4238 64.0058 88.9044 62.5627 88.4878 61.2467L81.8776 40.9068L99.1709 28.3617C100.294 27.5273 100.743 26.0831 100.325 24.7682L100.326 24.7679Z" fill="white"/>
<path d="M79.8373 121.726C75.6501 104.79 75.2127 86.4344 78.5328 69.1283L66.2504 60.1987L53.9428 69.1515C57.2584 86.4541 56.8196 104.801 52.6348 121.728L79.8373 121.726Z" fill="white"/>
<path d="M83.0351 128.14H49.4447C40.6212 128.14 33.4023 135.326 33.4023 144.182L33.4035 150.791C33.4035 152.556 34.8466 154 36.6121 154H95.8712C97.6355 154 99.0798 152.556 99.0798 150.791V144.182C99.0798 135.327 91.8937 128.14 83.0375 128.14H83.0351Z" fill="white"/>
</g>
</svg>
