<svg width="132" height="154" viewBox="0 0 132 154" fill="none" xmlns="http://www.w3.org/2000/svg">
<mask id="mask0_2390_118" style="mask-type:alpha" maskUnits="userSpaceOnUse" x="0" y="0" width="132" height="154">
<rect width="132" height="154" fill="#D9D9D9"/>
</mask>
<g mask="url(#mask0_2390_118)">
<path fill-rule="evenodd" clip-rule="evenodd" d="M90.722 82.0976V61.8305C90.722 61.3511 91.1153 60.9589 91.6008 60.9589H96.7395C97.2249 60.9589 97.6183 61.3523 97.6183 61.8305V73.629C97.6183 75.5659 97.0755 77.4238 96.1035 79.0248C95.1458 80.6043 93.7672 81.9338 92.08 82.834C91.9437 82.9272 91.7728 82.9763 91.6006 82.9763C91.1152 82.9763 90.722 82.583 90.722 82.0976ZM42.2603 61.8292V82.0963C42.2603 82.2397 42.2244 82.3748 42.1611 82.504C41.9387 82.9332 41.4102 83.097 40.981 82.8758C40.2313 82.4824 39.5379 82.0042 38.9162 81.4602L38.8731 81.4171C38.2382 80.8528 37.6655 80.2095 37.1789 79.4946C36.6002 78.6517 36.1351 77.7083 35.8219 76.7004C35.5218 75.7212 35.3568 74.6846 35.3568 73.6277V61.8293C35.3568 61.3498 35.7502 60.9576 36.2356 60.9576H41.3814C41.8668 60.9576 42.2603 61.351 42.2603 61.8292ZM66.4871 68.2116C69.8457 68.2116 72.8826 69.577 75.0775 71.771L75.1265 71.8284C77.299 74.0224 78.6357 77.0378 78.6357 80.3616C78.6357 83.7202 77.2775 86.758 75.0763 88.952C72.8752 91.1531 69.8384 92.5184 66.4859 92.5184C63.1347 92.5184 60.0965 91.153 57.8955 88.959C55.6944 86.7579 54.3373 83.7211 54.3373 80.3613C54.3373 77.01 55.6944 73.9719 57.8955 71.7779C60.0919 69.5767 63.1358 68.2116 66.4871 68.2116ZM92.4726 62.7083V80.504C93.3298 79.8393 94.052 79.0322 94.6104 78.1236C95.4102 76.794 95.8682 75.2433 95.8682 73.6279V62.7082L92.4726 62.7083ZM85.2176 129.281H47.7627V131.51H67.866C68.3514 131.51 68.746 131.911 68.746 132.389C68.746 132.876 68.3526 133.268 67.866 133.268H47.7627V136.941H85.2176V129.281ZM89.1777 138.699H43.8045V140.672H89.1777V138.699ZM67.7233 73.3516L68.9381 77.1179L72.9615 77.1107C73.2688 77.1107 73.5474 77.2183 73.7626 77.3965C73.9551 77.5543 74.0986 77.7611 74.1691 77.9895C74.248 78.2191 74.2552 78.4618 74.1978 78.6973L74.1763 78.7619C74.1057 79.0118 73.9479 79.2401 73.7124 79.4194L70.4532 81.7772L71.7038 85.5937C71.8115 85.9225 71.7756 86.2441 71.6536 86.5155C71.5544 86.7295 71.3966 86.9161 71.2172 87.0452C71.0235 87.1743 70.7952 87.2592 70.5525 87.2736C70.2524 87.2879 69.9451 87.2018 69.6808 86.9806L66.486 84.6576L63.2422 87.0225C62.9779 87.215 62.685 87.2867 62.4064 87.2652L62.3275 87.258C62.1135 87.2294 61.9126 87.1445 61.7416 87.0225C61.5491 86.879 61.3841 86.6865 61.2993 86.4582L61.2849 86.4079C61.1988 86.1581 61.1845 85.8855 61.2777 85.6009L62.5212 81.7774C61.4487 80.999 60.2411 80.1979 59.2201 79.3837C58.9834 79.1972 58.8411 78.9545 58.7777 78.7046V78.6759C58.7204 78.4476 58.7347 78.212 58.8064 77.9968C58.8782 77.7744 59.0133 77.5676 59.1998 77.4109C59.421 77.2256 59.7008 77.1108 60.0212 77.1108L64.0373 77.118L65.3022 73.2225C65.4086 72.9511 65.588 72.7514 65.7948 72.608C66.0089 72.4729 66.2528 72.4083 66.4883 72.4083C66.725 72.4083 66.9606 72.4729 67.1674 72.602L67.2308 72.645C67.4376 72.7945 67.6098 73.0097 67.7031 73.2883L67.7233 73.3516ZM78.4863 146.811H80.0729V142.43H52.9084V146.811H78.4863ZM40.508 80.5047V62.7089H37.1136V73.6286C37.1136 74.5217 37.2487 75.379 37.4998 76.1872C37.7568 77.017 38.1358 77.8025 38.6225 78.5103C39.029 79.0974 39.5013 79.639 40.0369 80.1113L40.508 80.5047ZM57.0112 53.7968C57.4966 53.7968 57.89 54.1902 57.89 54.6684C57.89 55.1538 57.4966 55.5472 57.0112 55.5472H51.2006C50.7152 55.5472 50.3218 55.1538 50.3218 54.6684C50.3218 54.1902 50.7152 53.7968 51.2006 53.7968H57.0112ZM75.6487 131.51C76.1281 131.51 76.5286 131.911 76.5286 132.389C76.5286 132.876 76.1281 133.268 75.6487 133.268H72.3044C71.819 133.268 71.4256 132.874 71.4256 132.389C71.4256 131.911 71.819 131.51 72.3044 131.51H75.6487ZM65.6077 0.878784C65.6077 0.393373 66.0083 0 66.4865 0C66.9719 0 67.3665 0.393373 67.3665 0.878784V13.6432C67.3665 14.1226 66.9731 14.522 66.4865 14.522C66.0083 14.522 65.6077 14.1214 65.6077 13.6432V0.878784ZM117.17 27.8208C117.599 27.5924 118.135 27.749 118.363 28.1783C118.591 28.6003 118.435 29.136 118.007 29.3643L106.243 35.7467C105.821 35.9751 105.285 35.8184 105.057 35.3892C104.821 34.9672 104.985 34.4315 105.407 34.2031L117.17 27.8208ZM118.007 83.2578C118.436 83.4874 118.593 84.023 118.363 84.4439C118.135 84.8731 117.598 85.0298 117.17 84.8014L105.406 78.419C104.984 78.1835 104.82 77.655 105.056 77.2258C105.284 76.8038 105.821 76.6399 106.242 76.8755L118.007 83.2578ZM15.8039 84.8026C15.3818 85.0309 14.8462 84.8743 14.6166 84.4451C14.3883 84.023 14.5461 83.4874 14.9669 83.259L26.7366 76.8767C27.1586 76.6411 27.6943 76.8049 27.9226 77.227C28.1582 77.6562 27.9932 78.1847 27.5723 78.4202L15.8039 84.8026ZM14.9681 29.3655C14.5461 29.136 14.3895 28.6015 14.6178 28.1795C14.8474 27.7515 15.383 27.5936 15.8051 27.822L27.576 34.2043C27.9968 34.4339 28.1618 34.9695 27.9263 35.3904C27.6967 35.8196 27.1611 35.9763 26.7402 35.7479L14.9681 29.3655ZM91.5491 13.8583C91.799 13.4506 92.3418 13.3227 92.7567 13.5726C93.1632 13.8225 93.2923 14.3653 93.0424 14.7802L88.8972 21.5271C88.639 21.942 88.1045 22.0699 87.6896 21.8128C87.2759 21.5629 87.1468 21.0201 87.4039 20.6052L91.5491 13.8583ZM118.099 55.43C118.584 55.43 118.978 55.8305 118.978 56.3088C118.978 56.7942 118.584 57.1876 118.099 57.1876H109.809C109.323 57.1876 108.93 56.7942 108.93 56.3088C108.93 55.8293 109.323 55.43 109.809 55.43H118.099ZM14.88 57.1888C14.3934 57.1888 14 56.7954 14 56.31C14 55.8305 14.3934 55.4312 14.88 55.4312H23.1704C23.6487 55.4312 24.0492 55.8317 24.0492 56.31C24.0492 56.7954 23.6487 57.1888 23.1704 57.1888H14.88ZM39.9365 14.7815C39.6795 14.3666 39.8074 13.8238 40.2223 13.5739C40.636 13.324 41.18 13.452 41.4299 13.8597L45.5751 20.6066C45.8321 21.0215 45.7042 21.5643 45.2893 21.8142C44.8756 22.0712 44.3316 21.9433 44.0818 21.5284L39.9365 14.7815ZM65.6138 25.052C65.6138 24.5666 66.0072 24.1732 66.4926 24.1732C66.9709 24.1732 67.3642 24.5666 67.3642 25.052V32.2485C67.3642 32.7339 66.9709 33.1273 66.4926 33.1273C66.0072 33.1273 65.6138 32.7339 65.6138 32.2485V25.052ZM93.1276 39.9244C93.5425 39.6888 94.0781 39.8311 94.3208 40.246C94.5563 40.6681 94.4141 41.2037 93.9992 41.4392L87.7591 45.0418C87.3454 45.2773 86.8086 45.135 86.5659 44.7201C86.3304 44.2993 86.4726 43.7625 86.8947 43.5269L93.1276 39.9244ZM38.9791 41.4392C38.5642 41.2037 38.4148 40.6681 38.6575 40.246C38.9014 39.8323 39.437 39.6889 39.8507 39.9244L46.0822 43.5269C46.5042 43.7625 46.6477 44.2993 46.4038 44.7201C46.1671 45.135 45.6314 45.2773 45.2106 45.0418L38.9791 41.4392ZM79.3999 32.1984C79.6438 31.7763 80.1795 31.634 80.5931 31.8768C81.0152 32.1123 81.1575 32.6491 80.9219 33.07L78.7208 36.8721C78.4853 37.287 77.9484 37.4364 77.5276 37.1937C77.1127 36.9582 76.9704 36.4214 77.206 36.0005L79.3999 32.1984ZM52.0573 33.0712C51.8146 32.6563 51.958 32.1207 52.3789 31.878C52.7938 31.6353 53.3366 31.7788 53.5721 32.1924L55.7732 36.0016C56.0172 36.4165 55.8725 36.9521 55.4516 37.1948C55.0367 37.4375 54.4939 37.294 54.2584 36.8804L52.0573 33.0712ZM32.8187 154C32.3333 154 31.9399 153.607 31.9399 153.128C31.9399 152.643 32.3333 152.25 32.8187 152.25H76.2329C76.7183 152.25 77.1117 152.643 77.1117 153.128C77.1117 153.607 76.7183 154 76.2329 154H32.8187ZM41.8015 150.112C41.3161 150.112 40.9227 149.719 40.9227 149.233C40.9227 148.754 41.3161 148.354 41.8015 148.354H73.903C74.3885 148.354 74.7818 148.755 74.7818 149.233C74.7818 149.719 74.3885 150.112 73.903 150.112H41.8015ZM86.5686 150.112C86.0832 150.112 85.6898 149.719 85.6898 149.233C85.6898 148.754 86.0832 148.354 86.5686 148.354H102.012C102.492 148.354 102.884 148.755 102.884 149.233C102.884 149.719 102.491 150.112 102.012 150.112H86.5686ZM90.7209 49.2527H42.2594V56.3283C42.2594 56.8066 41.866 57.2071 41.3806 57.2071H32.0032V74.0451C32.0032 75.5815 32.2603 77.0676 32.7254 78.4475C33.2108 79.8834 33.933 81.213 34.8405 82.3989C35.7121 83.536 36.7558 84.5355 37.9276 85.3581C39.0849 86.1663 40.3714 86.8024 41.7429 87.2233C42.0716 87.3309 42.3215 87.6167 42.3574 87.9813C42.5786 90.4252 43.1788 92.777 44.0803 94.9636C45.0165 97.215 46.2814 99.3026 47.8178 101.16C49.3757 103.04 51.2122 104.684 53.2568 106.027C55.2643 107.342 57.4881 108.377 59.8458 109.049C60.1459 109.142 60.3958 109.385 60.4604 109.714C60.7748 111.186 60.8968 112.666 60.8609 114.152C60.825 115.624 60.6242 117.097 60.2965 118.569C59.9534 120.105 59.4596 121.643 58.8738 123.172C58.3094 124.629 57.6447 126.088 56.9225 127.531H76.0393C75.3171 126.13 74.6596 124.723 74.1024 123.307C73.5022 121.792 73.0084 120.263 72.6653 118.725C72.3377 117.26 72.1368 115.774 72.1081 114.28C72.0722 112.765 72.2014 111.243 72.5218 109.707C72.5864 109.4 72.8219 109.141 73.1435 109.049C75.5013 108.37 77.7252 107.341 79.7254 106.02C81.7616 104.683 83.5992 103.032 85.1571 101.152C86.6935 99.2943 87.9585 97.2078 88.8947 94.9566C89.795 92.7841 90.388 90.4468 90.6092 88.0172L90.6164 87.9885C90.6379 87.6465 90.8734 87.3309 91.2309 87.2245C92.6023 86.7953 93.8888 86.1592 95.0474 85.3521C96.2191 84.5367 97.2629 83.5372 98.1345 82.393C99.0348 81.2141 99.757 79.8774 100.25 78.4415C100.713 77.0689 100.971 75.5828 100.971 74.0465V57.2085H91.5944C91.109 57.2085 90.7157 56.8079 90.7157 56.3297V55.5573H62.9151C62.4285 55.5573 62.0351 55.1639 62.0351 54.6785C62.0351 54.2003 62.4285 53.8069 62.9151 53.8069H90.7157L90.7209 49.2527Z" fill="white"/>
</g>
</svg>
