<svg width="132" height="154" viewBox="0 0 132 154" fill="none" xmlns="http://www.w3.org/2000/svg">
<mask id="mask0_2390_117" style="mask-type:alpha" maskUnits="userSpaceOnUse" x="0" y="0" width="132" height="154">
<rect width="132" height="154" fill="#D9D9D9"/>
</mask>
<g mask="url(#mask0_2390_117)">
<path d="M103.698 120.789V119.338C103.698 118.693 103.66 118.049 103.585 117.408H65.3348C63.7356 117.408 62.4397 116.112 62.4397 114.513C62.4397 112.914 63.7356 111.618 65.3348 111.618H101.788C99.6298 107.527 95.8685 104.517 91.4041 103.306L87.8081 91.513C87.4015 88.9718 86.1044 86.6568 84.1492 84.9843C82.1928 83.3116 79.7057 82.388 77.1323 82.381H76.103L105.214 3.92109C105.694 2.63325 105.202 1.18457 104.037 0.456294C102.871 -0.27322 101.353 -0.0813495 100.405 0.913532C90.8733 10.8923 73.0111 26.7184 65.613 26.7184C58.215 26.7184 40.3525 10.8923 30.8181 0.913532C29.8749 -0.0905548 28.355 -0.291602 27.1833 0.433325C26.0115 1.1594 25.5141 2.61034 25.9931 3.90165L54.5093 82.4087C52.0865 82.5844 49.7923 83.5667 47.9933 85.1992C46.1942 86.8328 44.9949 89.0213 44.5858 91.4156L40.7866 103.285H40.7878C37.2562 104.232 34.1361 106.316 31.9095 109.215C29.6819 112.114 28.4721 115.665 28.4676 119.32V120.771C20.4878 122.572 13.8947 128.159 10.8102 135.736H61.3807C62.9798 135.736 64.2757 137.032 64.2757 138.631C64.2757 140.229 62.9799 141.526 61.3807 141.526H9.25734C9.08731 142.698 9.0023 143.88 9 145.064V151.105C9 152.704 10.2959 154 11.8951 154H120.297C121.897 154 123.192 152.704 123.192 151.105V145.09C123.184 139.428 121.25 133.937 117.707 129.521C114.164 125.104 109.224 122.025 103.699 120.787L103.698 120.789Z" fill="white"/>
</g>
</svg>
