<svg width="132" height="154" viewBox="0 0 132 154" fill="none" xmlns="http://www.w3.org/2000/svg">
<mask id="mask0_2390_124" style="mask-type:alpha" maskUnits="userSpaceOnUse" x="0" y="0" width="132" height="154">
<rect width="132" height="154" fill="#D9D9D9"/>
</mask>
<g mask="url(#mask0_2390_124)">
<path d="M111.837 31.6338C111.364 30.3179 110.08 29.4209 108.629 29.4209H78.4971L69.2077 2.21467C68.7685 0.898747 67.4528 0 65.9994 0C64.5461 0 63.2303 0.898747 62.7911 2.21288L53.468 29.4191H23.3698C21.9165 29.4191 20.6007 30.3178 20.1615 31.632C19.7223 32.9479 20.1955 34.3909 21.3774 35.2252L45.732 52.0387L36.4426 79.2129C36.0034 80.561 36.4765 82.004 37.6584 82.8061C38.8403 83.6404 40.4614 83.6404 41.6452 82.8061L62.6219 68.3255V109.083H38.9762C37.1175 109.083 35.5982 110.526 35.5982 112.292V128.333H25.4643C23.6057 128.333 22.0864 129.776 22.0864 131.542V150.792C22.0864 152.589 23.6057 154 25.4643 154H106.535C108.394 154 109.913 152.589 109.913 150.792V131.542C109.913 129.776 108.394 128.333 106.535 128.333H96.4015V112.292C96.4015 110.526 94.8822 109.083 93.0235 109.083H69.3778L69.3759 68.3255L90.3545 82.8061C90.9294 83.2233 91.6382 83.4166 92.3488 83.4166C93.0237 83.4166 93.7325 83.2233 94.3413 82.8079C95.5232 82.0058 95.9964 80.5628 95.5571 79.2147L86.234 52.0405L110.622 35.2288C111.806 34.3928 112.277 32.9497 111.838 31.6338H111.837Z" fill="white"/>
</g>
</svg>
