<svg width="108" height="111" viewBox="0 0 108 111" fill="none" xmlns="http://www.w3.org/2000/svg">
<g opacity="0.02" clip-path="url(#clip0_1974_125)">
<path d="M72.2462 104.258C73.7649 103.889 80.6204 100.225 83.5313 98.2307C87.3071 95.6508 89.4376 93.8947 92.6227 90.6211C102.938 80.0848 106.84 69.0064 107.789 47.5869C107.937 44.5084 108 35.9016 107.958 26.4492C107.895 11.642 107.873 10.4496 107.515 9.73418C107.009 8.71523 106.017 7.67461 104.963 7.08926L104.098 6.61231L85.8516 6.61231C70.9383 6.61231 67.4579 6.67735 66.7829 6.91582C65.7493 7.28438 64.4415 8.49844 63.8508 9.62579L63.3868 10.5147L63.3235 29.0291C63.2602 49.3863 63.2391 48.9311 64.5469 50.557C64.8844 50.9906 65.6649 51.5977 66.2766 51.9012L67.3735 52.4648L76.0852 52.4648L84.7969 52.4648L84.7969 54.0475C84.7969 57.5162 83.9743 62.3941 82.793 66.0363C80.1141 74.2746 75.4524 79.4777 66.6563 84.0088C64.9477 84.8977 63.2813 85.8949 62.9016 86.3068C61.9313 87.3258 61.5305 88.5832 61.636 90.2309C61.7204 91.4449 62.0157 92.2254 64.2305 96.9732C66.8251 102.545 67.3102 103.304 68.8501 103.954C69.7993 104.366 71.2759 104.496 72.2462 104.258Z" fill="white"/>
<path d="M12.2344 103.564C26.4305 97.19 37.2516 86.3502 42.0398 73.7109C43.4109 70.1121 44.6344 64.6272 45.3305 58.9688C46.2164 51.8795 46.3008 49.2129 46.3008 29.4844C46.3008 11.2951 46.2797 10.4713 45.9 9.69082C45.3938 8.62852 44.4867 7.69629 43.3688 7.08926L42.5039 6.61231L24.1523 6.61231C5.94844 6.61231 5.80079 6.61231 4.85157 7.06758C3.7125 7.60957 2.86875 8.45508 2.23594 9.64747C1.79297 10.5147 1.79297 10.558 1.72969 29.0291C1.66641 49.3863 1.64532 48.9311 2.95313 50.557C3.29063 50.9906 4.0711 51.5977 4.68282 51.9012L5.77969 52.4649L14.5969 52.4649C23.182 52.4648 23.4141 52.4648 23.4141 52.8768C23.4141 54.5027 22.8656 59.294 22.4438 61.4619C21.7899 64.8006 21.0938 66.9469 19.7227 69.917C16.8117 76.2041 12.382 80.4317 4.85157 84.1606C0.970321 86.0684 0.126571 87.0873 0.10548 89.8623C0.10548 91.3582 0.147667 91.4449 2.53126 96.5397C3.86017 99.358 5.23126 102.046 5.56876 102.48C7.06642 104.344 9.57657 104.756 12.2344 103.564Z" fill="white"/>
</g>
<defs>
<clipPath id="clip0_1974_125">
<rect width="108" height="111" fill="white" transform="translate(108 111) rotate(180)"/>
</clipPath>
</defs>
</svg>
