<svg width="140" height="84" viewBox="0 0 140 84" fill="none" xmlns="http://www.w3.org/2000/svg">
<mask id="mask0_1945_52" style="mask-type:alpha" maskUnits="userSpaceOnUse" x="0" y="0" width="140" height="84">
<rect width="140" height="84" fill="white"/>
</mask>
<g mask="url(#mask0_1945_52)">
<path fill-rule="evenodd" clip-rule="evenodd" d="M62.9983 43.6599H77.43C77.6706 43.6599 77.9112 43.5063 77.9112 43.3517L78.8734 41.4956C78.8734 41.1864 78.8734 41.0318 78.6329 41.0318H64.0801L65.1626 38.5593C65.2829 38.4047 65.5235 38.0955 65.764 38.0955H81.0386C81.5197 38.0955 81.64 37.7863 81.64 37.7863L82.6014 36.0858C82.7217 35.7766 82.6014 35.622 82.3609 35.622H61.4346C60.5918 35.622 60.352 36.0858 60.2318 36.395L55.9023 46.5971C55.5415 47.5247 55.4212 49.8426 57.5863 49.8426H76.8278C77.1887 49.8426 77.3089 49.689 77.43 49.3788L78.272 47.5247C78.272 47.3691 78.272 47.0609 78.0314 47.0609H62.3969C61.7955 47.0609 61.7955 46.4425 62.036 45.9788L62.9983 43.6599ZM108.218 35.622H89.5771C88.6149 35.622 88.254 36.395 88.254 36.395C88.4946 35.9312 82.9615 49.0706 82.9615 49.0706C82.7209 49.3788 82.7209 49.8426 83.2029 49.8426H87.894C88.3743 49.8426 88.6149 49.3788 88.7352 48.9171L93.0654 38.8695C93.0654 38.8695 93.3067 38.0966 94.0277 38.0966H104.251C104.612 38.0966 105.573 38.2511 105.212 39.6425C104.971 40.57 104.371 41.0318 103.529 41.0318H95.2305C94.9899 41.0318 94.8696 41.1864 94.6291 41.4956L93.1857 43.1961C93.0654 43.3517 92.9451 43.5063 93.1857 43.6599C93.1857 43.6599 103.168 49.5344 103.047 49.5344C103.289 49.688 103.408 49.688 103.65 49.688H110.504C110.746 49.688 110.985 49.3778 110.504 49.0696L101.484 43.969C101.364 43.8155 101.364 43.6588 101.604 43.6588H106.415C106.775 43.6588 110.143 43.3507 110.985 39.4858C110.985 39.4869 112.067 35.622 108.218 35.622ZM114.353 42.2675C114.954 39.795 117.599 35.3128 128.544 35.3128C139.248 35.3128 140.21 39.4869 139.97 41.8047C139.609 45.2048 136.722 49.9961 124.936 49.9961C114.473 50.1528 113.39 45.515 114.353 42.2675ZM125.777 47.5247C131.309 47.5247 133.475 45.8252 134.436 42.5777C135.158 40.2598 134.797 37.7863 128.183 37.7863C122.89 37.7863 120.605 39.9496 119.764 42.2675C119.042 44.1236 118.562 47.5247 125.777 47.5247ZM17.0553 35.0037C18.7393 35.0037 20.6638 34.8491 22.1072 36.5496C22.7079 37.168 29.9241 48.7604 29.9241 48.7604C30.0444 49.0706 30.0444 49.5344 29.5633 49.5344H24.7527C24.5121 49.5344 24.3918 49.3788 24.1513 49.0706L21.2652 44.4338H8.15585L3.46556 49.0706C3.22499 49.3788 2.98442 49.5344 2.62357 49.5344H0.338166C-0.022687 49.5344 -0.142971 49.0706 0.217882 48.7604L12.365 36.5496C13.8084 35.0037 15.3721 35.0037 17.0553 35.0037ZM19.5813 41.9593C19.5813 41.9593 17.6567 38.7139 17.1748 38.0955C16.9472 37.8147 16.648 37.6498 16.3328 37.6317C16.2125 37.4772 15.8524 37.4772 15.8524 37.4772C15.8524 37.4772 15.4916 37.4772 15.251 37.6317C14.8902 37.7863 14.7699 37.9409 14.409 38.2501L10.6802 41.9593H19.5813ZM52.2938 46.7507H38.9446C38.2229 46.7507 38.2229 46.1323 38.4635 45.6685L42.6726 35.7756C42.6726 35.621 42.5524 35.3118 42.3118 35.3118H37.8621C37.1404 35.3118 36.7795 35.7756 36.6592 36.0848L32.3298 46.2859C31.7284 47.8318 32.3298 49.5334 34.2535 49.5334H51.212C51.5721 49.5334 51.6924 49.2232 51.8135 49.2232L52.5344 47.2135C52.6547 47.0609 52.5344 46.7507 52.2938 46.7507Z" fill="white"/>
</g>
</svg>
