<svg width="140" height="84" viewBox="0 0 140 84" fill="none" xmlns="http://www.w3.org/2000/svg">
<mask id="mask0_1945_37" style="mask-type:alpha" maskUnits="userSpaceOnUse" x="0" y="0" width="140" height="84">
<rect width="140" height="84" fill="white"/>
</mask>
<g mask="url(#mask0_1945_37)">
<path fill-rule="evenodd" clip-rule="evenodd" d="M118.35 31.6486L117.487 31.7546H111.53V31.8079C111.769 31.874 111.967 32.0602 112.114 32.312L112.14 32.3917L112.326 32.8958V42.8468C112.194 43.43 111.941 43.7884 111.53 43.9342V43.988H119.291L120.128 41.5597H120.074C119.586 41.9404 119.039 42.2405 118.456 42.4486L116.625 42.6482L114.277 42.4222V38.0042L116.572 38.0838C116.93 38.1635 117.156 38.3093 117.289 38.5482H117.368V36.5713H117.289L116.479 36.6639H114.277V33.2273L116.173 33.0944L117.368 33.2273C117.765 33.3204 118.097 33.5189 118.35 33.8245H118.429V31.6486H118.35Z" fill="white"/>
<path fill-rule="evenodd" clip-rule="evenodd" d="M112.14 32.3917L112.114 32.312H112.088V32.3917H112.14Z" fill="#A6A8AA"/>
<path fill-rule="evenodd" clip-rule="evenodd" d="M103.37 41.1745C102.521 40.1925 102.083 38.9722 102.083 37.5791C102.083 36.2388 102.495 35.1245 103.304 34.262C104.113 33.4258 105.149 32.9884 106.449 32.9884C107.63 32.9884 108.771 33.3467 109.885 34.0629V31.9268C108.598 31.5953 107.458 31.449 106.489 31.4759C104.565 31.449 102.999 32.0328 101.805 33.2267C100.571 34.3814 99.9483 35.9337 99.9871 37.8573C99.9483 39.8341 100.585 41.3999 101.885 42.5417L101.977 42.6477C103.251 43.7351 104.949 44.2662 107.072 44.2925C108.161 44.2662 109.102 44.094 109.886 43.7356L110.827 41.5861H110.775C109.407 42.3684 108.095 42.7542 106.821 42.7542C105.68 42.7542 104.725 42.4222 103.928 41.7324L103.37 41.1745Z" fill="white"/>
<path fill-rule="evenodd" clip-rule="evenodd" d="M108.744 48.526L108.598 48.5524H108.439L108.293 48.4986L108.133 48.42L107.855 48.4728H107.564L107.284 48.3539L106.09 48.3264L105.785 48.2479C105.732 48.2479 105.679 48.2742 105.626 48.3264L105.48 48.3662L105.347 48.2737L105.202 48.1941L104.618 48.1144L104.286 48.2204L104.008 48.1144H103.809L103.583 48.1682L103.053 48.1946L102.774 48.0488L102.468 48.1026L102.217 47.9966L101.076 47.9428L100.77 47.8631L99.8823 47.9966L99.7225 47.9428L99.5767 47.8631L99.3243 47.8368L99.1656 47.8631L99.0198 47.917L98.7411 47.811L98.5952 47.8637L98.4354 47.9035L98.3165 47.8373C98.2663 47.8015 98.2128 47.7705 98.1567 47.7448L98.0109 47.8373L97.8522 47.9035L97.5735 47.691L97.2678 47.7184L97.122 47.7711L96.9633 47.7975L96.6846 47.7189L96.5388 47.7717L96.38 47.798L96.2342 47.7195C96.2068 47.6398 96.1546 47.6124 96.1008 47.6398L95.8086 47.7458L95.6499 47.692C95.5972 47.6393 95.5439 47.6124 95.5041 47.6124L94.9074 47.6662L94.3365 47.6124L94.0319 47.6398L93.8721 47.586L93.7532 47.5737H93.4212L93.2754 47.5339L93.1167 47.4677L92.838 47.5339L92.5323 47.5866L92.4527 47.5742L92.3602 47.4946L92.1218 47.5344H91.856L91.6176 47.4408L91.3255 47.4946L91.0468 47.3746L90.7148 47.4682L90.1579 47.4946L89.9992 47.4149L89.8533 47.3089L89.5746 47.2826L89.2948 47.3089L89.0037 47.2562L88.8579 47.3089L88.7121 47.3886L88.4334 47.3348L88.1412 47.2422L87.8765 47.2159L87.5709 47.3084L87.4121 47.2557L87.2798 47.162L87.134 47.2557L86.9882 47.3342L86.4038 47.2557L86.1251 47.282L85.5144 47.2422L85.3686 47.1626L85.2362 47.0566L85.0904 47.1104L84.6535 47.189L84.3479 47.1626L84.0293 47.084L83.7506 47.0566L83.4461 47.1104L83.1674 47.0566L82.8876 46.964H82.583C82.5292 46.964 82.477 46.9775 82.4243 47.0426L82.2785 47.0835L82.1187 47.0039L81.9998 46.9102L81.84 46.9775L81.6941 47.0426C81.6632 47.0437 81.6326 47.0371 81.6048 47.0234C81.5771 47.0097 81.5533 46.9893 81.5354 46.964C81.4956 46.9102 81.4418 46.8844 81.4154 46.8844C81.3627 46.8844 81.3094 46.9108 81.2567 46.964L81.1109 46.9775L80.5002 47.0039L80.4206 46.964L80.328 46.9102C80.2742 46.9102 80.222 46.9377 80.1956 46.964L80.102 46.9775L79.8637 47.0039L79.7178 46.9102C79.7054 46.8861 79.6863 46.8659 79.6629 46.852C79.6395 46.8381 79.6127 46.8311 79.5855 46.8317L79.4397 46.8844L79.2939 46.964L78.8828 46.8844L78.7768 46.8317L78.4712 46.9377L78.1924 46.8317H77.9003L77.6092 46.8844L77.4892 46.858L77.3568 46.7784L77.0781 46.8844L76.9323 46.8317L76.7725 46.752L76.4938 46.858L76.348 46.7784C76.3294 46.7581 76.3069 46.7418 76.2818 46.7304C76.2568 46.719 76.2297 46.7129 76.2021 46.7122L75.3402 46.7257L75.0345 46.6321L74.7558 46.7257L73.2837 46.5799L73.1379 46.6326H72.9781L72.3948 46.6864L71.5318 46.5804L71.3069 46.7128L71.0545 46.8053L70.1656 46.7526L69.8864 46.553L69.5813 46.447L69.2762 46.6068L68.9975 46.553L68.2679 46.7128L67.9892 46.6068L67.7104 46.5804L67.4317 46.6331L67.1272 46.6068L66.5961 46.6331L66.291 46.6869L66.1581 46.5535L65.8794 46.5008L65.6007 46.4082C65.5731 46.4086 65.546 46.4147 65.5209 46.4261C65.4958 46.4375 65.4733 46.4539 65.4549 46.4744L65.2956 46.5804L65.0169 46.4206L64.8974 46.447L64.4465 46.5804L64.1415 46.4744L63.8628 46.553L63.279 46.4744L63.0002 46.5804L62.841 46.5008L62.6952 46.447L62.4164 46.4206L61.8063 46.5002L61.5012 46.4077L61.329 46.4739H61.1165L60.8114 46.5799L60.586 46.6062L60.2809 46.5002L60.0554 46.6326L59.9096 46.5799L59.7772 46.5002L59.4722 46.5266L59.0476 46.6326H58.9147L58.6096 46.5799L58.3578 46.6326L58.0791 46.6062L57.774 46.659L57.4953 46.6062H57.1843L57.0385 46.659L56.9056 46.7262H56.3353L56.0302 46.5804C55.9769 46.5804 55.9242 46.6068 55.8709 46.659L55.7251 46.7262L55.5658 46.7128L55.4464 46.659L55.1413 46.7128L54.3982 46.6331H54.2519L53.9732 46.7128L53.6681 46.8586L53.3894 46.7526H53.2435L53.0843 46.7128C53.031 46.7128 52.9783 46.7262 52.9385 46.7789L52.7792 46.8586L51.9167 46.7526H51.638C51.5847 46.7526 51.5454 46.7789 51.5185 46.8322L51.3592 46.8849L51.2134 46.8586L51.0542 46.8048C51.029 46.8065 51.0048 46.8147 50.9838 46.8287C50.9629 46.8426 50.9459 46.8619 50.9347 46.8844L50.7755 46.9382L50.6296 46.8844L50.4704 46.8048L50.3246 46.8322L50.0458 46.7784L49.8204 46.7122L49.356 46.858L49.1037 46.7784L48.8782 46.8322L48.6528 46.6864L48.4273 46.8053L48.175 46.7526L47.9361 46.8586L47.6445 46.7789L47.3657 46.9113L46.9014 46.8328L46.7556 46.7789L46.4505 46.8586L45.8667 46.8849L45.5616 46.8322C45.5353 46.8322 45.4825 46.8586 45.4293 46.9108L45.2834 47.0044H45.0047L44.8589 46.9646L44.6996 46.8849H44.1417L43.8899 46.9113L43.7306 46.9786L43.6111 47.0846L43.0543 46.9786L42.7223 47.0846L41.7403 47.0571L41.4352 47.1368L41.1032 47.0431L40.7982 47.1104L40.4931 47.0044L40.188 47.084L39.8829 47.0566L39.2991 47.2562L39.0204 47.1626L38.7411 47.2422H38.4097L38.0782 47.282L37.7463 47.1362L37.1759 47.2422L36.8708 47.2159L36.5921 47.3746L36.3532 47.2159L36.0083 47.4408L35.8625 47.5204L35.6236 47.4677L35.332 47.5866L35.0533 47.4408L34.7482 47.4946L34.4958 47.5871L34.3366 47.5344L34.1907 47.4682L33.9389 47.5209L33.7797 47.5747L33.6338 47.6409L33.3288 47.5349L32.7719 47.6409L32.1881 47.6673L31.9094 47.6409L31.6043 47.6937H31.2992L31.1399 47.7475L31.0205 47.8136L30.7154 47.84L30.4367 47.8002L30.158 47.9202L30.0121 47.8664L29.8529 47.8002L29.5742 47.9202L28.9909 48.0525L28.6853 47.9465L28.4066 48.0003H27.4779L27.3186 48.0789L27.1728 48.1187L27.0668 48.0789L26.9339 48.0525L26.6552 48.0789L26.4028 48.1725L25.8987 48.3049L25.3149 48.2785L25.0361 48.4243L23.8949 48.5567L23.6162 48.6767L23.3644 48.8618L23.1917 48.8354L23.0329 48.7827L22.8075 49.034L22.6348 49.0076L22.4755 48.9549L22.1968 49.1932L21.9181 49.339L21.6394 49.3918H21.4672L21.3343 49.3654L21.1088 49.4714L21.0421 49.564L20.9625 49.7238L20.4583 50.0283L20.2458 50.2279L19.8212 50.4765L19.6087 50.7278L19.662 51.0334L19.4629 51.2583L19.6087 51.4843L19.5425 51.869C19.5156 51.9487 19.5425 52.0014 19.5689 52.0148L19.8212 52.0945L20.0736 52.3328L20.3787 52.2801L20.6574 52.4254L20.6838 52.505L20.737 52.5588L21.0157 52.4528L21.4403 52.5055L21.613 52.5594C21.6394 52.533 21.6663 52.5055 21.7454 52.4534C21.825 52.3737 21.8783 52.3474 21.8912 52.3474L22.2495 52.4001L22.9129 52.1752H23.1653L23.4171 52.0154L23.55 52.0692L23.6958 52.0955L23.9213 51.9234H24.2L24.4518 51.8034H24.7569L24.9823 51.5908H25.168L25.3138 51.6172L25.6189 51.5645L25.8976 51.3923L26.229 51.3385H26.5341L26.7859 51.2325H27.1174L27.3165 51.1399H27.8475L28.1262 51.0603L28.7364 51.0076L28.9888 50.7552L29.2938 50.8612L29.5726 50.7816H29.8513L30.4614 50.5556H30.7401L30.886 50.4496C30.9656 50.3969 31.0189 50.3711 31.0452 50.3711L31.2179 50.3974L31.6559 50.3711L31.9346 50.3049L32.2397 50.2774L32.5184 50.1187L32.6643 50.1451L32.8112 50.1967L32.8908 50.1182L32.9704 50.0245L33.1959 50.038L33.7 49.918L33.8593 49.9718L34.0051 49.9982L34.2838 49.8394C34.3371 49.812 34.3898 49.8394 34.47 49.918L34.6422 49.9718L34.7482 49.8922C34.7745 49.8394 34.8149 49.8125 34.8676 49.8125L36.0352 49.5876L36.3139 49.6936L36.4598 49.614L36.5927 49.508L37.0436 49.5344L37.2028 49.5607L38.1181 49.3622L38.2375 49.416L38.3968 49.4424L38.5426 49.3627L38.6884 49.31L38.768 49.2304C38.7944 49.2029 38.8213 49.1905 38.8477 49.1905L39.0731 49.2304L39.3518 49.1905L39.6569 49.2831L39.8162 49.1905C39.8291 49.1367 39.8824 49.1109 39.9356 49.1109L40.0949 49.1373L40.2407 49.1911L40.5458 49.1647L40.8509 49.0587L40.9967 49.1373L41.156 49.1911L41.461 49.1647L41.5805 49.0851L41.7134 49.0313L41.8592 49.0587L42.0179 49.1115L42.2972 48.9791L42.6023 49.0318L42.7481 48.9533C42.8014 48.9134 42.8541 48.886 42.8939 48.886L43.0532 48.9258L43.199 49.0055L43.5041 48.9791L43.637 48.8855C43.6481 48.8629 43.665 48.8437 43.686 48.8299C43.707 48.8161 43.7313 48.8082 43.7564 48.8069L44.6722 48.7531C44.7249 48.7267 44.7782 48.7531 44.8315 48.8327L44.9773 48.8855L45.1366 48.8327C45.1529 48.809 45.1746 48.7894 45.2 48.7755C45.2253 48.7617 45.2535 48.754 45.2824 48.7531L45.4282 48.8069L45.5875 48.8333L45.8662 48.6471H46.2643L46.3972 48.6745L46.5431 48.7273L46.7819 48.7536L47.087 48.6751L47.2328 48.6078C47.2592 48.5551 47.3125 48.5293 47.3787 48.5293L47.6445 48.6353L47.9232 48.6078L48.2148 48.6476L48.5199 48.6353L48.7986 48.5018L49.6611 48.5556L49.9398 48.3571L50.0991 48.4496L50.2449 48.5024L50.5236 48.476L50.8024 48.3302L50.9616 48.37L51.4125 48.4496L51.5454 48.3571C51.5718 48.3033 51.6116 48.2775 51.6649 48.2775L51.8241 48.3302L52.275 48.3964L52.4208 48.3302L52.5801 48.2775L52.7259 48.3302H52.8852L53.469 48.2775L53.7477 48.1978H54.1722L54.451 48.1451L54.756 48.1978L55.3135 48.1715L55.618 48.2775L55.7773 48.1978L55.9231 48.1053L56.2018 48.1978L56.5069 48.2242L56.6527 48.1978L56.7985 48.1451L56.9578 48.1715L57.1165 48.2242L57.2623 48.1456L57.4216 48.1058L57.7003 48.0784C57.7401 48.052 57.7929 48.0784 57.8461 48.1456L57.992 48.2242L58.1512 48.1456C58.1781 48.1182 58.2309 48.1058 58.2841 48.1058L58.5757 48.1984L59.4915 48.1456L59.7966 48.052L60.1017 48.1456L60.2475 48.0784C60.26 48.0542 60.279 48.0339 60.3024 48.02C60.3258 48.0061 60.3527 47.9991 60.3799 47.9998H60.8308L61.0697 48.1456L61.2951 48.0784L61.4942 47.9724H61.8256L62.1049 48.052L62.6887 47.9724L63.2989 48.1058C63.3252 48.0784 63.3387 48.052 63.4183 47.9998L63.5512 47.9202L63.8299 47.9729L64.3874 47.9465L64.6661 48.0525L64.8119 47.9729L64.9712 47.9202L65.2897 47.9998L65.5948 47.946L66.1786 48.052L66.3378 47.9724L66.4837 47.9196L66.7624 47.946L67.3994 47.8136L67.6782 47.9062L68.0096 47.9196L68.6203 47.7997L68.7925 47.8395L69.2439 47.9191L69.549 47.8395L70.0403 47.8131L70.2921 47.9191L70.8226 47.9455L71.0749 48.0778L71.3795 47.8131L71.6851 47.8658L71.8573 47.8395L72.0822 47.9455L72.5869 47.8658L72.7467 47.9056L72.8925 47.9455L73.1971 47.9191L73.5016 47.9455L74.0596 47.9191L74.3641 47.8653H74.6428L74.9485 48.1451L76.0886 47.9993C76.1161 47.9993 76.1682 48.0256 76.2086 48.0778L76.3673 48.1053L76.6471 48.0778L76.7924 48.1176L76.9258 48.1451L77.2304 47.9993L77.3762 48.0778L77.5086 48.1053L77.8142 48.0515L78.0127 48.1451L78.2387 48.1176L78.4636 48.1973L79.048 48.1176L79.3525 48.1973L79.4849 48.1176L79.6049 48.0778L79.7647 48.1053L79.8836 48.1451L80.1892 48.0515L80.4405 48.1053L80.7203 48.1176L80.879 48.1715L81.0248 48.2511L81.6091 48.1715L81.8879 48.2242L82.0466 48.1715L82.1924 48.1053L82.3248 48.1715L82.4448 48.2242L82.7493 48.1978L83.6123 48.2775L83.9169 48.2236L84.2225 48.2511L84.3683 48.1973C84.3807 48.1729 84.3996 48.1525 84.423 48.1384C84.4465 48.1243 84.4734 48.1171 84.5007 48.1176L84.6465 48.1973L84.8052 48.2511L84.8988 48.1973L85.0038 48.1176L85.2034 48.3302L85.4557 48.2516H85.7345L85.8932 48.2242L86.039 48.1715L86.6497 48.1978C86.6761 48.1978 86.7293 48.2242 86.7821 48.2775L86.9543 48.3571L87.1141 48.2775C87.1275 48.2236 87.1802 48.1978 87.234 48.1978L87.5386 48.2516L88.0955 48.2242C88.1353 48.2242 88.2015 48.2516 88.2413 48.3038L88.4011 48.37L88.5469 48.3302C88.5996 48.2775 88.6529 48.2516 88.7056 48.2516L88.8515 48.3302L88.9973 48.37L89.2884 48.3964H89.4084L89.8991 48.5024L89.9653 48.476L90.7616 48.5556L90.9074 48.5293L91.0532 48.4755L91.1856 48.5551L91.3314 48.6078L91.4503 48.5551L91.5837 48.5287L91.8748 48.5551L92.167 48.6476L92.7513 48.5815H93.0559L93.9189 48.6751L94.0777 48.6476L94.2235 48.6078L94.8078 48.5551L95.0989 48.6347L95.2587 48.5809L95.4174 48.5546L95.8958 48.6471L96.1481 48.5546L96.4268 48.6342H96.7056L96.8654 48.5804L97.0106 48.554L97.2904 48.6466L98.1524 48.6067L98.458 48.8855L98.6039 48.8069L98.7491 48.7531L99.0677 48.7805L99.3733 48.7531L99.652 48.8069H99.9829L100.275 48.8596L101.19 48.9134L101.416 48.886L101.682 48.9258L101.961 48.9134L102.213 48.9533H102.518L102.796 49.006L103.247 48.9264C103.275 48.914 103.327 48.8865 103.393 48.8865L104.004 48.8602C104.057 48.8338 104.11 48.8602 104.164 48.9264L104.309 49.006L104.641 48.9533L104.787 48.9134L104.919 48.886L105.091 48.9134L105.251 48.9533L105.556 48.886H105.861L105.954 48.9258L106.033 49.0055L106.258 48.9129H106.511L106.789 49.0055L107.068 48.9129L107.374 48.8855L107.532 48.9527L107.678 49.0055L107.838 48.9527L107.957 48.9253L108.117 48.9791L108.263 49.0587L108.82 49.0313L109.124 49.1373L109.27 49.0313C109.296 48.9527 109.35 48.9253 109.402 48.9253L109.682 48.9791L109.828 49.0318L109.96 49.1115L110.265 49.0587L110.875 49.1647L111.154 49.1109L111.433 49.1373L111.579 49.1109L111.739 49.0582L112.017 49.1367L112.614 49.084L112.893 49.19L113.304 49.2298L113.41 49.2826L113.503 49.3622L113.583 49.4682L113.689 49.3886L113.755 49.31L114.286 49.3364L114.564 49.31L115.148 49.3627L115.307 49.4424L115.453 49.4687L115.612 49.4424L115.758 49.3886L116.037 49.3358L116.196 49.4155L116.342 49.4418L116.806 49.3358L116.952 49.282H116.806L116.595 49.2024L116.501 49.2298L116.395 49.2826L116.169 49.1636L115.864 49.19L115.612 49.1362L115.36 49.1636L115.227 49.084C115.216 49.0611 115.199 49.0416 115.178 49.0276C115.157 49.0135 115.133 49.0055 115.107 49.0044H114.829L114.498 49.0582H114.245L114.086 48.9785L113.967 48.8849L113.688 49.0049L112.519 48.8591L112.082 48.8855L111.937 48.9253L111.353 48.7531L111.22 48.7267L111.074 48.6471H110.769L110.624 48.7267L110.465 48.7531L110.185 48.7004H109.881L109.628 48.5546C109.549 48.5546 109.509 48.5809 109.456 48.6342L109.296 48.674H108.992L108.744 48.526Z" fill="#979797"/>
<path fill-rule="evenodd" clip-rule="evenodd" d="M100.584 43.7093L99.8016 42.8204L95.2377 31.7546H92.3048V31.8079C92.6905 31.9273 92.8891 32.1528 92.8891 32.5375L92.5845 33.5458L88.8294 42.8204C88.5507 43.324 88.1789 43.7093 87.6882 43.9342V43.988H91.1108V43.9342L91.0446 43.9078C90.6599 43.7357 90.4877 43.5371 90.4613 43.2573C90.4339 43.0324 90.5001 42.5944 90.7261 42.0106L91.6951 39.3967H96.379L97.7978 43.3111C97.7715 43.5371 97.5729 43.7357 97.1484 43.9342V43.988H100.943V43.9342L100.584 43.7093ZM94.0298 33.3204L95.8468 38.0042H92.1718L94.0298 33.3204ZM95.7015 52.0412V52.0148H94.7325V52.0412L95.0112 52.3995L95.0639 52.8779V55.5714L95.0112 56.0761L94.7067 56.4334V56.4608H95.9006V56.4334L95.5961 56.0761L95.5423 55.5714V52.9839L97.8511 55.9023C98.1556 56.2741 98.4882 56.5265 98.8465 56.6588V52.8779L98.8863 52.3995C98.9127 52.2537 99.0187 52.1348 99.1909 52.0412V52.0148H98.0098V52.0412L98.3284 52.3995L98.3558 55.4374L95.8075 52.2005L95.7015 52.0412ZM100.664 52.0014L100.438 52.7843C100.61 52.5992 100.889 52.5055 101.247 52.5055H101.831V56.0218L101.552 56.4329V56.4603H102.865V56.4329L102.561 56.0756L102.521 55.5709V52.5055H103.118C103.45 52.5055 103.635 52.5992 103.702 52.7843H103.728L103.953 52.0014H103.915L103.609 52.0148H100.943L100.664 52.0014ZM81.8626 32.312C81.996 32.0602 82.1945 31.8741 82.4469 31.8079V31.7546H78.8779V31.8079C79.1292 31.8741 79.3288 32.0602 79.4876 32.312L79.515 32.4046L79.6608 32.8958V42.8468C79.5408 43.43 79.289 43.7884 78.8779 43.9342V43.988H86.5329L87.5155 41.5334H87.4616C86.4802 42.3421 85.3654 42.7268 84.1714 42.6482L81.6377 42.476L81.6904 32.9227C81.7162 32.6833 81.7964 32.4848 81.8626 32.312Z" fill="white"/>
<path fill-rule="evenodd" clip-rule="evenodd" d="M79.4883 32.312H79.4619V32.3917L79.5152 32.4046L79.4883 32.312Z" fill="#A6A8AA"/>
<path fill-rule="evenodd" clip-rule="evenodd" d="M73.8885 30.5343L74.3921 31.0384C74.7241 31.5291 74.8705 32.1129 74.8968 32.8431C74.8705 33.9311 74.4196 34.8199 73.4769 35.5232C72.6413 36.1603 71.6862 36.4917 70.545 36.5713C71.0223 36.7968 71.6324 36.8899 72.3093 36.9162H72.4417C73.8089 36.8899 75.0028 36.4653 76.0117 35.6825C77.0991 34.7936 77.6566 33.6787 77.6566 32.3389C77.6566 31.3968 77.3779 30.5875 76.8473 29.9241C76.6213 29.6454 76.369 29.4199 76.0644 29.1945C75.0566 28.4649 73.7292 28.0802 72.0839 28.0802H66.1797V28.1598L66.8168 28.664L66.8958 28.7834L67.1751 29.619V42.5686C67.0422 43.324 66.7108 43.8158 66.1797 43.9885V44.0682H70.9959V43.9885L70.7172 43.8163C70.2926 43.5107 70.0139 43.126 69.881 42.7015C69.775 42.3695 69.7352 41.7857 69.7352 40.9501V29.9763L71.4462 29.8568C72.4949 29.8305 73.3042 30.0565 73.8885 30.5343Z" fill="white"/>
<path fill-rule="evenodd" clip-rule="evenodd" d="M66.897 28.7829L66.8174 28.6629H66.7646V28.7425L66.897 28.7829Z" fill="#A6A8AA"/>
<path fill-rule="evenodd" clip-rule="evenodd" d="M58.4844 31.8079C59.015 32.0333 59.1877 32.4315 58.9622 32.9889L55.5654 37.6324L59.6918 43.2051L60.1029 43.5635L60.5274 43.762L61.801 43.988H63.5524V43.9342C62.9686 43.6555 62.4908 43.3509 62.0798 43.005L61.3232 42.1957L57.5681 37.2471L61.8269 31.7804V31.7541H58.4839L58.4844 31.8079Z" fill="white"/>
<path fill-rule="evenodd" clip-rule="evenodd" d="M53.1915 32.312L53.2179 32.3917L53.3642 32.8958V42.8468C53.2846 43.3515 53.0592 43.7098 52.7272 43.882L50.83 42.4222L47.2083 38.0042C47.9911 37.8449 48.6809 37.4468 49.2647 36.8764C49.8485 36.2394 50.1536 35.5227 50.1536 34.7398C50.1536 34.1032 49.968 33.5458 49.6096 33.0944L49.1582 32.6166C48.4819 32.0328 47.5128 31.7541 46.3194 31.7541H41.8879V31.8073C42.1133 31.8735 42.3253 32.0597 42.4453 32.3115L42.4981 32.3911L42.6444 32.8953V42.8468C42.5513 43.3773 42.3259 43.7356 41.9412 43.9084L41.6361 43.7362C41.331 43.5102 41.0787 43.2057 40.8532 42.8209C40.6939 42.5686 40.4685 42.0644 40.1629 41.3079L36.2888 31.7551H33.3569V31.8084C33.6754 31.9009 33.8874 32.1135 33.9138 32.3922L33.9407 32.538L33.6356 33.5463L29.8805 42.8209C29.5754 43.3246 29.1907 43.7098 28.7129 43.9347V43.9885H32.136V43.9347L32.0564 43.9084C31.6981 43.7362 31.499 43.5376 31.4726 43.2578C31.4462 43.0329 31.5522 42.595 31.7777 42.0112L32.7462 39.3972H37.43L38.8231 43.3117C38.8231 43.5376 38.6106 43.7362 38.186 43.9347V43.9885H45.4305V43.9347L45.3907 43.9084C45.006 43.7625 44.7536 43.4037 44.6476 42.8468L44.5944 33.0416L45.8679 32.8958C46.505 32.8695 47.0619 33.0416 47.5397 33.4264L47.9373 33.8509C48.1499 34.1829 48.2424 34.5407 48.2693 34.9652C48.243 35.761 47.8975 36.3852 47.2077 36.8759C46.6772 37.2208 45.9869 37.4726 45.1512 37.6055L45.0318 37.6319L46.7568 40.2587L49.0388 43.0448L49.5166 43.5366L49.9411 43.7878L51.1883 43.9875H56.1772V43.9336L56.124 43.9073C55.7392 43.7351 55.4869 43.3768 55.3943 42.8457V32.8958L55.5934 32.312C55.7258 32.0602 55.9249 31.874 56.1772 31.8079V31.7546H52.6077V31.8079C52.8332 31.874 53.0323 32.0597 53.1915 32.312ZM36.8715 38.0037H33.2229L35.0674 33.3198L36.8715 38.0037Z" fill="white"/>
<path fill-rule="evenodd" clip-rule="evenodd" d="M53.2165 32.3917L53.1906 32.312H53.1637V32.3917H53.2165ZM42.4434 32.312V32.3917H42.4961L42.4434 32.312Z" fill="#A6A8AA"/>
<path fill-rule="evenodd" clip-rule="evenodd" d="M64.6673 52.5055H65.2775C65.596 52.5055 65.7817 52.5992 65.8484 52.7842H65.8747L66.0873 52.0014L65.7558 52.0148H63.0887L62.8363 52.0014H62.8099L62.5581 52.7842H62.6109C62.7836 52.5992 63.0488 52.5055 63.3937 52.5055H63.9775V56.0218L63.6988 56.4328V56.4603H65.0122V56.4328L64.7206 56.0756L64.6673 55.5709V52.5055ZM72.8943 52.0148V52.0412L73.173 52.4259V56.0223C73.1332 56.2607 73.0272 56.3807 72.8943 56.4334V56.4608H74.1679V56.4334C74.0345 56.3548 73.9419 56.2209 73.9156 56.0223V52.4259C73.9419 52.2274 74.0345 52.095 74.1679 52.0412V52.0148H72.8943ZM68.6479 52.0148V52.0412C68.7674 52.0686 68.847 52.1746 68.847 52.2935L68.741 52.6782L67.3743 56.0223L66.9762 56.4334V56.4608H68.2099V56.4334C68.0378 56.3807 67.9581 56.301 67.9581 56.1821L68.0641 55.7441L68.409 54.7891H70.1072L70.6113 56.195L70.359 56.4334V56.4608H71.7525V56.4334L71.328 56.0223L69.709 52.0154L68.6479 52.0148ZM69.9086 54.2973H68.5947L69.2452 52.5991L69.9086 54.2973ZM52.859 52.0412C52.9785 52.095 53.0845 52.2274 53.1377 52.4259V56.0223L52.859 56.4334V56.4608H55.6456L55.9373 55.5719H55.9244C55.5929 55.8765 55.1684 55.9965 54.6771 55.969L53.8415 55.8765V54.2978H54.3322C54.6508 54.2844 54.8628 54.3505 54.9289 54.4829H54.9558V53.7673H54.9289L54.6373 53.82H53.8415V52.5599L54.5313 52.5061C54.8762 52.5061 55.1415 52.5997 55.3142 52.7848H55.3406V52.0019H55.3142L55.0086 52.0154H52.859V52.0412ZM57.7285 52.0148V52.0412L57.9937 52.4259V56.0223L57.7285 56.4334V56.4608H58.9892V56.4334C58.8433 56.3807 58.7239 56.2612 58.7104 56.0223L58.6841 52.5061L59.1619 52.4264C59.3873 52.4001 59.5864 52.4802 59.7726 52.6261C59.9184 52.7584 59.998 52.957 59.998 53.183C59.998 53.7135 59.6268 54.0196 58.8568 54.152L60.3031 56.1288C60.4887 56.3548 60.7406 56.4608 61.0725 56.4608H61.6962L60.6082 55.5181L59.6526 54.2978L60.3822 53.8733C60.6077 53.6473 60.7142 53.3949 60.7142 53.1168C60.7142 52.7848 60.5813 52.5335 60.3558 52.3339C60.1035 52.1353 59.7457 52.0154 59.3206 52.0154L57.7285 52.0148ZM84.1716 52.0412V52.0148H83.004V52.0412L83.23 52.3468L82.8318 55.4912C82.7522 55.9421 82.6333 56.2607 82.4471 56.4328V56.4603H83.5609V56.4328L83.3085 56.1019L83.336 55.5714L83.7207 52.7057L84.9808 55.7178C85.1406 56.0761 85.3392 56.3548 85.5915 56.527L87.0911 52.6788L87.4618 55.9168C87.4618 56.1956 87.3956 56.3812 87.2095 56.4339V56.4614H88.5105V56.4339L88.2307 56.1294L87.7136 52.427C87.6873 52.2021 87.7674 52.0697 87.9262 52.0423V52.0159H86.7586V52.0423L86.6526 52.4544L85.5388 55.3201L84.1716 52.0412ZM90.1026 52.0412C90.2479 52.095 90.3539 52.2274 90.3937 52.4259V56.0223C90.3539 56.2607 90.2479 56.3807 90.1026 56.4334V56.4608H92.9151L93.2207 55.5719C92.8624 55.8765 92.4378 55.9965 91.9471 55.969L91.0841 55.8765V54.2978H91.5888C91.9197 54.2844 92.1193 54.3505 92.1984 54.4829H92.2258V53.7673H92.1984L91.8938 53.82H91.0846V52.5599L91.7739 52.5061C92.1597 52.5061 92.4378 52.5997 92.5842 52.7848H92.6105V52.0019L90.1032 52.0154L90.1026 52.0412ZM77.3123 52.3333L77.1262 52.0412V52.0148H76.1448V52.0412L76.4493 52.3995L76.4891 52.8779V55.5714L76.4493 56.0761L76.1448 56.4334V56.4608H77.3258V56.4334L77.0336 56.0761L76.9798 55.5714V52.9839L79.2887 55.9023C79.5808 56.2741 79.9117 56.5265 80.2701 56.6588V52.8779L80.3239 52.3995C80.3503 52.2537 80.4428 52.1348 80.6026 52.0412V52.0148H79.435V52.0412L79.7395 52.3995L79.767 55.4374L77.3123 52.3333ZM29.8525 29.1143C28.8442 28.3847 27.5173 28 25.8988 28H19.9941V28.0796L20.6307 28.5838L20.7103 28.7167L20.989 29.5259V42.4884C20.8561 43.2578 20.4983 43.7356 19.9678 43.9084V43.988H24.8103V43.9084L24.5316 43.7625C24.1071 43.4306 23.8284 43.0458 23.6955 42.6213C23.5895 42.2904 23.5497 41.6797 23.5497 40.8436V29.8972L25.2612 29.7514C26.3094 29.7514 27.1186 29.9768 27.7024 30.4412L28.1802 30.9459C28.5117 31.4232 28.6844 32.007 28.6844 32.7371C28.6844 33.8251 28.2206 34.7139 27.2913 35.457C26.4552 36.0806 25.5001 36.4121 24.3594 36.4653C24.8103 36.6908 25.3941 36.7968 26.1237 36.8237H26.3094C27.6497 36.7968 28.8437 36.3593 29.8256 35.5765C30.9136 34.6876 31.4441 33.5996 31.4441 32.2593C31.4441 31.3177 31.1923 30.5343 30.6612 29.8843L29.8525 29.1143Z" fill="white"/>
<path fill-rule="evenodd" clip-rule="evenodd" d="M20.711 28.7167L20.6309 28.5838H20.5781V28.6629L20.711 28.7167Z" fill="#A6A8AA"/>
<path fill-rule="evenodd" clip-rule="evenodd" d="M42.9211 52.201L42.8285 52.0412V52.0148H41.8336V52.0412L42.1387 52.3995L42.192 52.8779V55.5714L42.1387 56.0761L41.8336 56.4334V56.4608H43.0276V56.4334L42.7225 56.0761L42.6693 55.5714V52.9839L44.9781 55.9023C45.2832 56.2741 45.6152 56.5265 45.9735 56.6588V52.8779C45.9471 52.6519 45.9735 52.4797 45.987 52.3995C46.0402 52.2537 46.1462 52.1348 46.3189 52.0412V52.0148H45.1374V52.0412L45.429 52.3995L45.4553 55.4374L42.9211 52.201ZM47.9633 52.0014H47.9369L47.7114 52.7843H47.7378C47.924 52.5992 48.1758 52.5055 48.5207 52.5055H49.1314L49.1045 56.0218C49.0512 56.2203 48.9587 56.3538 48.8258 56.4329V56.4603H50.1526V56.4329L49.8476 56.0756C49.8083 55.9103 49.7994 55.7393 49.8212 55.5709V52.5055H50.4313C50.7364 52.5055 50.9355 52.5992 51.0151 52.7843L51.2406 52.0014H51.2142L50.9091 52.0148H48.2156L47.9633 52.0014ZM36.8711 52.0148V52.0412C37.0169 52.095 37.1234 52.2274 37.1498 52.4259V56.0223C37.1234 56.2607 37.0169 56.3807 36.8711 56.4334V56.4608H39.6706L39.9892 55.572H39.9628C39.6045 55.8765 39.2063 55.9965 38.7156 55.969L37.8531 55.8765V54.2978H38.3701C38.6887 54.2844 38.8743 54.3506 38.9405 54.4829H38.9938V53.7673H38.9405L38.6752 53.82H37.8531V52.5599L38.5429 52.5061C38.9276 52.5061 39.1799 52.5997 39.3521 52.7848V52.0019L39.0207 52.0154L36.8711 52.0148Z" fill="white"/>
</g>
</svg>
