<svg width="140" height="84" viewBox="0 0 140 84" fill="none" xmlns="http://www.w3.org/2000/svg">
<mask id="mask0_1945_12" style="mask-type:alpha" maskUnits="userSpaceOnUse" x="0" y="0" width="140" height="84">
<rect width="140" height="84" fill="white"/>
</mask>
<g mask="url(#mask0_1945_12)">
<mask id="mask1_1945_12" style="mask-type:luminance" maskUnits="userSpaceOnUse" x="8" y="31" width="125" height="22">
<path d="M132.348 31H8V53H132.348V31Z" fill="white"/>
</mask>
<g mask="url(#mask1_1945_12)">
<path d="M28.913 42C28.913 34.9981 24.4468 31.0059 18.6171 31.0059C12.7553 31.0059 8.32129 34.9981 8.32129 42C8.32129 48.9707 12.7553 52.9942 18.6171 52.9942C24.4468 52.9942 28.913 49.0019 28.913 42ZM24.1998 42C24.1998 46.5356 21.9882 48.9915 18.6171 48.9915C15.2353 48.9915 13.0344 46.5356 13.0344 42C13.0344 37.4644 15.2353 35.0085 18.6171 35.0085C21.9882 35.0085 24.1998 37.4644 24.1998 42Z" fill="white"/>
<path d="M30.1143 34.8391H36.8458V52.9937H41.4407V34.8391H48.1722V31.0063H30.1143V34.8391Z" fill="white"/>
<path d="M55.2219 31.0063H50.5732V52.9937H55.2219V31.0063Z" fill="white"/>
<path d="M63.9883 31.0063H58.8242L66.4146 52.9937H72.4053L79.9849 31.0063H74.8316L69.5066 47.7116H69.3025L63.9883 31.0063Z" fill="white"/>
<path d="M102.359 52.9937H107.008V45.1993H110.401L114.566 52.9937H119.698L115.028 44.4478C117.53 43.3742 118.915 41.1948 118.915 38.1887C118.915 33.8192 116.026 31.0063 111.034 31.0063H102.359V52.9937ZM107.008 41.4632V34.8069H110.143C112.827 34.8069 114.126 35.9986 114.126 38.1887C114.126 40.3682 112.827 41.4632 110.164 41.4632H107.008Z" fill="white"/>
<path d="M82.5683 53H77.584L85.1787 31H91.1728L98.7568 53H93.7724L92.1397 47.9834L88.2617 36.0273H88.0899L82.5683 53Z" fill="white"/>
<path d="M90.4959 49.0849C90.4959 50.3693 89.4547 51.4105 88.1703 51.4105C86.8859 51.4105 85.8447 50.3693 85.8447 49.0849C85.8447 47.8005 86.8859 46.7593 88.1703 46.7593C89.4547 46.7593 90.4959 47.8005 90.4959 49.0849Z" fill="white"/>
<path d="M126.903 40.6134C129.557 40.6134 131.707 38.4638 131.707 35.8099C131.707 33.1559 129.557 31.0063 126.903 31.0063C124.249 31.0063 122.1 33.1559 122.1 35.8099C122.1 38.4638 124.249 40.6134 126.903 40.6134ZM126.903 39.3825C124.928 39.3825 123.325 37.7853 123.325 35.8099C123.325 33.8344 124.928 32.2372 126.903 32.2372C128.873 32.2372 130.476 33.8344 130.476 35.8099C130.476 37.7853 128.878 39.3825 126.903 39.3825ZM125.18 37.9715H126.273V36.4824H127.089L127.804 37.9715H129.005L128.14 36.2662C128.548 36.02 128.849 35.5877 128.849 34.9933C128.849 34.0506 128.116 33.5402 127.372 33.5402H125.18V37.9715ZM126.273 35.6838V34.3448H127.072C127.36 34.3448 127.684 34.5189 127.684 34.9933C127.684 35.4496 127.365 35.6838 127.053 35.6838H126.273Z" fill="white"/>
</g>
</g>
</svg>
