<svg width="140" height="84" viewBox="0 0 140 84" fill="none" xmlns="http://www.w3.org/2000/svg">
<mask id="mask0_1945_4" style="mask-type:alpha" maskUnits="userSpaceOnUse" x="0" y="0" width="140" height="84">
<rect width="140" height="84" fill="white"/>
</mask>
<g mask="url(#mask0_1945_4)">
<path d="M21 42.5283C21 38.758 21.9001 35.8992 23.7002 33.952C25.5208 31.984 27.8527 31 30.6961 31C33.5395 31 35.7999 31.8493 37.4773 33.548C39.1751 35.2467 40.024 37.9605 40.024 41.6893C40.024 45.4181 39.1239 48.2354 37.3238 50.1412C35.5237 52.0471 33.1201 53 30.1131 53C27.5152 53 25.3878 52.2439 23.7309 50.7316C22.8717 49.9444 22.1967 48.8569 21.7057 47.4689C21.2352 46.0603 21 44.4134 21 42.5283ZM30.6041 31.3107C28.538 31.3107 26.8402 32.2429 25.5105 34.1074C24.2014 35.9718 23.5468 38.7062 23.5468 42.3107C23.5468 45.9153 24.1707 48.5461 25.4185 50.2034C26.6663 51.8607 28.3232 52.6893 30.3893 52.6893C32.4758 52.6893 34.1736 51.7571 35.4828 49.8927C36.8124 48.0075 37.4773 45.2834 37.4773 41.7203C37.4773 38.1365 36.8431 35.5057 35.5749 33.8277C34.3271 32.1497 32.6701 31.3107 30.6041 31.3107ZM49.0969 52.8757H46.5501V31.435H41.2418V31.1243H54.4359V31.435H49.0969V52.8757ZM69.7237 31.1243V31.435H60.0582V40.7571H69.0179V41.0678H60.0582V52.565H70.3987V52.8757H57.5115V31.1243H69.7237ZM85.2923 52.8757H73.6324V31.1243H76.1792V52.565H85.2923V52.8757ZM100.035 52.8757H88.3753V31.1243H90.922V52.565H100.035V52.8757ZM100.976 42.5283C100.976 38.758 101.876 35.8992 103.676 33.952C105.497 31.984 107.829 31 110.672 31C113.515 31 115.776 31.8493 117.453 33.548C119.151 35.2467 120 37.9605 120 41.6893C120 45.4181 119.1 48.2354 117.3 50.1412C115.5 52.0471 113.096 53 110.089 53C107.491 53 105.364 52.2439 103.707 50.7316C102.848 49.9444 102.173 48.8569 101.682 47.4689C101.211 46.0603 100.976 44.4134 100.976 42.5283ZM110.58 31.3107C108.514 31.3107 106.816 32.2429 105.487 34.1074C104.177 35.9718 103.523 38.7062 103.523 42.3107C103.523 45.9153 104.147 48.5461 105.394 50.2034C106.642 51.8607 108.299 52.6893 110.365 52.6893C112.452 52.6893 114.15 51.7571 115.459 49.8927C116.789 48.0075 117.453 45.2834 117.453 41.7203C117.453 38.1365 116.819 35.5057 115.551 33.8277C114.303 32.1497 112.646 31.3107 110.58 31.3107Z" fill="white"/>
</g>
</svg>
