<svg width="140" height="84" viewBox="0 0 140 84" fill="none" xmlns="http://www.w3.org/2000/svg">
<mask id="mask0_1945_27" style="mask-type:alpha" maskUnits="userSpaceOnUse" x="0" y="0" width="140" height="84">
<rect width="140" height="84" fill="white"/>
</mask>
<g mask="url(#mask0_1945_27)">
<path d="M42 42.1841C42 33.7981 48.7982 27 57.1841 27V57.3682C48.7982 57.3682 42 50.57 42 42.1841Z" fill="white"/>
<path d="M67.1127 27.9343C61.3171 30.0727 57.1846 35.6458 57.1846 42.1841C57.1846 48.7224 61.3171 54.2955 67.1127 56.4338V27.9343Z" fill="white"/>
<path d="M67.1123 42.1841C67.1123 33.7981 73.9104 27 82.2964 27C90.6823 27 97.4805 33.7981 97.4805 42.1841C97.4805 50.57 90.6823 57.3682 82.2964 57.3682C73.9104 57.3682 67.1123 50.57 67.1123 42.1841Z" fill="white"/>
</g>
</svg>
