<svg width="140" height="84" viewBox="0 0 140 84" fill="none" xmlns="http://www.w3.org/2000/svg">
<mask id="mask0_1945_22" style="mask-type:alpha" maskUnits="userSpaceOnUse" x="0" y="0" width="140" height="84">
<rect width="140" height="84" fill="white"/>
</mask>
<g mask="url(#mask0_1945_22)">
<path d="M20.6045 48.1455C20.6045 48.8818 20.8735 49.4624 21.4116 49.8872C21.9497 50.312 22.5869 50.5244 23.3232 50.5244C24.22 50.5244 25.0885 50.3167 25.9287 49.9014C27.3447 49.2122 28.0528 48.0841 28.0528 46.5171V44.4639C27.7412 44.6621 27.34 44.8273 26.8491 44.9595C26.3582 45.0916 25.8768 45.186 25.4048 45.2427L23.8613 45.4409C22.9362 45.5636 22.2423 45.7572 21.7798 46.0215C20.9963 46.4652 20.6045 47.1732 20.6045 48.1455ZM26.7783 42.9912C27.3636 42.9157 27.7554 42.6702 27.9536 42.2549C28.0669 42.0283 28.1236 41.7026 28.1236 41.2778C28.1236 40.4093 27.812 39.7816 27.189 39.3945C26.5754 38.9981 25.6927 38.7998 24.541 38.7998C23.21 38.7998 22.2659 39.1585 21.709 39.876C21.3975 40.2725 21.1945 40.8625 21.1001 41.646H18.7212C18.7684 39.7769 19.3726 38.4788 20.5337 37.752C21.7043 37.0156 23.0589 36.6475 24.5977 36.6475C26.3818 36.6475 27.8309 36.9873 28.9448 37.667C30.0493 38.3467 30.6016 39.404 30.6016 40.8389V49.5757C30.6016 49.84 30.6535 50.0524 30.7573 50.2129C30.8706 50.3734 31.1019 50.4536 31.4512 50.4536C31.5645 50.4536 31.6919 50.4489 31.8335 50.4395C31.9751 50.4206 32.1262 50.397 32.2866 50.3687V52.252C31.8902 52.3652 31.5881 52.436 31.3804 52.4644C31.1727 52.4927 30.8895 52.5068 30.5308 52.5068C29.6529 52.5068 29.0156 52.1953 28.6192 51.5723C28.4115 51.2419 28.2652 50.7746 28.1802 50.1704C27.661 50.8501 26.9152 51.4401 25.9429 51.9404C24.9705 52.4408 23.8991 52.6909 22.7285 52.6909C21.3219 52.6909 20.1702 52.2661 19.2734 51.4165C18.3861 50.5575 17.9424 49.486 17.9424 48.2021C17.9424 46.7956 18.3813 45.7052 19.2593 44.9312C20.1372 44.1571 21.2889 43.6803 22.7144 43.501L26.7783 42.9912Z" fill="white"/>
<path d="M33.8643 37.0156H36.2857V39.6353C36.4839 39.1255 36.9701 38.5072 37.7442 37.7803C38.5183 37.044 39.4104 36.6758 40.4204 36.6758C40.4676 36.6758 40.5479 36.6805 40.6612 36.6899C40.7744 36.6994 40.968 36.7183 41.2417 36.7466V39.437C41.0907 39.4087 40.9491 39.3898 40.8169 39.3804C40.6942 39.3709 40.5573 39.3662 40.4063 39.3662C39.1224 39.3662 38.1359 39.7816 37.4468 40.6123C36.7577 41.4336 36.4131 42.3823 36.4131 43.4585V52.1812H33.8643V37.0156Z" fill="white"/>
<path d="M48.2989 36.5767C50.0075 36.5767 51.3952 36.992 52.4619 37.8228C53.5381 38.6535 54.1848 40.0837 54.4019 42.1133H51.9239C51.7728 41.1787 51.4283 40.4046 50.8902 39.791C50.3521 39.168 49.4883 38.8565 48.2989 38.8565C46.6752 38.8565 45.514 39.6494 44.8155 41.2354C44.3623 42.2643 44.1358 43.534 44.1358 45.0444C44.1358 46.5643 44.4567 47.8434 45.0987 48.8818C45.7406 49.9202 46.7507 50.4395 48.1289 50.4395C49.1862 50.4395 50.0217 50.1185 50.6353 49.4766C51.2583 48.8252 51.6879 47.9378 51.9239 46.8145H54.4019C54.1187 48.8252 53.4107 50.2979 52.2779 51.2324C51.1451 52.1576 49.696 52.6201 47.9307 52.6201C45.9483 52.6201 44.3671 51.8979 43.187 50.4536C42.007 48.9998 41.417 47.1873 41.417 45.0161C41.417 42.354 42.0637 40.2819 43.357 38.7998C44.6503 37.3177 46.2976 36.5767 48.2989 36.5767Z" fill="white"/>
<path d="M55.9502 31.3091H58.499V39.0688C59.1032 38.3042 59.646 37.7661 60.1275 37.4546C60.9488 36.9165 61.973 36.6475 63.2002 36.6475C65.3998 36.6475 66.8913 37.4168 67.6748 38.9556C68.0996 39.7957 68.312 40.9616 68.312 42.4531V52.1812H65.6924V42.623C65.6924 41.5091 65.5508 40.6925 65.2676 40.1733C64.805 39.3426 63.9365 38.9272 62.6621 38.9272C61.6048 38.9272 60.6467 39.2907 59.7876 40.0176C58.9286 40.7445 58.499 42.118 58.499 44.1382V52.1812H55.9502V31.3091Z" fill="white"/>
<path d="M69.96 50.1704L78.9517 39.2954H70.6255V37.0156H82.3784V39.0972L73.4434 49.9014H82.6475V52.1812H69.96V50.1704Z" fill="white"/>
<path d="M84.5928 37.0864H87.1841V52.1812H84.5928V37.0864Z" fill="white"/>
<path d="M90.1211 31.3799H92.67V52.1812H90.1211V31.3799Z" fill="white"/>
<path d="M95.5781 31.3799H98.1269V52.1812H95.5781V31.3799Z" fill="white"/>
<path d="M102.918 48.1455C102.918 48.8818 103.187 49.4624 103.725 49.8872C104.263 50.312 104.9 50.5244 105.637 50.5244C106.534 50.5244 107.402 50.3167 108.242 49.9014C109.658 49.2122 110.366 48.0841 110.366 46.5171V44.4639C110.055 44.6621 109.653 44.8273 109.163 44.9595C108.672 45.0916 108.19 45.186 107.718 45.2427L106.175 45.4409C105.25 45.5636 104.556 45.7572 104.093 46.0215C103.31 46.4652 102.918 47.1732 102.918 48.1455ZM109.092 42.9912C109.677 42.9157 110.069 42.6702 110.267 42.2549C110.38 42.0283 110.437 41.7026 110.437 41.2778C110.437 40.4093 110.125 39.7816 109.502 39.3945C108.889 38.9981 108.006 38.7998 106.854 38.7998C105.523 38.7998 104.579 39.1585 104.022 39.876C103.711 40.2725 103.508 40.8625 103.414 41.646H101.035C101.082 39.7769 101.686 38.4788 102.847 37.752C104.018 37.0156 105.372 36.6475 106.911 36.6475C108.695 36.6475 110.144 36.9873 111.258 37.667C112.363 38.3467 112.915 39.404 112.915 40.8389V49.5757C112.915 49.84 112.967 50.0524 113.071 50.2129C113.184 50.3734 113.415 50.4536 113.765 50.4536C113.878 50.4536 114.005 50.4489 114.147 50.4395C114.289 50.4206 114.44 50.397 114.6 50.3687V52.252C114.204 52.3652 113.901 52.436 113.694 52.4644C113.486 52.4927 113.203 52.5068 112.844 52.5068C111.966 52.5068 111.329 52.1953 110.933 51.5723C110.725 51.2419 110.579 50.7746 110.494 50.1704C109.974 50.8501 109.229 51.4401 108.256 51.9404C107.284 52.4408 106.213 52.6909 105.042 52.6909C103.635 52.6909 102.484 52.2661 101.587 51.4165C100.7 50.5575 100.256 49.486 100.256 48.2021C100.256 46.7956 100.695 45.7052 101.573 44.9312C102.451 44.1571 103.602 43.6803 105.028 43.501L109.092 42.9912Z" fill="white"/>
<path d="M116.911 32.6851H118.188V31.9351H114.685V32.6851H116.011V36.3091H116.911V32.6851ZM119.552 32.9011L120.338 36.3091H121.238L122.012 32.9011V36.3091H122.912V31.9351H121.556L120.788 35.4151L119.996 31.9351H118.652V36.3091H119.552V32.9011Z" fill="white"/>
</g>
</svg>
