<svg width="140" height="84" viewBox="0 0 140 84" fill="none" xmlns="http://www.w3.org/2000/svg">
<mask id="mask0_1945_47" style="mask-type:alpha" maskUnits="userSpaceOnUse" x="0" y="0" width="140" height="84">
<rect width="140" height="84" fill="white"/>
</mask>
<g mask="url(#mask0_1945_47)">
<path d="M69.4818 43.9663H62.5934V36.4159H57.6623V54.662H62.5934V46.2468H69.4818V54.662H74.4129V36.4159H69.4818V43.9663ZM30.7853 36.4169V50.0819C30.7853 51.9325 29.2924 53.1573 27.4506 53.1573C25.6089 53.1573 24.1158 51.9325 24.1158 50.0819L24.1239 36.4169H19.1897V49.3741C19.1897 53.9581 22.8883 55 27.4506 55C32.0129 55 35.7114 53.9579 35.7114 49.3741L35.7086 36.4169H30.7853ZM85.2926 36.0781C80.7305 36.0781 77.0316 37.1202 77.0316 41.7042V54.6614H81.9659L81.9579 40.9964C81.9579 39.146 83.4508 37.921 85.2926 37.921C87.1344 37.921 88.6273 39.146 88.6273 40.9964V54.6614H93.5506L93.5536 41.7042C93.5534 37.1202 89.8549 36.0781 85.2926 36.0781ZM117.644 50.1157V36.4159H112.713V50.1129C112.713 52.6147 114.732 54.6626 117.222 54.6626H125.913L125.918 52.3805H119.879C118.529 52.3807 117.644 51.3665 117.644 50.1157ZM133.961 52.3807C132.611 52.3807 131.726 51.3665 131.726 50.1157V36.4159H126.795V50.1129C126.795 52.6147 128.813 54.6626 131.304 54.6626H139.995L140 52.3805L133.961 52.3807ZM110.585 46.2468L110.578 43.9661H100.97V40.9625C100.97 39.7116 101.855 38.6976 103.204 38.6976H110.574L110.569 36.4156H100.547C98.0568 36.4156 96.0384 38.4634 96.0384 41.0046V50.1129C96.0384 52.6147 98.0568 54.6626 100.547 54.6626H110.569L110.574 52.3805H103.204C101.855 52.3805 100.97 51.3663 100.97 50.1155V46.2468H110.585ZM13.3068 44.91C16.3205 44.0448 16.9858 42.3538 16.9858 40.6237C16.9858 37.5171 13.6982 36.4161 10.7238 36.4161H0V54.6622H10.0974C14.3634 54.6622 17.6118 52.9714 17.6118 49.6682C17.6118 46.3651 15.342 45.4998 13.3068 44.91ZM4.93132 38.4608H8.64944C10.5671 38.4608 11.5064 39.326 11.5064 40.8203C11.5064 43.8482 9.00151 44.1235 8.02326 44.1235H4.93132V38.4608ZM8.76674 52.6173H4.93132V46.2862H8.6886C10.9586 46.2862 12.1718 47.3086 12.1718 49.55C12.1718 51.9882 10.2541 52.6173 8.76674 52.6173ZM47.3114 43.9659C44.924 43.73 43.0846 42.4715 43.0764 40.9184C43.0764 39.0679 44.5695 37.8429 46.4111 37.8429C48.5246 37.8429 49.6987 38.7359 49.8633 41.3509L54.9416 41.3705C55.0656 37.0033 51.2397 36 46.7634 36C42.2011 36 38.1139 37.3595 38.1503 41.6261C38.1531 45.4207 42.0277 46.3647 43.0844 46.4827C49.5812 47.0332 50.1373 48.252 50.1373 50.0808C50.1373 51.9312 48.6442 53.1168 46.8024 53.1168C44.9607 53.1168 43.3112 51.9312 43.3112 50.0808L43.3192 49.0387H38.0328V49.373C38.0328 53.957 41.8488 54.9989 46.4111 54.9989C50.9734 54.9989 55.4128 53.8755 55.3737 49.7072C55.3231 44.3202 49.6987 44.2018 47.3114 43.9659Z" fill="white"/>
</g>
</svg>
