<svg width="140" height="84" viewBox="0 0 140 84" fill="none" xmlns="http://www.w3.org/2000/svg">
<mask id="mask0_1945_17" style="mask-type:alpha" maskUnits="userSpaceOnUse" x="0" y="0" width="140" height="84">
<rect width="140" height="84" fill="white"/>
</mask>
<g mask="url(#mask0_1945_17)">
<path d="M101.569 31.7125V45.1732C101.333 45.1732 101.067 45.1732 100.83 45.1732C100.771 45.1126 100.712 45.052 100.682 44.9913L90.6282 31.7428H85.749V34.6532C87.4345 36.6238 88.2922 39.0795 88.2922 41.8687C88.2922 44.9913 87.4345 47.6895 85.749 49.842V52.7524H90.3621V39.2311C90.5986 39.2311 90.8648 39.2311 91.1013 39.2311C91.1605 39.2917 91.2197 39.3523 91.2788 39.4433L101.333 52.7222H106.212V31.7125H101.569Z" fill="white"/>
<path d="M69.5736 52.2371L69.278 51.4792L64.8128 39.322L64.517 38.5338L64.2805 37.8062L62.0331 31.7125H56.592L50.3525 48.3868L53.6941 52.5402L55.1135 48.8719H63.4525L64.8423 52.6918H69.7806L69.5736 52.2371ZM56.2963 45.5067L58.9281 37.5333C59.1647 37.5333 59.4308 37.5333 59.6674 37.5333L59.7857 37.8668L62.2401 45.5067H56.2963Z" fill="white"/>
<path d="M85.789 36.1842C85.6116 35.9417 85.4342 35.6991 85.4342 35.6991C85.1977 35.396 84.8428 34.9715 84.3696 34.4561C84.3696 34.4561 84.1331 34.2136 83.9261 34.0317C82.0631 32.3946 79.8157 31.6063 79.8157 31.6063C78.7511 31.2425 77.6275 31.0606 76.4742 31L76.0011 31C73.044 31 70.3826 32.0308 68.0464 34.062C66.8045 35.1534 65.9173 36.4267 65.3555 37.8516L70.6487 52.2825C72.2159 53.0707 73.9902 53.4649 75.9715 53.4649C78.278 53.4649 80.2889 52.9495 82.0336 51.8883C83.1572 51.1911 83.9557 50.4331 84.1627 50.2209C84.3696 50.0087 85.1089 49.2508 85.7595 48.0987C87.3859 45.3399 87.3563 42.4901 87.3563 41.8535C87.3859 38.5792 85.9369 36.3964 85.789 36.1842ZM80.6141 46.8558C79.3426 48.1897 77.7753 48.887 76.0011 48.887C74.2268 48.887 72.6595 48.22 71.388 46.8861C70.1164 45.5521 69.4659 43.8544 69.4659 41.8535C69.4659 40.2163 70.1164 38.7309 71.388 37.4575C72.6595 36.1842 74.2268 35.5475 76.0011 35.5475C77.8049 35.5475 79.3426 36.1842 80.6141 37.4575C81.9152 38.7309 82.5363 40.1861 82.5363 41.8535C82.5363 43.8241 81.8857 45.5521 80.6141 46.8558Z" fill="white"/>
<path d="M52.5705 52.7222H46.5972L39.5298 43.3542C39.5002 43.2935 39.4411 43.2329 39.4115 43.1723C39.1453 43.1723 38.8792 43.1723 38.6426 43.1723V52.6918H34V31.7125H38.6131V40.2922C38.6131 40.4437 38.6131 40.6257 38.6131 40.7773C38.8792 40.7773 39.1158 40.7773 39.3819 40.7773L46.1241 31.7125H51.8017L43.6697 41.6261L49.2586 48.5687L49.6134 48.9628L49.9683 49.4176L52.5705 52.7222Z" fill="white"/>
</g>
</svg>
