<svg width="140" height="84" viewBox="0 0 140 84" fill="none" xmlns="http://www.w3.org/2000/svg">
<mask id="mask0_1945_42" style="mask-type:alpha" maskUnits="userSpaceOnUse" x="0" y="0" width="140" height="84">
<rect width="140" height="84" fill="white"/>
</mask>
<g mask="url(#mask0_1945_42)">
<path fill-rule="evenodd" clip-rule="evenodd" d="M100.479 34.7263C100.637 33.6765 100.479 32.259 100.27 31.7343H105.991L103.735 47.061H107.829C109.088 47.061 110.349 46.5369 110.873 46.3257L110.191 50.8932H98.1706L100.479 34.7263ZM73.9205 43.7024L75.18 34.7263C75.338 33.6765 75.18 32.259 74.9703 31.7343H80.6915L78.802 44.5937C78.015 49.3699 74.708 51.1029 69.512 51.1029C63.3705 51.1029 61.6911 47.1659 62.3211 43.0719L63.5285 34.7263C63.686 33.6765 63.5285 32.259 63.3183 31.7343H69.0395L67.2548 43.9637C66.9925 45.8015 67.6746 47.2707 69.8791 47.2707C72.0826 47.2712 73.606 46.274 73.9205 43.7024ZM30.5637 47.061H35.6027C36.8622 47.061 38.1222 46.5369 38.6469 46.3257L37.9647 50.8932H25L27.362 34.7263C27.5195 33.6765 27.3093 32.259 27.0997 31.7343H39.8547L39.1726 36.3008C38.6479 35.9337 37.5454 35.566 36.4434 35.566H32.244L31.7194 39.188H37.598L36.968 43.282C36.4955 42.9675 36.023 42.7047 35.2882 42.7047H31.2464L30.5637 47.061ZM39.487 40.3427C39.959 37.141 43.3187 31.157 51.0874 31.3145C58.8561 31.472 61.4278 36.826 61.1654 41.2877C61.0606 44.069 59.6431 46.3262 58.0159 47.9544C58.6981 49.0042 60.1678 51.3131 62.5824 52.4161C61.2703 53.9384 56.4936 53.2031 53.9746 49.8961C51.4551 46.589 48.6732 42.8627 47.4132 43.2304C48.0954 42.1279 52.2948 41.2355 55.0244 44.385C55.7066 43.7029 56.1791 42.2859 56.2318 41.0259C56.2844 39.7664 55.4969 35.6197 50.8256 35.567C46.1537 35.5144 44.6063 39.4565 44.4744 41.1307C44.3169 43.1255 44.8421 47.6921 50.8783 47.3244L53.4504 50.6841C51.7706 51.2604 50.0908 51.3402 48.7786 51.3662C46.1011 51.4179 38.3324 48.5834 39.487 40.3427ZM92.0822 42.7047C91.5039 46.3262 89.5622 47.219 87.6195 47.3239C85.6778 47.4287 84.7328 45.9585 85.3102 44.1217C85.8875 42.2849 91.2937 41.4974 92.3435 41.2877L92.0822 42.7047ZM95.966 50.8937L97.9077 37.6657C98.8527 31.3672 93.4992 31 90.9792 31C88.4592 31 85.258 31.315 83.5782 31.9445L82.896 36.826C85.415 35.409 88.0915 35.0413 90.1922 35.0413C92.2914 35.0413 93.1315 35.9337 92.9735 36.511C92.8155 37.0883 92.6059 37.456 91.4512 37.928C90.2965 38.4 86.9895 38.873 85.7822 39.1353C84.5748 39.3977 80.5335 40.2379 80.1131 44.9619C79.6938 49.6859 82.6848 51.1034 85.3628 51.1034C88.0393 51.1034 89.8762 50.4734 91.1889 49.2655L90.926 50.8937H95.966ZM113.107 48.094C113.897 48.094 114.522 48.7184 114.522 49.5453C114.522 50.3865 113.897 51.0047 113.107 51.0047C112.308 51.0047 111.684 50.3865 111.684 49.5453C111.684 48.7184 112.308 48.094 113.107 48.094V47.8035C112.146 47.8035 111.333 48.5425 111.333 49.5453C111.333 50.5572 112.146 51.2962 113.107 51.2962C114.059 51.2962 114.872 50.5572 114.872 49.5453C114.872 48.5425 114.059 47.8035 113.107 47.8035V48.094Z" fill="white"/>
<path fill-rule="evenodd" clip-rule="evenodd" d="M112.738 48.8012H113.153C113.366 48.8012 113.592 48.8472 113.592 49.0968C113.592 49.4062 113.361 49.4246 113.102 49.4246H112.737V49.6843H113.089L113.621 50.5572H113.962L113.389 49.6705C113.684 49.6337 113.911 49.4757 113.911 49.1162C113.911 48.7189 113.675 48.543 113.2 48.543H112.433V50.5572H112.737V48.8012H112.738Z" fill="white"/>
</g>
</svg>
