<svg width="140" height="84" viewBox="0 0 140 84" fill="none" xmlns="http://www.w3.org/2000/svg">
<mask id="mask0_1945_32" style="mask-type:alpha" maskUnits="userSpaceOnUse" x="0" y="0" width="140" height="84">
<rect width="140" height="84" fill="white"/>
</mask>
<g mask="url(#mask0_1945_32)">
<path fill-rule="evenodd" clip-rule="evenodd" d="M109.798 49.7236L109.883 49.0439L110.987 43.6097H110.648C110.308 43.6097 110.053 43.4401 109.798 43.1853C109.543 42.9315 109.373 42.6761 109.373 42.336L109.458 41.9969C109.543 41.5725 109.798 41.2329 110.138 40.9781C110.563 40.6385 110.903 40.4684 111.328 40.4684H111.668L112.007 38.8552C112.092 38.4308 112.347 38.0059 112.772 37.6663C113.197 37.3267 113.622 37.1571 114.048 37.1571C114.472 37.1571 114.728 37.3272 114.982 37.5815C115.237 37.8358 115.408 38.0907 115.408 38.5156L115.322 38.8552L114.982 40.4684H119.063C118.892 41.3177 118.467 42.0817 117.703 42.6766C116.938 43.2711 116.173 43.6102 115.323 43.6102L114.558 43.865L114.133 44.5447L112.433 52.3562C111.668 52.3562 110.988 52.1014 110.478 51.5922C110.053 51.1668 109.798 50.4871 109.798 49.7236ZM104.018 52.3552C103.593 52.3552 103.337 52.2709 103.083 52.0161C102.828 51.7613 102.658 51.4216 102.658 51.0815L102.744 50.7424L105.973 35.5433C106.739 35.5433 107.418 35.7982 107.843 36.3073C108.353 36.7317 108.608 37.4114 108.608 38.1754L108.524 38.8552L106.058 50.7424C105.973 51.1668 105.718 51.5917 105.293 51.9308C104.867 52.1856 104.443 52.3552 104.018 52.3552ZM100.788 49.0439L101.893 43.7802L101.977 43.1005C101.977 42.3355 101.724 41.7416 101.212 41.2324C100.703 40.7233 100.023 40.4679 99.258 40.4679H91.6936C90.7579 40.4679 89.9076 40.8075 89.1431 41.4867C88.3781 42.0812 87.9537 42.8451 87.6989 43.7797L86.5937 49.0434L86.5084 49.7231C86.5084 50.4871 86.7633 51.1663 87.2735 51.5912C87.7831 52.1003 88.3786 52.3552 89.1437 52.3552H96.7934C97.729 52.3552 98.5783 52.0161 99.3428 51.4217C100.109 50.7424 100.533 49.9785 100.788 49.0439ZM97.2178 48.9586C96.9629 49.1292 96.7081 49.2134 96.4527 49.2134H90.8438C90.2483 49.2134 89.9934 48.9586 89.9934 48.4494L90.0787 48.2799L90.8438 44.5437L91.2681 43.864L92.0332 43.6091H97.6432C98.2387 43.6091 98.4935 43.864 98.4935 44.3731L98.4082 44.5437L97.6432 48.2799C97.5579 48.5347 97.4726 48.789 97.2178 48.9586ZM87.1039 40.638L81.834 49.7236C81.3918 50.5045 80.7453 51.1503 79.9639 51.5917C79.1135 52.1009 78.2632 52.3557 77.4145 52.3557C76.4789 52.3557 75.7138 52.1009 75.1189 51.5917C74.8146 51.3746 74.5591 51.0962 74.3688 50.7745C74.1784 50.4528 74.0575 50.0948 74.0137 49.7236L72.5695 40.638L73.7589 40.4679C74.4397 40.4679 75.0346 40.638 75.4595 41.0623C75.9692 41.4867 76.3098 41.9964 76.3951 42.5903L77.415 48.619C77.4992 49.0434 77.6698 49.2134 78.0094 49.2134C78.4348 49.2134 78.6902 49.0439 78.945 48.619L82.5143 42.5903C82.9361 41.9995 83.4534 41.4832 84.0449 41.0623C84.6393 40.638 85.3196 40.4679 85.9993 40.4679L87.1039 40.638ZM62.2034 39.1563C64.9478 39.1563 66.8908 41.6053 66.8908 44.9135C66.8908 48.1041 64.9478 50.8402 62.2034 50.8402C59.4299 50.8402 57.4593 48.3028 57.4593 44.8573C57.4593 41.6927 59.4293 39.1563 62.2034 39.1563ZM62.1753 37.0942C56.4327 37.0942 52.8941 40.4955 52.8941 45.0274C52.8941 49.7018 56.0889 53.0001 62.0906 53.0001C68.2347 53.0001 71.3312 49.644 71.3312 45.0549C71.3312 40.4112 67.6647 37.0942 62.1753 37.0942ZM57.5992 32.8707C57.3198 32.8707 57.0518 32.9817 56.8542 33.1793C56.6566 33.3769 56.5455 33.6449 56.5455 33.9244C56.5455 34.2038 56.6566 34.4718 56.8542 34.6694C57.0518 34.867 57.3198 34.978 57.5992 34.978H66.3759C66.9584 34.978 67.4291 34.5068 67.4291 33.9249C67.4293 33.7865 67.4022 33.6494 67.3494 33.5215C67.2965 33.3935 67.219 33.2773 67.1212 33.1794C67.0233 33.0814 66.9072 33.0038 66.7793 32.9508C66.6514 32.8979 66.5144 32.8706 66.3759 32.8707H57.5992ZM32.5926 33.8952C35.7307 33.8952 38.1288 35.8075 38.1288 38.7163C38.1288 41.6843 35.8743 43.8796 32.5926 43.8796C29.1144 43.8796 27.2333 41.6838 27.2333 38.7163C27.2333 35.7483 29.5403 33.8952 32.5926 33.8952ZM42.5395 38.8307C42.5229 33.3148 37.9634 31.0796 33.6957 31.0021C31.1354 30.9558 28.6801 31.686 27.3742 32.9508C26.9748 31.8357 26.0075 31.0322 24.5851 31.0322C23.0508 31.0322 21.7637 32.1223 21.7637 33.3804C21.7637 34.4059 22.5656 35.0618 22.9057 35.2921V52.4748H27.2296V44.7653L36.3324 52.4748H42.3668L35.1384 46.3333C38.2177 46.105 42.5665 43.7922 42.5395 38.8307ZM45.6839 52.4743V41.2782C45.5726 41.1346 44.5995 40.5085 44.5995 39.3648C44.5995 38.138 45.8269 37.0547 47.3564 37.0547C48.7991 37.0547 50.0987 38.0802 50.0987 39.3648V52.4743H45.6839ZM50.184 33.3232C50.184 34.5739 48.9655 35.6016 47.4672 35.6016C45.9652 35.6016 44.741 34.5739 44.741 33.3232C44.741 32.0693 45.9652 31.0463 47.4672 31.0463C48.9655 31.0458 50.184 32.0693 50.184 33.3232Z" fill="white"/>
</g>
</svg>
