<svg width="140" height="84" viewBox="0 0 140 84" fill="none" xmlns="http://www.w3.org/2000/svg">
<mask id="mask0_1945_7" style="mask-type:alpha" maskUnits="userSpaceOnUse" x="0" y="0" width="140" height="84">
<rect width="140" height="84" fill="white"/>
</mask>
<g mask="url(#mask0_1945_7)">
<path d="M59.4358 47.8567C59.5778 45.0477 60.7853 42.5197 62.9163 40.6236C64.9051 38.8679 67.3913 37.8848 70.0195 37.8848C70.1615 37.8848 70.3746 37.8848 70.5166 37.8848C76.3413 38.1657 80.8163 43.0814 80.5321 48.8399C80.4611 49.5422 80.3901 50.2444 80.177 50.9467C81.3135 50.3849 82.3079 49.4719 83.3734 48.7697C83.9416 48.3483 84.5809 48.2781 85.0781 48.4888C85.1491 40.4831 78.8273 33.7416 70.6587 33.3904C66.61 33.1797 62.7032 34.5842 59.7199 37.2528C56.7365 39.9213 54.9608 43.6432 54.7476 47.6461C54.6056 50.9467 55.529 54.1067 57.3758 56.7753C57.5889 56.7051 57.802 56.6349 58.0151 56.6349C59.5778 56.5646 61.0695 56.2837 62.5611 55.7922C60.5012 53.7556 59.2937 50.9466 59.4358 47.8567Z" fill="white"/>
<path d="M74.8909 39.0857C78.2345 40.8372 80.4398 44.2001 80.5109 48.1234C78.4479 49.4546 75.2467 51.2061 70.9784 52.327C66.7812 53.3779 63.1531 53.3779 60.7344 53.2377C59.8096 51.6264 59.3116 49.8049 59.3828 47.7731C59.4539 45.7414 60.1653 43.8497 61.3747 42.2384C52.9803 45.1809 47.2893 49.5246 48.0718 52.8875C49.0677 57.0911 59.6674 58.2821 71.7609 55.4797C83.8544 52.6773 92.8178 47.0024 91.8219 42.7989C91.0394 39.436 83.9256 38.0348 74.8909 39.0857Z" fill="white"/>
<path d="M83.5158 33.3202C85.2811 33.3202 86.7121 31.9054 86.7121 30.1601C86.7121 28.4148 85.2811 27 83.5158 27C81.7504 27 80.3193 28.4148 80.3193 30.1601C80.3193 31.9054 81.7504 33.3202 83.5158 33.3202Z" fill="white"/>
</g>
</svg>
