<svg width="140" height="84" viewBox="0 0 140 84" fill="none" xmlns="http://www.w3.org/2000/svg">
<mask id="mask0_1945_57" style="mask-type:alpha" maskUnits="userSpaceOnUse" x="0" y="0" width="140" height="84">
<rect width="140" height="84" fill="white"/>
</mask>
<g mask="url(#mask0_1945_57)">
<path d="M104.855 31.3375C104.955 31.2268 105.053 31.1134 105.154 31.0014C106.398 30.9986 107.642 31.0014 108.887 31C108.991 31.1161 109.096 31.2309 109.202 31.3457C109.203 36.9027 109.199 42.4598 109.203 48.0168C109.191 48.4158 109.375 48.853 109.776 49.0061C110.384 49.2151 111.041 49.1045 111.672 49.1236C111.779 49.2274 111.889 49.3313 111.998 49.4351C111.991 50.4175 112.009 51.3986 111.994 52.381C111.996 52.5723 111.793 52.6803 111.697 52.8265C110.245 52.7376 108.699 53.0505 107.342 52.3974C106.168 51.8755 105.364 50.7468 105.063 49.5308C104.806 48.5907 104.858 47.6083 104.855 46.645V31.3375ZM80.4198 34.0593C80.7335 33.7013 81.2297 33.8011 81.6554 33.8011C82.5343 33.8257 83.4133 33.7915 84.2923 33.8147C84.4871 33.7956 84.6074 33.9801 84.7594 34.0675C84.7428 35.1551 84.7635 36.2414 84.747 37.3277C84.8962 37.4315 85.0206 37.6214 85.2265 37.601C86.1318 37.6119 87.037 37.6051 87.9422 37.5969C88.0528 37.6939 88.1633 37.7936 88.2753 37.892C88.267 38.858 88.2684 39.824 88.2753 40.7901C88.1772 40.8912 88.0818 40.9923 87.9864 41.0934C87.0066 41.1002 86.0267 41.0907 85.0469 41.0989C84.9487 41.1972 84.8506 41.2956 84.7539 41.394C84.7566 43.5966 84.7483 45.7992 84.7566 48.0018C84.7401 48.4554 84.9584 48.9692 85.4573 49.0594C86.2506 49.2042 87.0674 49.0963 87.8703 49.1263C87.9726 49.2356 88.0749 49.3463 88.1758 49.457C88.162 50.4722 88.1758 51.4874 88.1689 52.5026C88.0652 52.6051 87.9629 52.7089 87.8607 52.8128C86.5781 52.7827 85.2846 52.9057 84.0117 52.7199C82.6421 52.5108 81.4011 51.594 80.88 50.3151C80.3728 49.2069 80.4143 47.9704 80.4267 46.783C80.4336 44.9889 80.4143 43.1949 80.4378 41.4008C80.0273 40.8693 79.2935 41.1672 78.7213 41.1002C78.6163 40.9978 78.5112 40.8953 78.4076 40.7928C78.4131 39.8281 78.409 38.8648 78.4104 37.9002C78.5181 37.8004 78.6259 37.7021 78.7337 37.6023C79.1995 37.6051 79.6666 37.6037 80.1337 37.6037C80.2332 37.493 80.3328 37.381 80.4323 37.2689C80.4171 36.1991 80.4392 35.1292 80.4198 34.0593ZM33.9104 38.5123C34.9096 37.6583 36.2612 37.2976 37.5644 37.3113C39.0377 37.3058 40.569 37.7567 41.6345 38.8006C42.7885 39.9074 43.2819 41.5293 43.3151 43.0856C43.3206 46.1722 43.3123 49.2589 43.3192 52.3455C43.2252 52.4439 43.134 52.5423 43.0414 52.642C41.8585 52.6643 40.6753 52.6648 39.4924 52.6434C39.3017 52.6611 39.1842 52.4849 39.0363 52.4015C39.0515 49.4816 39.0405 46.5603 39.0418 43.6403C39.0405 42.8888 38.887 42.0731 38.3273 41.5238C37.8367 41.0456 37.1167 40.913 36.4519 40.9431C35.566 40.9499 34.6304 41.2601 34.0693 41.9706C33.4142 42.7822 33.2884 43.863 33.2636 44.8673C33.2622 47.3678 33.2636 49.8696 33.2636 52.3715C33.171 52.4616 33.0784 52.5532 32.9858 52.6447C31.8345 52.6502 30.6833 52.6502 29.5321 52.6611C29.311 52.6898 29.1589 52.5204 29 52.4029C29.018 47.5686 29.0083 42.7331 29.0055 37.8975C29.1161 37.7963 29.228 37.6966 29.3414 37.5969C30.4456 37.6064 31.5498 37.6132 32.6527 37.5941C33.0397 37.9016 33.1102 38.3975 33.2912 38.8252C33.5552 38.8703 33.7265 38.6558 33.9104 38.5123ZM46.3376 40.0085C47.399 38.5246 49.1431 37.5914 50.9563 37.3864C53.1427 37.0954 55.5488 37.5996 57.1547 39.1695C58.8684 40.8065 59.5014 43.255 59.4323 45.5505C59.4268 45.9345 59.5456 46.5657 59.0136 46.6368C56.056 46.6436 53.0971 46.6395 50.1382 46.6381C49.8369 46.604 49.5715 46.7215 49.3518 46.9169C49.4734 47.8187 50.0373 48.6645 50.8927 49.0348C51.8671 49.4542 53.0611 49.4679 54.0078 48.9692C54.4736 48.7355 54.6408 47.9977 55.2627 48.122C56.3324 48.1234 57.4021 48.1289 58.4732 48.122L58.8339 48.4377C58.592 49.7316 57.8858 50.9532 56.8009 51.7306C55.6096 52.6174 54.088 52.9221 52.6272 53C50.9162 53.0027 49.1376 52.6188 47.7348 51.6049C46.1164 50.4572 45.1753 48.5661 44.9086 46.645C44.5907 44.3686 44.9514 41.9023 46.3376 40.0085ZM50.6509 41.2792C49.8963 41.685 49.4969 42.5008 49.3518 43.3069C49.5107 43.4121 49.6296 43.6335 49.8465 43.613C51.4124 43.6212 52.9796 43.6144 54.5468 43.6157C54.6491 43.5215 54.7528 43.4272 54.8564 43.3343C54.7597 42.4557 54.269 41.5771 53.4274 41.2041C52.5581 40.8242 51.4939 40.8365 50.6509 41.2792ZM91.6778 38.6462C93.4551 37.3331 95.8405 37.0626 97.9688 37.508C99.8277 37.892 101.479 39.1149 102.366 40.7764C103.324 42.468 103.482 44.452 103.407 46.3512C103.303 46.4469 103.201 46.5425 103.1 46.6368C99.9562 46.6477 96.8135 46.6149 93.6707 46.6545C93.5574 46.7693 93.4441 46.8855 93.3335 47.0016C93.4911 47.7941 93.9499 48.5456 94.6824 48.9364C95.5876 49.4187 96.7153 49.4679 97.6745 49.1181C98.1955 48.9555 98.4885 48.4787 98.8547 48.1152C100.052 48.1343 101.25 48.1261 102.447 48.1193C102.57 48.2259 102.691 48.3325 102.814 48.4404C102.521 50.1019 101.398 51.5981 99.8346 52.2908C98.2218 52.9959 96.3726 53.1831 94.6478 52.8142C92.9465 52.5272 91.342 51.6213 90.3193 50.2331C88.9539 48.3912 88.5821 45.9837 88.8737 43.7578C89.1211 41.7957 90.0388 39.8391 91.6778 38.6462ZM94.7017 41.2423C93.9071 41.6331 93.4814 42.4734 93.3307 43.3042C93.4814 43.4094 93.5947 43.6226 93.8034 43.6116C95.3278 43.6212 96.8535 43.6185 98.3779 43.613C98.5908 43.628 98.7082 43.408 98.8644 43.3028C98.7082 42.5062 98.3226 41.6973 97.5777 41.2888C96.7043 40.8256 95.5904 40.8188 94.7017 41.2423ZM59.9146 37.9234C60.0238 37.8168 60.133 37.7103 60.2436 37.6037C61.1571 37.6051 62.0706 37.6023 62.9841 37.6051C64.8056 39.9716 66.6313 42.3327 68.4542 44.6979C68.4528 44.9917 68.4528 45.2854 68.4542 45.5792C66.8317 47.6848 65.2064 49.7863 63.5853 51.8919C63.3863 52.1433 63.2122 52.4165 62.9786 52.6379C62.0582 52.6898 61.135 52.6256 60.2132 52.6488C60.1137 52.5532 60.0141 52.4562 59.9146 52.3605C59.9174 51.5885 59.9036 50.8152 59.9146 50.0418C59.8856 49.8109 60.0639 49.6442 60.1841 49.4706C61.1903 48.1863 62.1756 46.8855 63.1804 45.5997C63.3117 45.3988 63.5825 45.1556 63.3531 44.9247C62.4341 43.6909 61.4777 42.483 60.5448 41.2587C60.3362 40.9704 60.0736 40.7108 59.9257 40.3843C59.8911 39.5658 59.9243 38.7432 59.9146 37.9234ZM68.9586 44.7102C70.7829 42.3382 72.6086 39.9675 74.4439 37.6037C75.3492 37.6023 76.253 37.6105 77.1582 37.5982C77.2688 37.6966 77.3794 37.7977 77.4913 37.8975C77.4802 38.7555 77.4885 39.6123 77.4844 40.4703C76.3622 41.9105 75.2579 43.3643 74.1413 44.8099C74.0961 44.8521 74.0602 44.9029 74.0355 44.9592C74.0109 45.0155 73.9982 45.0762 73.998 45.1376C73.9979 45.1989 74.0104 45.2597 74.0348 45.3161C74.0592 45.3725 74.0949 45.4235 74.1399 45.4658C75.2552 46.9114 76.3677 48.3598 77.4858 49.8027C77.4858 50.6621 77.483 51.5216 77.4885 52.3824C77.3987 52.4698 77.3103 52.5586 77.2204 52.6475C76.2958 52.6256 75.3685 52.6939 74.4467 52.6379C74.2283 52.4466 74.0735 52.2007 73.8953 51.9752C72.2548 49.8355 70.5977 47.7067 68.9573 45.5655C68.96 45.28 68.96 44.9958 68.9586 44.7102Z" fill="white"/>
</g>
</svg>
