<svg width="40" height="40" viewBox="0 0 40 40" fill="none" xmlns="http://www.w3.org/2000/svg">
<mask id="mask0_1362_55" style="mask-type:alpha" maskUnits="userSpaceOnUse" x="0" y="0" width="40" height="40">
<rect width="40" height="40" fill="#D9D9D9"/>
</mask>
<g mask="url(#mask0_1362_55)">
<path d="M31.8821 1.01369L31.8842 1.01453C37.3351 3.17268 38.7559 9.02707 38.9432 9.7986L38.9456 9.8084C38.9458 9.80919 38.946 9.80998 38.9461 9.81077C39.6589 12.8717 39.9968 16.2886 39.9967 20.0218L39.9968 20.0275C40.0389 23.7093 39.6596 27.1259 38.9456 30.1914L38.9417 30.208L38.939 30.2249L38.9389 30.2251C38.9387 30.2266 38.9373 30.2343 38.9342 30.2497C38.9309 30.2663 38.9262 30.289 38.9199 30.3177C38.9074 30.3749 38.889 30.4541 38.8638 30.5529C38.8135 30.7504 38.7368 31.0245 38.6273 31.3551C38.4082 32.0169 38.0596 32.9004 37.5325 33.8466C36.4773 35.7407 34.7235 37.859 31.8856 38.9847C30.2062 39.6369 27.8683 40.0257 25.6125 40.2488C23.366 40.4711 21.244 40.5254 20.0213 40.5254C18.7965 40.5254 16.6746 40.4819 14.4291 40.2652C12.1728 40.0475 9.83707 39.6586 8.16059 38.9861L8.15871 38.9853C5.31995 37.8598 3.5547 35.7302 2.4883 33.8238C1.95578 32.8718 1.60176 31.9826 1.3787 31.3165C1.26727 30.9838 1.1889 30.7079 1.13749 30.5091C1.11179 30.4097 1.09293 30.33 1.08011 30.2726C1.07369 30.2439 1.06889 30.2211 1.06555 30.2046C1.06269 30.1905 1.06137 30.1832 1.06105 30.1814C1.06096 30.181 1.06094 30.1809 1.06099 30.1812L1.05826 30.1643L1.05438 30.1476C0.341209 27.0854 0.00319278 23.6679 0.00319278 19.978H0.00322539L0.00316012 19.9723C-0.0388596 16.2943 0.339607 12.881 1.05213 9.81804C1.05829 9.79569 1.06626 9.76528 1.0762 9.72734C1.32434 8.78011 2.80204 3.1392 8.15712 1.01507C9.83646 0.36282 12.1744 -0.0259005 14.4302 -0.249086C16.6766 -0.471337 18.7987 -0.525635 20.0213 -0.525635C21.2462 -0.525635 23.3681 -0.482177 25.6136 -0.26546C27.8699 -0.0477018 30.2056 0.341133 31.8821 1.01369ZM38.3149 20.022C38.3575 16.4536 38.0156 13.1846 37.3282 10.2593C37.3268 10.2506 37.3253 10.2423 37.324 10.2352C37.3223 10.2261 37.3203 10.2163 37.3181 10.2058C37.3156 10.1936 37.3128 10.1806 37.3098 10.1669C37.2983 10.1154 37.2817 10.0464 37.2596 9.96221C37.2153 9.79363 37.1477 9.55988 37.0524 9.2782C36.862 8.71543 36.5594 7.95552 36.1085 7.13936C35.2096 5.51245 33.6977 3.62121 31.2725 2.66597L31.2725 2.66594L31.2681 2.66425C29.0091 1.79909 24.8044 1.27454 19.9834 1.2308V1.23072L19.9742 1.2308C15.1977 1.27487 10.9479 1.79869 8.72907 2.66545L8.72777 2.66597C6.30268 3.62117 4.79091 5.51229 3.89215 7.13328C3.44124 7.94652 3.13868 8.70205 2.94842 9.25817C2.85318 9.53656 2.78565 9.76623 2.74149 9.92979C2.71943 10.0115 2.70303 10.0773 2.69182 10.1251C2.68626 10.1488 2.6817 10.1692 2.67826 10.1856C2.67679 10.1926 2.67517 10.2006 2.67366 10.2087C1.98515 13.1358 1.64271 16.4509 1.68506 19.9779C1.64245 23.5486 1.98489 26.82 2.67364 29.7469C2.67511 29.7548 2.67668 29.7626 2.67812 29.7695C2.68154 29.7859 2.68608 29.8064 2.69163 29.8303C2.70281 29.8783 2.71919 29.9445 2.74124 30.0268C2.78536 30.1915 2.85285 30.4228 2.94804 30.7032C3.1382 31.2633 3.44064 32.0242 3.89139 32.8429C4.78968 34.4745 6.30133 36.3778 8.72742 37.3336L8.73188 37.3354C10.9909 38.2005 15.1956 38.7251 20.0166 38.7688V38.7689L20.0257 38.7688C24.8022 38.7247 29.0521 38.2009 31.2709 37.3342L31.2722 37.3336C33.6973 36.3784 35.2091 34.4873 36.1078 32.8663C36.5587 32.0531 36.8613 31.2976 37.0515 30.7414C37.1468 30.463 37.2143 30.2334 37.2585 30.0698C37.2805 29.9881 37.2969 29.9223 37.3081 29.8745C37.3105 29.8645 37.3127 29.855 37.3147 29.8462C37.3174 29.8343 37.3197 29.8235 37.3217 29.814C37.3232 29.807 37.3248 29.799 37.3263 29.7909C38.0148 26.8639 38.3572 23.5489 38.3149 20.022Z" fill="white" stroke="#191919"/>
<path d="M28.152 13.2205H11.8057C11.3192 13.2205 10.8584 12.7914 10.8584 12.2326C10.8584 11.6642 11.2858 11.2449 11.8056 11.2449C11.8056 11.2449 11.8057 11.2449 11.8057 11.2449L28.152 11.2452C28.6718 11.2452 29.0993 11.6645 29.0993 12.2329C29.0993 12.8012 28.6718 13.2205 28.152 13.2205Z" fill="white" stroke="#191919"/>
<path d="M29.0993 19.8903V19.8905C29.0993 20.4589 28.6718 20.8782 28.152 20.8782H11.8057C11.2858 20.8782 10.8584 20.4589 10.8584 19.8905C10.8584 19.3221 11.2858 18.9028 11.8057 18.9028H28.1946H28.1947C28.6626 18.9028 29.0995 19.3125 29.0993 19.8903Z" fill="white" stroke="#191919"/>
<path d="M29.0999 27.741L29.0993 27.7539V27.7667C29.0993 28.3351 28.6718 28.7544 28.152 28.7544H11.8057C11.2858 28.7544 10.8584 28.3351 10.8584 27.7667C10.8584 27.1984 11.2858 26.7791 11.8057 26.7791H28.1946H28.1947C28.6864 26.7791 29.1274 27.2071 29.0999 27.741Z" fill="white" stroke="#191919"/>
</g>
</svg>
