<svg width="99" height="25" viewBox="0 0 99 25" fill="none" xmlns="http://www.w3.org/2000/svg">
<path d="M26.0214 8.79321L36.0364 8.79321V10.6967L32.0931 10.6967V21.4272H29.9317V10.6967H26.0049L26.0214 8.79321ZM35.6074 12.2802H37.4553V14.049H37.4883C37.5543 13.7963 37.6698 13.5604 37.8348 13.3246C37.9998 13.0888 38.1978 12.8698 38.4453 12.6845C38.6762 12.4823 38.9402 12.3307 39.2372 12.2128C39.5177 12.0949 39.8147 12.0275 40.1117 12.0275C40.3427 12.0275 40.5076 12.0444 40.5901 12.0444C40.6726 12.0612 40.7716 12.0781 40.8541 12.0781V14.0153C40.7221 13.9816 40.5736 13.9647 40.4252 13.9479C40.2767 13.931 40.1447 13.9142 39.9962 13.9142C39.6662 13.9142 39.3527 13.9816 39.0557 14.1163C38.7587 14.2511 38.5112 14.4532 38.2803 14.7059C38.0658 14.9754 37.8843 15.2955 37.7523 15.683C37.6203 16.0704 37.5543 16.5252 37.5543 17.0306V21.3767H35.5744L35.6074 12.2802ZM49.9287 21.4272H47.9818V20.147H47.9488C47.7013 20.6186 47.3383 20.9724 46.8598 21.2588C46.3813 21.5451 45.8864 21.6799 45.3914 21.6799C44.22 21.6799 43.362 21.3935 42.834 20.7871C42.3061 20.1975 42.0421 19.2878 42.0421 18.0918V12.2802H44.022V17.8897C44.022 18.6983 44.1705 19.271 44.4839 19.5911C44.7809 19.928 45.2099 20.0964 45.7544 20.0964C46.1669 20.0964 46.5133 20.029 46.7938 19.8943C47.0743 19.7595 47.3053 19.5911 47.4703 19.3721C47.6518 19.1531 47.7673 18.8836 47.8498 18.5803C47.9323 18.2771 47.9653 17.9402 47.9653 17.5865V12.2802H49.9452V21.4272H49.9287ZM53.2945 18.4961C53.3605 19.0857 53.575 19.49 53.9545 19.7427C54.3339 19.9785 54.7959 20.0964 55.3239 20.0964C55.5054 20.0964 55.7199 20.0796 55.9509 20.0459C56.1819 20.0122 56.4128 19.9617 56.6108 19.8774C56.8253 19.7932 56.9903 19.6753 57.1223 19.5068C57.2543 19.3384 57.3203 19.1362 57.3038 18.8836C57.2873 18.6309 57.2048 18.4119 57.0233 18.2434C56.8418 18.075 56.6273 17.9571 56.3633 17.8392C56.0994 17.7381 55.7859 17.6539 55.4394 17.5865C55.0929 17.5191 54.7464 17.4349 54.3834 17.3506C54.0205 17.2664 53.6575 17.1653 53.311 17.0474C52.9645 16.9295 52.6675 16.7779 52.387 16.5589C52.1231 16.3568 51.8921 16.1041 51.7436 15.784C51.5786 15.464 51.4961 15.0934 51.4961 14.6217C51.4961 14.1163 51.6116 13.712 51.8591 13.3751C52.0901 13.0382 52.4035 12.7687 52.7665 12.5666C53.1295 12.3644 53.542 12.2128 53.9875 12.1286C54.4329 12.0444 54.8619 12.0107 55.2579 12.0107C55.7199 12.0107 56.1654 12.0612 56.5778 12.1623C56.9903 12.2634 57.3863 12.415 57.7163 12.6508C58.0628 12.8698 58.3432 13.173 58.5577 13.5267C58.7887 13.8805 58.9207 14.3185 58.9867 14.8238H56.9243C56.8253 14.3353 56.6108 14.0153 56.2808 13.8468C55.9344 13.6784 55.5549 13.5941 55.1094 13.5941C54.9774 13.5941 54.7959 13.611 54.6144 13.6278C54.4164 13.6615 54.2515 13.6952 54.07 13.7626C53.905 13.83 53.7565 13.931 53.641 14.049C53.5255 14.1669 53.4595 14.3353 53.4595 14.5375C53.4595 14.7901 53.542 14.9754 53.707 15.1271C53.872 15.2787 54.0865 15.3966 54.3669 15.5145C54.6309 15.6156 54.9444 15.6998 55.2909 15.7672C55.6374 15.8346 56.0004 15.9188 56.3633 16.003C56.7263 16.0872 57.0728 16.1883 57.4193 16.3062C57.7658 16.4241 58.0793 16.5758 58.3432 16.7947C58.6072 16.9969 58.8382 17.2496 59.0032 17.5528C59.1682 17.856 59.2507 18.2434 59.2507 18.6814C59.2507 19.2205 59.1352 19.6753 58.8877 20.0627C58.6402 20.4333 58.3267 20.7534 57.9473 20.9892C57.5678 21.2251 57.1223 21.3935 56.6603 21.5114C56.1819 21.6125 55.7199 21.6799 55.2579 21.6799C54.6969 21.6799 54.169 21.6125 53.6905 21.4777C53.212 21.343 52.783 21.1408 52.4365 20.8882C52.0901 20.6186 51.8096 20.2986 51.6116 19.8943C51.4136 19.5068 51.2981 19.0352 51.2816 18.4793H53.278V18.4961H53.2945ZM59.8117 12.2802H61.3131V9.51756L63.293 9.51756V12.2633L65.0749 12.2633V13.7626H63.293V18.6477C63.293 18.8667 63.3095 19.0352 63.326 19.2036C63.3425 19.3552 63.392 19.49 63.4415 19.5911C63.5075 19.6921 63.6065 19.7764 63.722 19.8269C63.854 19.8774 64.019 19.9111 64.2499 19.9111C64.3819 19.9111 64.5304 19.9111 64.6624 19.8943C64.7944 19.8774 64.9429 19.8606 65.0749 19.8269V21.3935C64.8604 21.4272 64.6459 21.4441 64.4314 21.4609C64.2169 21.4946 64.019 21.4946 63.788 21.4946C63.26 21.4946 62.8475 21.4441 62.534 21.343C62.2205 21.2419 61.9731 21.0903 61.7916 20.905C61.6101 20.7029 61.4946 20.467 61.4286 20.1807C61.3626 19.8943 61.3296 19.5405 61.3131 19.1699V13.7794H59.8117V12.2465V12.2802ZM66.4608 12.2802H68.3252V13.5267H68.3582C68.6387 12.9877 69.0182 12.6171 69.5132 12.3813C70.0081 12.1454 70.5361 12.0275 71.1301 12.0275C71.8396 12.0275 72.45 12.1454 72.978 12.415C73.506 12.6676 73.935 13.0045 74.2814 13.4594C74.6279 13.8973 74.8919 14.4196 75.0569 15.0091C75.2219 15.5987 75.3209 16.2388 75.3209 16.8958C75.3209 17.5191 75.2384 18.1087 75.0899 18.6814C74.9249 19.2542 74.6939 19.7764 74.3804 20.2143C74.0669 20.6523 73.671 21.0061 73.176 21.2756C72.681 21.5451 72.12 21.6799 71.4601 21.6799C71.1796 21.6799 70.8826 21.6462 70.6021 21.5957C70.3216 21.5451 70.0411 21.4609 69.7772 21.343C69.5132 21.2251 69.2657 21.0735 69.0512 20.8882C68.8202 20.7029 68.6387 20.4839 68.4902 20.248H68.4572V24.8131H66.4773V12.2802H66.4608ZM73.374 16.8621C73.374 16.4578 73.3245 16.0535 73.209 15.6661C73.11 15.2787 72.945 14.9418 72.7305 14.6385C72.516 14.3353 72.252 14.0995 71.9551 13.9142C71.6416 13.7289 71.2786 13.6447 70.8826 13.6447C70.0576 13.6447 69.4307 13.931 69.0017 14.5206C68.5892 15.1102 68.3747 15.9019 68.3747 16.879C68.3747 17.3506 68.4242 17.7718 68.5397 18.1592C68.6552 18.5467 68.8037 18.8836 69.0347 19.1699C69.2492 19.4563 69.5132 19.6753 69.8267 19.8437C70.1401 20.0122 70.4866 20.0964 70.8991 20.0964C71.3611 20.0964 71.7241 19.9954 72.0375 19.8101C72.351 19.6248 72.5985 19.3721 72.813 19.0857C73.011 18.7825 73.1595 18.4456 73.242 18.0581C73.3245 17.6539 73.374 17.2664 73.374 16.8621ZM76.8553 8.79321L78.8352 8.79321V10.6967H76.8553V8.79321ZM76.8553 12.2802H78.8352V21.4272H76.8553V12.2802ZM80.6006 8.79321H82.5805V21.4272H80.6006V8.79321ZM88.6192 21.6799C87.9097 21.6799 87.2663 21.562 86.7053 21.3093C86.1443 21.0566 85.6824 20.7366 85.2864 20.3154C84.9069 19.8943 84.6099 19.3721 84.4119 18.7825C84.2139 18.1929 84.0984 17.5359 84.0984 16.8453C84.0984 16.1546 84.1974 15.5145 84.4119 14.9249C84.6099 14.3353 84.9069 13.83 85.2864 13.392C85.6659 12.9709 86.1443 12.6339 86.7053 12.3981C87.2663 12.1623 87.9097 12.0275 88.6192 12.0275C89.3287 12.0275 89.9721 12.1454 90.5331 12.3981C91.0941 12.6339 91.5561 12.9709 91.952 13.392C92.3315 13.8131 92.6285 14.3353 92.8265 14.9249C93.0245 15.5145 93.14 16.1546 93.14 16.8453C93.14 17.5528 93.041 18.1929 92.8265 18.7825C92.612 19.3721 92.3315 19.8774 91.952 20.3154C91.5726 20.7366 91.0941 21.0735 90.5331 21.3093C89.9721 21.5451 89.3452 21.6799 88.6192 21.6799ZM88.6192 20.0796C89.0482 20.0796 89.4442 19.9785 89.7576 19.7932C90.0876 19.6079 90.3351 19.3552 90.5496 19.052C90.7641 18.7488 90.9126 18.395 91.0116 18.0245C91.1106 17.637 91.1601 17.2496 91.1601 16.8453C91.1601 16.4578 91.1106 16.0704 91.0116 15.683C90.9126 15.2955 90.7641 14.9586 90.5496 14.6554C90.3351 14.3522 90.0711 14.1163 89.7576 13.931C89.4277 13.7457 89.0482 13.6447 88.6192 13.6447C88.1902 13.6447 87.7943 13.7457 87.4808 13.931C87.1508 14.1163 86.9033 14.369 86.6888 14.6554C86.4743 14.9586 86.3258 15.2955 86.2268 15.683C86.1278 16.0704 86.0783 16.4578 86.0783 16.8453C86.0783 17.2496 86.1278 17.637 86.2268 18.0245C86.3258 18.4119 86.4743 18.7488 86.6888 19.052C86.9033 19.3552 87.1673 19.6079 87.4808 19.7932C87.8107 19.9954 88.1902 20.0796 88.6192 20.0796ZM93.7339 12.2802H95.2354V9.51756H97.2153V12.2633H98.9972V13.7626H97.2153V18.6477C97.2153 18.8667 97.2318 19.0352 97.2483 19.2036C97.2648 19.3552 97.3143 19.49 97.3638 19.5911C97.4298 19.6921 97.5288 19.7764 97.6442 19.8269C97.7762 19.8774 97.9412 19.9111 98.1722 19.9111C98.3042 19.9111 98.4527 19.9111 98.5847 19.8943C98.7167 19.8774 98.8652 19.8606 98.9972 19.8269V21.3935C98.7827 21.4272 98.5682 21.4441 98.3537 21.4609C98.1392 21.4946 97.9412 21.4946 97.7103 21.4946C97.1823 21.4946 96.7698 21.4441 96.4563 21.343C96.1428 21.2419 95.8953 21.0903 95.7138 20.905C95.5323 20.7029 95.4169 20.467 95.3509 20.1807C95.2849 19.8943 95.2519 19.5405 95.2354 19.1699V13.7794L93.7339 13.7794V12.2465V12.2802Z" fill="white"/>
<path d="M23.7093 8.79326L14.6513 8.79326L11.8629 0L9.05804 8.79326L0 8.77642L7.32563 14.2175L4.52077 23.0107L11.8464 17.5697L19.172 23.0107L16.3837 14.2175L23.7093 8.79326Z" fill="#00B67A"/>
<path d="M17.012 16.2053L16.385 14.2175L11.8643 17.5697L17.012 16.2053Z" fill="#005128"/>
</svg>
