<svg width="118" height="54" viewBox="0 0 118 54" fill="none" xmlns="http://www.w3.org/2000/svg">
<g clip-path="url(#clip0_1979_262)">
<path d="M0 32.0059H22.125V53.9941H0V32.0059ZM23.9688 32.0059H46.0938V53.9941H23.9688V32.0059ZM47.9375 32.0059H70.0625V53.9941H47.9375V32.0059ZM71.9062 32.0059H94.0312V53.9941H71.9062V32.0059ZM95.875 32.0059H118V53.9941H95.875V32.0059Z" fill="#00B67A"/>
<path d="M11.0621 46.825L14.427 45.9775L15.8328 50.2835L11.0621 46.825ZM18.8059 41.2592H12.8828L11.0621 35.7163L9.24141 41.2592H3.31836L8.11211 44.6949L6.29141 50.2377L11.0852 46.8021L14.0352 44.6949L18.8059 41.2592ZM35.0309 46.825L38.3957 45.9775L39.8016 50.2835L35.0309 46.825ZM42.7746 41.2592H36.8516L35.0309 35.7163L33.2102 41.2592H27.2871L32.0809 44.6949L30.2602 50.2377L35.0539 46.8021L38.0039 44.6949L42.7746 41.2592ZM58.9996 46.825L62.3645 45.9775L63.7703 50.2835L58.9996 46.825ZM66.7434 41.2592H60.8203L58.9996 35.7163L57.1789 41.2592H51.2559L56.0496 44.6949L54.2289 50.2377L59.0227 46.8021L61.9727 44.6949L66.7434 41.2592ZM82.9684 46.825L86.3332 45.9775L87.7391 50.2835L82.9684 46.825ZM90.7121 41.2592H84.7891L82.9684 35.7163L81.1477 41.2592H75.2246L80.0184 44.6949L78.1977 50.2377L82.9914 46.8021L85.9414 44.6949L90.7121 41.2592ZM106.937 46.825L110.302 45.9775L111.708 50.2835L106.937 46.825ZM114.681 41.2592H108.758L106.937 35.7163L105.116 41.2592H99.1934L103.987 44.6949L102.166 50.2377L106.96 46.8021L109.91 44.6949L114.681 41.2592Z" fill="white"/>
</g>
<path d="M22.6052 7.67529L31.3053 7.67529V9.33683L27.8797 9.33683V18.7032H26.0021V9.33683H22.5908L22.6052 7.67529ZM30.9326 10.719L32.5379 10.719V12.2629H32.5666C32.6239 12.0423 32.7243 11.8365 32.8676 11.6306C33.0109 11.4248 33.1829 11.2336 33.3979 11.0719C33.5986 10.8954 33.8279 10.7631 34.0859 10.6602C34.3295 10.5573 34.5875 10.4984 34.8455 10.4984C35.0462 10.4984 35.1895 10.5131 35.2612 10.5131C35.3329 10.5278 35.4189 10.5426 35.4905 10.5426V12.2335C35.3759 12.2041 35.2469 12.1894 35.1179 12.1747C34.9889 12.16 34.8742 12.1453 34.7452 12.1453C34.4585 12.1453 34.1862 12.2041 33.9282 12.3217C33.6702 12.4394 33.4552 12.6158 33.2546 12.8364C33.0682 13.0716 32.9106 13.351 32.7959 13.6892C32.6813 14.0274 32.6239 14.4244 32.6239 14.8655V18.6591H30.904L30.9326 10.719ZM43.3737 18.7032H41.6824V17.5857H41.6537C41.4387 17.9974 41.1234 18.3062 40.7077 18.5562C40.2921 18.8061 39.8621 18.9238 39.4321 18.9238C38.4145 18.9238 37.6691 18.6738 37.2105 18.1445C36.7518 17.6298 36.5225 16.8358 36.5225 15.7918V10.719H38.2425V15.6154C38.2425 16.3212 38.3715 16.8211 38.6438 17.1005C38.9018 17.3946 39.2744 17.5416 39.7474 17.5416C40.1057 17.5416 40.4067 17.4828 40.6504 17.3652C40.8941 17.2475 41.0947 17.1005 41.2381 16.9093C41.3957 16.7182 41.496 16.4829 41.5677 16.2183C41.6394 15.9536 41.668 15.6595 41.668 15.3507V10.719L43.388 10.719V18.7032H43.3737ZM46.2976 16.1447C46.3549 16.6594 46.5413 17.0123 46.8709 17.2328C47.2006 17.4387 47.6019 17.5416 48.0606 17.5416C48.2182 17.5416 48.4046 17.5269 48.6052 17.4975C48.8059 17.4681 49.0065 17.424 49.1785 17.3505C49.3649 17.2769 49.5082 17.174 49.6229 17.027C49.7375 16.8799 49.7949 16.7035 49.7805 16.4829C49.7662 16.2624 49.6945 16.0712 49.5369 15.9242C49.3792 15.7771 49.1929 15.6742 48.9635 15.5713C48.7342 15.4831 48.4619 15.4095 48.1609 15.3507C47.8599 15.2919 47.5589 15.2184 47.2436 15.1449C46.9283 15.0714 46.6129 14.9831 46.3119 14.8802C46.0109 14.7773 45.7529 14.6449 45.5093 14.4538C45.28 14.2773 45.0793 14.0568 44.9503 13.7774C44.807 13.498 44.7353 13.1745 44.7353 12.7628C44.7353 12.3217 44.8356 11.9688 45.0506 11.6748C45.2513 11.3807 45.5236 11.1454 45.8389 10.969C46.1543 10.7925 46.5126 10.6602 46.8996 10.5867C47.2866 10.5131 47.6592 10.4837 48.0032 10.4837C48.4046 10.4837 48.7915 10.5278 49.1499 10.6161C49.5082 10.7043 49.8522 10.8366 50.1388 11.0425C50.4398 11.2336 50.6835 11.4983 50.8698 11.8071C51.0705 12.1159 51.1852 12.4982 51.2425 12.9393H49.4509C49.3649 12.5129 49.1785 12.2335 48.8919 12.0865C48.5909 11.9394 48.2612 11.8659 47.8742 11.8659C47.7596 11.8659 47.6019 11.8806 47.4442 11.8953C47.2722 11.9247 47.1289 11.9541 46.9713 12.0129C46.8279 12.0718 46.6989 12.16 46.5986 12.2629C46.4983 12.3658 46.4409 12.5129 46.4409 12.6893C46.4409 12.9099 46.5126 13.0716 46.6559 13.204C46.7993 13.3363 46.9856 13.4392 47.2292 13.5421C47.4586 13.6304 47.7309 13.7039 48.0319 13.7627C48.3329 13.8215 48.6482 13.895 48.9635 13.9686C49.2789 14.0421 49.5799 14.1303 49.8809 14.2332C50.1818 14.3362 50.4542 14.4685 50.6835 14.6596C50.9128 14.8361 51.1135 15.0566 51.2568 15.3213C51.4002 15.586 51.4718 15.9242 51.4718 16.3065C51.4718 16.777 51.3715 17.174 51.1565 17.5122C50.9415 17.8357 50.6692 18.1151 50.3395 18.3209C50.0099 18.5268 49.6229 18.6738 49.2215 18.7767C48.8059 18.865 48.4046 18.9238 48.0032 18.9238C47.5159 18.9238 47.0573 18.865 46.6416 18.7473C46.2259 18.6297 45.8533 18.4532 45.5523 18.2327C45.2513 17.9974 45.0076 17.7181 44.8356 17.3652C44.6636 17.027 44.5633 16.6153 44.549 16.13H46.2833V16.1447H46.2976ZM51.9591 10.719H53.2634V8.30756H54.9834V10.7043H56.5314V12.0129H54.9834V16.2771C54.9834 16.4682 54.9977 16.6153 55.0121 16.7623C55.0264 16.8946 55.0694 17.0123 55.1124 17.1005C55.1697 17.1887 55.2557 17.2622 55.3561 17.3063C55.4707 17.3505 55.6141 17.3799 55.8147 17.3799C55.9294 17.3799 56.0584 17.3799 56.173 17.3652C56.2877 17.3505 56.4167 17.3358 56.5314 17.3063V18.6738C56.345 18.7032 56.1587 18.7179 55.9724 18.7326C55.786 18.762 55.6141 18.762 55.4134 18.762C54.9547 18.762 54.5964 18.7179 54.3241 18.6297C54.0518 18.5415 53.8368 18.4091 53.6791 18.2474C53.5214 18.0709 53.4211 17.8651 53.3638 17.6151C53.3064 17.3652 53.2778 17.0564 53.2634 16.7329V12.0276H51.9591V10.6896V10.719ZM57.7353 10.719H59.355V11.8071H59.3836C59.6273 11.3366 59.957 11.0131 60.3869 10.8072C60.8169 10.6014 61.2756 10.4984 61.7916 10.4984C62.4079 10.4984 62.9382 10.6014 63.3969 10.8366C63.8555 11.0572 64.2282 11.3513 64.5292 11.7483C64.8302 12.1306 65.0595 12.5864 65.2028 13.101C65.3462 13.6157 65.4322 14.1744 65.4322 14.7479C65.4322 15.2919 65.3605 15.8065 65.2315 16.3065C65.0882 16.8064 64.8875 17.2622 64.6152 17.6445C64.3428 18.0268 63.9989 18.3356 63.5689 18.5709C63.1389 18.8061 62.6516 18.9238 62.0782 18.9238C61.8346 18.9238 61.5766 18.8944 61.3329 18.8503C61.0893 18.8061 60.8456 18.7326 60.6163 18.6297C60.3869 18.5268 60.1719 18.3944 59.9856 18.2327C59.785 18.0709 59.6273 17.8798 59.4983 17.6739H59.4696V21.6587L57.7497 21.6587V10.719H57.7353ZM63.7409 14.7185C63.7409 14.3656 63.6979 14.0127 63.5975 13.6745C63.5115 13.3363 63.3682 13.0422 63.1819 12.7775C62.9955 12.5129 62.7662 12.307 62.5082 12.1453C62.2359 11.9835 61.9206 11.91 61.5766 11.91C60.8599 11.91 60.3153 12.16 59.9426 12.6746C59.5843 13.1893 59.398 13.8803 59.398 14.7332C59.398 15.1449 59.441 15.5125 59.5413 15.8507C59.6416 16.1888 59.7706 16.4829 59.9713 16.7329C60.1576 16.9829 60.3869 17.174 60.6593 17.321C60.9316 17.4681 61.2326 17.5416 61.5909 17.5416C61.9922 17.5416 62.3076 17.4534 62.5799 17.2916C62.8522 17.1299 63.0672 16.9093 63.2535 16.6594C63.4255 16.3947 63.5545 16.1006 63.6262 15.7624C63.6979 15.4095 63.7409 15.0714 63.7409 14.7185ZM66.7651 7.67529H68.4851V9.33683H66.7651V7.67529ZM66.7651 10.719H68.4851V18.7032H66.7651V10.719ZM70.0187 7.67529H71.7387V18.7032H70.0187V7.67529ZM76.9846 18.9238C76.3682 18.9238 75.8092 18.8208 75.3219 18.6003C74.8346 18.3797 74.4333 18.1004 74.0893 17.7328C73.7596 17.3652 73.5016 16.9093 73.3296 16.3947C73.1576 15.8801 73.0573 15.3066 73.0573 14.7038C73.0573 14.1009 73.1433 13.5421 73.3296 13.0275C73.5016 12.5129 73.7596 12.0718 74.0893 11.6895C74.419 11.3219 74.8346 11.0278 75.3219 10.8219C75.8092 10.6161 76.3682 10.4984 76.9846 10.4984C77.6009 10.4984 78.1599 10.6014 78.6472 10.8219C79.1345 11.0278 79.5358 11.3219 79.8798 11.6895C80.2095 12.0571 80.4675 12.5129 80.6395 13.0275C80.8115 13.5421 80.9118 14.1009 80.9118 14.7038C80.9118 15.3213 80.8258 15.8801 80.6395 16.3947C80.4531 16.9093 80.2095 17.3505 79.8798 17.7328C79.5502 18.1004 79.1345 18.3944 78.6472 18.6003C78.1599 18.8061 77.6152 18.9238 76.9846 18.9238ZM76.9846 17.5269C77.3572 17.5269 77.7012 17.4387 77.9735 17.2769C78.2602 17.1152 78.4752 16.8946 78.6615 16.63C78.8478 16.3653 78.9768 16.0565 79.0628 15.733C79.1488 15.3948 79.1918 15.0566 79.1918 14.7038C79.1918 14.3656 79.1488 14.0274 79.0628 13.6892C78.9768 13.351 78.8478 13.0569 78.6615 12.7922C78.4752 12.5276 78.2459 12.3217 77.9735 12.16C77.6869 11.9982 77.3572 11.91 76.9846 11.91C76.6119 11.91 76.2679 11.9982 75.9956 12.16C75.7089 12.3217 75.4939 12.5423 75.3076 12.7922C75.1213 13.0569 74.9923 13.351 74.9063 13.6892C74.8203 14.0274 74.7773 14.3656 74.7773 14.7038C74.7773 15.0566 74.8203 15.3948 74.9063 15.733C74.9923 16.0712 75.1213 16.3653 75.3076 16.63C75.4939 16.8946 75.7233 17.1152 75.9956 17.2769C76.2822 17.4534 76.6119 17.5269 76.9846 17.5269ZM81.4278 10.719H82.7321V8.30756H84.4521V10.7043H86V12.0129H84.4521V16.2771C84.4521 16.4682 84.4664 16.6153 84.4807 16.7623C84.4951 16.8946 84.538 17.0123 84.581 17.1005C84.6384 17.1887 84.7244 17.2622 84.8247 17.3063C84.9394 17.3505 85.0827 17.3799 85.2834 17.3799C85.398 17.3799 85.527 17.3799 85.6417 17.3652C85.7564 17.3505 85.8853 17.3358 86 17.3063V18.6738C85.8137 18.7032 85.6274 18.7179 85.441 18.7326C85.2547 18.762 85.0827 18.762 84.882 18.762C84.4234 18.762 84.0651 18.7179 83.7927 18.6297C83.5204 18.5415 83.3054 18.4091 83.1477 18.2474C82.9901 18.0709 82.8898 17.8651 82.8324 17.6151C82.7751 17.3652 82.7464 17.0564 82.7321 16.7329V12.0276H81.4278V10.6896V10.719Z" fill="white"/>
<path d="M20.5965 7.67544L12.7277 7.67544L10.3054 0L7.86882 7.67544L0 7.66073L6.36385 12.4101L3.92724 20.0855L10.2911 15.3362L16.6549 20.0855L14.2327 12.4101L20.5965 7.67544Z" fill="#00B67A"/>
<path d="M14.7785 14.1452L14.2339 12.4102L10.3066 15.3362L14.7785 14.1452Z" fill="#005128"/>
<defs>
<clipPath id="clip0_1979_262">
<rect width="118" height="22" fill="white" transform="translate(0 32)"/>
</clipPath>
</defs>
</svg>
