<?xml version="1.0" standalone="no"?>
<!DOCTYPE svg PUBLIC "-//W3C//DTD SVG 1.1//EN" "http://www.w3.org/Graphics/SVG/1.1/DTD/svg11.dtd" >
<svg xmlns="http://www.w3.org/2000/svg" xmlns:xlink="http://www.w3.org/1999/xlink" version="1.1">
<metadata>
Created by FontForge 20170812 at Mon Sep  5 11:57:39 2016
 By www-data
Copyright \(c\) 2016 by Chris Simpson.
</metadata>
<defs>
<font id="Metropolis-Bold" horiz-adv-x="660" >
  <font-face 
    font-family="Metropolis"
    font-weight="700"
    font-stretch="normal"
    units-per-em="1000"
    panose-1="0 0 8 0 0 0 0 0 0 0"
    ascent="795"
    descent="-205"
    x-height="517"
    cap-height="687"
    bbox="-215 -291 1182 978"
    underline-thickness="20"
    underline-position="-133"
    stemh="118"
    stemv="140"
    unicode-range="U+0020-2212"
  />
<missing-glyph horiz-adv-x="500" 
d="M410 795v-1000h-317v1000h317zM333 728h-165v-33h65v-37h-66v-33h166v33h-66v37h66v33zM267 599h-100v-104h166v34h-66v70zM233 565v-36h-33v36h33zM333 468h-166v-33h66v-37h-66v-33h100v70h66v33zM333 408h-33v-66h-133v-34h166v100zM333 286h-100v-56h34v23h33v-47
h-100v80h-33v-113h166v113zM333 113h-166v-113h166v113zM300 80v-47h-100v47h100zM333 -23h-166v-33h70l-70 -47v-33h166v33h-102l70 47h32v33z" />
    <glyph glyph-name=".notdef" horiz-adv-x="500" 
d="M410 795v-1000h-317v1000h317zM333 728h-165v-33h65v-37h-66v-33h166v33h-66v37h66v33zM267 599h-100v-104h166v34h-66v70zM233 565v-36h-33v36h33zM333 468h-166v-33h66v-37h-66v-33h100v70h66v33zM333 408h-33v-66h-133v-34h166v100zM333 286h-100v-56h34v23h33v-47
h-100v80h-33v-113h166v113zM333 113h-166v-113h166v113zM300 80v-47h-100v47h100zM333 -23h-166v-33h70l-70 -47v-33h166v33h-102l70 47h32v33z" />
    <glyph glyph-name="A" unicode="A" horiz-adv-x="751" 
d="M572 0l-44 108h-306l-44 -108h-165l280 687h165l280 -687h-166zM273 233h204l-102 251z" />
    <glyph glyph-name="Aacute" unicode="&#xc1;" horiz-adv-x="751" 
d="M571 877l-148 -132h-99l116 156zM572 0l-44 108h-306l-44 -108h-165l280 687h165l280 -687h-166zM273 233h204l-102 251z" />
    <glyph glyph-name="Abreve" unicode="&#x102;" horiz-adv-x="751" 
d="M537 817c-44 -44 -103 -66 -161 -66s-116 22 -161 66l63 63c27 -26 64 -42 98 -42s71 16 98 42zM572 0l-44 108h-306l-44 -108h-165l280 687h165l280 -687h-166zM273 233h204l-102 251z" />
    <glyph glyph-name="Acircumflex" unicode="&#xc2;" horiz-adv-x="751" 
d="M376 819l-75 -74h-90l105 147h121l106 -147h-91zM572 0l-44 108h-306l-44 -108h-165l280 687h165l280 -687h-166zM273 233h204l-102 251z" />
    <glyph glyph-name="Adieresis" unicode="&#xc4;" horiz-adv-x="751" 
d="M271 754c-41 0 -71 32 -71 70s30 70 71 70c38 0 70 -32 70 -70s-32 -70 -70 -70zM482 754c-39 0 -70 32 -70 70s31 70 70 70s70 -32 70 -70s-31 -70 -70 -70zM572 0l-44 108h-306l-44 -108h-165l280 687h165l280 -687h-166zM273 233h204l-102 251z" />
    <glyph glyph-name="Agrave" unicode="&#xc0;" horiz-adv-x="751" 
d="M429 745h-99l-148 132l131 24zM572 0l-44 108h-306l-44 -108h-165l280 687h165l280 -687h-166zM273 233h204l-102 251z" />
    <glyph glyph-name="Amacron" unicode="&#x100;" horiz-adv-x="751" 
d="M548 837v-86h-345v86h345zM572 0l-44 108h-306l-44 -108h-165l280 687h165l280 -687h-166zM273 233h204l-102 251z" />
    <glyph glyph-name="Aogonek" unicode="&#x104;" horiz-adv-x="751" 
d="M775 -72l26 -68c-22 -20 -53 -33 -89 -33c-65 0 -111 42 -111 111c0 24 7 45 18 62h-47l-44 108h-306l-44 -108h-165l280 687h165l280 -687c-28 0 -46 -19 -46 -44c0 -27 18 -41 46 -41c15 0 29 5 37 13zM273 233h204l-102 251z" />
    <glyph glyph-name="Aring" unicode="&#xc5;" horiz-adv-x="751" 
d="M376 751c-63 0 -114 50 -114 113s51 114 114 114s114 -51 114 -114s-51 -113 -114 -113zM376 917c-29 0 -53 -24 -53 -53s24 -53 53 -53s53 24 53 53s-24 53 -53 53zM572 0l-44 108h-306l-44 -108h-165l280 687h165l280 -687h-166zM273 233h204l-102 251z" />
    <glyph glyph-name="Atilde" unicode="&#xc3;" horiz-adv-x="751" 
d="M312 794c-22 0 -35 -16 -42 -53l-73 11c11 87 46 132 111 132c56 0 100 -51 132 -51c22 0 35 16 42 52l72 -10c-10 -88 -45 -132 -111 -132c-56 0 -98 51 -131 51zM572 0l-44 108h-306l-44 -108h-165l280 687h165l280 -687h-166zM273 233h204l-102 251z" />
    <glyph glyph-name="AE" unicode="&#xc6;" horiz-adv-x="1077" 
d="M1033 554h-381v-137h345v-133h-345v-151h381v-133h-529v118h-252l-68 -118h-171l397 687h623v-133zM319 233h185v321z" />
    <glyph glyph-name="B" unicode="B" horiz-adv-x="699" 
d="M74 0v687h348c123 0 208 -72 208 -172c0 -70 -35 -121 -96 -153c80 -36 126 -100 126 -176c0 -110 -94 -186 -225 -186h-361zM221 410h164c55 0 94 32 94 76c0 43 -39 75 -94 75h-164v-151zM221 126h187c59 0 101 35 101 84s-42 84 -101 84h-187v-168z" />
    <glyph glyph-name="C" unicode="C" horiz-adv-x="696" 
d="M406 -12c-197 0 -365 163 -365 356s168 355 365 355c104 0 200 -44 267 -115l-107 -96c-40 46 -97 77 -160 77c-115 0 -213 -102 -213 -221c0 -120 98 -222 213 -222c63 0 120 31 160 77l107 -96c-67 -70 -163 -115 -267 -115z" />
    <glyph glyph-name="Cacute" unicode="&#x106;" horiz-adv-x="696" 
d="M280 745l116 156l131 -24l-148 -132h-99zM406 -12c-197 0 -365 163 -365 356s168 355 365 355c104 0 200 -44 267 -115l-107 -96c-40 46 -97 77 -160 77c-115 0 -213 -102 -213 -221c0 -120 98 -222 213 -222c63 0 120 31 160 77l107 -96c-67 -70 -163 -115 -267 -115z
" />
    <glyph glyph-name="Ccaron" unicode="&#x10c;" horiz-adv-x="696" 
d="M323 745l-105 147h90l75 -75l76 75h91l-106 -147h-121zM406 -12c-197 0 -365 163 -365 356s168 355 365 355c104 0 200 -44 267 -115l-107 -96c-40 46 -97 77 -160 77c-115 0 -213 -102 -213 -221c0 -120 98 -222 213 -222c63 0 120 31 160 77l107 -96
c-67 -70 -163 -115 -267 -115z" />
    <glyph glyph-name="Ccedilla" unicode="&#xc7;" horiz-adv-x="696" 
d="M406 122c63 0 120 31 160 77l107 -96c-61 -64 -147 -107 -240 -114l-13 -32c44 0 75 -28 75 -68c0 -53 -46 -86 -108 -86c-37 0 -73 13 -95 29l26 58c18 -15 40 -23 61 -23c23 0 42 12 42 30c0 16 -12 27 -33 27c-10 0 -21 -3 -30 -9l-22 21l23 55
c-176 23 -318 175 -318 353c0 193 168 355 365 355c104 0 200 -44 267 -115l-107 -96c-40 46 -97 77 -160 77c-115 0 -213 -102 -213 -221c0 -120 98 -222 213 -222z" />
    <glyph glyph-name="D" unicode="D" horiz-adv-x="761" 
d="M74 0v687h246c231 0 395 -142 395 -343s-164 -344 -395 -344h-246zM221 134h118c131 0 224 87 224 210c0 122 -93 209 -224 209h-118v-419z" />
    <glyph glyph-name="Eth" unicode="&#xd0;" horiz-adv-x="802" 
d="M362 687c231 0 395 -142 395 -343s-164 -344 -395 -344h-246v280h-75v133h75v274h246zM381 134c131 0 224 87 224 210c0 122 -93 209 -224 209h-118v-140h157l-1 -133h-156v-146h118z" />
    <glyph glyph-name="Dcaron" unicode="&#x10e;" horiz-adv-x="761" 
d="M260 745l-105 147h90l75 -75l76 75h91l-106 -147h-121zM74 0v687h246c231 0 395 -142 395 -343s-164 -344 -395 -344h-246zM221 134h118c131 0 224 87 224 210c0 122 -93 209 -224 209h-118v-419z" />
    <glyph glyph-name="Dcroat" unicode="&#x110;" horiz-adv-x="802" 
d="M362 687c231 0 395 -142 395 -343s-164 -344 -395 -344h-246v280h-75v133h75v274h246zM381 134c131 0 224 87 224 210c0 122 -93 209 -224 209h-118v-140h157l-1 -133h-156v-146h118z" />
    <glyph glyph-name="E" unicode="E" horiz-adv-x="641" 
d="M597 554h-381v-137h345v-133h-345v-151h381v-133h-529v687h529v-133z" />
    <glyph glyph-name="Eacute" unicode="&#xc9;" horiz-adv-x="641" 
d="M477 877l-148 -132h-99l116 156zM597 554h-381v-137h345v-133h-345v-151h381v-133h-529v687h529v-133z" />
    <glyph glyph-name="Ecaron" unicode="&#x11a;" horiz-adv-x="641" 
d="M394 745h-121l-105 147h90l75 -75l76 75h91zM597 554h-381v-137h345v-133h-345v-151h381v-133h-529v687h529v-133z" />
    <glyph glyph-name="Ecircumflex" unicode="&#xca;" horiz-adv-x="641" 
d="M333 819l-75 -74h-90l105 147h121l106 -147h-91zM597 554h-381v-137h345v-133h-345v-151h381v-133h-529v687h529v-133z" />
    <glyph glyph-name="Edieresis" unicode="&#xcb;" horiz-adv-x="641" 
d="M228 754c-41 0 -71 32 -71 70s30 70 71 70c38 0 70 -32 70 -70s-32 -70 -70 -70zM439 754c-39 0 -70 32 -70 70s31 70 70 70s70 -32 70 -70s-31 -70 -70 -70zM597 554h-381v-137h345v-133h-345v-151h381v-133h-529v687h529v-133z" />
    <glyph glyph-name="Edotaccent" unicode="&#x116;" horiz-adv-x="641" 
d="M333 754c-41 0 -71 32 -71 70s30 70 71 70c38 0 70 -32 70 -70s-32 -70 -70 -70zM597 554h-381v-137h345v-133h-345v-151h381v-133h-529v687h529v-133z" />
    <glyph glyph-name="uni1EB8" unicode="&#x1eb8;" horiz-adv-x="641" 
d="M597 554h-381v-137h345v-133h-345v-151h381v-133h-529v687h529v-133zM334 -71c38 0 70 -32 70 -70s-32 -70 -70 -70c-41 0 -71 32 -71 70s30 70 71 70z" />
    <glyph glyph-name="Egrave" unicode="&#xc8;" horiz-adv-x="641" 
d="M427 745h-99l-148 132l131 24zM597 554h-381v-137h345v-133h-345v-151h381v-133h-529v687h529v-133z" />
    <glyph glyph-name="Emacron" unicode="&#x112;" horiz-adv-x="641" 
d="M505 837v-86h-345v86h345zM597 554h-381v-137h345v-133h-345v-151h381v-133h-529v687h529v-133z" />
    <glyph glyph-name="Eogonek" unicode="&#x118;" horiz-adv-x="641" 
d="M597 554h-381v-137h345v-133h-345v-151h381v-133h-64c-28 0 -46 -19 -46 -44c0 -27 18 -41 46 -41c15 0 29 5 37 13l26 -68c-22 -20 -53 -33 -89 -33c-65 0 -111 42 -111 111c0 24 7 45 18 62h-346v687h529v-133z" />
    <glyph glyph-name="uni1EBC" unicode="&#x1ebc;" horiz-adv-x="641" 
d="M269 794c-22 0 -35 -16 -42 -53l-73 11c11 87 46 132 111 132c56 0 100 -51 132 -51c22 0 35 16 42 52l72 -10c-10 -88 -45 -132 -111 -132c-56 0 -98 51 -131 51zM597 554h-381v-137h345v-133h-345v-151h381v-133h-529v687h529v-133z" />
    <glyph glyph-name="F" unicode="F" horiz-adv-x="634" 
d="M597 554h-381v-149h345v-133h-345v-272h-148v687h529v-133z" />
    <glyph glyph-name="G" unicode="G" horiz-adv-x="743" 
d="M383 271v115h304v-283c-69 -72 -175 -115 -278 -115c-199 0 -368 163 -368 356s169 355 368 355c103 0 209 -43 278 -115l-107 -96c-41 47 -108 77 -171 77c-117 0 -216 -102 -216 -221c0 -120 99 -222 216 -222c47 0 95 16 134 44v105h-160z" />
    <glyph glyph-name="Gbreve" unicode="&#x11e;" horiz-adv-x="743" 
d="M570 817c-44 -44 -103 -66 -161 -66s-116 22 -161 66l63 63c27 -26 64 -42 98 -42s71 16 98 42zM383 271v115h304v-283c-69 -72 -175 -115 -278 -115c-199 0 -368 163 -368 356s169 355 368 355c103 0 209 -43 278 -115l-107 -96c-41 47 -108 77 -171 77
c-117 0 -216 -102 -216 -221c0 -120 99 -222 216 -222c47 0 95 16 134 44v105h-160z" />
    <glyph glyph-name="Gcommaaccent" unicode="&#x122;" horiz-adv-x="743" 
d="M383 271v115h304v-283c-69 -72 -175 -115 -278 -115c-199 0 -368 163 -368 356s169 355 368 355c103 0 209 -43 278 -115l-107 -96c-41 47 -108 77 -171 77c-117 0 -216 -102 -216 -221c0 -120 99 -222 216 -222c47 0 95 16 134 44v105h-160zM408 -47c44 0 73 -40 73 -95
c0 -46 -26 -94 -81 -149l-41 31c24 23 41 49 47 74c-36 0 -66 32 -66 69c0 39 30 70 68 70z" />
    <glyph glyph-name="H" unicode="H" horiz-adv-x="743" 
d="M528 687h147v-687h-147v284h-313v-284h-147v687h147v-270h313v270z" />
    <glyph glyph-name="I" unicode="I" horiz-adv-x="287" 
d="M70 0v687h148v-687h-148z" />
    <glyph glyph-name="Iacute" unicode="&#xcd;" horiz-adv-x="287" 
d="M93 745l116 156l131 -24l-148 -132h-99zM70 0v687h148v-687h-148z" />
    <glyph glyph-name="Icircumflex" unicode="&#xce;" horiz-adv-x="287" 
d="M-21 745l105 147h121l106 -147h-91l-76 74l-75 -74h-90zM70 0v687h148v-687h-148z" />
    <glyph glyph-name="Idieresis" unicode="&#xcf;" horiz-adv-x="287" 
d="M39 754c-41 0 -71 32 -71 70s30 70 71 70c38 0 70 -32 70 -70s-32 -70 -70 -70zM250 754c-39 0 -70 32 -70 70s31 70 70 70s70 -32 70 -70s-31 -70 -70 -70zM70 0v687h148v-687h-148z" />
    <glyph glyph-name="Idotaccent" unicode="&#x130;" horiz-adv-x="287" 
d="M144 754c-41 0 -71 32 -71 70s30 70 71 70c38 0 70 -32 70 -70s-32 -70 -70 -70zM70 0v687h148v-687h-148z" />
    <glyph glyph-name="Igrave" unicode="&#xcc;" horiz-adv-x="287" 
d="M95 745l-148 132l131 24l116 -156h-99zM70 0v687h148v-687h-148z" />
    <glyph glyph-name="Imacron" unicode="&#x12a;" horiz-adv-x="287" 
d="M-29 751v86h345v-86h-345zM70 0v687h148v-687h-148z" />
    <glyph glyph-name="Iogonek" unicode="&#x12e;" horiz-adv-x="287" 
d="M237 -72l26 -68c-22 -20 -53 -33 -89 -33c-65 0 -111 42 -111 111c0 24 7 45 18 62h-11v687h148v-687h-18c-28 0 -46 -19 -46 -44c0 -27 18 -41 46 -41c15 0 29 5 37 13z" />
    <glyph glyph-name="J" unicode="J" horiz-adv-x="545" 
d="M242 -12c-88 0 -184 47 -230 114l98 96c22 -45 71 -76 117 -76c60 0 104 47 104 114v451h148v-463c0 -138 -98 -236 -237 -236z" />
    <glyph glyph-name="K" unicode="K" horiz-adv-x="699" 
d="M73 0v687h147v-315l278 315h179l-268 -298l287 -389h-179l-211 284l-86 -92v-192h-147z" />
    <glyph glyph-name="Kcommaaccent" unicode="&#x136;" horiz-adv-x="699" 
d="M73 0v687h147v-315l278 315h179l-268 -298l287 -389h-179l-211 284l-86 -92v-192h-147zM353 -291l-41 31c24 23 41 49 47 74c-36 0 -66 32 -66 69c0 39 30 70 68 70c44 0 73 -40 73 -95c0 -46 -26 -94 -81 -149z" />
    <glyph glyph-name="L" unicode="L" horiz-adv-x="580" 
d="M211 133h342v-133h-490v687h148v-554z" />
    <glyph glyph-name="Lacute" unicode="&#x139;" horiz-adv-x="580" 
d="M331 877l-148 -132h-99l116 156zM211 133h342v-133h-490v687h148v-554z" />
    <glyph glyph-name="Lcaron" unicode="&#x13d;" horiz-adv-x="580" 
d="M343 559c-36 0 -66 32 -66 69c0 39 30 70 68 70c44 0 73 -40 73 -95c0 -46 -26 -94 -81 -149l-41 31c24 23 41 49 47 74zM211 133h342v-133h-490v687h148v-554z" />
    <glyph glyph-name="Lslash" unicode="&#x141;" horiz-adv-x="617" 
d="M247 133h342v-133h-490v237l-73 -37v131l73 36v320h148v-246l118 59v-130l-118 -59v-178z" />
    <glyph glyph-name="M" unicode="M" horiz-adv-x="867" 
d="M74 0v687h147l213 -388l212 388h148v-687h-148v428l-212 -388l-213 388v-428h-147z" />
    <glyph glyph-name="N" unicode="N" horiz-adv-x="774" 
d="M74 0v687h147l331 -444v444h148v-687h-148l-331 444v-444h-147z" />
    <glyph glyph-name="Nacute" unicode="&#x143;" horiz-adv-x="774" 
d="M284 745l116 156l131 -24l-148 -132h-99zM74 0v687h147l331 -444v444h148v-687h-148l-331 444v-444h-147z" />
    <glyph glyph-name="Ncaron" unicode="&#x147;" horiz-adv-x="774" 
d="M327 745l-105 147h90l75 -75l76 75h91l-106 -147h-121zM74 0v687h147l331 -444v444h148v-687h-148l-331 444v-444h-147z" />
    <glyph glyph-name="Ncommaaccent" unicode="&#x145;" horiz-adv-x="774" 
d="M74 0v687h147l331 -444v444h148v-687h-148l-331 444v-444h-147zM379 -291l-41 31c24 23 41 49 47 74c-36 0 -66 32 -66 69c0 39 30 70 68 70c44 0 73 -40 73 -95c0 -46 -26 -94 -81 -149z" />
    <glyph glyph-name="Ntilde" unicode="&#xd1;" horiz-adv-x="774" 
d="M454 743c-56 0 -98 51 -131 51c-22 0 -35 -16 -42 -53l-73 11c11 87 46 132 111 132c56 0 100 -51 132 -51c22 0 35 16 42 52l72 -10c-10 -88 -45 -132 -111 -132zM74 0v687h147l331 -444v444h148v-687h-148l-331 444v-444h-147z" />
    <glyph glyph-name="O" unicode="O" horiz-adv-x="812" 
d="M406 -12c-197 0 -365 163 -365 356s168 355 365 355c199 0 365 -162 365 -355s-166 -356 -365 -356zM406 122c116 0 214 102 214 222c0 119 -98 221 -214 221c-115 0 -213 -102 -213 -221c0 -120 98 -222 213 -222z" />
    <glyph glyph-name="Oacute" unicode="&#xd3;" horiz-adv-x="812" 
d="M354 745l116 156l131 -24l-148 -132h-99zM406 -12c-197 0 -365 163 -365 356s168 355 365 355c199 0 365 -162 365 -355s-166 -356 -365 -356zM406 122c116 0 214 102 214 222c0 119 -98 221 -214 221c-115 0 -213 -102 -213 -221c0 -120 98 -222 213 -222z" />
    <glyph glyph-name="Ocircumflex" unicode="&#xd4;" horiz-adv-x="812" 
d="M241 745l105 147h121l106 -147h-91l-76 74l-75 -74h-90zM406 -12c-197 0 -365 163 -365 356s168 355 365 355c199 0 365 -162 365 -355s-166 -356 -365 -356zM406 122c116 0 214 102 214 222c0 119 -98 221 -214 221c-115 0 -213 -102 -213 -221c0 -120 98 -222 213 -222
z" />
    <glyph glyph-name="Odieresis" unicode="&#xd6;" horiz-adv-x="812" 
d="M301 754c-41 0 -71 32 -71 70s30 70 71 70c38 0 70 -32 70 -70s-32 -70 -70 -70zM512 754c-39 0 -70 32 -70 70s31 70 70 70s70 -32 70 -70s-31 -70 -70 -70zM406 -12c-197 0 -365 163 -365 356s168 355 365 355c199 0 365 -162 365 -355s-166 -356 -365 -356zM406 122
c116 0 214 102 214 222c0 119 -98 221 -214 221c-115 0 -213 -102 -213 -221c0 -120 98 -222 213 -222z" />
    <glyph glyph-name="Ograve" unicode="&#xd2;" horiz-adv-x="812" 
d="M359 745l-148 132l131 24l116 -156h-99zM406 -12c-197 0 -365 163 -365 356s168 355 365 355c199 0 365 -162 365 -355s-166 -356 -365 -356zM406 122c116 0 214 102 214 222c0 119 -98 221 -214 221c-115 0 -213 -102 -213 -221c0 -120 98 -222 213 -222z" />
    <glyph glyph-name="Ohungarumlaut" unicode="&#x150;" horiz-adv-x="812" 
d="M229 744l116 157l131 -24l-148 -133h-99zM464 744l115 156l132 -24l-148 -132h-99zM406 -12c-197 0 -365 163 -365 356s168 355 365 355c199 0 365 -162 365 -355s-166 -356 -365 -356zM406 122c116 0 214 102 214 222c0 119 -98 221 -214 221
c-115 0 -213 -102 -213 -221c0 -120 98 -222 213 -222z" />
    <glyph glyph-name="Omacron" unicode="&#x14c;" horiz-adv-x="812" 
d="M233 751v86h345v-86h-345zM406 -12c-197 0 -365 163 -365 356s168 355 365 355c199 0 365 -162 365 -355s-166 -356 -365 -356zM406 122c116 0 214 102 214 222c0 119 -98 221 -214 221c-115 0 -213 -102 -213 -221c0 -120 98 -222 213 -222z" />
    <glyph glyph-name="Oslash" unicode="&#xd8;" horiz-adv-x="812" 
d="M674 582c60 -63 97 -147 97 -238c0 -193 -166 -356 -365 -356c-69 0 -134 20 -190 54l-36 -42h-130l89 105c-61 63 -98 148 -98 239c0 193 168 355 365 355c70 0 135 -20 191 -54l36 42h130zM193 344c0 -47 15 -91 40 -128l274 322c-31 17 -65 27 -101 27
c-115 0 -213 -102 -213 -221zM406 122c116 0 214 102 214 222c0 47 -15 91 -40 127l-274 -322c30 -17 64 -27 100 -27z" />
    <glyph glyph-name="Otilde" unicode="&#xd5;" horiz-adv-x="812" 
d="M473 743c-56 0 -98 51 -131 51c-22 0 -35 -16 -42 -53l-73 11c11 87 46 132 111 132c56 0 100 -51 132 -51c22 0 35 16 42 52l72 -10c-10 -88 -45 -132 -111 -132zM406 -12c-197 0 -365 163 -365 356s168 355 365 355c199 0 365 -162 365 -355s-166 -356 -365 -356z
M406 122c116 0 214 102 214 222c0 119 -98 221 -214 221c-115 0 -213 -102 -213 -221c0 -120 98 -222 213 -222z" />
    <glyph glyph-name="OE" unicode="&#x152;" horiz-adv-x="1040" 
d="M996 554h-381v-137h345v-133h-345v-151h381v-133h-590c-197 0 -365 147 -365 340s168 347 365 347h590v-133zM406 134h61v419h-61c-115 0 -213 -94 -213 -213c0 -120 98 -206 213 -206z" />
    <glyph glyph-name="P" unicode="P" 
d="M68 0v687h309c149 0 259 -96 259 -232s-110 -232 -259 -232h-162v-223h-147zM215 358h146c73 0 123 38 123 97s-50 97 -123 97h-146v-194z" />
    <glyph glyph-name="Thorn" unicode="&#xde;" 
d="M68 0v687h145v-110h164c149 0 259 -95 259 -232c0 -136 -110 -232 -259 -232h-162v-113h-147zM215 249h146c73 0 123 37 123 96s-50 97 -123 97h-146v-193z" />
    <glyph glyph-name="Q" unicode="Q" horiz-adv-x="812" 
d="M771 344c0 -74 -24 -143 -65 -201l64 -56l-75 -87l-70 61c-61 -46 -137 -73 -219 -73c-197 0 -365 163 -365 356s168 355 365 355c199 0 365 -162 365 -355zM406 122c40 0 78 12 110 33l-80 70l75 87l83 -72c17 31 26 67 26 104c0 119 -98 221 -214 221
c-115 0 -213 -102 -213 -221c0 -120 98 -222 213 -222z" />
    <glyph glyph-name="R" unicode="R" horiz-adv-x="678" 
d="M649 0h-168l-157 223h-109v-223h-147v687h309c149 0 259 -96 259 -232c0 -102 -62 -182 -156 -215zM215 552v-194h146c73 0 123 38 123 97s-50 97 -123 97h-146z" />
    <glyph glyph-name="Racute" unicode="&#x154;" horiz-adv-x="678" 
d="M483 877l-148 -132h-99l116 156zM649 0h-168l-157 223h-109v-223h-147v687h309c149 0 259 -96 259 -232c0 -102 -62 -182 -156 -215zM215 552v-194h146c73 0 123 38 123 97s-50 97 -123 97h-146z" />
    <glyph glyph-name="Rcaron" unicode="&#x158;" horiz-adv-x="678" 
d="M400 745h-121l-105 147h90l75 -75l76 75h91zM649 0h-168l-157 223h-109v-223h-147v687h309c149 0 259 -96 259 -232c0 -102 -62 -182 -156 -215zM215 552v-194h146c73 0 123 38 123 97s-50 97 -123 97h-146z" />
    <glyph glyph-name="Rcommaaccent" unicode="&#x156;" horiz-adv-x="678" 
d="M480 240l169 -240h-168l-157 223h-109v-223h-147v687h309c149 0 259 -96 259 -232c0 -102 -62 -182 -156 -215zM215 552v-194h146c73 0 123 38 123 97s-50 97 -123 97h-146zM337 -47c44 0 73 -40 73 -95c0 -46 -26 -94 -81 -149l-41 31c24 23 41 49 47 74
c-36 0 -66 32 -66 69c0 39 30 70 68 70z" />
    <glyph glyph-name="S" unicode="S" horiz-adv-x="633" 
d="M328 -12c-119 0 -225 40 -305 114l85 101c65 -56 139 -90 226 -90c74 0 112 34 112 77c0 49 -40 64 -145 88c-145 33 -248 74 -248 207c0 127 104 214 254 214c112 0 199 -35 269 -95l-77 -106c-61 49 -130 76 -196 76c-63 0 -101 -33 -101 -74c0 -50 41 -66 147 -90
c148 -33 246 -77 246 -204c0 -131 -99 -218 -267 -218z" />
    <glyph glyph-name="Sacute" unicode="&#x15a;" horiz-adv-x="633" 
d="M204 745l116 156l131 -24l-148 -132h-99zM328 -12c-119 0 -225 40 -305 114l85 101c65 -56 139 -90 226 -90c74 0 112 34 112 77c0 49 -40 64 -145 88c-145 33 -248 74 -248 207c0 127 104 214 254 214c112 0 199 -35 269 -95l-77 -106c-61 49 -130 76 -196 76
c-63 0 -101 -33 -101 -74c0 -50 41 -66 147 -90c148 -33 246 -77 246 -204c0 -131 -99 -218 -267 -218z" />
    <glyph glyph-name="Scaron" unicode="&#x160;" horiz-adv-x="633" 
d="M247 745l-105 147h90l75 -75l76 75h91l-106 -147h-121zM328 -12c-119 0 -225 40 -305 114l85 101c65 -56 139 -90 226 -90c74 0 112 34 112 77c0 49 -40 64 -145 88c-145 33 -248 74 -248 207c0 127 104 214 254 214c112 0 199 -35 269 -95l-77 -106
c-61 49 -130 76 -196 76c-63 0 -101 -33 -101 -74c0 -50 41 -66 147 -90c148 -33 246 -77 246 -204c0 -131 -99 -218 -267 -218z" />
    <glyph glyph-name="Scedilla" unicode="&#x15e;" horiz-adv-x="633" 
d="M595 206c0 -123 -88 -208 -238 -217l-13 -32c44 0 75 -28 75 -68c0 -53 -46 -86 -108 -86c-37 0 -73 13 -95 29l26 58c18 -15 40 -23 61 -23c23 0 42 12 42 30c0 16 -12 27 -33 27c-10 0 -21 -3 -30 -9l-22 21l23 54c-101 9 -190 47 -260 112l85 101
c65 -56 139 -90 226 -90c74 0 112 34 112 77c0 49 -40 64 -145 88c-145 33 -248 74 -248 207c0 127 104 214 254 214c112 0 199 -35 269 -95l-77 -106c-61 49 -130 76 -196 76c-63 0 -101 -33 -101 -74c0 -50 41 -66 147 -90c148 -33 246 -77 246 -204z" />
    <glyph glyph-name="T" unicode="T" horiz-adv-x="639" 
d="M246 0v554h-214v133h576v-133h-214v-554h-148z" />
    <glyph glyph-name="Tcaron" unicode="&#x164;" horiz-adv-x="639" 
d="M260 745l-105 147h90l75 -75l76 75h91l-106 -147h-121zM246 0v554h-214v133h576v-133h-214v-554h-148z" />
    <glyph glyph-name="uni0162" unicode="&#x162;" horiz-adv-x="639" 
d="M394 0h-34l-17 -43c44 0 75 -28 75 -68c0 -53 -46 -86 -108 -86c-37 0 -73 13 -95 29l26 58c18 -15 40 -23 61 -23c23 0 42 12 42 30c0 16 -12 27 -33 27c-10 0 -21 -3 -30 -9l-22 21l27 64h-40v554h-214v133h576v-133h-214v-554z" />
    <glyph glyph-name="U" unicode="U" horiz-adv-x="755" 
d="M378 -12c-183 0 -311 128 -311 309v390h147v-384c0 -106 68 -181 164 -181c95 0 163 75 163 181v384h148v-390c0 -181 -129 -309 -311 -309z" />
    <glyph glyph-name="Uacute" unicode="&#xda;" horiz-adv-x="755" 
d="M275 745l116 156l131 -24l-148 -132h-99zM378 -12c-183 0 -311 128 -311 309v390h147v-384c0 -106 68 -181 164 -181c95 0 163 75 163 181v384h148v-390c0 -181 -129 -309 -311 -309z" />
    <glyph glyph-name="Ucircumflex" unicode="&#xdb;" horiz-adv-x="755" 
d="M213 745l105 147h121l106 -147h-91l-76 74l-75 -74h-90zM378 -12c-183 0 -311 128 -311 309v390h147v-384c0 -106 68 -181 164 -181c95 0 163 75 163 181v384h148v-390c0 -181 -129 -309 -311 -309z" />
    <glyph glyph-name="Udieresis" unicode="&#xdc;" horiz-adv-x="755" 
d="M273 754c-41 0 -71 32 -71 70s30 70 71 70c38 0 70 -32 70 -70s-32 -70 -70 -70zM484 754c-39 0 -70 32 -70 70s31 70 70 70s70 -32 70 -70s-31 -70 -70 -70zM378 -12c-183 0 -311 128 -311 309v390h147v-384c0 -106 68 -181 164 -181c95 0 163 75 163 181v384h148v-390
c0 -181 -129 -309 -311 -309z" />
    <glyph glyph-name="Ugrave" unicode="&#xd9;" horiz-adv-x="755" 
d="M373 745l-148 132l131 24l116 -156h-99zM378 -12c-183 0 -311 128 -311 309v390h147v-384c0 -106 68 -181 164 -181c95 0 163 75 163 181v384h148v-390c0 -181 -129 -309 -311 -309z" />
    <glyph glyph-name="Uhungarumlaut" unicode="&#x170;" horiz-adv-x="755" 
d="M191 744l116 157l131 -24l-148 -133h-99zM426 744l115 156l132 -24l-148 -132h-99zM378 -12c-183 0 -311 128 -311 309v390h147v-384c0 -106 68 -181 164 -181c95 0 163 75 163 181v384h148v-390c0 -181 -129 -309 -311 -309z" />
    <glyph glyph-name="Umacron" unicode="&#x16a;" horiz-adv-x="755" 
d="M205 751v86h345v-86h-345zM378 -12c-183 0 -311 128 -311 309v390h147v-384c0 -106 68 -181 164 -181c95 0 163 75 163 181v384h148v-390c0 -181 -129 -309 -311 -309z" />
    <glyph glyph-name="Uogonek" unicode="&#x172;" horiz-adv-x="755" 
d="M541 687h148v-390c0 -178 -125 -305 -303 -309c-8 -8 -13 -19 -13 -32c0 -27 18 -41 46 -41c15 0 29 5 37 13l26 -68c-22 -20 -53 -33 -89 -33c-65 0 -111 42 -111 111c0 23 6 42 16 59c-139 31 -231 147 -231 300v390h147v-384c0 -106 68 -181 164 -181
c95 0 163 75 163 181v384z" />
    <glyph glyph-name="Uring" unicode="&#x16e;" horiz-adv-x="755" 
d="M378 751c-63 0 -114 50 -114 113s51 114 114 114s114 -51 114 -114s-51 -113 -114 -113zM378 811c29 0 53 24 53 53s-24 53 -53 53s-53 -24 -53 -53s24 -53 53 -53zM378 -12c-183 0 -311 128 -311 309v390h147v-384c0 -106 68 -181 164 -181c95 0 163 75 163 181v384h148
v-390c0 -181 -129 -309 -311 -309z" />
    <glyph glyph-name="V" unicode="V" horiz-adv-x="751" 
d="M573 687h165l-280 -687h-165l-280 687h166l197 -484z" />
    <glyph glyph-name="W" unicode="W" horiz-adv-x="1078" 
d="M228 0l-208 687h160l127 -461l152 461h160l152 -461l127 461h160l-208 -687h-148l-162 472l-163 -472h-149z" />
    <glyph glyph-name="Wacute" unicode="&#x1e82;" horiz-adv-x="1078" 
d="M488 745l116 156l131 -24l-148 -132h-99zM228 0l-208 687h160l127 -461l152 461h160l152 -461l127 461h160l-208 -687h-148l-162 472l-163 -472h-149z" />
    <glyph glyph-name="Wcircumflex" unicode="&#x174;" horiz-adv-x="1078" 
d="M375 745l105 147h121l106 -147h-91l-76 74l-75 -74h-90zM228 0l-208 687h160l127 -461l152 461h160l152 -461l127 461h160l-208 -687h-148l-162 472l-163 -472h-149z" />
    <glyph glyph-name="Wdieresis" unicode="&#x1e84;" horiz-adv-x="1078" 
d="M435 754c-41 0 -71 32 -71 70s30 70 71 70c38 0 70 -32 70 -70s-32 -70 -70 -70zM646 754c-39 0 -70 32 -70 70s31 70 70 70s70 -32 70 -70s-31 -70 -70 -70zM228 0l-208 687h160l127 -461l152 461h160l152 -461l127 461h160l-208 -687h-148l-162 472l-163 -472h-149z
" />
    <glyph glyph-name="Wgrave" unicode="&#x1e80;" horiz-adv-x="1078" 
d="M491 745l-148 132l131 24l116 -156h-99zM228 0l-208 687h160l127 -461l152 461h160l152 -461l127 461h160l-208 -687h-148l-162 472l-163 -472h-149z" />
    <glyph glyph-name="X" unicode="X" horiz-adv-x="711" 
d="M694 687l-252 -342l252 -345h-175l-164 225l-166 -225h-171l251 342l-251 345h174l165 -225l165 225h172z" />
    <glyph glyph-name="Y" unicode="Y" horiz-adv-x="694" 
d="M273 0v248l-269 439h172l171 -301l178 301h165l-268 -439v-248h-149z" />
    <glyph glyph-name="Yacute" unicode="&#xdd;" horiz-adv-x="694" 
d="M244 745l116 156l131 -24l-148 -132h-99zM273 0v248l-269 439h172l171 -301l178 301h165l-268 -439v-248h-149z" />
    <glyph glyph-name="Ycircumflex" unicode="&#x176;" horiz-adv-x="694" 
d="M182 745l105 147h121l106 -147h-91l-76 74l-75 -74h-90zM273 0v248l-269 439h172l171 -301l178 301h165l-268 -439v-248h-149z" />
    <glyph glyph-name="Ydieresis" unicode="&#x178;" horiz-adv-x="694" 
d="M242 754c-41 0 -71 32 -71 70s30 70 71 70c38 0 70 -32 70 -70s-32 -70 -70 -70zM453 754c-39 0 -70 32 -70 70s31 70 70 70s70 -32 70 -70s-31 -70 -70 -70zM273 0v248l-269 439h172l171 -301l178 301h165l-268 -439v-248h-149z" />
    <glyph glyph-name="Ygrave" unicode="&#x1ef2;" horiz-adv-x="694" 
d="M342 745l-148 132l131 24l116 -156h-99zM273 0v248l-269 439h172l171 -301l178 301h165l-268 -439v-248h-149z" />
    <glyph glyph-name="Z" unicode="Z" horiz-adv-x="661" 
d="M48 0l-1 112l361 442h-353v133h556v-112l-361 -442h365v-133h-567z" />
    <glyph glyph-name="Zacute" unicode="&#x179;" horiz-adv-x="661" 
d="M232 745l116 156l131 -24l-148 -132h-99zM48 0l-1 112l361 442h-353v133h556v-112l-361 -442h365v-133h-567z" />
    <glyph glyph-name="Zcaron" unicode="&#x17d;" horiz-adv-x="661" 
d="M275 745l-105 147h90l75 -75l76 75h91l-106 -147h-121zM48 0l-1 112l361 442h-353v133h556v-112l-361 -442h365v-133h-567z" />
    <glyph glyph-name="Zdotaccent" unicode="&#x17b;" horiz-adv-x="661" 
d="M335 754c-41 0 -71 32 -71 70s30 70 71 70c38 0 70 -32 70 -70s-32 -70 -70 -70zM48 0l-1 112l361 442h-353v133h556v-112l-361 -442h365v-133h-567z" />
    <glyph glyph-name="a" unicode="a" horiz-adv-x="581" 
d="M295 529c135 0 227 -85 227 -220v-309h-141v52c-37 -42 -96 -64 -152 -64c-110 0 -195 66 -195 165c0 102 95 172 215 172c42 0 88 -9 132 -26v10c0 55 -34 103 -119 103c-48 0 -93 -16 -134 -37l-49 97c73 37 144 57 216 57zM262 89c56 0 109 26 119 74v48
c-33 12 -71 19 -111 19c-53 0 -95 -31 -95 -73s37 -68 87 -68z" />
    <glyph glyph-name="aacute" unicode="&#xe1;" horiz-adv-x="581" 
d="M444 707l-148 -132h-99l116 156zM295 529c135 0 227 -85 227 -220v-309h-141v52c-37 -42 -96 -64 -152 -64c-110 0 -195 66 -195 165c0 102 95 172 215 172c42 0 88 -9 132 -26v10c0 55 -34 103 -119 103c-48 0 -93 -16 -134 -37l-49 97c73 37 144 57 216 57zM262 89
c56 0 109 26 119 74v48c-33 12 -71 19 -111 19c-53 0 -95 -31 -95 -73s37 -68 87 -68z" />
    <glyph glyph-name="abreve" unicode="&#x103;" horiz-adv-x="581" 
d="M461 647c-44 -44 -103 -66 -161 -66s-116 22 -161 66l63 63c27 -26 64 -42 98 -42s71 16 98 42zM295 529c135 0 227 -85 227 -220v-309h-141v52c-37 -42 -96 -64 -152 -64c-110 0 -195 66 -195 165c0 102 95 172 215 172c42 0 88 -9 132 -26v10c0 55 -34 103 -119 103
c-48 0 -93 -16 -134 -37l-49 97c73 37 144 57 216 57zM262 89c56 0 109 26 119 74v48c-33 12 -71 19 -111 19c-53 0 -95 -31 -95 -73s37 -68 87 -68z" />
    <glyph glyph-name="acircumflex" unicode="&#xe2;" horiz-adv-x="581" 
d="M300 649l-75 -74h-90l105 147h121l106 -147h-91zM295 529c135 0 227 -85 227 -220v-309h-141v52c-37 -42 -96 -64 -152 -64c-110 0 -195 66 -195 165c0 102 95 172 215 172c42 0 88 -9 132 -26v10c0 55 -34 103 -119 103c-48 0 -93 -16 -134 -37l-49 97
c73 37 144 57 216 57zM262 89c56 0 109 26 119 74v48c-33 12 -71 19 -111 19c-53 0 -95 -31 -95 -73s37 -68 87 -68z" />
    <glyph glyph-name="adieresis" unicode="&#xe4;" horiz-adv-x="581" 
d="M195 584c-41 0 -71 32 -71 70s30 70 71 70c38 0 70 -32 70 -70s-32 -70 -70 -70zM406 584c-39 0 -70 32 -70 70s31 70 70 70s70 -32 70 -70s-31 -70 -70 -70zM295 529c135 0 227 -85 227 -220v-309h-141v52c-37 -42 -96 -64 -152 -64c-110 0 -195 66 -195 165
c0 102 95 172 215 172c42 0 88 -9 132 -26v10c0 55 -34 103 -119 103c-48 0 -93 -16 -134 -37l-49 97c73 37 144 57 216 57zM262 89c56 0 109 26 119 74v48c-33 12 -71 19 -111 19c-53 0 -95 -31 -95 -73s37 -68 87 -68z" />
    <glyph glyph-name="agrave" unicode="&#xe0;" horiz-adv-x="581" 
d="M394 575h-99l-148 132l131 24zM295 529c135 0 227 -85 227 -220v-309h-141v52c-37 -42 -96 -64 -152 -64c-110 0 -195 66 -195 165c0 102 95 172 215 172c42 0 88 -9 132 -26v10c0 55 -34 103 -119 103c-48 0 -93 -16 -134 -37l-49 97c73 37 144 57 216 57zM262 89
c56 0 109 26 119 74v48c-33 12 -71 19 -111 19c-53 0 -95 -31 -95 -73s37 -68 87 -68z" />
    <glyph glyph-name="amacron" unicode="&#x101;" horiz-adv-x="581" 
d="M472 667v-86h-345v86h345zM295 529c135 0 227 -85 227 -220v-309h-141v52c-37 -42 -96 -64 -152 -64c-110 0 -195 66 -195 165c0 102 95 172 215 172c42 0 88 -9 132 -26v10c0 55 -34 103 -119 103c-48 0 -93 -16 -134 -37l-49 97c73 37 144 57 216 57zM262 89
c56 0 109 26 119 74v48c-33 12 -71 19 -111 19c-53 0 -95 -31 -95 -73s37 -68 87 -68z" />
    <glyph glyph-name="aogonek" unicode="&#x105;" horiz-adv-x="581" 
d="M559 -72l26 -68c-22 -20 -53 -33 -89 -33c-65 0 -111 42 -111 111c0 24 7 45 18 62h-22v52c-37 -42 -96 -64 -152 -64c-110 0 -195 66 -195 165c0 102 95 172 215 172c42 0 88 -9 132 -26v10c0 55 -34 103 -119 103c-48 0 -93 -16 -134 -37l-49 97c73 37 144 57 216 57
c135 0 227 -85 227 -220v-309c-28 0 -46 -19 -46 -44c0 -27 18 -41 46 -41c15 0 29 5 37 13zM262 89c56 0 109 26 119 74v48c-33 12 -71 19 -111 19c-53 0 -95 -31 -95 -73s37 -68 87 -68z" />
    <glyph glyph-name="aring" unicode="&#xe5;" horiz-adv-x="581" 
d="M300 581c-63 0 -114 50 -114 113s51 114 114 114s114 -51 114 -114s-51 -113 -114 -113zM300 747c-29 0 -53 -24 -53 -53s24 -53 53 -53s53 24 53 53s-24 53 -53 53zM295 529c135 0 227 -85 227 -220v-309h-141v52c-37 -42 -96 -64 -152 -64c-110 0 -195 66 -195 165
c0 102 95 172 215 172c42 0 88 -9 132 -26v10c0 55 -34 103 -119 103c-48 0 -93 -16 -134 -37l-49 97c73 37 144 57 216 57zM262 89c56 0 109 26 119 74v48c-33 12 -71 19 -111 19c-53 0 -95 -31 -95 -73s37 -68 87 -68z" />
    <glyph glyph-name="atilde" unicode="&#xe3;" horiz-adv-x="581" 
d="M236 624c-22 0 -35 -16 -42 -53l-73 11c11 87 46 132 111 132c56 0 100 -51 132 -51c22 0 35 16 42 52l72 -10c-10 -88 -45 -132 -111 -132c-56 0 -98 51 -131 51zM295 529c135 0 227 -85 227 -220v-309h-141v52c-37 -42 -96 -64 -152 -64c-110 0 -195 66 -195 165
c0 102 95 172 215 172c42 0 88 -9 132 -26v10c0 55 -34 103 -119 103c-48 0 -93 -16 -134 -37l-49 97c73 37 144 57 216 57zM262 89c56 0 109 26 119 74v48c-33 12 -71 19 -111 19c-53 0 -95 -31 -95 -73s37 -68 87 -68z" />
    <glyph glyph-name="ae" unicode="&#xe6;" horiz-adv-x="938" 
d="M654 117c41 0 91 19 119 46l93 -95c-46 -48 -135 -80 -211 -80c-82 0 -154 32 -204 86c-42 -54 -112 -86 -200 -86c-131 0 -217 65 -217 165c0 102 95 172 215 172c42 0 88 -9 132 -26v10c0 55 -34 103 -119 103c-48 0 -93 -16 -134 -37l-49 97c73 37 132 57 204 57
c78 0 138 -29 173 -77c48 48 115 77 191 77c162 0 257 -123 257 -318h-373c17 -56 62 -94 123 -94zM653 400c-55 0 -101 -32 -120 -84h231c-14 51 -52 84 -111 84zM266 89c67 0 115 38 115 90v32c-33 12 -71 19 -111 19c-53 0 -95 -31 -95 -73s35 -68 91 -68z" />
    <glyph glyph-name="b" unicode="b" 
d="M383 529c138 0 238 -112 238 -270c0 -159 -100 -271 -238 -271c-72 0 -132 31 -173 85v-73h-146v699h146v-254c41 53 101 84 173 84zM341 111c81 0 138 61 138 148c0 86 -57 147 -138 147c-71 0 -123 -52 -131 -127v-40c8 -76 60 -128 131 -128z" />
    <glyph glyph-name="c" unicode="c" horiz-adv-x="548" 
d="M317 -12c-153 0 -282 124 -282 271s130 270 283 270c84 0 153 -34 203 -88l-97 -83c-26 29 -67 48 -107 48c-76 0 -140 -67 -140 -146c0 -81 64 -149 141 -149c40 0 82 20 109 50l97 -82c-51 -56 -121 -91 -207 -91z" />
    <glyph glyph-name="cacute" unicode="&#x107;" horiz-adv-x="548" 
d="M194 575l116 156l131 -24l-148 -132h-99zM317 -12c-153 0 -282 124 -282 271s130 270 283 270c84 0 153 -34 203 -88l-97 -83c-26 29 -67 48 -107 48c-76 0 -140 -67 -140 -146c0 -81 64 -149 141 -149c40 0 82 20 109 50l97 -82c-51 -56 -121 -91 -207 -91z" />
    <glyph glyph-name="ccaron" unicode="&#x10d;" horiz-adv-x="548" 
d="M237 575l-105 147h90l75 -75l76 75h91l-106 -147h-121zM317 -12c-153 0 -282 124 -282 271s130 270 283 270c84 0 153 -34 203 -88l-97 -83c-26 29 -67 48 -107 48c-76 0 -140 -67 -140 -146c0 -81 64 -149 141 -149c40 0 82 20 109 50l97 -82c-51 -56 -121 -91 -207 -91
z" />
    <glyph glyph-name="ccedilla" unicode="&#xe7;" horiz-adv-x="548" 
d="M524 79c-45 -49 -105 -82 -177 -90l-13 -32c44 0 75 -28 75 -68c0 -53 -46 -86 -108 -86c-37 0 -73 13 -95 29l26 58c18 -15 40 -23 61 -23c23 0 42 12 42 30c0 16 -12 27 -33 27c-10 0 -21 -3 -30 -9l-22 21l24 55c-134 21 -239 135 -239 268c0 147 130 270 283 270
c84 0 153 -34 203 -88l-97 -83c-26 29 -67 48 -107 48c-76 0 -140 -67 -140 -146c0 -81 64 -149 141 -149c40 0 82 20 109 50z" />
    <glyph glyph-name="d" unicode="d" 
d="M450 699h146v-699h-146v74c-41 -54 -101 -86 -174 -86c-138 0 -238 112 -238 271c0 158 100 270 238 270c73 0 133 -32 174 -86v256zM318 111c77 0 132 61 132 148c0 86 -55 147 -132 147c-81 0 -138 -61 -138 -147c0 -87 57 -148 138 -148z" />
    <glyph glyph-name="eth" unicode="&#xf0;" horiz-adv-x="632" 
d="M418 615c115 -108 171 -206 171 -335c0 -171 -112 -292 -272 -292c-159 0 -272 109 -272 262c0 143 93 244 225 244c66 0 114 -27 153 -72c-26 51 -68 97 -121 141l-104 -46l-35 77l63 28c-24 16 -47 32 -72 48l131 56c22 -17 43 -34 63 -50l90 40l34 -77zM318 112
c76 0 129 54 129 132c0 73 -51 132 -131 132c-76 0 -129 -55 -129 -131c0 -78 54 -133 131 -133z" />
    <glyph glyph-name="dcaron" unicode="&#x10f;" 
d="M450 443v256h146v-699h-146v74c-41 -54 -101 -86 -174 -86c-138 0 -238 112 -238 271c0 158 100 270 238 270c73 0 133 -32 174 -86zM730 699c44 0 73 -40 73 -95c0 -46 -26 -94 -81 -149l-41 31c24 23 41 49 47 74c-36 0 -66 32 -66 69c0 39 30 70 68 70zM318 111
c77 0 132 61 132 148c0 86 -55 147 -132 147c-81 0 -138 -61 -138 -147c0 -87 57 -148 138 -148z" />
    <glyph glyph-name="dcroat" unicode="&#x111;" horiz-adv-x="686" 
d="M656 647v-74h-60v-573h-146v74c-41 -54 -101 -86 -174 -86c-138 0 -238 112 -238 271c0 158 100 270 238 270c73 0 133 -32 174 -86v130h-152v74h152v52h146v-52h60zM318 111c77 0 132 61 132 148c0 86 -55 147 -132 147c-81 0 -138 -61 -138 -147
c0 -87 57 -148 138 -148z" />
    <glyph glyph-name="e" unicode="e" horiz-adv-x="593" 
d="M308 117c41 0 91 19 119 46l93 -95c-46 -48 -135 -80 -211 -80c-154 0 -274 113 -274 272c0 156 115 269 266 269c162 0 257 -123 257 -318h-373c17 -56 62 -94 123 -94zM307 400c-55 0 -101 -32 -120 -84h231c-14 51 -52 84 -111 84z" />
    <glyph glyph-name="eacute" unicode="&#xe9;" horiz-adv-x="593" 
d="M445 707l-148 -132h-99l116 156zM308 117c41 0 91 19 119 46l93 -95c-46 -48 -135 -80 -211 -80c-154 0 -274 113 -274 272c0 156 115 269 266 269c162 0 257 -123 257 -318h-373c17 -56 62 -94 123 -94zM307 400c-55 0 -101 -32 -120 -84h231c-14 51 -52 84 -111 84z
" />
    <glyph glyph-name="ecaron" unicode="&#x11b;" horiz-adv-x="593" 
d="M362 575h-121l-105 147h90l75 -75l76 75h91zM308 117c41 0 91 19 119 46l93 -95c-46 -48 -135 -80 -211 -80c-154 0 -274 113 -274 272c0 156 115 269 266 269c162 0 257 -123 257 -318h-373c17 -56 62 -94 123 -94zM307 400c-55 0 -101 -32 -120 -84h231
c-14 51 -52 84 -111 84z" />
    <glyph glyph-name="ecircumflex" unicode="&#xea;" horiz-adv-x="593" 
d="M301 649l-75 -74h-90l105 147h121l106 -147h-91zM308 117c41 0 91 19 119 46l93 -95c-46 -48 -135 -80 -211 -80c-154 0 -274 113 -274 272c0 156 115 269 266 269c162 0 257 -123 257 -318h-373c17 -56 62 -94 123 -94zM307 400c-55 0 -101 -32 -120 -84h231
c-14 51 -52 84 -111 84z" />
    <glyph glyph-name="edieresis" unicode="&#xeb;" horiz-adv-x="593" 
d="M196 584c-41 0 -71 32 -71 70s30 70 71 70c38 0 70 -32 70 -70s-32 -70 -70 -70zM407 584c-39 0 -70 32 -70 70s31 70 70 70s70 -32 70 -70s-31 -70 -70 -70zM308 117c41 0 91 19 119 46l93 -95c-46 -48 -135 -80 -211 -80c-154 0 -274 113 -274 272
c0 156 115 269 266 269c162 0 257 -123 257 -318h-373c17 -56 62 -94 123 -94zM307 400c-55 0 -101 -32 -120 -84h231c-14 51 -52 84 -111 84z" />
    <glyph glyph-name="edotaccent" unicode="&#x117;" horiz-adv-x="593" 
d="M301 584c-41 0 -71 32 -71 70s30 70 71 70c38 0 70 -32 70 -70s-32 -70 -70 -70zM308 117c41 0 91 19 119 46l93 -95c-46 -48 -135 -80 -211 -80c-154 0 -274 113 -274 272c0 156 115 269 266 269c162 0 257 -123 257 -318h-373c17 -56 62 -94 123 -94zM307 400
c-55 0 -101 -32 -120 -84h231c-14 51 -52 84 -111 84z" />
    <glyph glyph-name="uni1EB9" unicode="&#x1eb9;" horiz-adv-x="592" 
d="M308 117c41 0 91 19 119 46l93 -95c-46 -48 -135 -80 -211 -80c-154 0 -274 113 -274 272c0 156 115 269 266 269c162 0 257 -123 257 -318h-373c17 -56 62 -94 123 -94zM307 400c-55 0 -101 -32 -120 -84h231c-14 51 -52 84 -111 84zM299 -71c38 0 70 -32 70 -70
s-32 -70 -70 -70c-41 0 -71 32 -71 70s30 70 71 70z" />
    <glyph glyph-name="egrave" unicode="&#xe8;" horiz-adv-x="593" 
d="M395 575h-99l-148 132l131 24zM308 117c41 0 91 19 119 46l93 -95c-46 -48 -135 -80 -211 -80c-154 0 -274 113 -274 272c0 156 115 269 266 269c162 0 257 -123 257 -318h-373c17 -56 62 -94 123 -94zM307 400c-55 0 -101 -32 -120 -84h231c-14 51 -52 84 -111 84z" />
    <glyph glyph-name="emacron" unicode="&#x113;" horiz-adv-x="593" 
d="M473 667v-86h-345v86h345zM308 117c41 0 91 19 119 46l93 -95c-46 -48 -135 -80 -211 -80c-154 0 -274 113 -274 272c0 156 115 269 266 269c162 0 257 -123 257 -318h-373c17 -56 62 -94 123 -94zM307 400c-55 0 -101 -32 -120 -84h231c-14 51 -52 84 -111 84z" />
    <glyph glyph-name="eogonek" unicode="&#x119;" horiz-adv-x="592" 
d="M520 68c-24 -25 -60 -46 -99 -60c-7 -7 -10 -17 -10 -28c0 -27 18 -41 46 -41c15 0 29 5 37 13l26 -68c-22 -20 -53 -33 -89 -33c-65 0 -111 42 -111 111c0 9 1 18 3 26h-14c-154 0 -274 113 -274 272c0 156 115 269 266 269c162 0 257 -123 257 -318h-373
c17 -56 62 -94 123 -94c41 0 91 19 119 46zM307 400c-55 0 -101 -32 -120 -84h231c-14 51 -52 84 -111 84z" />
    <glyph glyph-name="uni1EBD" unicode="&#x1ebd;" horiz-adv-x="593" 
d="M237 624c-22 0 -35 -16 -42 -53l-73 11c11 87 46 132 111 132c56 0 100 -51 132 -51c22 0 35 16 42 52l72 -10c-10 -88 -45 -132 -111 -132c-56 0 -98 51 -131 51zM308 117c41 0 91 19 119 46l93 -95c-46 -48 -135 -80 -211 -80c-154 0 -274 113 -274 272
c0 156 115 269 266 269c162 0 257 -123 257 -318h-373c17 -56 62 -94 123 -94zM307 400c-55 0 -101 -32 -120 -84h231c-14 51 -52 84 -111 84z" />
    <glyph glyph-name="f" unicode="f" horiz-adv-x="379" 
d="M237 545v-28h112v-118h-112v-399h-140v399h-71v118h71v45c0 93 64 158 155 158c42 0 89 -18 119 -45l-35 -89c-10 10 -30 17 -50 17c-27 0 -49 -24 -49 -58z" />
    <glyph glyph-name="g" unicode="g" horiz-adv-x="649" 
d="M438 517h147v-462c0 -133 -115 -227 -278 -227c-91 0 -177 29 -228 69l51 103c34 -30 94 -49 154 -49c94 0 154 43 154 110v57c-41 -50 -103 -80 -171 -80c-130 0 -229 102 -229 246s99 245 229 245c70 0 136 -33 171 -82v70zM313 161c73 0 125 51 125 123
s-52 122 -125 122s-125 -50 -125 -122s52 -123 125 -123z" />
    <glyph glyph-name="gbreve" unicode="&#x11f;" horiz-adv-x="649" 
d="M498 647c-44 -44 -103 -66 -161 -66s-116 22 -161 66l63 63c27 -26 64 -42 98 -42s71 16 98 42zM438 517h147v-462c0 -133 -115 -227 -278 -227c-91 0 -177 29 -228 69l51 103c34 -30 94 -49 154 -49c94 0 154 43 154 110v57c-41 -50 -103 -80 -171 -80
c-130 0 -229 102 -229 246s99 245 229 245c70 0 136 -33 171 -82v70zM313 161c73 0 125 51 125 123s-52 122 -125 122s-125 -50 -125 -122s52 -123 125 -123z" />
    <glyph glyph-name="gcommaaccent" unicode="&#x123;" horiz-adv-x="649" 
d="M318 585c-44 0 -73 40 -73 95c0 46 26 94 81 149l41 -31c-24 -23 -41 -49 -47 -74c36 0 66 -32 66 -69c0 -39 -30 -70 -68 -70zM438 517h147v-462c0 -133 -115 -227 -278 -227c-91 0 -177 29 -228 69l51 103c34 -30 94 -49 154 -49c94 0 154 43 154 110v57
c-41 -50 -103 -80 -171 -80c-130 0 -229 102 -229 246s99 245 229 245c70 0 136 -33 171 -82v70zM313 161c73 0 125 51 125 123s-52 122 -125 122s-125 -50 -125 -122s52 -123 125 -123z" />
    <glyph glyph-name="h" unicode="h" horiz-adv-x="614" 
d="M363 529c112 0 192 -83 192 -200v-329h-141v298c0 64 -40 108 -98 108c-61 0 -108 -44 -108 -100v-306h-146v699h146v-245c32 45 89 75 155 75z" />
    <glyph glyph-name="i" unicode="i" horiz-adv-x="272" 
d="M137 588c-45 0 -80 36 -80 80c0 41 35 78 80 78c43 0 78 -37 78 -78c0 -44 -35 -80 -78 -80zM63 0v517h146v-517h-146z" />
    <glyph glyph-name="dotlessi" unicode="&#x131;" horiz-adv-x="272" 
d="M63 0v517h146v-517h-146z" />
    <glyph glyph-name="iacute" unicode="&#xed;" horiz-adv-x="272" 
d="M85 575l116 156l131 -24l-148 -132h-99zM63 0v517h146v-517h-146z" />
    <glyph glyph-name="icircumflex" unicode="&#xee;" horiz-adv-x="272" 
d="M-29 575l105 147h121l106 -147h-91l-76 74l-75 -74h-90zM63 0v517h146v-517h-146z" />
    <glyph glyph-name="idieresis" unicode="&#xef;" horiz-adv-x="272" 
d="M31 584c-41 0 -71 32 -71 70s30 70 71 70c38 0 70 -32 70 -70s-32 -70 -70 -70zM242 584c-39 0 -70 32 -70 70s31 70 70 70s70 -32 70 -70s-31 -70 -70 -70zM63 0v517h146v-517h-146z" />
    <glyph glyph-name="igrave" unicode="&#xec;" horiz-adv-x="272" 
d="M87 575l-148 132l131 24l116 -156h-99zM63 0v517h146v-517h-146z" />
    <glyph glyph-name="imacron" unicode="&#x12b;" horiz-adv-x="272" 
d="M-37 581v86h345v-86h-345zM63 0v517h146v-517h-146z" />
    <glyph glyph-name="iogonek" unicode="&#x12f;" horiz-adv-x="272" 
d="M136 584c-41 0 -71 32 -71 70s30 70 71 70c38 0 70 -32 70 -70s-32 -70 -70 -70zM136 0c-28 0 -46 -19 -46 -44c0 -27 18 -41 46 -41c15 0 29 5 37 13l26 -68c-22 -20 -53 -33 -89 -33c-65 0 -111 42 -111 111c0 42 20 74 52 92l12 -4v491h146v-517h-73z" />
    <glyph glyph-name="j" unicode="j" horiz-adv-x="272" 
d="M137 588c-45 0 -80 36 -80 80c0 41 35 78 80 78c43 0 78 -37 78 -78c0 -44 -35 -80 -78 -80zM48 -178c-36 0 -78 9 -103 21l15 108c14 -5 36 -9 54 -9c29 0 49 24 49 58v517h146v-532c0 -95 -67 -163 -161 -163z" />
    <glyph glyph-name="uni0237" unicode="&#x237;" horiz-adv-x="272" 
d="M48 -178c-36 0 -78 9 -103 21l15 108c14 -5 36 -9 54 -9c29 0 49 24 49 58v517h146v-532c0 -95 -67 -163 -161 -163z" />
    <glyph glyph-name="k" unicode="k" horiz-adv-x="571" 
d="M567 517l-201 -229l199 -288h-168l-128 194l-62 -67v-127h-146v699h146v-405l192 223h168z" />
    <glyph glyph-name="kcommaaccent" unicode="&#x137;" horiz-adv-x="571" 
d="M567 517l-201 -229l199 -288h-168l-128 194l-62 -67v-127h-146v699h146v-405l192 223h168zM297 -47c44 0 73 -40 73 -95c0 -46 -26 -94 -81 -149l-41 31c24 23 41 49 47 74c-36 0 -66 32 -66 69c0 39 30 70 68 70z" />
    <glyph glyph-name="l" unicode="l" horiz-adv-x="273" 
d="M64 0v699h146v-699h-146z" />
    <glyph glyph-name="lacute" unicode="&#x13a;" horiz-adv-x="273" 
d="M85 757l116 156l131 -24l-148 -132h-99zM64 0v699h146v-699h-146z" />
    <glyph glyph-name="lcaron" unicode="&#x13e;" horiz-adv-x="273" 
d="M64 0v699h146v-699h-146zM336 455l-41 31c24 23 41 49 47 74c-36 0 -66 32 -66 69c0 39 30 70 68 70c44 0 73 -40 73 -95c0 -46 -26 -94 -81 -149z" />
    <glyph glyph-name="lslash" unicode="&#x142;" horiz-adv-x="353" 
d="M328 482v-130l-79 -40v-312h-146v239l-77 -39v131l77 39v329h146v-256z" />
    <glyph glyph-name="m" unicode="m" horiz-adv-x="929" 
d="M679 529c108 0 191 -83 191 -200v-330h-140v305c0 60 -38 102 -92 102c-58 0 -100 -39 -100 -94v-313h-140v305c0 60 -38 102 -91 102c-59 0 -100 -39 -100 -94v-312h-146v517h146v-68c25 49 76 80 140 80c71 0 132 -36 164 -94c27 57 91 94 168 94z" />
    <glyph glyph-name="n" unicode="n" horiz-adv-x="614" 
d="M363 529c112 0 192 -83 192 -200v-329h-141v298c0 64 -40 108 -98 108c-61 0 -108 -44 -108 -100l-1 3v-309h-146v517h146v-65c31 47 89 77 156 77z" />
    <glyph glyph-name="nacute" unicode="&#x144;" horiz-adv-x="614" 
d="M463 707l-148 -132h-99l116 156zM363 529c112 0 192 -83 192 -200v-329h-141v298c0 64 -40 108 -98 108c-61 0 -108 -44 -108 -100l-1 3v-309h-146v517h146v-65c31 47 89 77 156 77z" />
    <glyph glyph-name="ncaron" unicode="&#x148;" horiz-adv-x="614" 
d="M380 575h-121l-105 147h90l75 -75l76 75h91zM363 529c112 0 192 -83 192 -200v-329h-141v298c0 64 -40 108 -98 108c-61 0 -108 -44 -108 -100l-1 3v-309h-146v517h146v-65c31 47 89 77 156 77z" />
    <glyph glyph-name="ncommaaccent" unicode="&#x146;" horiz-adv-x="614" 
d="M363 529c112 0 192 -83 192 -200v-329h-141v298c0 64 -40 108 -98 108c-61 0 -108 -44 -108 -100l-1 3v-309h-146v517h146v-65c31 47 89 77 156 77zM319 -47c44 0 73 -40 73 -95c0 -46 -26 -94 -81 -149l-41 31c24 23 41 49 47 74c-36 0 -66 32 -66 69c0 39 30 70 68 70z
" />
    <glyph glyph-name="ntilde" unicode="&#xf1;" horiz-adv-x="614" 
d="M255 624c-22 0 -35 -16 -42 -53l-73 11c11 87 46 132 111 132c56 0 100 -51 132 -51c22 0 35 16 42 52l72 -10c-10 -88 -45 -132 -111 -132c-56 0 -98 51 -131 51zM363 529c112 0 192 -83 192 -200v-329h-141v298c0 64 -40 108 -98 108c-61 0 -108 -44 -108 -100l-1 3
v-309h-146v517h146v-65c31 47 89 77 156 77z" />
    <glyph glyph-name="o" unicode="o" horiz-adv-x="634" 
d="M318 -12c-154 0 -283 124 -283 271s129 270 283 270c153 0 281 -123 281 -270s-128 -271 -281 -271zM318 111c77 0 142 68 142 148s-65 147 -142 147c-78 0 -143 -67 -143 -147s65 -148 143 -148z" />
    <glyph glyph-name="oacute" unicode="&#xf3;" horiz-adv-x="634" 
d="M215 575l116 156l131 -24l-148 -132h-99zM318 -12c-154 0 -283 124 -283 271s129 270 283 270c153 0 281 -123 281 -270s-128 -271 -281 -271zM318 111c77 0 142 68 142 148s-65 147 -142 147c-78 0 -143 -67 -143 -147s65 -148 143 -148z" />
    <glyph glyph-name="ocircumflex" unicode="&#xf4;" horiz-adv-x="634" 
d="M153 575l105 147h121l106 -147h-91l-76 74l-75 -74h-90zM318 -12c-154 0 -283 124 -283 271s129 270 283 270c153 0 281 -123 281 -270s-128 -271 -281 -271zM318 111c77 0 142 68 142 148s-65 147 -142 147c-78 0 -143 -67 -143 -147s65 -148 143 -148z" />
    <glyph glyph-name="odieresis" unicode="&#xf6;" horiz-adv-x="634" 
d="M213 584c-41 0 -71 32 -71 70s30 70 71 70c38 0 70 -32 70 -70s-32 -70 -70 -70zM424 584c-39 0 -70 32 -70 70s31 70 70 70s70 -32 70 -70s-31 -70 -70 -70zM318 -12c-154 0 -283 124 -283 271s129 270 283 270c153 0 281 -123 281 -270s-128 -271 -281 -271zM318 111
c77 0 142 68 142 148s-65 147 -142 147c-78 0 -143 -67 -143 -147s65 -148 143 -148z" />
    <glyph glyph-name="ograve" unicode="&#xf2;" horiz-adv-x="634" 
d="M313 575l-148 132l131 24l116 -156h-99zM318 -12c-154 0 -283 124 -283 271s129 270 283 270c153 0 281 -123 281 -270s-128 -271 -281 -271zM318 111c77 0 142 68 142 148s-65 147 -142 147c-78 0 -143 -67 -143 -147s65 -148 143 -148z" />
    <glyph glyph-name="ohungarumlaut" unicode="&#x151;" horiz-adv-x="634" 
d="M144 574l116 157l131 -24l-148 -133h-99zM379 574l115 156l132 -24l-148 -132h-99zM318 -12c-154 0 -283 124 -283 271s129 270 283 270c153 0 281 -123 281 -270s-128 -271 -281 -271zM318 111c77 0 142 68 142 148s-65 147 -142 147c-78 0 -143 -67 -143 -147
s65 -148 143 -148z" />
    <glyph glyph-name="omacron" unicode="&#x14d;" horiz-adv-x="634" 
d="M145 581v86h345v-86h-345zM318 -12c-154 0 -283 124 -283 271s129 270 283 270c153 0 281 -123 281 -270s-128 -271 -281 -271zM318 111c77 0 142 68 142 148s-65 147 -142 147c-78 0 -143 -67 -143 -147s65 -148 143 -148z" />
    <glyph glyph-name="oslash" unicode="&#xf8;" horiz-adv-x="634" 
d="M526 439c45 -48 73 -112 73 -180c0 -147 -128 -271 -281 -271c-53 0 -103 15 -146 40l-24 -28h-106l67 78c-46 48 -74 112 -74 181c0 147 129 270 283 270c53 0 103 -15 146 -40l24 28h106zM175 259c0 -29 8 -56 23 -79l181 211c-18 10 -39 15 -61 15
c-78 0 -143 -67 -143 -147zM318 111c77 0 142 68 142 148c0 28 -8 55 -22 77l-181 -210c18 -10 39 -15 61 -15z" />
    <glyph glyph-name="otilde" unicode="&#xf5;" horiz-adv-x="634" 
d="M385 573c-56 0 -98 51 -131 51c-22 0 -35 -16 -42 -53l-73 11c11 87 46 132 111 132c56 0 100 -51 132 -51c22 0 35 16 42 52l72 -10c-10 -88 -45 -132 -111 -132zM318 -12c-154 0 -283 124 -283 271s129 270 283 270c153 0 281 -123 281 -270s-128 -271 -281 -271z
M318 111c77 0 142 68 142 148s-65 147 -142 147c-78 0 -143 -67 -143 -147s65 -148 143 -148z" />
    <glyph glyph-name="oe" unicode="&#x153;" horiz-adv-x="1020" 
d="M736 117c41 0 91 19 119 46l93 -95c-46 -48 -135 -80 -211 -80c-85 0 -160 34 -210 92c-51 -56 -127 -92 -209 -92c-154 0 -283 124 -283 271s129 270 283 270c82 0 156 -35 208 -90c48 56 120 90 203 90c162 0 257 -123 257 -318h-373c17 -56 62 -94 123 -94zM318 111
c77 0 142 68 142 148s-65 147 -142 147c-78 0 -143 -67 -143 -147s65 -148 143 -148zM735 400c-55 0 -101 -32 -120 -84h231c-14 51 -52 84 -111 84z" />
    <glyph glyph-name="p" unicode="p" 
d="M383 529c138 0 238 -112 238 -270c0 -159 -100 -271 -238 -271c-72 0 -132 31 -173 85v-245h-146v689h146v-72c41 53 101 84 173 84zM341 111c81 0 138 61 138 148c0 86 -57 147 -138 147c-71 0 -123 -52 -131 -127v-40c8 -76 60 -128 131 -128z" />
    <glyph glyph-name="thorn" unicode="&#xfe;" 
d="M383 529c138 0 238 -112 238 -270c0 -159 -100 -271 -238 -271c-72 0 -132 31 -173 85v-245h-146v871h146v-254c41 53 101 84 173 84zM341 111c81 0 138 61 138 148c0 86 -57 147 -138 147c-71 0 -123 -52 -131 -127v-40c8 -76 60 -128 131 -128z" />
    <glyph glyph-name="q" unicode="q" 
d="M450 517h146v-689h-146v246c-41 -54 -101 -86 -174 -86c-138 0 -238 112 -238 271c0 158 100 270 238 270c73 0 133 -32 174 -86v74zM318 111c77 0 132 61 132 148c0 86 -55 147 -132 147c-81 0 -138 -61 -138 -147c0 -87 57 -148 138 -148z" />
    <glyph glyph-name="r" unicode="r" horiz-adv-x="407" 
d="M210 421c34 67 98 108 177 108v-123c-108 0 -177 -62 -177 -159v-247h-146v517h146v-96z" />
    <glyph glyph-name="racute" unicode="&#x155;" horiz-adv-x="407" 
d="M371 707l-148 -132h-99l116 156zM210 421c34 67 98 108 177 108v-123c-108 0 -177 -62 -177 -159v-247h-146v517h146v-96z" />
    <glyph glyph-name="rcaron" unicode="&#x159;" horiz-adv-x="407" 
d="M288 575h-121l-105 147h90l75 -75l76 75h91zM210 421c34 67 98 108 177 108v-123c-108 0 -177 -62 -177 -159v-247h-146v517h146v-96z" />
    <glyph glyph-name="rcommaaccent" unicode="&#x157;" horiz-adv-x="407" 
d="M210 421c34 67 98 108 177 108v-123c-108 0 -177 -62 -177 -159v-247h-146v517h146v-96zM188 -47c44 0 73 -40 73 -95c0 -46 -26 -94 -81 -149l-41 31c24 23 41 49 47 74c-36 0 -66 32 -66 69c0 39 30 70 68 70z" />
    <glyph glyph-name="s" unicode="s" horiz-adv-x="502" 
d="M258 -12c-83 0 -171 28 -233 78l63 101c46 -33 104 -58 173 -58c39 0 67 16 67 39c0 32 -38 42 -91 56c-106 26 -188 55 -189 157c-1 98 80 168 202 168c74 0 147 -26 204 -64l-59 -104c-47 29 -101 46 -145 46c-36 0 -61 -13 -61 -31c0 -28 21 -36 91 -55
c89 -23 188 -53 188 -166c0 -102 -83 -167 -210 -167z" />
    <glyph glyph-name="sacute" unicode="&#x15b;" horiz-adv-x="502" 
d="M147 575l116 156l131 -24l-148 -132h-99zM258 -12c-83 0 -171 28 -233 78l63 101c46 -33 104 -58 173 -58c39 0 67 16 67 39c0 32 -38 42 -91 56c-106 26 -188 55 -189 157c-1 98 80 168 202 168c74 0 147 -26 204 -64l-59 -104c-47 29 -101 46 -145 46
c-36 0 -61 -13 -61 -31c0 -28 21 -36 91 -55c89 -23 188 -53 188 -166c0 -102 -83 -167 -210 -167z" />
    <glyph glyph-name="scaron" unicode="&#x161;" horiz-adv-x="502" 
d="M190 575l-105 147h90l75 -75l76 75h91l-106 -147h-121zM258 -12c-83 0 -171 28 -233 78l63 101c46 -33 104 -58 173 -58c39 0 67 16 67 39c0 32 -38 42 -91 56c-106 26 -188 55 -189 157c-1 98 80 168 202 168c74 0 147 -26 204 -64l-59 -104c-47 29 -101 46 -145 46
c-36 0 -61 -13 -61 -31c0 -28 21 -36 91 -55c89 -23 188 -53 188 -166c0 -102 -83 -167 -210 -167z" />
    <glyph glyph-name="scedilla" unicode="&#x15f;" horiz-adv-x="502" 
d="M468 155c0 -93 -69 -155 -177 -165l-13 -33c44 0 75 -28 75 -68c0 -53 -46 -86 -108 -86c-37 0 -73 13 -95 29l26 58c18 -15 40 -23 61 -23c23 0 42 12 42 30c0 16 -12 27 -33 27c-10 0 -21 -3 -30 -9l-22 21l23 54c-70 8 -140 34 -192 76l63 101c46 -33 104 -58 173 -58
c39 0 67 16 67 39c0 32 -38 42 -91 56c-106 26 -188 55 -189 157c-1 98 80 168 202 168c74 0 147 -26 204 -64l-59 -104c-47 29 -101 46 -145 46c-36 0 -61 -13 -61 -31c0 -28 21 -36 91 -55c89 -23 188 -53 188 -166z" />
    <glyph glyph-name="germandbls" unicode="&#xdf;" horiz-adv-x="613" 
d="M64 0v519c0 116 101 198 243 198c143 0 243 -82 243 -198c0 -70 -35 -125 -96 -157c80 -36 126 -100 126 -176c0 -110 -94 -186 -225 -186h-72v126h44c60 0 102 35 102 84s-42 84 -102 84h-44v116h22c55 0 94 36 94 80c0 46 -38 79 -94 79c-54 0 -94 -34 -94 -86v-483
h-147z" />
    <glyph glyph-name="t" unicode="t" horiz-adv-x="398" 
d="M336 128l35 -95c-30 -27 -77 -45 -119 -45c-91 0 -155 65 -155 158v253h-71v118h71v142h140v-142h112v-118h-112v-230c0 -34 22 -58 49 -58c20 0 40 7 50 17z" />
    <glyph glyph-name="tcaron" unicode="&#x165;" horiz-adv-x="398" 
d="M484 699c44 0 73 -40 73 -95c0 -46 -26 -94 -81 -149l-41 31c24 23 41 49 47 74c-36 0 -66 32 -66 69c0 39 30 70 68 70zM286 111c20 0 40 7 50 17l35 -95c-30 -27 -77 -45 -119 -45c-91 0 -155 65 -155 158v253h-71v118h71v142h140v-142h112v-118h-112v-230
c0 -34 22 -58 49 -58z" />
    <glyph glyph-name="uni0163" unicode="&#x163;" horiz-adv-x="398" 
d="M281 -43c44 0 75 -28 75 -68c0 -53 -46 -86 -108 -86c-37 0 -73 13 -95 29l26 58c18 -15 40 -23 61 -23c23 0 42 12 42 30c0 16 -12 27 -33 27c-10 0 -21 -3 -30 -9l-22 21l23 55c-73 13 -123 73 -123 155v253h-71v118h71v142h140v-142h112v-118h-112v-230
c0 -34 22 -58 49 -58c20 0 40 7 50 17l35 -95c-20 -18 -47 -32 -75 -39z" />
    <glyph glyph-name="u" unicode="u" horiz-adv-x="614" 
d="M407 517h146v-517h-146v65c-31 -47 -89 -77 -156 -77c-112 0 -192 83 -192 200v329h141v-298c0 -64 40 -108 98 -108c61 0 108 44 108 100l1 -3v309z" />
    <glyph glyph-name="uacute" unicode="&#xfa;" horiz-adv-x="614" 
d="M449 707l-148 -132h-99l116 156zM407 517h146v-517h-146v65c-31 -47 -89 -77 -156 -77c-112 0 -192 83 -192 200v329h141v-298c0 -64 40 -108 98 -108c61 0 108 44 108 100l1 -3v309z" />
    <glyph glyph-name="ucircumflex" unicode="&#xfb;" horiz-adv-x="614" 
d="M305 649l-75 -74h-90l105 147h121l106 -147h-91zM407 517h146v-517h-146v65c-31 -47 -89 -77 -156 -77c-112 0 -192 83 -192 200v329h141v-298c0 -64 40 -108 98 -108c61 0 108 44 108 100l1 -3v309z" />
    <glyph glyph-name="udieresis" unicode="&#xfc;" horiz-adv-x="614" 
d="M200 584c-41 0 -71 32 -71 70s30 70 71 70c38 0 70 -32 70 -70s-32 -70 -70 -70zM411 584c-39 0 -70 32 -70 70s31 70 70 70s70 -32 70 -70s-31 -70 -70 -70zM407 517h146v-517h-146v65c-31 -47 -89 -77 -156 -77c-112 0 -192 83 -192 200v329h141v-298
c0 -64 40 -108 98 -108c61 0 108 44 108 100l1 -3v309z" />
    <glyph glyph-name="ugrave" unicode="&#xf9;" horiz-adv-x="614" 
d="M399 575h-99l-148 132l131 24zM407 517h146v-517h-146v65c-31 -47 -89 -77 -156 -77c-112 0 -192 83 -192 200v329h141v-298c0 -64 40 -108 98 -108c61 0 108 44 108 100l1 -3v309z" />
    <glyph glyph-name="uhungarumlaut" unicode="&#x171;" horiz-adv-x="614" 
d="M371 707l-148 -133h-99l116 157zM458 574h-99l115 156l132 -24zM407 208v309h146v-517h-146v65c-31 -47 -89 -77 -156 -77c-112 0 -192 83 -192 200v329h141v-298c0 -64 40 -108 98 -108c61 0 108 44 108 100z" />
    <glyph glyph-name="umacron" unicode="&#x16b;" horiz-adv-x="614" 
d="M477 667v-86h-345v86h345zM407 517h146v-517h-146v65c-31 -47 -89 -77 -156 -77c-112 0 -192 83 -192 200v329h141v-298c0 -64 40 -108 98 -108c61 0 108 44 108 100l1 -3v309z" />
    <glyph glyph-name="uogonek" unicode="&#x173;" horiz-adv-x="614" 
d="M589 -72l26 -68c-22 -20 -53 -33 -89 -33c-65 0 -111 42 -111 111c0 24 7 45 18 62h-26v65c-31 -47 -89 -77 -156 -77c-112 0 -192 83 -192 200v329h141v-298c0 -64 40 -108 98 -108c61 0 108 44 108 100l1 -3v309h146v-517h-1c-28 0 -46 -19 -46 -44
c0 -27 18 -41 46 -41c15 0 29 5 37 13z" />
    <glyph glyph-name="uring" unicode="&#x16f;" horiz-adv-x="614" 
d="M305 581c-63 0 -114 50 -114 113s51 114 114 114s114 -51 114 -114s-51 -113 -114 -113zM305 747c-29 0 -53 -24 -53 -53s24 -53 53 -53s53 24 53 53s-24 53 -53 53zM407 517h146v-517h-146v65c-31 -47 -89 -77 -156 -77c-112 0 -192 83 -192 200v329h141v-298
c0 -64 40 -108 98 -108c61 0 108 44 108 100l1 -3v309z" />
    <glyph glyph-name="v" unicode="v" horiz-adv-x="606" 
d="M237 0l-224 517h153l139 -349l136 349h152l-221 -517h-135z" />
    <glyph glyph-name="w" unicode="w" horiz-adv-x="841" 
d="M194 0l-176 517h143l98 -322l102 322h121l102 -322l98 322h143l-176 -517h-131l-96 325l-97 -325h-131z" />
    <glyph glyph-name="wacute" unicode="&#x1e83;" horiz-adv-x="841" 
d="M371 575l116 156l131 -24l-148 -132h-99zM194 0l-176 517h143l98 -322l102 322h121l102 -322l98 322h143l-176 -517h-131l-96 325l-97 -325h-131z" />
    <glyph glyph-name="wcircumflex" unicode="&#x175;" horiz-adv-x="841" 
d="M257 575l105 147h121l106 -147h-91l-76 74l-75 -74h-90zM194 0l-176 517h143l98 -322l102 322h121l102 -322l98 322h143l-176 -517h-131l-96 325l-97 -325h-131z" />
    <glyph glyph-name="wdieresis" unicode="&#x1e85;" horiz-adv-x="841" 
d="M317 584c-41 0 -71 32 -71 70s30 70 71 70c38 0 70 -32 70 -70s-32 -70 -70 -70zM528 584c-39 0 -70 32 -70 70s31 70 70 70s70 -32 70 -70s-31 -70 -70 -70zM194 0l-176 517h143l98 -322l102 322h121l102 -322l98 322h143l-176 -517h-131l-96 325l-97 -325h-131z" />
    <glyph glyph-name="wgrave" unicode="&#x1e81;" horiz-adv-x="841" 
d="M373 575l-148 132l131 24l116 -156h-99zM194 0l-176 517h143l98 -322l102 322h121l102 -322l98 322h143l-176 -517h-131l-96 325l-97 -325h-131z" />
    <glyph glyph-name="x" unicode="x" horiz-adv-x="566" 
d="M551 0h-157l-112 156l-113 -156h-154l190 263l-182 254h158l103 -144l104 144h154l-181 -251z" />
    <glyph glyph-name="y" unicode="y" horiz-adv-x="601" 
d="M182 -180c-43 0 -95 13 -130 32l31 100c25 -14 51 -23 68 -23c28 0 50 9 61 28l18 38l-215 522h151l136 -363l129 363h149l-212 -543c-39 -101 -105 -154 -186 -154z" />
    <glyph glyph-name="yacute" unicode="&#xfd;" horiz-adv-x="601" 
d="M199 575l116 156l131 -24l-148 -132h-99zM182 -180c-43 0 -95 13 -130 32l31 100c25 -14 51 -23 68 -23c28 0 50 9 61 28l18 38l-215 522h151l136 -363l129 363h149l-212 -543c-39 -101 -105 -154 -186 -154z" />
    <glyph glyph-name="ycircumflex" unicode="&#x177;" horiz-adv-x="601" 
d="M137 575l105 147h121l106 -147h-91l-76 74l-75 -74h-90zM182 -180c-43 0 -95 13 -130 32l31 100c25 -14 51 -23 68 -23c28 0 50 9 61 28l18 38l-215 522h151l136 -363l129 363h149l-212 -543c-39 -101 -105 -154 -186 -154z" />
    <glyph glyph-name="ydieresis" unicode="&#xff;" horiz-adv-x="601" 
d="M197 584c-41 0 -71 32 -71 70s30 70 71 70c38 0 70 -32 70 -70s-32 -70 -70 -70zM408 584c-39 0 -70 32 -70 70s31 70 70 70s70 -32 70 -70s-31 -70 -70 -70zM182 -180c-43 0 -95 13 -130 32l31 100c25 -14 51 -23 68 -23c28 0 50 9 61 28l18 38l-215 522h151l136 -363
l129 363h149l-212 -543c-39 -101 -105 -154 -186 -154z" />
    <glyph glyph-name="ygrave" unicode="&#x1ef3;" horiz-adv-x="601" 
d="M297 575l-148 132l131 24l116 -156h-99zM182 -180c-43 0 -95 13 -130 32l31 100c25 -14 51 -23 68 -23c28 0 50 9 61 28l18 38l-215 522h151l136 -363l129 363h149l-212 -543c-39 -101 -105 -154 -186 -154z" />
    <glyph glyph-name="z" unicode="z" horiz-adv-x="532" 
d="M41 0v103l260 290h-253v124h443v-103l-260 -290h262v-124h-452z" />
    <glyph glyph-name="zacute" unicode="&#x17a;" horiz-adv-x="532" 
d="M170 575l116 156l131 -24l-148 -132h-99zM41 0v103l260 290h-253v124h443v-103l-260 -290h262v-124h-452z" />
    <glyph glyph-name="zcaron" unicode="&#x17e;" horiz-adv-x="532" 
d="M213 575l-105 147h90l75 -75l76 75h91l-106 -147h-121zM41 0v103l260 290h-253v124h443v-103l-260 -290h262v-124h-452z" />
    <glyph glyph-name="zdotaccent" unicode="&#x17c;" horiz-adv-x="532" 
d="M273 584c-41 0 -71 32 -71 70s30 70 71 70c38 0 70 -32 70 -70s-32 -70 -70 -70zM41 0v103l260 290h-253v124h443v-103l-260 -290h262v-124h-452z" />
    <glyph glyph-name="a.alt" 
d="M450 517h146v-517h-146v74c-41 -54 -101 -86 -174 -86c-138 0 -238 112 -238 271c0 158 100 270 238 270c73 0 133 -32 174 -86v74zM318 111c77 0 132 61 132 148c0 86 -55 147 -132 147c-81 0 -138 -61 -138 -147c0 -87 57 -148 138 -148z" />
    <glyph glyph-name="aacute.alt" 
d="M481 707l-148 -132h-99l116 156zM450 517h146v-517h-146v74c-41 -54 -101 -86 -174 -86c-138 0 -238 112 -238 271c0 158 100 270 238 270c73 0 133 -32 174 -86v74zM318 111c77 0 132 61 132 148c0 86 -55 147 -132 147c-81 0 -138 -61 -138 -147
c0 -87 57 -148 138 -148z" />
    <glyph glyph-name="abreve.alt" 
d="M498 647c-44 -44 -103 -66 -161 -66s-116 22 -161 66l63 63c27 -26 64 -42 98 -42s71 16 98 42zM450 517h146v-517h-146v74c-41 -54 -101 -86 -174 -86c-138 0 -238 112 -238 271c0 158 100 270 238 270c73 0 133 -32 174 -86v74zM318 111c77 0 132 61 132 148
c0 86 -55 147 -132 147c-81 0 -138 -61 -138 -147c0 -87 57 -148 138 -148z" />
    <glyph glyph-name="acircumflex.alt" 
d="M337 649l-75 -74h-90l105 147h121l106 -147h-91zM450 517h146v-517h-146v74c-41 -54 -101 -86 -174 -86c-138 0 -238 112 -238 271c0 158 100 270 238 270c73 0 133 -32 174 -86v74zM318 111c77 0 132 61 132 148c0 86 -55 147 -132 147c-81 0 -138 -61 -138 -147
c0 -87 57 -148 138 -148z" />
    <glyph glyph-name="adieresis.alt" 
d="M232 584c-41 0 -71 32 -71 70s30 70 71 70c38 0 70 -32 70 -70s-32 -70 -70 -70zM443 584c-39 0 -70 32 -70 70s31 70 70 70s70 -32 70 -70s-31 -70 -70 -70zM450 517h146v-517h-146v74c-41 -54 -101 -86 -174 -86c-138 0 -238 112 -238 271c0 158 100 270 238 270
c73 0 133 -32 174 -86v74zM318 111c77 0 132 61 132 148c0 86 -55 147 -132 147c-81 0 -138 -61 -138 -147c0 -87 57 -148 138 -148z" />
    <glyph glyph-name="agrave.alt" 
d="M431 575h-99l-148 132l131 24zM450 517h146v-517h-146v74c-41 -54 -101 -86 -174 -86c-138 0 -238 112 -238 271c0 158 100 270 238 270c73 0 133 -32 174 -86v74zM318 111c77 0 132 61 132 148c0 86 -55 147 -132 147c-81 0 -138 -61 -138 -147c0 -87 57 -148 138 -148z
" />
    <glyph glyph-name="amacron.alt" 
d="M509 667v-86h-345v86h345zM450 517h146v-517h-146v74c-41 -54 -101 -86 -174 -86c-138 0 -238 112 -238 271c0 158 100 270 238 270c73 0 133 -32 174 -86v74zM318 111c77 0 132 61 132 148c0 86 -55 147 -132 147c-81 0 -138 -61 -138 -147c0 -87 57 -148 138 -148z" />
    <glyph glyph-name="aogonek.alt" 
d="M633 -72l26 -68c-22 -20 -53 -33 -89 -33c-65 0 -111 42 -111 111c0 24 7 45 18 62h-27v74c-41 -54 -101 -86 -174 -86c-138 0 -238 112 -238 271c0 158 100 270 238 270c73 0 133 -32 174 -86v74h146v-517c-28 0 -46 -19 -46 -44c0 -27 18 -41 46 -41c15 0 29 5 37 13z
M318 111c77 0 132 61 132 148c0 86 -55 147 -132 147c-81 0 -138 -61 -138 -147c0 -87 57 -148 138 -148z" />
    <glyph glyph-name="aring.alt" 
d="M337 581c-63 0 -114 50 -114 113s51 114 114 114s114 -51 114 -114s-51 -113 -114 -113zM337 747c-29 0 -53 -24 -53 -53s24 -53 53 -53s53 24 53 53s-24 53 -53 53zM450 517h146v-517h-146v74c-41 -54 -101 -86 -174 -86c-138 0 -238 112 -238 271
c0 158 100 270 238 270c73 0 133 -32 174 -86v74zM318 111c77 0 132 61 132 148c0 86 -55 147 -132 147c-81 0 -138 -61 -138 -147c0 -87 57 -148 138 -148z" />
    <glyph glyph-name="atilde.alt" 
d="M273 624c-22 0 -35 -16 -42 -53l-73 11c11 87 46 132 111 132c56 0 100 -51 132 -51c22 0 35 16 42 52l72 -10c-10 -88 -45 -132 -111 -132c-56 0 -98 51 -131 51zM450 517h146v-517h-146v74c-41 -54 -101 -86 -174 -86c-138 0 -238 112 -238 271c0 158 100 270 238 270
c73 0 133 -32 174 -86v74zM318 111c77 0 132 61 132 148c0 86 -55 147 -132 147c-81 0 -138 -61 -138 -147c0 -87 57 -148 138 -148z" />
    <glyph glyph-name="zero" unicode="0" horiz-adv-x="706" 
d="M353 -12c-181 0 -308 147 -308 356c0 208 127 355 308 355s309 -147 309 -355c0 -209 -128 -356 -309 -356zM353 122c93 0 157 93 157 222s-64 221 -157 221c-92 0 -157 -92 -157 -221s65 -222 157 -222z" />
    <glyph glyph-name="one" unicode="1" horiz-adv-x="415" 
d="M190 0v518l-117 -73l-59 104l206 138h118v-687h-148z" />
    <glyph glyph-name="two" unicode="2" horiz-adv-x="611" 
d="M44 0v120l253 196c82 65 108 110 108 158c0 57 -48 91 -104 91c-67 0 -118 -34 -168 -91l-94 91c68 86 155 134 266 134c146 0 252 -90 252 -219c0 -92 -40 -163 -160 -250l-125 -97h291v-133h-519z" />
    <glyph glyph-name="three" unicode="3" horiz-adv-x="606" 
d="M302 -13c-124 0 -218 49 -276 116l87 98c48 -52 113 -81 182 -81c76 0 120 35 120 84c0 53 -41 80 -134 79h-79v126l79 -1c75 0 120 28 120 77c0 50 -47 82 -115 82c-65 0 -116 -32 -162 -80l-85 90c57 69 139 122 261 122c155 0 252 -79 252 -188
c0 -79 -54 -136 -129 -158c75 -17 144 -70 144 -161c0 -119 -105 -205 -265 -205z" />
    <glyph glyph-name="four" unicode="4" horiz-adv-x="648" 
d="M374 0v140h-335l-14 114l318 432h179v-422h91v-124h-91v-140h-148zM180 264h194v266z" />
    <glyph glyph-name="five" unicode="5" horiz-adv-x="618" 
d="M302 -13c-115 0 -202 42 -266 106l87 104c51 -49 114 -81 180 -81c77 0 125 46 125 105c0 60 -49 100 -124 100c-52 0 -96 -17 -133 -45l-99 40l10 371h455v-133h-319l-4 -152c34 24 78 42 134 42c122 0 227 -78 227 -218c0 -146 -109 -239 -273 -239z" />
    <glyph glyph-name="six" unicode="6" horiz-adv-x="643" 
d="M366 444c127 0 232 -82 232 -218c0 -141 -113 -238 -263 -238c-201 0 -292 144 -292 344c0 214 125 367 315 367c86 0 155 -29 211 -74l-70 -112c-42 35 -83 56 -140 56c-89 0 -150 -74 -163 -190c43 41 105 65 170 65zM327 113c73 0 119 51 119 106
c0 66 -56 105 -123 105c-57 0 -103 -31 -123 -80c13 -84 50 -131 127 -131z" />
    <glyph glyph-name="seven" unicode="7" horiz-adv-x="604" 
d="M114 0l273 554h-340v133h511v-111l-277 -576h-167z" />
    <glyph glyph-name="eight" unicode="8" horiz-adv-x="624" 
d="M312 -12c-152 0 -276 72 -276 196c0 81 56 141 135 171c-68 29 -117 79 -117 157c0 121 124 187 258 187c137 0 259 -69 259 -187c0 -77 -49 -127 -118 -157c81 -32 135 -92 135 -171c0 -125 -125 -196 -276 -196zM312 406c54 4 112 36 112 87c0 47 -46 82 -112 82
s-111 -35 -111 -82c0 -53 57 -83 111 -87zM312 112c73 0 127 36 127 88c0 54 -68 88 -127 90c-59 -2 -126 -36 -126 -90c0 -52 53 -88 126 -88z" />
    <glyph glyph-name="nine" unicode="9" horiz-adv-x="643" 
d="M308 699c201 0 292 -144 292 -344c0 -214 -125 -367 -315 -367c-86 0 -155 29 -211 74l70 112c42 -35 83 -56 140 -56c89 0 150 74 163 190c-43 -41 -105 -65 -170 -65c-127 0 -232 82 -232 218c0 141 113 238 263 238zM320 363c57 0 103 31 123 80
c-13 84 -50 131 -127 131c-73 0 -119 -51 -119 -106c0 -66 56 -105 123 -105z" />
    <glyph glyph-name="asterisk" unicode="*" horiz-adv-x="398" 
d="M199 345c-21 0 -38 16 -38 35c0 36 16 79 21 115c-29 -22 -58 -58 -88 -76c-16 -9 -39 -2 -50 16c-10 19 -4 41 12 50c30 18 75 25 109 39c-34 14 -79 21 -109 39c-16 9 -22 32 -12 50c11 19 34 26 50 16c30 -18 59 -54 88 -76c-5 36 -22 79 -22 115c0 19 17 35 39 35
c21 0 38 -16 38 -35c0 -36 -17 -79 -22 -115c29 22 58 58 88 76c16 9 39 2 50 -16c10 -19 5 -41 -11 -50c-31 -18 -77 -25 -110 -39c34 -14 79 -21 110 -39c16 -9 21 -32 11 -50c-11 -19 -34 -26 -50 -16c-30 18 -59 54 -88 76c5 -36 22 -79 22 -115c0 -19 -17 -35 -38 -35z
" />
    <glyph glyph-name="backslash" unicode="\" horiz-adv-x="462" 
d="M332 -74l-345 817h154l345 -817h-154z" />
    <glyph glyph-name="colon" unicode=":" horiz-adv-x="290" 
d="M147 349c-52 0 -93 42 -93 93c0 47 41 89 93 89c49 0 89 -42 89 -89c0 -51 -40 -93 -89 -93zM147 -12c-52 0 -93 42 -93 93c0 47 41 89 93 89c49 0 89 -42 89 -89c0 -51 -40 -93 -89 -93z" />
    <glyph glyph-name="comma" unicode="," horiz-adv-x="293" 
d="M135 -146l-52 40c31 28 52 62 61 94c-48 0 -88 41 -88 90c0 50 40 92 90 92c56 0 95 -52 95 -125c0 -59 -34 -122 -106 -191z" />
    <glyph glyph-name="ellipsis" unicode="&#x2026;" horiz-adv-x="811" 
d="M147 -12c-52 0 -93 42 -93 93c0 47 41 89 93 89c49 0 89 -42 89 -89c0 -51 -40 -93 -89 -93zM407 -12c-52 0 -93 42 -93 93c0 47 41 89 93 89c49 0 89 -42 89 -89c0 -51 -40 -93 -89 -93zM667 -12c-52 0 -93 42 -93 93c0 47 41 89 93 89c49 0 89 -42 89 -89
c0 -51 -40 -93 -89 -93z" />
    <glyph glyph-name="exclam" unicode="!" horiz-adv-x="307" 
d="M106 242l-33 445h165l-33 -445h-99zM155 -12c-52 0 -93 42 -93 93c0 47 41 89 93 89c49 0 89 -42 89 -89c0 -51 -40 -93 -89 -93z" />
    <glyph glyph-name="exclamdown" unicode="&#xa1;" horiz-adv-x="307" 
d="M152 529c52 0 93 -42 93 -93c0 -47 -41 -89 -93 -89c-49 0 -89 42 -89 89c0 51 40 93 89 93zM201 275l33 -445h-165l33 445h99z" />
    <glyph glyph-name="numbersign" unicode="#" horiz-adv-x="675" 
d="M618 421h-97l-39 -156h96l-25 -105h-98l-40 -160h-108l40 160h-115l-40 -160h-107l40 160h-94l26 105h95l39 156h-97l26 105h97l41 161h107l-41 -161h115l41 161h108l-41 -161h97zM374 265l39 156h-115l-39 -156h115z" />
    <glyph glyph-name="period" unicode="." horiz-adv-x="290" 
d="M147 -12c-52 0 -93 42 -93 93c0 47 41 89 93 89c49 0 89 -42 89 -89c0 -51 -40 -93 -89 -93z" />
    <glyph glyph-name="question" unicode="?" horiz-adv-x="505" 
d="M169 236v164c92 4 157 41 157 89c0 42 -39 78 -100 78c-49 0 -94 -26 -126 -62l-84 86c57 64 136 108 235 108c133 0 225 -83 225 -196c0 -90 -74 -171 -177 -195v-72h-130zM234 -12c-52 0 -93 42 -93 93c0 47 41 89 93 89c49 0 89 -42 89 -89c0 -51 -40 -93 -89 -93z
" />
    <glyph glyph-name="questiondown" unicode="&#xbf;" horiz-adv-x="505" 
d="M271 529c52 0 93 -42 93 -93c0 -47 -41 -89 -93 -89c-49 0 -89 42 -89 89c0 51 40 93 89 93zM336 281v-164c-92 -4 -157 -41 -157 -89c0 -42 39 -78 100 -78c49 0 94 26 126 62l84 -86c-57 -64 -136 -108 -235 -108c-133 0 -225 83 -225 196c0 90 74 171 177 195v72h130z
" />
    <glyph glyph-name="quotedbl" unicode="&#x22;" horiz-adv-x="516" 
d="M109 394c-22 74 -47 166 -47 221c0 43 35 78 76 78s76 -35 76 -78c0 -55 -25 -147 -47 -221h-58zM349 394c-22 74 -47 166 -47 221c0 43 35 78 76 78s76 -35 76 -78c0 -55 -25 -147 -47 -221h-58z" />
    <glyph glyph-name="quotesingle" unicode="'" horiz-adv-x="276" 
d="M109 394c-22 74 -47 166 -47 221c0 43 35 78 76 78s76 -35 76 -78c0 -55 -25 -147 -47 -221h-58z" />
    <glyph glyph-name="semicolon" unicode=";" horiz-adv-x="293" 
d="M149 349c-52 0 -93 42 -93 93c0 47 41 89 93 89c49 0 89 -42 89 -89c0 -51 -40 -93 -89 -93zM135 -146l-52 40c31 28 52 62 61 94c-48 0 -88 41 -88 90c0 50 40 92 90 92c56 0 95 -52 95 -125c0 -59 -34 -122 -106 -191z" />
    <glyph glyph-name="slash" unicode="/" horiz-adv-x="462" 
d="M-24 -74l345 817h154l-345 -817h-154z" />
    <glyph glyph-name="underscore" unicode="_" horiz-adv-x="592" 
d="M-2 -152v85h596v-85h-596z" />
    <glyph glyph-name="braceleft" unicode="{" horiz-adv-x="407" 
d="M360 -166c-171 14 -233 68 -233 181l1 121c0 61 -27 86 -95 86v88c69 0 95 26 95 86l-1 120c0 114 63 167 233 181l11 -89c-108 -14 -130 -33 -130 -103l1 -126c0 -60 -26 -96 -77 -113c52 -17 77 -54 77 -114l-1 -125c0 -71 24 -90 130 -104z" />
    <glyph glyph-name="braceright" unicode="}" horiz-adv-x="407" 
d="M47 -166l-12 89c106 14 130 33 130 104l-1 125c0 60 26 97 78 114c-52 17 -78 53 -78 113l1 126c0 70 -22 89 -130 103l12 89c170 -14 232 -67 232 -181l-1 -120c0 -60 26 -86 96 -86v-88c-68 0 -96 -25 -96 -86l1 -121c0 -113 -61 -167 -232 -181z" />
    <glyph glyph-name="bracketleft" unicode="[" horiz-adv-x="385" 
d="M71 -142v849h271v-95h-157v-659h157v-95h-271z" />
    <glyph glyph-name="bracketright" unicode="]" horiz-adv-x="385" 
d="M43 -142v95h157v659h-157v95h271v-849h-271z" />
    <glyph glyph-name="parenleft" unicode="(" horiz-adv-x="383" 
d="M275 -170c-142 102 -224 258 -224 435c0 178 82 333 224 435l74 -78c-104 -107 -153 -212 -153 -357c0 -144 49 -250 153 -356z" />
    <glyph glyph-name="parenright" unicode=")" horiz-adv-x="383" 
d="M109 -170l-74 79c103 106 152 212 152 356c0 145 -49 250 -152 357l74 78c141 -102 224 -257 224 -435c0 -177 -83 -333 -224 -435z" />
    <glyph glyph-name="emdash" unicode="&#x2014;" horiz-adv-x="876" 
d="M45 214v122h786v-122h-786z" />
    <glyph glyph-name="endash" unicode="&#x2013;" horiz-adv-x="571" 
d="M45 214v122h481v-122h-481z" />
    <glyph glyph-name="hyphen" unicode="-" horiz-adv-x="364" 
d="M45 213v124h274v-124h-274z" />
    <glyph glyph-name="quotedblleft" unicode="&#x201c;" horiz-adv-x="553" 
d="M158 691l52 -40c-31 -28 -52 -62 -61 -94c48 0 88 -41 88 -90c0 -50 -40 -92 -90 -92c-56 0 -95 52 -95 125c0 59 34 122 106 191zM418 691l52 -40c-31 -28 -52 -62 -61 -94c48 0 88 -41 88 -90c0 -50 -40 -92 -90 -92c-56 0 -95 52 -95 125c0 59 34 122 106 191z" />
    <glyph glyph-name="quotedblright" unicode="&#x201d;" horiz-adv-x="553" 
d="M135 377l-52 40c31 28 52 62 61 94c-48 0 -88 41 -88 90c0 50 40 92 90 92c56 0 95 -52 95 -125c0 -59 -34 -122 -106 -191zM395 377l-52 40c31 28 52 62 61 94c-48 0 -88 41 -88 90c0 50 40 92 90 92c56 0 95 -52 95 -125c0 -59 -34 -122 -106 -191z" />
    <glyph glyph-name="quoteleft" unicode="&#x2018;" horiz-adv-x="293" 
d="M158 691l52 -40c-31 -28 -52 -62 -61 -94c48 0 88 -41 88 -90c0 -50 -40 -92 -90 -92c-56 0 -95 52 -95 125c0 59 34 122 106 191z" />
    <glyph glyph-name="quoteright" unicode="&#x2019;" horiz-adv-x="293" 
d="M135 377l-52 40c31 28 52 62 61 94c-48 0 -88 41 -88 90c0 50 40 92 90 92c56 0 95 -52 95 -125c0 -59 -34 -122 -106 -191z" />
    <glyph glyph-name="space" unicode=" " horiz-adv-x="279" 
 />
    <glyph glyph-name="cent" unicode="&#xa2;" horiz-adv-x="548" 
d="M524 79c-43 -48 -100 -80 -169 -89v-64h-98v68c-125 28 -222 138 -222 265s97 236 222 263v67h98v-62c67 -9 124 -40 166 -86l-97 -83c-18 20 -42 35 -69 43v-285c27 8 53 24 72 45zM177 260c0 -58 33 -110 80 -134v265c-47 -24 -80 -74 -80 -131z" />
    <glyph glyph-name="dollar" unicode="$" horiz-adv-x="633" 
d="M595 206c0 -122 -86 -206 -234 -217v-63h-97v66c-93 12 -176 50 -241 110l85 101c47 -40 98 -69 156 -82v166c-125 32 -211 77 -211 198c0 114 84 196 211 212v62h97v-63c87 -9 157 -42 215 -92l-77 -106c-43 35 -91 58 -138 69v-160c141 -32 234 -77 234 -201zM202 500
c0 -33 18 -52 62 -67v136c-39 -10 -62 -37 -62 -69zM361 115c56 7 85 38 85 75c0 38 -24 56 -85 73v-148z" />
    <glyph glyph-name="Euro" unicode="&#x20ac;" horiz-adv-x="696" 
d="M406 122c63 0 120 31 160 77l107 -96c-67 -70 -163 -115 -267 -115c-161 0 -303 109 -349 255h-73v73h58c-1 9 -1 19 -1 28c0 14 1 27 2 40h-59v73h77c50 139 188 242 345 242c104 0 200 -44 267 -115l-107 -96c-40 46 -97 77 -160 77c-76 0 -144 -44 -182 -108h238v-73
h-265c-3 -13 -4 -26 -4 -40c0 -9 1 -19 2 -28h267v-73h-245c36 -71 109 -121 189 -121z" />
    <glyph glyph-name="sterling" unicode="&#xa3;" horiz-adv-x="654" 
d="M280 115h342v-115h-576v61l86 54v139h-69v79h69v130c0 138 98 236 236 236c93 0 188 -47 230 -114l-97 -96c-19 45 -67 76 -117 76c-61 0 -104 -47 -104 -114v-118h163v-79h-163v-139z" />
    <glyph glyph-name="yen" unicode="&#xa5;" horiz-adv-x="694" 
d="M690 687l-223 -365h128v-79h-173v-64h173v-79h-173v-100h-149v100h-174v79h174v64h-174v79h129l-224 365h172l171 -301l178 301h165z" />
    <glyph glyph-name="plus" unicode="+" horiz-adv-x="603" 
d="M543 393v-119h-178v-182h-126v182h-179v119h179v182h126v-182h178z" />
    <glyph glyph-name="minus" unicode="&#x2212;" horiz-adv-x="603" 
d="M60 274v119h483v-119h-483z" />
    <glyph glyph-name="multiply" unicode="&#xd7;" horiz-adv-x="561" 
d="M496 208l-89 -89l-129 128l-126 -126l-85 84l127 127l-129 128l89 89l129 -128l126 126l84 -85l-126 -126z" />
    <glyph glyph-name="divide" unicode="&#xf7;" horiz-adv-x="603" 
d="M303 442c-46 0 -82 37 -82 82c0 42 36 79 82 79c44 0 79 -37 79 -79c0 -45 -35 -82 -79 -82zM60 275v119h483v-119h-483zM303 65c-46 0 -82 37 -82 82c0 42 36 79 82 79c44 0 79 -37 79 -79c0 -45 -35 -82 -79 -82z" />
    <glyph glyph-name="equal" unicode="=" horiz-adv-x="603" 
d="M60 392v119h483v-119h-483zM60 164v119h483v-119h-483z" />
    <glyph glyph-name="greater" unicode="&#x3e;" horiz-adv-x="593" 
d="M71 82v119l351 142l-351 144v118l467 -204v-115z" />
    <glyph glyph-name="less" unicode="&#x3c;" horiz-adv-x="593" 
d="M522 82l-467 204v115l467 204v-118l-351 -144l351 -142v-119z" />
    <glyph glyph-name="asciitilde" unicode="~" horiz-adv-x="452" 
d="M293 294c-56 0 -98 51 -131 51c-22 0 -35 -16 -42 -53l-73 11c11 87 46 132 111 132c56 0 100 -51 132 -51c22 0 35 16 42 52l72 -10c-10 -88 -45 -132 -111 -132z" />
    <glyph glyph-name="percent" unicode="%" horiz-adv-x="837" 
d="M208 342c-102 0 -171 77 -171 175c0 99 69 177 172 177c104 0 171 -79 171 -176c0 -99 -70 -176 -172 -176zM127 0l478 687h106l-478 -687h-106zM209 428c42 0 73 35 73 90c0 53 -31 89 -74 89c-42 0 -72 -35 -72 -89s32 -90 73 -90zM628 -11c-103 0 -172 78 -172 176
s70 176 172 176c103 0 171 -79 171 -176c0 -99 -71 -176 -171 -176zM628 76c43 0 73 35 73 89s-32 90 -73 90c-44 0 -74 -35 -74 -90c0 -53 31 -89 74 -89z" />
    <glyph glyph-name="perthousand" unicode="&#x2030;" horiz-adv-x="1220" 
d="M208 342c-102 0 -171 77 -171 175c0 99 69 177 172 177c104 0 171 -79 171 -176c0 -99 -70 -176 -172 -176zM127 0l478 687h106l-478 -687h-106zM209 428c42 0 73 35 73 90c0 53 -31 89 -74 89c-42 0 -72 -35 -72 -89s32 -90 73 -90zM628 -11c-103 0 -172 78 -172 176
s70 176 172 176c103 0 171 -79 171 -176c0 -99 -71 -176 -171 -176zM1011 -11c-102 0 -172 78 -172 176s70 176 172 176c104 0 171 -79 171 -176c0 -99 -70 -176 -171 -176zM628 76c43 0 73 35 73 89s-32 90 -73 90c-44 0 -74 -35 -74 -90c0 -53 31 -89 74 -89zM1011 76
c43 0 73 35 73 89s-32 90 -73 90c-43 0 -73 -35 -73 -90c0 -53 31 -89 73 -89z" />
    <glyph glyph-name="at" unicode="@" horiz-adv-x="880" 
d="M425 -116c-215 0 -382 168 -382 376c0 226 190 416 420 416c213 0 373 -162 373 -348c0 -173 -108 -254 -202 -254c-68 0 -109 32 -124 79c-37 -47 -89 -78 -148 -78c-100 0 -168 74 -168 181c0 137 108 250 224 250c65 0 108 -32 132 -72l12 58l120 -9
c-33 -171 -51 -244 -51 -280c0 -35 21 -55 54 -55c54 0 109 57 109 180c0 171 -141 308 -333 308c-208 0 -377 -171 -377 -375c0 -188 148 -338 343 -338c82 0 146 20 214 61l20 -31c-72 -46 -146 -69 -236 -69zM405 176c65 0 112 56 119 131c6 59 -23 98 -79 98
c-72 0 -126 -66 -126 -139c0 -56 34 -90 86 -90z" />
    <glyph glyph-name="ampersand" unicode="&#x26;" horiz-adv-x="679" 
d="M652 38l-120 -54l-73 76c-57 -46 -122 -72 -200 -72c-132 0 -231 74 -231 199c0 90 44 147 149 194c-36 53 -49 89 -49 140c0 96 86 175 195 175c112 0 194 -75 194 -174c0 -77 -48 -119 -157 -169c30 -35 64 -73 106 -118c26 38 49 81 67 126l106 -50
c-30 -60 -61 -114 -95 -159zM325 591c-40 0 -72 -29 -72 -70c0 -32 16 -58 44 -93c67 27 94 48 94 93c0 40 -27 70 -66 70zM277 99c36 0 71 16 105 42c-61 64 -106 115 -141 156c-47 -28 -68 -60 -68 -100c0 -61 47 -98 104 -98z" />
    <glyph glyph-name="bar" unicode="|" horiz-adv-x="299" 
d="M99 -74v817h101v-817h-101z" />
    <glyph glyph-name="asciicircum" unicode="^" horiz-adv-x="488" 
d="M43 413l151 274h101l149 -274h-104l-97 184l-97 -184h-103z" />
    <glyph glyph-name="uni0326" unicode="&#x326;" horiz-adv-x="0" 
d="M-155 -291l-41 31c24 23 41 49 47 74c-36 0 -66 32 -66 69c0 39 30 70 68 70c44 0 73 -40 73 -95c0 -46 -26 -94 -81 -149z" />
    <glyph glyph-name="acute" unicode="&#xb4;" horiz-adv-x="373" 
d="M63 575l116 156l131 -24l-148 -132h-99z" />
    <glyph glyph-name="breve" unicode="&#x2d8;" horiz-adv-x="448" 
d="M224 581c-58 0 -116 22 -161 66l63 63c27 -26 64 -42 98 -42s71 16 98 42l63 -63c-44 -44 -103 -66 -161 -66z" />
    <glyph glyph-name="caron" unicode="&#x2c7;" horiz-adv-x="458" 
d="M168 575l-105 147h90l75 -75l76 75h91l-106 -147h-121z" />
    <glyph glyph-name="cedilla" unicode="&#xb8;" horiz-adv-x="329" 
d="M191 -43c44 0 75 -28 75 -68c0 -53 -46 -86 -108 -86c-37 0 -73 13 -95 29l26 58c18 -15 40 -23 61 -23c23 0 42 12 42 30c0 16 -12 27 -33 27c-10 0 -21 -3 -30 -9l-22 21l32 75h74z" />
    <glyph glyph-name="circumflex" unicode="&#x2c6;" horiz-adv-x="458" 
d="M63 575l105 147h121l106 -147h-91l-76 74l-75 -74h-90z" />
    <glyph glyph-name="dieresis" unicode="&#xa8;" horiz-adv-x="478" 
d="M134 584c-41 0 -71 32 -71 70s30 70 71 70c38 0 70 -32 70 -70s-32 -70 -70 -70zM345 584c-39 0 -70 32 -70 70s31 70 70 70s70 -32 70 -70s-31 -70 -70 -70z" />
    <glyph glyph-name="dotaccent" unicode="&#x2d9;" horiz-adv-x="267" 
d="M134 584c-41 0 -71 32 -71 70s30 70 71 70c38 0 70 -32 70 -70s-32 -70 -70 -70z" />
    <glyph glyph-name="grave" unicode="`" horiz-adv-x="373" 
d="M211 575l-148 132l131 24l116 -156h-99z" />
    <glyph glyph-name="hungarumlaut" unicode="&#x2dd;" horiz-adv-x="608" 
d="M63 574l116 157l131 -24l-148 -133h-99zM298 574l115 156l132 -24l-148 -132h-99z" />
    <glyph glyph-name="macron" unicode="&#xaf;" horiz-adv-x="471" 
d="M63 581v86h345v-86h-345z" />
    <glyph glyph-name="ogonek" unicode="&#x2db;" horiz-adv-x="326" 
d="M174 -173c-65 0 -111 42 -111 111c0 42 20 74 52 92l85 -30c-28 0 -46 -19 -46 -44c0 -27 18 -41 46 -41c15 0 29 5 37 13l26 -68c-22 -20 -53 -33 -89 -33z" />
    <glyph glyph-name="ring" unicode="&#x2da;" horiz-adv-x="354" 
d="M177 581c-63 0 -114 50 -114 113s51 114 114 114s114 -51 114 -114s-51 -113 -114 -113zM177 641c29 0 53 24 53 53s-24 53 -53 53s-53 -24 -53 -53s24 -53 53 -53z" />
    <glyph glyph-name="tilde" unicode="&#x2dc;" horiz-adv-x="444" 
d="M289 573c-56 0 -98 51 -131 51c-22 0 -35 -16 -42 -53l-73 11c11 87 46 132 111 132c56 0 100 -51 132 -51c22 0 35 16 42 52l72 -10c-10 -88 -45 -132 -111 -132z" />
    <glyph glyph-name="ascender" 
d="M64 0v699h146v-699h-146z" />
    <glyph glyph-name="descender" 
d="M64 -172v689h146v-689h-146z" />
    </font>
</defs>
</svg>
