<?xml version="1.0" standalone="no"?>
<!DOCTYPE svg PUBLIC "-//W3C//DTD SVG 1.1//EN" "http://www.w3.org/Graphics/SVG/1.1/DTD/svg11.dtd" >
<svg xmlns="http://www.w3.org/2000/svg" xmlns:xlink="http://www.w3.org/1999/xlink" version="1.1">
<metadata>
Created by FontForge 20170812 at Sun Apr 14 21:27:57 2019
 By www-data
Copyright (c) 2019 Monotype Imaging Inc. All rights reserved.
</metadata>
<defs>
<font id="HelveticaNowText-ExtraBold" horiz-adv-x="708" >
  <font-face 
    font-family="HelveticaNowText ExtraBold"
    font-weight="800"
    font-stretch="normal"
    units-per-em="1000"
    panose-1="2 11 9 4 3 2 2 2 2 4"
    ascent="875"
    descent="-125"
    x-height="516"
    cap-height="712"
    bbox="-448 -348 1630 1109"
    underline-thickness="50"
    underline-position="-250"
    unicode-range="U+000D-FEFF"
  />
<missing-glyph horiz-adv-x="737" 
d="M675 0h-613v712h613v-712zM249 550v-388h239v388h-239z" />
    <glyph glyph-name="fi" unicode="fi" horiz-adv-x="662" 
d="M92 514v27c0 114 62 171 186 171h87v-122h-48c-19.333 0 -33 -4.16699 -41 -12.5s-12 -21.5 -12 -39.5v-25l101 3v-114l-101 3v-405h-172v404l-77 -2v114zM435 582v130h172v-130h-172zM607 0h-172v516h172v-516z" />
    <glyph glyph-name="fl" unicode="fl" horiz-adv-x="662" 
d="M92 514v27c0 114 62 171 186 171h87v-122h-48c-19.333 0 -33 -4.16699 -41 -12.5s-12 -21.5 -12 -39.5v-25l101 3v-114l-101 3v-405h-172v404l-77 -2v114zM435 0v712h172v-712h-172z" />
    <glyph glyph-name=".notdef" horiz-adv-x="737" 
d="M675 0h-613v712h613v-712zM249 550v-388h239v388h-239z" />
    <glyph glyph-name="NULL" horiz-adv-x="0" 
 />
    <glyph glyph-name="NULL" horiz-adv-x="0" 
 />
    <glyph glyph-name="CR" unicode="&#xd;" horiz-adv-x="256" 
 />
    <glyph glyph-name="space" unicode=" " horiz-adv-x="256" 
 />
    <glyph glyph-name="exclam" unicode="!" horiz-adv-x="302" 
d="M193 245h-83l-47 279v188h176v-188zM240 0h-178v167h178v-167z" />
    <glyph glyph-name="quotedbl" unicode="&#x22;" horiz-adv-x="510" 
d="M205 388h-150v325h150v-325zM456 388h-151v325h151v-325z" />
    <glyph glyph-name="numbersign" unicode="#" horiz-adv-x="714" 
d="M683 556v-126l-126 3l-20 -143l107 2v-126l-124 3l-24 -169h-124l24 171h-130l-24 -171h-124l24 169l-111 -3v126l128 -3l20 144l-109 -3v126l126 -3l22 159h124l-22 -160h130l22 160h124l-22 -158zM303 434l-21 -146h130l21 146h-130z" />
    <glyph glyph-name="dollar" unicode="$" 
d="M673 217c0 -64 -21.501 -115.668 -64.501 -155.001s-103.167 -63 -180.5 -71v-133h-126v134c-76.667 9.33301 -136 34.666 -178 75.999s-64.667 96.666 -68 165.999h181c2 -33.333 13.667 -57.666 35 -72.999s55 -23 101 -23c77.333 0 116 22.333 116 67
c0 17.333 -5.33301 31 -16 41s-28 17.667 -52 23l-171 37c-119.333 26.667 -179 92.667 -179 198c0 58.667 19.5 107 58.5 145s96.5 61 172.5 69v132h126v-133c70 -9.33301 124 -32.666 162 -69.999s58.667 -86.666 62 -147.999h-177
c-3.33301 27.333 -14.166 47.166 -32.499 59.499s-46.833 18.5 -85.5 18.5c-68.667 0 -103 -19.333 -103 -58c0 -29.333 20.667 -48.666 62 -57.999l165 -37c128 -28 192 -97 192 -207z" />
    <glyph glyph-name="percent" unicode="%" horiz-adv-x="1206" 
d="M410 336c-35.333 -39.333 -84.667 -59.002 -148 -59.002c-64 0 -113.333 20 -148 60c-34.667 38.667 -52 94.334 -52 167.001s17.333 128.334 52 167.001s84 58 148 58s113.333 -19.333 148 -58c34 -39.333 51 -95 51 -167c0 -73.333 -17 -129.333 -51 -168z
M427.999 -15.002h-124l470 742h123zM181.999 502.998c0 -84.667 26.667 -127 80 -127s80 42.333 80 127c0 84 -26.667 126 -80 126s-80 -42 -80 -126zM1092 43.998c-34.667 -40 -84 -60.001 -148 -60.001s-113 20 -147 60c-34.667 38.667 -52 94.334 -52 167.001
s17.333 128.334 52 167.001c34 38.667 83 58 147 58s113.333 -19.333 148 -58c34 -39.333 51 -95 51 -167c0 -72.667 -17 -128.334 -51 -167.001zM863.999 209.997c0 -84 26.667 -126 80 -126s80 42 80 126s-26.667 126 -80 126s-80 -42 -80 -126z" />
    <glyph glyph-name="ampersand" unicode="&#x26;" horiz-adv-x="777" 
d="M626 156l137 -157.002h-215l-44 53c-57.333 -46.667 -123.333 -70 -198 -70c-77.333 0 -138.333 19.333 -183 58c-45.333 39.333 -68 90.333 -68 153c0 96.667 52 165.334 156 206.001c-43.333 55.333 -65 106 -65 152c0 54.667 20.333 98 61 130s92.667 48 156 48
c66 0 118.333 -17 157 -51s58 -76.333 58 -127c0 -39.333 -11.833 -75.333 -35.5 -108s-56.5 -59 -98.5 -79l83 -95c16 26.667 28 61.334 36 104.001h157c-10.667 -78.667 -42 -151 -94 -217zM410 587.998c-17.333 16.667 -39 20.5 -65 11.5s-37.667 -25.5 -35 -49.5
c0 -21.333 10.667 -44.333 32 -69l17 -20c44.667 24 67 52.333 67 85c0 18 -5.33301 32 -16 42zM328 116.998c34.667 0 65.333 11.334 92 34.001l-124 147c-44.667 -24.667 -67 -56.334 -67 -95.001c0 -26 9 -46.833 27 -62.5s42 -23.5 72 -23.5z" />
    <glyph glyph-name="quotesingle" unicode="'" horiz-adv-x="260" 
d="M205 388h-150v325h150v-325z" />
    <glyph glyph-name="parenleft" unicode="(" horiz-adv-x="385" 
d="M353 -204h-173c-93.333 145.333 -140 303.666 -140 474.999c0 174 46.667 332.667 140 476h173c-85.333 -149.333 -128 -308.666 -128 -477.999c0 -166 42.667 -323.667 128 -473z" />
    <glyph glyph-name="parenright" unicode=")" horiz-adv-x="385" 
d="M204 -204l-173 -0.000976562c86 148 129 305.667 129 473c0 170.667 -43 330 -129 478h173c93.333 -141.333 140 -300 140 -476c0 -173.333 -46.667 -331.666 -140 -474.999z" />
    <glyph glyph-name="asterisk" unicode="*" horiz-adv-x="570" 
d="M285 413l-82 -142l-105 78l110 117l-153 33l41 122l141 -66l-15 157h126l-15 -157l141 66l41 -122l-154 -33l112 -117l-106 -78z" />
    <glyph glyph-name="plus" unicode="+" 
d="M434 382h206v-132h-206v-210h-141v210h-205v132h205v210h141v-210z" />
    <glyph glyph-name="comma" unicode="," horiz-adv-x="307" 
d="M85 -182h-27v81h22c51.333 0 77 24 77 72v29h-100v171h192v-199c0 -102.667 -54.667 -154 -164 -154z" />
    <glyph glyph-name="hyphen" unicode="-" horiz-adv-x="363" 
d="M324 209h-285v138h285v-138z" />
    <glyph glyph-name="period" unicode="." horiz-adv-x="308" 
d="M250 0h-193v171h193v-171z" />
    <glyph glyph-name="slash" unicode="/" horiz-adv-x="536" 
d="M210 0h-180l296 712h180z" />
    <glyph glyph-name="zero" unicode="0" 
d="M581 85c-56 -67.333 -131.333 -101 -226 -101s-170 33.667 -226 101s-84 158.333 -84 273c0 113.333 28 203.333 84 270c54.667 66.667 130 100 226 100c94.667 0 170 -33.333 226 -100c55.333 -67.333 83 -157.333 83 -270c0 -114.667 -27.667 -205.667 -83 -273z
M355 129c86.667 0 130 75.667 130 227s-43.333 227 -130 227c-87.333 0 -131 -75.667 -131 -227s43.667 -227 131 -227z" />
    <glyph glyph-name="one" unicode="1" horiz-adv-x="487" 
d="M394 0l-187 -0.000976562v445h-176v125h30c51.333 0 92 11 122 33c28 20.667 46.333 54.334 55 101.001l2 8h154v-712z" />
    <glyph glyph-name="two" unicode="2" 
d="M636 0h-564c0 63.333 13.667 116.333 41 159c27.333 41.333 77.333 87 150 137l110 78c28 19.333 47.833 37.666 59.5 54.999s17.5 37 17.5 59c0 28.667 -8.66699 51.167 -26 67.5s-41 24.5 -71 24.5c-68 0 -102 -39.667 -102 -119v-15h-169v22c0 82 24 146 72 192
s116 69 204 69c84 0 150.667 -20.333 200 -61c50 -41.333 75 -97.666 75 -168.999c0 -46 -11.833 -87.333 -35.5 -124s-61.5 -71.667 -113.5 -105l-123 -78c-23.333 -15.333 -36 -28.333 -38 -39h313v-153z" />
    <glyph glyph-name="three" unicode="3" 
d="M495 384c48 -8.66699 85.333 -28.501 112 -59.501s40 -69.5 40 -115.5c0 -66 -25 -120.667 -75 -164c-50.667 -42.667 -121 -64 -211 -64c-94 0 -166.5 23.333 -217.5 70s-78.167 111 -81.5 193h171c4 -81.333 44.333 -122 121 -122c34 0 60.833 8.33301 80.5 25
s29.5 39.334 29.5 68.001c0 29.333 -10.333 51.666 -31 66.999s-50 23 -88 23h-50v124h53c31.333 0 55.5 7 72.5 21s25.5 34 25.5 60s-8.5 46.167 -25.5 60.5s-41.167 21.5 -72.5 21.5c-30.667 0 -54 -7.66699 -70 -23s-25.333 -40.333 -28 -75h-166
c6.66699 156.667 96.667 235 270 235c82 0 146 -18 192 -54s69 -82 69 -138c0 -37.333 -10.5 -69.666 -31.5 -96.999s-50.5 -46 -88.5 -56z" />
    <glyph glyph-name="four" unicode="4" 
d="M555 713v-421l104 2v-141l-105 3v-157h-174v157l-329 -3v162l322 398h182zM192 292h188v226h-3z" />
    <glyph glyph-name="five" unicode="5" 
d="M352 -18c-81.333 0 -147.833 18.6689 -199.5 56.002s-82.167 90.333 -91.5 159l178 14c6 -26.667 18.833 -47.167 38.5 -61.5s44.167 -21.5 73.5 -21.5c36 0 64.5 10.167 85.5 30.5s31.5 47.166 31.5 80.499c0 32.667 -10.5 59.167 -31.5 79.5s-49.5 30.5 -85.5 30.5
c-40 0 -73 -14.333 -99 -43l-168 15l65 391h448v-149h-313l-23 -122l3 -2c37.333 27.333 85.333 41 144 41c72 0 129.667 -21.333 173 -64c44 -42.667 66 -100.334 66 -173.001c0 -80 -26.333 -143.333 -79 -190c-53.333 -47.333 -125.333 -71 -216 -71z" />
    <glyph glyph-name="six" unicode="6" 
d="M401 492c76 0 137.332 -22.332 183.999 -66.999c47.333 -45.333 71 -105.333 71 -180c0 -78 -26.667 -141.667 -80 -191c-53.333 -48.667 -123.333 -73 -210 -73c-87.333 0 -158.666 26.667 -213.999 80c-66 62.667 -99 158.334 -99 287.001
c0 121.333 26.5 215.166 79.5 281.499s129.833 99.5 230.5 99.5c70 0 128.167 -15.833 174.5 -47.5s77.5 -76.5 93.5 -134.5l-173 -10c-14.667 38 -46.667 57 -96 57c-41.333 0 -72.5 -13.833 -93.5 -41.5s-33.833 -72.834 -38.5 -135.501c40 50 97 75 171 75z
M268.999 164.001c24 -26 54.667 -39 92 -39s66 11.333 86 34c20 23.333 30 51 30 83c0 34 -11 61.667 -33 83s-50.333 32 -85 32s-62.667 -10.5 -84 -31.5s-33 -49.5 -35 -85.5c2 -30 11.667 -55.333 29 -76z" />
    <glyph glyph-name="seven" unicode="7" 
d="M387 0l-198.999 0.000976562c0 90 21.667 185.333 65 286c43.333 100 102.333 188.333 177 265h-351v161h550v-145c-81.333 -86.667 -141.333 -175 -180 -265c-38.667 -90.667 -59.334 -191.334 -62.001 -302.001z" />
    <glyph glyph-name="eight" unicode="8" 
d="M577 43c-54.667 -40.667 -129 -61.002 -223 -61.002c-93.333 0 -167.333 20.333 -222 61s-82 96.334 -82 167.001c0 44 12.167 80.833 36.5 110.5s58.5 49.834 102.5 60.501v3c-32.667 11.333 -58.5 30.5 -77.5 57.5s-28.5 58.167 -28.5 93.5
c0 60.667 23.833 108.167 71.5 142.5s114.167 51.5 199.5 51.5c86 0 153 -17.167 201 -51.5s72 -81.833 72 -142.5c0 -36 -9.5 -67.5 -28.5 -94.5s-44.833 -45.833 -77.5 -56.5v-3c44 -11.333 78 -31.666 102 -60.999s36 -66 36 -110
c0 -70.667 -27.333 -126.334 -82 -167.001zM355 430.998c34.667 0 61.832 7.66699 81.499 23s29.5 36.666 29.5 63.999c0 26.667 -9.66699 47.167 -29 61.5s-46.666 21.5 -81.999 21.5c-74.667 0 -112 -27.667 -112 -83c0 -27.333 9.83301 -48.666 29.5 -63.999
s47.167 -23 82.5 -23zM354.998 115.998c39.333 0 70.334 8.83301 93.001 26.5s34 42.167 34 73.5s-11.167 55.833 -33.5 73.5s-53.5 26.5 -93.5 26.5c-40.667 0 -72.334 -8.83301 -95.001 -26.5s-34 -42.167 -34 -73.5s11.5 -55.833 34.5 -73.5s54.5 -26.5 94.5 -26.5z" />
    <glyph glyph-name="nine" unicode="9" 
d="M556 645c66.667 -62.667 99.9961 -158.001 99.9961 -286.001c0 -121.333 -26.5 -215.166 -79.5 -281.499s-130.167 -99.5 -231.5 -99.5c-70 0 -128.167 15.833 -174.5 47.5s-77.166 76.167 -92.499 133.5l172 11c14.667 -38 46.667 -57 96 -57
c40.667 0 71.834 13.833 93.501 41.5s34.834 72.5 39.501 134.5c-41.333 -49.333 -98.666 -74 -171.999 -74c-75.333 0 -136.333 22.333 -183 67c-47.333 45.333 -71 105 -71 179c0 78 26.667 141.667 80 191c52.667 48.667 122.334 73 209.001 73
c87.333 0 158.666 -26.667 213.999 -80zM348.996 348.999c34.667 0 62.668 10.667 84.001 32s33 50 35 86c-2 30.667 -11.667 55.667 -29 75c-22.667 26 -53.334 39 -92.001 39c-36.667 0 -65.167 -10.833 -85.5 -32.5s-30.5 -49.5 -30.5 -83.5
c0 -34.667 10.833 -62.667 32.5 -84s50.167 -32 85.5 -32z" />
    <glyph glyph-name="colon" unicode=":" horiz-adv-x="308" 
d="M250 334h-193v172h193v-172zM250 0h-193v171h193v-171z" />
    <glyph glyph-name="semicolon" unicode=";" horiz-adv-x="308" 
d="M250 334h-193v172h193v-172zM85 -182h-27v81h22c51.333 0 77 24 77 72v29h-100v171h192v-199c0 -102.667 -54.667 -154 -164 -154z" />
    <glyph glyph-name="less" unicode="&#x3c;" 
d="M96 389l537 184v-146l-392 -118l392 -117v-147l-537 184v160z" />
    <glyph glyph-name="equal" unicode="=" 
d="M638 378h-548v130h548v-130zM638 121h-548v132h548v-132z" />
    <glyph glyph-name="greater" unicode="&#x3e;" 
d="M96 427v146l537 -184v-160l-537 -184v147l392 117z" />
    <glyph glyph-name="question" unicode="?" horiz-adv-x="640" 
d="M391 237l-168.001 0.000976562v26c0 43.333 9 77.833 27 103.5s50 48.167 96 67.5c27.333 12.667 46.333 24.667 57 36s16 25.666 16 42.999c0 47.333 -35.333 71 -106 71c-35.333 0 -61.666 -7.16699 -78.999 -21.5s-27.333 -36.833 -30 -67.5h-172
c3.33301 77.333 29.166 135.666 77.499 174.999s116.833 59 205.5 59c90.667 0 160.834 -18.667 210.501 -56s74.5 -88.666 74.5 -153.999c0 -76.667 -37 -133.667 -111 -171l-39 -21c-22.667 -12 -38.167 -23.5 -46.5 -34.5s-12.5 -26.167 -12.5 -45.5v-10z
M395.999 0.000976562h-178v167h178v-167z" />
    <glyph glyph-name="at" unicode="@" horiz-adv-x="1062" 
d="M538 729c144.667 0 257.664 -37.667 338.997 -113s122 -171 122 -287c0 -82 -20 -149 -60 -201c-40.667 -52.667 -97 -79 -169 -79c-70 0 -117.667 25.667 -143 77c-28.667 -50.667 -75.667 -76 -141 -76c-55.333 0 -99.833 20.167 -133.5 60.5s-50.5 95.833 -50.5 166.5
c0 70 16.833 125.333 50.5 166s78.167 61 133.5 61c58.667 0 102.667 -21.667 132 -65l14 50h118v-278c0 -36.667 16.333 -55 49 -55c29.333 0 52.5 14.5 69.5 43.5s25.5 68.833 25.5 119.5c0 95.333 -31.667 171 -95 227c-63.333 55.333 -150.666 83 -261.999 83
c-114 0 -202.167 -30.833 -264.5 -92.5s-93.5 -148.167 -93.5 -259.5c0 -109.333 31.333 -195 94 -257c62 -62 149.333 -93 262 -93c70 0 140.667 13 212 39v-101c-63.333 -24 -132.666 -36 -207.999 -36c-147.333 0 -263.666 39.667 -348.999 119
c-85.333 80 -128 189.667 -128 329c0 137.333 42.667 247 128 329s201.333 123 348 123zM526.997 166c43.333 0 70.333 25 81 75v79c-4.66699 22.667 -14.167 40.5 -28.5 53.5s-31.833 19.5 -52.5 19.5c-25.333 0 -45 -9.83301 -59 -29.5s-21 -47.5 -21 -83.5s7 -64 21 -84
s33.667 -30 59 -30z" />
    <glyph glyph-name="A" unicode="A" horiz-adv-x="753" 
d="M733 0h-197l-40 122h-240l-40 -122h-196l260 712h197zM333 356l-32 -97h151l-32 97l-44 149z" />
    <glyph glyph-name="B" unicode="B" horiz-adv-x="712" 
d="M541 389c39.333 -12 70.3311 -34 92.998 -66s34 -69.333 34 -112c0 -62 -22 -112.667 -66 -152c-45.333 -39.333 -105.666 -59 -180.999 -59h-359v712h357c66.667 0 120.334 -16.333 161.001 -49s61 -76 61 -130c0 -73.333 -33.333 -121.333 -100 -144zM389.998 565h-141
v-126h138c50.667 0 76 21.333 76 64c0 18.667 -6.33301 33.667 -19 45s-30.667 17 -54 17zM248.998 152h148c30 0 53 7 69 21s24 33 24 57s-7.66699 42.833 -23 56.5s-37 20.5 -65 20.5h-153v-155z" />
    <glyph glyph-name="C" unicode="C" horiz-adv-x="733" 
d="M383 -23c-100.667 0 -183 34.333 -247 103s-96 160 -96 274c0 114.667 32.333 205.667 97 273c64 68 146.333 102 247 102c90.667 0 164.334 -24 221.001 -72c56.667 -48.667 89.667 -114.667 99 -198h-182c-6 37.333 -20.5 66 -43.5 86s-52.833 30 -89.5 30
c-51.333 0 -91.166 -19.333 -119.499 -58s-42.5 -92.667 -42.5 -162c0 -72 14.167 -127.5 42.5 -166.5s68.166 -58.5 119.499 -58.5c77.333 0 121.666 41.667 132.999 125h182c-6.66699 -87.333 -38.667 -155.333 -96 -204c-58.667 -49.333 -133.667 -74 -225 -74z" />
    <glyph glyph-name="D" unicode="D" horiz-adv-x="738" 
d="M62 712h300c110.667 0 195 -30.667 253 -92s87 -149.333 87 -264c0 -112.667 -27.667 -200.167 -83 -262.5s-136.333 -93.5 -243 -93.5h-314v712zM249 157h95c114 0 171 66.333 171 199c0 68.667 -14.5 119.5 -43.5 152.5s-74.833 49.5 -137.5 49.5h-85v-401z" />
    <glyph glyph-name="E" unicode="E" horiz-adv-x="675" 
d="M249 288v-130h386v-158h-573v712h563v-155h-376v-117h330v-152h-330z" />
    <glyph glyph-name="F" unicode="F" horiz-adv-x="609" 
d="M604 712v-159h-355v-127h301v-153h-301v-273h-187v712h542z" />
    <glyph glyph-name="G" unicode="G" horiz-adv-x="777" 
d="M415 389l300 0.00195312v-389h-123l-16 75c-19.333 -28.667 -46.833 -51.667 -82.5 -69s-76.834 -26 -123.501 -26c-94.667 0 -173.334 34.333 -236.001 103c-62.667 67.333 -94 157.666 -94 270.999c0 114 32 205 96 273c64 67.333 146.667 101 248 101
c84.667 0 154.834 -21 210.501 -63s90.834 -99.667 105.501 -173l-180 -12c-8.66699 30.667 -24.334 54.167 -47.001 70.5s-50.667 24.5 -84 24.5c-51.333 0 -91.166 -19.333 -119.499 -58s-42.5 -92.667 -42.5 -162c0 -72.667 14.5 -128.334 43.5 -167.001
s71.167 -58 126.5 -58c38.667 0 71 10 97 30s43 49.667 51 89h-130v140z" />
    <glyph glyph-name="H" unicode="H" horiz-adv-x="737" 
d="M488 454v258h187v-712h-187v291h-239v-291h-187v712h187v-258h239z" />
    <glyph glyph-name="I" unicode="I" horiz-adv-x="312" 
d="M249 0h-187v712h187v-712z" />
    <glyph glyph-name="J" unicode="J" horiz-adv-x="612" 
d="M484 42c-45.333 -41.333 -106.667 -62.001 -184 -62.001s-138.333 20.667 -183 62c-44.667 40.667 -67 96.667 -67 168v69h174v-63c0 -50 23.333 -75 70 -75c46 0 69 25 69 75v496h187v-501c0 -71.333 -22 -127.666 -66 -168.999z" />
    <glyph glyph-name="K" unicode="K" horiz-adv-x="743" 
d="M740 0h-230l-199 302l-62 -65v-237h-187v712h187v-250l228 250h233l-268 -285z" />
    <glyph glyph-name="L" unicode="L" horiz-adv-x="594" 
d="M249 712v-550h332v-162h-519v712h187z" />
    <glyph glyph-name="M" unicode="M" horiz-adv-x="868" 
d="M464 375l86 337h255v-712h-171v283l14 262l-44 -196l-91 -349h-156l-92 352l-43 192l14 -261v-283h-174v712h253l88 -337l30 -145z" />
    <glyph glyph-name="N" unicode="N" horiz-adv-x="744" 
d="M497 298v414h184v-712h-187l-247 412v-412h-185v712h185z" />
    <glyph glyph-name="O" unicode="O" horiz-adv-x="784" 
d="M645 80c-66 -68.667 -150.666 -103 -253.999 -103c-104 0 -188.333 34.333 -253 103c-65.333 69.333 -98 161 -98 275c0 113.333 32.667 204.333 98 273c65.333 67.333 149.666 101 252.999 101c104 0 189 -33.667 255 -101c65.333 -68.667 98 -159.667 98 -273
c0 -114 -33 -205.667 -99 -275zM271.001 190c28.667 -40 68.667 -60 120 -60s92 20 122 60c29.333 40.667 44 95.667 44 165c0 68.667 -14.833 122.667 -44.5 162s-70.167 59 -121.5 59s-91.5 -19.5 -120.5 -58.5s-43.5 -93.167 -43.5 -162.5
c0 -70.667 14.667 -125.667 44 -165z" />
    <glyph glyph-name="P" unicode="P" horiz-adv-x="668" 
d="M62 712h328.001c77.333 0 139.666 -21.667 186.999 -65c46 -44 69 -102 69 -174c0 -73.333 -23.333 -132 -70 -176s-111.667 -66 -195 -66h-132v-231h-187v712zM249.001 379l104.001 0.000976562c72.667 0 109 30.667 109 92c0 29.333 -8.83301 51.666 -26.5 66.999
s-42.834 23 -75.501 23h-111v-182z" />
    <glyph glyph-name="Q" unicode="Q" horiz-adv-x="771" 
d="M744 354c0 -112 -32.333 -202.666 -97 -271.999l81 -78l-102 -91l-73 100c-48 -24 -102 -36 -162 -36c-104 0 -188.333 34.333 -253 103c-65.333 69.333 -98 160.666 -98 273.999s32.667 204.333 98 273c64.667 68 149 102 253 102c103.333 0 188 -34 254 -102
s99 -159 99 -273zM227 355.001c0 -70.667 14.5 -125.833 43.5 -165.5s69.167 -59.5 120.5 -59.5c17.333 0 35 2.66699 53 8l-84 76l102 92l66 -92c19.333 37.333 29 84.333 29 141c0 68.667 -14.833 122.5 -44.5 161.5s-70.167 58.5 -121.5 58.5s-91.5 -19.5 -120.5 -58.5
s-43.5 -92.833 -43.5 -161.5z" />
    <glyph glyph-name="R" unicode="R" horiz-adv-x="722" 
d="M646 198l23 -197.999h-187l-16 166c-3.33301 33.333 -13 57.666 -29 72.999s-40.667 23 -74 23h-114v-262h-187v712h375c72.667 0 129.167 -18.5 169.5 -55.5s60.5 -85.833 60.5 -146.5c0 -87.333 -42.333 -145.333 -127 -174c62.667 -18 98 -64 106 -138zM249 402.001
h134c32 0 56.5 7.5 73.5 22.5s25.5 35.167 25.5 60.5c0 24.667 -7.66699 44.167 -23 58.5s-37.333 21.5 -66 21.5h-144v-163z" />
    <glyph glyph-name="S" unicode="S" horiz-adv-x="692" 
d="M351 -23c-95.333 0 -170.333 21.8301 -225 65.4971s-84 105.834 -88 186.501h185c4.66699 -68 48.667 -102 132 -102c72.667 0 109 23.667 109 71c0 18.667 -6.5 33.167 -19.5 43.5s-34.833 19.5 -65.5 27.5l-140 33c-122.667 28.667 -184 96.334 -184 203.001
c0 65.333 23.667 119 71 161s118 63 212 63c90 0 160.333 -19.833 211 -59.5s78 -95.834 82 -168.501h-181c-8 56 -45.667 84 -113 84c-29.333 0 -52.5 -5.83301 -69.5 -17.5s-25.5 -27.167 -25.5 -46.5c0 -30 22.667 -50.667 68 -62l146 -34
c132 -31.333 198 -102.666 198 -213.999c0 -73.333 -27 -130.666 -81 -171.999s-128 -62 -222 -62z" />
    <glyph glyph-name="T" unicode="T" horiz-adv-x="645" 
d="M20 712h605v-162h-208v-550h-187v550h-210v162z" />
    <glyph glyph-name="U" unicode="U" horiz-adv-x="735" 
d="M367 -23c-98 0 -173.332 23.001 -225.999 69.001s-79 112 -79 198v468h187v-469c0 -75.333 39.667 -113 119 -113c78.667 0 118 37.667 118 113v469h187v-468c0 -86.667 -26.333 -152.834 -79 -198.501s-128.334 -68.5 -227.001 -68.5z" />
    <glyph glyph-name="V" unicode="V" horiz-adv-x="698" 
d="M405 421l83 291h190l-230 -712h-198l-230 712h192l84 -290l55 -224z" />
    <glyph glyph-name="W" unicode="W" horiz-adv-x="1004" 
d="M718 399l79 313h187l-207 -712h-180l-95 455l-91 -455h-184l-207 712h189l79 -313l33 -169l29 169l67 313h172l69 -313l28 -166z" />
    <glyph glyph-name="X" unicode="X" horiz-adv-x="751" 
d="M713 712l-230 -337l248 -375h-219l-101 174l-34 71l-35 -71l-103 -174h-219l253 376l-228 336h214l80 -138l41 -82l40 81l83 139h210z" />
    <glyph glyph-name="Y" unicode="Y" horiz-adv-x="713" 
d="M392 507l102 205h204l-248 -444v-268h-187v268l-249 444h208l99 -205l35 -90z" />
    <glyph glyph-name="Z" unicode="Z" horiz-adv-x="698" 
d="M643 575l-358 -415h369v-160h-610v150l351 402h-327v160h575v-137z" />
    <glyph glyph-name="bracketleft" unicode="[" horiz-adv-x="407" 
d="M376 -204h-314v950h314v-144h-144v-661h144v-145z" />
    <glyph glyph-name="backslash" unicode="\" horiz-adv-x="536" 
d="M506 0h-180l-296 712h180z" />
    <glyph glyph-name="bracketright" unicode="]" horiz-adv-x="407" 
d="M345 -204h-314v145h144v661h-144v144h314v-950z" />
    <glyph glyph-name="asciicircum" unicode="^" 
d="M267 712h188.999l176 -516h-177l-45 146c-18.667 63.333 -34.667 125 -48 185c-19.333 -77.333 -35.666 -139 -48.999 -185l-42 -146h-176z" />
    <glyph glyph-name="underscore" unicode="_" horiz-adv-x="500" 
d="M500 -154h-500v79h500v-79z" />
    <glyph glyph-name="grave" unicode="`" horiz-adv-x="500" 
d="M395 591h-140l-149 162h206z" />
    <glyph glyph-name="a" unicode="a" horiz-adv-x="600" 
d="M563 0h-172c-8 21.333 -13 40 -15 56c-36 -49.333 -90.333 -74 -163 -74c-56 0 -100.667 14.333 -134 43s-50 67 -50 115c0 84.667 53.333 136.334 160 155.001l180 32v37c0 34 -25.333 51 -76 51c-24.667 0 -43 -4.83301 -55 -14.5s-19.333 -25.5 -22 -47.5l-161 5
c6 59.333 28.333 103 67 131s97 42 175 42c160.667 0 241 -63 241 -189v-223c0 -50.667 8.33301 -90.334 25 -119.001zM268 98c31.333 0 56.667 8.83203 76 26.499s29 42.834 29 75.501v31l-110 -22c-43.333 -9.33301 -65 -28.333 -65 -57c0 -36 23.333 -54 70 -54z" />
    <glyph glyph-name="b" unicode="b" horiz-adv-x="620" 
d="M227 712l0.000976562 -245c38 43.333 88 65 150 65s113.333 -24.333 154 -73s61 -115.334 61 -200.001c0 -85.333 -20.333 -152.666 -61 -201.999c-40.667 -50.667 -94.334 -76 -161.001 -76c-66 0 -117 26 -153 78l-5 -59h-157v712h172zM324.001 126
c30 0 53.5 11.6689 70.5 35.002s25.5 56.666 25.5 99.999c0 42.667 -8.5 75.667 -25.5 99s-40.5 35 -70.5 35c-30.667 0 -55.334 -12.167 -74.001 -36.5s-28 -56.833 -28 -97.5s9.33301 -73.334 28 -98.001s43.334 -37 74.001 -37z" />
    <glyph glyph-name="c" unicode="c" horiz-adv-x="581" 
d="M298 -19c-82.667 0 -147.999 25.001 -195.999 75.001c-48.667 49.333 -73 116.333 -73 201c0 84 24.333 150.667 73 200c48 50 113.333 75 196 75c71.333 0 130 -18.333 176 -55s73 -86.334 81 -149.001l-168 -5c-10 55.333 -39 83 -87 83c-66 0 -99 -49.667 -99 -149
c0 -100 33 -150 99 -150c47.333 0 76 28.667 86 86l169 -5c-9.33301 -64 -36.833 -114.5 -82.5 -151.5s-103.834 -55.5 -174.501 -55.5z" />
    <glyph glyph-name="d" unicode="d" horiz-adv-x="621" 
d="M394 467l0.000976562 245h172v-712h-157l-5 59c-36 -52 -87 -78 -153 -78c-66.667 0 -120.334 25.333 -161.001 76c-40.667 49.333 -61 116.666 -61 201.999c0 84.667 20.333 151.334 61 200.001c40 48.667 91 73 153 73c62.667 0 113 -21.667 151 -65zM297.001 126
c30.667 0 55.167 12.3311 73.5 36.998s27.5 57.334 27.5 98.001s-9.16699 73.167 -27.5 97.5s-42.833 36.5 -73.5 36.5c-30 0 -53.5 -11.667 -70.5 -35s-25.5 -56.333 -25.5 -99c0 -43.333 8.5 -76.666 25.5 -99.999s40.5 -35 70.5 -35z" />
    <glyph glyph-name="e" unicode="e" horiz-adv-x="604" 
d="M576 238v-26h-376c8.66699 -70.667 44.667 -106 108 -106c44 0 74 18.333 90 55l165 -11c-18 -54 -48.833 -95.667 -92.5 -125s-97.5 -44 -161.5 -44c-86.667 0 -155 25.667 -205 77s-75 118 -75 200c0 81.333 25 147.333 75 198c48.667 50.667 114 76 196 76
c86 0 153.667 -27.667 203 -83c48.667 -54.667 73 -125 73 -211zM201 315h199c-8 63.333 -40.667 95 -98 95s-91 -31.667 -101 -95z" />
    <glyph glyph-name="f" unicode="f" horiz-adv-x="380" 
d="M365 590h-48c-19.333 0 -33 -4.16699 -41 -12.5s-12 -21.5 -12 -39.5v-25l101 3v-114l-101 3v-405h-172v404l-77 -2v114l77 -2v27c0 114 62 171 186 171h87v-122z" />
    <glyph glyph-name="g" unicode="g" horiz-adv-x="621" 
d="M403 459l6 57.001h157v-502c0 -72.667 -23.667 -129.167 -71 -169.5s-114 -60.5 -200 -60.5c-148.667 0 -232.334 57 -251.001 171l162 8c11.333 -37.333 42 -56 92 -56c34 0 58.5 7.33301 73.5 22s22.5 37.334 22.5 68.001v69c-35.333 -41.333 -83.333 -62 -144 -62
c-66 0 -119.333 24.333 -160 73c-40.667 47.333 -61 111.666 -61 192.999s20.667 145.666 62 192.999c40.667 46 93 69 157 69c64.667 0 116.334 -24.333 155.001 -73zM297 142.001c30.667 0 55.167 11.8311 73.5 35.498s27.5 55.167 27.5 94.5
c0 38.667 -9.16699 69.834 -27.5 93.501s-42.833 35.5 -73.5 35.5c-30 0 -53.5 -11.167 -70.5 -33.5s-25.5 -54.166 -25.5 -95.499s8.5 -73.333 25.5 -96s40.5 -34 70.5 -34z" />
    <glyph glyph-name="h" unicode="h" horiz-adv-x="614" 
d="M376 530c57.333 0 102.167 -16.5 134.5 -49.5s48.5 -79.167 48.5 -138.5v-342h-172v302c0 26 -6.16699 46.167 -18.5 60.5s-29.833 21.5 -52.5 21.5c-26.667 0 -48.167 -10 -64.5 -30s-24.5 -46.333 -24.5 -79v-275h-172v712h172v-257c34 50 83.667 75 149 75z" />
    <glyph glyph-name="i" unicode="i" horiz-adv-x="282" 
d="M227 582h-172v130h172v-130zM227 0h-172v516h172v-516z" />
    <glyph glyph-name="j" unicode="j" horiz-adv-x="282" 
d="M227 582h-172v130h172v-130zM47 -210l-79.999 -0.000976562v134h36c18.667 0 32 3.83301 40 11.5s12 20.167 12 37.5v543h172v-552c0 -61.333 -14.333 -105.666 -43 -132.999s-74.334 -41 -137.001 -41z" />
    <glyph glyph-name="k" unicode="k" horiz-adv-x="612" 
d="M595 0h-204l-123 205l-41 -42v-163h-172v712h172v-368l148 172h209l-200 -205z" />
    <glyph glyph-name="l" unicode="l" horiz-adv-x="282" 
d="M227 0h-172v712h172v-712z" />
    <glyph glyph-name="m" unicode="m" horiz-adv-x="916" 
d="M680 532c56 0 100.168 -16.998 132.501 -50.998s48.5 -81 48.5 -141v-340h-172v308c0 24.667 -5.66699 44.167 -17 58.5s-27 21.5 -47 21.5c-24 0 -43.5 -9.33301 -58.5 -28s-22.5 -43.334 -22.5 -74.001v-286h-172v308c0 24.667 -5.66699 44.167 -17 58.5
s-27 21.5 -47 21.5c-24.667 0 -44.334 -9.33301 -59.001 -28s-22 -43.334 -22 -74.001v-286h-172v516h162l5 -65c34 54 82.333 81 145 81c72 0 123 -29.333 153 -88c36.667 58.667 90 88 160 88z" />
    <glyph glyph-name="n" unicode="n" horiz-adv-x="614" 
d="M376 530c57.333 0 102.168 -16.5 134.501 -49.5s48.5 -79.167 48.5 -138.5v-342h-172v302c0 26 -6.16699 46.167 -18.5 60.5s-29.833 21.5 -52.5 21.5c-26.667 0 -48.167 -10 -64.5 -30s-24.5 -46.333 -24.5 -79v-275h-172v516h162l5 -69
c35.333 55.333 86.666 83 153.999 83z" />
    <glyph glyph-name="o" unicode="o" horiz-adv-x="611" 
d="M506 58c-51.333 -51.333 -118 -77 -200 -77s-148.667 25.667 -200 77s-77 117.666 -77 198.999c0 80.667 25.667 146.667 77 198s118 77 200 77s148.667 -25.667 200 -77s77 -117.333 77 -198c0 -81.333 -25.667 -147.666 -77 -198.999zM228 146
c18 -26 44.001 -39 78.001 -39c33.333 0 59.666 13 78.999 39c18 25.333 27 62.333 27 111c0 48 -9.16699 84.833 -27.5 110.5s-44.5 38.5 -78.5 38.5s-60 -12.833 -78 -38.5s-27 -62.5 -27 -110.5c0 -48.667 9 -85.667 27 -111z" />
    <glyph glyph-name="p" unicode="p" horiz-adv-x="620" 
d="M377 532c62 0 113.334 -24.333 154.001 -73s61 -115.334 61 -200.001c0 -85.333 -20.333 -152.666 -61 -201.999c-40.667 -50.667 -94.334 -76 -161.001 -76c-60 0 -107.667 21.667 -143 65v-250h-172v720h157l5 -60c40.667 50.667 94 76 160 76zM324.001 126
c30 0 53.5 11.6689 70.5 35.002s25.5 56.666 25.5 99.999c0 42.667 -8.5 75.667 -25.5 99s-40.5 35 -70.5 35c-30.667 0 -55.334 -12.167 -74.001 -36.5s-28 -56.833 -28 -97.5s9.33301 -73.334 28 -98.001s43.334 -37 74.001 -37z" />
    <glyph glyph-name="q" unicode="q" horiz-adv-x="621" 
d="M404 456l5 60h157v-716h-172v246c-35.333 -43.333 -83 -65 -143 -65c-66.667 0 -120.334 25.333 -161.001 76c-40.667 49.333 -61 116.666 -61 201.999c0 84.667 20.333 151.334 61 200.001c40 48.667 91 73 153 73c66.667 0 120.334 -25.333 161.001 -76zM297 126
c30.667 0 55.167 12.3311 73.5 36.998s27.5 57.334 27.5 98.001s-9.16699 73.167 -27.5 97.5s-42.833 36.5 -73.5 36.5c-30 0 -53.5 -11.667 -70.5 -35s-25.5 -56.333 -25.5 -99c0 -43.333 8.5 -76.666 25.5 -99.999s40.5 -35 70.5 -35z" />
    <glyph glyph-name="r" unicode="r" horiz-adv-x="422" 
d="M351 534c16.667 0 33.001 -2.33301 49.001 -7v-152c-12.667 2 -25.334 3 -38.001 3c-90 0 -135 -46 -135 -138v-240h-172v516h163l2 -74c27.333 61.333 71 92 131 92z" />
    <glyph glyph-name="s" unicode="s" horiz-adv-x="574" 
d="M289 -20c-74.667 0 -133.332 15.501 -175.999 46.501s-67.667 74.833 -75 131.5l161 3c6 -47.333 38 -71 96 -71c26 0 46.5 4.83301 61.5 14.5s22.5 23.167 22.5 40.5c0 26 -21 42.333 -63 49l-90 13c-117.333 16 -176 67 -176 153c0 54 20.667 96.167 62 126.5
s98 45.5 170 45.5c69.333 0 124.666 -14.333 165.999 -43s65.666 -69 72.999 -121l-155 -4c-7.33301 41.333 -36.666 62 -87.999 62c-22 0 -39.5 -4.33301 -52.5 -13s-19.5 -20.334 -19.5 -35.001c0 -26.667 19.667 -43 59 -49l94 -15c120 -17.333 180 -69 180 -155
c0 -57.333 -22.167 -101.5 -66.5 -132.5s-105.5 -46.5 -183.5 -46.5z" />
    <glyph glyph-name="t" unicode="t" horiz-adv-x="387" 
d="M357 404l-95 3v-222c0 -35.333 16.333 -53 49 -53h46v-132h-105c-60 0 -102 12.167 -126 36.5s-36 66.5 -36 126.5v243l-75 -2v112l75 -2v159h172v-160l95 3v-112z" />
    <glyph glyph-name="u" unicode="u" horiz-adv-x="614" 
d="M387 241l-0.000976562 275h172v-516h-162l-5 69c-35.333 -55.333 -87 -83 -155 -83c-57.333 0 -102 16.5 -134 49.5s-48 79.167 -48 138.5v342h172v-302c0 -26 6 -46.167 18 -60.5s29.333 -21.5 52 -21.5c26.667 0 48.334 10 65.001 30s25 46.333 25 79z" />
    <glyph glyph-name="v" unicode="v" horiz-adv-x="557" 
d="M330 370l45 146h172l-172 -516h-189l-176 516h181l42 -146l49 -203z" />
    <glyph glyph-name="w" unicode="w" horiz-adv-x="836" 
d="M596 290l60 226h170l-162 -516h-165l-71 268l-10 48l-10 -49l-71 -267h-165l-162 516h176l61 -227l19 -95l19 95l56 227h152l58 -224l22 -106z" />
    <glyph glyph-name="x" unicode="x" horiz-adv-x="574" 
d="M381 271l184 -271h-195l-80 146l-86 -146h-194l188 270l-164 246h191l67 -123l70 123h187z" />
    <glyph glyph-name="y" unicode="y" horiz-adv-x="580" 
d="M292 177l97 339h181l-205 -598c-16 -44.667 -37 -76.167 -63 -94.5s-62.333 -27.5 -109 -27.5h-118v140h70c18 0 31.833 3 41.5 9s17.167 16 22.5 30l5 14l-204 527h185l79 -247z" />
    <glyph glyph-name="z" unicode="z" horiz-adv-x="519" 
d="M482 387l-244 -251h258v-136h-473v130l246 250h-222v136h435v-129z" />
    <glyph glyph-name="braceleft" unicode="{" horiz-adv-x="455" 
d="M423 -204l-133 -0.00195312c-97.333 0 -146 46 -146 138v170c0 34.667 -8.5 59.5 -25.5 74.5s-46.167 23.167 -87.5 24.5v140c40.667 0.666992 69.667 8.83398 87 24.501s26 41.5 26 77.5v164c0 44.667 12.5 78.834 37.5 102.501s61.167 35.5 108.5 35.5h133v-145h-50
c-21.333 0 -36.5 -4.66699 -45.5 -14s-13.5 -25 -13.5 -47v-125c0 -86.667 -42.333 -134 -127 -142v-3c84.667 -8.66699 127 -54 127 -136v-132c0 -22 4.83301 -37.833 14.5 -47.5s25.167 -14.5 46.5 -14.5h48v-145z" />
    <glyph glyph-name="bar" unicode="|" horiz-adv-x="297" 
d="M235 -204h-173v951h173v-951z" />
    <glyph glyph-name="braceright" unicode="}" horiz-adv-x="447" 
d="M157 -204h-126.001v141h49c21.333 0 36.833 5 46.5 15s14.5 26.333 14.5 49v141c0 84 45.667 132 137 144v2c-91.333 11.333 -137 61.333 -137 150v133c0 22 -4.66699 38 -14 48s-24.666 15 -45.999 15h-50v141h126c46.667 0 82.5 -12.167 107.5 -36.5
s37.5 -59.5 37.5 -105.5v-173c0 -37.333 8.66699 -64 26 -80s46.333 -24.333 87 -25v-136c-40.667 -1.33301 -69.667 -9.83301 -87 -25.5s-26 -41.5 -26 -77.5v-178c0 -94.667 -48.333 -142 -145 -142z" />
    <glyph glyph-name="asciitilde" unicode="~" 
d="M225 237h-140c0 138.667 53.667 208 161 208c34 0 74.833 -10.5 122.5 -31.5s77.5 -31.5 89.5 -31.5c30 0 45 21 45 63h140c0 -138.667 -53.667 -208 -161 -208c-37.333 0 -78 10.667 -122 32c-42 20.667 -72 31 -90 31c-16 0 -27.5 -5 -34.5 -15s-10.5 -26 -10.5 -48z
" />
    <glyph glyph-name="uni00A0" unicode="&#xa0;" horiz-adv-x="256" 
 />
    <glyph glyph-name="exclamdown" unicode="&#xa1;" horiz-adv-x="302" 
d="M240 349h-178v167h178v-167zM239 -200h-176v190l47 281h83l46 -281v-190z" />
    <glyph glyph-name="cent" unicode="&#xa2;" 
d="M373 107c46.667 0 75 28.667 85 86l169 -5c-7.33301 -53.333 -27.833 -97.5 -61.5 -132.5s-77.167 -57.833 -130.5 -68.5v-131h-125v130c-65.333 12 -116.5 42 -153.5 90s-55.5 108.333 -55.5 181s18.5 132.834 55.5 180.501s88.167 77.5 153.5 89.5v139h125v-140
c54 -10 97.833 -32.333 131.5 -67s54.167 -78.334 61.5 -131.001l-169 -5c-9.33301 55.333 -38 83 -86 83c-66.667 0 -100 -49.667 -100 -149c0 -100 33.333 -150 100 -150z" />
    <glyph glyph-name="sterling" unicode="&#xa3;" 
d="M423 130h240.998v-130h-600v130h67c62.667 0 110.834 9.5 144.501 28.5s50.5 42.5 50.5 70.5c0 14 -4 26.333 -12 37l-250 -6v130l142 -6c-66.667 38 -100 89.333 -100 154c0 56.667 22.167 102.5 66.5 137.5s107.5 52.5 189.5 52.5c88.667 0 158 -20.667 208 -62
s76 -96.666 78 -165.999h-167c-2 30.667 -12.333 53.667 -31 69s-43.667 23 -75 23c-30 0 -53.5 -6.66699 -70.5 -20s-25.5 -32 -25.5 -56c0 -22 8.83301 -43.333 26.5 -64s48.834 -43.334 93.501 -68.001l214 6v-130l-128 6c4 -10 6 -21 6 -33
c0 -42.667 -22.667 -77 -68 -103z" />
    <glyph glyph-name="currency" unicode="&#xa4;" 
d="M693 592l-106 -101c21.333 -39.333 32 -82.666 32 -129.999s-10.667 -90.666 -32 -129.999l106 -101l-98 -99l-102 107c-37.333 -20.667 -80.333 -31 -129 -31s-91.667 10.333 -129 31l-102 -107l-98 99l106 101c-21.333 39.333 -32 82.666 -32 129.999
s10.667 90.666 32 129.999l-106 101l98 98l102 -107c37.333 20.667 80.333 31 129 31s91.667 -10.333 129 -31l102 107zM274 267c22.667 -24 52.668 -35.999 90.001 -35.999s67.666 12 90.999 36c22.667 23.333 34 54.666 34 93.999c0 38 -11.5 69 -34.5 93
s-53.167 36 -90.5 36s-67.5 -12 -90.5 -36s-34.5 -55 -34.5 -93s11.667 -69.333 35 -94z" />
    <glyph glyph-name="yen" unicode="&#xa5;" 
d="M502 712h204l-188 -337h120v-110h-180v-75h180v-110h-180v-80h-187v80h-180v110h180v75h-180v110h120l-189 337h207l100 -205l35 -90l36 90z" />
    <glyph glyph-name="brokenbar" unicode="&#xa6;" horiz-adv-x="297" 
d="M235 411h-173v336h173v-336zM235 -204h-173v336h173v-336z" />
    <glyph glyph-name="section" unicode="&#xa7;" horiz-adv-x="647" 
d="M516 166c33.333 -31.333 49.9971 -70.667 49.9971 -118c0 -56 -21.167 -100 -63.5 -132s-101.5 -48 -177.5 -48c-71.333 0 -127.666 14.667 -168.999 44s-65.333 71.333 -72 126l158 4c7.33301 -43.333 37 -65 89 -65c50.667 0 76 18.667 76 56
c0 28.667 -20.667 47.667 -62 57l-142 34c-108.667 26 -163 84 -163 174c0 64 30.667 112.667 92 146c-34 30 -51 69.333 -51 118c0 54.667 21.667 98.167 65 130.5s102.333 48.5 177 48.5c70 0 125.833 -14.833 167.5 -44.5s65.834 -71.5 72.501 -125.5l-158 -4
c-7.33301 43.333 -37.333 65 -90 65c-23.333 0 -41.666 -4.83301 -54.999 -14.5s-20 -23.5 -20 -41.5c0 -28 20.667 -47 62 -57l142 -35c108.667 -26 163 -83.667 163 -173c0 -64.667 -30.333 -113 -91 -145zM270.997 248.999l117 -28.001
c40.667 10.667 61 33.334 61 68.001c0 36 -24.667 59.667 -74 71l-116 28c-41.333 -11.333 -62 -34 -62 -68c0 -36 24.667 -59.667 74 -71z" />
    <glyph glyph-name="dieresis" unicode="&#xa8;" horiz-adv-x="500" 
d="M206 582h-168v130h168v-130zM462 582h-168v130h168v-130z" />
    <glyph glyph-name="copyright" unicode="&#xa9;" horiz-adv-x="842" 
d="M695 88c-72.667 -71.333 -163.999 -107.002 -273.999 -107.002c-110.667 0 -201.667 35.667 -273 107c-72 70.667 -108 161 -108 271s36 200.333 108 271c70.667 70.667 161.667 106 273 106s202.666 -35.333 273.999 -106c71.333 -71.333 107 -161.666 107 -270.999
s-35.667 -199.666 -107 -270.999zM218.001 151.998c53.333 -54 121 -80.999 203 -80.999c83.333 0 151.333 27 204 81c52.667 53.333 79 122.333 79 207c0 84 -26.333 152.667 -79 206c-52.667 54 -120.667 81 -204 81c-82 0 -149.667 -27 -203 -81
c-53.333 -54.667 -80 -123.334 -80 -206.001c0 -83.333 26.667 -152.333 80 -207zM424.001 164.999c-56 0 -100.499 17.5 -133.499 52.5s-49.5 82.5 -49.5 142.5c0 60.667 16.167 108 48.5 142s77.166 51 134.499 51c43.333 0 79.833 -10.167 109.5 -30.5
s50.5 -49.833 62.5 -88.5l-106 -23c-10.667 32 -32 48 -64 48c-46 0 -69 -33 -69 -99s23 -99 69 -99c32 0 53.667 16.667 65 50l105 -20c-11.333 -40 -31.833 -71 -61.5 -93s-66.5 -33 -110.5 -33z" />
    <glyph glyph-name="ordfeminine" unicode="&#xaa;" horiz-adv-x="528" 
d="M267 727c71.333 0 123.501 -12.5 156.501 -37.5s49.5 -63.833 49.5 -116.5v-218h-123l-10 43c-33.333 -32.667 -80.666 -49 -141.999 -49c-44.667 0 -79.667 9.83301 -105 29.5s-38 47.167 -38 82.5c0 62 43 97 129 105l149 15v15c0 33.333 -23 50 -69 50
c-38.667 0 -61.334 -12 -68.001 -36l-131 15c19.333 68 86.666 102 201.999 102zM250.001 431c39.333 0 67 14.667 83 44v45l-94 -10c-29.333 -3.33301 -44 -16.333 -44 -39c0 -26.667 18.333 -40 55 -40z" />
    <glyph glyph-name="guillemotleft" unicode="&#xab;" horiz-adv-x="690" 
d="M319 160v-173l-264 191v158l264 190v-172l-142 -97zM635 160v-173l-264 191v158l264 190v-172l-142 -97z" />
    <glyph glyph-name="logicalnot" unicode="&#xac;" 
d="M629 135h-138v188h-392v130h530v-318z" />
    <glyph glyph-name="uni00AD" unicode="&#xad;" horiz-adv-x="363" 
d="M324 209h-285v138h285v-138z" />
    <glyph glyph-name="registered" unicode="&#xae;" horiz-adv-x="618" 
d="M118 652c52 50 115.667 75 191 75s139 -25 191 -75c52 -50.667 78 -112.667 78 -186c0 -72.667 -26 -134 -78 -184c-51.333 -50.667 -115 -76 -191 -76s-139.667 25.333 -191 76c-52 50 -78 111.333 -78 184c0 73.333 26 135.333 78 186zM165 324
c39.333 -38 87.333 -57 144 -57c58 0 106.333 19 145 57s58 85.333 58 142c0 57.333 -19.333 105 -58 143s-87 57 -145 57s-106.333 -19 -145 -57s-58 -85.667 -58 -143c0 -56.667 19.667 -104 59 -142zM422 402l2 -33.999c0.666992 -14.667 4 -24.334 10 -29.001h-81
c-4 7.33301 -6.33301 17 -7 29l-2 28c-0.666992 11.333 -3.16699 19 -7.5 23s-11.833 6 -22.5 6h-33v-86h-78v258h127c30.667 0 54.5 -6.83301 71.5 -20.5s25.5 -32.834 25.5 -57.501c0 -25.333 -11.667 -44.666 -35 -57.999c18.667 -10 28.667 -29.667 30 -59zM281 534.001
v-50h38c18 0 27 8.33301 27 25s-9 25 -27 25h-38z" />
    <glyph glyph-name="overscore" unicode="&#xaf;" horiz-adv-x="500" 
d="M436 610h-371v112h371v-112z" />
    <glyph glyph-name="degree" unicode="&#xb0;" horiz-adv-x="461" 
d="M376 393c-38 -38.667 -86.333 -58 -145 -58s-107 19.333 -145 58c-38 38 -57 86.333 -57 145c0 58 19 106 57 144s86.333 57 145 57s107 -19 145 -57s57 -86 57 -144c0 -58.667 -19 -107 -57 -145zM166 471c17.333 -17.333 39.001 -26 65.001 -26
c26.667 0 48.667 8.66699 66 26c16.667 16.667 25 39 25 67c0 26.667 -8.5 48.5 -25.5 65.5s-38.833 25.5 -65.5 25.5s-48.334 -8.5 -65.001 -25.5s-25 -38.833 -25 -65.5c0 -28 8.33301 -50.333 25 -67z" />
    <glyph glyph-name="plusminus" unicode="&#xb1;" 
d="M434 618v-152h204v-131h-204v-153h-140v153h-204v131h204v152h140zM638 -19h-548v131h548v-131z" />
    <glyph glyph-name="two.sups" unicode="&#xb2;" horiz-adv-x="472" 
d="M422 355h-371.001c0 98.667 37.667 163.334 113 194.001l93 42c34 14 51 33 51 57c0 32.667 -23 49 -69 49c-44.667 0 -70.334 -19.333 -77.001 -58l-107 9c4.66699 46 22.834 81.333 54.501 106s74.834 37 129.501 37c56 0 100 -12.333 132 -37s48 -58.667 48 -102
c0 -62 -35.667 -105.667 -107 -131l-86 -36c-24.667 -8.66699 -38 -20.334 -40 -35.001h236v-95z" />
    <glyph glyph-name="three.sups" unicode="&#xb3;" horiz-adv-x="475" 
d="M236 343c-56 0 -99.834 12.168 -131.501 36.501s-49.834 59.5 -54.501 105.5l107 7c7.33301 -39.333 34 -59 80 -59c49.333 0 74 17 74 51c0 31.333 -24.667 47 -74 47h-45v88h44c44 0 66 14.333 66 43c0 14.667 -6.16699 26 -18.5 34s-29.166 12 -50.499 12
c-41.333 0 -66 -16.667 -74 -50l-106 8c6.66699 41.333 25.834 73.166 57.501 95.499s73.5 33.5 125.5 33.5c52.667 0 95 -11 127 -33s48 -51.667 48 -89c0 -44.667 -23 -74.667 -69 -90v-2c56.667 -16 85 -50.667 85 -104c0 -40.667 -17 -73.167 -51 -97.5
s-80.667 -36.5 -140 -36.5z" />
    <glyph glyph-name="acute" unicode="&#xb4;" horiz-adv-x="500" 
d="M246 591h-140l83 162h206z" />
    <glyph glyph-name="uni00B5" unicode="&#xb5;" horiz-adv-x="614" 
d="M227 -204h-172.002v720h172v-298c0 -57.333 23.333 -86 70 -86c26.667 0 48.334 10 65.001 30s25 46.333 25 79v275h172v-516h-162l-5 67c-27.333 -51.333 -73 -77 -137 -77c-19.333 0 -40.666 3.66699 -63.999 11l-1 -2l37 -109v-94z" />
    <glyph glyph-name="paragraph" unicode="&#xb6;" horiz-adv-x="711" 
d="M406 -104l-131.001 -0.000976562v418c-168 0 -252 65.667 -252 197c0 68.667 21.333 119.334 64 152.001s108.334 49 197.001 49h364v-816h-130v685h-112v-685z" />
    <glyph glyph-name="middot" unicode="&#xb7;" horiz-adv-x="340" 
d="M253 275h-167v163h167v-163z" />
    <glyph glyph-name="cedilla" unicode="&#xb8;" horiz-adv-x="500" 
d="M189 -255h-43v67h23c40 0 60 10.667 60 32c0 18.667 -12 28 -36 28h-20l-38 51l58 77h84l-50 -60h16c36.667 0 64.667 -7.66699 84 -23s29 -37 29 -65c0 -71.333 -55.667 -107 -167 -107z" />
    <glyph glyph-name="one.sups" unicode="&#xb9;" horiz-adv-x="305" 
d="M250 355h-113v264h-110v85h25c58.667 0 88 22.667 88 68v10h110v-427z" />
    <glyph glyph-name="ordmasculine" unicode="&#xba;" horiz-adv-x="483" 
d="M399 397c-38.667 -33.333 -90.998 -50 -156.998 -50c-66.667 0 -118.667 16.667 -156 50c-38 32.667 -57 78.667 -57 138s18.667 105.666 56 138.999s89.666 50 156.999 50s119.666 -16.667 156.999 -50s56 -79.666 56 -138.999c0 -58.667 -18.667 -104.667 -56 -138z
M167.002 535c0 -62 25 -93 75 -93s75 31 75 93c0 62.667 -25 94 -75 94s-75 -31.333 -75 -94z" />
    <glyph glyph-name="guillemotright" unicode="&#xbb;" horiz-adv-x="689" 
d="M319 178l-264 -191v173l142 97l-142 97v172l264 -190v-158zM634 178l-264 -191v173l142 97l-142 97v172l264 -190v-158z" />
    <glyph glyph-name="onequarter" unicode="&#xbc;" horiz-adv-x="1119" 
d="M349 -15h-124l470 742h122zM285 288h-113v265h-110v84h25c58.667 0 88 23 88 69v9h110v-427zM985 0h-109v87l-224 -6v91l203 255h130v-258l71 7v-95l-71 6v-87zM874 307l-107 -133l109 -5v138h-2z" />
    <glyph glyph-name="onehalf" unicode="&#xbd;" horiz-adv-x="1130" 
d="M349 -15h-124l470 742h122zM285 288h-113v265h-110v84h25c58.667 0 88 23 88 69v9h110v-427zM1067 0h-371.002c0 49.333 8.83301 89.833 26.5 121.5s46.5 56.167 86.5 73.5l93 41c34.667 14 52 33 52 57c0 14.667 -6.16699 26.5 -18.5 35.5s-29.5 13.5 -51.5 13.5
c-44 0 -69.667 -19 -77 -57l-107 8c4.66699 46 22.834 81.333 54.501 106s74.834 37 129.501 37c56 0 100 -12.333 132 -37s48 -58.667 48 -102c0 -61.333 -35.667 -105 -107 -131l-86 -36c-24.667 -8.66699 -38 -20 -40 -34h236v-96z" />
    <glyph glyph-name="threequarters" unicode="&#xbe;" horiz-adv-x="1212" 
d="M241 277c-112.667 0 -174.668 47.002 -186.001 141.002l107 8c4 -20.667 12.333 -35.667 25 -45s31 -14 55 -14c49.333 0 74 17 74 51c0 30.667 -24.667 46 -74 46h-45v89h45c43.333 0 65 14.333 65 43c0 30 -23 45 -69 45c-40 0 -64.667 -16.667 -74 -50l-106 9
c6.66699 41.333 26 73.166 58 95.499s74 33.5 126 33.5c52.667 0 94.834 -11 126.501 -33s47.5 -51.667 47.5 -89c0 -44.667 -23 -74.667 -69 -90v-2c56.667 -16.667 85 -51.334 85 -104.001c0 -40.667 -17 -73.167 -51 -97.5s-80.667 -36.5 -140 -36.5zM449.999 -14.998
h-125l471 742h122zM1086 0.00195312h-110v87l-223 -6v91l203 255h130v-258l71 7v-95l-71 6v-87zM973.999 307.002l-107 -133l109 -5v138h-2z" />
    <glyph glyph-name="questiondown" unicode="&#xbf;" horiz-adv-x="640" 
d="M422 354h-178v162h178v-162zM325 -208c-90.667 0 -160.833 18.667 -210.5 56s-74.5 88.333 -74.5 153c0 76 37 133 111 171l39 22c23.333 12 39 23.5 47 34.5s12 26.167 12 45.5v10h168v-26c0 -43.333 -9 -78 -27 -104s-49.667 -48.667 -95 -68
c-28 -12.667 -47.333 -24.5 -58 -35.5s-16 -25.167 -16 -42.5c0 -47.333 35.333 -71 106 -71c35.333 0 61.666 7 78.999 21s27.333 36.333 30 67h172c-2.66699 -76.667 -28.167 -134.667 -76.5 -174s-117.166 -59 -206.499 -59z" />
    <glyph glyph-name="Agrave" unicode="&#xc0;" horiz-adv-x="753" 
d="M390 949l83 -162h-140l-148 162h205zM733 0h-197l-40 122h-240l-40 -122h-196l260 712h197zM333 356l-32 -97h151l-32 97l-44 149z" />
    <glyph glyph-name="Aacute" unicode="&#xc1;" horiz-adv-x="753" 
d="M377 949h206l-149 -162h-139zM733 0h-197l-40 122h-240l-40 -122h-196l260 712h197zM333 356l-32 -97h151l-32 97l-44 149z" />
    <glyph glyph-name="Acircumflex" unicode="&#xc2;" horiz-adv-x="753" 
d="M457 790l-73 89l-73 -89h-145l140 163h156l140 -163h-145zM733 0h-197l-40 122h-240l-40 -122h-196l260 712h197zM333 356l-32 -97h151l-32 97l-44 149z" />
    <glyph glyph-name="Atilde" unicode="&#xc3;" horiz-adv-x="753" 
d="M315 848c-28 0 -42 -19.333 -42 -58h-117c0 60 11.667 106.167 35 138.5s56.666 48.5 99.999 48.5c21.333 0 43 -5.16699 65 -15.5s41.333 -20.833 58 -31.5s29.334 -16 38.001 -16c27.333 0 41 19.333 41 58h117c0 -60 -11.833 -106.167 -35.5 -138.5
s-57.167 -48.5 -100.5 -48.5c-27.333 0 -58.5 10.5 -93.5 31.5s-56.833 31.5 -65.5 31.5zM733 0h-197l-40 122h-240l-40 -122h-196l260 712h197zM333 356l-32 -97h151l-32 97l-44 149z" />
    <glyph glyph-name="Adieresis" unicode="&#xc4;" horiz-adv-x="753" 
d="M172 934h168v-136h-168v136zM428 934h168v-136h-168v136zM733 0h-197l-40 122h-240l-40 -122h-196l260 712h197zM333 356l-32 -97h151l-32 97l-44 149z" />
    <glyph glyph-name="Aring" unicode="&#xc5;" horiz-adv-x="753" 
d="M733 0l-197.001 -0.000976562l-40 122h-240l-40 -122h-196l249 681c-23.333 27.333 -35 59.666 -35 96.999c0 42.667 14.333 78.334 43 107.001s64.334 43 107.001 43c43.333 0 79 -14.167 107 -42.5s42 -64.166 42 -107.499c0 -42 -14 -77 -42 -105zM383.999 845.999
c-19.333 0 -35.166 -6.16602 -47.499 -18.499s-18.5 -28.833 -18.5 -49.5c0 -20 6.16699 -36 18.5 -48s28.166 -18 47.499 -18c18.667 0 34.334 6.16699 47.001 18.5s19 28.166 19 47.499c0 20 -6.33301 36.333 -19 49s-28.334 19 -47.001 19zM332.999 356l-32 -97h151
l-32 97l-44 149z" />
    <glyph glyph-name="AE" unicode="&#xc6;" horiz-adv-x="1174" 
d="M747 288v-130h387v-158h-573v155h-256l-85 -155h-200l391 712h713v-155h-377v-117h330v-152h-330zM523 555l-138 -253h176v253h-38z" />
    <glyph glyph-name="Ccedilla" unicode="&#xc7;" horiz-adv-x="733" 
d="M389 130c77.333 0 121.667 41.666 133 124.999h182c-6 -80 -34.333 -144.5 -85 -193.5s-117.334 -76.833 -200.001 -83.5l-40 -48h16c36.667 0 64.667 -7.66699 84 -23s29 -37 29 -65c0 -71.333 -55.667 -107 -167 -107h-43v67h23c40 0 60 10.667 60 32
c0 18.667 -12 28 -36 28h-20l-38 51l50 67c-88 10.667 -159.667 49.667 -215 117c-54.667 66.667 -82 152.334 -82 257.001c0 114.667 32.333 205.667 97 273c64 68 146.333 102 247 102c90.667 0 164.334 -24 221.001 -72c56.667 -48.667 89.667 -114.667 99 -198h-182
c-6 37.333 -20.5 66 -43.5 86s-52.833 30 -89.5 30c-51.333 0 -91.166 -19.333 -119.499 -58s-42.5 -92.667 -42.5 -162c0 -72 14.167 -127.5 42.5 -166.5s68.166 -58.5 119.499 -58.5z" />
    <glyph glyph-name="Egrave" unicode="&#xc8;" horiz-adv-x="675" 
d="M348 949l83 -162h-140l-148 162h205zM249 288v-130h386v-158h-573v712h563v-155h-376v-117h330v-152h-330z" />
    <glyph glyph-name="Eacute" unicode="&#xc9;" horiz-adv-x="675" 
d="M334 949h206l-149 -162h-139zM249 288v-130h386v-158h-573v712h563v-155h-376v-117h330v-152h-330z" />
    <glyph glyph-name="Ecircumflex" unicode="&#xca;" horiz-adv-x="675" 
d="M414 790l-73 89l-73 -89h-145l140 163h156l140 -163h-145zM249 288v-130h386v-158h-573v712h563v-155h-376v-117h330v-152h-330z" />
    <glyph glyph-name="Edieresis" unicode="&#xcb;" horiz-adv-x="675" 
d="M129 934h168v-136h-168v136zM385 934h168v-136h-168v136zM249 288v-130h386v-158h-573v712h563v-155h-376v-117h330v-152h-330z" />
    <glyph glyph-name="Igrave" unicode="&#xcc;" horiz-adv-x="312" 
d="M245 787h-140l-148 162h205zM249 0h-187v712h187v-712z" />
    <glyph glyph-name="Iacute" unicode="&#xcd;" horiz-adv-x="312" 
d="M206 787h-139l82 162h206zM249 0h-187v712h187v-712z" />
    <glyph glyph-name="Icircumflex" unicode="&#xce;" horiz-adv-x="312" 
d="M83 790h-145l140 163h156l140 -163h-145l-73 89zM249 0h-187v712h187v-712z" />
    <glyph glyph-name="Idieresis" unicode="&#xcf;" horiz-adv-x="312" 
d="M112 798h-168v136h168v-136zM368 798h-169v136h169v-136zM249 0h-187v712h187v-712z" />
    <glyph glyph-name="Eth" unicode="&#xd0;" horiz-adv-x="814" 
d="M138 712h299c110.667 0 195 -30.667 253 -92s87 -149.333 87 -264c0 -112.667 -27.667 -200.167 -83 -262.5s-136 -93.5 -242 -93.5h-314v298l-123 -5v131l123 -5v293zM325 157h95c114 0 171 66.333 171 199c0 68.667 -14.5 119.5 -43.5 152.5s-74.833 49.5 -137.5 49.5
h-85v-139l137 5v-131l-137 5v-141z" />
    <glyph glyph-name="Ntilde" unicode="&#xd1;" horiz-adv-x="744" 
d="M308 848c-28 0 -41.999 -19.333 -41.999 -58h-117c0 60 11.667 106.167 35 138.5s56.666 48.5 99.999 48.5c28 0 59.667 -10.5 95 -31.5s57.333 -31.5 66 -31.5c27.333 0 41 19.333 41 58h117c0 -60 -11.833 -106.167 -35.5 -138.5s-57.167 -48.5 -100.5 -48.5
c-27.333 0 -58.5 10.5 -93.5 31.5s-56.833 31.5 -65.5 31.5zM497.001 298v414h184v-712h-187l-247 412v-412h-185v712h185z" />
    <glyph glyph-name="Ograve" unicode="&#xd2;" horiz-adv-x="784" 
d="M480 787h-140l-148 162h205zM645 80c-66 -68.667 -150.666 -103 -253.999 -103c-104 0 -188.333 34.333 -253 103c-65.333 69.333 -98 161 -98 275c0 113.333 32.667 204.333 98 273c65.333 67.333 149.666 101 252.999 101c104 0 189 -33.667 255 -101
c65.333 -68.667 98 -159.667 98 -273c0 -114 -33 -205.667 -99 -275zM271.001 190c28.667 -40 68.667 -60 120 -60s92 20 122 60c29.333 40.667 44 95.667 44 165c0 68.667 -14.833 122.667 -44.5 162s-70.167 59 -121.5 59s-91.5 -19.5 -120.5 -58.5
s-43.5 -93.167 -43.5 -162.5c0 -70.667 14.667 -125.667 44 -165z" />
    <glyph glyph-name="Oacute" unicode="&#xd3;" horiz-adv-x="784" 
d="M440 787h-139l82 162h206zM645 80c-66 -68.667 -150.666 -103 -253.999 -103c-104 0 -188.333 34.333 -253 103c-65.333 69.333 -98 161 -98 275c0 113.333 32.667 204.333 98 273c65.333 67.333 149.666 101 252.999 101c104 0 189 -33.667 255 -101
c65.333 -68.667 98 -159.667 98 -273c0 -114 -33 -205.667 -99 -275zM271.001 190c28.667 -40 68.667 -60 120 -60s92 20 122 60c29.333 40.667 44 95.667 44 165c0 68.667 -14.833 122.667 -44.5 162s-70.167 59 -121.5 59s-91.5 -19.5 -120.5 -58.5
s-43.5 -93.167 -43.5 -162.5c0 -70.667 14.667 -125.667 44 -165z" />
    <glyph glyph-name="Ocircumflex" unicode="&#xd4;" horiz-adv-x="784" 
d="M317 790h-145l140 163h156l140 -163h-145l-73 89zM645 80c-66 -68.667 -150.666 -103 -253.999 -103c-104 0 -188.333 34.333 -253 103c-65.333 69.333 -98 161 -98 275c0 113.333 32.667 204.333 98 273c65.333 67.333 149.666 101 252.999 101
c104 0 189 -33.667 255 -101c65.333 -68.667 98 -159.667 98 -273c0 -114 -33 -205.667 -99 -275zM271.001 190c28.667 -40 68.667 -60 120 -60s92 20 122 60c29.333 40.667 44 95.667 44 165c0 68.667 -14.833 122.667 -44.5 162s-70.167 59 -121.5 59
s-91.5 -19.5 -120.5 -58.5s-43.5 -93.167 -43.5 -162.5c0 -70.667 14.667 -125.667 44 -165z" />
    <glyph glyph-name="Otilde" unicode="&#xd5;" horiz-adv-x="784" 
d="M279 790h-116.999c0 60 11.667 106.167 35 138.5s56.666 48.5 99.999 48.5c28.667 0 60.5 -10.5 95.5 -31.5s56.833 -31.5 65.5 -31.5c27.333 0 41 19.333 41 58h117c0 -60 -11.833 -106.167 -35.5 -138.5s-57.167 -48.5 -100.5 -48.5c-27.333 0 -58.5 10.5 -93.5 31.5
s-56.833 31.5 -65.5 31.5c-28 0 -42 -19.333 -42 -58zM645.001 80c-66 -68.667 -150.666 -103 -253.999 -103c-104 0 -188.333 34.333 -253 103c-65.333 69.333 -98 161 -98 275c0 113.333 32.667 204.333 98 273c65.333 67.333 149.666 101 252.999 101
c104 0 189 -33.667 255 -101c65.333 -68.667 98 -159.667 98 -273c0 -114 -33 -205.667 -99 -275zM271.002 190c28.667 -40 68.667 -60 120 -60s92 20 122 60c29.333 40.667 44 95.667 44 165c0 68.667 -14.833 122.667 -44.5 162s-70.167 59 -121.5 59
s-91.5 -19.5 -120.5 -58.5s-43.5 -93.167 -43.5 -162.5c0 -70.667 14.667 -125.667 44 -165z" />
    <glyph glyph-name="Odieresis" unicode="&#xd6;" horiz-adv-x="784" 
d="M346 798h-168v136h168v-136zM602 798h-168v136h168v-136zM645 80c-66 -68.667 -150.666 -103 -253.999 -103c-104 0 -188.333 34.333 -253 103c-65.333 69.333 -98 161 -98 275c0 113.333 32.667 204.333 98 273c65.333 67.333 149.666 101 252.999 101
c104 0 189 -33.667 255 -101c65.333 -68.667 98 -159.667 98 -273c0 -114 -33 -205.667 -99 -275zM271.001 190c28.667 -40 68.667 -60 120 -60s92 20 122 60c29.333 40.667 44 95.667 44 165c0 68.667 -14.833 122.667 -44.5 162s-70.167 59 -121.5 59
s-91.5 -19.5 -120.5 -58.5s-43.5 -93.167 -43.5 -162.5c0 -70.667 14.667 -125.667 44 -165z" />
    <glyph glyph-name="multiply" unicode="&#xd7;" 
d="M364 227l-184 -184l-90 90l184 185l-184 183l90 91l184 -184l185 184l90 -91l-184 -183l184 -185l-90 -90z" />
    <glyph glyph-name="Oslash" unicode="&#xd8;" horiz-adv-x="784" 
d="M713 703l-61 -81.999c61.333 -69.333 92 -158 92 -266c0 -114 -33 -205.667 -99 -275c-66 -68.667 -150.667 -103 -254 -103c-67.333 0 -128.666 16 -183.999 48l-61 -82l-75 55l64 86c-63.333 69.333 -95 159.666 -95 270.999c0 113.333 32.667 204.333 98 273
c65.333 67.333 149.666 101 252.999 101c71.333 0 134.333 -16.333 189 -49l58 78zM227 355.001c0 -46 6.66699 -86.333 20 -121l234 314c-24.667 18.667 -54.667 28 -90 28c-51.333 0 -91.5 -19.5 -120.5 -58.5s-43.5 -93.167 -43.5 -162.5zM391 130.001
c51.333 0 91.833 20 121.5 60s44.5 95 44.5 165c0 44 -6 82 -18 114l-234 -313c25.333 -17.333 54 -26 86 -26z" />
    <glyph glyph-name="Ugrave" unicode="&#xd9;" horiz-adv-x="735" 
d="M457 787h-140l-148 162h205zM367 -23c-98 0 -173.332 23.001 -225.999 69.001s-79 112 -79 198v468h187v-469c0 -75.333 39.667 -113 119 -113c78.667 0 118 37.667 118 113v469h187v-468c0 -86.667 -26.333 -152.834 -79 -198.501s-128.334 -68.5 -227.001 -68.5z" />
    <glyph glyph-name="Uacute" unicode="&#xda;" horiz-adv-x="735" 
d="M418 787h-139l82 162h206zM367 -23c-98 0 -173.332 23.001 -225.999 69.001s-79 112 -79 198v468h187v-469c0 -75.333 39.667 -113 119 -113c78.667 0 118 37.667 118 113v469h187v-468c0 -86.667 -26.333 -152.834 -79 -198.501s-128.334 -68.5 -227.001 -68.5z" />
    <glyph glyph-name="Ucircumflex" unicode="&#xdb;" horiz-adv-x="735" 
d="M295 790h-145l140 163h156l140 -163h-145l-73 89zM367 -23c-98 0 -173.332 23.001 -225.999 69.001s-79 112 -79 198v468h187v-469c0 -75.333 39.667 -113 119 -113c78.667 0 118 37.667 118 113v469h187v-468c0 -86.667 -26.333 -152.834 -79 -198.501
s-128.334 -68.5 -227.001 -68.5z" />
    <glyph glyph-name="Udieresis" unicode="&#xdc;" horiz-adv-x="735" 
d="M324 798h-168v136h168v-136zM580 798h-168v136h168v-136zM367 -23c-98 0 -173.332 23.001 -225.999 69.001s-79 112 -79 198v468h187v-469c0 -75.333 39.667 -113 119 -113c78.667 0 118 37.667 118 113v469h187v-468c0 -86.667 -26.333 -152.834 -79 -198.501
s-128.334 -68.5 -227.001 -68.5z" />
    <glyph glyph-name="Yacute" unicode="&#xdd;" horiz-adv-x="713" 
d="M353 949h206l-149 -162h-139zM392 507l102 205h204l-248 -444v-268h-187v268l-249 444h208l99 -205l35 -90z" />
    <glyph glyph-name="Thorn" unicode="&#xde;" horiz-adv-x="668" 
d="M249 610h141.001c77.333 0 139.666 -21.667 186.999 -65c46 -44 69 -102 69 -174c0 -74 -23.667 -132.833 -71 -176.5s-112 -65.5 -194 -65.5h-132v-129h-187v712h187v-102zM249.001 277l104.001 0.000976562c72.667 0 109 30.333 109 91
c0 29.333 -8.83301 51.666 -26.5 66.999s-42.834 23 -75.501 23h-111v-181z" />
    <glyph glyph-name="germandbls" unicode="&#xdf;" horiz-adv-x="630" 
d="M227 0h-172v517c0 140 84 210 252 210c82.667 0 146 -16.333 190 -49s66 -77.667 66 -135c0 -78 -37.333 -127.333 -112 -148v-2c100.667 -20 151 -81.333 151 -184c0 -66.667 -20.5 -118.167 -61.5 -154.5s-100.833 -54.5 -179.5 -54.5h-56v125h23c66 0 99 32.667 99 98
c0 63.333 -33 95 -99 95h-23v125h17c53.333 0 80 25.667 80 77c0 54 -29 81 -87 81c-58.667 0 -88 -29.667 -88 -89v-512z" />
    <glyph glyph-name="agrave" unicode="&#xe0;" horiz-adv-x="600" 
d="M300 753l83 -162h-140l-148 162h205zM563 0h-172c-8 21.333 -13 40 -15 56c-36 -49.333 -90.333 -74 -163 -74c-56 0 -100.667 14.333 -134 43s-50 67 -50 115c0 84.667 53.333 136.334 160 155.001l180 32v37c0 34 -25.333 51 -76 51c-24.667 0 -43 -4.83301 -55 -14.5
s-19.333 -25.5 -22 -47.5l-161 5c6 59.333 28.333 103 67 131s97 42 175 42c160.667 0 241 -63 241 -189v-223c0 -50.667 8.33301 -90.334 25 -119.001zM268 98c31.333 0 56.667 8.83203 76 26.499s29 42.834 29 75.501v31l-110 -22c-43.333 -9.33301 -65 -28.333 -65 -57
c0 -36 23.333 -54 70 -54z" />
    <glyph glyph-name="aacute" unicode="&#xe1;" horiz-adv-x="600" 
d="M286 753h206l-149 -162h-139zM563 0h-172c-8 21.333 -13 40 -15 56c-36 -49.333 -90.333 -74 -163 -74c-56 0 -100.667 14.333 -134 43s-50 67 -50 115c0 84.667 53.333 136.334 160 155.001l180 32v37c0 34 -25.333 51 -76 51c-24.667 0 -43 -4.83301 -55 -14.5
s-19.333 -25.5 -22 -47.5l-161 5c6 59.333 28.333 103 67 131s97 42 175 42c160.667 0 241 -63 241 -189v-223c0 -50.667 8.33301 -90.334 25 -119.001zM268 98c31.333 0 56.667 8.83203 76 26.499s29 42.834 29 75.501v31l-110 -22c-43.333 -9.33301 -65 -28.333 -65 -57
c0 -36 23.333 -54 70 -54z" />
    <glyph glyph-name="acircumflex" unicode="&#xe2;" horiz-adv-x="600" 
d="M366 594l-73 89l-73 -89h-145l140 163h156l140 -163h-145zM563 0h-172c-8 21.333 -13 40 -15 56c-36 -49.333 -90.333 -74 -163 -74c-56 0 -100.667 14.333 -134 43s-50 67 -50 115c0 84.667 53.333 136.334 160 155.001l180 32v37c0 34 -25.333 51 -76 51
c-24.667 0 -43 -4.83301 -55 -14.5s-19.333 -25.5 -22 -47.5l-161 5c6 59.333 28.333 103 67 131s97 42 175 42c160.667 0 241 -63 241 -189v-223c0 -50.667 8.33301 -90.334 25 -119.001zM268 98c31.333 0 56.667 8.83203 76 26.499s29 42.834 29 75.501v31l-110 -22
c-43.333 -9.33301 -65 -28.333 -65 -57c0 -36 23.333 -54 70 -54z" />
    <glyph glyph-name="atilde" unicode="&#xe3;" horiz-adv-x="600" 
d="M224 652c-28 0 -41.999 -19.667 -41.999 -59h-117c0 60 11.667 106.167 35 138.5s56.666 48.5 99.999 48.5c28 0 59.667 -10.5 95 -31.5s57.333 -31.5 66 -31.5c27.333 0 41 19.667 41 59h117c0 -60 -11.833 -106.167 -35.5 -138.5s-57.167 -48.5 -100.5 -48.5
c-27.333 0 -58.5 10.5 -93.5 31.5s-56.833 31.5 -65.5 31.5zM563.001 0h-172c-8 21.333 -13 40 -15 56c-36 -49.333 -90.333 -74 -163 -74c-56 0 -100.667 14.333 -134 43s-50 67 -50 115c0 84.667 53.333 136.334 160 155.001l180 32v37c0 34 -25.333 51 -76 51
c-24.667 0 -43 -4.83301 -55 -14.5s-19.333 -25.5 -22 -47.5l-161 5c6 59.333 28.333 103 67 131s97 42 175 42c160.667 0 241 -63 241 -189v-223c0 -50.667 8.33301 -90.334 25 -119.001zM268.001 98c31.333 0 56.667 8.83203 76 26.499s29 42.834 29 75.501v31l-110 -22
c-43.333 -9.33301 -65 -28.333 -65 -57c0 -36 23.333 -54 70 -54z" />
    <glyph glyph-name="adieresis" unicode="&#xe4;" horiz-adv-x="600" 
d="M81 712h168v-130h-168v130zM337 712h168v-130h-168v130zM563 0h-172c-8 21.333 -13 40 -15 56c-36 -49.333 -90.333 -74 -163 -74c-56 0 -100.667 14.333 -134 43s-50 67 -50 115c0 84.667 53.333 136.334 160 155.001l180 32v37c0 34 -25.333 51 -76 51
c-24.667 0 -43 -4.83301 -55 -14.5s-19.333 -25.5 -22 -47.5l-161 5c6 59.333 28.333 103 67 131s97 42 175 42c160.667 0 241 -63 241 -189v-223c0 -50.667 8.33301 -90.334 25 -119.001zM268 98c31.333 0 56.667 8.83203 76 26.499s29 42.834 29 75.501v31l-110 -22
c-43.333 -9.33301 -65 -28.333 -65 -57c0 -36 23.333 -54 70 -54z" />
    <glyph glyph-name="aring" unicode="&#xe5;" horiz-adv-x="600" 
d="M401 618c-28.667 -28 -64.665 -42 -107.998 -42s-79 14 -107 42c-28.667 28 -43 63.333 -43 106s14.167 78.334 42.5 107.001s64.166 43 107.499 43s79.166 -14.333 107.499 -43s42.5 -64.334 42.5 -107.001s-14 -78 -42 -106zM340.002 774
c-19.333 20 -43.502 24.332 -72.502 12.999s-42.5 -32.333 -40.5 -63c0 -19.333 6.33301 -35.166 19 -47.499s28.334 -18.5 47.001 -18.5s34.334 6.16699 47.001 18.5s19 28.166 19 47.499c0 20.667 -6.33301 37.334 -19 50.001zM563 -0.000976562h-172
c-8 21.333 -13 40 -15 56c-36 -49.333 -90.333 -74 -163 -74c-56 0 -100.667 14.333 -134 43s-50 67 -50 115c0 84.667 53.333 136.334 160 155.001l180 32v37c0 34 -25.333 51 -76 51c-24.667 0 -43 -4.83301 -55 -14.5s-19.333 -25.5 -22 -47.5l-161 5
c6 59.333 28.333 103 67 131s97 42 175 42c160.667 0 241 -63 241 -189v-223c0 -50.667 8.33301 -90.334 25 -119.001zM268 97.999c31.333 0 56.667 8.83203 76 26.499s29 42.834 29 75.501v31l-110 -22c-43.333 -9.33301 -65 -28.333 -65 -57c0 -36 23.333 -54 70 -54z" />
    <glyph glyph-name="ae" unicode="&#xe6;" horiz-adv-x="968" 
d="M940 238v-26.998h-376c9.33301 -70 45.333 -105 108 -105c43.333 0 73.333 18.333 90 55l164 -15c-18.667 -52.667 -49.834 -93.334 -93.501 -122.001s-96.167 -43 -157.5 -43c-102 0 -174.667 37.667 -218 113c-42 -74.667 -115 -112 -219 -112
c-66 0 -117.333 14.833 -154 44.5s-55 70.5 -55 122.5c0 44.667 16 81.667 48 111c31.333 29.333 85.333 44 162 44h134v45c0 44 -26.667 66 -80 66c-24.667 0 -43 -4.5 -55 -13.5s-19.333 -24.167 -22 -45.5l-160 5c6.66699 58 28.5 100.833 65.5 128.5
s91.167 41.5 162.5 41.5c99.333 0 166 -26.333 200 -79c48 53.333 113 80 195 80c84.667 0 149.334 -27.333 194.001 -82s67 -125.334 67 -212.001zM666 410.002c-59.333 0 -93.333 -35.333 -102 -106h201c-8 70.667 -41 106 -99 106zM268 99.002
c31.333 0 56.667 9.16797 76 27.501s29 42.833 29 73.5v12h-97c-26 0 -45.667 -5.33301 -59 -16s-20 -24.334 -20 -41.001c0 -17.333 6.33301 -31 19 -41s30 -15 52 -15z" />
    <glyph glyph-name="ccedilla" unicode="&#xe7;" horiz-adv-x="581" 
d="M300 107c47.333 0 76.001 28.666 86.001 85.999l169 -5c-9.33301 -59.333 -33.833 -107.166 -73.5 -143.499s-90.834 -57.166 -153.501 -62.499l-42 -50h16c36.667 0 64.667 -7.66699 84 -23s29 -37 29 -65c0 -71.333 -55.667 -107 -167 -107h-43v67h23
c40 0 60 10.667 60 32c0 18.667 -12 28 -36 28h-20l-38 51l53 70c-68 10 -121.333 39.167 -160 87.5s-58 109.833 -58 184.5c0 84 24.333 150.667 73 200c48 50 113.333 75 196 75c71.333 0 130 -18.333 176 -55s73 -86.334 81 -149.001l-168 -5c-10 55.333 -39 83 -87 83
c-66 0 -99 -49.667 -99 -149c0 -100 33 -150 99 -150z" />
    <glyph glyph-name="egrave" unicode="&#xe8;" horiz-adv-x="604" 
d="M309 753l83 -162h-140l-148 162h205zM576 238v-26h-376c8.66699 -70.667 44.667 -106 108 -106c44 0 74 18.333 90 55l165 -11c-18 -54 -48.833 -95.667 -92.5 -125s-97.5 -44 -161.5 -44c-86.667 0 -155 25.667 -205 77s-75 118 -75 200c0 81.333 25 147.333 75 198
c48.667 50.667 114 76 196 76c86 0 153.667 -27.667 203 -83c48.667 -54.667 73 -125 73 -211zM201 315h199c-8 63.333 -40.667 95 -98 95s-91 -31.667 -101 -95z" />
    <glyph glyph-name="eacute" unicode="&#xe9;" horiz-adv-x="604" 
d="M295 753h206l-149 -162h-139zM576 238v-26h-376c8.66699 -70.667 44.667 -106 108 -106c44 0 74 18.333 90 55l165 -11c-18 -54 -48.833 -95.667 -92.5 -125s-97.5 -44 -161.5 -44c-86.667 0 -155 25.667 -205 77s-75 118 -75 200c0 81.333 25 147.333 75 198
c48.667 50.667 114 76 196 76c86 0 153.667 -27.667 203 -83c48.667 -54.667 73 -125 73 -211zM201 315h199c-8 63.333 -40.667 95 -98 95s-91 -31.667 -101 -95z" />
    <glyph glyph-name="ecircumflex" unicode="&#xea;" horiz-adv-x="604" 
d="M375 594l-73 89l-73 -89h-145l140 163h156l140 -163h-145zM576 238v-26h-376c8.66699 -70.667 44.667 -106 108 -106c44 0 74 18.333 90 55l165 -11c-18 -54 -48.833 -95.667 -92.5 -125s-97.5 -44 -161.5 -44c-86.667 0 -155 25.667 -205 77s-75 118 -75 200
c0 81.333 25 147.333 75 198c48.667 50.667 114 76 196 76c86 0 153.667 -27.667 203 -83c48.667 -54.667 73 -125 73 -211zM201 315h199c-8 63.333 -40.667 95 -98 95s-91 -31.667 -101 -95z" />
    <glyph glyph-name="edieresis" unicode="&#xeb;" horiz-adv-x="604" 
d="M90 712h168v-130h-168v130zM346 712h168v-130h-168v130zM576 238v-26h-376c8.66699 -70.667 44.667 -106 108 -106c44 0 74 18.333 90 55l165 -11c-18 -54 -48.833 -95.667 -92.5 -125s-97.5 -44 -161.5 -44c-86.667 0 -155 25.667 -205 77s-75 118 -75 200
c0 81.333 25 147.333 75 198c48.667 50.667 114 76 196 76c86 0 153.667 -27.667 203 -83c48.667 -54.667 73 -125 73 -211zM201 315h199c-8 63.333 -40.667 95 -98 95s-91 -31.667 -101 -95z" />
    <glyph glyph-name="igrave" unicode="&#xec;" horiz-adv-x="282" 
d="M231 591h-140l-148 162h205zM227 0h-172v516h172v-516z" />
    <glyph glyph-name="iacute" unicode="&#xed;" horiz-adv-x="282" 
d="M191 591h-139l82 162h206zM227 0h-172v516h172v-516z" />
    <glyph glyph-name="icircumflex" unicode="&#xee;" horiz-adv-x="282" 
d="M68 594h-145l140 163h156l140 -163h-145l-73 89zM227 0h-172v516h172v-516z" />
    <glyph glyph-name="idieresis" unicode="&#xef;" horiz-adv-x="282" 
d="M97 582h-146v130h146v-130zM332 582h-152v130h152v-130zM227 0h-172v516h172v-516z" />
    <glyph glyph-name="eth" unicode="&#xf0;" horiz-adv-x="598" 
d="M504 724l-105.001 -68.002c114 -93.333 171 -217 171 -371c0 -98 -24.667 -172.667 -74 -224s-117 -77 -203 -77c-81.333 0 -145.666 22.333 -192.999 67s-71 105.334 -71 182.001c0 70 20.667 126.667 62 170c40.667 42.667 93.667 64 159 64
c64.667 0 113 -18.667 145 -56c-10.667 62.667 -48.667 118 -114 166l-93 -70l-51 66l72 46c-32 14.667 -63 26.334 -93 35.001l49 122c61.333 -18.667 117 -42.667 167 -72l121 92zM298.999 109.998c66.667 0 100.001 48.667 100.001 146v8
c-6.66699 23.333 -19.667 42.5 -39 57.5s-41.333 22.5 -66 22.5c-28.667 0 -51.334 -10.5 -68.001 -31.5s-25 -49.167 -25 -84.5c0 -37.333 8.5 -66.333 25.5 -87s41.167 -31 72.5 -31z" />
    <glyph glyph-name="ntilde" unicode="&#xf1;" horiz-adv-x="614" 
d="M240 652c-28 0 -41.999 -19.667 -41.999 -59h-117c0 60 11.667 106.167 35 138.5s56.666 48.5 99.999 48.5c28 0 59.667 -10.5 95 -31.5s57.333 -31.5 66 -31.5c27.333 0 41 19.667 41 59h117c0 -60 -11.833 -106.167 -35.5 -138.5s-57.167 -48.5 -100.5 -48.5
c-27.333 0 -58.5 10.5 -93.5 31.5s-56.833 31.5 -65.5 31.5zM376.001 530c57.333 0 102.168 -16.5 134.501 -49.5s48.5 -79.167 48.5 -138.5v-342h-172v302c0 26 -6.16699 46.167 -18.5 60.5s-29.833 21.5 -52.5 21.5c-26.667 0 -48.167 -10 -64.5 -30
s-24.5 -46.333 -24.5 -79v-275h-172v516h162l5 -69c35.333 55.333 86.666 83 153.999 83z" />
    <glyph glyph-name="ograve" unicode="&#xf2;" horiz-adv-x="611" 
d="M396 591h-140l-148 162h205zM506 58c-51.333 -51.333 -118 -77 -200 -77s-148.667 25.667 -200 77s-77 117.666 -77 198.999c0 80.667 25.667 146.667 77 198s118 77 200 77s148.667 -25.667 200 -77s77 -117.333 77 -198c0 -81.333 -25.667 -147.666 -77 -198.999z
M228 146c18 -26 44.001 -39 78.001 -39c33.333 0 59.666 13 78.999 39c18 25.333 27 62.333 27 111c0 48 -9.16699 84.833 -27.5 110.5s-44.5 38.5 -78.5 38.5s-60 -12.833 -78 -38.5s-27 -62.5 -27 -110.5c0 -48.667 9 -85.667 27 -111z" />
    <glyph glyph-name="oacute" unicode="&#xf3;" horiz-adv-x="611" 
d="M356 591h-139l82 162h206zM506 58c-51.333 -51.333 -118 -77 -200 -77s-148.667 25.667 -200 77s-77 117.666 -77 198.999c0 80.667 25.667 146.667 77 198s118 77 200 77s148.667 -25.667 200 -77s77 -117.333 77 -198c0 -81.333 -25.667 -147.666 -77 -198.999z
M228 146c18 -26 44.001 -39 78.001 -39c33.333 0 59.666 13 78.999 39c18 25.333 27 62.333 27 111c0 48 -9.16699 84.833 -27.5 110.5s-44.5 38.5 -78.5 38.5s-60 -12.833 -78 -38.5s-27 -62.5 -27 -110.5c0 -48.667 9 -85.667 27 -111z" />
    <glyph glyph-name="ocircumflex" unicode="&#xf4;" horiz-adv-x="611" 
d="M233 594h-145l140 163h156l140 -163h-145l-73 89zM506 58c-51.333 -51.333 -118 -77 -200 -77s-148.667 25.667 -200 77s-77 117.666 -77 198.999c0 80.667 25.667 146.667 77 198s118 77 200 77s148.667 -25.667 200 -77s77 -117.333 77 -198
c0 -81.333 -25.667 -147.666 -77 -198.999zM228 146c18 -26 44.001 -39 78.001 -39c33.333 0 59.666 13 78.999 39c18 25.333 27 62.333 27 111c0 48 -9.16699 84.833 -27.5 110.5s-44.5 38.5 -78.5 38.5s-60 -12.833 -78 -38.5s-27 -62.5 -27 -110.5
c0 -48.667 9 -85.667 27 -111z" />
    <glyph glyph-name="otilde" unicode="&#xf5;" horiz-adv-x="611" 
d="M195 593h-117c0 60 11.667 106.167 35 138.5s56.666 48.5 99.999 48.5c21.333 0 43 -5.33301 65 -16s41.333 -21.167 58 -31.5s29.334 -15.5 38.001 -15.5c27.333 0 41 19.667 41 59h117c0 -60 -11.833 -106.167 -35.5 -138.5s-57.167 -48.5 -100.5 -48.5
c-27.333 0 -58.5 10.5 -93.5 31.5s-56.833 31.5 -65.5 31.5c-28 0 -42 -19.667 -42 -59zM506 58c-51.333 -51.333 -118 -77 -200 -77s-148.667 25.667 -200 77s-77 117.666 -77 198.999c0 80.667 25.667 146.667 77 198s118 77 200 77s148.667 -25.667 200 -77
s77 -117.333 77 -198c0 -81.333 -25.667 -147.666 -77 -198.999zM228 146c18 -26 44.001 -39 78.001 -39c33.333 0 59.666 13 78.999 39c18 25.333 27 62.333 27 111c0 48 -9.16699 84.833 -27.5 110.5s-44.5 38.5 -78.5 38.5s-60 -12.833 -78 -38.5s-27 -62.5 -27 -110.5
c0 -48.667 9 -85.667 27 -111z" />
    <glyph glyph-name="odieresis" unicode="&#xf6;" horiz-adv-x="611" 
d="M262 582h-168v130h168v-130zM518 582h-168v130h168v-130zM506 58c-51.333 -51.333 -118 -77 -200 -77s-148.667 25.667 -200 77s-77 117.666 -77 198.999c0 80.667 25.667 146.667 77 198s118 77 200 77s148.667 -25.667 200 -77s77 -117.333 77 -198
c0 -81.333 -25.667 -147.666 -77 -198.999zM228 146c18 -26 44.001 -39 78.001 -39c33.333 0 59.666 13 78.999 39c18 25.333 27 62.333 27 111c0 48 -9.16699 84.833 -27.5 110.5s-44.5 38.5 -78.5 38.5s-60 -12.833 -78 -38.5s-27 -62.5 -27 -110.5
c0 -48.667 9 -85.667 27 -111z" />
    <glyph glyph-name="divide" unicode="&#xf7;" 
d="M438 465h-147v148h147v-148zM663 249h-597v131h597v-131zM438 14h-147v148h147v-148z" />
    <glyph glyph-name="oslash" unicode="&#xf8;" horiz-adv-x="611" 
d="M565 490l-44.001 -51c41.333 -50.667 62 -111.334 62 -182.001c0 -81.333 -25.667 -147.666 -77 -198.999s-118 -77 -200 -77c-56 0 -106 13 -150 39l-46 -53l-62 54l45 51c-42.667 49.333 -64 111 -64 185c0 80.667 25.667 146.667 77 198s118 77 200 77
c58.667 0 109.334 -13.333 152.001 -40l45 52zM200.999 257c0 -15.333 1.66699 -33.667 5 -55l160 185c-16.667 12.667 -36.667 19 -60 19c-34 0 -60 -12.833 -78 -38.5s-27 -62.5 -27 -110.5zM305.999 106.999c34 0 60.167 12.832 78.5 38.499s27.5 62.834 27.5 111.501
c0 16 -1.33301 33.333 -4 52l-160 -184c14.667 -12 34 -18 58 -18z" />
    <glyph glyph-name="ugrave" unicode="&#xf9;" horiz-adv-x="614" 
d="M313 753l83 -162h-140l-148 162h205zM387 241l-0.000976562 275h172v-516h-162l-5 69c-35.333 -55.333 -87 -83 -155 -83c-57.333 0 -102 16.5 -134 49.5s-48 79.167 -48 138.5v342h172v-302c0 -26 6 -46.167 18 -60.5s29.333 -21.5 52 -21.5
c26.667 0 48.334 10 65.001 30s25 46.333 25 79z" />
    <glyph glyph-name="uacute" unicode="&#xfa;" horiz-adv-x="614" 
d="M300 753h206l-149 -162h-139zM387 241l-0.000976562 275h172v-516h-162l-5 69c-35.333 -55.333 -87 -83 -155 -83c-57.333 0 -102 16.5 -134 49.5s-48 79.167 -48 138.5v342h172v-302c0 -26 6 -46.167 18 -60.5s29.333 -21.5 52 -21.5c26.667 0 48.334 10 65.001 30
s25 46.333 25 79z" />
    <glyph glyph-name="ucircumflex" unicode="&#xfb;" horiz-adv-x="614" 
d="M380 594l-73 89l-73 -89h-145l140 163h156l140 -163h-145zM387 241l-0.000976562 275h172v-516h-162l-5 69c-35.333 -55.333 -87 -83 -155 -83c-57.333 0 -102 16.5 -134 49.5s-48 79.167 -48 138.5v342h172v-302c0 -26 6 -46.167 18 -60.5s29.333 -21.5 52 -21.5
c26.667 0 48.334 10 65.001 30s25 46.333 25 79z" />
    <glyph glyph-name="udieresis" unicode="&#xfc;" horiz-adv-x="614" 
d="M95 712h168v-130h-168v130zM351 712h168v-130h-168v130zM387 241l-0.000976562 275h172v-516h-162l-5 69c-35.333 -55.333 -87 -83 -155 -83c-57.333 0 -102 16.5 -134 49.5s-48 79.167 -48 138.5v342h172v-302c0 -26 6 -46.167 18 -60.5s29.333 -21.5 52 -21.5
c26.667 0 48.334 10 65.001 30s25 46.333 25 79z" />
    <glyph glyph-name="yacute" unicode="&#xfd;" horiz-adv-x="580" 
d="M285 753h206l-149 -162h-139zM292 177l97 339h181l-205 -598c-16 -44.667 -37 -76.167 -63 -94.5s-62.333 -27.5 -109 -27.5h-118v140h70c18 0 31.833 3 41.5 9s17.167 16 22.5 30l5 14l-204 527h185l79 -247z" />
    <glyph glyph-name="thorn" unicode="&#xfe;" horiz-adv-x="620" 
d="M227 712l0.000976562 -245c38 43.333 88 65 150 65s113.333 -24.333 154 -73s61 -115.334 61 -200.001c0 -85.333 -20.333 -152.666 -61 -201.999c-40.667 -50.667 -94.334 -76 -161.001 -76c-60 0 -107.667 21.667 -143 65v-250h-172v916h172zM324.001 126
c30 0 53.5 11.6689 70.5 35.002s25.5 56.666 25.5 99.999c0 42.667 -8.5 75.667 -25.5 99s-40.5 35 -70.5 35c-30.667 0 -55.334 -12.167 -74.001 -36.5s-28 -56.833 -28 -97.5s9.33301 -73.334 28 -98.001s43.334 -37 74.001 -37z" />
    <glyph glyph-name="ydieresis" unicode="&#xff;" horiz-adv-x="580" 
d="M80 712h168v-130h-168v130zM336 712h168v-130h-168v130zM292 177l97 339h181l-205 -598c-16 -44.667 -37 -76.167 -63 -94.5s-62.333 -27.5 -109 -27.5h-118v140h70c18 0 31.833 3 41.5 9s17.167 16 22.5 30l5 14l-204 527h185l79 -247z" />
    <glyph glyph-name="Amacron" unicode="&#x100;" horiz-adv-x="753" 
d="M199 918h371v-112h-371v112zM733 0h-197l-40 122h-240l-40 -122h-196l260 712h197zM333 356l-32 -97h151l-32 97l-44 149z" />
    <glyph glyph-name="amacron" unicode="&#x101;" horiz-adv-x="600" 
d="M108 722h371v-112h-371v112zM563 0h-172c-8 21.333 -13 40 -15 56c-36 -49.333 -90.333 -74 -163 -74c-56 0 -100.667 14.333 -134 43s-50 67 -50 115c0 84.667 53.333 136.334 160 155.001l180 32v37c0 34 -25.333 51 -76 51c-24.667 0 -43 -4.83301 -55 -14.5
s-19.333 -25.5 -22 -47.5l-161 5c6 59.333 28.333 103 67 131s97 42 175 42c160.667 0 241 -63 241 -189v-223c0 -50.667 8.33301 -90.334 25 -119.001zM268 98c31.333 0 56.667 8.83203 76 26.499s29 42.834 29 75.501v31l-110 -22c-43.333 -9.33301 -65 -28.333 -65 -57
c0 -36 23.333 -54 70 -54z" />
    <glyph glyph-name="Abreve" unicode="&#x102;" horiz-adv-x="753" 
d="M384 784c-69.333 0 -119.005 13.5 -149.005 40.5s-45.667 70.833 -47 131.5h102c0.666992 -26 8.33398 -44.833 23.001 -56.5s38.334 -17.5 71.001 -17.5s56.334 5.83301 71.001 17.5s22.334 30.5 23.001 56.5h102c-1.33301 -60 -17.166 -103.667 -47.499 -131
s-79.833 -41 -148.5 -41zM732.995 0h-197l-40 122h-240l-40 -122h-196l260 712h197zM332.995 356l-32 -97h151l-32 97l-44 149z" />
    <glyph glyph-name="abreve" unicode="&#x103;" horiz-adv-x="600" 
d="M293 588c-69.333 0 -119.005 13.5 -149.005 40.5s-45.667 70.833 -47 131.5h102c0.666992 -26 8.33398 -44.833 23.001 -56.5s38.334 -17.5 71.001 -17.5s56.334 5.83301 71.001 17.5s22.334 30.5 23.001 56.5h102c-1.33301 -60 -17.166 -103.667 -47.499 -131
s-79.833 -41 -148.5 -41zM562.995 0h-172c-8 21.333 -13 40 -15 56c-36 -49.333 -90.333 -74 -163 -74c-56 0 -100.667 14.333 -134 43s-50 67 -50 115c0 84.667 53.333 136.334 160 155.001l180 32v37c0 34 -25.333 51 -76 51c-24.667 0 -43 -4.83301 -55 -14.5
s-19.333 -25.5 -22 -47.5l-161 5c6 59.333 28.333 103 67 131s97 42 175 42c160.667 0 241 -63 241 -189v-223c0 -50.667 8.33301 -90.334 25 -119.001zM267.995 98c31.333 0 56.667 8.83203 76 26.499s29 42.834 29 75.501v31l-110 -22
c-43.333 -9.33301 -65 -28.333 -65 -57c0 -36 23.333 -54 70 -54z" />
    <glyph glyph-name="Aogonek" unicode="&#x104;" horiz-adv-x="753" 
d="M616 -98c0 -28 17.999 -42.001 53.999 -42.001h35v-88h-84c-46.667 0 -82.5 9 -107.5 27s-37.5 43.667 -37.5 77c0 24 6.33301 44.833 19 62.5s33.334 34.834 62.001 51.501l18 10h-39l-40 122h-240l-40 -122h-196l260 712h197l256 -712l-82 -48
c-23.333 -15.333 -35 -32 -35 -50zM332.999 355.999l-32 -97h151l-32 97l-44 149z" />
    <glyph glyph-name="aogonek" unicode="&#x105;" horiz-adv-x="600" 
d="M446 -98c0 -28 18 -42.001 54 -42.001h35v-88h-84c-46.667 0 -82.5 9 -107.5 27s-37.5 43.667 -37.5 77c0 42.667 26.667 80.667 80 114l7 4c-8 20.667 -13.667 41.334 -17 62.001c-36 -49.333 -90.333 -74 -163 -74c-56 0 -100.667 14.333 -134 43s-50 67 -50 115
c0 84.667 53.333 136.334 160 155.001l180 32v37c0 34 -25.333 51 -76 51c-24.667 0 -43 -4.83301 -55 -14.5s-19.333 -25.5 -22 -47.5l-161 5c6 59.333 28.333 103 67 131s97 42 175 42c160.667 0 241 -63 241 -189v-223c0 -50.667 8.33301 -90.334 25 -119.001l-82 -48
c-23.333 -15.333 -35 -32 -35 -50zM268 97.999c31.333 0 56.667 8.83203 76 26.499s29 42.834 29 75.501v31l-110 -22c-43.333 -9.33301 -65 -28.333 -65 -57c0 -36 23.333 -54 70 -54z" />
    <glyph glyph-name="Cacute" unicode="&#x106;" horiz-adv-x="733" 
d="M425 787h-139l82 162h206zM383 -23c-100.667 0 -183 34.333 -247 103s-96 160 -96 274c0 114.667 32.333 205.667 97 273c64 68 146.333 102 247 102c90.667 0 164.334 -24 221.001 -72c56.667 -48.667 89.667 -114.667 99 -198h-182c-6 37.333 -20.5 66 -43.5 86
s-52.833 30 -89.5 30c-51.333 0 -91.166 -19.333 -119.499 -58s-42.5 -92.667 -42.5 -162c0 -72 14.167 -127.5 42.5 -166.5s68.166 -58.5 119.499 -58.5c77.333 0 121.666 41.667 132.999 125h182c-6.66699 -87.333 -38.667 -155.333 -96 -204
c-58.667 -49.333 -133.667 -74 -225 -74z" />
    <glyph glyph-name="cacute" unicode="&#x107;" horiz-adv-x="581" 
d="M352 591h-139l82 162h206zM298 -19c-82.667 0 -147.999 25.001 -195.999 75.001c-48.667 49.333 -73 116.333 -73 201c0 84 24.333 150.667 73 200c48 50 113.333 75 196 75c71.333 0 130 -18.333 176 -55s73 -86.334 81 -149.001l-168 -5c-10 55.333 -39 83 -87 83
c-66 0 -99 -49.667 -99 -149c0 -100 33 -150 99 -150c47.333 0 76 28.667 86 86l169 -5c-9.33301 -64 -36.833 -114.5 -82.5 -151.5s-103.834 -55.5 -174.501 -55.5z" />
    <glyph glyph-name="Ccircumflex" unicode="&#x108;" horiz-adv-x="733" 
d="M302 790h-145l140 163h156l140 -163h-145l-73 89zM383 -23c-100.667 0 -183 34.333 -247 103s-96 160 -96 274c0 114.667 32.333 205.667 97 273c64 68 146.333 102 247 102c90.667 0 164.334 -24 221.001 -72c56.667 -48.667 89.667 -114.667 99 -198h-182
c-6 37.333 -20.5 66 -43.5 86s-52.833 30 -89.5 30c-51.333 0 -91.166 -19.333 -119.499 -58s-42.5 -92.667 -42.5 -162c0 -72 14.167 -127.5 42.5 -166.5s68.166 -58.5 119.499 -58.5c77.333 0 121.666 41.667 132.999 125h182c-6.66699 -87.333 -38.667 -155.333 -96 -204
c-58.667 -49.333 -133.667 -74 -225 -74z" />
    <glyph glyph-name="ccircumflex" unicode="&#x109;" horiz-adv-x="581" 
d="M229 594h-145l140 163h156l140 -163h-145l-73 89zM298 -19c-82.667 0 -147.999 25.001 -195.999 75.001c-48.667 49.333 -73 116.333 -73 201c0 84 24.333 150.667 73 200c48 50 113.333 75 196 75c71.333 0 130 -18.333 176 -55s73 -86.334 81 -149.001l-168 -5
c-10 55.333 -39 83 -87 83c-66 0 -99 -49.667 -99 -149c0 -100 33 -150 99 -150c47.333 0 76 28.667 86 86l169 -5c-9.33301 -64 -36.833 -114.5 -82.5 -151.5s-103.834 -55.5 -174.501 -55.5z" />
    <glyph glyph-name="Cdotaccent" unicode="&#x10a;" horiz-adv-x="733" 
d="M459 798h-168v136h168v-136zM383 -23c-100.667 0 -183 34.333 -247 103s-96 160 -96 274c0 114.667 32.333 205.667 97 273c64 68 146.333 102 247 102c90.667 0 164.334 -24 221.001 -72c56.667 -48.667 89.667 -114.667 99 -198h-182c-6 37.333 -20.5 66 -43.5 86
s-52.833 30 -89.5 30c-51.333 0 -91.166 -19.333 -119.499 -58s-42.5 -92.667 -42.5 -162c0 -72 14.167 -127.5 42.5 -166.5s68.166 -58.5 119.499 -58.5c77.333 0 121.666 41.667 132.999 125h182c-6.66699 -87.333 -38.667 -155.333 -96 -204
c-58.667 -49.333 -133.667 -74 -225 -74z" />
    <glyph glyph-name="cdotaccent" unicode="&#x10b;" horiz-adv-x="581" 
d="M386 582h-168v130h168v-130zM298 -19c-82.667 0 -147.999 25.001 -195.999 75.001c-48.667 49.333 -73 116.333 -73 201c0 84 24.333 150.667 73 200c48 50 113.333 75 196 75c71.333 0 130 -18.333 176 -55s73 -86.334 81 -149.001l-168 -5c-10 55.333 -39 83 -87 83
c-66 0 -99 -49.667 -99 -149c0 -100 33 -150 99 -150c47.333 0 76 28.667 86 86l169 -5c-9.33301 -64 -36.833 -114.5 -82.5 -151.5s-103.834 -55.5 -174.501 -55.5z" />
    <glyph glyph-name="Ccaron" unicode="&#x10c;" horiz-adv-x="733" 
d="M453 785h-156l-140 163h145l73 -89l73 89h145zM383 -23c-100.667 0 -183 34.333 -247 103s-96 160 -96 274c0 114.667 32.333 205.667 97 273c64 68 146.333 102 247 102c90.667 0 164.334 -24 221.001 -72c56.667 -48.667 89.667 -114.667 99 -198h-182
c-6 37.333 -20.5 66 -43.5 86s-52.833 30 -89.5 30c-51.333 0 -91.166 -19.333 -119.499 -58s-42.5 -92.667 -42.5 -162c0 -72 14.167 -127.5 42.5 -166.5s68.166 -58.5 119.499 -58.5c77.333 0 121.666 41.667 132.999 125h182c-6.66699 -87.333 -38.667 -155.333 -96 -204
c-58.667 -49.333 -133.667 -74 -225 -74z" />
    <glyph glyph-name="ccaron" unicode="&#x10d;" horiz-adv-x="581" 
d="M380 589h-156l-140 163h145l73 -89l73 89h145zM298 -19c-82.667 0 -147.999 25.001 -195.999 75.001c-48.667 49.333 -73 116.333 -73 201c0 84 24.333 150.667 73 200c48 50 113.333 75 196 75c71.333 0 130 -18.333 176 -55s73 -86.334 81 -149.001l-168 -5
c-10 55.333 -39 83 -87 83c-66 0 -99 -49.667 -99 -149c0 -100 33 -150 99 -150c47.333 0 76 28.667 86 86l169 -5c-9.33301 -64 -36.833 -114.5 -82.5 -151.5s-103.834 -55.5 -174.501 -55.5z" />
    <glyph glyph-name="Dcaron" unicode="&#x10e;" horiz-adv-x="738" 
d="M573 948l-140 -163h-156l-140 163h145l73 -89l73 89h145zM62 712h300c110.667 0 195 -30.667 253 -92s87 -149.333 87 -264c0 -112.667 -27.667 -200.167 -83 -262.5s-136.333 -93.5 -243 -93.5h-314v712zM249 157h95c114 0 171 66.333 171 199
c0 68.667 -14.5 119.5 -43.5 152.5s-74.833 49.5 -137.5 49.5h-85v-401z" />
    <glyph glyph-name="dcaron" unicode="&#x10f;" horiz-adv-x="862" 
d="M394 467l0.000976562 245h172v-712h-157l-5 59c-36 -52 -87 -78 -153 -78c-66.667 0 -120.334 25.333 -161.001 76c-40.667 49.333 -61 116.666 -61 201.999c0 84.667 20.333 151.334 61 200.001c40 48.667 91 73 153 73c62.667 0 113 -21.667 151 -65zM647.001 473
l41 239h174l-90 -239h-125zM297.001 126c30.667 0 55.167 12.3311 73.5 36.998s27.5 57.334 27.5 98.001s-9.16699 73.167 -27.5 97.5s-42.833 36.5 -73.5 36.5c-30 0 -53.5 -11.667 -70.5 -35s-25.5 -56.333 -25.5 -99c0 -43.333 8.5 -76.666 25.5 -99.999
s40.5 -35 70.5 -35z" />
    <glyph glyph-name="Dcroat" unicode="&#x110;" horiz-adv-x="814" 
d="M138 712h299c110.667 0 195 -30.667 253 -92s87 -149.333 87 -264c0 -112.667 -27.667 -200.167 -83 -262.5s-136 -93.5 -242 -93.5h-314v298l-123 -5v131l123 -5v293zM325 157h95c114 0 171 66.333 171 199c0 68.667 -14.5 119.5 -43.5 152.5s-74.833 49.5 -137.5 49.5
h-85v-139l137 5v-131l-137 5v-141z" />
    <glyph glyph-name="dslash" unicode="&#x111;" horiz-adv-x="654" 
d="M566 682l78.001 2v-121l-78 2v-565h-157l-5 59c-36 -52 -87 -78 -153 -78c-66.667 0 -120.334 25.333 -161.001 76c-40.667 49.333 -61 116.666 -61 201.999c0 84.667 20.333 151.334 61 200.001c40 48.667 91 73 153 73c62.667 0 113 -21.667 151 -65v99l-121 -3v121
l121 -3v56h172v-55zM297.001 126c30.667 0 55.167 12.3311 73.5 36.998s27.5 57.334 27.5 98.001s-9.16699 73.167 -27.5 97.5s-42.833 36.5 -73.5 36.5c-30 0 -53.5 -11.667 -70.5 -35s-25.5 -56.333 -25.5 -99c0 -43.333 8.5 -76.666 25.5 -99.999s40.5 -35 70.5 -35z" />
    <glyph glyph-name="Emacron" unicode="&#x112;" horiz-adv-x="675" 
d="M156 918h371v-112h-371v112zM249 288v-130h386v-158h-573v712h563v-155h-376v-117h330v-152h-330z" />
    <glyph glyph-name="emacron" unicode="&#x113;" horiz-adv-x="604" 
d="M117 722h371v-112h-371v112zM576 238v-26h-376c8.66699 -70.667 44.667 -106 108 -106c44 0 74 18.333 90 55l165 -11c-18 -54 -48.833 -95.667 -92.5 -125s-97.5 -44 -161.5 -44c-86.667 0 -155 25.667 -205 77s-75 118 -75 200c0 81.333 25 147.333 75 198
c48.667 50.667 114 76 196 76c86 0 153.667 -27.667 203 -83c48.667 -54.667 73 -125 73 -211zM201 315h199c-8 63.333 -40.667 95 -98 95s-91 -31.667 -101 -95z" />
    <glyph glyph-name="Ebreve" unicode="&#x114;" horiz-adv-x="675" 
d="M341 784c-69.333 0 -119.005 13.5 -149.005 40.5s-45.667 70.833 -47 131.5h102c0.666992 -26 8.33398 -44.833 23.001 -56.5s38.334 -17.5 71.001 -17.5s56.334 5.83301 71.001 17.5s22.334 30.5 23.001 56.5h102c-1.33301 -60 -17.166 -103.667 -47.499 -131
s-79.833 -41 -148.5 -41zM248.995 288v-130h386v-158h-573v712h563v-155h-376v-117h330v-152h-330z" />
    <glyph glyph-name="ebreve" unicode="&#x115;" horiz-adv-x="604" 
d="M302 588c-69.333 0 -119.005 13.5 -149.005 40.5s-45.667 70.833 -47 131.5h102c0.666992 -26 8.33398 -44.833 23.001 -56.5s38.334 -17.5 71.001 -17.5s56.334 5.83301 71.001 17.5s22.334 30.5 23.001 56.5h102c-1.33301 -60 -17.166 -103.667 -47.499 -131
s-79.833 -41 -148.5 -41zM575.995 238v-26h-376c8.66699 -70.667 44.667 -106 108 -106c44 0 74 18.333 90 55l165 -11c-18 -54 -48.833 -95.667 -92.5 -125s-97.5 -44 -161.5 -44c-86.667 0 -155 25.667 -205 77s-75 118 -75 200c0 81.333 25 147.333 75 198
c48.667 50.667 114 76 196 76c86 0 153.667 -27.667 203 -83c48.667 -54.667 73 -125 73 -211zM200.995 315h199c-8 63.333 -40.667 95 -98 95s-91 -31.667 -101 -95z" />
    <glyph glyph-name="Edotaccent" unicode="&#x116;" horiz-adv-x="675" 
d="M257 934h168v-136h-168v136zM249 288v-130h386v-158h-573v712h563v-155h-376v-117h330v-152h-330z" />
    <glyph glyph-name="edotaccent" unicode="&#x117;" horiz-adv-x="604" 
d="M218 712h168v-130h-168v130zM576 238v-26h-376c8.66699 -70.667 44.667 -106 108 -106c44 0 74 18.333 90 55l165 -11c-18 -54 -48.833 -95.667 -92.5 -125s-97.5 -44 -161.5 -44c-86.667 0 -155 25.667 -205 77s-75 118 -75 200c0 81.333 25 147.333 75 198
c48.667 50.667 114 76 196 76c86 0 153.667 -27.667 203 -83c48.667 -54.667 73 -125 73 -211zM201 315h199c-8 63.333 -40.667 95 -98 95s-91 -31.667 -101 -95z" />
    <glyph glyph-name="Eogonek" unicode="&#x118;" horiz-adv-x="675" 
d="M635 0l-82.001 -48.001c-23.333 -15.333 -35 -32 -35 -50c0 -28 18 -42 54 -42h35v-88h-84c-46.667 0 -82.5 9 -107.5 27s-37.5 43.667 -37.5 77c0 24 6.33301 44.833 19 62.5s33.334 34.834 62.001 51.501l18 10h-415v712h563v-155h-376v-117h330v-152h-330v-130h386
v-158z" />
    <glyph glyph-name="eogonek" unicode="&#x119;" horiz-adv-x="604" 
d="M576 238v-26.002h-376c8.66699 -70.667 44.667 -106 108 -106c44 0 74 18.333 90 55l165 -11c-24.667 -74.667 -72.667 -125 -144 -151l-70 -41c-23.333 -15.333 -35 -32 -35 -50c0 -28 18 -42 54 -42h35v-88h-84c-46.667 0 -82.5 9 -107.5 27s-37.5 43.667 -37.5 77
c0 41.333 22.333 76.333 67 105c-66 12.667 -117.833 43.334 -155.5 92.001s-56.5 108.334 -56.5 179.001c0 81.333 25 147.333 75 198c48.667 50.667 114 76 196 76c86 0 153.667 -27.667 203 -83c48.667 -54.667 73 -125 73 -211zM201 314.998h199
c-8 63.333 -40.667 95 -98 95s-91 -31.667 -101 -95z" />
    <glyph glyph-name="Ecaron" unicode="&#x11a;" horiz-adv-x="675" 
d="M559 948l-140 -163h-156l-140 163h145l73 -89l73 89h145zM249 288v-130h386v-158h-573v712h563v-155h-376v-117h330v-152h-330z" />
    <glyph glyph-name="ecaron" unicode="&#x11b;" horiz-adv-x="604" 
d="M520 752l-140 -163h-156l-140 163h145l73 -89l73 89h145zM576 238v-26h-376c8.66699 -70.667 44.667 -106 108 -106c44 0 74 18.333 90 55l165 -11c-18 -54 -48.833 -95.667 -92.5 -125s-97.5 -44 -161.5 -44c-86.667 0 -155 25.667 -205 77s-75 118 -75 200
c0 81.333 25 147.333 75 198c48.667 50.667 114 76 196 76c86 0 153.667 -27.667 203 -83c48.667 -54.667 73 -125 73 -211zM201 315h199c-8 63.333 -40.667 95 -98 95s-91 -31.667 -101 -95z" />
    <glyph glyph-name="Gcircumflex" unicode="&#x11c;" horiz-adv-x="777" 
d="M463 790l-73 89l-73 -89h-145l140 163h156l140 -163h-145zM415 389l300 0.00195312v-389h-123l-16 75c-19.333 -28.667 -46.833 -51.667 -82.5 -69s-76.834 -26 -123.501 -26c-94.667 0 -173.334 34.333 -236.001 103c-62.667 67.333 -94 157.666 -94 270.999
c0 114 32 205 96 273c64 67.333 146.667 101 248 101c84.667 0 154.834 -21 210.501 -63s90.834 -99.667 105.501 -173l-180 -12c-8.66699 30.667 -24.334 54.167 -47.001 70.5s-50.667 24.5 -84 24.5c-51.333 0 -91.166 -19.333 -119.499 -58s-42.5 -92.667 -42.5 -162
c0 -72.667 14.5 -128.334 43.5 -167.001s71.167 -58 126.5 -58c38.667 0 71 10 97 30s43 49.667 51 89h-130v140z" />
    <glyph glyph-name="gcircumflex" unicode="&#x11d;" horiz-adv-x="621" 
d="M373 594l-73 89l-73 -89h-145l140 163h156l140 -163h-145zM403 459l6 57.001h157v-502c0 -72.667 -23.667 -129.167 -71 -169.5s-114 -60.5 -200 -60.5c-148.667 0 -232.334 57 -251.001 171l162 8c11.333 -37.333 42 -56 92 -56c34 0 58.5 7.33301 73.5 22
s22.5 37.334 22.5 68.001v69c-35.333 -41.333 -83.333 -62 -144 -62c-66 0 -119.333 24.333 -160 73c-40.667 47.333 -61 111.666 -61 192.999s20.667 145.666 62 192.999c40.667 46 93 69 157 69c64.667 0 116.334 -24.333 155.001 -73zM297 142.001
c30.667 0 55.167 11.8311 73.5 35.498s27.5 55.167 27.5 94.5c0 38.667 -9.16699 69.834 -27.5 93.501s-42.833 35.5 -73.5 35.5c-30 0 -53.5 -11.167 -70.5 -33.5s-25.5 -54.166 -25.5 -95.499s8.5 -73.333 25.5 -96s40.5 -34 70.5 -34z" />
    <glyph glyph-name="Gbreve" unicode="&#x11e;" horiz-adv-x="777" 
d="M390 784c-69.333 0 -119.005 13.5 -149.005 40.5s-45.667 70.833 -47 131.5h102c0.666992 -26 8.33398 -44.833 23.001 -56.5s38.334 -17.5 71.001 -17.5s56.334 5.83301 71.001 17.5s22.334 30.5 23.001 56.5h102c-1.33301 -60 -17.166 -103.667 -47.499 -131
s-79.833 -41 -148.5 -41zM414.995 389l300 0.00195312v-389h-123l-16 75c-19.333 -28.667 -46.833 -51.667 -82.5 -69s-76.834 -26 -123.501 -26c-94.667 0 -173.334 34.333 -236.001 103c-62.667 67.333 -94 157.666 -94 270.999c0 114 32 205 96 273
c64 67.333 146.667 101 248 101c84.667 0 154.834 -21 210.501 -63s90.834 -99.667 105.501 -173l-180 -12c-8.66699 30.667 -24.334 54.167 -47.001 70.5s-50.667 24.5 -84 24.5c-51.333 0 -91.166 -19.333 -119.499 -58s-42.5 -92.667 -42.5 -162
c0 -72.667 14.5 -128.334 43.5 -167.001s71.167 -58 126.5 -58c38.667 0 71 10 97 30s43 49.667 51 89h-130v140z" />
    <glyph glyph-name="gbreve" unicode="&#x11f;" horiz-adv-x="621" 
d="M300 588c-69.333 0 -119.005 13.5 -149.005 40.5s-45.667 70.833 -47 131.5h102c0.666992 -26 8.33398 -44.833 23.001 -56.5s38.334 -17.5 71.001 -17.5s56.334 5.83301 71.001 17.5s22.334 30.5 23.001 56.5h102c-1.33301 -60 -17.166 -103.667 -47.499 -131
s-79.833 -41 -148.5 -41zM402.995 459l6 57.001h157v-502c0 -72.667 -23.667 -129.167 -71 -169.5s-114 -60.5 -200 -60.5c-148.667 0 -232.334 57 -251.001 171l162 8c11.333 -37.333 42 -56 92 -56c34 0 58.5 7.33301 73.5 22s22.5 37.334 22.5 68.001v69
c-35.333 -41.333 -83.333 -62 -144 -62c-66 0 -119.333 24.333 -160 73c-40.667 47.333 -61 111.666 -61 192.999s20.667 145.666 62 192.999c40.667 46 93 69 157 69c64.667 0 116.334 -24.333 155.001 -73zM296.995 142.001c30.667 0 55.167 11.8311 73.5 35.498
s27.5 55.167 27.5 94.5c0 38.667 -9.16699 69.834 -27.5 93.501s-42.833 35.5 -73.5 35.5c-30 0 -53.5 -11.167 -70.5 -33.5s-25.5 -54.166 -25.5 -95.499s8.5 -73.333 25.5 -96s40.5 -34 70.5 -34z" />
    <glyph glyph-name="Gdotaccent" unicode="&#x120;" horiz-adv-x="777" 
d="M306 934h168v-136h-168v136zM415 389l300 0.00195312v-389h-123l-16 75c-19.333 -28.667 -46.833 -51.667 -82.5 -69s-76.834 -26 -123.501 -26c-94.667 0 -173.334 34.333 -236.001 103c-62.667 67.333 -94 157.666 -94 270.999c0 114 32 205 96 273
c64 67.333 146.667 101 248 101c84.667 0 154.834 -21 210.501 -63s90.834 -99.667 105.501 -173l-180 -12c-8.66699 30.667 -24.334 54.167 -47.001 70.5s-50.667 24.5 -84 24.5c-51.333 0 -91.166 -19.333 -119.499 -58s-42.5 -92.667 -42.5 -162
c0 -72.667 14.5 -128.334 43.5 -167.001s71.167 -58 126.5 -58c38.667 0 71 10 97 30s43 49.667 51 89h-130v140z" />
    <glyph glyph-name="gdotaccent" unicode="&#x121;" horiz-adv-x="621" 
d="M216 712h168v-130h-168v130zM403 459l6 57.001h157v-502c0 -72.667 -23.667 -129.167 -71 -169.5s-114 -60.5 -200 -60.5c-148.667 0 -232.334 57 -251.001 171l162 8c11.333 -37.333 42 -56 92 -56c34 0 58.5 7.33301 73.5 22s22.5 37.334 22.5 68.001v69
c-35.333 -41.333 -83.333 -62 -144 -62c-66 0 -119.333 24.333 -160 73c-40.667 47.333 -61 111.666 -61 192.999s20.667 145.666 62 192.999c40.667 46 93 69 157 69c64.667 0 116.334 -24.333 155.001 -73zM297 142.001c30.667 0 55.167 11.8311 73.5 35.498
s27.5 55.167 27.5 94.5c0 38.667 -9.16699 69.834 -27.5 93.501s-42.833 35.5 -73.5 35.5c-30 0 -53.5 -11.167 -70.5 -33.5s-25.5 -54.166 -25.5 -95.499s8.5 -73.333 25.5 -96s40.5 -34 70.5 -34z" />
    <glyph glyph-name="uni0122" unicode="&#x122;" horiz-adv-x="777" 
d="M415 389l300 0.00195312v-389h-123l-16 75c-19.333 -28.667 -46.833 -51.667 -82.5 -69s-76.834 -26 -123.501 -26c-94.667 0 -173.334 34.333 -236.001 103c-62.667 67.333 -94 157.666 -94 270.999c0 114 32 205 96 273c64 67.333 146.667 101 248 101
c84.667 0 154.834 -21 210.501 -63s90.834 -99.667 105.501 -173l-180 -12c-8.66699 30.667 -24.334 54.167 -47.001 70.5s-50.667 24.5 -84 24.5c-51.333 0 -91.166 -19.333 -119.499 -58s-42.5 -92.667 -42.5 -162c0 -72.667 14.5 -128.334 43.5 -167.001
s71.167 -58 126.5 -58c38.667 0 71 10 97 30s43 49.667 51 89h-130v140zM408 -188.998l-119 -6v122h192v-137c0 -80 -43 -120 -129 -120h-63v64h59c40 0 60 18.667 60 56v21z" />
    <glyph glyph-name="uni0123" unicode="&#x123;" horiz-adv-x="621" 
d="M278 687l119 11v-116h-192v120c0 80 42.667 120 128 120h64v-65h-60c-39.333 0 -59 -18.333 -59 -55v-15zM403 459l6 57.001h157v-502c0 -72.667 -23.667 -129.167 -71 -169.5s-114 -60.5 -200 -60.5c-148.667 0 -232.334 57 -251.001 171l162 8
c11.333 -37.333 42 -56 92 -56c34 0 58.5 7.33301 73.5 22s22.5 37.334 22.5 68.001v69c-35.333 -41.333 -83.333 -62 -144 -62c-66 0 -119.333 24.333 -160 73c-40.667 47.333 -61 111.666 -61 192.999s20.667 145.666 62 192.999c40.667 46 93 69 157 69
c64.667 0 116.334 -24.333 155.001 -73zM297 142.001c30.667 0 55.167 11.8311 73.5 35.498s27.5 55.167 27.5 94.5c0 38.667 -9.16699 69.834 -27.5 93.501s-42.833 35.5 -73.5 35.5c-30 0 -53.5 -11.167 -70.5 -33.5s-25.5 -54.166 -25.5 -95.499s8.5 -73.333 25.5 -96
s40.5 -34 70.5 -34z" />
    <glyph glyph-name="Hcircumflex" unicode="&#x124;" horiz-adv-x="737" 
d="M442 790l-73 89l-73 -89h-145l140 163h156l140 -163h-145zM488 454v258h187v-712h-187v291h-239v-291h-187v712h187v-258h239z" />
    <glyph glyph-name="hcircumflex" unicode="&#x125;" horiz-adv-x="614" 
d="M214 790l-73 89l-73 -89h-145l140 163h156l140 -163h-145zM376 530c57.333 0 102.167 -16.5 134.5 -49.5s48.5 -79.167 48.5 -138.5v-342h-172v302c0 26 -6.16699 46.167 -18.5 60.5s-29.833 21.5 -52.5 21.5c-26.667 0 -48.167 -10 -64.5 -30s-24.5 -46.333 -24.5 -79
v-275h-172v712h172v-257c34 50 83.667 75 149 75z" />
    <glyph glyph-name="Hbar" unicode="&#x126;" horiz-adv-x="737" 
d="M488 633v79h187v-712h-187v255h-239v-255h-187v712h187v-79h239zM249 488v-88h239v88h-239z" />
    <glyph glyph-name="hbar" unicode="&#x127;" horiz-adv-x="635" 
d="M398 525c57.333 0 102.001 -16.5 134.001 -49.5s48 -79.167 48 -138.5v-337h-172v297c0 26 -6 46.167 -18 60.5s-29.333 21.5 -52 21.5c-26.667 0 -48.334 -10 -65.001 -30s-25 -46.333 -25 -79v-270h-172v566l-66 -2v118l66 -2v47h172v-48l126 3v-118l-126 3v-118
c36 50.667 86 76 150 76z" />
    <glyph glyph-name="Itilde" unicode="&#x128;" horiz-adv-x="312" 
d="M45 790h-117c0 60 11.667 106.167 35 138.5s56.666 48.5 99.999 48.5c21.333 0 43 -5.16699 65 -15.5s41.333 -20.833 58 -31.5s29.334 -16 38.001 -16c27.333 0 41 19.333 41 58h117c0 -60 -11.833 -106.167 -35.5 -138.5s-57.167 -48.5 -100.5 -48.5
c-27.333 0 -58.5 10.5 -93.5 31.5s-56.833 31.5 -65.5 31.5c-28 0 -42 -19.333 -42 -58zM249 0h-187v712h187v-712z" />
    <glyph glyph-name="itilde" unicode="&#x129;" horiz-adv-x="282" 
d="M30 593h-116.999c0 60 11.667 106.167 35 138.5s56.666 48.5 99.999 48.5c28 0 59.667 -10.5 95 -31.5s57.333 -31.5 66 -31.5c27.333 0 41 19.667 41 59h117c0 -60 -11.833 -106.167 -35.5 -138.5s-57.167 -48.5 -100.5 -48.5c-27.333 0 -58.5 10.5 -93.5 31.5
s-56.833 31.5 -65.5 31.5c-28 0 -42 -19.667 -42 -59zM227.001 0h-172v516h172v-516z" />
    <glyph glyph-name="Imacron" unicode="&#x12a;" horiz-adv-x="312" 
d="M342 806h-371v112h371v-112zM249 0h-187v712h187v-712z" />
    <glyph glyph-name="imacron" unicode="&#x12b;" horiz-adv-x="282" 
d="M327 610h-371v112h371v-112zM227 0h-172v516h172v-516z" />
    <glyph glyph-name="Ibreve" unicode="&#x12c;" horiz-adv-x="312" 
d="M156 784c-69.333 0 -119.005 13.5 -149.005 40.5s-45.667 70.833 -47 131.5h102c0.666992 -26 8.33398 -44.833 23.001 -56.5s38.334 -17.5 71.001 -17.5s56.334 5.83301 71.001 17.5s22.334 30.5 23.001 56.5h102c-1.33301 -60 -17.166 -103.667 -47.499 -131
s-79.833 -41 -148.5 -41zM248.995 0h-187v712h187v-712z" />
    <glyph glyph-name="ibreve" unicode="&#x12d;" horiz-adv-x="282" 
d="M141 588c-69.333 0 -119.005 13.5 -149.005 40.5s-45.667 70.833 -47 131.5h102c0.666992 -26 8.33398 -44.833 23.001 -56.5s38.334 -17.5 71.001 -17.5s56.334 5.83301 71.001 17.5s22.334 30.5 23.001 56.5h102c-1.33301 -60 -17.166 -103.667 -47.499 -131
s-79.833 -41 -148.5 -41zM226.995 0h-172v516h172v-516z" />
    <glyph glyph-name="Iogonek" unicode="&#x12e;" horiz-adv-x="312" 
d="M249 0l-59 -52c-20 -17.333 -30 -33.666 -30 -48.999c0 -26 18 -39 54 -39h35v-88h-79c-96.667 0 -145 33.333 -145 100c0 21.333 5.16699 40.166 15.5 56.499s27.833 34.833 52.5 55.5l20 16h-51v712h187v-712z" />
    <glyph glyph-name="iogonek" unicode="&#x12f;" horiz-adv-x="282" 
d="M57 712h168v-130h-168v130zM227 0l-59 -52c-20 -17.333 -30 -33.666 -30 -48.999c0 -26 18 -39 54 -39h35v-88h-79c-96.667 0 -145 33.333 -145 100c0 21.333 5.16699 40.166 15.5 56.499s27.833 34.833 52.5 55.5l20 16h-36v516h172v-516z" />
    <glyph glyph-name="Idot" unicode="&#x130;" horiz-adv-x="312" 
d="M240 798h-168v136h168v-136zM249 0h-187v712h187v-712z" />
    <glyph glyph-name="dotlessi" unicode="&#x131;" horiz-adv-x="282" 
d="M227 0h-172v516h172v-516z" />
    <glyph glyph-name="IJ" unicode="&#x132;" horiz-adv-x="909" 
d="M249 0h-187v712h187v-712zM781 42c-45.333 -41.333 -106.667 -62.001 -184 -62.001s-138.333 20.667 -183 62c-44.667 40.667 -67 96.667 -67 168v69h174v-63c0 -50 23.333 -75 70 -75c46 0 69 25 69 75v496h187v-501c0 -71.333 -22 -127.666 -66 -168.999z" />
    <glyph glyph-name="ij" unicode="&#x133;" horiz-adv-x="564" 
d="M227 582h-172v130h172v-130zM509 582h-172v130h172v-130zM227 0h-172v516h172v-516zM329 -210l-79.999 -0.000976562v134h36c18.667 0 32 3.83301 40 11.5s12 20.167 12 37.5v543h172v-552c0 -61.333 -14.333 -105.666 -43 -132.999s-74.334 -41 -137.001 -41z" />
    <glyph glyph-name="Jcircumflex" unicode="&#x134;" horiz-adv-x="612" 
d="M383 790h-145l140 163h156l140 -163h-145l-73 89zM484 42c-45.333 -41.333 -106.667 -62.001 -184 -62.001s-138.333 20.667 -183 62c-44.667 40.667 -67 96.667 -67 168v69h174v-63c0 -50 23.333 -75 70 -75c46 0 69 25 69 75v496h187v-501
c0 -71.333 -22 -127.666 -66 -168.999z" />
    <glyph glyph-name="jcircumflex" unicode="&#x135;" horiz-adv-x="282" 
d="M66 594h-145l140 163h156l140 -163h-145l-73 89zM47 -210l-79.999 -0.000976562v134h36c18.667 0 32 3.83301 40 11.5s12 20.167 12 37.5v543h172v-552c0 -61.333 -14.333 -105.666 -43 -132.999s-74.334 -41 -137.001 -41z" />
    <glyph glyph-name="uni0136" unicode="&#x136;" horiz-adv-x="743" 
d="M710 712l-268 -285l298 -427h-230l-199 302l-62 -65v-237h-187v712h187v-250l228 250h233zM403 -189l-120 -6v122h192v-137c0 -80 -42.667 -120 -128 -120h-64v64h59c40.667 0 61 18.667 61 56v21z" />
    <glyph glyph-name="uni0137" unicode="&#x137;" horiz-adv-x="612" 
d="M268 205l-41 -42v-163h-172v712h172v-368l148 172h209l-200 -205l211 -311h-204zM325 -189l-120 -6v122h192v-137c0 -80 -42.667 -120 -128 -120h-64v64h59c40.667 0 61 18.667 61 56v21z" />
    <glyph glyph-name="kgreenlandic" unicode="&#x138;" horiz-adv-x="612" 
d="M595 0h-204l-123 205l-41 -42v-163h-172v516h172v-172l148 172h209l-200 -205z" />
    <glyph glyph-name="Lacute" unicode="&#x139;" horiz-adv-x="594" 
d="M153 949h206l-149 -162h-139zM249 712v-550h332v-162h-519v712h187z" />
    <glyph glyph-name="lacute" unicode="&#x13a;" horiz-adv-x="282" 
d="M190 787h-139l82 162h206zM227 0h-172v712h172v-712z" />
    <glyph glyph-name="uni013B" unicode="&#x13b;" horiz-adv-x="594" 
d="M249 712v-550h332v-162h-519v712h187zM341 -189l-120 -6v122h192v-137c0 -80 -42.667 -120 -128 -120h-64v64h59c40.667 0 61 18.667 61 56v21z" />
    <glyph glyph-name="uni013C" unicode="&#x13c;" horiz-adv-x="282" 
d="M55 712h172v-712h-172v712zM44 -195v122h192v-137c0 -80 -42.667 -120 -128 -120h-64v64h59c40.667 0 61 18.667 61 56v21z" />
    <glyph glyph-name="Lcaron" unicode="&#x13d;" horiz-adv-x="594" 
d="M249 712v-550h332v-162h-519v712h187zM401 712h173l-90 -239h-124z" />
    <glyph glyph-name="lcaron" unicode="&#x13e;" horiz-adv-x="514" 
d="M227 0h-172v712h172v-712zM424 473h-125l41 239h174z" />
    <glyph glyph-name="Ldot" unicode="&#x13f;" horiz-adv-x="594" 
d="M249 712v-550h332v-162h-519v712h187zM368 503h167v-163h-167v163z" />
    <glyph glyph-name="ldot" unicode="&#x140;" horiz-adv-x="472" 
d="M227 0h-172v712h172v-712zM458 271h-176v173h176v-173z" />
    <glyph glyph-name="Lslash" unicode="&#x141;" horiz-adv-x="697" 
d="M352 346v-184h333v-162h-519v257l-137 -69v147l137 58v319h186v-232l225 111v-146z" />
    <glyph glyph-name="lslash" unicode="&#x142;" horiz-adv-x="398" 
d="M286 480l84 44v-145l-84 -35v-344h-172v260l-85 -46v145l85 36v317h172v-232z" />
    <glyph glyph-name="Nacute" unicode="&#x143;" horiz-adv-x="744" 
d="M370 949h206l-149 -162h-139zM497 298v414h184v-712h-187l-247 412v-412h-185v712h185z" />
    <glyph glyph-name="nacute" unicode="&#x144;" horiz-adv-x="614" 
d="M302 753h206l-149 -162h-139zM376 530c57.333 0 102.168 -16.5 134.501 -49.5s48.5 -79.167 48.5 -138.5v-342h-172v302c0 26 -6.16699 46.167 -18.5 60.5s-29.833 21.5 -52.5 21.5c-26.667 0 -48.167 -10 -64.5 -30s-24.5 -46.333 -24.5 -79v-275h-172v516h162l5 -69
c35.333 55.333 86.666 83 153.999 83z" />
    <glyph glyph-name="uni0145" unicode="&#x145;" horiz-adv-x="744" 
d="M497 298v414h184v-712h-187l-247 412v-412h-185v712h185zM401 -189l-120 -6v122h192v-137c0 -80 -42.667 -120 -128 -120h-64v64h59c40.667 0 61 18.667 61 56v21z" />
    <glyph glyph-name="uni0146" unicode="&#x146;" horiz-adv-x="614" 
d="M376 530c57.333 0 102.168 -16.5 134.501 -49.5s48.5 -79.167 48.5 -138.5v-342h-172v302c0 26 -6.16699 46.167 -18.5 60.5s-29.833 21.5 -52.5 21.5c-26.667 0 -48.167 -10 -64.5 -30s-24.5 -46.333 -24.5 -79v-275h-172v516h162l5 -69
c35.333 55.333 86.666 83 153.999 83zM331.002 -189l-120 -6v122h192v-137c0 -80 -42.667 -120 -128 -120h-64v64h59c40.667 0 61 18.667 61 56v21z" />
    <glyph glyph-name="Ncaron" unicode="&#x147;" horiz-adv-x="744" 
d="M595 948l-140 -163h-156l-140 163h145l73 -89l73 89h145zM497 298v414h184v-712h-187l-247 412v-412h-185v712h185z" />
    <glyph glyph-name="ncaron" unicode="&#x148;" horiz-adv-x="614" 
d="M527 752l-140 -163h-156l-140 163h145l73 -89l73 89h145zM376 530c57.333 0 102.168 -16.5 134.501 -49.5s48.5 -79.167 48.5 -138.5v-342h-172v302c0 26 -6.16699 46.167 -18.5 60.5s-29.833 21.5 -52.5 21.5c-26.667 0 -48.167 -10 -64.5 -30s-24.5 -46.333 -24.5 -79
v-275h-172v516h162l5 -69c35.333 55.333 86.666 83 153.999 83z" />
    <glyph glyph-name="napostrophe" unicode="&#x149;" horiz-adv-x="872" 
d="M127 541h-100v171h192v-200c0 -102 -54.667 -153 -164 -153h-27v81h22c51.333 0 77 24 77 72v29zM635 530c57.333 0 102 -16.5 134 -49.5s48 -79.167 48 -138.5v-342h-172v302c0 26 -6.16699 46.167 -18.5 60.5s-29.833 21.5 -52.5 21.5c-26 0 -47.333 -10 -64 -30
s-25 -46.333 -25 -79v-275h-172v516h162l5 -69c35.333 55.333 87 83 155 83z" />
    <glyph glyph-name="Eng" unicode="&#x14a;" horiz-adv-x="744" 
d="M497 301v411h184v-748c0 -60 -15.5 -104 -46.5 -132s-78.5 -42 -142.5 -42h-83v134h36c18.667 0 32 3.83301 40 11.5s12 20.167 12 37.5v28l-250 414v-415h-185v712h185z" />
    <glyph glyph-name="eng" unicode="&#x14b;" horiz-adv-x="614" 
d="M376 530c57.333 0 102.168 -16.499 134.501 -49.499s48.5 -79.167 48.5 -138.5v-378c0 -60.667 -14.5 -104.834 -43.5 -132.501s-74.5 -41.5 -136.5 -41.5h-80v134h36c18.667 0 32 3.83301 40 11.5s12 20.167 12 37.5v329c0 26 -6.16699 46.167 -18.5 60.5
s-29.833 21.5 -52.5 21.5c-26.667 0 -48.167 -10 -64.5 -30s-24.5 -46.333 -24.5 -79v-275h-172v516h162l5 -69c35.333 55.333 86.666 83 153.999 83z" />
    <glyph glyph-name="Omacron" unicode="&#x14c;" horiz-adv-x="784" 
d="M576 806h-371v112h371v-112zM645 80c-66 -68.667 -150.666 -103 -253.999 -103c-104 0 -188.333 34.333 -253 103c-65.333 69.333 -98 161 -98 275c0 113.333 32.667 204.333 98 273c65.333 67.333 149.666 101 252.999 101c104 0 189 -33.667 255 -101
c65.333 -68.667 98 -159.667 98 -273c0 -114 -33 -205.667 -99 -275zM271.001 190c28.667 -40 68.667 -60 120 -60s92 20 122 60c29.333 40.667 44 95.667 44 165c0 68.667 -14.833 122.667 -44.5 162s-70.167 59 -121.5 59s-91.5 -19.5 -120.5 -58.5
s-43.5 -93.167 -43.5 -162.5c0 -70.667 14.667 -125.667 44 -165z" />
    <glyph glyph-name="omacron" unicode="&#x14d;" horiz-adv-x="611" 
d="M492 610h-371v112h371v-112zM506 58c-51.333 -51.333 -118 -77 -200 -77s-148.667 25.667 -200 77s-77 117.666 -77 198.999c0 80.667 25.667 146.667 77 198s118 77 200 77s148.667 -25.667 200 -77s77 -117.333 77 -198c0 -81.333 -25.667 -147.666 -77 -198.999z
M228 146c18 -26 44.001 -39 78.001 -39c33.333 0 59.666 13 78.999 39c18 25.333 27 62.333 27 111c0 48 -9.16699 84.833 -27.5 110.5s-44.5 38.5 -78.5 38.5s-60 -12.833 -78 -38.5s-27 -62.5 -27 -110.5c0 -48.667 9 -85.667 27 -111z" />
    <glyph glyph-name="Obreve" unicode="&#x14e;" horiz-adv-x="784" 
d="M390 784c-69.333 0 -119.005 13.5 -149.005 40.5s-45.667 70.833 -47 131.5h102c0.666992 -26 8.33398 -44.833 23.001 -56.5s38.334 -17.5 71.001 -17.5s56.334 5.83301 71.001 17.5s22.334 30.5 23.001 56.5h102c-1.33301 -60 -17.166 -103.667 -47.499 -131
s-79.833 -41 -148.5 -41zM644.995 80c-66 -68.667 -150.666 -103 -253.999 -103c-104 0 -188.333 34.333 -253 103c-65.333 69.333 -98 161 -98 275c0 113.333 32.667 204.333 98 273c65.333 67.333 149.666 101 252.999 101c104 0 189 -33.667 255 -101
c65.333 -68.667 98 -159.667 98 -273c0 -114 -33 -205.667 -99 -275zM270.996 190c28.667 -40 68.667 -60 120 -60s92 20 122 60c29.333 40.667 44 95.667 44 165c0 68.667 -14.833 122.667 -44.5 162s-70.167 59 -121.5 59s-91.5 -19.5 -120.5 -58.5
s-43.5 -93.167 -43.5 -162.5c0 -70.667 14.667 -125.667 44 -165z" />
    <glyph glyph-name="obreve" unicode="&#x14f;" horiz-adv-x="611" 
d="M306 588c-69.333 0 -119.005 13.5 -149.005 40.5s-45.667 70.833 -47 131.5h102c0.666992 -26 8.33398 -44.833 23.001 -56.5s38.334 -17.5 71.001 -17.5s56.334 5.83301 71.001 17.5s22.334 30.5 23.001 56.5h102c-1.33301 -60 -17.166 -103.667 -47.499 -131
s-79.833 -41 -148.5 -41zM505.995 58c-51.333 -51.333 -118 -77 -200 -77s-148.667 25.667 -200 77s-77 117.666 -77 198.999c0 80.667 25.667 146.667 77 198s118 77 200 77s148.667 -25.667 200 -77s77 -117.333 77 -198c0 -81.333 -25.667 -147.666 -77 -198.999z
M227.995 146c18 -26 44.001 -39 78.001 -39c33.333 0 59.666 13 78.999 39c18 25.333 27 62.333 27 111c0 48 -9.16699 84.833 -27.5 110.5s-44.5 38.5 -78.5 38.5s-60 -12.833 -78 -38.5s-27 -62.5 -27 -110.5c0 -48.667 9 -85.667 27 -111z" />
    <glyph glyph-name="Ohungarumlaut" unicode="&#x150;" horiz-adv-x="784" 
d="M308 782h-134l79 173h184zM558 782h-134l89 173h183zM645 80c-66 -68.667 -150.666 -103 -253.999 -103c-104 0 -188.333 34.333 -253 103c-65.333 69.333 -98 161 -98 275c0 113.333 32.667 204.333 98 273c65.333 67.333 149.666 101 252.999 101
c104 0 189 -33.667 255 -101c65.333 -68.667 98 -159.667 98 -273c0 -114 -33 -205.667 -99 -275zM271.001 190c28.667 -40 68.667 -60 120 -60s92 20 122 60c29.333 40.667 44 95.667 44 165c0 68.667 -14.833 122.667 -44.5 162s-70.167 59 -121.5 59
s-91.5 -19.5 -120.5 -58.5s-43.5 -93.167 -43.5 -162.5c0 -70.667 14.667 -125.667 44 -165z" />
    <glyph glyph-name="ohungarumlaut" unicode="&#x151;" horiz-adv-x="611" 
d="M224 586h-134l80 173h184zM474 586h-133l88 173h184zM506 58c-51.333 -51.333 -118 -77 -200 -77s-148.667 25.667 -200 77s-77 117.666 -77 198.999c0 80.667 25.667 146.667 77 198s118 77 200 77s148.667 -25.667 200 -77s77 -117.333 77 -198
c0 -81.333 -25.667 -147.666 -77 -198.999zM228 146c18 -26 44.001 -39 78.001 -39c33.333 0 59.666 13 78.999 39c18 25.333 27 62.333 27 111c0 48 -9.16699 84.833 -27.5 110.5s-44.5 38.5 -78.5 38.5s-60 -12.833 -78 -38.5s-27 -62.5 -27 -110.5
c0 -48.667 9 -85.667 27 -111z" />
    <glyph glyph-name="OE" unicode="&#x152;" horiz-adv-x="1170" 
d="M744 288l0.000976562 -129.999h386v-158h-573v52c-48.667 -44.667 -110.334 -67 -185.001 -67c-94.667 0 -173.667 33.667 -237 101s-95 156.666 -95 267.999c0 110.667 31.667 199.667 95 267c62.667 66.667 141.667 100 237 100c75.333 0 137 -22 185 -66v57h563v-155
h-376v-117h329v-152h-329zM393.001 131.001c52 0 92.333 19.333 121 58s43 94 43 166c0 70 -14.333 124.167 -43 162.5s-69 57.5 -121 57.5s-92.667 -19.5 -122 -58.5s-44 -92.833 -44 -161.5c0 -70.667 14.5 -125.667 43.5 -165s69.833 -59 122.5 -59z" />
    <glyph glyph-name="oe" unicode="&#x153;" horiz-adv-x="991" 
d="M963 238l0.00292969 -26.001h-375c8.66699 -70.667 44.667 -106 108 -106c43.333 0 73.333 18.333 90 55l165 -11c-18.667 -54 -49.834 -95.667 -93.501 -125s-96.167 -44 -157.5 -44c-88 0 -156.333 29 -205 87c-48.667 -58 -114.334 -87 -197.001 -87
c-78.667 0 -143 26 -193 78c-50.667 50.667 -76 116.667 -76 198s25.333 147.333 76 198c50 51.333 114.333 77 193 77c82 0 147 -28.667 195 -86c49.333 57.333 115.666 86 198.999 86c82.667 0 148.667 -27.667 198 -83c48.667 -55.333 73 -125.666 73 -210.999z
M689.003 409.999c-57.333 0 -90.667 -31.667 -100 -95h199c-8 63.333 -41 95 -99 95zM305.002 106.999c34 0 60.333 13.001 79 39.001s28 63 28 111s-9.33301 84.833 -28 110.5s-45 38.5 -79 38.5c-33.333 0 -59 -12.667 -77 -38s-27 -62.333 -27 -111
s9 -85.834 27 -111.501s43.667 -38.5 77 -38.5z" />
    <glyph glyph-name="Racute" unicode="&#x154;" horiz-adv-x="722" 
d="M346 949h206l-149 -162h-139zM646 198l23 -197.999h-187l-16 166c-3.33301 33.333 -13 57.666 -29 72.999s-40.667 23 -74 23h-114v-262h-187v712h375c72.667 0 129.167 -18.5 169.5 -55.5s60.5 -85.833 60.5 -146.5c0 -87.333 -42.333 -145.333 -127 -174
c62.667 -18 98 -64 106 -138zM249 402.001h134c32 0 56.5 7.5 73.5 22.5s25.5 35.167 25.5 60.5c0 24.667 -7.66699 44.167 -23 58.5s-37.333 21.5 -66 21.5h-144v-163z" />
    <glyph glyph-name="racute" unicode="&#x155;" horiz-adv-x="422" 
d="M211 753h206l-149 -162h-139zM218 516l2.00098 -74c27.333 61.333 71 92 131 92c16.667 0 33 -2.33301 49 -7v-152c-12.667 2 -25.334 3 -38.001 3c-90 0 -135 -46 -135 -138v-240h-172v516h163z" />
    <glyph glyph-name="uni0156" unicode="&#x156;" horiz-adv-x="722" 
d="M646 198l23 -197.999h-187l-16 166c-3.33301 33.333 -13 57.666 -29 72.999s-40.667 23 -74 23h-114v-262h-187v712h375c72.667 0 129.167 -18.5 169.5 -55.5s60.5 -85.833 60.5 -146.5c0 -87.333 -42.333 -145.333 -127 -174c62.667 -18 98 -64 106 -138zM249 402.001
h134c32 0 56.5 7.5 73.5 22.5s25.5 35.167 25.5 60.5c0 24.667 -7.66699 44.167 -23 58.5s-37.333 21.5 -66 21.5h-144v-163zM379 -188.999l-120 -6v122h192v-137c0 -80 -42.667 -120 -128 -120h-64v64h59c40.667 0 61 18.667 61 56v21z" />
    <glyph glyph-name="uni0157" unicode="&#x157;" horiz-adv-x="422" 
d="M351 534c16.667 0 33.001 -2.33301 49.001 -7v-152c-12.667 2 -25.334 3 -38.001 3c-90 0 -135 -46 -135 -138v-240h-172v516h163l2 -74c27.333 61.333 71 92 131 92zM165.001 -189l-120 -6v122h192v-137c0 -80 -42.667 -120 -128 -120h-64v64h59
c40.667 0 61 18.667 61 56v21z" />
    <glyph glyph-name="Rcaron" unicode="&#x158;" horiz-adv-x="722" 
d="M571 948l-140 -163h-156l-140 163h145l73 -89l73 89h145zM646 198l23 -197.999h-187l-16 166c-3.33301 33.333 -13 57.666 -29 72.999s-40.667 23 -74 23h-114v-262h-187v712h375c72.667 0 129.167 -18.5 169.5 -55.5s60.5 -85.833 60.5 -146.5
c0 -87.333 -42.333 -145.333 -127 -174c62.667 -18 98 -64 106 -138zM249 402.001h134c32 0 56.5 7.5 73.5 22.5s25.5 35.167 25.5 60.5c0 24.667 -7.66699 44.167 -23 58.5s-37.333 21.5 -66 21.5h-144v-163z" />
    <glyph glyph-name="rcaron" unicode="&#x159;" horiz-adv-x="422" 
d="M436 752l-140 -163h-156l-140 163h145l73 -89l73 89h145zM218 516l2.00098 -74c27.333 61.333 71 92 131 92c16.667 0 33 -2.33301 49 -7v-152c-12.667 2 -25.334 3 -38.001 3c-90 0 -135 -46 -135 -138v-240h-172v516h163z" />
    <glyph glyph-name="Sacute" unicode="&#x15a;" horiz-adv-x="692" 
d="M395 787h-139l82 162h206zM351 -23c-95.333 0 -170.333 21.8301 -225 65.4971s-84 105.834 -88 186.501h185c4.66699 -68 48.667 -102 132 -102c72.667 0 109 23.667 109 71c0 18.667 -6.5 33.167 -19.5 43.5s-34.833 19.5 -65.5 27.5l-140 33
c-122.667 28.667 -184 96.334 -184 203.001c0 65.333 23.667 119 71 161s118 63 212 63c90 0 160.333 -19.833 211 -59.5s78 -95.834 82 -168.501h-181c-8 56 -45.667 84 -113 84c-29.333 0 -52.5 -5.83301 -69.5 -17.5s-25.5 -27.167 -25.5 -46.5
c0 -30 22.667 -50.667 68 -62l146 -34c132 -31.333 198 -102.666 198 -213.999c0 -73.333 -27 -130.666 -81 -171.999s-128 -62 -222 -62z" />
    <glyph glyph-name="sacute" unicode="&#x15b;" horiz-adv-x="574" 
d="M343 591h-139l82 162h206zM289 -20c-74.667 0 -133.332 15.501 -175.999 46.501s-67.667 74.833 -75 131.5l161 3c6 -47.333 38 -71 96 -71c26 0 46.5 4.83301 61.5 14.5s22.5 23.167 22.5 40.5c0 26 -21 42.333 -63 49l-90 13c-117.333 16 -176 67 -176 153
c0 54 20.667 96.167 62 126.5s98 45.5 170 45.5c69.333 0 124.666 -14.333 165.999 -43s65.666 -69 72.999 -121l-155 -4c-7.33301 41.333 -36.666 62 -87.999 62c-22 0 -39.5 -4.33301 -52.5 -13s-19.5 -20.334 -19.5 -35.001c0 -26.667 19.667 -43 59 -49l94 -15
c120 -17.333 180 -69 180 -155c0 -57.333 -22.167 -101.5 -66.5 -132.5s-105.5 -46.5 -183.5 -46.5z" />
    <glyph glyph-name="Scircumflex" unicode="&#x15c;" horiz-adv-x="692" 
d="M272 790h-145l140 163h156l140 -163h-145l-73 89zM351 -23c-95.333 0 -170.333 21.8301 -225 65.4971s-84 105.834 -88 186.501h185c4.66699 -68 48.667 -102 132 -102c72.667 0 109 23.667 109 71c0 18.667 -6.5 33.167 -19.5 43.5s-34.833 19.5 -65.5 27.5l-140 33
c-122.667 28.667 -184 96.334 -184 203.001c0 65.333 23.667 119 71 161s118 63 212 63c90 0 160.333 -19.833 211 -59.5s78 -95.834 82 -168.501h-181c-8 56 -45.667 84 -113 84c-29.333 0 -52.5 -5.83301 -69.5 -17.5s-25.5 -27.167 -25.5 -46.5
c0 -30 22.667 -50.667 68 -62l146 -34c132 -31.333 198 -102.666 198 -213.999c0 -73.333 -27 -130.666 -81 -171.999s-128 -62 -222 -62z" />
    <glyph glyph-name="scircumflex" unicode="&#x15d;" horiz-adv-x="574" 
d="M220 594h-145l140 163h156l140 -163h-145l-73 89zM289 -20c-74.667 0 -133.332 15.501 -175.999 46.501s-67.667 74.833 -75 131.5l161 3c6 -47.333 38 -71 96 -71c26 0 46.5 4.83301 61.5 14.5s22.5 23.167 22.5 40.5c0 26 -21 42.333 -63 49l-90 13
c-117.333 16 -176 67 -176 153c0 54 20.667 96.167 62 126.5s98 45.5 170 45.5c69.333 0 124.666 -14.333 165.999 -43s65.666 -69 72.999 -121l-155 -4c-7.33301 41.333 -36.666 62 -87.999 62c-22 0 -39.5 -4.33301 -52.5 -13s-19.5 -20.334 -19.5 -35.001
c0 -26.667 19.667 -43 59 -49l94 -15c120 -17.333 180 -69 180 -155c0 -57.333 -22.167 -101.5 -66.5 -132.5s-105.5 -46.5 -183.5 -46.5z" />
    <glyph glyph-name="Scedilla" unicode="&#x15e;" horiz-adv-x="692" 
d="M654 211c0 -68 -23.667 -122.501 -71 -163.501s-113.333 -64.167 -198 -69.5l-37 -44h16c36.667 0 64.667 -7.66699 84 -23s29 -37 29 -65c0 -71.333 -55.667 -107 -167 -107h-43v67h23c40 0 60 10.667 60 32c0 18.667 -12 28 -36 28h-20l-38 51l47 62
c-82 7.33301 -145.833 32.5 -191.5 75.5s-70.167 101.167 -73.5 174.5h185c4.66699 -68 48.667 -102 132 -102c72.667 0 109 23.667 109 71c0 18.667 -6.5 33.167 -19.5 43.5s-34.833 19.5 -65.5 27.5l-140 33c-122.667 28.667 -184 96.334 -184 203.001
c0 65.333 23.667 119 71 161s118 63 212 63c90 0 160.333 -19.833 211 -59.5s78 -95.834 82 -168.501h-181c-8 56 -45.667 84 -113 84c-29.333 0 -52.5 -5.83301 -69.5 -17.5s-25.5 -27.167 -25.5 -46.5c0 -30 22.667 -50.667 68 -62l146 -34
c132 -31.333 198 -102.666 198 -213.999z" />
    <glyph glyph-name="scedilla" unicode="&#x15f;" horiz-adv-x="574" 
d="M539 159c0 -52 -18.667 -93.332 -56 -123.999s-89.666 -48.667 -156.999 -54l-41 -49h16c36.667 0 64.667 -7.66699 84 -23s29 -37 29 -65c0 -71.333 -55.667 -107 -167 -107h-43v67h23c40 0 60 10.667 60 32c0 18.667 -12 28 -36 28h-20l-38 51l51 67
c-123.333 13.333 -192 72 -206 176l161 3c6 -47.333 38 -71 96 -71c26 0 46.5 4.83301 61.5 14.5s22.5 23.167 22.5 40.5c0 26 -21 42.333 -63 49l-90 13c-117.333 16 -176 67 -176 153c0 54 20.667 96.167 62 126.5s98 45.5 170 45.5c69.333 0 124.666 -14.333 165.999 -43
s65.666 -69 72.999 -121l-155 -4c-7.33301 41.333 -36.666 62 -87.999 62c-22 0 -39.5 -4.33301 -52.5 -13s-19.5 -20.334 -19.5 -35.001c0 -26.667 19.667 -43 59 -49l94 -15c120 -17.333 180 -69 180 -155z" />
    <glyph glyph-name="Scaron" unicode="&#x160;" horiz-adv-x="692" 
d="M423 785h-156l-140 163h145l73 -89l73 89h145zM351 -23c-95.333 0 -170.333 21.8301 -225 65.4971s-84 105.834 -88 186.501h185c4.66699 -68 48.667 -102 132 -102c72.667 0 109 23.667 109 71c0 18.667 -6.5 33.167 -19.5 43.5s-34.833 19.5 -65.5 27.5l-140 33
c-122.667 28.667 -184 96.334 -184 203.001c0 65.333 23.667 119 71 161s118 63 212 63c90 0 160.333 -19.833 211 -59.5s78 -95.834 82 -168.501h-181c-8 56 -45.667 84 -113 84c-29.333 0 -52.5 -5.83301 -69.5 -17.5s-25.5 -27.167 -25.5 -46.5
c0 -30 22.667 -50.667 68 -62l146 -34c132 -31.333 198 -102.666 198 -213.999c0 -73.333 -27 -130.666 -81 -171.999s-128 -62 -222 -62z" />
    <glyph glyph-name="scaron" unicode="&#x161;" horiz-adv-x="574" 
d="M371 589h-156l-140 163h145l73 -89l73 89h145zM289 -20c-74.667 0 -133.332 15.501 -175.999 46.501s-67.667 74.833 -75 131.5l161 3c6 -47.333 38 -71 96 -71c26 0 46.5 4.83301 61.5 14.5s22.5 23.167 22.5 40.5c0 26 -21 42.333 -63 49l-90 13
c-117.333 16 -176 67 -176 153c0 54 20.667 96.167 62 126.5s98 45.5 170 45.5c69.333 0 124.666 -14.333 165.999 -43s65.666 -69 72.999 -121l-155 -4c-7.33301 41.333 -36.666 62 -87.999 62c-22 0 -39.5 -4.33301 -52.5 -13s-19.5 -20.334 -19.5 -35.001
c0 -26.667 19.667 -43 59 -49l94 -15c120 -17.333 180 -69 180 -155c0 -57.333 -22.167 -101.5 -66.5 -132.5s-105.5 -46.5 -183.5 -46.5z" />
    <glyph glyph-name="uni0162" unicode="&#x162;" horiz-adv-x="645" 
d="M417 550v-550h-48l-50 -60h16c36.667 0 64.667 -7.66699 84 -23s29 -37 29 -65c0 -71.333 -55.667 -107 -167 -107h-43v67h23c40 0 60 10.667 60 32c0 18.667 -12 28 -36 28h-20l-38 51l58 77h-55v550h-210v162h605v-162h-208z" />
    <glyph glyph-name="uni0163" unicode="&#x163;" horiz-adv-x="387" 
d="M357 404l-95 3v-222c0 -35.333 16.333 -53 49 -53h46v-132h-105h-5l-40 -49h16c36 0 63.667 -7.83301 83 -23.5s29 -37.5 29 -65.5c0 -34 -14.167 -60.333 -42.5 -79s-69.5 -28 -123.5 -28h-44v67h23c40 0 60 11 60 33c0 18.667 -11.667 28 -35 28h-20l-39 50l58 77
c-29.333 8.66699 -50.333 25 -63 49s-19 58.667 -19 104v243l-75 -2v112l75 -2v159h172v-160l95 3v-112z" />
    <glyph glyph-name="Tcaron" unicode="&#x164;" horiz-adv-x="645" 
d="M541 948l-140 -163h-156l-140 163h145l73 -89l73 89h145zM20 712h605v-162h-208v-550h-187v550h-210v162z" />
    <glyph glyph-name="tcaron" unicode="&#x165;" horiz-adv-x="458" 
d="M326 582l41 240h174l-90 -240h-125zM262 673v-160l95 3v-112l-95 3v-222c0 -35.333 16.333 -53 49 -53h46v-132h-105c-60 0 -102 12.167 -126 36.5s-36 66.5 -36 126.5v243l-75 -2v112l75 -2v159h172z" />
    <glyph glyph-name="Tbar" unicode="&#x166;" horiz-adv-x="645" 
d="M625 712v-162h-208v-157l171 3v-141l-171 3v-258h-187v258l-172 -3v141l172 -3v157h-210v162h605z" />
    <glyph glyph-name="tbar" unicode="&#x167;" horiz-adv-x="402" 
d="M372 516v-112l-108 3v-83l108 3v-112l-104 3l1 -21v-12c0 -35.333 16.667 -53 50 -53h53v-132h-104c-60.667 0 -103 12.167 -127 36.5s-36 66.5 -36 126.5v25l4 30l-79 -3v112l85 -3v83l-85 -3v112l80 -3l-5 49v111h172v-111l-6 -49z" />
    <glyph glyph-name="Utilde" unicode="&#x168;" horiz-adv-x="735" 
d="M257 790h-117c0 60 11.667 106.167 35 138.5s56.666 48.5 99.999 48.5c21.333 0 43 -5.16699 65 -15.5s41.333 -20.833 58 -31.5s29.334 -16 38.001 -16c27.333 0 41 19.333 41 58h117c0 -60 -11.833 -106.167 -35.5 -138.5s-57.167 -48.5 -100.5 -48.5
c-27.333 0 -58.5 10.5 -93.5 31.5s-56.833 31.5 -65.5 31.5c-28 0 -42 -19.333 -42 -58zM367 -23c-98 0 -173.332 23.001 -225.999 69.001s-79 112 -79 198v468h187v-469c0 -75.333 39.667 -113 119 -113c78.667 0 118 37.667 118 113v469h187v-468
c0 -86.667 -26.333 -152.834 -79 -198.501s-128.334 -68.5 -227.001 -68.5z" />
    <glyph glyph-name="utilde" unicode="&#x169;" horiz-adv-x="614" 
d="M238 652c-28 0 -41.999 -19.667 -41.999 -59h-117c0 60 11.667 106.167 35 138.5s56.666 48.5 99.999 48.5c28 0 59.667 -10.5 95 -31.5s57.333 -31.5 66 -31.5c27.333 0 41 19.667 41 59h117c0 -60 -11.833 -106.167 -35.5 -138.5s-57.167 -48.5 -100.5 -48.5
c-27.333 0 -58.5 10.5 -93.5 31.5s-56.833 31.5 -65.5 31.5zM387.001 241l-0.000976562 275h172v-516h-162l-5 69c-35.333 -55.333 -87 -83 -155 -83c-57.333 0 -102 16.5 -134 49.5s-48 79.167 -48 138.5v342h172v-302c0 -26 6 -46.167 18 -60.5s29.333 -21.5 52 -21.5
c26.667 0 48.334 10 65.001 30s25 46.333 25 79z" />
    <glyph glyph-name="Umacron" unicode="&#x16a;" horiz-adv-x="735" 
d="M554 806h-371v112h371v-112zM367 -23c-98 0 -173.332 23.001 -225.999 69.001s-79 112 -79 198v468h187v-469c0 -75.333 39.667 -113 119 -113c78.667 0 118 37.667 118 113v469h187v-468c0 -86.667 -26.333 -152.834 -79 -198.501s-128.334 -68.5 -227.001 -68.5z" />
    <glyph glyph-name="umacron" unicode="&#x16b;" horiz-adv-x="614" 
d="M122 722h371v-112h-371v112zM387 241l-0.000976562 275h172v-516h-162l-5 69c-35.333 -55.333 -87 -83 -155 -83c-57.333 0 -102 16.5 -134 49.5s-48 79.167 -48 138.5v342h172v-302c0 -26 6 -46.167 18 -60.5s29.333 -21.5 52 -21.5c26.667 0 48.334 10 65.001 30
s25 46.333 25 79z" />
    <glyph glyph-name="Ubreve" unicode="&#x16c;" horiz-adv-x="735" 
d="M368 784c-69.333 0 -119.005 13.5 -149.005 40.5s-45.667 70.833 -47 131.5h102c0.666992 -26 8.33398 -44.833 23.001 -56.5s38.334 -17.5 71.001 -17.5s56.334 5.83301 71.001 17.5s22.334 30.5 23.001 56.5h102c-1.33301 -60 -17.166 -103.667 -47.499 -131
s-79.833 -41 -148.5 -41zM366.995 -23c-98 0 -173.332 23.001 -225.999 69.001s-79 112 -79 198v468h187v-469c0 -75.333 39.667 -113 119 -113c78.667 0 118 37.667 118 113v469h187v-468c0 -86.667 -26.333 -152.834 -79 -198.501s-128.334 -68.5 -227.001 -68.5z" />
    <glyph glyph-name="ubreve" unicode="&#x16d;" horiz-adv-x="614" 
d="M307 588c-69.333 0 -119.005 13.5 -149.005 40.5s-45.667 70.833 -47 131.5h102c0.666992 -26 8.33398 -44.833 23.001 -56.5s38.334 -17.5 71.001 -17.5s56.334 5.83301 71.001 17.5s22.334 30.5 23.001 56.5h102c-1.33301 -60 -17.166 -103.667 -47.499 -131
s-79.833 -41 -148.5 -41zM386.995 241l-0.000976562 275h172v-516h-162l-5 69c-35.333 -55.333 -87 -83 -155 -83c-57.333 0 -102 16.5 -134 49.5s-48 79.167 -48 138.5v342h172v-302c0 -26 6 -46.167 18 -60.5s29.333 -21.5 52 -21.5c26.667 0 48.334 10 65.001 30
s25 46.333 25 79z" />
    <glyph glyph-name="Uring" unicode="&#x16e;" horiz-adv-x="735" 
d="M476 814c-29.333 -28 -65.335 -42 -108.002 -42c-43.333 0 -79 14 -107 42c-28.667 28 -43 63.333 -43 106s14.333 78.334 43 107.001s64.334 43 107.001 43s78.334 -14.333 107.001 -43s43 -64.334 43 -107.001s-14 -78 -42 -106zM320.998 873
c14 -12 29.667 -18.1689 47 -18.502s33 5.83398 47 18.501s20.333 28.334 19 47.001c2 28 -8.5 47.833 -31.5 59.5s-46 11.667 -69 0s-33.5 -31.5 -31.5 -59.5c0 -19.333 6.33301 -35 19 -47zM366.998 -23.002c-98 0 -173.332 23.001 -225.999 69.001s-79 112 -79 198v468
h187v-469c0 -75.333 39.667 -113 119 -113c78.667 0 118 37.667 118 113v469h187v-468c0 -86.667 -26.333 -152.834 -79 -198.501s-128.334 -68.5 -227.001 -68.5z" />
    <glyph glyph-name="uring" unicode="&#x16f;" horiz-adv-x="614" 
d="M415 618c-28.667 -28 -64.665 -42 -107.998 -42s-79 14 -107 42c-28.667 28 -43 63.333 -43 106s14.167 78.334 42.5 107.001s64.166 43 107.499 43s79.166 -14.333 107.499 -43s42.5 -64.334 42.5 -107.001s-14 -78 -42 -106zM354.002 774
c-19.333 20 -43.502 24.332 -72.502 12.999s-42.5 -32.333 -40.5 -63c0 -19.333 6.33301 -35.166 19 -47.499s28.334 -18.5 47.001 -18.5s34.334 6.16699 47.001 18.5s19 28.166 19 47.499c0 20.667 -6.33301 37.334 -19 50.001zM387 240.999l-0.000976562 275h172v-516
h-162l-5 69c-35.333 -55.333 -87 -83 -155 -83c-57.333 0 -102 16.5 -134 49.5s-48 79.167 -48 138.5v342h172v-302c0 -26 6 -46.167 18 -60.5s29.333 -21.5 52 -21.5c26.667 0 48.334 10 65.001 30s25 46.333 25 79z" />
    <glyph glyph-name="Uhungarumlaut" unicode="&#x170;" horiz-adv-x="735" 
d="M286 782h-134l79 173h184zM536 782h-134l89 173h183zM367 -23c-98 0 -173.332 23.001 -225.999 69.001s-79 112 -79 198v468h187v-469c0 -75.333 39.667 -113 119 -113c78.667 0 118 37.667 118 113v469h187v-468c0 -86.667 -26.333 -152.834 -79 -198.501
s-128.334 -68.5 -227.001 -68.5z" />
    <glyph glyph-name="uhungarumlaut" unicode="&#x171;" horiz-adv-x="614" 
d="M170 759h184l-130 -173h-134zM613 759l-139 -173h-133l88 173h184zM387 241l-0.000976562 275h172v-516h-162l-5 69c-35.333 -55.333 -87 -83 -155 -83c-57.333 0 -102 16.5 -134 49.5s-48 79.167 -48 138.5v342h172v-302c0 -26 6 -46.167 18 -60.5
s29.333 -21.5 52 -21.5c26.667 0 48.334 10 65.001 30s25 46.333 25 79z" />
    <glyph glyph-name="Uogonek" unicode="&#x172;" horiz-adv-x="735" 
d="M486 243v469h187v-468c0 -137.333 -64 -222 -192 -254l-71 -42c-23.333 -15.333 -35 -32 -35 -50c0 -28 18 -42 54 -42h35v-88h-84c-46.667 0 -82.5 9 -107.5 27s-37.5 43.667 -37.5 77c0 41.333 24 77.333 72 108c-79.333 9.33301 -140 36.5 -182 81.5
s-63 105.833 -63 182.5v468h187v-469c0 -75.333 39.667 -113 119 -113c78.667 0 118 37.667 118 113z" />
    <glyph glyph-name="uogonek" unicode="&#x173;" horiz-adv-x="614" 
d="M559 0l-82.002 -47.998c-23.333 -15.333 -35 -32 -35 -50c0 -28 18 -42 54 -42h35v-88h-84c-46.667 0 -82.667 9 -108 27s-38 43.667 -38 77c0 23.333 6.5 44 19.5 62s33.5 35.333 61.5 52l28 15l-15 74c-34 -58.667 -86.333 -88 -157 -88
c-53.333 0 -96.666 15.333 -129.999 46c-35.333 33.333 -53 82.666 -53 147.999v331h172v-293c0 -30.667 6.33301 -52.334 19 -65.001c13.333 -14 30.333 -21 51 -21c26.667 0 48.334 10 65.001 30s25 46.333 25 79v270h172v-516z" />
    <glyph glyph-name="Wcircumflex" unicode="&#x174;" horiz-adv-x="1004" 
d="M576 790l-73 89l-73 -89h-145l140 163h156l140 -163h-145zM718 399l79 313h187l-207 -712h-180l-95 455l-91 -455h-184l-207 712h189l79 -313l33 -169l29 169l67 313h172l69 -313l28 -166z" />
    <glyph glyph-name="wcircumflex" unicode="&#x175;" horiz-adv-x="836" 
d="M491 594l-73 89l-73 -89h-145l140 163h156l140 -163h-145zM596 290l60 226h170l-162 -516h-165l-71 268l-10 48l-10 -49l-71 -267h-165l-162 516h176l61 -227l19 -95l19 95l56 227h152l58 -224l22 -106z" />
    <glyph glyph-name="Ycircumflex" unicode="&#x176;" horiz-adv-x="713" 
d="M433 790l-73 89l-73 -89h-145l140 163h156l140 -163h-145zM392 507l102 205h204l-248 -444v-268h-187v268l-249 444h208l99 -205l35 -90z" />
    <glyph glyph-name="ycircumflex" unicode="&#x177;" horiz-adv-x="580" 
d="M365 594l-73 89l-73 -89h-145l140 163h156l140 -163h-145zM292 177l97 339h181l-205 -598c-16 -44.667 -37 -76.167 -63 -94.5s-62.333 -27.5 -109 -27.5h-118v140h70c18 0 31.833 3 41.5 9s17.167 16 22.5 30l5 14l-204 527h185l79 -247z" />
    <glyph glyph-name="Ydieresis" unicode="&#x178;" horiz-adv-x="713" 
d="M148 934h168v-136h-168v136zM404 934h168v-136h-168v136zM392 507l102 205h204l-248 -444v-268h-187v268l-249 444h208l99 -205l35 -90z" />
    <glyph glyph-name="Zacute" unicode="&#x179;" horiz-adv-x="698" 
d="M343 949h206l-149 -162h-139zM643 575l-358 -415h369v-160h-610v150l351 402h-327v160h575v-137z" />
    <glyph glyph-name="zacute" unicode="&#x17a;" horiz-adv-x="519" 
d="M258 753h206l-149 -162h-139zM482 387l-244 -251h258v-136h-473v130l246 250h-222v136h435v-129z" />
    <glyph glyph-name="Zdotaccent" unicode="&#x17b;" horiz-adv-x="698" 
d="M266 934h168v-136h-168v136zM643 575l-358 -415h369v-160h-610v150l351 402h-327v160h575v-137z" />
    <glyph glyph-name="zdotaccent" unicode="&#x17c;" horiz-adv-x="519" 
d="M181 712h168v-130h-168v130zM482 387l-244 -251h258v-136h-473v130l246 250h-222v136h435v-129z" />
    <glyph glyph-name="Zcaron" unicode="&#x17d;" horiz-adv-x="698" 
d="M568 948l-140 -163h-156l-140 163h145l73 -89l73 89h145zM643 575l-358 -415h369v-160h-610v150l351 402h-327v160h575v-137z" />
    <glyph glyph-name="zcaron" unicode="&#x17e;" horiz-adv-x="519" 
d="M483 752l-140 -163h-156l-140 163h145l73 -89l73 89h145zM482 387l-244 -251h258v-136h-473v130l246 250h-222v136h435v-129z" />
    <glyph glyph-name="uni018F" unicode="&#x18f;" horiz-adv-x="773" 
d="M377 729c108 0 194.667 -33.668 260 -101.001c64 -66.667 96 -158 96 -274c0 -113.333 -32 -204.333 -96 -273c-65.333 -69.333 -150.333 -104 -255 -104c-105.333 0 -188.666 34 -249.999 102c-61.333 68.667 -92 163.334 -92 284.001c0 4 0.666992 16 2 36h502
c-10.667 122 -65.334 183 -164.001 183c-62 0 -105.667 -25.667 -131 -77h-195c19.333 70.667 57.5 125.667 114.5 165s126.5 59 208.5 59zM381 122.999c86 0 138.333 47.333 157 142h-311c12 -94.667 63.333 -142 154 -142z" />
    <glyph glyph-name="florin" unicode="&#x192;" 
d="M613 581h-51c-36 0 -57.333 -17.333 -64 -52l-18 -93l101 2l-22 -114l-100 2l-64 -327c-22 -112 -94 -168 -216 -168h-88l25 131h50c36 0 57 17.333 63 52l61 312l-100 -2l21 114l100 -2l21 107c20.667 112.667 92.667 169 216 169h89z" />
    <glyph glyph-name="uni01F4" unicode="&#x1f4;" horiz-adv-x="777" 
d="M383 949h206l-149 -162h-139zM415 389l300 0.00195312v-389h-123l-16 75c-19.333 -28.667 -46.833 -51.667 -82.5 -69s-76.834 -26 -123.501 -26c-94.667 0 -173.334 34.333 -236.001 103c-62.667 67.333 -94 157.666 -94 270.999c0 114 32 205 96 273
c64 67.333 146.667 101 248 101c84.667 0 154.834 -21 210.501 -63s90.834 -99.667 105.501 -173l-180 -12c-8.66699 30.667 -24.334 54.167 -47.001 70.5s-50.667 24.5 -84 24.5c-51.333 0 -91.166 -19.333 -119.499 -58s-42.5 -92.667 -42.5 -162
c0 -72.667 14.5 -128.334 43.5 -167.001s71.167 -58 126.5 -58c38.667 0 71 10 97 30s43 49.667 51 89h-130v140z" />
    <glyph glyph-name="uni01F5" unicode="&#x1f5;" horiz-adv-x="621" 
d="M293 753h206l-149 -162h-139zM403 459l6 57.001h157v-502c0 -72.667 -23.667 -129.167 -71 -169.5s-114 -60.5 -200 -60.5c-148.667 0 -232.334 57 -251.001 171l162 8c11.333 -37.333 42 -56 92 -56c34 0 58.5 7.33301 73.5 22s22.5 37.334 22.5 68.001v69
c-35.333 -41.333 -83.333 -62 -144 -62c-66 0 -119.333 24.333 -160 73c-40.667 47.333 -61 111.666 -61 192.999s20.667 145.666 62 192.999c40.667 46 93 69 157 69c64.667 0 116.334 -24.333 155.001 -73zM297 142.001c30.667 0 55.167 11.8311 73.5 35.498
s27.5 55.167 27.5 94.5c0 38.667 -9.16699 69.834 -27.5 93.501s-42.833 35.5 -73.5 35.5c-30 0 -53.5 -11.167 -70.5 -33.5s-25.5 -54.166 -25.5 -95.499s8.5 -73.333 25.5 -96s40.5 -34 70.5 -34z" />
    <glyph glyph-name="Aringacute" unicode="&#x1fa;" horiz-adv-x="753" 
d="M374 1109h205l-148 -162h-140zM733 0l-196.999 0.00195312l-40 122h-240l-40 -122h-196l244 663c-22 27.333 -33 59.666 -33 96.999c0 43.333 14.167 79 42.5 107s64.166 42 107.499 42s79 -14 107 -42c28 -28.667 42 -64.334 42 -107.001c0 -40 -12 -73.333 -36 -100z
M429.001 809.002c-19.333 20 -43.833 24.5 -73.5 13.5s-43.167 -31.833 -40.5 -62.5c0 -20 6.16699 -36.167 18.5 -48.5s28.166 -18.5 47.499 -18.5c18.667 0 34.334 6.16699 47.001 18.5s19 28.5 19 48.5c0 20.667 -6 37 -18 49zM333.001 357.002l-32 -98h151l-32 98
l-44 148z" />
    <glyph glyph-name="aringacute" unicode="&#x1fb;" horiz-adv-x="600" 
d="M287 1070h205l-149 -162h-139zM401 613c-28.667 -28 -64.666 -42 -107.999 -42s-79 14 -107 42s-42 63.333 -42 106c0 43.333 14 79 42 107s63.667 42 107 42s79.166 -14 107.499 -42s42.5 -63.667 42.5 -107c0 -42.667 -14 -78 -42 -106zM341.001 768
c-19.333 20 -43.833 24.5 -73.5 13.5s-43.167 -31.833 -40.5 -62.5c0 -20 6.33301 -36.167 19 -48.5s28.334 -18.5 47.001 -18.5c19.333 0 35.166 6.16699 47.499 18.5s18.5 28.5 18.5 48.5c0 20.667 -6 37 -18 49zM563.001 0h-172c-8 21.333 -13 40 -15 56
c-36 -49.333 -90.333 -74 -163 -74c-56 0 -100.667 14.333 -134 43s-50 67 -50 115c0 84.667 53.333 136.334 160 155.001l180 32v37c0 34 -25.333 51 -76 51c-24.667 0 -43 -4.83301 -55 -14.5s-19.333 -25.5 -22 -47.5l-161 5c6 59.333 28.333 103 67 131s97 42 175 42
c160.667 0 241 -63 241 -189v-223c0 -50.667 8.33301 -90.334 25 -119.001zM268.001 98c31.333 0 56.667 8.83203 76 26.499s29 42.834 29 75.501v31l-110 -22c-43.333 -9.33301 -65 -28.333 -65 -57c0 -36 23.333 -54 70 -54z" />
    <glyph glyph-name="AEacute" unicode="&#x1fc;" horiz-adv-x="1174" 
d="M664 949h206l-149 -162h-139zM747 288v-130h387v-158h-573v155h-256l-85 -155h-200l391 712h713v-155h-377v-117h330v-152h-330zM523 555l-138 -253h176v253h-38z" />
    <glyph glyph-name="aeacute" unicode="&#x1fd;" horiz-adv-x="968" 
d="M476 753h206l-149 -162h-139zM940 238v-26.998h-376c9.33301 -70 45.333 -105 108 -105c43.333 0 73.333 18.333 90 55l164 -15c-18.667 -52.667 -49.834 -93.334 -93.501 -122.001s-96.167 -43 -157.5 -43c-102 0 -174.667 37.667 -218 113
c-42 -74.667 -115 -112 -219 -112c-66 0 -117.333 14.833 -154 44.5s-55 70.5 -55 122.5c0 44.667 16 81.667 48 111c31.333 29.333 85.333 44 162 44h134v45c0 44 -26.667 66 -80 66c-24.667 0 -43 -4.5 -55 -13.5s-19.333 -24.167 -22 -45.5l-160 5
c6.66699 58 28.5 100.833 65.5 128.5s91.167 41.5 162.5 41.5c99.333 0 166 -26.333 200 -79c48 53.333 113 80 195 80c84.667 0 149.334 -27.333 194.001 -82s67 -125.334 67 -212.001zM666 410.002c-59.333 0 -93.333 -35.333 -102 -106h201c-8 70.667 -41 106 -99 106z
M268 99.002c31.333 0 56.667 9.16797 76 27.501s29 42.833 29 73.5v12h-97c-26 0 -45.667 -5.33301 -59 -16s-20 -24.334 -20 -41.001c0 -17.333 6.33301 -31 19 -41s30 -15 52 -15z" />
    <glyph glyph-name="Oslashacute" unicode="&#x1fe;" horiz-adv-x="784" 
d="M383 949h206l-149 -162h-139zM713 703l-61 -81.999c61.333 -69.333 92 -158 92 -266c0 -114 -33 -205.667 -99 -275c-66 -68.667 -150.667 -103 -254 -103c-67.333 0 -128.666 16 -183.999 48l-61 -82l-75 55l64 86c-63.333 69.333 -95 159.666 -95 270.999
c0 113.333 32.667 204.333 98 273c65.333 67.333 149.666 101 252.999 101c71.333 0 134.333 -16.333 189 -49l58 78zM227 355.001c0 -46 6.66699 -86.333 20 -121l234 314c-24.667 18.667 -54.667 28 -90 28c-51.333 0 -91.5 -19.5 -120.5 -58.5
s-43.5 -93.167 -43.5 -162.5zM391 130.001c51.333 0 91.833 20 121.5 60s44.5 95 44.5 165c0 44 -6 82 -18 114l-234 -313c25.333 -17.333 54 -26 86 -26z" />
    <glyph glyph-name="oslashacute" unicode="&#x1ff;" horiz-adv-x="611" 
d="M299 753h206l-149 -162h-139zM565 490l-44.001 -51c41.333 -50.667 62 -111.334 62 -182.001c0 -81.333 -25.667 -147.666 -77 -198.999s-118 -77 -200 -77c-56 0 -106 13 -150 39l-46 -53l-62 54l45 51c-42.667 49.333 -64 111 -64 185c0 80.667 25.667 146.667 77 198
s118 77 200 77c58.667 0 109.334 -13.333 152.001 -40l45 52zM200.999 257c0 -15.333 1.66699 -33.667 5 -55l160 185c-16.667 12.667 -36.667 19 -60 19c-34 0 -60 -12.833 -78 -38.5s-27 -62.5 -27 -110.5zM305.999 106.999c34 0 60.167 12.832 78.5 38.499
s27.5 62.834 27.5 111.501c0 16 -1.33301 33.333 -4 52l-160 -184c14.667 -12 34 -18 58 -18z" />
    <glyph glyph-name="uni0218" unicode="&#x218;" horiz-adv-x="692" 
d="M310 459l146 -34.0029c132 -31.333 198 -102.666 198 -213.999c0 -73.333 -27 -130.666 -81 -171.999s-128 -62 -222 -62c-95.333 0 -170.333 21.833 -225 65.5s-84 105.834 -88 186.501h185c4.66699 -68 48.667 -102 132 -102c72.667 0 109 23.667 109 71
c0 18.667 -6.5 33.167 -19.5 43.5s-34.833 19.5 -65.5 27.5l-140 33c-122.667 28.667 -184 96.334 -184 203.001c0 65.333 23.667 119 71 161s118 63 212 63c90 0 160.333 -19.833 211 -59.5s78 -95.834 82 -168.501h-181c-8 56 -45.667 84 -113 84
c-29.333 0 -52.5 -5.83301 -69.5 -17.5s-25.5 -27.167 -25.5 -46.5c0 -30 22.667 -50.667 68 -62zM376 -195.003l-120 -6v122h192v-137c0 -80 -42.667 -120 -128 -120h-64v64h59c40.667 0 61 18.667 61 56v21z" />
    <glyph glyph-name="uni0219" unicode="&#x219;" horiz-adv-x="574" 
d="M265 329l94.002 -14.999c120 -17.333 180 -69 180 -155c0 -57.333 -22.167 -101.5 -66.5 -132.5s-105.5 -46.5 -183.5 -46.5c-74.667 0 -133.334 15.5 -176.001 46.5s-67.667 74.833 -75 131.5l161 3c6 -47.333 38 -71 96 -71c26 0 46.5 4.83301 61.5 14.5
s22.5 23.167 22.5 40.5c0 26 -21 42.333 -63 49l-90 13c-117.333 16 -176 67 -176 153c0 54 20.667 96.167 62 126.5s98 45.5 170 45.5c69.333 0 124.666 -14.333 165.999 -43s65.666 -69 72.999 -121l-155 -4c-7.33301 41.333 -36.666 62 -87.999 62
c-22 0 -39.5 -4.33301 -52.5 -13s-19.5 -20.334 -19.5 -35.001c0 -26.667 19.667 -43 59 -49zM313.002 -196.999l-120 -6v122h192v-137c0 -80 -42.667 -120 -128 -120h-64v64h59c40.667 0 61 18.667 61 56v21z" />
    <glyph glyph-name="uni021A" unicode="&#x21a;" horiz-adv-x="645" 
d="M20 712h605v-162h-208v-550h-187v550h-210v162zM347 -189l-120 -6v122h192v-137c0 -80 -42.667 -120 -128 -120h-64v64h59c40.667 0 61 18.667 61 56v21z" />
    <glyph glyph-name="uni021B" unicode="&#x21b;" horiz-adv-x="387" 
d="M357 404l-95 3v-222c0 -35.333 16.333 -53 49 -53h46v-132h-105c-60 0 -102 12.167 -126 36.5s-36 66.5 -36 126.5v243l-75 -2v112l75 -2v159h172v-160l95 3v-112zM207 -189l-120 -6v122h192v-137c0 -80 -42.667 -120 -128 -120h-64v64h59c40.667 0 61 18.667 61 56v21z
" />
    <glyph glyph-name="uni0237" unicode="&#x237;" horiz-adv-x="282" 
d="M47 -210l-79.999 -0.000976562v134h36c18.667 0 32 3.83301 40 11.5s12 20.167 12 37.5v543h172v-552c0 -61.333 -14.333 -105.666 -43 -132.999s-74.334 -41 -137.001 -41z" />
    <glyph glyph-name="uni0259" unicode="&#x259;" horiz-adv-x="604" 
d="M295 535c86.667 0 154.999 -25.332 204.999 -75.999c50 -51.333 75 -118.333 75 -201c0 -80 -24.667 -145.667 -74 -197c-50 -51.333 -115.667 -77 -197 -77c-85.333 0 -152.666 27.667 -201.999 83s-74 125.666 -74 210.999v26h375c-8 70.667 -43.667 106 -107 106
c-44 0 -74.333 -18.333 -91 -55l-164 11c18 54 48.833 95.667 92.5 125s97.5 44 161.5 44zM301.999 106.001c57.333 0 90.667 31.667 100 95h-199c8 -63.333 41 -95 99 -95z" />
    <glyph glyph-name="h.sups" unicode="&#x2b0;" horiz-adv-x="510" 
d="M311 723c46 0 81.5 -11.333 106.5 -34s37.5 -55.667 37.5 -99v-235h-139v201c0 36 -18 54 -54 54c-20 0 -36.333 -6 -49 -18s-19 -27.667 -19 -47v-190h-139v493h139v-173c29.333 32 68.333 48 117 48z" />
    <glyph glyph-name="r.sups" unicode="&#x2b3;" horiz-adv-x="359" 
d="M306 722l31 0.000976562v-128h-39c-37.333 0 -64 -7.33301 -80 -22s-24 -39.334 -24 -74.001v-143h-139v357h122l9 -62c20 48 60 72 120 72z" />
    <glyph glyph-name="circumflex" unicode="&#x2c6;" horiz-adv-x="500" 
d="M177 594h-145l140 163h156l140 -163h-145l-73 89z" />
    <glyph glyph-name="caron" unicode="&#x2c7;" horiz-adv-x="500" 
d="M328 589h-156l-140 163h145l73 -89l73 89h145z" />
    <glyph glyph-name="uni02C9" unicode="&#x2c9;" horiz-adv-x="500" 
d="M436 610h-371v112h371v-112z" />
    <glyph glyph-name="breve" unicode="&#x2d8;" horiz-adv-x="500" 
d="M250 588c-69.333 0 -119.005 13.5 -149.005 40.5s-45.667 70.833 -47 131.5h102c0.666992 -26 8.33398 -44.833 23.001 -56.5s38.334 -17.5 71.001 -17.5s56.334 5.83301 71.001 17.5s22.334 30.5 23.001 56.5h102c-1.33301 -60 -17.166 -103.667 -47.499 -131
s-79.833 -41 -148.5 -41z" />
    <glyph glyph-name="dotaccent" unicode="&#x2d9;" horiz-adv-x="500" 
d="M335 582h-169v130h169v-130z" />
    <glyph glyph-name="ring" unicode="&#x2da;" horiz-adv-x="500" 
d="M358 618c-29.333 -28 -65.335 -42 -108.002 -42c-43.333 0 -79 14 -107 42c-28.667 28 -43 63.333 -43 106s14.333 78.334 43 107.001s64.334 43 107.001 43s78.334 -14.333 107.001 -43s43 -64.334 43 -107.001s-14 -78 -42 -106zM202.998 677
c14 -12 29.667 -18.1689 47 -18.502s33 5.83398 47 18.501s20.333 28.334 19 47.001c2 28 -8.5 47.833 -31.5 59.5s-46 11.667 -69 0s-33.5 -31.5 -31.5 -59.5c0 -19.333 6.33301 -35 19 -47z" />
    <glyph glyph-name="ogonek" unicode="&#x2db;" horiz-adv-x="500" 
d="M317 -228l-84.001 -0.000976562c-46.667 0 -82.5 9 -107.5 27s-37.5 43.667 -37.5 77c0 24 6.33301 44.833 19 62.5s33.334 34.834 62.001 51.501l48 27l128 -17l-82 -48c-23.333 -15.333 -35 -32 -35 -50c0 -28 18 -42 54 -42h35v-88z" />
    <glyph glyph-name="tilde" unicode="&#x2dc;" horiz-adv-x="500" 
d="M140 613h-117.001c0 60 11.667 106.167 35 138.5s56.666 48.5 99.999 48.5c21.333 0 42.833 -5.33301 64.5 -16s40.834 -21.167 57.501 -31.5s29.334 -15.5 38.001 -15.5c28 0 42 19.667 42 59h117c0 -60 -11.833 -106.167 -35.5 -138.5s-57.167 -48.5 -100.5 -48.5
c-28 0 -59.5 10.5 -94.5 31.5s-56.833 31.5 -65.5 31.5c-27.333 0 -41 -19.667 -41 -59z" />
    <glyph glyph-name="hungarumlaut" unicode="&#x2dd;" horiz-adv-x="500" 
d="M123 586h-134l79 173h184zM373 586h-134l89 173h183z" />
    <glyph glyph-name="s.sups" unicode="&#x2e2;" horiz-adv-x="452" 
d="M228 341c-113.333 0 -179.666 36.001 -198.999 108.001l132 16c8 -25.333 32.667 -38 74 -38c44.667 0 67 10.667 67 32c0 15.333 -14.667 24.666 -44 27.999l-78 6c-92.667 8 -139 45 -139 111c0 38.667 15.667 68.5 47 89.5s76.666 31.5 135.999 31.5
c104 0 166.667 -33.667 188 -101l-126 -12c-6 20 -28 30 -66 30c-39.333 0 -59 -9 -59 -27c0 -14 11.667 -22 35 -24l90 -7c92 -8 138 -45.667 138 -113c0 -41.333 -17.167 -73.333 -51.5 -96s-82.5 -34 -144.5 -34z" />
    <glyph glyph-name="gravecomb" unicode="&#x300;" horiz-adv-x="0" 
d="M90 591h-140l-148 162h205z" />
    <glyph glyph-name="acutecomb" unicode="&#x301;" horiz-adv-x="0" 
d="M50 591h-139l82 162h206z" />
    <glyph glyph-name="uni0302" unicode="&#x302;" horiz-adv-x="0" 
d="M-73 594h-145l140 163h156l140 -163h-145l-73 89z" />
    <glyph glyph-name="tildecomb" unicode="&#x303;" horiz-adv-x="0" 
d="M-111 613h-117c0 60 11.667 106.167 35 138.5s56.666 48.5 99.999 48.5c21.333 0 43 -5.33301 65 -16s41.333 -21.167 58 -31.5s29.334 -15.5 38.001 -15.5c27.333 0 41 19.667 41 59h117c0 -60 -11.833 -106.167 -35.5 -138.5s-57.167 -48.5 -100.5 -48.5
c-27.333 0 -58.5 10.5 -93.5 31.5s-56.833 31.5 -65.5 31.5c-28 0 -42 -19.667 -42 -59z" />
    <glyph glyph-name="uni0304" unicode="&#x304;" horiz-adv-x="0" 
d="M186 610h-371v112h371v-112z" />
    <glyph glyph-name="uni0306" unicode="&#x306;" horiz-adv-x="0" 
d="M-196 588c-69.333 0 -119.005 13.5 -149.005 40.5s-45.667 70.833 -47 131.5h102c0.666992 -26 8.33398 -44.833 23.001 -56.5s38.334 -17.5 71.001 -17.5s56.334 5.83301 71.001 17.5s22.334 30.5 23.001 56.5h102c-1.33301 -60 -17.166 -103.667 -47.499 -131
s-79.833 -41 -148.5 -41z" />
    <glyph glyph-name="uni0307" unicode="&#x307;" horiz-adv-x="0" 
d="M84 582h-168v130h168v-130z" />
    <glyph glyph-name="uni0308" unicode="&#x308;" horiz-adv-x="0" 
d="M-44 582h-168v130h168v-130zM212 582h-168v130h168v-130z" />
    <glyph glyph-name="uni030A" unicode="&#x30a;" horiz-adv-x="0" 
d="M108 618c-29.333 -28 -65.335 -42 -108.002 -42s-78.667 14 -108 42c-28 28 -42 63.333 -42 106s14.333 78.334 43 107.001s64.334 43 107.001 43s78.334 -14.333 107.001 -43s43 -64.334 43 -107.001s-14 -78 -42 -106zM-47.002 677c14 -12 29.667 -18.1689 47 -18.502
s33 5.83398 47 18.501s20.333 28.334 19 47.001c2 28 -8.5 47.833 -31.5 59.5s-46 11.667 -69 0s-33.5 -31.5 -31.5 -59.5c0 -19.333 6.33301 -35 19 -47z" />
    <glyph glyph-name="uni030B" unicode="&#x30b;" horiz-adv-x="0" 
d="M-81 586h-134l80 173h184zM169 586h-133l88 173h184z" />
    <glyph glyph-name="uni030C" unicode="&#x30c;" horiz-adv-x="0" 
d="M78 589h-156l-140 163h145l73 -89l73 89h145z" />
    <glyph glyph-name="uni0312" unicode="&#x312;" horiz-adv-x="0" 
d="M96 757h-59c-40 0 -60 -18.333 -60 -55v-15l119 11v-116h-192v120c0 80 42.667 120 128 120h64v-65z" />
    <glyph glyph-name="uni0313" unicode="&#x313;" horiz-adv-x="0" 
d="M-96 705v117h192v-120c0 -80 -43 -120 -129 -120h-63v64h59c40 0 60 18.667 60 56v14z" />
    <glyph glyph-name="dotbelowcomb" unicode="&#x323;" horiz-adv-x="0" 
d="M84 -222h-168v136h168v-136z" />
    <glyph glyph-name="uni0324" unicode="&#x324;" horiz-adv-x="0" 
d="M-44 -222h-168v136h168v-136zM212 -222h-168v136h168v-136z" />
    <glyph glyph-name="uni0325" unicode="&#x325;" horiz-adv-x="0" 
d="M103 -307c-27.333 -27.333 -61.666 -41 -102.999 -41s-75.666 13.667 -102.999 41s-41 61.666 -41 102.999c0 40.667 13.667 74.667 41 102s61.666 41 102.999 41s75.666 -13.667 102.999 -41s41 -61.333 41 -102c0 -41.333 -13.667 -75.666 -41 -102.999zM-46 -251
c12 -12 27.333 -18 46 -18s34 6 46 18s18 27.667 18 47s-6 35 -18 47c-12.667 12 -28 18 -46 18s-33.333 -6 -46 -18c-12 -12 -18 -27.667 -18 -47s6 -35 18 -47z" />
    <glyph glyph-name="uni0326" unicode="&#x326;" horiz-adv-x="0" 
d="M-96 -195v122h192v-137c0 -80 -42.667 -120 -128 -120h-64v64h59c40.667 0 61 18.667 61 56v21z" />
    <glyph glyph-name="uni0327" unicode="&#x327;" horiz-adv-x="0" 
d="M-42 -255h-43v67h23c40 0 60 10.667 60 32c0 18.667 -12 28 -36 28h-20l-38 51l58 77h84l-50 -60h16c36.667 0 64.667 -7.66699 84 -23s29 -37 29 -65c0 -71.333 -55.667 -107 -167 -107z" />
    <glyph glyph-name="uni0328" unicode="&#x328;" horiz-adv-x="0" 
d="M-28 -228l-84.001 -0.000976562c-46.667 0 -82.5 9 -107.5 27s-37.5 43.667 -37.5 77c0 24 6.33301 44.833 19 62.5s33.334 34.834 62.001 51.501l48 27l128 -17l-82 -48c-23.333 -15.333 -35 -32 -35 -50c0 -28 18 -42 54 -42h35v-88z" />
    <glyph glyph-name="uni032E" unicode="&#x32e;" horiz-adv-x="0" 
d="M-196 -244c-69.333 0 -119.005 13.5 -149.005 40.5s-45.667 70.833 -47 131.5h102c0.666992 -26 8.33398 -44.833 23.001 -56.5s38.334 -17.5 71.001 -17.5s56.334 5.83301 71.001 17.5s22.334 30.5 23.001 56.5h102c-1.33301 -60 -17.166 -103.667 -47.499 -131
s-79.833 -41 -148.5 -41z" />
    <glyph glyph-name="uni0331" unicode="&#x331;" horiz-adv-x="0" 
d="M186 -206h-371v112h371v-112z" />
    <glyph glyph-name="uni0335" unicode="&#x335;" horiz-adv-x="0" 
d="M-171 322l-171 -5v112l171 -5l171 5v-112z" />
    <glyph glyph-name="uni0337" unicode="&#x337;" horiz-adv-x="0" 
d="M251 516l-428 -573l-75 55l429 573z" />
    <glyph glyph-name="uni0338" unicode="&#x338;" horiz-adv-x="0" 
d="M321 703l-568 -760l-74 55l568 760z" />
    <glyph glyph-name="uni0394" unicode="&#x394;" horiz-adv-x="753" 
d="M280 712h197l256 -712h-713zM331 367l-74 -220h239l-73 220l-46 157z" />
    <glyph glyph-name="uni03A9" unicode="&#x3a9;" horiz-adv-x="801" 
d="M365 0l-325 0.000976562v152h135v2c-87.333 63.333 -131 149 -131 257c0 94 31.667 170.667 95 230c62.667 58.667 149.667 88 261 88c112 0 199.333 -29 262 -87c62.667 -58.667 94 -135.667 94 -231c0 -108.667 -43 -194.334 -129 -257.001v-2h134v-152h-323v138
c88 45.333 132 124.333 132 237c0 69.333 -14.667 121.5 -44 156.5s-71.333 52.5 -126 52.5c-54 0 -95.667 -17.667 -125 -53s-44 -87.333 -44 -156c0 -112.667 44.667 -191.667 134 -237v-138z" />
    <glyph glyph-name="uni03BC" unicode="&#x3bc;" horiz-adv-x="614" 
d="M227 -204h-172.002v720h172v-298c0 -57.333 23.333 -86 70 -86c26.667 0 48.334 10 65.001 30s25 46.333 25 79v275h172v-516h-162l-5 67c-27.333 -51.333 -73 -77 -137 -77c-19.333 0 -40.666 3.66699 -63.999 11l-1 -2l37 -109v-94z" />
    <glyph glyph-name="pi" unicode="&#x3c0;" horiz-adv-x="738" 
d="M708 516v-160h-120v-162c0 -20 4.33301 -34.333 13 -43s22.667 -13 42 -13h33v-138h-93c-108 0 -162 57 -162 171v185h-119v-356h-167v356h-120v160h693z" />
    <glyph glyph-name="d.sups" unicode="&#x1d48;" horiz-adv-x="502" 
d="M308 678l0.000976562 170h139v-493h-128l-5 44c-27.333 -39.333 -67 -59 -119 -59c-50 0 -90.167 17.5 -120.5 52.5s-45.5 82.167 -45.5 141.5c0 60 15.167 106.833 45.5 140.5s70.833 50.5 121.5 50.5c45.333 0 82.666 -15.667 111.999 -47zM238.001 455
c23.333 0 41.167 7.33105 53.5 21.998s18.5 34.334 18.5 59.001s-6.33301 44.334 -19 59.001s-30.667 22 -54 22c-44.667 0 -67 -27 -67 -81s22.667 -81 68 -81z" />
    <glyph glyph-name="t.sups" unicode="&#x1d57;" horiz-adv-x="329" 
d="M299 712v-91l-75 1v-123c0 -26 12.333 -39 37 -39h37v-105h-85c-47.333 0 -80.5 8.66699 -99.5 26s-28.5 50 -28.5 98v144l-70 -2v91l70 -2v110h139v-110z" />
    <glyph glyph-name="Wgrave" unicode="&#x1e80;" horiz-adv-x="1004" 
d="M510 949l83 -162h-140l-148 162h205zM718 399l79 313h187l-207 -712h-180l-95 455l-91 -455h-184l-207 712h189l79 -313l33 -169l29 169l67 313h172l69 -313l28 -166z" />
    <glyph glyph-name="wgrave" unicode="&#x1e81;" horiz-adv-x="836" 
d="M424 753l83 -162h-140l-148 162h205zM596 290l60 226h170l-162 -516h-165l-71 268l-10 48l-10 -49l-71 -267h-165l-162 516h176l61 -227l19 -95l19 95l56 227h152l58 -224l22 -106z" />
    <glyph glyph-name="Wacute" unicode="&#x1e82;" horiz-adv-x="1004" 
d="M496 949h206l-149 -162h-139zM718 399l79 313h187l-207 -712h-180l-95 455l-91 -455h-184l-207 712h189l79 -313l33 -169l29 169l67 313h172l69 -313l28 -166z" />
    <glyph glyph-name="wacute" unicode="&#x1e83;" horiz-adv-x="836" 
d="M411 753h206l-149 -162h-139zM596 290l60 226h170l-162 -516h-165l-71 268l-10 48l-10 -49l-71 -267h-165l-162 516h176l61 -227l19 -95l19 95l56 227h152l58 -224l22 -106z" />
    <glyph glyph-name="Wdieresis" unicode="&#x1e84;" horiz-adv-x="1004" 
d="M291 934h168v-136h-168v136zM547 934h168v-136h-168v136zM718 399l79 313h187l-207 -712h-180l-95 455l-91 -455h-184l-207 712h189l79 -313l33 -169l29 169l67 313h172l69 -313l28 -166z" />
    <glyph glyph-name="wdieresis" unicode="&#x1e85;" horiz-adv-x="836" 
d="M206 712h168v-130h-168v130zM462 712h168v-130h-168v130zM596 290l60 226h170l-162 -516h-165l-71 268l-10 48l-10 -49l-71 -267h-165l-162 516h176l61 -227l19 -95l19 95l56 227h152l58 -224l22 -106z" />
    <glyph glyph-name="uni1E9E" unicode="&#x1e9e;" horiz-adv-x="747" 
d="M683 575l-130.003 -153.999c53.333 -13.333 94.333 -37.333 123 -72s43 -77 43 -127c0 -72.667 -24.667 -128.667 -74 -168s-121.333 -59 -216 -59c-15.333 0 -42.333 1.66699 -81 5v147c24 -2.66699 46.667 -4 68 -4c72.667 0 109 26 109 78c0 50 -37.333 75 -112 75
c-31.333 0 -50.666 -0.333008 -57.999 -1v112l132 166c-24 4 -54.333 6 -91 6c-53.333 0 -91.166 -11.333 -113.499 -34s-33.5 -56.334 -33.5 -101.001v-444h-187v443c0 93.333 29 164.833 87 214.5s139.333 74.5 244 74.5c86.667 0 183.334 -6.66699 290.001 -20v-137z" />
    <glyph glyph-name="Ygrave" unicode="&#x1ef2;" horiz-adv-x="713" 
d="M366 949l83 -162h-140l-148 162h205zM392 507l102 205h204l-248 -444v-268h-187v268l-249 444h208l99 -205l35 -90z" />
    <glyph glyph-name="ygrave" unicode="&#x1ef3;" horiz-adv-x="580" 
d="M298 753l83 -162h-140l-148 162h205zM292 177l97 339h181l-205 -598c-16 -44.667 -37 -76.167 -63 -94.5s-62.333 -27.5 -109 -27.5h-118v140h70c18 0 31.833 3 41.5 9s17.167 16 22.5 30l5 14l-204 527h185l79 -247z" />
    <glyph glyph-name="thinspace" unicode="&#x2009;" horiz-adv-x="282" 
 />
    <glyph glyph-name="uni2011" unicode="&#x2011;" horiz-adv-x="363" 
d="M324 209h-285v138h285v-138z" />
    <glyph glyph-name="endash" unicode="&#x2013;" horiz-adv-x="530" 
d="M492 209h-453v133h453v-133z" />
    <glyph glyph-name="emdash" unicode="&#x2014;" horiz-adv-x="790" 
d="M751 209h-712v133h712v-133z" />
    <glyph glyph-name="quoteleft" unicode="&#x2018;" horiz-adv-x="262" 
d="M227 361h-192v200c0 102.667 55 154 165 154h27v-82h-22c-51.333 0 -77 -23.667 -77 -71v-29h99v-172z" />
    <glyph glyph-name="quoteright" unicode="&#x2019;" horiz-adv-x="262" 
d="M62 359h-26v81h22c50.667 0 76 24 76 72v29h-99v171h192v-200c0 -102 -55 -153 -165 -153z" />
    <glyph glyph-name="quotesinglbase" unicode="&#x201a;" horiz-adv-x="307" 
d="M85 -182h-27v81h22c51.333 0 77 24 77 72v29h-100v171h192v-199c0 -102.667 -54.667 -154 -164 -154z" />
    <glyph glyph-name="quotedblleft" unicode="&#x201c;" horiz-adv-x="519" 
d="M227 361h-192v200c0 102.667 55 154 165 154h27v-82h-22c-51.333 0 -77 -23.667 -77 -71v-29h99v-172zM484 361h-192v200c0 102.667 55 154 165 154h26v-82h-22c-50.667 0 -76 -23.667 -76 -71v-29h99v-172z" />
    <glyph glyph-name="quotedblright" unicode="&#x201d;" horiz-adv-x="519" 
d="M62 359h-26v81h22c50.667 0 76 24 76 72v29h-99v171h192v-200c0 -102 -55 -153 -165 -153zM319 359h-27v81h22c51.333 0 77 24 77 72v29h-99v171h192v-200c0 -102 -55 -153 -165 -153z" />
    <glyph glyph-name="quotedblbase" unicode="&#x201e;" horiz-adv-x="566" 
d="M85 -182h-27v81h22c51.333 0 77 24 77 72v29h-100v171h192v-199c0 -102.667 -54.667 -154 -164 -154zM344 -182h-27v81h22c51.333 0 77 24 77 72v29h-99v171h192v-199c0 -102.667 -55 -154 -165 -154z" />
    <glyph glyph-name="dagger" unicode="&#x2020;" horiz-adv-x="662" 
d="M415 615l184 10v-152l-184 10v-588h-167v588l-186 -10v152l186 -10v235h167v-235z" />
    <glyph glyph-name="daggerdbl" unicode="&#x2021;" horiz-adv-x="662" 
d="M599 625v-152l-184 10v-219l184 10v-152l-184 10v-237h-167v237l-186 -10v152l186 -10v219l-186 -10v152l186 -10v235h167v-235z" />
    <glyph glyph-name="bullet" unicode="&#x2022;" horiz-adv-x="460" 
d="M397 134h-335v297h335v-297z" />
    <glyph glyph-name="ellipsis" unicode="&#x2026;" horiz-adv-x="919" 
d="M248 0h-193v171h193v-171zM556 0h-193v171h193v-171zM864 0h-193v171h193v-171z" />
    <glyph glyph-name="perthousand" unicode="&#x2030;" horiz-adv-x="1693" 
d="M410 336c-35.333 -39.333 -84.667 -59.002 -148 -59.002c-64 0 -113.333 20 -148 60c-34.667 38.667 -52 94.334 -52 167.001s17.333 128.334 52 167.001s84 58 148 58s113.333 -19.333 148 -58c34 -39.333 51 -95 51 -167c0 -73.333 -17 -129.333 -51 -168z
M427.999 -15.002h-124l470 742h123zM181.999 502.998c0 -84.667 26.667 -127 80 -127s80 42.333 80 127c0 84 -26.667 126 -80 126s-80 -42 -80 -126zM1092 43.998c-34.667 -40 -84 -60.001 -148 -60.001s-113 20 -147 60c-34.667 38.667 -52 94.334 -52 167.001
s17.333 128.334 52 167.001c34 38.667 83 58 147 58s113.333 -19.333 148 -58c34 -39.333 51 -95 51 -167c0 -72.667 -17 -128.334 -51 -167.001zM1432 -16.0029c-64 0 -113.334 19.833 -148.001 59.5s-52 95.5 -52 167.5s17.167 127.5 51.5 166.5s83.833 58.5 148.5 58.5
c64 0 113 -19.5 147 -58.5s51 -94.5 51 -166.5s-17.167 -127.833 -51.5 -167.5s-83.166 -59.5 -146.499 -59.5zM863.998 209.997c0 -84 26.667 -126 80 -126s80 42 80 126s-26.667 126 -80 126s-80 -42 -80 -126zM1432 83.9971c53.333 0 80 42 80 126s-26.667 126 -80 126
c-54 0 -81 -42 -81 -126s27 -126 81 -126z" />
    <glyph glyph-name="guilsinglleft" unicode="&#x2039;" horiz-adv-x="374" 
d="M319 160v-173l-264 191v158l264 190v-172l-142 -97z" />
    <glyph glyph-name="guilsinglright" unicode="&#x203a;" horiz-adv-x="374" 
d="M319 178l-264 -191v173l142 97l-142 97v172l264 -190v-158z" />
    <glyph glyph-name="uni203D" unicode="&#x203d;" horiz-adv-x="674" 
d="M327 729c100 0 176.168 -18.167 228.501 -54.5s78.5 -88.833 78.5 -157.5c0 -76 -36.667 -130.667 -110 -164l-38 -18c-34.667 -14.667 -59.834 -29.167 -75.501 -43.5s-25.5 -32.5 -29.5 -54.5h-104l-26 191v90h155v-88c36.667 16.667 55 41.667 55 75
c0 29.333 -10.5 50.666 -31.5 63.999s-54.833 20 -101.5 20c-48 0 -81.667 -7.16699 -101 -21.5s-30 -39.166 -32 -74.499h-163c6 157.333 104.333 236 295 236zM417.001 0h-177v167h177v-167z" />
    <glyph glyph-name="fraction" unicode="&#x2044;" horiz-adv-x="377" 
d="M16 -15h-124l471 742h122z" />
    <glyph glyph-name="zero.sups" unicode="&#x2070;" horiz-adv-x="471" 
d="M384 403c-34.667 -40 -84 -60.002 -148 -60.002s-113.333 20 -148 60c-34.667 38.667 -52 94.334 -52 167.001s17.333 128.334 52 167.001s84 58 148 58s113.333 -19.333 148 -58c34 -39.333 51 -95 51 -167s-17 -127.667 -51 -167zM236 441.998
c53.333 0 80 42.333 80 127c0 84 -26.667 126 -80 126c-54 0 -81 -42 -81 -126c0 -84.667 27 -127 81 -127z" />
    <glyph glyph-name="four.sups" unicode="&#x2074;" horiz-adv-x="458" 
d="M358 354h-109v87l-224 -6v91l203 255h130v-258l71 7v-95l-71 6v-87zM247 662l-108 -134l110 -5v139h-2z" />
    <glyph glyph-name="five.sups" unicode="&#x2075;" horiz-adv-x="471" 
d="M232 338c-44.667 0 -83.001 8.5 -115.001 25.5s-55.333 41.167 -70 72.5l110 32c12.667 -24 37.667 -36 75 -36c24 0 42.833 5 56.5 15s20.5 24.333 20.5 43c0 38.667 -25.333 58 -76 58c-28 0 -51.667 -7.66699 -71 -23l-105 21l43 235h295v-90h-217l-15 -76l2 -1
c28.667 13.333 60.334 20 95.001 20c50 0 89.333 -12.5 118 -37.5s43 -59.5 43 -103.5c0 -46.667 -17 -84.167 -51 -112.5s-80 -42.5 -138 -42.5z" />
    <glyph glyph-name="six.sups" unicode="&#x2076;" horiz-adv-x="487" 
d="M255 342c-66 0 -116.668 19.333 -152.001 58s-53 93.334 -53 164.001c0 73.333 17.167 130 51.5 170s85.833 60 154.5 60c84 0 141.333 -29.333 172 -88l-104 -27c-16 20 -39 30 -69 30s-52.333 -8.33301 -67 -25s-23 -45.334 -25 -86.001c27.333 27.333 66 41 116 41
s89.5 -12.833 118.5 -38.5s43.5 -60.5 43.5 -104.5c0 -46.667 -16.667 -84 -50 -112s-78.666 -42 -135.999 -42zM195.999 449c14.667 -12.667 33.667 -19 57 -19s42 6.33301 56 19c13.333 13.333 20 29.333 20 48c0 20 -7 35.833 -21 47.5s-32.333 17.5 -55 17.5
c-21.333 0 -39.5 -5.5 -54.5 -16.5s-24.167 -25.167 -27.5 -42.5c0.666992 -22.667 9 -40.667 25 -54z" />
    <glyph glyph-name="seven.sups" unicode="&#x2077;" horiz-adv-x="413" 
d="M228 355h-116c3.33301 122.667 51 232.667 143 330h-225v97h353v-94c-53.333 -49.333 -92 -99.333 -116 -150s-37 -111.667 -39 -183z" />
    <glyph glyph-name="eight.sups" unicode="&#x2078;" horiz-adv-x="496" 
d="M248 342c-62 0 -110.833 11.8311 -146.5 35.498s-53.5 56.834 -53.5 99.501c0 26.667 7.5 49.334 22.5 68.001s35.833 31.667 62.5 39v2c-44.667 17.333 -67 48 -67 92c0 36.667 15.833 65.167 47.5 85.5s76.5 30.5 134.5 30.5c57.333 0 102 -10.167 134 -30.5
s48 -48.833 48 -85.5c0 -45.333 -22 -76 -66 -92v-2c26 -7.33301 46.667 -20.5 62 -39.5s23 -41.5 23 -67.5c0 -42 -18 -75 -54 -99s-85 -36 -147 -36zM248 618.998c50 0 75 15.667 75 47c0 30.667 -25 46 -75 46c-49.333 0 -74 -15.333 -74 -46
c0 -31.333 24.667 -47 74 -47zM184 439.998c14.667 -10.667 36 -16 64 -16s49.667 5.33301 65 16c15.333 10 23 24.333 23 43c0 18 -7.66699 31.833 -23 41.5s-37 14.5 -65 14.5s-49.667 -4.83301 -65 -14.5s-23 -23.5 -23 -41.5c0 -18.667 8 -33 24 -43z" />
    <glyph glyph-name="nine.sups" unicode="&#x2079;" horiz-adv-x="487" 
d="M231 343c-84 0 -141.331 29.334 -171.998 88.001l104 27c16 -20 39 -30 69 -30c29.333 0 51.666 8.66699 66.999 26c14.667 16.667 23 45 25 85c-27.333 -27.333 -66 -41 -116 -41s-89.5 12.833 -118.5 38.5s-43.5 60.5 -43.5 104.5c0 46.667 16.667 84 50 112
s78.666 42 135.999 42c66 0 116.667 -19.333 152 -58s53 -93.334 53 -164.001c0 -73.333 -17.167 -130 -51.5 -170s-85.833 -60 -154.5 -60zM234.002 575.001c21.333 0 39.5 5.5 54.5 16.5s24.167 25.167 27.5 42.5c-1.33301 23.333 -9.33301 41.5 -24 54.5
s-34 19.5 -58 19.5c-23.333 0 -41.833 -6.33301 -55.5 -19s-20.5 -29 -20.5 -49s7 -35.833 21 -47.5s32.333 -17.5 55 -17.5z" />
    <glyph glyph-name="plus.sups" unicode="&#x207a;" horiz-adv-x="485" 
d="M294 596h157v-97h-157v-144h-104v144h-156v97h156v144h104v-144z" />
    <glyph glyph-name="minus.sups" unicode="&#x207b;" horiz-adv-x="484" 
d="M449 500h-415v97h415v-97z" />
    <glyph glyph-name="parenleft.sups" unicode="&#x207d;" horiz-adv-x="330" 
d="M293 213l-141 -0.000976562c-68.667 100.667 -103 211.334 -103 332.001c0 122 34.333 231.333 103 328h141c-58.667 -105.333 -88 -215.666 -88 -330.999c0 -114.667 29.333 -224.334 88 -329.001z" />
    <glyph glyph-name="parenright.sups" unicode="&#x207e;" horiz-adv-x="330" 
d="M177 213h-141c59.333 105.333 89 215 89 329c0 115.333 -29.667 225.666 -89 330.999h141c69.333 -99.333 104 -208.666 104 -327.999c0 -120 -34.667 -230.667 -104 -332z" />
    <glyph glyph-name="n.sups" unicode="&#x207f;" horiz-adv-x="515" 
d="M314 723c46 0 81.5 -11.333 106.5 -34s37.5 -55.667 37.5 -99v-235h-139v201c0 36 -18.333 54 -55 54c-20 0 -36.333 -6 -49 -18s-19 -27.667 -19 -47v-190h-139v357h127l4 -48c29.333 39.333 71.333 59 126 59z" />
    <glyph glyph-name="zero.subs" unicode="&#x2080;" horiz-adv-x="471" 
d="M384 -141c-35.333 -39.333 -84.668 -59.001 -148.001 -59.001s-112.666 19.667 -147.999 59c-34.667 39.333 -52 95.333 -52 168s17.333 128.334 52 167.001s84 58 148 58s113.333 -19.333 148 -58c34 -39.333 51 -95 51 -167s-17 -128 -51 -168zM235.998 -100.001
c53.333 0 80 42 80 126s-26.667 126 -80 126c-54 0 -81 -42 -81 -126s27 -126 81 -126z" />
    <glyph glyph-name="one.subs" unicode="&#x2081;" horiz-adv-x="305" 
d="M250 -184h-113v264h-110v85h25c58.667 0 88 22.667 88 68v10h110v-427z" />
    <glyph glyph-name="two.subs" unicode="&#x2082;" horiz-adv-x="472" 
d="M422 -184h-371.001c0 49.333 8.83301 89.833 26.5 121.5s46.5 56.167 86.5 73.5l93 41c34 14 51 33 51 57c0 32.667 -23 49 -69 49c-44.667 0 -70.334 -19 -77.001 -57l-107 8c4.66699 46 22.834 81.333 54.501 106s74.834 37 129.501 37c56 0 100 -12.333 132 -37
s48 -58.667 48 -102c0 -60 -35.667 -103.667 -107 -131l-86 -36c-24.667 -8.66699 -38 -20 -40 -34h236v-96z" />
    <glyph glyph-name="three.subs" unicode="&#x2083;" horiz-adv-x="475" 
d="M236 -200c-56 0 -99.834 12.1689 -131.501 36.502s-49.834 59.5 -54.501 105.5l107 8c7.33301 -39.333 34 -59 80 -59c49.333 0 74 16.667 74 50c0 31.333 -24.667 47 -74 47h-45v89h44c44 0 66 14 66 42c0 14.667 -6.16699 26 -18.5 34s-29.166 12 -50.499 12
c-41.333 0 -66 -16.667 -74 -50l-106 8c6.66699 41.333 25.834 73.166 57.501 95.499s73.5 33.5 125.5 33.5c52.667 0 95 -11 127 -33s48 -51.667 48 -89c0 -42.667 -23 -72.667 -69 -90v-1c56.667 -16.667 85 -51.334 85 -104.001c0 -42 -16.833 -75 -50.5 -99
s-80.5 -36 -140.5 -36z" />
    <glyph glyph-name="four.subs" unicode="&#x2084;" horiz-adv-x="458" 
d="M358 -184h-109v87l-224 -6v91l203 255h130v-258l71 7v-95l-71 6v-87zM247 123l-108 -133l110 -5v138h-2z" />
    <glyph glyph-name="five.subs" unicode="&#x2085;" horiz-adv-x="471" 
d="M232 -200c-44.667 0 -83.001 8.5 -115.001 25.5s-55.333 41.167 -70 72.5l110 31c14 -23.333 39 -35 75 -35c24 0 42.833 5 56.5 15s20.5 24.333 20.5 43c0 38.667 -25.333 58 -76 58c-27.333 0 -51 -8 -71 -24l-105 22l43 235h295v-91h-217l-15 -75l2 -1
c28.667 13.333 60.334 20 95.001 20c50 0 89.333 -12.5 118 -37.5s43 -59.5 43 -103.5c0 -46.667 -17 -84.167 -51 -112.5s-80 -42.5 -138 -42.5z" />
    <glyph glyph-name="six.subs" unicode="&#x2086;" horiz-adv-x="487" 
d="M255 -200c-66 0 -116.668 19.333 -152.001 58s-53 93 -53 163c0 73.333 17.167 130.166 51.5 170.499s85.833 60.5 154.5 60.5c84 0 141.333 -29.333 172 -88l-104 -28c-16 20.667 -39 31 -69 31s-52.333 -8.66699 -67 -26s-23 -45.666 -25 -84.999
c29.333 27.333 68 41 116 41c50 0 89.5 -13 118.5 -39s43.5 -60.667 43.5 -104c0 -46.667 -16.667 -84 -50 -112s-78.666 -42 -135.999 -42zM252.999 -113c23.333 0 41.833 6.16699 55.5 18.5s20.5 28.833 20.5 49.5c0 19.333 -7 34.833 -21 46.5s-32.333 17.5 -55 17.5
c-21.333 0 -39.5 -5.5 -54.5 -16.5s-24.167 -24.833 -27.5 -41.5c1.33301 -23.333 9.33301 -41.5 24 -54.5s34 -19.5 58 -19.5z" />
    <glyph glyph-name="seven.subs" unicode="&#x2087;" horiz-adv-x="413" 
d="M228 -184h-116c3.33301 122.667 51 232.667 143 330h-225v97h353v-94c-53.333 -49.333 -92 -99.333 -116 -150s-37 -111.667 -39 -183z" />
    <glyph glyph-name="eight.subs" unicode="&#x2088;" horiz-adv-x="496" 
d="M248 -200c-62 0 -110.833 11.834 -146.5 35.501s-53.5 56.834 -53.5 99.501c0 26 7.5 48.333 22.5 67s35.833 31.667 62.5 39v3c-44.667 16.667 -67 47 -67 91c0 37.333 15.833 66.166 47.5 86.499s76.5 30.5 134.5 30.5c57.333 0 102 -10.333 134 -31
s48 -49.334 48 -86.001c0 -46 -22 -76.333 -66 -91v-3c26 -7.33301 46.667 -20.333 62 -39s23 -41 23 -67c0 -42 -18 -75 -54 -99s-85 -36 -147 -36zM248 77.001c50 0 75 15.333 75 46s-25 46 -75 46c-49.333 0 -74 -15.333 -74 -46s24.667 -46 74 -46zM184 -102.999
c14.667 -10 36 -15 64 -15c27.333 0 49 5 65 15c15.333 11.333 23 26 23 44c0 36.667 -29.333 55 -88 55s-88 -18.333 -88 -55c0 -18 8 -32.667 24 -44z" />
    <glyph glyph-name="nine.subs" unicode="&#x2089;" horiz-adv-x="487" 
d="M231 -200c-84 0 -141.332 29.333 -171.999 88l104 28c16 -20.667 39 -31 69 -31s52.333 8.66699 67 26s23 45.666 25 84.999c-29.333 -27.333 -68 -41 -116 -41c-50 0 -89.5 13 -118.5 39s-43.5 60.667 -43.5 104c0 46.667 16.667 84 50 112s78.666 42 135.999 42
c66 0 116.667 -19.333 152 -58s53 -93 53 -163c0 -73.333 -17.167 -130.166 -51.5 -170.499s-85.833 -60.5 -154.5 -60.5zM234.001 33c21.333 0 39.5 5.5 54.5 16.5s24.167 24.833 27.5 41.5c-1.33301 23.333 -9.33301 41.5 -24 54.5s-34 19.5 -58 19.5
c-23.333 0 -41.833 -6.16699 -55.5 -18.5s-20.5 -28.833 -20.5 -49.5c0 -19.333 7 -34.833 21 -46.5s32.333 -17.5 55 -17.5z" />
    <glyph glyph-name="plus.subs" unicode="&#x208a;" horiz-adv-x="485" 
d="M294 88h157v-97h-157v-144h-104v144h-156v97h156v145h104v-145z" />
    <glyph glyph-name="minus.subs" unicode="&#x208b;" horiz-adv-x="484" 
d="M449 -8h-415v97h415v-97z" />
    <glyph glyph-name="equal.subs" unicode="&#x208c;" horiz-adv-x="484" 
d="M449 86h-415v96h415v-96zM449 -104h-415v97h415v-97z" />
    <glyph glyph-name="uni208D" unicode="&#x208d;" horiz-adv-x="330" 
d="M293 -325l-141 -0.000976562c-68.667 100.667 -103 211 -103 331c0 122 34.333 231.333 103 328h141c-58.667 -105.333 -88 -215.666 -88 -330.999c0 -114 29.333 -223.333 88 -328z" />
    <glyph glyph-name="uni208E" unicode="&#x208e;" horiz-adv-x="330" 
d="M177 -325h-141c59.333 105.333 89 214.666 89 327.999c0 115.333 -29.667 225.666 -89 330.999h141c69.333 -99.333 104 -208.666 104 -327.999s-34.667 -229.666 -104 -330.999z" />
    <glyph glyph-name="n.subs" unicode="&#x2099;" horiz-adv-x="515" 
d="M314 185c46 0 81.5 -11.5 106.5 -34.5s37.5 -56.167 37.5 -99.5v-235h-139v201c0 36 -18.333 54 -55 54c-20 0 -36.333 -5.83301 -49 -17.5s-19 -27.167 -19 -46.5v-191h-139v358h127l4 -48c29.333 39.333 71.333 59 126 59z" />
    <glyph glyph-name="Euro" unicode="&#x20ac;" 
d="M535 588c-88 0 -145.335 -30.332 -172.002 -90.999h298v-100h-321c-0.666992 -6 -1 -20.333 -1 -43c0 -20.667 0.333008 -34 1 -40h321v-99h-300c26.667 -62.667 84.667 -94 174 -94c38.667 0 80.667 5.66699 126 17v-140c-45.333 -10.667 -92.666 -16 -141.999 -16
c-83.333 0 -154.333 20.333 -213 61s-99.667 98 -123 172h-116v99h98c-1.33301 22.667 -2 36 -2 40c0 3.33301 0.666992 17.666 2 42.999h-98v100h117c23.333 73.333 64.333 130.333 123 171s129.334 61 212.001 61c44 0 91.333 -5.66699 142 -17v-139
c-47.333 10 -89.333 15 -126 15z" />
    <glyph glyph-name="uni20B8" unicode="&#x20b8;" horiz-adv-x="645" 
d="M20 560v152h605v-152h-605zM230 314h-210v153h605v-153h-208v-314h-187v314z" />
    <glyph glyph-name="uni20B9" unicode="&#x20b9;" 
d="M661 712l-0.000976562 -97.002h-185c16.667 -19.333 27.334 -44 32.001 -74h153v-98h-157c-16.667 -56.667 -63 -95 -139 -115c44 -5.33301 75.333 -16.666 94 -33.999c19.333 -19.333 35.333 -50.666 48 -93.999l58 -200h-196l-39 164c-10 40 -22.667 66.667 -38 80
c-16 12 -45.333 18 -88 18h-136v108h139c34.667 0 61 5.66699 79 17s29.667 30 35 56h-253v98h254c-4.66699 26.667 -15.167 45.667 -31.5 57s-40.833 17 -73.5 17h-149v97h593z" />
    <glyph glyph-name="uni20BA" unicode="&#x20ba;" 
d="M521 289l172.001 -9c-10 -90.667 -42.833 -160 -98.5 -208s-130.834 -72 -225.501 -72h-219v183l-115 -57v117l115 57v86l-115 -57v118l115 57v208h186v-116l195 97v-118l-195 -97v-86l195 97v-117l-195 -97v-119h23c49.333 0 87 10.5 113 31.5s42.333 54.833 49 101.5z
" />
    <glyph glyph-name="uni20BC" unicode="&#x20bc;" 
d="M442 526h3c162 0 243 -81 243 -243v-283h-157v291c0 34.667 -7 60.334 -21 77.001s-36.667 26 -68 28v-316h-156v316c-32 -2.66699 -54.833 -12.334 -68.5 -29.001s-20.5 -42 -20.5 -76v-291h-157v283c0 162 82 243 246 243v186h156v-186z" />
    <glyph glyph-name="uni20BF" unicode="&#x20bf;" 
d="M664 211c0 -49.333 -14.167 -91.833 -42.5 -127.5s-67.833 -60.167 -118.5 -73.5v-152h-125v142h-82v-142h-126v142h-82v712h82v138h126v-138h82v138h125v-150c42 -12 74.833 -32.5 98.5 -61.5s35.5 -64.167 35.5 -105.5c0 -73.333 -33.333 -121.333 -100 -144
c39.333 -12 70.333 -34 93 -66s34 -69.333 34 -112zM464 503c0 18.667 -6.33301 33.667 -19 45s-30.667 17 -54 17h-131v-126h128c24.667 0 43.5 5.66699 56.5 17s19.5 27 19.5 47zM260 152l138 -0.000976562c29.333 0 52 6.83301 68 20.5s24 32.834 24 57.501
c0 24 -7.5 42.833 -22.5 56.5s-36.5 20.5 -64.5 20.5h-143v-155z" />
    <glyph glyph-name="uni2105" unicode="&#x2105;" horiz-adv-x="1194" 
d="M273 345c-62 0 -112.666 17.668 -151.999 53.001s-59 81.666 -59 138.999c0 58 19 104.5 57 139.5s88.667 52.5 152 52.5c54 0 99.5 -12.667 136.5 -38s59.167 -59 66.5 -101l-137 -13c-6.66699 34.667 -28.334 52 -65.001 52c-46 0 -69 -30.667 -69 -92s23 -92 69 -92
c36 0 57.333 19.333 64 58l138 -10c-7.33301 -46 -28.833 -82.167 -64.5 -108.5s-81.167 -39.5 -136.5 -39.5zM427.001 -14.999h-125l471 742h122zM1076 34.001c-37.333 -33.333 -89.668 -50 -157.001 -50s-119.666 16.667 -156.999 50s-56 79.666 -56 138.999
s19 105.666 57 138.999c37.333 33.333 89.333 50 156 50c66 0 118.333 -16.667 157 -50c37.333 -33.333 56 -79.666 56 -138.999s-18.667 -105.666 -56 -138.999zM843.999 173.001c0 -62 25 -93 75 -93s75 31 75 93c0 62.667 -25 94 -75 94s-75 -31.333 -75 -94z" />
    <glyph glyph-name="uni2113" unicode="&#x2113;" horiz-adv-x="580" 
d="M357 114c33.333 0 70.668 13.667 112.001 41l56 -106c-64.667 -43.333 -132 -65 -202 -65c-54.667 0 -98.834 14 -132.501 42s-50.5 67.333 -50.5 118v27l-85 -32l-40 122l125 35v252c0 57.333 16.833 101.166 50.5 131.499s82.167 45.5 145.5 45.5
c138 0 207 -69 207 -207c0 -81.333 -19 -144.666 -57 -189.999s-99.333 -80.333 -184 -105v-55c0 -36 18.333 -54 55 -54zM343.002 600c-27.333 0 -41 -15.999 -41 -47.999v-199c35.333 18 59.333 38.5 72 61.5s19 54.833 19 95.5c0 31.333 -4 54.166 -12 68.499
s-20.667 21.5 -38 21.5z" />
    <glyph glyph-name="uni2116" unicode="&#x2116;" horiz-adv-x="1226" 
d="M985 724c67.333 0 119.667 -16.667 157 -50s56 -79.666 56 -138.999c0 -58.667 -18.667 -104.667 -56 -138c-38.667 -33.333 -91 -50 -157 -50c-66.667 0 -118.667 16.667 -156 50s-56 79.333 -56 138c0 59.333 18.667 105.666 56 138.999s89.333 50 156 50zM247.001 712
l250 -414v414h184v-712h-187l-247 412v-412h-185v712h185zM985.001 442c50.667 0 76 31 76 93c0 62.667 -25.333 94 -76 94c-50 0 -75 -31.333 -75 -94c0 -30 6.5 -53 19.5 -69s31.5 -24 55.5 -24z" />
    <glyph glyph-name="uni2117" unicode="&#x2117;" horiz-adv-x="842" 
d="M148 630c70.667 70.667 161.668 105.998 273.001 105.998s202.666 -35.333 273.999 -106c71.333 -71.333 107 -161.666 107 -270.999s-35.667 -199.666 -107 -270.999c-72.667 -71.333 -164 -107 -274 -107c-110.667 0 -201.667 35.667 -273 107
c-72 70.667 -108 161 -108 271s36 200.333 108 271zM218.001 150.998c53.333 -54 121 -80.998 203 -80.998c83.333 0 151.333 27 204 81c52.667 53.333 79 122.666 79 207.999c0 84 -26.333 152.667 -79 206c-52.667 54 -120.667 81 -204 81c-82 0 -149.667 -27 -203 -81
c-53.333 -54.667 -80 -123.334 -80 -206.001c0 -84 26.667 -153.333 80 -208zM291.001 552h165c44 0 78.667 -12.167 104 -36.5s38 -56.833 38 -97.5c0 -41.333 -13 -74 -39 -98s-61.667 -36 -107 -36h-59v-112h-102v380zM393.001 369h51c35.333 0 53 16.333 53 49
c0 32 -17.333 48 -52 48h-52v-97z" />
    <glyph glyph-name="trademark" unicode="&#x2122;" horiz-adv-x="1026" 
d="M266 327h-119v289h-118v96h353v-96h-116v-289zM550 327h-100v385h190l64 -288h14l63 288h190v-385h-101v294h-14l-65 -294h-160l-66 294h-15v-294z" />
    <glyph glyph-name="uni2126" unicode="&#x2126;" horiz-adv-x="801" 
d="M365 0l-325 0.000976562v152h135v2c-87.333 63.333 -131 149 -131 257c0 94 31.667 170.667 95 230c62.667 58.667 149.667 88 261 88c112 0 199.333 -29 262 -87c62.667 -58.667 94 -135.667 94 -231c0 -108.667 -43 -194.334 -129 -257.001v-2h134v-152h-323v138
c88 45.333 132 124.333 132 237c0 69.333 -14.667 121.5 -44 156.5s-71.333 52.5 -126 52.5c-54 0 -95.667 -17.667 -125 -53s-44 -87.333 -44 -156c0 -112.667 44.667 -191.667 134 -237v-138z" />
    <glyph glyph-name="estimated" unicode="&#x212e;" horiz-adv-x="912" 
d="M160 624c73.333 70 171.998 105.002 295.998 105.002s222.667 -37 296 -111c72.667 -73.333 109 -164 109 -272h-647c-9.33301 0 -14 -4.33301 -14 -13v-176c0 -20.667 5.33301 -36.334 16 -47.001c66 -64 146 -96 240 -96c50 0 97.5 10.5 142.5 31.5
s81.833 49.167 110.5 84.5h73c-29.333 -42 -72.166 -76.333 -128.499 -103s-122.166 -40 -197.499 -40c-120.667 0 -218.667 34.667 -294 104c-74.667 68.667 -112 157 -112 265c0 107.333 36.667 196.666 110 267.999zM455.998 701.002c-94 0 -174 -33 -240 -99
c-10.667 -10 -16 -24.333 -16 -43v-176c0 -8.66699 4.66699 -13 14 -13h482c9.33301 0 14 4.33301 14 13v176c0 18.667 -5.33301 33 -16 43c-66 66 -145.333 99 -238 99z" />
    <glyph glyph-name="uni2153" unicode="&#x2153;" horiz-adv-x="1147" 
d="M349 -15h-124l470 742h122zM285 288h-113v265h-110v84h25c58.667 0 88 23 88 69v9h110v-427zM893 -16c-56 0 -99.834 12.1689 -131.501 36.502s-49.834 59.5 -54.501 105.5l107 8c7.33301 -39.333 34 -59 80 -59c49.333 0 74 16.667 74 50c0 31.333 -24.667 47 -74 47
h-45v89h44c44 0 66 14 66 42c0 14.667 -6.16699 26 -18.5 34s-29.166 12 -50.499 12c-41.333 0 -66 -16.667 -74 -50l-106 8c6.66699 41.333 25.834 73.166 57.501 95.499s73.5 33.5 125.5 33.5c52.667 0 95 -11 127 -33s48 -51.667 48 -89c0 -44 -23 -74 -69 -90v-1
c56.667 -16.667 85 -51.334 85 -104.001c0 -42 -16.833 -75 -50.5 -99s-80.5 -36 -140.5 -36z" />
    <glyph glyph-name="uni2154" unicode="&#x2154;" horiz-adv-x="1292" 
d="M494 -15h-124l470 742h123zM434 288l-370.999 -0.00195312c0 50.667 8.83301 91.834 26.5 123.501s46.5 55.5 86.5 71.5l93 41c34.667 14.667 52 33.667 52 57c0 14.667 -6 26.5 -18 35.5s-29 13.5 -51 13.5c-44 0 -69.667 -19 -77 -57l-107 9
c9.33301 94.667 70.666 142 183.999 142c56 0 100 -12.333 132 -37s48 -58.667 48 -102c0 -61.333 -35.667 -104.666 -107 -129.999l-87 -37c-24 -6.66699 -37 -18 -39 -34h235v-96zM1038 -16.002c-55.333 0 -98.835 12.1689 -130.502 36.502s-50.167 59.5 -55.5 105.5
l107 8c4 -20.667 12.333 -35.667 25 -45s31 -14 55 -14c49.333 0 74 16.667 74 50c0 31.333 -24.667 47 -74 47h-45v89h45c43.333 0 65 14 65 42c0 14.667 -6.16699 26 -18.5 34s-29.166 12 -50.499 12c-40 0 -64.667 -16.667 -74 -50l-106 8
c6.66699 41.333 26 73.166 58 95.499s74 33.5 126 33.5c52.667 0 94.834 -11 126.501 -33s47.5 -51.667 47.5 -89c0 -44 -23 -74 -69 -90v-1c56.667 -16.667 85 -51.334 85 -104.001c0 -42 -16.833 -75 -50.5 -99s-80.5 -36 -140.5 -36z" />
    <glyph glyph-name="uni2155" unicode="&#x2155;" horiz-adv-x="1158" 
d="M349 -15h-124l470 742h122zM285 288h-113v265h-110v84h25c58.667 0 88 23 88 69v9h110v-427zM906 -16c-44.667 0 -83.001 8.5 -115.001 25.5s-55.333 41.167 -70 72.5l110 31c15.333 -23.333 40.333 -35 75 -35c24 0 42.833 5 56.5 15s20.5 24.333 20.5 43
c0 38.667 -25.333 58 -76 58c-27.333 0 -51 -8 -71 -24l-105 22l43 235h296v-91h-218l-15 -75l2 -1c28.667 13.333 60.334 20 95.001 20c50 0 89.333 -12.5 118 -37.5s43 -59.5 43 -103.5c0 -46.667 -17 -84.167 -51 -112.5s-80 -42.5 -138 -42.5z" />
    <glyph glyph-name="uni2156" unicode="&#x2156;" horiz-adv-x="1293" 
d="M484 -15h-124l470 742h123zM434 288l-370.999 -0.00195312c0 50.667 8.83301 91.834 26.5 123.501s46.5 55.5 86.5 71.5l93 41c34.667 14.667 52 33.667 52 57c0 14.667 -6 26.5 -18 35.5s-29 13.5 -51 13.5c-44 0 -69.667 -19 -77 -57l-107 9
c9.33301 94.667 70.666 142 183.999 142c56 0 100 -12.333 132 -37s48 -58.667 48 -102c0 -61.333 -35.667 -104.666 -107 -129.999l-87 -37c-24 -6.66699 -37 -18 -39 -34h235v-96zM1041 -16.002c-92 0 -153.668 32.667 -185.001 98l110 31
c15.333 -23.333 40.333 -35 75 -35c24 0 43 5 57 15s21 24.333 21 43s-6.83301 33 -20.5 43s-32.5 15 -56.5 15c-27.333 0 -51 -8 -71 -24l-105 22l43 235h296v-91h-218l-15 -75l2 -1c28.667 13.333 60.334 20 95.001 20c50 0 89.5 -12.5 118.5 -37.5
s43.5 -59.5 43.5 -103.5c0 -46.667 -17 -84.167 -51 -112.5s-80.333 -42.5 -139 -42.5z" />
    <glyph glyph-name="uni2157" unicode="&#x2157;" horiz-adv-x="1266" 
d="M249 277c-56 0 -99.834 12.002 -131.501 36.002s-50.167 59 -55.5 105l108 8c7.33301 -39.333 34 -59 80 -59c49.333 0 74 17 74 51c0 30.667 -24.667 46 -74 46h-45v89h44c44 0 66 14.333 66 43c0 14 -6.16699 25 -18.5 33s-29.166 12 -50.499 12
c-42 0 -66.667 -16.667 -74 -50l-107 9c6.66699 41.333 26 73.166 58 95.499s74 33.5 126 33.5c52.667 0 95 -11 127 -33s48 -51.667 48 -89c0 -44.667 -23 -74.667 -69 -90v-2c56.667 -16.667 85 -51.334 85 -104.001c0 -40.667 -17 -73.167 -51 -97.5
s-80.667 -36.5 -140 -36.5zM456.999 -14.998h-124l470 742h122zM1014 -15.998c-92 0 -153.668 32.667 -185.001 98l110 31c15.333 -23.333 40.333 -35 75 -35c24 0 42.833 5 56.5 15s20.5 24.333 20.5 43c0 38.667 -25.333 58 -76 58c-27.333 0 -51 -8 -71 -24l-105 22
l43 235h296v-91h-218l-15 -75l2 -1c28.667 13.333 60.334 20 95.001 20c50 0 89.5 -12.5 118.5 -37.5s43.5 -59.5 43.5 -103.5c0 -46.667 -17 -84.167 -51 -112.5s-80.333 -42.5 -139 -42.5z" />
    <glyph glyph-name="uni2158" unicode="&#x2158;" horiz-adv-x="1305" 
d="M496 -15h-124l471 742h122zM395 288h-109v87l-224 -6v91l204 255h129v-258l71 7v-95l-71 6v-87zM284 596l-107 -134l109 -5v139h-2zM1053 -16c-92 0 -153.668 32.667 -185.001 98l111 31c14 -23.333 38.667 -35 74 -35c24.667 0 43.834 5 57.501 15s20.5 24.333 20.5 43
c0 38.667 -25.333 58 -76 58c-28.667 0 -52.334 -8 -71.001 -24l-105 22l43 235h295v-91h-217l-15 -75l2 -1c28 13.333 59.333 20 94 20c50.667 0 90.334 -12.5 119.001 -37.5s43 -59.5 43 -103.5c0 -46.667 -17 -84.167 -51 -112.5s-80.333 -42.5 -139 -42.5z" />
    <glyph glyph-name="uni2159" unicode="&#x2159;" horiz-adv-x="1145" 
d="M349 -15h-124l470 742h122zM285 288h-113v265h-110v84h25c58.667 0 88 23 88 69v9h110v-427zM896 -16c-66 0 -116.668 19.333 -152.001 58s-53 93 -53 163c0 73.333 17.167 130.166 51.5 170.499s85.833 60.5 154.5 60.5c84 0 141.333 -29.333 172 -88l-104 -28
c-14.667 20.667 -37.667 31 -69 31c-30 0 -52.333 -8.66699 -67 -26s-23 -45.666 -25 -84.999c29.333 27.333 68 41 116 41c50 0 89.5 -13 118.5 -39s43.5 -60.667 43.5 -104c0 -46.667 -16.667 -84 -50 -112s-78.666 -42 -135.999 -42zM893.999 71
c23.333 0 41.833 6.16699 55.5 18.5s20.5 28.833 20.5 49.5c0 19.333 -7 34.833 -21 46.5s-32.333 17.5 -55 17.5c-21.333 0 -39.333 -5.33301 -54 -16s-24 -24.667 -28 -42c1.33301 -23.333 9.33301 -41.5 24 -54.5s34 -19.5 58 -19.5z" />
    <glyph glyph-name="uni215A" unicode="&#x215a;" horiz-adv-x="1245" 
d="M449 -15h-124l470 742h122zM245 272c-92 0 -153.668 32.666 -185.001 97.999l111 31c14 -23.333 38.667 -35 74 -35c24.667 0 43.834 5 57.501 15s20.5 24.333 20.5 43s-6.66699 33 -20 43s-32 15 -56 15c-28 0 -51.667 -8 -71 -24l-106 22l44 235h295v-90h-217l-15 -76
l2 -1c30 13.333 61.333 20 94 20c50 0 89.5 -12.667 118.5 -38s43.5 -59.666 43.5 -102.999c0 -46.667 -17 -84.167 -51 -112.5s-80.333 -42.5 -139 -42.5zM996.999 -16.001c-66 0 -116.833 19.333 -152.5 58s-53.5 93 -53.5 163c0 73.333 17.167 130.166 51.5 170.499
s85.833 60.5 154.5 60.5c84 0 141.333 -29.333 172 -88l-104 -28c-14.667 20.667 -37.667 31 -69 31c-30 0 -52.333 -8.66699 -67 -26s-23 -45.666 -25 -84.999c29.333 27.333 68 41 116 41c50 0 89.5 -13 118.5 -39s43.5 -60.667 43.5 -104c0 -46.667 -16.5 -84 -49.5 -112
s-78.167 -42 -135.5 -42zM993.999 70.999c23.333 0 42 6.33301 56 19s21 29 21 49c0 19.333 -7 34.833 -21 46.5s-32.333 17.5 -55 17.5c-22 0 -40.333 -5.16699 -55 -15.5s-24 -24.5 -28 -42.5c2 -23.333 10.333 -41.5 25 -54.5s33.667 -19.5 57 -19.5z" />
    <glyph glyph-name="oneeighth" unicode="&#x215b;" horiz-adv-x="1168" 
d="M349 -15h-124l470 742h122zM285 288h-113v265h-110v84h25c58.667 0 88 23 88 69v9h110v-427zM904 -16c-62 0 -110.832 11.834 -146.499 35.501s-53.5 56.834 -53.5 99.501c0 26 7.5 48.333 22.5 67s35.833 31.667 62.5 39v3c-20.667 8 -37 19.833 -49 35.5
s-18 34.167 -18 55.5c0 37.333 15.833 66.166 47.5 86.499s76.5 30.5 134.5 30.5c57.333 0 102.166 -10.333 134.499 -31s48.5 -49.334 48.5 -86.001c0 -22 -6.16699 -41 -18.5 -57s-28.5 -27.333 -48.5 -34v-3c26 -7.33301 46.667 -20.333 62 -39s23 -41 23 -67
c0 -42 -18 -75 -54 -99s-85 -36 -147 -36zM904.001 261.001c50 0 75 15.333 75 46s-25 46 -75 46c-49.333 0 -74 -15.333 -74 -46s24.667 -46 74 -46zM840.001 82.001c14.667 -10.667 36 -16 64 -16s49.667 5.33301 65 16c15.333 10 23 24.333 23 43
c0 36.667 -29.333 55 -88 55s-88 -18.333 -88 -55c0 -18.667 8 -33 24 -43z" />
    <glyph glyph-name="threeeighths" unicode="&#x215c;" horiz-adv-x="1276" 
d="M249 277c-56 0 -99.834 12.002 -131.501 36.002s-50.167 59 -55.5 105l108 8c7.33301 -39.333 34 -59 80 -59c49.333 0 74 17 74 51c0 30.667 -24.667 46 -74 46h-45v89h44c44 0 66 14.333 66 43c0 14 -6.16699 25 -18.5 33s-29.166 12 -50.499 12
c-42 0 -66.667 -16.667 -74 -50l-107 9c6.66699 41.333 26 73.166 58 95.499s74 33.5 126 33.5c52.667 0 95 -11 127 -33s48 -51.667 48 -89c0 -44.667 -23 -74.667 -69 -90v-2c56.667 -16.667 85 -51.334 85 -104.001c0 -40.667 -17 -73.167 -51 -97.5
s-80.667 -36.5 -140 -36.5zM456.999 -14.998h-124l470 742h122zM1013 -15.998c-62 0 -111.001 12.002 -147.001 36.002s-54 57 -54 99c0 26 7.5 48.333 22.5 67s35.833 31.667 62.5 39v3c-20.667 8 -37 19.833 -49 35.5s-18 34.167 -18 55.5
c0 37.333 15.833 66.166 47.5 86.499s76.834 30.5 135.501 30.5c57.333 0 102 -10.333 134 -31s48 -49.334 48 -86.001c0 -22 -6.16699 -41 -18.5 -57s-28.5 -27.333 -48.5 -34v-3c26 -7.33301 46.667 -20.333 62 -39s23 -41 23 -67c0 -42 -17.833 -75 -53.5 -99
s-84.5 -36 -146.5 -36zM1013 261.004c49.333 0 74 15.333 74 46s-24.667 46 -74 46c-50 0 -75 -15.333 -75 -46s25 -46 75 -46zM947.998 82.0039c15.333 -10.667 37 -16 65 -16s49.667 5.33301 65 16c15.333 10 23 24.333 23 43c0 36.667 -29.333 55 -88 55
c-59.333 0 -89 -18.333 -89 -55c0 -18.667 8 -33 24 -43z" />
    <glyph glyph-name="fiveeighths" unicode="&#x215d;" horiz-adv-x="1268" 
d="M449 -15h-124l470 742h122zM245 272c-92 0 -153.668 32.666 -185.001 97.999l111 31c14 -23.333 38.667 -35 74 -35c24.667 0 43.834 5 57.501 15s20.5 24.333 20.5 43s-6.66699 33 -20 43s-32 15 -56 15c-28 0 -51.667 -8 -71 -24l-106 22l44 235h295v-90h-217l-15 -76
l2 -1c30 13.333 61.333 20 94 20c50 0 89.5 -12.667 118.5 -38s43.5 -59.666 43.5 -102.999c0 -46.667 -17 -84.167 -51 -112.5s-80.333 -42.5 -139 -42.5zM1005 -16.001c-62 0 -111 12.002 -147 36.002s-54 57 -54 99c0 26 7.5 48.333 22.5 67s35.833 31.667 62.5 39v3
c-20.667 8 -37 19.833 -49 35.5s-18 34.167 -18 55.5c0 37.333 16 66.166 48 86.499s77 30.5 135 30.5c57.333 0 102 -10.333 134 -31s48 -49.334 48 -86.001c0 -22 -6.16699 -41 -18.5 -57s-28.5 -27.333 -48.5 -34v-3c26 -7.33301 46.667 -20.333 62 -39s23 -41 23 -67
c0 -42 -17.833 -75 -53.5 -99s-84.5 -36 -146.5 -36zM1005 261.001c49.333 0 74 15.333 74 46s-24.667 46 -74 46c-50 0 -75 -15.333 -75 -46s25 -46 75 -46zM939.999 82.001c15.333 -10.667 37 -16 65 -16s49.667 5.33301 65 16c15.333 10 23 24.333 23 43
c0 36.667 -29.333 55 -88 55c-59.333 0 -89 -18.333 -89 -55c0 -18.667 8 -33 24 -43z" />
    <glyph glyph-name="seveneighths" unicode="&#x215e;" horiz-adv-x="1167" 
d="M348 -15h-124l470 742h123zM260 288h-116c4 124 52 234.333 144 331h-226v96h354v-93c-53.333 -49.333 -92 -99.333 -116 -150s-37.333 -112 -40 -184zM904 -16c-62 0 -111 12.002 -147 36.002s-54 57 -54 99c0 26 7.66699 48.333 23 67s36 31.667 62 39v3
c-20.667 8 -37 19.833 -49 35.5s-18 34.167 -18 55.5c0 37.333 16 66.166 48 86.499s77 30.5 135 30.5c57.333 0 102 -10.333 134 -31s48 -49.334 48 -86.001c0 -22 -6.16699 -41 -18.5 -57s-28.5 -27.333 -48.5 -34v-3c26 -7.33301 46.667 -20.333 62 -39s23 -41 23 -67
c0 -42 -17.833 -75 -53.5 -99s-84.5 -36 -146.5 -36zM904 261.002c49.333 0 74 15.333 74 46s-24.667 46 -74 46c-50 0 -75 -15.333 -75 -46s25 -46 75 -46zM839 82.002c15.333 -10.667 37 -16 65 -16s49.667 5.33301 65 16c15.333 10 23 24.333 23 43
c0 36.667 -29.333 55 -88 55c-59.333 0 -89 -18.333 -89 -55c0 -18.667 8 -33 24 -43z" />
    <glyph glyph-name="arrowleft" unicode="&#x2190;" horiz-adv-x="809" 
d="M280 437h489v-164h-487l88 -108l124 -165h-185l-269 356l269 356h185l-124 -165z" />
    <glyph glyph-name="arrowup" unicode="&#x2191;" horiz-adv-x="792" 
d="M40 460l356 269l356 -269v-185l-165 124l-106 86v-485h-172v484l-104 -85l-165 -124v185z" />
    <glyph glyph-name="arrowright" unicode="&#x2192;" horiz-adv-x="809" 
d="M315 712h185l269 -356l-269 -356h-185l124 165l88 108h-487v164h489l-90 110z" />
    <glyph glyph-name="arrowdown" unicode="&#x2193;" horiz-adv-x="792" 
d="M481 227l106 86l165 124v-185l-356 -269l-356 269v185l165 -124l104 -85v484h172v-485z" />
    <glyph glyph-name="arrowboth" unicode="&#x2194;" horiz-adv-x="1177" 
d="M683 712h185l269 -356l-269 -356h-185l124 165l88 108h-613l88 -108l124 -165h-185l-269 356l269 356h185l-124 -165l-90 -110h617l-90 110z" />
    <glyph glyph-name="arrowupdn" unicode="&#x2195;" horiz-adv-x="792" 
d="M752 451l-165 124l-110 90v-618l110 90l165 124v-185l-356 -269l-356 269v185l165 -124l108 -88v614l-108 -88l-165 -124v185l356 269l356 -269v-185z" />
    <glyph glyph-name="uni2196" unicode="&#x2196;" horiz-adv-x="735" 
d="M299 520l416 -404l-117 -116l-410 405l7 -174v-174h-155v611h617v-155h-180z" />
    <glyph glyph-name="uni2197" unicode="&#x2197;" horiz-adv-x="735" 
d="M78 513v155h617v-611h-155v174l7 174l-410 -405l-117 116l416 404l-178 -7h-180z" />
    <glyph glyph-name="uni2198" unicode="&#x2198;" horiz-adv-x="735" 
d="M540 437v174h155v-611h-617v155h180l178 -7l-416 404l117 116l410 -405z" />
    <glyph glyph-name="uni2199" unicode="&#x2199;" horiz-adv-x="735" 
d="M715 552l-416 -404l178 7h180v-155h-617v611h155v-174l-7 -174l410 405z" />
    <glyph glyph-name="partialdiff" unicode="&#x2202;" horiz-adv-x="639" 
d="M297 725c201.333 0 301.999 -127 301.999 -381c0 -114.667 -25.333 -203.334 -76 -266.001s-123.667 -94 -219 -94c-81.333 0 -145.666 22.667 -192.999 68s-71 106 -71 182c0 74.667 22 133.334 66 176.001c43.333 42.667 100 64 170 64c53.333 0 101.333 -13 144 -39
c-7.33301 52.667 -22 90.5 -44 113.5s-53.667 34.5 -95 34.5c-39.333 0 -87.333 -10 -144 -30l-45 135c74 24.667 142.333 37 205 37zM308.999 129c67.333 0 105.333 48.334 114 145.001c-28.667 42.667 -67.334 64 -116.001 64c-29.333 0 -52.666 -9.16699 -69.999 -27.5
s-26 -43.833 -26 -76.5s8.5 -58.334 25.5 -77.001s41.167 -28 72.5 -28z" />
    <glyph glyph-name="uni2206" unicode="&#x2206;" horiz-adv-x="753" 
d="M280 712h197l256 -712h-713zM331 367l-74 -220h239l-73 220l-46 157z" />
    <glyph glyph-name="product" unicode="&#x220f;" horiz-adv-x="737" 
d="M62 712h613v-916h-187v754h-239v-754h-187v916z" />
    <glyph glyph-name="summation" unicode="&#x2211;" horiz-adv-x="715" 
d="M52 712h617v-160h-374l252 -292l-261 -304h383v-160h-629v140l284 326l-272 310v140z" />
    <glyph glyph-name="minus" unicode="&#x2212;" 
d="M638 249h-548v131h548v-131z" />
    <glyph glyph-name="uni2215" unicode="&#x2215;" horiz-adv-x="377" 
d="M16 -15h-124l471 742h122z" />
    <glyph glyph-name="uni2219" unicode="&#x2219;" horiz-adv-x="445" 
d="M390 134h-335v297h335v-297z" />
    <glyph glyph-name="radical" unicode="&#x221a;" 
d="M527 -204h-221l-95 268l-120 -46l-50 140l264 98l102 -301l162 792h158z" />
    <glyph glyph-name="infinity" unicode="&#x221e;" horiz-adv-x="804" 
d="M211 139c-56.667 0 -101.167 17.167 -133.5 51.5s-48.5 82.166 -48.5 143.499s16.167 109.166 48.5 143.499s76.833 51.5 133.5 51.5c37.333 0 70.333 -8.5 99 -25.5s59.667 -45.833 93 -86.5c33.333 40 64.333 68.667 93 86s61.334 26 98.001 26
c56.667 0 101.167 -17.167 133.5 -51.5s48.5 -82.166 48.5 -143.499s-16.167 -109.166 -48.5 -143.499s-76.833 -51.5 -133.5 -51.5c-36.667 0 -69.334 8.66699 -98.001 26s-59.667 46 -93 86c-33.333 -40.667 -64.333 -69.5 -93 -86.5s-61.667 -25.5 -99 -25.5zM588 259
c22 0 39.334 6.50098 52.001 19.501s19 31.5 19 55.5c0 24.667 -6.33301 44 -19 58s-30 21 -52 21c-19.333 0 -37.333 -6 -54 -18s-35.334 -32.333 -56.001 -61c20 -26.667 38.5 -45.834 55.5 -57.501s35.167 -17.5 54.5 -17.5zM218.001 255.001
c34 0 70.333 26.332 109 78.999c-20 26.667 -38.333 45.834 -55 57.501s-34.667 17.5 -54 17.5c-22 0 -39.333 -6.5 -52 -19.5s-19 -31.5 -19 -55.5c0 -24.667 6.33301 -44 19 -58s30 -21 52 -21z" />
    <glyph glyph-name="integral" unicode="&#x222b;" 
d="M260 -198h-78v140h34c22 0 37.667 4.66699 47 14s14 25 14 47v561c0 126 63.333 189 190 189h78v-140h-34c-22 0 -37.833 -4.83301 -47.5 -14.5s-14.5 -25.5 -14.5 -47.5v-561c0 -63.333 -15.5 -110.5 -46.5 -141.5s-78.5 -46.5 -142.5 -46.5z" />
    <glyph glyph-name="approxequal" unicode="&#x2248;" 
d="M225 354h-140c0 138 53.667 207 161 207c34 0 74.833 -10.333 122.5 -31s77.5 -31 89.5 -31c30.667 0 46 20.667 46 62h139c0 -138 -53.667 -207 -161 -207c-39.333 0 -80 10.333 -122 31s-72 31 -90 31c-16 0 -27.5 -4.83301 -34.5 -14.5s-10.5 -25.5 -10.5 -47.5z
M225 87h-140c0 138.667 53.667 208 161 208c34 0 74.833 -10.333 122.5 -31s77.5 -31 89.5 -31c30.667 0 46 20.667 46 62h139c0 -138.667 -53.667 -208 -161 -208c-37.333 0 -78 10.667 -122 32c-42 20.667 -72 31 -90 31c-16 0 -27.5 -5 -34.5 -15s-10.5 -26 -10.5 -48z
" />
    <glyph glyph-name="notequal" unicode="&#x2260;" 
d="M638 508v-130h-206l-52 -125h258v-132h-313l-67 -162l-73 34l53 128h-148v132h203l52 125h-255v130h309l71 172l74 -34l-57 -138h151z" />
    <glyph glyph-name="lessequal" unicode="&#x2264;" 
d="M86 484l556 155v-141l-411 -94l411 -93v-141l-556 154v160zM642 -8h-557v132h557v-132z" />
    <glyph glyph-name="greaterequal" unicode="&#x2265;" 
d="M86 498v141l556 -155v-160l-556 -154v141l411 93zM642 -8h-557v132h557v-132z" />
    <glyph glyph-name="uni2460" unicode="&#x2460;" horiz-adv-x="1088" 
d="M905 31c-94 -93.333 -214.333 -140 -361 -140s-267 46.667 -361 140c-95.333 93.333 -143 210.333 -143 351c0 141.333 47.667 258.666 143 351.999c94.667 92.667 215 139 361 139s266.333 -46.333 361 -139c95.333 -93.333 143 -210.666 143 -351.999
c0 -140.667 -47.667 -257.667 -143 -351zM544 35c101.333 0 185.666 32.667 252.999 98c66 64.667 99 147.667 99 249s-33 184.333 -99 249c-67.333 65.333 -151.666 98 -252.999 98c-100.667 0 -184.667 -32.667 -252 -98c-66.667 -64.667 -100 -147.667 -100 -249
s33.333 -184.333 100 -249c67.333 -65.333 151.333 -98 252 -98zM624 170h-113v265h-109v84h25c58 0 87 23 87 69v9h110v-427z" />
    <glyph glyph-name="uni2461" unicode="&#x2461;" horiz-adv-x="1088" 
d="M905 31c-94 -93.333 -214.333 -140 -361 -140s-267 46.667 -361 140c-95.333 93.333 -143 210.333 -143 351c0 141.333 47.667 258.666 143 351.999c94.667 92.667 215 139 361 139s266.333 -46.333 361 -139c95.333 -93.333 143 -210.666 143 -351.999
c0 -140.667 -47.667 -257.667 -143 -351zM544 35c101.333 0 185.666 32.667 252.999 98c66 64.667 99 147.667 99 249s-33 184.333 -99 249c-67.333 65.333 -151.666 98 -252.999 98c-100.667 0 -184.667 -32.667 -252 -98c-66.667 -64.667 -100 -147.667 -100 -249
s33.333 -184.333 100 -249c67.333 -65.333 151.333 -98 252 -98zM729 180l-370.999 -0.00195312c0 98.667 37.667 163.334 113 194.001l93 41c34.667 14.667 52 33.667 52 57c0 14.667 -6 26.5 -18 35.5s-29 13.5 -51 13.5c-44.667 0 -70.667 -19 -78 -57l-106 9
c4.66699 46.667 22.667 82.167 54 106.5s74.666 36.5 129.999 36.5c56 0 99.833 -12.333 131.5 -37s47.5 -59 47.5 -103c0 -61.333 -35.667 -104.666 -107 -129.999l-86 -36c-24 -9.33301 -37 -21 -39 -35h235v-95z" />
    <glyph glyph-name="uni2462" unicode="&#x2462;" horiz-adv-x="1088" 
d="M905 31c-94 -93.333 -214.333 -140 -361 -140s-267 46.667 -361 140c-95.333 93.333 -143 210.333 -143 351c0 141.333 47.667 258.666 143 351.999c94.667 92.667 215 139 361 139s266.333 -46.333 361 -139c95.333 -93.333 143 -210.666 143 -351.999
c0 -140.667 -47.667 -257.667 -143 -351zM544 35c101.333 0 185.666 32.667 252.999 98c66 64.667 99 147.667 99 249s-33 184.333 -99 249c-67.333 65.333 -151.666 98 -252.999 98c-100.667 0 -184.667 -32.667 -252 -98c-66.667 -64.667 -100 -147.667 -100 -249
s33.333 -184.333 100 -249c67.333 -65.333 151.333 -98 252 -98zM541 155c-55.333 0 -99.001 12.168 -131.001 36.501s-50.667 59.5 -56 105.5l108 8c7.33301 -39.333 34 -59 80 -59c49.333 0 74 16.667 74 50c0 31.333 -24.667 47 -74 47h-46v89h45c44 0 66 14 66 42
c0 14.667 -6.16699 26 -18.5 34s-29.166 12 -50.499 12c-41.333 0 -66 -16.667 -74 -50l-107 8c6.66699 41.333 26 73.166 58 95.499s74 33.5 126 33.5c52.667 0 95 -11 127 -33s48 -51.667 48 -89c0 -43.333 -23 -73.333 -69 -90v-2c56.667 -16 85 -50.333 85 -103
c0 -42 -16.833 -75 -50.5 -99s-80.5 -36 -140.5 -36z" />
    <glyph glyph-name="uni2463" unicode="&#x2463;" horiz-adv-x="1088" 
d="M905 31c-94 -93.333 -214.333 -140 -361 -140s-267 46.667 -361 140c-95.333 93.333 -143 210.333 -143 351c0 141.333 47.667 258.666 143 351.999c94.667 92.667 215 139 361 139s266.333 -46.333 361 -139c95.333 -93.333 143 -210.666 143 -351.999
c0 -140.667 -47.667 -257.667 -143 -351zM544 35c101.333 0 185.666 32.667 252.999 98c66 64.667 99 147.667 99 249s-33 184.333 -99 249c-67.333 65.333 -151.666 98 -252.999 98c-100.667 0 -184.667 -32.667 -252 -98c-66.667 -64.667 -100 -147.667 -100 -249
s33.333 -184.333 100 -249c67.333 -65.333 151.333 -98 252 -98zM661 173h-109v87l-224 -6v91l203 255h130v-258l71 7v-95l-71 6v-87zM443 347l109 -5v139h-2z" />
    <glyph glyph-name="uni2464" unicode="&#x2464;" horiz-adv-x="1088" 
d="M905 31c-94 -93.333 -214.333 -140 -361 -140s-267 46.667 -361 140c-95.333 93.333 -143 210.333 -143 351c0 141.333 47.667 258.666 143 351.999c94.667 92.667 215 139 361 139s266.333 -46.333 361 -139c95.333 -93.333 143 -210.666 143 -351.999
c0 -140.667 -47.667 -257.667 -143 -351zM544 35c101.333 0 185.666 32.667 252.999 98c66 64.667 99 147.667 99 249s-33 184.333 -99 249c-67.333 65.333 -151.666 98 -252.999 98c-100.667 0 -184.667 -32.667 -252 -98c-66.667 -64.667 -100 -147.667 -100 -249
s33.333 -184.333 100 -249c67.333 -65.333 151.333 -98 252 -98zM547 155c-44.667 0 -82.999 8.5 -114.999 25.5s-55.333 41.167 -70 72.5l110 32c13.333 -24 38.333 -36 75 -36c24 0 42.833 5.16699 56.5 15.5s20.5 24.833 20.5 43.5c0 38 -25.333 57 -76 57
c-28.667 0 -52.334 -7.66699 -71.001 -23l-105 21l43 235h295v-90h-217l-15 -75l2 -1c28 12.667 59.667 19 95 19c50 0 89.333 -12.5 118 -37.5s43 -59.5 43 -103.5c0 -46.667 -17 -84.167 -51 -112.5s-80 -42.5 -138 -42.5z" />
    <glyph glyph-name="uni2465" unicode="&#x2465;" horiz-adv-x="1088" 
d="M905 31c-94 -93.333 -214.333 -140 -361 -140s-267 46.667 -361 140c-95.333 93.333 -143 210.333 -143 351c0 141.333 47.667 258.666 143 351.999c94.667 92.667 215 139 361 139s266.333 -46.333 361 -139c95.333 -93.333 143 -210.666 143 -351.999
c0 -140.667 -47.667 -257.667 -143 -351zM544 35c101.333 0 185.666 32.667 252.999 98c66 64.667 99 147.667 99 249s-33 184.333 -99 249c-67.333 65.333 -151.666 98 -252.999 98c-100.667 0 -184.667 -32.667 -252 -98c-66.667 -64.667 -100 -147.667 -100 -249
s33.333 -184.333 100 -249c67.333 -65.333 151.333 -98 252 -98zM553 156c-66 0 -116.668 19.333 -152.001 58s-53 93 -53 163c0 73.333 17.167 130.166 51.5 170.499s85.833 60.5 154.5 60.5c84 0 141.333 -29.333 172 -88l-104 -28c-16 20.667 -39 31 -69 31
s-52.333 -8.66699 -67 -26s-23 -45.666 -25 -84.999c29.333 27.333 68 41 116 41c50 0 89.5 -13 118.5 -39s43.5 -60.667 43.5 -104c0 -46.667 -16.667 -84 -50 -112s-78.666 -42 -135.999 -42zM550.999 243c23.333 0 41.833 6.16699 55.5 18.5s20.5 28.833 20.5 49.5
c0 19.333 -7 34.833 -21 46.5s-32.333 17.5 -55 17.5c-21.333 0 -39.5 -5.5 -54.5 -16.5s-24.167 -24.833 -27.5 -41.5c1.33301 -23.333 9.33301 -41.5 24 -54.5s34 -19.5 58 -19.5z" />
    <glyph glyph-name="uni2466" unicode="&#x2466;" horiz-adv-x="1088" 
d="M905 31c-94 -93.333 -214.333 -140 -361 -140s-267 46.667 -361 140c-95.333 93.333 -143 210.333 -143 351c0 141.333 47.667 258.666 143 351.999c94.667 92.667 215 139 361 139s266.333 -46.333 361 -139c95.333 -93.333 143 -210.666 143 -351.999
c0 -140.667 -47.667 -257.667 -143 -351zM544 35c101.333 0 185.666 32.667 252.999 98c66 64.667 99 147.667 99 249s-33 184.333 -99 249c-67.333 65.333 -151.666 98 -252.999 98c-100.667 0 -184.667 -32.667 -252 -98c-66.667 -64.667 -100 -147.667 -100 -249
s33.333 -184.333 100 -249c67.333 -65.333 151.333 -98 252 -98zM574 149h-116c4 122 51.667 232.333 143 331h-225v96h354v-93c-53.333 -49.333 -92 -99.333 -116 -150s-37.333 -112 -40 -184z" />
    <glyph glyph-name="uni2467" unicode="&#x2467;" horiz-adv-x="1088" 
d="M905 31c-94 -93.333 -214.333 -140 -361 -140s-267 46.667 -361 140c-95.333 93.333 -143 210.333 -143 351c0 141.333 47.667 258.666 143 351.999c94.667 92.667 215 139 361 139s266.333 -46.333 361 -139c95.333 -93.333 143 -210.666 143 -351.999
c0 -140.667 -47.667 -257.667 -143 -351zM544 35c101.333 0 185.666 32.667 252.999 98c66 64.667 99 147.667 99 249s-33 184.333 -99 249c-67.333 65.333 -151.666 98 -252.999 98c-100.667 0 -184.667 -32.667 -252 -98c-66.667 -64.667 -100 -147.667 -100 -249
s33.333 -184.333 100 -249c67.333 -65.333 151.333 -98 252 -98zM545 157c-62.667 0 -111.833 11.832 -147.5 35.499s-53.5 56.5 -53.5 98.5c0 26.667 7.5 49.334 22.5 68.001s35.833 31.667 62.5 39v2c-44.667 18 -67 48.667 -67 92c0 36.667 16 65.334 48 86.001
s77 31 135 31c57.333 0 102 -10.333 134 -31s48 -49.334 48 -86.001c0 -45.333 -22.333 -76 -67 -92v-2c26 -7.33301 46.667 -20.5 62 -39.5s23 -41.5 23 -67.5c0 -42 -17.833 -74.833 -53.5 -98.5s-84.5 -35.5 -146.5 -35.5zM545.001 432.999c49.333 0 74 15.667 74 47
c0 30.667 -24.667 46 -74 46c-50 0 -75 -15.333 -75 -46c0 -31.333 25 -47 75 -47zM480.001 254.999c15.333 -10.667 37 -16 65 -16s49.667 5.33301 65 16c15.333 10 23 24 23 42s-7.66699 31.833 -23 41.5s-37 14.5 -65 14.5c-59.333 0 -89 -18.667 -89 -56
c0 -18 8 -32 24 -42z" />
    <glyph glyph-name="uni2468" unicode="&#x2468;" horiz-adv-x="1088" 
d="M905 31c-94 -93.333 -214.333 -140 -361 -140s-267 46.667 -361 140c-95.333 93.333 -143 210.333 -143 351c0 141.333 47.667 258.666 143 351.999c94.667 92.667 215 139 361 139s266.333 -46.333 361 -139c95.333 -93.333 143 -210.666 143 -351.999
c0 -140.667 -47.667 -257.667 -143 -351zM544 35c101.333 0 185.666 32.667 252.999 98c66 64.667 99 147.667 99 249s-33 184.333 -99 249c-67.333 65.333 -151.666 98 -252.999 98c-100.667 0 -184.667 -32.667 -252 -98c-66.667 -64.667 -100 -147.667 -100 -249
s33.333 -184.333 100 -249c67.333 -65.333 151.333 -98 252 -98zM543 154c-83.333 0 -140.999 29.666 -172.999 88.999l104 27c16 -20 39 -30 69 -30s52.667 8.66699 68 26c14.667 16.667 23 44.667 25 84c-27.333 -26.667 -66 -40 -116 -40
c-50.667 0 -90.5 12.833 -119.5 38.5s-43.5 60.167 -43.5 103.5c0 46.667 16.667 84 50 112s78.666 42 135.999 42c66 0 116.667 -19.167 152 -57.5s53 -92.833 53 -163.5c0 -73.333 -17.167 -130.166 -51.5 -170.499s-85.5 -60.5 -153.5 -60.5zM545.001 386.999
c22 0 40.333 5.16699 55 15.5s24 24.5 28 42.5c-2 23.333 -10.333 41.5 -25 54.5s-33.667 19.5 -57 19.5s-42 -6.16699 -56 -18.5s-21 -28.5 -21 -48.5s7 -35.833 21 -47.5s32.333 -17.5 55 -17.5z" />
    <glyph glyph-name="uni24EA" unicode="&#x24ea;" horiz-adv-x="1088" 
d="M905 31c-94 -93.333 -214.333 -140 -361 -140s-267 46.667 -361 140c-95.333 93.333 -143 210.333 -143 351c0 141.333 47.667 258.666 143 351.999c94.667 92.667 215 139 361 139s266.333 -46.333 361 -139c95.333 -93.333 143 -210.666 143 -351.999
c0 -140.667 -47.667 -257.667 -143 -351zM544 35c101.333 0 185.666 32.667 252.999 98c66 64.667 99 147.667 99 249s-33 184.333 -99 249c-67.333 65.333 -151.666 98 -252.999 98c-100.667 0 -184.667 -32.667 -252 -98c-66.667 -64.667 -100 -147.667 -100 -249
s33.333 -184.333 100 -249c67.333 -65.333 151.333 -98 252 -98zM545 154c-64 0 -113.334 19.833 -148.001 59.5s-52 95.5 -52 167.5s17.167 127.5 51.5 166.5s83.833 58.5 148.5 58.5c64 0 113 -19.5 147 -58.5s51 -94.5 51 -166.5s-17.167 -127.833 -51.5 -167.5
s-83.166 -59.5 -146.499 -59.5zM544.999 254c53.333 0 80 42 80 126s-26.667 126 -80 126c-54 0 -81 -42 -81 -126s27 -126 81 -126z" />
    <glyph glyph-name="uni24FF" unicode="&#x24ff;" horiz-adv-x="1088" 
d="M905 31c-94 -93.333 -214.333 -140 -361 -140s-267 46.667 -361 140c-95.333 93.333 -143 210.333 -143 351c0 141.333 47.667 258.666 143 351.999c94.667 92.667 215 139 361 139s266.333 -46.333 361 -139c95.333 -93.333 143 -210.666 143 -351.999
c0 -140.667 -47.667 -257.667 -143 -351zM545 154c63.333 0 112.167 19.833 146.5 59.5s51.5 95.5 51.5 167.5s-17 127.5 -51 166.5s-83 58.5 -147 58.5c-64.667 0 -114.167 -19.5 -148.5 -58.5s-51.5 -94.5 -51.5 -166.5s17.333 -127.833 52 -167.5s84 -59.5 148 -59.5z
M545.001 254c-54 0 -81 42 -81 126s27 126 81 126c53.333 0 80 -42 80 -126s-26.667 -126 -80 -126z" />
    <glyph glyph-name="filledbox" unicode="&#x25a0;" horiz-adv-x="1033" 
d="M970 -88h-908v888h908v-888z" />
    <glyph glyph-name="uni25A1" unicode="&#x25a1;" horiz-adv-x="1033" 
d="M970 -88h-908v888h908v-888zM215 656v-600h603v600h-603z" />
    <glyph glyph-name="lozenge" unicode="&#x25ca;" horiz-adv-x="632" 
d="M215 712h201l185 -356l-185 -356h-201l-184 356zM181 356l135 -275l135 275l-135 274z" />
    <glyph glyph-name="circle" unicode="&#x25cb;" horiz-adv-x="1088" 
d="M905 31c-94 -93.333 -214.333 -140 -361 -140s-267 46.667 -361 140c-95.333 93.333 -143 210.333 -143 351c0 141.333 47.667 258.666 143 351.999c94.667 92.667 215 139 361 139s266.333 -46.333 361 -139c95.333 -93.333 143 -210.666 143 -351.999
c0 -140.667 -47.667 -257.667 -143 -351zM544 35c101.333 0 185.666 32.667 252.999 98c66 64.667 99 147.667 99 249s-33 184.333 -99 249c-67.333 65.333 -151.666 98 -252.999 98c-100.667 0 -184.667 -32.667 -252 -98c-66.667 -64.667 -100 -147.667 -100 -249
s33.333 -184.333 100 -249c67.333 -65.333 151.333 -98 252 -98z" />
    <glyph glyph-name="uni25CF" unicode="&#x25cf;" horiz-adv-x="1088" 
d="M905 31c-94 -93.333 -214.333 -140 -361 -140s-267 46.667 -361 140c-95.333 93.333 -143 210.333 -143 351c0 141.333 47.667 258.666 143 351.999c94.667 92.667 215 139 361 139s266.333 -46.333 361 -139c95.333 -93.333 143 -210.666 143 -351.999
c0 -140.667 -47.667 -257.667 -143 -351z" />
    <glyph glyph-name="uni2776" unicode="&#x2776;" horiz-adv-x="1088" 
d="M905 31c-94 -93.333 -214.333 -140 -361 -140s-267 46.667 -361 140c-95.333 93.333 -143 210.333 -143 351c0 141.333 47.667 258.666 143 351.999c94.667 92.667 215 139 361 139s266.333 -46.333 361 -139c95.333 -93.333 143 -210.666 143 -351.999
c0 -140.667 -47.667 -257.667 -143 -351zM506 435v-265h113v427h-110v-9c0 -46 -29.333 -69 -88 -69h-25v-84h110z" />
    <glyph glyph-name="uni2777" unicode="&#x2777;" horiz-adv-x="1088" 
d="M183 734c94.667 92.667 215 139 361 139s266.333 -46.333 361 -139c95.333 -93.333 143 -210.666 143 -351.999c0 -140.667 -47.667 -257.667 -143 -351c-94 -93.333 -214.333 -140 -361 -140s-267 46.667 -361 140c-95.333 93.333 -143 210.333 -143 351
c0 141.333 47.667 258.666 143 351.999zM355 178h371.001v96h-235c2 13.333 15 24.666 39 33.999l86 36c71.333 26 107 69.667 107 131c0 43.333 -16 77.333 -48 102s-75.667 37 -131 37s-98.833 -12.167 -130.5 -36.5s-49.834 -59.833 -54.501 -106.5l107 -9
c6.66699 38.667 32.667 58 78 58c22 0 39 -4.5 51 -13.5s18 -20.833 18 -35.5c0 -24 -17.333 -43 -52 -57l-93 -41c-40 -17.333 -68.833 -41.666 -86.5 -72.999s-26.5 -72 -26.5 -122z" />
    <glyph glyph-name="uni2778" unicode="&#x2778;" horiz-adv-x="1088" 
d="M905 31c-94 -93.333 -214.333 -140 -361 -140s-267 46.667 -361 140c-95.333 93.333 -143 210.333 -143 351c0 141.333 47.667 258.666 143 351.999c94.667 92.667 215 139 361 139s266.333 -46.333 361 -139c95.333 -93.333 143 -210.666 143 -351.999
c0 -140.667 -47.667 -257.667 -143 -351zM543 155c60 0 106.833 11.999 140.5 35.999s50.5 57 50.5 99c0 52.667 -28.333 87.334 -85 104.001v2c46 14.667 69 44.667 69 90c0 37.333 -16 66.833 -48 88.5s-74.333 32.5 -127 32.5c-52 0 -94 -11 -126 -33
s-51.333 -53.667 -58 -95l107 -9c8 33.333 32.667 50 74 50c46 0 69 -15.333 69 -46c0 -28 -22 -42 -66 -42h-45v-89h46c49.333 0 74 -15.333 74 -46c0 -34 -24.667 -51 -74 -51c-46 0 -72.667 19.667 -80 59l-108 -8c5.33301 -46 24 -81.167 56 -105.5
s75.667 -36.5 131 -36.5z" />
    <glyph glyph-name="uni2779" unicode="&#x2779;" horiz-adv-x="1088" 
d="M905 31c-94 -93.333 -214.333 -140 -361 -140s-267 46.667 -361 140c-95.333 93.333 -143 210.333 -143 351c0 141.333 47.667 258.666 143 351.999c94.667 92.667 215 139 361 139s266.333 -46.333 361 -139c95.333 -93.333 143 -210.666 143 -351.999
c0 -140.667 -47.667 -257.667 -143 -351zM545 262v-87h110v87l71 -6v95l-71 -7v258h-130l-203 -255v-91zM545 482v-138l-109 5l107 133h2z" />
    <glyph glyph-name="uni277A" unicode="&#x277a;" horiz-adv-x="1088" 
d="M183 734c94.667 92.667 215 139 361 139s266.333 -46.333 361 -139c95.333 -93.333 143 -210.666 143 -351.999c0 -140.667 -47.667 -257.667 -143 -351c-94 -93.333 -214.333 -140 -361 -140s-267 46.667 -361 140c-95.333 93.333 -143 210.333 -143 351
c0 141.333 47.667 258.666 143 351.999zM545 151c58.667 0 105.001 14.168 139.001 42.501s51 66.166 51 113.499c0 43.333 -14.5 77.5 -43.5 102.5s-68.5 37.5 -118.5 37.5c-36.667 0 -68 -6.33301 -94 -19l-2 1l15 75h217v90h-296l-43 -235l105 -21
c19.333 15.333 43 23 71 23c24 0 42.833 -5 56.5 -15s20.5 -24 20.5 -42c0 -18.667 -7 -33.167 -21 -43.5s-33 -15.5 -57 -15.5c-36.667 0 -61.334 12 -74.001 36l-111 -32c32 -65.333 93.667 -98 185 -98z" />
    <glyph glyph-name="uni277B" unicode="&#x277b;" horiz-adv-x="1088" 
d="M905 31c-94 -93.333 -214.333 -140 -361 -140s-267 46.667 -361 140c-95.333 93.333 -143 210.333 -143 351c0 141.333 47.667 258.666 143 351.999c94.667 92.667 215 139 361 139s266.333 -46.333 361 -139c95.333 -93.333 143 -210.666 143 -351.999
c0 -140.667 -47.667 -257.667 -143 -351zM552 157c57.333 0 102.501 13.8311 135.501 41.498s49.5 64.834 49.5 111.501c0 44 -14.333 78.833 -43 104.5s-68.334 38.5 -119.001 38.5c-50 0 -88.667 -13.333 -116 -40c2 39.333 10.333 67.5 25 84.5s37 25.5 67 25.5
c31.333 0 54.333 -10 69 -30l104 27c-14 28 -36 49.833 -66 65.5s-65.333 23.5 -106 23.5c-68.667 0 -120.167 -20.167 -154.5 -60.5s-51.5 -97.166 -51.5 -170.499c0 -70.667 17.833 -125.167 53.5 -163.5s86.5 -57.5 152.5 -57.5zM549.001 243.998
c-23.333 0 -42.333 6.5 -57 19.5s-23 31.167 -25 54.5c4 18 13.333 32.167 28 42.5s33 15.5 55 15.5c22.667 0 41 -5.83301 55 -17.5s21 -27.5 21 -47.5s-7 -36.167 -21 -48.5s-32.667 -18.5 -56 -18.5z" />
    <glyph glyph-name="uni277C" unicode="&#x277c;" horiz-adv-x="1088" 
d="M905 31c-94 -93.333 -214.333 -140 -361 -140s-267 46.667 -361 140c-95.333 93.333 -143 210.333 -143 351c0 141.333 47.667 258.666 143 351.999c94.667 92.667 215 139 361 139s266.333 -46.333 361 -139c95.333 -93.333 143 -210.666 143 -351.999
c0 -140.667 -47.667 -257.667 -143 -351zM452 149l116 -0.000976562c2.66699 72 16 133.333 40 184s62.667 100.667 116 150v93h-354v-96h225c-92 -97.333 -139.667 -207.666 -143 -330.999z" />
    <glyph glyph-name="uni277D" unicode="&#x277d;" horiz-adv-x="1088" 
d="M905 31c-94 -93.333 -214.333 -140 -361 -140s-267 46.667 -361 140c-95.333 93.333 -143 210.333 -143 351c0 141.333 47.667 258.666 143 351.999c94.667 92.667 215 139 361 139s266.333 -46.333 361 -139c95.333 -93.333 143 -210.666 143 -351.999
c0 -140.667 -47.667 -257.667 -143 -351zM545 159c62 0 110.832 11.667 146.499 35s53.5 56.666 53.5 99.999c0 26 -7.66699 48.333 -23 67s-36 31.667 -62 39v2c44.667 16 67 46.667 67 92c0 36.667 -16 65.334 -48 86.001s-76.667 31 -134 31c-58 0 -103 -10.333 -135 -31
s-48 -49.334 -48 -86.001c0 -43.333 22.333 -74 67 -92v-2c-26.667 -7.33301 -47.5 -20.333 -62.5 -39s-22.5 -41 -22.5 -67c0 -43.333 17.833 -76.666 53.5 -99.999s84.834 -35 147.501 -35zM544.999 435c-50 0 -75 15.667 -75 47c0 30.667 25 46 75 46
c49.333 0 74 -15.333 74 -46c0 -31.333 -24.667 -47 -74 -47zM609.999 257c-15.333 -10.667 -37 -16 -65 -16s-49.667 5.33301 -65 16c-16 10 -24 24 -24 42c0 37.333 29.667 56 89 56c58.667 0 88 -18.667 88 -56c0 -18 -7.66699 -32 -23 -42z" />
    </font>
</defs>
</svg>
