<svg width="127" height="30" viewBox="0 0 127 30" fill="none" xmlns="http://www.w3.org/2000/svg">
<path fill-rule="evenodd" clip-rule="evenodd" d="M23.9399 20.6873C23.9399 25.8297 28.1022 30 33.2372 30C38.3721 30 42.5345 25.8297 42.5345 20.6873L42.5381 7.99107L44.521 6.7614V6.43064H38.6193V6.7614L40.5552 7.99107L40.5653 21.3503C40.5653 24.8671 37.6943 27.7201 34.1824 27.7201C30.6704 27.7201 27.8225 24.8678 27.8225 21.3503L27.8088 7.99107L29.7917 6.7614V6.43064H22.0011V6.7614L23.937 7.99107L23.9399 20.6873ZM46.6455 29.4123V29.0815L48.8647 27.8519V7.9918L46.9287 6.76213V6.43136H54.7187V6.76213L52.7358 7.9918V26.9544H60.9506L63.453 24.0224L63.5947 24.0688L61.9897 29.4123H46.6455ZM106.793 8.08661L109.155 6.76213V6.43136H102.213V6.76213L104.433 7.9918L98.767 23.3595L92.1572 7.9918L94.4703 6.76213V6.43136H86.0206V6.76213L88.2391 7.9918L97.8702 29.5071L106.793 8.08661ZM75.492 5.83716C69.1495 5.83716 64.0073 11.2263 64.0073 17.8741C64.0073 24.5226 69.1488 29.911 75.492 29.911C81.8352 29.911 86.9767 24.5226 86.9767 17.8741C86.9759 11.227 81.8345 5.83716 75.492 5.83716ZM75.492 7.70953C79.6962 7.70953 83.1034 12.2606 83.1034 17.8741C83.1034 23.4876 79.6962 28.0379 75.492 28.0379C71.2892 28.0379 67.8806 23.4876 67.8806 17.8741C67.8798 12.2606 71.2885 7.70953 75.492 7.70953ZM111.687 19.4461L114.253 12.4835L117.231 19.4533L111.687 19.4461ZM110.957 21.3771L118.084 21.3916L120.862 27.8519L118.549 29.0815V29.4123H127V29.0815L124.782 27.8519L115.15 6.33655L106.227 27.7571L103.866 29.0815V29.4123H110.807V29.0815L108.587 27.8519L110.957 21.3771ZM6.84616 12.1049H8.78207C10.5763 12.1049 13.7393 11.3964 13.7393 6.95103C13.7393 2.5064 10.2931 2.17491 8.64043 2.17491H6.84616V12.1049ZM2.69106 27.8048V15.6043L4.90952 12.9568L2.69106 10.2615V1.56116L0 0.331484V0H10.4333C15.8631 0 17.7043 3.4994 17.7043 6.33655C17.7043 9.1737 16.288 11.3964 13.8802 12.7201C17.3734 13.5242 20.4893 16.6929 20.4893 20.6171C20.4893 24.5428 17.0901 29.4123 11.4247 29.4123H0V29.0815L2.69106 27.8048ZM6.84616 27.2367H10.2454C12.6062 27.2367 16.5712 25.5344 16.4773 20.5701C16.3834 15.6043 11.898 14.2806 9.63188 14.2806H6.84616V27.2367Z" fill="white"/>
</svg>
