<svg width="143" height="30" viewBox="0 0 143 30" fill="none" xmlns="http://www.w3.org/2000/svg">
<g clip-path="url(#clip0_1175_610)">
<path d="M4.98705 1.34658C4.81009 2.43943 4.66531 3.19477 4.15051 5.81438C4.0379 6.39295 3.9092 7.21258 3.84485 7.66257C3.73224 8.43399 3.58746 9.31791 3.12092 11.6804C2.70266 13.8339 2.50961 14.8946 2.397 15.6982C2.33265 16.1321 2.20395 16.9678 2.09134 17.5464C1.97873 18.1249 1.78568 19.0892 1.67307 19.716C1.56046 20.3267 1.36741 21.307 1.2548 21.8856C1.14219 22.4642 1.01349 23.2838 0.949139 23.7338C0.804353 24.7945 0.498695 26.3695 0.193036 27.7034C0.0643377 28.298 -1.16413e-05 28.973 0.0482503 29.198L0.144774 29.5998H2.62222C5.45358 29.5998 5.51793 29.5677 5.69489 28.2337C5.82359 27.1248 6.22577 24.7624 6.51534 23.4124C6.64404 22.7856 6.74057 22.1106 6.74057 21.8856C6.74057 21.6767 6.83709 20.9535 6.96579 20.2785C7.09449 19.6196 7.28754 18.6392 7.38406 18.1089C7.48058 17.5785 7.62537 16.6142 7.70581 15.9553C7.78624 15.3125 7.93103 14.6857 8.04364 14.5571C8.26886 14.2839 8.67104 14.2518 8.67104 14.5089C8.67104 14.6053 8.76757 14.9107 8.89627 15.1839C9.1054 15.6982 9.42715 16.5017 9.89368 17.7392C10.0385 18.1249 10.2476 18.6392 10.3602 18.9124C10.5533 19.3946 10.8911 20.2463 11.3576 21.4838C11.5024 21.8374 11.6955 22.3356 11.8081 22.6088C11.9207 22.866 12.1298 23.3802 12.2585 23.7338C12.3872 24.0874 12.725 24.9552 13.0146 25.6624C13.3042 26.3695 13.642 27.2373 13.7707 27.5909C13.8994 27.9445 14.1246 28.4587 14.2533 28.732L14.4946 29.2462L16.2803 29.3266C18.0339 29.4069 18.0982 29.3909 18.4521 29.0052C18.6452 28.7962 18.806 28.523 18.806 28.3945C18.806 28.2659 18.9187 27.8963 19.0634 27.5588C19.5139 26.5302 19.723 26.0159 20.0126 25.2606C20.1735 24.8588 20.3826 24.3124 20.4952 24.0552C20.6078 23.782 20.833 23.2517 20.9778 22.8499C21.1387 22.4481 21.3478 21.9017 21.4604 21.6445C21.5731 21.3713 21.7983 20.841 21.9431 20.4392C22.1039 20.0374 22.3131 19.491 22.4257 19.2339C22.5544 18.9606 22.8761 18.1732 23.1496 17.466C23.4392 16.7589 23.7609 15.9553 23.8896 15.6982C24.0022 15.425 24.2275 14.9107 24.3883 14.5411C24.8549 13.4321 25.5627 13.7536 25.5627 15.0714C25.5627 15.3928 25.6753 16.2928 25.804 17.0482C25.9327 17.8035 26.1579 19.1535 26.2866 20.0374C26.8014 23.316 27.0267 24.7141 27.1875 25.582C27.2841 26.0641 27.4288 27.0284 27.5093 27.7195C27.7506 29.6962 27.3484 29.5355 31.9976 29.648C36.1803 29.7605 39.2691 29.6641 39.7678 29.4069C39.9126 29.3266 40.0413 29.1659 40.0413 29.0373C40.0413 28.9248 40.1378 28.6195 40.2665 28.3623C40.3952 28.1212 40.6043 27.6552 40.733 27.3498C41.087 26.5141 41.5213 25.5338 41.65 25.2445C41.7304 25.1159 42.197 24.0231 42.6957 22.8499C43.1944 21.6767 43.6609 20.5838 43.7414 20.4553C43.8701 20.1821 44.2401 19.3303 44.6101 18.4624C44.7388 18.1892 44.964 17.6589 45.1249 17.3053C45.2697 16.9517 45.511 16.4053 45.6397 16.1C45.7684 15.7946 45.9292 15.425 46.0097 15.2803C46.074 15.1357 46.4279 14.3 46.7979 13.4321C47.5219 11.7286 47.8275 11.2786 48.0688 11.5197C48.1493 11.6161 48.5515 12.3714 48.9697 13.2071C49.388 14.0429 49.7902 14.8464 49.8706 14.975C49.9511 15.1036 50.0637 15.3286 50.1119 15.4571C50.1602 15.5857 50.2567 15.8107 50.3372 15.9393C50.4015 16.0678 51.1737 17.5785 52.0263 19.266C53.3294 21.8374 53.5546 22.3999 53.3937 22.6088C53.2329 22.8177 52.6055 22.8499 49.6132 22.8499C47.6345 22.8499 45.9131 22.8981 45.7684 22.9463C45.5271 23.0427 45.157 23.7499 43.8701 26.5463C43.5966 27.1248 43.1783 28.0088 42.9209 28.523C42.6635 29.0373 42.4866 29.5194 42.5348 29.6159C42.6635 29.8087 62.837 29.8087 62.9657 29.6159C63.0622 29.4552 62.9496 29.1659 62.2096 27.5105C61.9522 26.932 61.6304 26.2248 61.5178 25.9356C61.2122 25.2284 60.9065 24.5695 60.3274 23.2838C60.0539 22.6892 59.8287 22.1749 59.8287 22.1267C59.8287 22.0785 59.6034 21.5642 59.33 20.9696C59.0726 20.3588 58.7508 19.6517 58.6382 19.3946C58.5256 19.1214 58.2038 18.4303 57.9143 17.8357C57.6408 17.241 57.4156 16.7107 57.4156 16.6625C57.4156 16.6142 57.1903 16.1 56.9169 15.5053C56.2734 14.0429 55.839 13.0786 55.1955 11.6C54.8255 10.7804 54.1177 9.18934 53.7959 8.46614C53.4742 7.77507 52.3481 5.21975 51.8654 4.07869C51.6241 3.53227 51.4794 3.21084 50.6428 1.34658L50.1119 0.189453H48.1332C46.8462 0.189453 46.1545 0.253738 46.1545 0.366237C46.1545 0.446593 45.9775 0.944801 45.7362 1.44301C45.511 1.94122 45.2214 2.60014 45.0927 2.87335C44.9801 3.16263 44.7549 3.64477 44.6423 3.91798C44.5136 4.20726 44.1757 4.93047 43.9183 5.54117C43.6448 6.13581 43.4196 6.66616 43.4196 6.73044C43.4196 6.77866 43.2266 7.22865 43.0013 7.72686C42.4866 8.83577 41.9878 9.91255 41.7144 10.5554C41.6017 10.8125 41.28 11.5197 41.0226 12.1304C40.7491 12.725 40.5239 13.2393 40.5239 13.2875C40.5239 13.3357 40.2987 13.85 40.0252 14.4446C39.2852 16.0839 39.0439 16.6142 38.8186 17.1446C38.706 17.4017 38.3843 18.1089 38.1269 18.7196C37.8534 19.3142 37.6282 19.8285 37.6282 19.8767C37.6282 19.9249 37.403 20.4392 37.1295 21.0338C36.5664 22.2552 36.2769 22.9302 35.939 23.6856C35.8264 23.9749 35.569 24.5374 35.3921 24.9391C34.4107 27.157 33.7672 28.7159 33.7672 28.9087C33.7672 29.0212 33.6707 29.1177 33.542 29.1177C33.2846 29.1177 32.802 27.6873 32.802 26.948C32.802 26.707 32.7055 26.0802 32.5768 25.5338C32.3033 24.3767 31.9976 22.8177 31.9011 22.1267C31.8528 21.8535 31.7241 21.0981 31.5954 20.4392C31.1289 17.9482 30.8715 16.55 30.6463 15.3286C30.5176 14.6536 30.2924 13.4964 30.1637 12.7572C30.0189 12.0339 29.7937 10.8447 29.6489 10.1054C29.5202 9.3822 29.3111 8.24114 29.1824 7.58222C29.0697 6.9233 28.8767 5.94295 28.7802 5.4126C28.6676 4.88225 28.5228 4.01441 28.4423 3.48406C28.3619 2.9537 28.2171 2.31086 28.1367 2.05372C28.0402 1.79658 27.9758 1.26623 27.9758 0.896587V0.189453H23.3587L23.1979 0.864445C23.1014 1.25015 22.86 1.95729 22.667 2.43943C22.4739 2.92156 22.2648 3.53227 22.1844 3.80548C22.1039 4.06262 21.8948 4.6894 21.7018 5.17153C21.5087 5.65367 21.2996 6.26438 21.2191 6.53759C21.1387 6.79473 20.9296 7.42151 20.7365 7.90364C20.5435 8.38578 20.3183 8.99649 20.2539 9.2697C20.1735 9.52684 19.8517 10.475 19.53 11.359C18.5004 14.2357 17.9856 15.6982 17.8891 16.0196C17.8408 16.1964 17.7121 16.566 17.5834 16.8553C17.4547 17.1285 17.3582 17.4178 17.3582 17.5142C17.3582 17.7714 16.7147 19.1535 16.586 19.1535C16.4573 19.1535 15.9747 18.2696 15.8621 17.7874C15.8138 17.6107 15.6208 17.0642 15.4277 16.5821C15.2347 16.1 15.0255 15.5214 14.9451 15.2964C14.8647 15.0714 14.6555 14.4928 14.4625 14.0107C14.2694 13.5286 14.0603 12.8857 13.9799 12.5964C13.9155 12.3072 13.7868 11.9857 13.6903 11.8732C13.6098 11.7607 13.4972 11.5036 13.449 11.2786C13.4007 11.0536 13.2077 10.475 13.0146 9.9929C12.8216 9.51077 12.6124 8.9322 12.532 8.7072C12.4516 8.48221 12.2424 7.90364 12.0494 7.42151C11.8563 6.93937 11.6311 6.28045 11.5346 5.9751C11.4541 5.66974 11.3094 5.33225 11.245 5.25189C11.1807 5.15546 11.0841 4.91439 11.0359 4.6894C10.9876 4.4644 10.7946 3.88584 10.6176 3.4037C10.4246 2.92156 10.1511 2.2305 10.0063 1.87693C9.87759 1.52337 9.73281 0.993015 9.68454 0.703732L9.60411 0.189453H5.1801L4.98705 1.34658ZM125.4 1.36265C125.143 1.98943 124.725 2.98585 124.467 3.56441C124.194 4.14298 123.888 4.81797 123.776 5.09118C123.422 5.92688 123.052 6.74651 122.778 7.37329C122.633 7.71079 122.473 8.0965 122.392 8.24114C122.328 8.38578 121.974 9.22148 121.604 10.0893C121.234 10.9572 120.735 12.0822 120.526 12.5643C120.301 13.0464 120.011 13.6893 119.883 13.9625C119.77 14.2518 119.545 14.7661 119.4 15.0875C119.255 15.425 119.094 15.8107 119.03 15.9553C118.949 16.0839 118.483 17.1767 117.984 18.3499C117.486 19.5231 117.019 20.616 116.939 20.7446C116.874 20.8892 116.713 21.2749 116.552 21.5963C116.134 22.5927 115.812 23.2999 115.571 23.8463C115.442 24.1356 115.169 24.7784 114.96 25.2606C114.735 25.7427 114.284 26.7873 113.946 27.5909C113.625 28.3784 113.287 29.1177 113.19 29.2302C112.852 29.6802 113.303 29.7605 116.15 29.7605C119.03 29.7605 119.673 29.6641 119.673 29.198C119.673 29.0855 119.802 28.748 119.947 28.4427C120.333 27.6713 120.365 27.607 121.363 25.2445C121.861 24.0552 122.344 23.0267 122.424 22.9302C122.505 22.8499 122.569 22.6892 122.569 22.5767C122.569 22.4642 122.794 21.8695 123.068 21.2749C123.55 20.2624 123.679 19.9571 124.274 18.591C124.403 18.2857 124.612 17.7874 124.757 17.466C125.352 16.0839 125.513 15.6821 125.642 15.441C125.706 15.2964 126.06 14.4607 126.43 13.5929C127.09 12.05 127.492 11.375 127.701 11.5036C127.749 11.5357 129.02 14.0107 130.516 16.9839C132.688 21.291 133.219 22.4481 133.074 22.657C132.929 22.8981 132.447 22.9302 129.068 22.9785L125.224 23.0106L124.837 23.8624C124.226 25.2124 123.052 27.6713 122.553 28.6516C122.312 29.1659 122.151 29.6159 122.199 29.6641C122.263 29.7123 126.961 29.7605 132.656 29.7605C142.887 29.7605 143 29.7605 143 29.4391C143 29.2623 142.92 29.1337 142.823 29.1498C142.727 29.1819 142.582 29.0855 142.501 28.957C142.324 28.6355 140.909 25.582 140.909 25.4856C140.909 25.4534 140.683 24.9391 140.41 24.3445C139.316 21.966 138.946 21.1463 138.737 20.6803C138.624 20.4071 138.303 19.6839 138.013 19.0731C137.353 17.6267 137.016 16.8875 136.485 15.6982C135.825 14.1875 135.664 13.85 135.117 12.6447C134.844 12.0179 134.522 11.2947 134.393 11.0375C134.281 10.7643 133.959 10.0411 133.669 9.43041C133.058 8.0965 132.72 7.35722 132.141 6.05545C131.916 5.5251 131.578 4.8019 131.417 4.44833C131.256 4.09476 130.935 3.37156 130.693 2.84121C130.452 2.31086 130.114 1.58765 129.953 1.21801C129.776 0.864445 129.648 0.478735 129.648 0.382308C129.648 0.237667 129.101 0.189453 127.765 0.189453H125.867L125.4 1.36265ZM65.0731 0.80016C64.9283 1.04123 64.9444 29.4712 65.1053 29.6319C65.1696 29.6962 69.8671 29.7444 75.5299 29.7284L85.8096 29.6802V23.091L78.2647 23.0427C72.4572 23.0106 70.6715 22.9624 70.575 22.8017C70.5106 22.7052 70.4463 21.6928 70.4463 20.5838C70.4463 19.0731 70.4945 18.5107 70.6554 18.366C70.8163 18.2535 73.0363 18.1732 77.8625 18.1571L84.8444 18.1089V12.0018L77.8786 11.9215C71.2024 11.8411 70.8967 11.825 70.6715 11.5357C70.5106 11.3107 70.4463 10.7322 70.4463 9.51077C70.4463 8.04828 70.4945 7.759 70.7359 7.534C71.0093 7.29294 71.685 7.26079 77.2512 7.26079C83.9274 7.26079 83.9596 7.26079 83.9596 6.42509C83.9596 6.24831 84.0722 5.76617 84.2009 5.34832C84.3296 4.94654 84.5548 4.14298 84.6996 3.56441C84.8444 2.98585 85.0696 2.19836 85.1822 1.81265C85.3109 1.41087 85.3431 1.02516 85.2788 0.960872C85.0696 0.751946 65.2018 0.591234 65.0731 0.80016ZM91.3759 0.832302C91.1989 0.976943 90.0889 3.82155 89.7993 4.93047C89.751 5.10725 89.6063 5.49296 89.4776 5.78224C88.9788 6.9233 88.5123 6.84294 96.9099 6.93937L104.471 7.0358L105.195 7.42151C106.16 7.95186 107.302 9.10899 107.721 9.9929C108.477 11.6161 108.605 12.2911 108.525 14.4446C108.412 17.5303 107.753 19.2981 106.08 21.0017C104.423 22.6731 104.744 22.6088 98.8886 22.657C93.8533 22.7052 93.789 22.7052 93.612 22.3677C93.4833 22.1428 93.4511 20.5196 93.4833 17.0964C93.4994 14.3803 93.4672 12.0661 93.4029 11.9536C93.2259 11.6804 89.0915 11.6804 88.818 11.9536C88.6732 12.0982 88.6249 14.2196 88.6249 20.5035C88.6249 25.1159 88.6732 29.0373 88.7214 29.2302L88.818 29.5998H97.0868C102.573 29.5998 105.613 29.5355 106.112 29.423C109.538 28.6195 112.402 25.1802 113.609 20.3588C114.107 18.366 114.236 17.4017 114.316 15.0071C114.413 12.5 114.188 10.4911 113.625 8.72328C113.496 8.32149 113.399 7.90364 113.399 7.77507C113.399 7.66257 113.045 6.8108 112.611 5.91081C111.984 4.60904 111.582 4.03048 110.713 3.13049C110.101 2.50371 109.297 1.86086 108.895 1.68408C106.916 0.784089 107.463 0.832302 99.1943 0.784089C94.9472 0.768017 91.4402 0.784089 91.3759 0.832302Z" fill="white"/>
</g>
<defs>
<clipPath id="clip0_1175_610">
<rect width="143" height="30" fill="white"/>
</clipPath>
</defs>
</svg>
