<svg width="130" height="30" viewBox="0 0 130 30" fill="none" xmlns="http://www.w3.org/2000/svg">
<path fill-rule="evenodd" clip-rule="evenodd" d="M29.8074 19.0126C29.8074 14.5254 31.9601 10.9602 34.7632 10.9602C37.5662 10.9602 39.7189 14.5254 39.7189 19.0126C39.7189 23.4991 37.5655 27.1376 34.7632 27.1376C31.9608 27.1376 29.8074 23.4991 29.8074 19.0126ZM34.702 29.9756C41.7667 29.9756 46.516 25.5002 46.516 18.9651C46.516 12.844 41.7667 7.80954 34.702 7.80954C27.6374 7.80954 23.011 12.844 23.011 18.9651C23.011 25.5002 27.6367 29.9756 34.702 29.9756ZM113.339 19.0273C113.339 14.54 115.492 11.0223 118.294 11.0223C121.097 11.0223 123.251 14.54 123.251 19.0273C123.251 23.5138 121.097 27.0797 118.294 27.0797C115.492 27.0797 113.339 23.5138 113.339 19.0273ZM118.233 29.9902C125.297 29.9902 130 25.5149 130 18.9798C130 12.8579 125.297 7.8242 118.233 7.8242C111.168 7.8242 106.59 12.8579 106.59 18.9798C106.59 25.5149 111.168 29.9902 118.233 29.9902ZM95.8608 7.8242C93.886 7.8242 91.7028 9.03308 89.9316 10.8122V0C89.9316 0 83.5813 0 83.5813 4.73082V25.3027C83.5813 25.3027 83.7918 27.414 86.6088 28.8086C89.0039 29.993 92.4484 29.9902 94.3036 29.9902C101.369 29.9902 105.952 25.5149 105.952 18.9798C105.952 12.8586 102.926 7.8242 95.8608 7.8242ZM94.1793 27.5124C91.3755 27.5124 89.2228 23.8753 89.2228 19.3888C89.2228 14.9009 91.3755 11.2638 94.1793 11.2638C96.9816 11.2638 99.1114 14.9009 99.1114 19.3888C99.1114 23.8753 96.9816 27.5124 94.1793 27.5124ZM22.8769 22.1437C21.6303 26.922 19.0538 30 11.6195 30C4.55481 30 0 25.5246 0 18.9882C0 12.8677 4.55481 7.83328 11.6195 7.83328C16.446 7.83328 21.3225 9.92578 22.5857 14.5728C22.5857 14.5728 22.5017 15.9248 20.9459 15.9248L16.2146 15.922C15.444 13.0059 13.7832 10.912 11.6813 10.912C8.87892 10.912 6.72555 14.5498 6.72555 19.0356C6.72555 23.5236 8.87892 27.1607 11.6813 27.1607C13.8083 27.1607 15.4384 25.1156 16.1937 22.1451L22.8769 22.1437ZM74.7406 7.77186C69.6173 7.77186 67.7746 11.0977 67.2777 11.8731C66.4321 9.70243 64.6123 7.77186 60.6953 7.77186C56.5151 7.77186 53.8975 10.7536 53.5459 11.2352V7.77186C53.5459 7.77186 47.1956 7.77186 47.1956 12.5027V29.3984H53.5459V16.6367C53.7579 15.8829 54.8411 12.7923 58.1716 12.7923C61.6195 12.7923 61.6619 16.116 61.6619 16.116V29.3991H68.0115V16.3638C68.409 15.2555 69.6048 12.7916 72.5121 12.7916C75.9607 12.7916 76.0024 15.9967 76.0024 15.9967V29.3984C80.7115 29.3984 82.4709 28.5119 82.4709 25.4283V14.4884C82.4709 14.4884 82.0164 7.77186 74.7406 7.77186Z" fill="white"/>
</svg>
