<svg width="182" height="30" viewBox="0 0 182 30" fill="none" xmlns="http://www.w3.org/2000/svg">
<path fill-rule="evenodd" clip-rule="evenodd" d="M112.735 10.5995C111.912 8.63447 110.628 6.7669 108.958 5.53062C107.141 4.14821 104.985 3.37176 102.661 3.2266C102.395 3.20224 102.127 3.20224 101.836 3.20224H90.5754C90.9252 3.52265 91.2049 3.91222 91.3968 4.34635C91.5887 4.78048 91.6886 5.24974 91.6902 5.72449V26.5581C91.6913 27.0333 91.5926 27.5034 91.4005 27.9379C91.2085 28.3724 90.9274 28.7616 90.5754 29.0803H101.836C102.103 29.0803 102.37 29.0803 102.661 29.057C104.865 28.9118 107.31 28.2084 108.958 26.9234C110.652 25.6384 111.912 23.8186 112.735 21.8302C113.46 20.0176 113.83 18.0825 113.826 16.1301C113.826 14.2372 113.437 12.3453 112.735 10.5995ZM109.464 21.6588C108.763 23.2594 107.238 24.8357 105.687 25.6365C104.79 26.0973 103.726 26.412 102.661 26.5824C102.127 26.6545 101.594 26.7033 101.062 26.7033H94.6437V5.72352H101.062C101.594 5.72352 102.127 5.77223 102.661 5.84529C103.727 6.01481 104.79 6.35383 105.735 6.83997C107.31 7.66513 108.667 9.11963 109.464 10.7933C110.241 12.4906 110.646 14.3344 110.652 16.2012C110.652 18.021 110.168 20.0825 109.464 21.6588ZM150.952 26.5824C149.789 26.8007 148.579 26.3399 147.754 25.4904L138.552 15.9352C140.925 15.9109 143.153 14.6503 144.315 12.5878C144.824 11.6662 145.067 10.6238 145.067 9.55608C145.069 7.94654 144.463 6.3959 143.371 5.21497C142.135 3.92998 140.197 3.27433 138.359 3.20224H130.608C130.966 3.51808 131.252 3.90622 131.448 4.34102C131.644 4.77581 131.746 5.24736 131.747 5.72449V26.5581C131.747 27.5284 131.334 28.45 130.608 29.0803H135.839C135.114 28.451 134.701 27.5284 134.701 26.6312V15.8378L138.359 19.7172L145.356 27.09C145.987 27.769 146.422 28.6916 146.422 29.6366V30L150.952 26.5824ZM138.14 13.5094H134.701V5.72352H138.359C140.392 5.84529 142.017 7.54237 142.017 9.60381C142.018 10.5987 141.64 11.5567 140.961 12.2823C140.281 13.0079 139.35 13.4464 138.359 13.5085L138.14 13.5094ZM60.5204 25.0539V21.1249C60.5204 20.0825 61.0535 19.0391 61.9252 18.4809H56.3792C57.2508 19.0634 57.8082 20.0825 57.8082 21.1249V25.0539C56.0139 26.4925 53.7854 27.279 51.4869 27.2849C49.2592 27.2849 46.9828 26.4597 45.3115 25.1747C42.648 23.163 40.9767 19.7668 40.9767 16.322C40.9767 10.5264 45.3845 4.97239 51.3906 4.97239C53.0862 4.97239 54.9511 5.55497 56.3802 6.3548C57.0339 6.71916 57.6633 7.37384 57.8579 8.07722C58.0028 8.51367 58.0758 9.02318 58.0271 9.50834L61.9505 5.67578C61.5553 5.79495 61.1381 5.82197 60.7309 5.75476C60.3237 5.68756 59.9372 5.5279 59.6011 5.28804C57.2275 3.61433 54.5153 2.62064 51.5356 2.62064C44.295 2.62064 37.998 8.73189 37.998 16.0814C37.998 20.4946 40.2023 24.7149 43.7132 27.2128C45.8446 28.7657 48.6055 29.6873 51.342 29.6873C53.594 29.6873 55.8947 29.057 57.7596 27.9892C58.462 27.6258 59.3823 27.0189 60.1566 26.826C60.5681 26.7286 61.1732 26.6068 61.682 26.6321L60.7374 25.6375C60.6109 25.4677 60.5356 25.2652 60.5204 25.0539ZM25.6472 27.8431C25.215 27.7499 24.8086 27.5625 24.4568 27.2943C24.1051 27.0261 23.8167 26.6836 23.612 26.2912L12.8109 0L2.03415 26.2912C1.69561 27.1153 0.871638 27.6492 0 27.8431L5.30376 29.6629C4.91272 29.0818 4.70219 28.3977 4.69867 27.697C4.69867 27.3336 4.74634 26.9215 4.86794 26.6302L7.19296 20.8823H18.4542L20.7792 26.6545C20.8765 26.9458 20.9242 27.3336 20.9242 27.697C20.9242 28.4013 20.7063 29.0794 20.3434 29.6629L25.6472 27.8431ZM8.18522 18.3844L12.8109 6.93739L17.4357 18.3844H8.18522Z" fill="white"/>
<path fill-rule="evenodd" clip-rule="evenodd" d="M40.0074 25.249C39.6632 25.7005 39.2197 26.0666 38.7114 26.3189C38.2031 26.5711 37.6436 26.7027 37.0763 26.7035H29.5692V5.72471C29.5692 4.75439 29.9807 3.83376 30.7307 3.20246H25.4756C26.2023 3.85714 26.6381 4.75439 26.6381 5.72471V26.5583C26.6381 27.5286 26.2023 28.4502 25.4756 29.0806H39.6193L40.0074 25.249ZM129.42 25.249C129.07 25.6991 128.621 26.0639 128.11 26.3158C127.598 26.5677 127.036 26.7002 126.466 26.7035H118.984V16.3972H125.644C126.613 16.3972 127.532 16.785 128.235 17.465V12.8316C127.543 13.5109 126.613 13.8935 125.644 13.8984H118.984V5.72471H125.644C126.806 5.72471 127.895 6.28294 128.598 7.20454L128.454 3.20344H114.892C115.249 3.51927 115.536 3.90742 115.732 4.34221C115.928 4.77701 116.03 5.24856 116.031 5.72569V26.5593C116.031 27.5296 115.618 28.4512 114.892 29.0815H129.012L129.42 25.249ZM76.3107 2.52344C68.8999 2.52344 62.8694 8.61131 62.8694 16.0816C62.8694 23.5509 68.8999 29.6631 76.3107 29.6631C83.7216 29.6631 89.7511 23.5509 89.7511 16.0816C89.752 8.61131 83.7216 2.52344 76.3107 2.52344ZM65.8725 16.0816C65.8725 10.0181 70.5468 5.07004 76.3107 5.07004C82.0746 5.07004 86.7723 10.0181 86.7723 16.0816C86.7723 22.1451 82.0737 27.1156 76.3107 27.1156C70.5468 27.1156 65.8725 22.1685 65.8725 16.0816ZM176.404 3.20344H172.093L163.351 16.0572L154.632 3.20344H150.32C150.685 3.5142 150.978 3.90077 151.179 4.33633C151.38 4.77188 151.483 5.24598 151.483 5.72569V26.5593C151.483 27.5296 151.072 28.4512 150.32 29.0815H155.575C154.85 28.4522 154.437 27.5296 154.437 26.6324V7.54455L163.35 20.7627L172.311 7.54455V26.6324C172.311 27.5296 171.876 28.4512 171.148 29.0815H176.403C176.041 28.7686 175.75 28.3816 175.549 27.9466C175.348 27.5115 175.243 27.0385 175.241 26.5593V5.72471C175.244 5.2457 175.349 4.77293 175.55 4.33809C175.751 3.90325 176.042 3.51639 176.404 3.20344ZM182 3.37296V3.32424H181.369L180.837 4.65892L180.328 3.32424H179.65V3.37296C179.844 3.39731 179.894 3.44602 179.894 3.59118V4.94923C179.894 5.09439 179.869 5.1431 179.65 5.16746V5.24053H180.281V5.16746C180.038 5.1431 180.013 5.07004 180.013 4.87617V3.56682L180.669 5.24053H180.741L181.369 3.51811V4.94923C181.369 5.1431 181.297 5.1431 181.15 5.16746V5.24053H182V5.16746C181.828 5.1431 181.781 5.14311 181.781 4.90053V3.63989C181.781 3.39731 181.878 3.39731 182 3.37296ZM177.955 3.88247H178.052C178.102 3.44602 178.367 3.42166 178.537 3.42166V4.9015C178.537 5.14408 178.465 5.14407 178.293 5.16843V5.2415H179.215V5.16843C179.021 5.14407 178.971 5.14408 178.971 4.9015V3.42166C179.143 3.42166 179.408 3.44602 179.456 3.88247H179.528V3.32424H177.979L177.955 3.88247Z" fill="white"/>
</svg>
