<svg width="177" height="30" viewBox="0 0 177 30" fill="none" xmlns="http://www.w3.org/2000/svg">
<path fill-rule="evenodd" clip-rule="evenodd" d="M104.714 3.65687C103.066 9.81801 101.536 16.0597 99.8306 22.1725L99.7474 24.9943C100.143 26.9829 102.175 28.9469 104.164 29.2796L118.763 29.1536L119.872 24.7754C117.526 25.7697 114.388 25.327 111.712 25.327C110.94 24.8938 110.201 24.3147 110.184 23.309C111.21 19.3915 112.132 15.4152 113.337 11.5867L122.121 11.437L123.061 7.59621L114.582 7.65687L114.26 7.43128C114.595 5.88815 115.251 4.3782 115.272 2.82844C111.783 3.25593 108.069 3.04834 104.714 3.65687ZM70.8477 8.0654C73.4967 12.0531 75.93 16.0967 78.1334 20.291C74.0208 23.4379 69.8458 26.4265 65.6887 29.4028L65.6982 29.6322L72.5393 29.5099L80.2829 23.9223C81.4456 25.6739 82.562 27.4673 83.1883 29.4597L96.3349 29.3137C96.0501 29.236 95.8212 28.8749 95.5903 28.6995L89.1892 17.4569L102.176 7.96493L102.165 7.73934L94.3302 8.01232C92.3794 10.5915 89.4078 11.8711 86.9527 13.7754C85.8751 11.8881 84.3936 10.1839 84.1287 7.96588L70.8477 8.0654ZM155.785 7.48625L155.939 8.56967L151.232 27.1848L150.086 29.0227H162.513L162.253 27.5346L165.3 14.9536C165.426 14.2218 165.996 13.4872 166.669 13.1611C169.255 13.2028 173.096 12.273 175.474 13.7763L177 7.52891C173.113 8.17915 167.857 5.64171 165.618 10.0436C165.246 9.32133 165.453 8.36303 165.401 7.49384L155.785 7.48625ZM33.175 0C35.1362 0.333649 37.0691 2.01896 37.4986 3.96398C37.4219 7.14313 36.843 10.3801 34.9451 12.9526C34.0568 13.8758 32.9281 14.3137 31.7947 14.6512C32.9442 15.4427 33.8647 16.6493 34.2554 17.9583C34.5809 21.3204 33.1391 24.1583 32.3368 27.1763C31.2346 29.2313 29.1627 30.0417 26.7427 29.9829L0 30L1.76821 26.527L8.193 2.20663L8.15137 0.113739L33.175 0ZM19.631 4.96588L17.158 12.0834L24.6831 12.0483C26.0274 11.072 25.9877 9.11943 26.562 7.65024C26.7739 6.92322 27.1041 5.55734 26.1921 5.02369L19.631 4.96588ZM15.8373 17.0133C15.2044 19.6161 14.2535 22.2616 13.93 24.8588L21.5184 24.8701C23.4021 23.9242 22.386 21.3099 23.2696 19.6104C23.5326 18.8313 23.7767 17.4199 22.8117 16.982L15.8373 17.0133ZM62.7833 8.19715C64.158 8.71563 65.6168 9.60379 66.3141 11.0009C67.3472 12.3924 66.8865 14.5754 66.4096 16.1327L63.3605 28.1735L63.6935 29.6654L53.3642 29.6152C53.1684 28.9355 52.9149 28.219 52.5847 27.582C52.1523 28.3611 51.5544 29.3317 50.6395 29.5763C46.6594 29.6986 41.947 30.2265 38.5818 29.1545C37.07 28.2265 35.9035 26.6057 35.7805 24.8351C35.9574 21.7953 36.4049 18.8758 38.456 16.6095L40.9726 15.3507L55.4172 15.0066C56.1873 14.6284 56.1268 13.7175 56.3406 13.037C56.2867 12.5403 56.0501 12.0493 55.5894 11.8227C50.2933 11.9725 44.5752 11.4265 39.2838 12.2445L40.8335 8.27393L62.7833 8.19715ZM54.6339 19.2426L48.1949 19.2626L47.3482 19.8237C47.1504 21.7346 44.9745 24.4095 47.2195 25.7289L52.4342 25.6398L53.0974 25.0825L54.6339 19.2426ZM148.633 7.70426C149.957 8.08436 151.327 9.28436 151.94 10.5915C153.4 13.8872 151.415 16.9185 150.924 19.9716L132.984 20.2787C132.831 21.7877 131.408 23.309 132.605 24.7867L133.383 25.1791L148.291 25.0588L149.377 24.5735L147.683 29.0645L125.931 29.1251C123.645 28.6142 121.98 26.4256 121.631 24.2009C122.399 19.3782 123.688 14.763 125.057 10.1953C125.979 8.82275 127.324 7.89194 128.821 7.59621L148.633 7.70426ZM135.958 11.6455C134.565 12.5336 134.783 14.4796 134.169 15.9005L141.239 15.7744C141.634 14.773 141.849 13.7096 141.875 12.6332C141.722 12.1299 141.216 11.6863 140.766 11.563L135.958 11.6455Z" fill="white"/>
</svg>
