<svg width="85" height="85" viewBox="0 0 85 85" fill="none" xmlns="http://www.w3.org/2000/svg">
<g opacity="0.05" clip-path="url(#clip0_1749_5)">
<path d="M65.9741 19.1439C65.7511 18.7591 65.431 18.4395 65.0458 18.2171C64.6606 17.9947 64.2237 17.8773 63.7789 17.8766H20.6198C20.175 17.8772 19.7382 17.9947 19.353 18.2171C18.9678 18.4395 18.6477 18.7591 18.4248 19.1439L15.3447 24.4785C15.2628 24.6203 15.2097 24.7768 15.1883 24.9392C15.1669 25.1015 15.1778 25.2665 15.2201 25.4246C15.2625 25.5828 15.3356 25.731 15.4353 25.8609C15.535 25.9908 15.6593 26.0998 15.8011 26.1817C15.9429 26.2635 16.0994 26.3167 16.2617 26.338C16.424 26.3594 16.589 26.3486 16.7472 26.3062C16.9053 26.2638 17.0536 26.1907 17.1835 26.091C17.3134 25.9914 17.4223 25.8671 17.5042 25.7253L19.8762 21.6169L28.8783 37.2088H10.8742L14.6803 30.6163C14.7622 30.4745 14.8153 30.3179 14.8367 30.1556C14.858 29.9933 14.8472 29.8283 14.8048 29.6702C14.7625 29.512 14.6893 29.3638 14.5897 29.2339C14.49 29.104 14.3657 28.995 14.2239 28.9131C14.0821 28.8312 13.9256 28.778 13.7632 28.7566C13.6009 28.7352 13.4359 28.746 13.2778 28.7884C13.1196 28.8308 12.9713 28.9039 12.8415 29.0036C12.7116 29.1033 12.6026 29.2277 12.5208 29.3695L7.91448 37.3479C7.70134 37.7159 7.61002 38.1419 7.65358 38.565C7.69715 38.9881 7.87336 39.3866 8.15703 39.7035L40.6592 76.1062C40.8487 76.3182 41.0808 76.4879 41.3403 76.6041C41.5997 76.7204 41.8808 76.7806 42.1652 76.7809H42.1662C42.7402 76.7809 43.2889 76.5355 43.6718 76.1077L76.24 39.7045C76.5243 39.3876 76.701 38.9889 76.7448 38.5655C76.7886 38.1421 76.6973 37.7157 76.4839 37.3474L65.9741 19.1439ZM44.8297 37.2089H33.1972L42.1992 21.6169L51.2012 37.2089H51.0932C50.7625 37.2089 50.4454 37.3403 50.2116 37.5741C49.9777 37.8079 49.8464 38.125 49.8464 38.4557C49.8464 38.7864 49.9777 39.1035 50.2116 39.3373C50.4454 39.5711 50.7625 39.7025 51.0932 39.7025H51.6935L42.169 72.0287L32.7021 39.7026H44.8297C45.1604 39.7026 45.4775 39.5713 45.7113 39.3375C45.9451 39.1037 46.0765 38.7865 46.0765 38.4559C46.0765 38.2921 46.0443 38.13 45.9816 37.9787C45.919 37.8274 45.8272 37.6899 45.7114 37.5742C45.5956 37.4584 45.4581 37.3665 45.3069 37.3038C45.1556 37.2412 44.9935 37.2089 44.8297 37.2089ZM53.3609 35.9621L44.3589 20.3701H62.363L53.3609 35.9621ZM54.2934 39.7026H72.8957L45.1588 70.7056L54.2934 39.7026ZM73.5245 37.2089H55.5205L64.5225 21.6171L73.5245 37.2089ZM22.0358 20.3701H40.0398L31.0378 35.962L22.0358 20.3701ZM30.1036 39.7026L39.1845 70.7104L11.4993 39.7026H30.1036ZM72.374 72.1335C72.3147 72.0939 72.2521 72.0595 72.1869 72.0307C71.3954 71.6806 70.6654 71.267 70.0173 70.802C69.7485 70.6129 69.4158 70.5376 69.0918 70.5925C68.7677 70.6473 68.4785 70.8279 68.2868 71.0949C68.0952 71.3619 68.0168 71.6938 68.0685 72.0184C68.1203 72.3429 68.2981 72.6339 68.5633 72.8281C68.9507 73.1056 69.3523 73.3629 69.7663 73.599C67.0735 75.1355 65.206 77.3367 64.2914 80.0582C63.3768 77.3372 61.5096 75.1362 58.8175 73.5997C61.51 72.0632 63.3772 69.862 64.2916 67.1407C64.3042 67.1782 64.3171 67.2156 64.3299 67.2529C64.4406 67.5628 64.6692 67.8163 64.966 67.9583C65.2627 68.1003 65.6036 68.1193 65.9143 68.0111C66.225 67.9029 66.4803 67.6763 66.6247 67.3807C66.769 67.0851 66.7907 66.7444 66.685 66.4328C66.5892 66.1572 66.5065 65.8772 66.4372 65.5938L65.9188 63.4764C65.7347 62.7245 65.0655 62.1994 64.2914 62.1994C63.5173 62.1994 62.8481 62.7245 62.6638 63.4766L62.1456 65.5938C61.2623 69.2024 58.5312 71.0861 56.3957 72.0309C56.3305 72.0597 56.2679 72.0941 56.2084 72.1338C55.717 72.4613 55.4238 73.0094 55.4238 73.5999C55.4238 74.1904 55.7172 74.7384 56.2084 75.066C56.2677 75.1056 56.3303 75.1398 56.3957 75.1689C58.5312 76.1135 61.2621 77.9973 62.1456 81.606L62.6639 83.7233C62.8481 84.4752 63.5173 85.0003 64.2914 85.0003C65.0655 85.0003 65.7347 84.4752 65.9188 83.7232L66.4372 81.606C67.3205 77.9973 70.0516 76.1137 72.1871 75.1689C72.2523 75.14 72.3148 75.1056 72.3742 75.0661C72.8656 74.7387 73.159 74.1906 73.159 73.5999C73.159 73.0092 72.8654 72.461 72.374 72.1335ZM78.287 17.2085C78.2276 17.1689 78.1649 17.1344 78.0996 17.1056C76.7182 16.4945 75.8607 15.5434 75.5511 14.2787L75.2899 13.2112C75.2125 12.8929 75.0303 12.6097 74.7726 12.4074C74.5149 12.2052 74.1966 12.0955 73.869 12.0961H73.8687C73.5411 12.0956 73.2229 12.2053 72.9652 12.4075C72.7075 12.6098 72.5254 12.8929 72.4481 13.2112L72.1868 14.2787C71.8772 15.5434 71.0197 16.4945 69.6383 17.1056C69.573 17.1345 69.5102 17.1689 69.4508 17.2085C69.2443 17.3459 69.0749 17.5323 68.9579 17.7511C68.8409 17.9699 68.7798 18.2142 68.7801 18.4623C68.7799 18.7104 68.8411 18.9546 68.9582 19.1733C69.0753 19.392 69.2447 19.5784 69.4513 19.7157C69.5106 19.7552 69.573 19.7896 69.6383 19.8184C71.0198 20.4296 71.8772 21.3807 72.1868 22.6455L72.4481 23.7127C72.5254 24.031 72.7076 24.3141 72.9653 24.5164C73.223 24.7187 73.5412 24.8285 73.8688 24.828H73.8692C74.1968 24.8285 74.5151 24.7189 74.7728 24.5166C75.0306 24.3143 75.2128 24.0312 75.2901 23.7128L75.5514 22.6455C75.861 21.3808 76.7185 20.4297 78.0999 19.8186C78.165 19.7897 78.2276 19.7555 78.2868 19.7159C78.4934 19.5785 78.6628 19.3922 78.78 19.1735C78.8971 18.9548 78.9583 18.7105 78.958 18.4624C78.9583 18.2143 78.8971 17.97 78.78 17.7512C78.663 17.5324 78.4936 17.346 78.287 17.2085ZM73.8688 20.2556C73.4528 19.5711 72.9045 18.9696 72.2334 18.4621C72.9046 17.9546 73.453 17.3531 73.869 16.6686C74.285 17.3531 74.8334 17.9546 75.5044 18.4621C74.8332 18.9696 74.2849 19.5709 73.8688 20.2556ZM10.9062 14.4437L11.2806 15.9727C11.3629 16.3114 11.5568 16.6126 11.831 16.8278C12.1052 17.0429 12.4438 17.1596 12.7924 17.159C13.1409 17.1597 13.4796 17.043 13.7538 16.8278C14.028 16.6126 14.2218 16.3114 14.3041 15.9727L14.6785 14.4437C15.2831 11.9744 17.1635 10.6803 18.6348 10.0293C18.7 10.0005 18.7626 9.96609 18.8219 9.92641C19.0438 9.77883 19.2258 9.57863 19.3516 9.34365C19.4773 9.10867 19.543 8.84621 19.5427 8.57969C19.543 8.31313 19.4774 8.05063 19.3517 7.81559C19.2259 7.58056 19.044 7.38029 18.822 7.23264C18.7626 7.19299 18.6999 7.15855 18.6346 7.12971C17.1635 6.47893 15.2831 5.18484 14.6785 2.71552L14.3041 1.18652C14.2218 0.847757 14.028 0.54653 13.7537 0.33131C13.4795 0.116091 13.1408 -0.000605056 12.7922 2.3593e-06C12.4436 -0.000576772 12.105 0.116112 11.8308 0.331296C11.5566 0.54648 11.3628 0.847649 11.2804 1.18635L10.9061 2.71535C10.3018 5.18467 8.42116 6.47876 6.9501 7.12954C6.88482 7.15838 6.82217 7.19282 6.76283 7.23247C6.31127 7.53363 6.04199 8.03715 6.04199 8.57969C6.04199 9.12223 6.3116 9.62575 6.763 9.92657C6.82227 9.96609 6.88485 10.0005 6.94993 10.0293C8.42116 10.6801 10.3018 11.9744 10.9062 14.4437ZM12.7922 4.85812C13.4793 6.36222 14.5891 7.61962 16.0775 8.57952C14.5893 9.53943 13.4793 10.797 12.7922 12.3011C12.105 10.797 10.9951 9.53959 9.5069 8.57952C10.9951 7.61962 12.105 6.36205 12.7922 4.85812Z" fill="white"/>
</g>
<defs>
<clipPath id="clip0_1749_5">
<rect width="85" height="85" fill="white"/>
</clipPath>
</defs>
</svg>
