<svg width="89" height="90" viewBox="0 0 89 90" fill="none" xmlns="http://www.w3.org/2000/svg">
<path d="M39.4006 2.86424C42.255 0.141447 46.745 0.141447 49.5994 2.86424C51.6196 4.79129 54.5536 5.41492 57.183 4.47617C60.8981 3.14978 64.9999 4.97602 66.5001 8.62441C67.5618 11.2066 69.9885 12.9696 72.7724 13.1815C76.7058 13.4809 79.7102 16.8176 79.5967 20.7607C79.5164 23.5515 81.0162 26.1491 83.4732 27.475C86.9448 29.3483 88.3323 33.6185 86.6248 37.1747C85.4164 39.6915 85.7299 42.6746 87.4352 44.8852C89.8447 48.0086 89.3754 52.4739 86.3692 55.0281C84.2415 56.8359 83.3146 59.6886 83.9734 62.4017C84.9042 66.2351 82.6592 70.1235 78.8739 71.2341C76.195 72.0201 74.1879 74.2492 73.6862 76.9957C72.9773 80.8763 69.3449 83.5154 65.4352 82.9904C62.6681 82.6189 59.9279 83.8389 58.3525 86.1438C56.1265 89.4006 51.7346 90.3341 48.3765 88.2643C45.9998 86.7994 43.0002 86.7994 40.6235 88.2643C37.2654 90.3341 32.8735 89.4006 30.6475 86.1438C29.0721 83.8389 26.3319 82.6189 23.5648 82.9904C19.6551 83.5154 16.0227 80.8763 15.3138 76.9957C14.8121 74.2492 12.805 72.0201 10.1261 71.2341C6.34083 70.1235 4.09585 66.2351 5.02664 62.4017C5.6854 59.6886 4.7585 56.8359 2.63083 55.0281C-0.375411 52.4739 -0.844741 48.0086 1.56476 44.8852C3.27009 42.6746 3.58362 39.6915 2.37517 37.1747C0.667712 33.6185 2.05519 29.3483 5.52678 27.475C7.9838 26.1491 9.48356 23.5515 9.40328 20.7607C9.28984 16.8176 12.2942 13.4809 16.2276 13.1815C19.0115 12.9696 21.4382 11.2066 22.4999 8.62441C24.0001 4.97602 28.1019 3.14978 31.817 4.47617C34.4464 5.41492 37.3804 4.79129 39.4006 2.86424Z" fill="#0F0F0F"/>
</svg>
