<svg width="85" height="85" viewBox="0 0 85 85" fill="none" xmlns="http://www.w3.org/2000/svg">
<g opacity="0.05" clip-path="url(#clip0_1732_79)">
<path fill-rule="evenodd" clip-rule="evenodd" d="M15.6285 15.2402C13.1315 17.6377 10.9623 20.3546 9.17728 23.3205L13.9255 30.3886C14.5863 31.3729 15.0386 32.482 15.2546 33.6477C15.4706 34.8133 15.4459 36.0109 15.1817 37.1666C14.9176 38.3223 14.4198 39.4118 13.7189 40.3679C13.018 41.324 12.1288 42.1266 11.1061 42.7262L3.7687 47.0313C4.09018 50.5502 4.87214 53.93 6.06246 57.11L14.5511 57.805C15.7327 57.902 16.8819 58.2398 17.928 58.7976C18.9742 59.3554 19.8951 60.1214 20.6341 61.0484C21.3731 61.9754 21.9146 63.0439 22.2252 64.188C22.5358 65.3321 22.609 66.5277 22.4402 67.7012L21.2325 76.129C24.0997 78.0144 27.2232 79.5306 30.5422 80.6166L36.3809 74.413C37.1932 73.5505 38.1734 72.8631 39.2611 72.3933C40.3489 71.9235 41.5212 71.6812 42.7061 71.6812C43.891 71.6812 45.0633 71.9235 46.1511 72.3933C47.2388 72.8631 48.219 73.5505 49.0313 74.413L54.8699 80.6166C58.1889 79.5306 61.3168 78.0101 64.1796 76.1247L62.9719 67.7012C62.8038 66.5281 62.8775 65.3329 63.1884 64.1893C63.4993 63.0457 64.0409 61.9778 64.7798 61.0512C65.5188 60.1247 66.4395 59.3591 67.4853 58.8016C68.5311 58.2441 69.6799 57.9064 70.8611 57.8094L79.3497 57.1143C80.54 53.93 81.322 50.5502 81.6435 47.0313L74.3017 42.7262C73.2794 42.1262 72.3906 41.3234 71.6901 40.3671C70.9896 39.4108 70.4922 38.3213 70.2286 37.1656C69.9649 36.0099 69.9404 34.8125 70.1568 33.647C70.3732 32.4815 70.8257 31.3726 71.4866 30.3886L76.2349 23.3205C74.4499 20.3546 72.2807 17.6376 69.7837 15.2402L61.8424 18.2942C60.7361 18.7191 59.5544 18.9132 58.3703 18.8645C57.1861 18.8158 56.0244 18.5254 54.9567 18.011C53.8889 17.4967 52.9377 16.7693 52.1615 15.8737C51.3853 14.9781 50.8005 13.9331 50.4432 12.8031L47.8757 4.68806C44.4442 4.23513 40.968 4.23513 37.5364 4.68806L34.9733 12.8031C34.6161 13.9342 34.0311 14.9801 33.2543 15.8765C32.4775 16.7729 31.5253 17.5007 30.4566 18.0151C29.3878 18.5296 28.225 18.8197 27.0399 18.8677C25.8547 18.9157 24.6723 18.7205 23.5654 18.2942L15.6285 15.2402ZM17.1055 11.1566C16.3858 10.866 15.5983 10.7856 14.8347 10.9248C14.071 11.064 13.3626 11.4171 12.7917 11.9429C9.88864 14.6994 7.37875 17.8422 5.33263 21.283C4.94548 21.9564 4.75751 22.7258 4.79058 23.5018C4.82365 24.2778 5.0764 25.0284 5.51943 25.6664L10.3155 32.804C10.6459 33.296 10.8722 33.8504 10.9804 34.4332C11.0886 35.0159 11.0764 35.6146 10.9445 36.1925C10.8127 36.7703 10.564 37.3151 10.2137 37.7932C9.86348 38.2714 9.4191 38.6728 8.90793 38.9728L1.49232 43.3257C0.818151 43.7085 0.266151 44.2744 -0.0997983 44.9578C-0.465748 45.6413 -0.630689 46.4144 -0.575533 47.1877C-0.227994 51.2583 0.684296 55.1724 2.07445 58.8476C2.6392 60.3247 4.0337 61.2978 5.61066 61.4281L14.1949 62.1319C14.7857 62.1804 15.3603 62.3493 15.8833 62.6282C16.4064 62.9071 16.8669 63.2901 17.2364 63.7536C17.6059 64.2171 17.8766 64.7513 18.0319 65.3234C18.1872 65.8954 18.2238 66.4932 18.1394 67.08L16.9187 75.5947C16.7969 76.3596 16.8943 77.1434 17.1995 77.8554C17.5047 78.5673 18.0053 79.1782 18.6434 79.6174C21.945 81.82 25.5637 83.5794 29.4171 84.8131C30.1582 85.0391 30.9481 85.0505 31.6955 84.846C32.4428 84.6414 33.1169 84.2294 33.6397 83.6576L39.5435 77.3888C39.9496 76.9576 40.4397 76.6139 40.9836 76.379C41.5275 76.1441 42.1137 76.0229 42.7061 76.0229C43.2985 76.0229 43.8847 76.1441 44.4286 76.379C44.9724 76.6139 45.4625 76.9576 45.8687 77.3888L51.7725 83.6576C52.8586 84.8088 54.4877 85.2997 55.9951 84.8131C59.8096 83.5885 63.4355 81.8399 66.7688 79.6174C67.4068 79.1782 67.9075 78.5673 68.2127 77.8554C68.5179 77.1434 68.6153 76.3596 68.4935 75.5947L67.2727 67.08C67.1884 66.4932 67.2249 65.8954 67.3802 65.3234C67.5356 64.7513 67.8063 64.2171 68.1758 63.7536C68.5453 63.2901 69.0058 62.9071 69.5288 62.6282C70.0519 62.3493 70.6265 62.1804 71.2173 62.1319L79.8015 61.4281C80.5745 61.3759 81.3169 61.1059 81.9427 60.6492C82.5686 60.1925 83.0522 59.5679 83.3377 58.8476C84.7279 55.1724 85.6402 51.2583 85.9877 47.1877C86.0429 46.4144 85.8779 45.6413 85.512 44.9578C85.146 44.2744 84.594 43.7085 83.9198 43.3257L76.5042 38.9728C75.9931 38.6728 75.5487 38.2714 75.1984 37.7932C74.8482 37.3151 74.5995 36.7703 74.4677 36.1925C74.3358 35.6146 74.3236 35.0159 74.4318 34.4332C74.54 33.8504 74.7662 33.296 75.0967 32.804L79.8927 25.662C80.3349 25.0245 80.5872 24.2747 80.6202 23.4996C80.6533 22.7245 80.4658 21.9559 80.0795 21.283C78.0334 17.8422 75.5235 14.6994 72.6205 11.9429C72.0509 11.4164 71.3436 11.0623 70.5808 10.9216C69.818 10.7808 69.031 10.8593 68.311 11.1479L60.2829 14.2324C59.7297 14.4448 59.1389 14.5419 58.5468 14.5175C57.9547 14.4932 57.3738 14.3479 56.84 14.0908C56.3061 13.8336 55.8305 13.4699 55.4424 13.0221C55.0543 12.5743 54.7619 12.0518 54.5832 11.4868L51.9897 3.28488C51.7667 2.54136 51.3372 1.87642 50.7512 1.36733C50.1652 0.858241 49.4468 0.525919 48.6794 0.408992C44.7159 -0.136331 40.6963 -0.136331 36.7328 0.408992C35.9654 0.525919 35.2469 0.858241 34.6609 1.36733C34.075 1.87642 33.6455 2.54136 33.4225 3.28488L30.8289 11.4868C30.6503 12.0518 30.3579 12.5743 29.9698 13.0221C29.5817 13.4699 29.1061 13.8336 28.5722 14.0908C28.0383 14.3479 27.4575 14.4932 26.8654 14.5175C26.2733 14.5419 25.6825 14.4448 25.1293 14.2324L17.1055 11.1566Z" fill="white"/>
<path fill-rule="evenodd" clip-rule="evenodd" d="M51.4814 53.1003C51.906 52.7726 52.4273 52.5952 52.9636 52.596C53.4998 52.5968 54.0207 52.7757 54.4442 53.1046C55.3739 53.8692 55.5172 55.2507 54.644 56.0761C51.6915 58.868 47.8539 60.5368 43.7984 60.7925C39.7429 61.0481 35.7261 59.8745 32.4463 57.4755C29.1665 55.0765 26.8312 51.604 25.8463 47.6617C24.8614 43.7193 25.2893 39.5565 27.0555 35.8969C28.8218 32.2373 31.8147 29.3124 35.5139 27.6308C39.2131 25.9492 43.3847 25.6172 47.3034 26.6924C51.222 27.7677 54.6399 30.1823 56.9628 33.5164C59.2857 36.8506 60.3667 40.8933 60.0179 44.9418C59.9136 46.1408 58.745 46.888 57.5677 46.6361C57.047 46.5091 56.5831 46.2128 56.249 45.7938C55.9148 45.3747 55.7293 44.8565 55.7214 44.3206C55.716 44.2222 55.716 44.1236 55.7214 44.0252C55.8545 41.0201 54.9439 38.0614 53.1441 35.6512C51.3444 33.2409 48.7663 31.5274 45.8472 30.8014C42.9281 30.0753 39.8477 30.3814 37.1285 31.6677C34.4093 32.954 32.2188 35.1413 30.9286 37.8586C29.6383 40.5759 29.3277 43.6558 30.0495 46.576C30.7713 49.4962 32.481 52.0768 34.8887 53.88C37.2963 55.6833 40.2536 56.5982 43.2589 56.4695C46.2642 56.3409 49.1325 55.1766 51.3772 53.1741C51.4127 53.1472 51.4489 53.1211 51.4858 53.0959L51.4814 53.1003Z" fill="white"/>
</g>
<defs>
<clipPath id="clip0_1732_79">
<rect width="85" height="85" fill="white"/>
</clipPath>
</defs>
</svg>
