<svg width="14" height="13" viewBox="0 0 14 13" fill="none" xmlns="http://www.w3.org/2000/svg">
<path d="M13.9996 0.378295V11.3407C13.9996 11.4025 13.9848 11.4634 13.9566 11.518C13.9285 11.5727 13.8877 11.6193 13.838 11.654C13.7882 11.6886 13.731 11.7102 13.6712 11.7168C13.6115 11.7234 13.5511 11.7148 13.4953 11.6918L6.64947 8.87325L12.7772 1.16294C12.7892 1.14838 12.7954 1.12972 12.7945 1.11067C12.7937 1.09163 12.7859 1.07362 12.7727 1.06024C12.7595 1.04685 12.7419 1.03909 12.7234 1.03849C12.7049 1.03789 12.6868 1.04451 12.6729 1.05701L4.44444 8.11659L0.265904 6.88703C0.193639 6.86563 0.129491 6.82192 0.0821145 6.76181C0.0347383 6.7017 0.00641481 6.62807 0.000966244 6.55086C-0.00448233 6.47365 0.0132063 6.39659 0.051645 6.33005C0.0900836 6.26352 0.147422 6.21073 0.215924 6.1788L13.4814 0.0332605C13.5373 0.00736237 13.5987 -0.00369824 13.6599 0.0010875C13.7211 0.00587325 13.7801 0.0263531 13.8317 0.0606588C13.8832 0.0949644 13.9255 0.142004 13.9549 0.197487C13.9842 0.252969 13.9996 0.315129 13.9996 0.378295ZM5.72335 12.7254C5.74167 12.7916 5.77718 12.8513 5.82606 12.8983C5.87493 12.9452 5.93532 12.9776 6.00072 12.9918C6.06612 13.0061 6.13405 13.0017 6.19721 12.9791C6.26036 12.9566 6.31635 12.9167 6.35914 12.8638L8.08347 10.7331L4.80385 9.4135L5.72335 12.7254Z" fill="white"/>
</svg>
