<svg width="38" height="40" viewBox="0 0 38 40" fill="none" xmlns="http://www.w3.org/2000/svg">
<path opacity="0.3" fill-rule="evenodd" clip-rule="evenodd" d="M15.2246 0C14.1895 0 13.3368 0.874102 13.3368 1.93549V8.78777C13.3368 9.01933 13.2178 9.2316 13.0221 9.34738C12.8265 9.46317 12.5884 9.46317 12.3927 9.34738L6.60424 5.92109C5.70766 5.39057 4.54335 5.71026 4.02568 6.62933C2.77741 8.88253 1.51328 11.1264 0.250309 13.3707C-0.267379 14.2898 0.0444726 15.4836 0.941037 16.0144L6.72953 19.4407C6.92518 19.5565 7.04422 19.7687 7.04422 20.0003C7.04422 20.2319 6.92405 20.4441 6.7284 20.5599L0.941065 23.9862C0.0444868 24.5167 -0.267039 25.7109 0.250337 26.6299C1.5204 28.8701 2.77266 31.121 4.02571 33.3713C4.5434 34.2904 5.70885 34.6101 6.60543 34.0795L12.3931 30.653C12.5887 30.5372 12.8279 30.5372 13.0236 30.653C13.2192 30.7687 13.3382 30.9796 13.3382 31.2111V38.0645C13.3382 39.1259 14.191 40 15.2261 40H22.7754C23.8105 40 24.6632 39.1259 24.6632 38.0645V31.2122C24.6632 30.9807 24.7822 30.7684 24.9779 30.6526C25.1735 30.5368 25.4116 30.5368 25.6073 30.6526L31.3958 34.0789C32.2923 34.6094 33.4566 34.2897 33.9743 33.3707C35.2226 31.1175 36.4867 28.8736 37.7497 26.6293C38.2674 25.7102 37.9555 24.5164 37.059 23.9856L31.2702 20.5585C31.0745 20.4427 30.9555 20.2316 30.9555 20C30.9555 19.7685 31.0757 19.5562 31.2713 19.4404L37.0586 16.0141C37.9552 15.4836 38.2667 14.2894 37.7494 13.3704C36.4793 11.1302 35.2271 8.87937 33.974 6.62905C33.4563 5.70997 32.292 5.39026 31.3954 5.92081L25.6069 9.34739C25.4113 9.46317 25.1732 9.46317 24.9776 9.34739C24.7819 9.23161 24.6629 9.01934 24.6629 8.78777V1.93549C24.6629 0.874109 23.8102 7.38329e-06 22.7751 7.38329e-06H15.2243L15.2246 0ZM15.2246 1.29032H22.7754C23.1305 1.29032 23.4047 1.57143 23.4047 1.93549V8.78777C23.4047 9.47815 23.7655 10.1198 24.3485 10.4649C24.9318 10.8102 25.653 10.8102 26.2363 10.4649L32.0248 7.0375C32.3322 6.85547 32.7065 6.95916 32.8838 7.27453C34.1318 9.52825 35.3965 11.7716 36.6606 14.0159C36.8382 14.331 36.7369 14.7147 36.4296 14.8967L30.6423 18.3229C30.059 18.6683 29.6971 19.3097 29.6971 20.0001C29.6971 20.6904 30.0578 21.3307 30.6408 21.676L36.4307 25.1023C36.738 25.2843 36.8367 25.6691 36.6594 25.9845C35.3905 28.2256 34.1377 30.4762 32.8841 32.7259C32.7065 33.041 32.3324 33.1447 32.0251 32.9629L26.2361 29.5352C25.6528 29.1899 24.9316 29.1899 24.3483 29.5352C23.765 29.8806 23.4045 30.522 23.4045 31.2124V38.0647C23.4045 38.4287 23.1303 38.7098 22.7751 38.7098H15.2244C14.8693 38.7098 14.595 38.4287 14.595 38.0647L14.5962 31.211C14.5962 30.5206 14.2354 29.8803 13.6524 29.535C13.0691 29.1897 12.3467 29.1911 11.7634 29.5362L5.97606 32.9625C5.66872 33.1445 5.29156 33.0417 5.11567 32.7254C3.86768 30.4717 2.60298 28.2283 1.33885 25.984C1.16129 25.669 1.26251 25.2839 1.56984 25.1018L7.35718 21.6755C7.94047 21.3302 8.3024 20.69 8.3024 19.9996C8.3024 19.3092 7.94163 18.6689 7.35863 18.3237L1.56876 14.8974C1.26142 14.7153 1.16275 14.3305 1.34002 14.0152C2.60893 11.774 3.86176 9.5235 5.11539 7.27377C5.29295 6.95868 5.66701 6.85499 5.97434 7.03673L11.7628 10.4641C12.3461 10.8095 13.0673 10.8095 13.6507 10.4641C14.2339 10.1188 14.5944 9.47736 14.5944 8.787L14.5953 1.9356C14.5953 1.57155 14.8695 1.29044 15.2246 1.29044L15.2246 1.29032Z" fill="#75DAB4"/>
</svg>
