<svg width="237" height="55" viewBox="0 0 237 55" fill="none" xmlns="http://www.w3.org/2000/svg">
<mask id="mask0_1623_11" style="mask-type:alpha" maskUnits="userSpaceOnUse" x="0" y="0" width="237" height="55">
<rect width="237" height="55" fill="#D9D9D9"/>
</mask>
<g mask="url(#mask0_1623_11)">
<g opacity="0.3">
<path d="M164.75 24.3303C164.75 22.998 163.914 21.7312 162.713 20.7505C161.279 19.5791 159.378 18.8429 157.695 18.8429H145.506C142.483 18.8429 140.468 18.5876 137.86 16.2964C136.129 14.7773 134.961 12.6978 134.961 10.3868C134.961 8.02812 136.127 5.98439 137.823 4.49406C139.645 2.89444 142.114 1.9297 144.382 1.9297H166.231V4.89943H144.382C142.798 4.89943 141.061 5.58498 139.765 6.72061C138.671 7.68137 137.922 8.95908 137.922 10.3858C137.922 11.7808 138.68 13.0833 139.801 14.0689C141.063 15.1787 142.759 15.8732 144.382 15.8732H157.108C159.951 15.8732 162.107 16.4365 164.576 18.4544C166.423 19.9637 167.711 22.0233 167.711 24.3303C167.711 26.7059 166.437 28.7178 164.64 30.1843C162.639 31.8187 159.933 32.7864 157.695 32.7864H133.969V29.8177H157.695C159.314 29.8177 161.294 29.0993 162.779 27.8872C163.932 26.9443 164.75 25.7123 164.75 24.3303ZM176.706 31.2554V32.7397H173.747V1.93766H176.706V15.8732H197.574C199.08 15.8732 200.447 15.2572 201.433 14.2656L201.441 14.2597C201.949 13.7515 202.352 13.1478 202.627 12.483C202.901 11.8182 203.043 11.1055 203.042 10.3858V1.92871H206V10.3858C205.999 11.4948 205.78 12.5926 205.356 13.6165C204.931 14.6404 204.31 15.5703 203.527 16.3531L203.521 16.359C203.154 16.7267 202.754 17.0605 202.326 17.3556C202.758 17.6517 203.158 17.9865 203.527 18.3551L203.523 18.3581C204.308 19.1407 204.93 20.0711 205.355 21.0958C205.78 22.1205 206 23.2194 206 24.3293V32.7854H203.042V24.3293C203.043 23.6096 202.901 22.8969 202.627 22.2322C202.352 21.5674 201.949 20.9636 201.441 20.4555H201.433C200.928 19.9448 200.326 19.5393 199.664 19.2624C199.002 18.9855 198.292 18.8426 197.574 18.8419H176.706V31.2554ZM97.2326 4.89943V1.9297H118.061C120.383 1.9297 123.272 3.26305 125.479 5.14682H125.485C127.597 6.94813 129.155 9.31377 129.155 11.6198V22.5976C129.155 25.0596 127.824 27.615 125.903 29.5355C123.979 31.457 121.417 32.7854 118.963 32.7854H104.18C103.074 32.7852 101.978 32.5659 100.957 32.14C99.9351 31.7141 99.0073 31.09 98.2266 30.3035C97.4427 29.5201 96.8207 28.5891 96.3961 27.5639C95.9715 26.5387 95.7528 25.4395 95.7524 24.3293C95.7524 22.0114 96.7049 19.8951 98.2335 18.362C99.0128 17.5751 99.9392 16.9501 100.96 16.5231C101.98 16.096 103.074 15.8751 104.18 15.8732H126.196V11.6198C126.196 10.2626 125.078 8.69976 123.566 7.40814L123.568 7.40516C121.847 5.93769 119.697 4.89843 118.061 4.89843L97.2326 4.89943ZM126.196 18.8429H104.18C103.463 18.8453 102.753 18.9895 102.092 19.2674C101.431 19.5453 100.83 19.9514 100.326 20.4624C99.8163 20.969 99.4117 21.5714 99.1347 22.2351C98.8578 22.8988 98.7141 23.6108 98.7117 24.3303C98.7117 25.8375 99.3275 27.2096 100.319 28.2032C100.824 28.7141 101.426 29.1198 102.088 29.3968C102.751 29.6739 103.461 29.8169 104.179 29.8177H118.961C120.611 29.8177 122.411 28.844 123.821 27.4371C125.223 26.0352 126.195 24.2449 126.195 22.5985L126.196 18.8429Z" fill="white"/>
<path fill-rule="evenodd" clip-rule="evenodd" d="M108.084 47.7072L110.015 48.1861C109.609 49.7778 108.884 50.9879 107.834 51.8166C106.784 52.6452 105.502 53.0605 103.984 53.0605C102.415 53.0605 101.139 52.7425 100.154 52.1057C99.1722 51.4688 98.4237 50.5438 97.9099 49.3307C97.397 48.1136 97.1406 46.8081 97.1406 45.4092C97.1406 43.892 97.4297 42.5646 98.0109 41.427C98.5901 40.2914 99.4148 39.43 100.486 38.8438C101.556 38.2596 102.734 37.9645 104.021 37.9645C105.479 37.9645 106.705 38.3371 107.699 39.0763C108.692 39.8155 109.386 40.8617 109.777 42.2099L107.88 42.66C107.542 41.5909 107.051 40.815 106.411 40.3271C105.768 39.8403 104.959 39.5959 103.987 39.5959C102.867 39.5959 101.932 39.8651 101.181 40.4066C100.434 40.9416 99.8779 41.7038 99.596 42.5805C99.292 43.4865 99.1378 44.4363 99.1396 45.3923C99.1396 46.6402 99.3197 47.7291 99.6791 48.6561C100.04 49.5821 100.601 50.2785 101.36 50.7366C102.103 51.193 102.958 51.4322 103.828 51.4271C104.906 51.4271 105.818 51.1151 106.565 50.4862C107.313 49.8613 107.818 48.9333 108.084 47.7072ZM111.802 45.7122C111.802 43.2899 112.452 41.3942 113.754 40.0221C115.055 38.652 116.734 37.9655 118.792 37.9655C120.139 37.9655 121.353 38.2874 122.436 38.9302C123.519 39.573 124.341 40.4712 124.909 41.6257C125.477 42.7802 125.759 44.0867 125.759 45.5433C125.759 47.0276 125.461 48.353 124.864 49.5215C124.267 50.6899 123.422 51.5722 122.326 52.1663C121.232 52.7624 120.05 53.0605 118.781 53.0605C117.407 53.0605 116.18 52.7306 115.098 52.0729C114.031 51.4307 113.175 50.4878 112.638 49.3615C112.083 48.2259 111.797 46.977 111.802 45.7122ZM113.8 45.7489C113.8 47.5075 114.273 48.8925 115.218 49.9079C116.163 50.9224 117.346 51.4291 118.771 51.4291C120.223 51.4291 121.416 50.9164 122.354 49.8921C123.292 48.8697 123.76 47.4161 123.76 45.5413C123.76 44.35 123.561 43.3118 123.159 42.4265C122.759 41.5413 122.173 40.8567 121.4 40.3659C120.629 39.8771 119.762 39.6326 118.802 39.6326C117.437 39.6326 116.262 40.1026 115.279 41.0455C114.292 41.9844 113.8 43.5542 113.8 45.7489ZM126.717 52.822L132.296 38.2019H134.454L140.375 52.822H138.178L136.505 48.4037H130.333L128.761 52.822H126.717ZM130.909 46.8419H135.926L134.383 42.7743C134.001 41.7587 133.645 40.7337 133.315 39.7002C133.099 40.6674 132.828 41.6217 132.506 42.5587L130.909 46.8419ZM152.282 47.7072L154.212 48.1861C153.808 49.7778 153.08 50.9879 152.03 51.8166C150.981 52.6452 149.697 53.0605 148.182 53.0605C146.612 53.0605 145.336 52.7425 144.352 52.1057C143.369 51.4688 142.621 50.5438 142.108 49.3307C141.593 48.1136 141.337 46.8081 141.337 45.4092C141.337 43.892 141.627 42.5646 142.209 41.427C142.787 40.2914 143.611 39.43 144.682 38.8438C145.754 38.2596 146.931 37.9645 148.217 37.9645C149.675 37.9645 150.901 38.3371 151.897 39.0763C152.891 39.8155 153.583 40.8617 153.974 42.2099L152.077 42.66C151.74 41.5909 151.249 40.815 150.608 40.3271C149.964 39.8403 149.157 39.5959 148.185 39.5959C147.065 39.5959 146.13 39.8651 145.377 40.4066C144.631 40.9422 144.075 41.7043 143.793 42.5805C143.489 43.4865 143.335 44.4363 143.337 45.3923C143.337 46.6402 143.517 47.7291 143.876 48.6561C144.236 49.5821 144.799 50.2785 145.556 50.7366C146.317 51.1986 147.141 51.4271 148.026 51.4271C149.103 51.4271 150.016 51.1151 150.764 50.4862C151.511 49.8613 152.018 48.9333 152.282 47.7072ZM156.676 52.822V38.2019H158.607V44.1871H166.197V38.2019H168.127V52.822H166.197V45.9218H158.607V52.822H156.676ZM171.675 52.822V38.2019H173.609V52.822H171.675ZM177.019 52.822V38.2019H179.01L186.672 49.6884V38.2019H188.535V52.822H186.544L178.88 41.3386V52.822H177.019ZM198.555 47.1111V45.3784H204.72V50.7962C203.775 51.5533 202.801 52.1196 201.795 52.4981C200.805 52.8698 199.757 53.0603 198.701 53.0605C197.272 53.0605 195.974 52.7555 194.808 52.1464C193.64 51.5374 192.761 50.6521 192.165 49.4897C191.568 48.3272 191.271 47.0267 191.271 45.587C191.271 44.1622 191.568 42.8339 192.158 41.6029C192.752 40.3689 193.602 39.4548 194.714 38.8587C195.822 38.2625 197.102 37.9645 198.548 37.9645C199.6 37.9645 200.549 38.1354 201.399 38.4732C202.247 38.815 202.915 39.2899 203.399 39.9019C203.88 40.5129 204.247 41.3127 204.499 42.2983L202.722 42.7752C202.505 42.0281 202.236 41.4399 201.914 41.0117C201.593 40.5845 201.132 40.2417 200.534 39.9834C199.904 39.7198 199.226 39.5883 198.542 39.5969C197.668 39.5969 196.913 39.735 196.276 40.0022C195.638 40.2715 195.124 40.6272 194.735 41.0673C194.351 41.4953 194.042 41.9854 193.822 42.5169C193.453 43.4151 193.27 44.3977 193.27 45.4568C193.27 46.7644 193.491 47.8553 193.934 48.7306C194.378 49.6079 195.025 50.2597 195.871 50.6849C196.708 51.1111 197.635 51.3311 198.573 51.3267C199.401 51.3267 200.207 51.1658 200.996 50.8439C201.785 50.522 202.382 50.1802 202.79 49.8136V47.1101L198.555 47.1111Z" fill="#75DAB4"/>
<path fill-rule="evenodd" clip-rule="evenodd" d="M85.2088 16.8C83.833 13.522 81.8149 10.5548 79.2744 8.07459C76.7279 5.547 73.8023 3.56288 70.4698 2.17489C67.0293 0.734237 63.4542 0 59.688 0C55.9219 0 52.3448 0.735231 48.9043 2.17489C45.5737 3.56188 42.6471 5.54601 40.0997 8.07459C37.5599 10.5548 35.5429 13.522 34.1683 16.8C32.7315 20.1874 31.9939 23.8319 32 27.5134C32 31.2382 32.7317 34.826 34.1683 38.2259C35.5428 41.5041 37.5599 44.4716 40.0997 46.9522C42.6461 49.4808 45.5728 51.462 48.9043 52.8519C52.3458 54.2936 55.9228 55 59.688 55C63.4532 55 67.0293 54.2936 70.4698 52.8519C73.8023 51.463 76.7279 49.4808 79.2744 46.9522C81.8152 44.4721 83.833 41.5045 85.2078 38.2259C86.6653 34.8444 87.4122 31.1976 87.4018 27.5134C87.4116 23.829 86.6651 20.1821 85.2088 16.8Z" fill="white"/>
<path fill-rule="evenodd" clip-rule="evenodd" d="M80.1148 38.9591C81.4083 35.9454 82.0718 32.6974 82.0642 29.416C82.0642 26.0996 81.4147 22.9182 80.1148 19.873C78.8794 16.952 77.0741 14.3085 74.8051 12.0984C72.5413 9.84562 69.8641 8.05436 66.9212 6.82367C63.86 5.54597 60.6621 4.92102 57.3038 4.92102C53.9178 4.92102 50.7209 5.54597 47.6596 6.82367C44.7235 8.06739 42.0482 9.85708 39.7748 12.0984C37.5059 14.3084 35.7008 16.9519 34.4661 19.873C33.1717 22.8864 32.5075 26.1345 32.5147 29.416C32.5147 32.7345 33.1642 35.9148 34.4661 38.9591C35.7072 41.877 37.5114 44.5196 39.7748 46.7346C42.0787 48.991 44.7053 50.7575 47.6596 51.9816C50.7149 53.2606 53.9934 53.9162 57.3038 53.91C60.6621 53.91 63.86 53.2583 66.9212 51.9816C69.868 50.7708 72.5472 48.9877 74.8051 46.7346C77.0684 44.5193 78.8729 41.8768 80.1148 38.9591Z" fill="#161A1E"/>
<path fill-rule="evenodd" clip-rule="evenodd" d="M78.2177 37.8981C79.3539 35.2162 79.9346 32.3304 79.9245 29.4162C79.9245 26.4534 79.3563 23.6258 78.2177 20.9342C77.1247 18.3365 75.532 15.9806 73.5307 14.0012C71.5365 12.0212 69.1826 10.4431 66.5964 9.35241C63.8876 8.21082 61.0421 7.63953 58.0888 7.63953C55.1354 7.63953 52.291 8.21082 49.5842 9.35241C46.9968 10.4426 44.6418 12.0207 42.6468 14.0012C40.6471 15.9816 39.0549 18.3373 37.9609 20.9342C36.8251 23.6163 36.2444 26.502 36.254 29.4162C36.254 32.3809 36.8223 35.2086 37.9609 37.8981C39.0727 40.5082 40.6172 42.8212 42.6468 44.8063C44.6433 46.7915 46.9975 48.3778 49.5842 49.4809C52.291 50.6215 55.1354 51.1928 58.0888 51.1928C61.0421 51.1928 63.8866 50.6225 66.5964 49.4809C69.1891 48.3908 71.5447 46.8028 73.5307 44.8063C75.5633 42.8212 77.1078 40.5082 78.2177 37.8981Z" fill="white"/>
<path fill-rule="evenodd" clip-rule="evenodd" d="M74.2078 38.4705C75.2133 36.078 75.7291 33.5071 75.7246 30.9105C75.7246 28.2757 75.2097 25.7739 74.2078 23.3814C73.2049 21.0426 71.8237 18.976 70.008 17.2095C68.2265 15.4348 66.12 14.0225 63.8042 13.0505C61.3927 12.0406 58.8048 11.5231 56.1917 11.5284C53.5651 11.5284 51.0176 12.045 48.6058 13.0505C46.279 14.0165 44.1625 15.4293 42.3754 17.2095C40.5874 18.977 39.2062 21.0436 38.2043 23.3814C37.1762 25.757 36.65 28.3206 36.6588 30.9105C36.6588 33.5494 37.1736 36.076 38.2043 38.4705C39.1936 40.7735 40.609 42.8674 42.3754 44.6414C44.162 46.4228 46.2786 47.8363 48.6058 48.8024C51.0091 49.8086 53.5876 50.3256 56.1917 50.3235C58.848 50.3235 61.3934 49.8069 63.8042 48.8024C66.1203 47.8301 68.227 46.4171 70.008 44.6414C71.7919 42.8759 73.2181 40.7804 74.2078 38.4705Z" fill="#161A1E"/>
<path fill-rule="evenodd" clip-rule="evenodd" d="M71.2284 37.1916C72.0616 35.2518 72.486 33.1599 72.4749 31.0475C72.4749 28.9015 72.069 26.8607 71.2284 24.9034C70.4364 23.0282 69.2964 21.3211 67.8691 19.8731C66.4412 18.4357 64.748 17.291 62.8842 16.5029C60.9512 15.6666 58.8667 15.2404 56.7617 15.2511C54.6563 15.2402 52.5715 15.6664 50.6381 16.5029C48.7736 17.2903 47.08 18.435 45.6522 19.8731C44.2084 21.313 43.0583 23.0217 42.2662 24.9034C41.4551 26.8492 41.0407 28.9383 41.0474 31.0475C41.0474 33.1956 41.4544 35.2334 42.2662 37.1916C43.058 39.0732 44.2082 40.7816 45.6522 42.221C47.0797 43.6596 48.7734 44.8048 50.6381 45.5921C52.5886 46.4366 54.6202 46.844 56.7617 46.844C58.9002 46.844 60.9328 46.4366 62.8842 45.5921C64.7489 44.8051 66.4423 43.6599 67.8691 42.221C69.2965 40.7734 70.4365 39.0667 71.2284 37.1916Z" fill="white"/>
<path fill-rule="evenodd" clip-rule="evenodd" d="M41.3457 32.1363C41.3457 34.0648 41.7249 35.887 42.4585 37.6277C43.1522 39.3016 44.1749 40.8181 45.4653 42.0867C46.7433 43.3765 48.2619 44.4012 49.9345 45.1022C51.6649 45.8412 53.5269 46.2201 55.4075 46.2159C57.2873 46.2147 59.1479 45.8361 60.8796 45.1022C62.5471 44.4066 64.058 43.3811 65.322 42.0867C66.6117 40.8116 67.6423 39.2972 68.3565 37.6277C69.0872 35.887 69.4396 34.0648 69.4396 32.1363C69.4396 30.2327 69.0872 28.4105 68.3565 26.6698C67.6367 24.9957 66.607 23.4739 65.322 22.1849C64.0436 20.9075 62.5364 19.8838 60.8796 19.1675C59.1461 18.4423 57.2856 18.0724 55.4075 18.0796C53.4838 18.0796 51.669 18.4323 49.9345 19.1675C48.2726 19.889 46.7575 20.9119 45.4653 22.1849C44.1792 23.4671 43.1574 24.9911 42.4585 26.6698C41.7238 28.398 41.3453 30.2575 41.3457 32.1363Z" fill="#161A1E"/>
</g>
</g>
</svg>
