<svg width="237" height="55" viewBox="0 0 237 55" fill="none" xmlns="http://www.w3.org/2000/svg">
<mask id="mask0_1623_6" style="mask-type:alpha" maskUnits="userSpaceOnUse" x="0" y="0" width="237" height="55">
<rect width="237" height="55" fill="#D9D9D9"/>
</mask>
<g mask="url(#mask0_1623_6)">
<g opacity="0.3">
<path fill-rule="evenodd" clip-rule="evenodd" d="M146.106 31.0545L142.295 27.4958L146.199 23.8445C146.283 23.7617 146.329 23.6496 146.329 23.5326C146.329 23.4157 146.283 23.3035 146.199 23.2208L145.882 22.9047L141.648 26.8608L137.677 23.1581C137.636 23.1171 137.587 23.0845 137.533 23.0622C137.479 23.04 137.421 23.0286 137.362 23.0286C137.304 23.0286 137.246 23.04 137.192 23.0622C137.138 23.0845 137.089 23.1171 137.048 23.1581L136.732 23.4737L141.011 27.4952L136.778 31.4835L137.094 31.7967C137.178 31.8794 137.291 31.9258 137.409 31.9258C137.526 31.9258 137.64 31.8794 137.723 31.7967L141.652 28.1291L145.792 31.9932L146.105 31.6788C146.148 31.6383 146.181 31.5898 146.204 31.5362C146.227 31.4826 146.239 31.425 146.239 31.3668C146.239 31.3085 146.227 31.2509 146.204 31.1972C146.182 31.1436 146.148 31.0951 146.106 31.0545ZM127.415 31.8842V25.3814C127.415 24.7592 127.664 24.1624 128.107 23.7223C128.551 23.2821 129.152 23.0346 129.779 23.034H133.202C133.829 23.0347 134.431 23.2824 134.874 23.7225C135.317 24.1627 135.566 24.7593 135.566 25.3814L135.569 31.4411C135.569 31.6872 135.37 31.8842 135.122 31.8842H134.677L134.675 25.3786C134.675 24.9919 134.52 24.6209 134.245 24.3473C133.969 24.0737 133.596 23.9199 133.206 23.9196H129.78C129.389 23.9196 129.015 24.0732 128.739 24.3467C128.462 24.6203 128.307 24.9914 128.306 25.3786L128.311 31.4423C128.31 31.5599 128.262 31.6725 128.178 31.7553C128.094 31.8382 127.98 31.8845 127.862 31.8842H127.415ZM108.587 25.3594C108.561 24.5274 107.908 23.9021 107.111 23.9021H105.084C104.693 23.9012 104.318 24.0542 104.041 24.3275C103.764 24.6008 103.608 24.9719 103.607 25.3594L103.61 31.4225C103.61 31.6686 103.41 31.8656 103.163 31.8656H102.718V25.3605C102.718 25.0526 102.779 24.7477 102.898 24.4632C103.017 24.1788 103.191 23.9204 103.411 23.7028C103.631 23.4853 103.891 23.3128 104.178 23.1953C104.465 23.0778 104.773 23.0176 105.083 23.0182H107.108C107.901 23.0182 108.6 23.402 109.029 23.9941C109.248 23.6914 109.537 23.4449 109.871 23.2752C110.205 23.1054 110.575 23.0173 110.951 23.0182H112.977C113.287 23.018 113.594 23.0785 113.881 23.1961C114.167 23.3138 114.428 23.4863 114.647 23.7038C114.867 23.9214 115.041 24.1796 115.159 24.4639C115.278 24.7482 115.339 25.0528 115.339 25.3605L115.342 31.4225C115.342 31.4804 115.331 31.5378 115.309 31.5915C115.287 31.6451 115.254 31.6939 115.213 31.735C115.172 31.7762 115.123 31.8089 115.069 31.8313C115.016 31.8537 114.958 31.8654 114.9 31.8656H114.45V25.3594C114.45 25.1679 114.412 24.9782 114.338 24.8013C114.264 24.6244 114.156 24.4637 114.019 24.3283C113.882 24.193 113.72 24.0856 113.542 24.0125C113.363 23.9394 113.172 23.9018 112.979 23.9021H110.951C110.56 23.9012 110.184 24.0541 109.907 24.3275C109.629 24.6008 109.473 24.9721 109.471 25.36L109.476 31.422C109.476 31.668 109.277 31.865 109.032 31.865H108.587V25.3594ZM123.247 23.0278H119.479C118.876 23.027 118.295 23.2557 117.857 23.6668C117.419 24.0779 117.156 24.6401 117.123 25.2375C117.123 25.4808 117.321 25.6789 117.568 25.6789H117.917L118.008 25.2273C118.176 24.3711 118.704 23.9105 119.484 23.9105H123.249C123.446 23.9051 123.642 23.9388 123.825 24.0098C124.009 24.0807 124.176 24.1873 124.317 24.3234C124.458 24.4595 124.57 24.6222 124.646 24.802C124.723 24.9818 124.762 25.175 124.762 25.3701C124.762 25.5653 124.723 25.7585 124.646 25.9383C124.57 26.1181 124.458 26.2808 124.317 26.4169C124.176 26.553 124.009 26.6596 123.825 26.7305C123.642 26.8014 123.446 26.8352 123.249 26.8298H119.659C119.324 26.8299 118.994 26.8953 118.685 27.0223C118.377 27.1492 118.096 27.3352 117.86 27.5697C117.624 27.8041 117.437 28.0824 117.309 28.3886C117.181 28.6949 117.116 29.023 117.116 29.3544C117.116 30.0232 117.384 30.6643 117.861 31.137C118.338 31.6098 118.984 31.8755 119.659 31.8758H123.069C123.743 31.8756 124.39 31.61 124.867 31.1372C125.343 30.6644 125.611 30.0232 125.612 29.3544V25.3707C125.612 25.0628 125.551 24.7579 125.432 24.4735C125.313 24.1891 125.139 23.9307 124.919 23.7132C124.699 23.4956 124.439 23.323 124.152 23.2054C123.865 23.0878 123.558 23.0275 123.247 23.0278ZM123.07 30.9902H119.659C119.221 30.9902 118.801 30.8176 118.491 30.5104C118.181 30.2032 118.007 29.7866 118.007 29.3522C118.007 28.9178 118.181 28.5011 118.491 28.194C118.801 27.8868 119.221 27.7142 119.659 27.7142L123.247 27.7176C123.807 27.7176 124.316 27.5257 124.722 27.2051V29.3544C124.721 29.7885 124.547 30.2046 124.237 30.5112C123.928 30.8179 123.508 30.9902 123.07 30.9902ZM135.627 36.5741C135.627 35.097 134.335 33.8987 132.843 33.8987H131.227C130.583 33.8974 129.96 34.1265 129.471 34.5438C128.985 34.126 128.362 33.8968 127.719 33.8987H126.061C125.346 33.899 124.66 34.1809 124.154 34.6825C123.648 35.1842 123.363 35.8645 123.363 36.5741V42.8172L124.393 42.8195C124.912 42.8195 125.337 42.3995 125.337 41.8803V36.5481C125.337 36.0808 125.72 35.6992 126.191 35.6992H127.632C128.104 35.6992 128.485 36.0808 128.485 36.5481V42.8172L129.516 42.8195C130.037 42.8195 130.459 42.4238 130.459 41.9079V36.5261C130.465 36.3045 130.558 36.094 130.719 35.9395C130.879 35.7851 131.094 35.6988 131.317 35.6992H132.797C133.27 35.6992 133.652 36.0808 133.652 36.5481V42.8172L134.683 42.8195C135.204 42.8195 135.627 42.4238 135.627 41.9079V36.5741ZM125.389 9.69423C124.385 10.8754 123.425 12.0932 122.511 13.345C123.382 13.4285 124.317 13.6639 125.355 14.0765C125.615 14.1814 125.588 14.3801 125.451 14.5342L125.117 14.8328C124.072 14.3875 123.047 14.0629 122.057 13.972C120.948 15.5152 120.081 16.8292 119.487 17.6645C119.366 17.8333 119.238 17.9394 119.123 17.9394L118.881 17.9321C119.758 16.5867 120.661 15.2585 121.591 13.9483L121.52 13.9461C120.708 13.9461 119.92 14.042 118.861 14.4343L119.055 14.1651C119.098 14.0358 119.328 13.7497 119.566 13.6706C120.274 13.4293 121.018 13.3082 121.767 13.3122L122.045 13.3156C123.077 11.8966 124.157 10.4856 125.15 9.31381L125.403 9.3172C125.533 9.34034 125.539 9.51757 125.389 9.69423ZM134.858 5.13308C133.509 4.65839 132.294 4.3203 130.971 4.24071C129.734 5.20194 128.592 6.28621 127.496 7.37443C127.275 7.59399 127.104 7.62108 126.985 7.61487L126.678 7.59117C127.764 6.51593 129.172 5.13251 130.325 4.2283C129.291 4.21701 128.052 4.38747 126.748 4.71258L126.977 4.55228C127.121 4.43488 127.486 4.26499 127.673 4.2108C128.715 3.91279 129.794 3.76434 130.878 3.76998H130.93C132.106 2.90245 133.595 1.9751 134.948 1.43437L135.229 1.42929C135.415 1.42929 135.387 1.49984 135.115 1.63023C133.877 2.22231 132.688 2.96228 131.562 3.79312C132.661 3.86819 133.879 4.13404 135.19 4.57034C135.392 4.63695 135.403 4.79611 135.219 4.92311L134.858 5.13308ZM134.84 21.7533C134.861 21.7646 132.1 19.3906 130.908 18.466C129.694 19.7191 128.547 20.9377 127.486 22.0581C127.277 22.2804 127.024 22.268 126.89 22.1416L126.665 21.9209C127.568 20.9371 128.97 19.377 130.284 17.9891C129.209 17.1837 127.804 16.2151 126.72 15.6032L126.984 15.2527C127.128 15.1145 127.361 15.0405 127.56 15.1528C128.574 15.7297 129.672 16.4578 130.883 17.3586C131.992 16.2015 133.614 14.6533 134.887 13.3924L135.201 13.6673C135.333 13.7993 135.362 14.024 135.177 14.2052C133.947 15.4277 132.71 16.6192 131.518 17.8395C132.621 18.6867 133.809 19.6728 135.105 20.8079C135.326 21.0026 135.316 21.2577 135.172 21.4124L134.84 21.7533ZM136.764 11.733C137.95 10.708 139.392 9.51757 140.99 8.42201C139.659 7.49691 137.93 6.48884 136.779 5.94134L137.062 5.68961C137.251 5.5564 137.594 5.54737 137.839 5.66985C139.069 6.27548 140.34 7.02956 141.646 7.93604C142.963 7.02956 144.562 6.05253 145.865 5.47738L146.227 5.68057C146.411 5.79459 146.446 5.98762 146.12 6.14961C144.798 6.81498 143.526 7.57443 142.314 8.42201C143.663 9.35953 144.971 10.3907 146.236 11.4705C146.456 11.6601 146.446 11.86 146.276 11.9689L145.911 12.1851C144.559 11.0099 143.138 9.91558 141.655 8.90798C140.247 9.85284 138.947 10.8632 137.716 11.9136C137.489 12.106 137.149 12.0784 136.99 11.9395L136.764 11.733ZM119.086 10.8908C120.166 9.36969 121.299 8.17197 122.327 7.28186C123.302 6.40474 124.067 5.78556 125.275 5.08962C125.859 4.75265 125.509 5.24145 124.993 5.50899C124.158 5.94924 123.318 6.57519 122.387 7.34113C121.265 8.33811 120.26 9.45706 119.39 10.6769C119.034 11.1719 118.897 11.1544 119.086 10.8908ZM137.126 0.475969C138.799 -0.0224222 141.644 0.000155827 141.644 0.000155827C141.644 0.000155827 144.488 -0.0224222 146.163 0.475969C146.57 0.595628 146.46 0.87615 145.585 0.627801C143.788 0.123766 142.743 0.22254 141.644 0.132231C140.545 0.22254 139.502 0.123766 137.704 0.627801C136.826 0.875586 136.72 0.595628 137.126 0.475969ZM104.694 36.5453V40.1655C104.694 40.6363 105.077 41.0144 105.548 41.0144H108.701C109.057 41.0144 109.451 40.8677 109.705 40.4844C109.981 40.0656 110.246 39.6773 110.246 39.6773H110.783C111.387 39.6773 111.663 40.1757 111.662 40.6289C111.662 41.6048 110.483 42.8172 109.018 42.8172H105.42C105.066 42.8174 104.715 42.7484 104.388 42.614C104.06 42.4797 103.763 42.2826 103.512 42.0341C103.262 41.7857 103.063 41.4907 102.928 41.166C102.792 40.8413 102.722 40.4933 102.722 40.1418V36.5735C102.722 36.2221 102.792 35.8742 102.928 35.5495C103.063 35.2249 103.262 34.93 103.512 34.6816C103.763 34.4332 104.06 34.2363 104.388 34.102C104.715 33.9678 105.066 33.8989 105.42 33.8992H109.018C110.483 33.8992 111.662 35.1088 111.662 36.0841C111.663 36.5385 111.387 37.0369 110.783 37.0369H110.246C110.246 37.0369 109.981 36.6497 109.705 36.2298C109.451 35.8448 109.057 35.6998 108.701 35.6998H105.548C105.436 35.6995 105.325 35.7212 105.221 35.7636C105.118 35.806 105.024 35.8683 104.944 35.9468C104.865 36.0253 104.802 36.1186 104.759 36.2213C104.716 36.324 104.694 36.4341 104.694 36.5453ZM89.3984 31.8329C89.9196 31.8329 90.3424 32.2505 90.3424 32.7698L90.3389 39.9742C90.3389 40.327 90.4869 40.717 90.8709 40.9687C91.2948 41.243 91.6846 41.5055 91.6846 41.5066V41.952C91.6846 42.5548 91.0735 42.8263 90.6177 42.8263C89.634 42.8263 88.3719 41.6556 88.3719 40.2028L88.3696 31.8334L89.3984 31.8329ZM72.1858 33.8953H76.4675V34.7882C76.4675 35.2821 76.0669 35.6986 75.5707 35.6986H71.8307C71.3579 35.6986 70.9738 36.0802 70.9738 36.5475V40.1655C70.9738 40.6363 71.3568 41.0144 71.8296 41.0144H73.701C74.0566 41.0144 74.4498 40.8677 74.7036 40.4844C74.9807 40.0656 75.2458 39.6773 75.2458 39.6773H75.7386C76.3468 39.6773 76.6188 40.1757 76.6188 40.6289C76.6188 41.6048 75.4387 42.8172 73.9753 42.8172H71.6993C70.9837 42.8174 70.2974 42.5356 69.7912 42.0339C69.2851 41.5322 69.0005 40.8516 69 40.1418V31.9299H70.0299C70.5522 31.9299 70.9738 32.3521 70.9738 32.868V34.4038C71.1633 34.1312 71.4768 33.8953 72.1858 33.8953ZM121.982 36.5662C121.982 36.2146 121.912 35.8666 121.776 35.5419C121.64 35.2173 121.441 34.9224 121.19 34.674C120.939 34.4257 120.642 34.2288 120.314 34.0946C119.987 33.9604 119.636 33.8915 119.281 33.8919H115.602C114.886 33.8917 114.2 34.1734 113.695 34.6749C113.189 35.1764 112.904 35.8567 112.904 36.5662L112.903 40.1379C112.903 40.4893 112.973 40.8372 113.109 41.1618C113.244 41.4863 113.443 41.7812 113.694 42.0295C113.944 42.2779 114.242 42.4748 114.569 42.6091C114.897 42.7434 115.247 42.8124 115.602 42.8121H119.285C120 42.812 120.686 42.5303 121.191 42.0288C121.697 41.5274 121.982 40.8472 121.982 40.1379V36.5662ZM120.008 40.1655C120.008 40.634 119.624 41.0144 119.153 41.0144H115.73C115.26 41.0144 114.877 40.634 114.877 40.1655V36.5475C114.877 36.0802 115.26 35.6986 115.73 35.6986H119.153C119.624 35.6986 120.008 36.0802 120.008 36.5475V40.1655ZM157.605 9.31268C158.711 10.6216 159.774 11.9662 160.792 13.3444C159.92 13.4279 158.817 13.6983 157.589 14.2193L157.813 14.4857C157.939 14.6635 158.223 14.8063 158.437 14.7188C159.411 14.3203 160.357 14.0499 161.245 13.9715C162.355 15.5146 163.432 17.1306 164.013 17.9389H164.186C164.276 17.9389 164.347 17.8198 164.121 17.4766C163.337 16.288 162.533 15.1118 161.711 13.9483L161.782 13.9461C162.594 13.9461 163.35 14.0697 164.055 14.3062C164.222 14.3604 164.291 14.3135 164.248 14.1814L164.06 13.7937C162.956 13.3585 162.078 13.3117 161.538 13.3117L161.258 13.3151C160.312 12.0039 159.258 10.6097 158.371 9.59546C158.109 9.29688 157.93 9.31437 157.93 9.31437L157.605 9.31268ZM148.847 4.99705C150.199 4.52349 151.387 4.29659 152.331 4.24071C153.566 5.20194 154.976 6.54415 156.058 7.62108L156.369 7.61036C156.47 7.57198 156.476 7.44893 156.281 7.25477C155.196 6.17784 154.13 5.13308 152.978 4.22886C153.944 4.24071 154.868 4.32256 155.796 4.54607C156.39 4.68718 156.435 4.62961 156.29 4.52575L156.037 4.36658C155.138 3.96189 153.386 3.74007 152.423 3.77055H152.372C151.196 2.90302 149.968 2.15966 148.678 1.56362C148.493 1.4784 148.157 1.41405 148.018 1.43268L147.811 1.44735C149.094 2.02364 150.615 2.96341 151.741 3.79369C150.641 3.86875 149.33 4.14645 147.746 4.69056L148.062 4.90787C148.217 5.03317 148.523 5.1105 148.847 4.99705ZM148.944 21.3412C150.04 20.3851 151.202 19.3906 152.394 18.4655C153.607 19.7185 155.056 21.2436 156.121 22.3662L156.403 22.1506C156.533 22.04 156.566 21.8278 156.371 21.615C155.468 20.6318 154.332 19.3776 153.019 17.9891C154.092 17.1837 155.176 16.4284 156.26 15.8166C156.509 15.6772 156.485 15.4339 156.329 15.2589L156.029 14.9835C154.961 15.5784 153.63 16.4578 152.418 17.3586C151.308 16.2015 150.051 15.0061 148.779 13.744C148.532 13.4985 148.27 13.5205 148.121 13.6503L147.83 13.9032C149.061 15.124 150.434 16.4815 151.785 17.8401C150.575 18.7533 149.141 19.9815 147.844 21.1166L148.143 21.4299C148.307 21.589 148.616 21.6246 148.944 21.3412ZM134.881 49.8506C133.531 50.3258 132.282 50.6673 130.971 50.7514C129.734 49.7891 128.592 48.7054 127.496 47.616C127.268 47.3914 127.04 47.3535 126.946 47.3789L126.729 47.4439C127.813 48.5208 129.107 49.8314 130.325 50.7644C129.191 50.77 128.049 50.6165 126.886 50.2959L126.946 50.4026C127.019 50.5104 127.454 50.7181 127.672 50.7808C128.714 51.0789 129.793 51.2277 130.877 51.2227H130.93C132.105 52.0891 133.599 52.9995 135.056 53.6204L135.337 53.5408C135.372 53.5143 135.32 53.459 135.114 53.3602C133.875 52.7681 132.687 52.0265 131.561 51.1984C132.66 51.1222 133.878 50.8575 135.189 50.4201C135.347 50.3682 135.414 50.2383 135.279 50.1136L134.881 49.8506ZM157.619 45.6603C158.69 44.4033 159.952 42.793 160.792 41.6477C159.699 41.5529 158.671 41.2058 157.634 40.7921L157.786 40.5493C157.891 40.3495 158.207 40.178 158.436 40.2739C159.411 40.6718 160.356 40.9433 161.245 41.0223C162.355 39.4781 163.451 37.8728 164.044 37.0369L164.226 37.0646C164.298 37.1052 164.29 37.2542 164.12 37.5155C163.335 38.7045 162.532 39.8813 161.71 41.0455H161.781C162.592 41.0455 163.349 40.923 164.054 40.6848C164.231 40.6261 164.334 40.6769 164.202 40.9044L163.93 41.2758C163.07 41.5721 162.318 41.6839 161.536 41.6839L161.256 41.6782C160.364 42.9109 159.453 44.1132 158.501 45.2556C158.195 45.6236 158.045 45.6834 157.889 45.6778L157.619 45.6603ZM148.847 49.9945C150.199 50.4698 151.387 50.6955 152.331 50.7509C153.566 49.7885 154.966 48.4581 156.064 47.3688L156.332 47.3767C156.467 47.3942 156.499 47.5234 156.281 47.7374C155.196 48.8143 154.13 49.8596 152.978 50.7644C153.944 50.7514 154.868 50.6673 155.796 50.4461C156.217 50.3456 156.363 50.3456 156.359 50.393L156.186 50.6222C154.955 51.0466 153.482 51.2227 152.423 51.2227H152.372C151.196 52.0891 149.968 52.8336 148.678 53.4285C148.473 53.5222 148.085 53.5882 147.98 53.5521L147.911 53.4968C149.216 52.9013 150.614 52.0265 151.741 51.1984C150.491 51.1324 149.099 50.7508 147.789 50.3145L148.015 50.1215C148.154 49.9781 148.488 49.8692 148.847 49.9945ZM148.944 33.6503C150.04 34.607 151.202 35.6004 152.394 36.5255C153.607 35.2719 155.056 33.7378 156.121 32.6152L156.411 32.8466C156.533 32.9589 156.563 33.166 156.371 33.3749C155.469 34.3592 154.333 35.6151 153.019 37.0008C154.093 37.8079 155.176 38.562 156.261 39.175C156.524 39.324 156.485 39.5695 156.324 39.7315L156.007 40.0114C154.996 39.4352 153.63 38.5343 152.418 37.6312C151.308 38.7911 150.051 39.986 148.779 41.247C148.54 41.4852 148.287 41.4728 148.134 41.3531L147.83 41.0799C149.061 39.8574 150.592 38.369 151.785 37.1532C150.681 36.3054 149.137 35.0145 147.84 33.8778L148.114 33.5944C148.267 33.4082 148.594 33.3472 148.944 33.6503ZM136.722 43.2236L137.04 43.0153C137.146 42.9573 137.267 42.9325 137.388 42.9441C137.508 42.9557 137.623 43.0031 137.716 43.0802C138.97 44.1522 140.282 45.1554 141.646 46.0853C143.053 45.1359 144.658 43.8727 145.89 42.8257L146.254 43.012C146.427 43.1113 146.486 43.3071 146.236 43.5211C144.971 44.6003 143.664 45.6332 142.314 46.5713C143.526 47.4178 144.798 48.1761 146.12 48.8403C146.436 48.9989 146.414 49.1863 146.244 49.2997L145.844 49.5413C144.615 48.9373 142.963 47.9626 141.655 47.0544C140.34 47.9626 139.069 48.7178 137.839 49.3223C137.494 49.4922 137.108 49.3753 137.002 49.2596L136.818 49.0367C138.015 48.4378 139.659 47.4963 140.99 46.5718C139.636 45.6337 137.984 44.3017 136.722 43.2236ZM164.204 10.8908C163.126 9.36969 161.992 8.17197 160.965 7.28186C159.987 6.40474 159.225 5.78556 158.016 5.08962C157.433 4.75265 157.784 5.24145 158.297 5.50899C159.135 5.94924 159.973 6.57519 160.906 7.34113C162.027 8.33875 163.032 9.45764 163.902 10.6769C164.257 11.1719 164.392 11.1544 164.204 10.8908ZM164.204 44.1092C163.126 45.6303 161.992 46.8298 160.965 47.7176C159.987 48.5953 159.225 49.2145 158.016 49.9115C157.433 50.2479 157.784 49.7603 158.297 49.4916C159.135 49.0508 159.973 48.4265 160.906 47.6583C162.028 46.6605 163.033 45.5408 163.902 44.3203C164.257 43.8281 164.392 43.8467 164.204 44.1092ZM165.35 12.9222C165.988 14.0263 166.571 15.1605 167.097 16.3206C166.588 15.6095 165.89 14.8193 165.158 14.3965L165.223 14.5726C165.26 14.6765 165.534 15.0501 165.802 15.2623C166.375 15.7099 166.909 16.2789 167.385 16.9709C167.963 18.328 168.477 19.7112 168.925 21.116C168.996 21.3356 169.028 21.3198 168.97 21.1245C168.622 19.9053 168.211 18.705 167.737 17.5285C168.189 18.2922 168.59 19.1868 168.941 20.2141C168.992 20.3648 169.013 20.3665 168.962 20.2141C168.541 18.9142 168.043 17.8045 167.467 16.8794C166.89 15.5203 166.223 14.2005 165.471 12.9284C165.415 12.8313 164.968 12.2551 165.35 12.9222ZM165.35 42.0682C165.988 40.9639 166.571 39.8294 167.097 38.6687C166.588 39.3821 165.91 40.1593 165.158 40.5815L165.21 40.4517C165.257 40.2852 165.602 39.8884 165.802 39.7321C166.375 39.2822 166.909 38.7133 167.385 38.019C167.963 36.6626 168.477 35.2801 168.925 33.8761C168.996 33.6554 169.028 33.6712 168.97 33.8659C168.623 35.0848 168.211 36.2847 167.737 37.4608C168.189 36.6999 168.59 35.807 168.941 34.7764C168.992 34.6273 169.013 34.624 168.962 34.7786C168.541 36.0785 168.043 37.1865 167.467 38.111C166.89 39.4703 166.224 40.7902 165.471 42.062C165.415 42.1614 164.968 42.7343 165.35 42.0682ZM146.163 54.5224C144.489 55.0208 141.645 54.9999 141.645 54.9999C141.645 54.9999 138.8 55.0208 137.127 54.5224C136.72 54.4021 136.827 54.1256 137.706 54.3711C139.504 54.8763 140.546 54.7769 141.646 54.8684C142.745 54.7769 143.79 54.8763 145.586 54.3711C146.462 54.1256 146.57 54.4021 146.163 54.5224ZM80.3753 42.8172C78.8407 42.8172 77.6322 41.6178 77.6322 40.1418L77.6333 36.5735C77.6333 36.2222 77.7031 35.8743 77.8387 35.5497C77.9743 35.2251 78.173 34.9303 78.4235 34.6819C78.6741 34.4336 78.9714 34.2366 79.2987 34.1023C79.626 33.968 79.9767 33.899 80.3309 33.8992H83.9713C85.4615 33.8992 86.6678 35.0027 86.6678 36.4798C86.6678 37.9569 85.461 39.1552 83.9713 39.1552H80.5688C80.0339 39.1552 79.6077 39.3979 79.6077 39.8816V40.253C79.6077 40.7181 79.9884 41.015 80.4624 41.015H83.7432C84.0988 41.015 84.492 40.8683 84.7457 40.485C85.0217 40.0662 85.2863 39.6779 85.2891 39.6779H85.7813C86.3867 39.6779 86.6621 40.1763 86.6621 40.6295C86.6621 41.6054 85.4803 42.8178 84.0169 42.8178L80.3753 42.8172ZM79.6066 36.5475C79.6066 36.0802 79.9872 35.6986 80.4612 35.6986H83.8399C84.3122 35.6986 84.694 36.0559 84.694 36.5233C84.694 36.9906 84.3122 37.3722 83.8399 37.3722H80.8151C80.1062 37.3722 79.7927 37.5088 79.6037 37.7814L79.6066 36.5475ZM95.2431 42.8172C93.7085 42.8172 92.5005 41.6178 92.5005 40.1418L92.5017 36.5735C92.5015 36.2221 92.5712 35.8742 92.7067 35.5495C92.8423 35.2249 93.041 34.93 93.2916 34.6816C93.5421 34.4332 93.8396 34.2363 94.1669 34.102C94.4942 33.9678 94.8451 33.8989 95.1993 33.8992H98.838C100.328 33.8992 101.536 35.0027 101.536 36.4798C101.536 37.9569 100.328 39.1552 98.838 39.1552H95.4354C94.9005 39.1552 94.4744 39.3979 94.4744 39.8816V40.253C94.4744 40.7181 94.8545 41.015 95.3273 41.015H98.6098C98.9654 41.015 99.358 40.8683 99.6135 40.485C99.8878 40.0662 100.153 39.6779 100.156 39.6779H100.647C101.254 39.6779 101.528 40.1763 101.528 40.6295C101.528 41.6054 100.347 42.8178 98.8846 42.8178L95.2431 42.8172ZM94.4749 36.5475C94.4749 36.0802 94.855 35.6986 95.3279 35.6986H98.7094C99.1805 35.6986 99.5634 36.0559 99.5634 36.5233C99.5634 36.9906 99.1805 37.3722 98.7094 37.3722H95.6835C94.9768 37.3722 94.661 37.5088 94.4744 37.7814V36.5475H94.4749Z" fill="white"/>
</g>
</g>
</svg>
