<svg width="237" height="55" viewBox="0 0 237 55" fill="none" xmlns="http://www.w3.org/2000/svg">
<mask id="mask0_1623_10" style="mask-type:alpha" maskUnits="userSpaceOnUse" x="0" y="0" width="237" height="55">
<rect width="237" height="55" fill="#D9D9D9"/>
</mask>
<g mask="url(#mask0_1623_10)">
<g opacity="0.3">
<path fill-rule="evenodd" clip-rule="evenodd" d="M0 41.2988C61.3706 36.0992 173.932 31.2004 211.351 48.4001L210.154 55C170.14 32.6006 8.38357 40.9002 0 41.2988Z" fill="#75DAB4"/>
<path fill-rule="evenodd" clip-rule="evenodd" d="M38.1201 34.2991H44.3071L47.6995 10.0006H41.5126L38.1201 34.2991ZM46.4024 34.2991H52.5893L54.1867 22.4996C54.9848 17.1997 58.9764 15.3996 63.167 15.3996L64.0638 9.39893C60.4725 9.39893 57.4778 10.4995 55.5827 13.2987H55.4827L55.983 9.9981H49.8949L46.4024 34.2991Z" fill="white"/>
<path fill-rule="evenodd" clip-rule="evenodd" d="M84.8209 13.3C83.8227 11.8998 81.0282 8.90009 74.9413 8.90009C68.5542 8.90009 63.2654 11.3006 62.4673 16.7999C61.1701 26.0008 77.4356 22.6 76.8364 26.7993C76.7363 28.1005 74.4409 29.6009 71.5476 29.6009C68.254 29.6009 65.7597 28.5003 64.5625 26.6L59.4726 29.9996C61.369 32.4001 65.2605 34.4007 71.2474 34.4007C77.0353 34.4007 82.9233 31.7996 83.7214 25.8992C85.0186 16.6996 68.4541 20.2997 69.052 16.0991C69.2522 14.5986 71.2474 13.6986 74.0419 13.6986C77.7346 13.6986 79.4295 15.599 80.03 17.1985L84.8209 13.3ZM84.1229 28.5003C83.6238 32.1995 85.0211 34.2992 90.0097 34.2992C91.9061 34.2992 93.5022 33.9996 94.9983 33.7977L95.6976 28.899C94.6993 29.0005 93.8012 29.1985 92.903 29.1985C90.5088 29.1985 90.3086 28.1995 90.5088 26.1988L92.3051 13.8992H97.7941L98.3933 9.69985H92.9043L93.9025 2.49954H87.7156L84.1229 28.5003ZM12.6738 34.2992H19.4587L21.5552 19.401H38.7189L39.517 13.8002H22.3533L23.4504 6.00068H42.1113L43.0095 0H17.5636L12.6738 34.2992ZM96.6958 34.2992H123.34L124.238 28.2998H104.28L105.477 19.5H122.64L123.439 13.8002H106.275L107.373 6.00068H126.034L126.831 0.100289H101.485L96.6958 34.2992ZM124.736 34.2992H130.924L132.721 21.4993C133.32 16.9992 136.014 15.0988 139.008 15.0988C142.2 15.0988 142.998 17.1997 142.6 19.3997L140.604 34.2992H146.691L149.086 17.6999C149.787 12.3009 147.49 9.40026 141.404 9.40026C139.009 9.40026 136.213 10.3003 134.019 12.4H133.92L134.318 9.99944H128.132L124.736 34.2992ZM174.531 23.1001C175.728 14.4006 172.833 8.90009 164.253 8.90009C155.97 8.90009 150.482 14.4006 149.384 21.6999C148.387 28.8989 152.479 34.4007 160.661 34.4007C167.646 34.4007 171.738 31.2005 174.133 28.5003L169.343 25.5997C168.544 26.3994 166.249 29.0005 161.46 29.0005C158.166 29.0005 155.272 26.7003 155.671 23.1001H174.531ZM156.37 18.9998C157.367 16.4 160.062 14.2 163.553 14.2C167.745 14.2 168.942 17.6999 168.744 18.9998H156.37ZM174.331 34.2992H180.519L182.115 22.4997C182.914 17.1997 186.905 15.3997 191.096 15.3997L191.896 9.39899C188.303 9.39899 185.409 10.4996 183.514 13.2987H183.415L183.913 9.99817H177.727L174.331 34.2992Z" fill="white"/>
<path fill-rule="evenodd" clip-rule="evenodd" d="M214.448 10.0006H208.259L207.96 12.3008H207.862C206.566 10.601 204.769 9.40015 201.075 9.40015C194.69 9.40015 189.399 13.8991 188.304 21.1996C187.304 28.499 191.396 33.0994 197.782 33.0994C199.978 33.0994 203.171 32.4 205.365 30.3993L205.068 33.0004C204.668 35.8986 202.571 37.8992 198.581 37.8992C195.489 37.8992 193.992 36.5003 193.693 34.8005H187.304C186.906 37.8992 188.501 42.3994 196.585 42.3994C204.369 42.3994 210.057 40.6983 211.054 33.7989L214.448 10.0006ZM206.865 21.2009C206.464 23.8007 204.569 27.7005 199.978 27.7005C195.288 27.7005 194.488 23.8007 194.787 21.2009C195.187 18.6011 197.083 14.8004 201.775 14.8004C206.364 14.8004 207.161 18.5998 206.865 21.2009Z" fill="white"/>
<path fill-rule="evenodd" clip-rule="evenodd" d="M237 10.0007H230.614L223.327 27.6994H223.229L220.235 10.0007H213.649L219.238 34.8996C218.34 36.5017 217.541 36.9993 215.544 36.9993H213.149L212.352 42.3995H216.043C220.534 42.3995 222.83 40.8991 224.825 36.5017L237 10.0007ZM228.618 36.5017C227.92 37.1021 227.621 37.9006 227.621 38.8007C227.621 39.7007 227.92 40.5017 228.618 41.2012C229.217 41.8016 230.014 42.1012 230.912 42.1012C231.911 42.1012 232.609 41.8016 233.307 41.2012C233.906 40.5017 234.205 39.7007 234.205 38.8007C234.205 37.9006 233.906 37.1021 233.307 36.5017C232.609 35.7997 231.81 35.5001 230.912 35.5001C230.014 35.5001 229.215 35.7997 228.618 36.5017ZM233.706 41.4995C232.907 42.3005 232.009 42.6991 230.91 42.6991C229.913 42.6991 229.015 42.3005 228.219 41.4995C227.518 40.8 227.12 39.9 227.12 38.7994C227.12 37.6988 227.518 36.7987 228.219 36.0993C229.015 35.3008 229.913 35.0012 230.91 35.0012C232.009 35.0012 232.907 35.3008 233.706 36.0993C234.404 36.7987 234.802 37.6988 234.802 38.7994C234.802 39.9 234.404 40.8 233.706 41.4995ZM231.71 37.3002C231.512 37.2012 231.209 37.2012 230.812 37.2012H230.114V38.7016H230.812C231.111 38.7016 231.312 38.7016 231.512 38.6001C231.809 38.5011 231.91 38.303 231.91 37.9996C231.91 37.6988 231.809 37.5007 231.71 37.3002ZM230.91 36.6997C231.411 36.6997 231.809 36.6997 232.009 36.7987C232.217 36.8982 232.392 37.0541 232.516 37.2486C232.64 37.4432 232.707 37.6686 232.709 37.8993C232.709 38.3005 232.509 38.5988 232.309 38.7004C232.109 38.7994 231.911 38.8984 231.611 38.8984C232.009 39 232.21 39.099 232.41 39.3998C232.509 39.6004 232.608 39.7984 232.608 40.0003V40.899H232.709H232.009V40.8L231.91 40.6985V40.2999C231.91 39.9013 231.809 39.4988 231.512 39.3998C231.411 39.3008 231.112 39.2018 230.713 39.2018H230.114V40.9003H229.416V36.6997H230.91Z" fill="white"/>
</g>
</g>
</svg>
