<svg width="237" height="55" viewBox="0 0 237 55" fill="none" xmlns="http://www.w3.org/2000/svg">
<mask id="mask0_1623_4" style="mask-type:alpha" maskUnits="userSpaceOnUse" x="0" y="0" width="237" height="55">
<rect width="237" height="55" fill="#D9D9D9"/>
</mask>
<g mask="url(#mask0_1623_4)">
<g opacity="0.3">
<path d="M111.941 45.7122H110.451V33.9428H111.941V39.0807H118.446V33.9428H119.936V45.7122H118.446V40.3224H111.941V45.7122ZM121.891 39.8005C121.891 36.6062 123.372 33.6729 127.557 33.6729C131.742 33.6729 133.241 36.6062 133.241 39.8095C133.241 43.0128 131.849 46.0001 127.557 46.0001C123.916 46.0001 121.891 43.6606 121.891 39.8095V39.8005ZM123.452 39.8005C123.452 43.3997 125.237 44.7224 127.557 44.7224C129.877 44.7224 131.661 43.3097 131.661 39.7915C131.661 36.7052 130.341 34.9146 127.557 34.9146C124.773 34.9146 123.452 36.7142 123.452 39.7915V39.8005ZM136.667 44.4705H142.146V45.7122H135.195V33.9428H136.667V44.4705ZM146.84 33.9428C151.203 33.9428 153.255 35.6884 153.255 39.8095C153.255 43.5617 151.587 45.7122 146.759 45.7122H143.708V33.9428H146.84ZM151.685 39.8005C151.685 36.5522 150.132 35.1845 146.831 35.1845H145.18V44.4705H146.831C150.052 44.4705 151.685 43.1028 151.685 39.8095V39.8005ZM162.589 45.7122H161.179V33.9428H163.133L169.129 43.5077V33.9428H170.539V45.7122H168.871L162.589 35.5984V45.7122ZM180.524 40.6013H177.544V39.4136H181.907V45.3073C180.728 45.7069 179.493 45.9165 178.249 45.9281C173.787 45.9281 172.484 43.2287 172.484 39.9805C172.484 36.7322 173.734 33.6818 178.222 33.6818C179.261 33.6912 180.293 33.8581 181.283 34.1767L181.015 35.4635C180.132 35.136 179.199 34.9655 178.258 34.9596C175.09 34.9596 174.064 37.2541 174.064 39.9985C174.064 42.7428 175.117 44.6684 178.311 44.6684C179.06 44.674 179.805 44.5554 180.515 44.3175L180.524 40.6013ZM190.357 35.6614C189.525 35.239 188.612 35.0027 187.68 34.9686C186.654 34.9686 185.352 35.3735 185.352 36.8222C185.352 37.8929 186.333 38.3428 187.698 38.9547C189.554 39.8005 190.991 40.5743 190.991 42.5539C190.991 45.0103 189.278 45.9281 187.297 45.9281C185.975 45.9147 184.666 45.6617 183.433 45.1813L183.817 43.8856C184.897 44.3583 186.057 44.6208 187.234 44.6594C188.332 44.6594 189.492 44.2095 189.492 42.6349C189.492 41.5011 188.6 40.8893 186.877 40.1514C185.155 39.4136 183.879 38.7567 183.879 36.9211C183.879 34.5637 185.833 33.7538 187.538 33.7538C188.646 33.7584 189.743 33.9911 190.759 34.4377L190.357 35.6614Z" fill="white"/>
<path d="M136.918 18.8172C136.866 18.3326 136.77 17.8537 136.632 17.3865C121.872 19.7705 107.82 25.425 95.4878 33.9429C108.118 26.0793 122.223 20.93 136.918 18.8172ZM185.816 23.1542V23.2082C185.936 23.5868 186.088 23.9541 186.271 24.306C193.142 26.8661 199.749 30.0935 206 33.9429C199.672 29.6307 192.906 26.011 185.816 23.1452M167.212 19.2221C168.309 19.4021 169.407 19.6 170.504 19.825L170.763 19.78C171.273 19.6934 171.752 19.4766 172.155 19.1501C172.251 19.064 172.34 18.9707 172.423 18.8712C170.7 18.4573 168.96 18.0974 167.212 17.7734V19.2221ZM141.754 16.7387C141.889 17.2319 141.991 17.734 142.057 18.2413C142.753 18.1783 143.44 18.1244 144.136 18.0794V16.5317C143.342 16.5947 142.548 16.6577 141.754 16.7387ZM149.178 16.3068V17.8814H150.74C152.132 17.8814 153.515 17.8814 154.889 17.9714C154.995 17.5694 155.046 17.1546 155.04 16.7387V16.4147C153.604 16.3068 152.176 16.3068 150.74 16.3068H149.178ZM160.234 16.7837C160.222 17.2932 160.156 17.8 160.037 18.2953L162.188 18.5203V17.0086L160.234 16.7837ZM177.33 20.1939C177.121 20.5713 176.863 20.9192 176.563 21.2287C177.839 21.5616 179.097 21.9215 180.355 22.3084C180.302 21.9215 180.266 21.5256 180.239 21.1117C179.276 20.7878 178.303 20.4818 177.33 20.2119" fill="#75DAB4"/>
<path d="M115.333 30.0195H120.178V22.6052C117.581 23.424 115.011 24.3508 112.468 25.3675L115.333 30.0195ZM107.07 30.0195V27.707C105.491 28.4449 103.929 29.2097 102.385 30.0195H107.07ZM107.07 16.5675L112.058 24.6657C114.723 23.466 117.43 22.3952 120.178 21.4534V10.4129H115.574V21.6514L108.462 10.4129H102.046V17.6113H94.6222V10.4129H89.5985V30.0195H94.6222V21.3814H102.046V29.8036C103.694 28.8378 105.369 27.923 107.07 27.0592V16.5675ZM139.523 12.7523C138.544 11.8196 137.385 11.0988 136.119 10.6346C134.853 10.1704 133.506 9.9724 132.162 10.0529C130.817 9.97294 129.47 10.1711 128.204 10.6354C126.938 11.0996 125.78 11.82 124.8 12.7523C123.882 13.7558 123.172 14.9343 122.713 16.2184C122.253 17.5025 122.053 18.8663 122.123 20.2297V20.8236C123.86 20.2657 125.609 19.7558 127.37 19.2939C127.415 18.5851 127.544 17.8843 127.754 17.2064C127.967 16.4612 128.332 15.7688 128.824 15.1728C129.252 14.6835 129.783 14.2962 130.377 14.0391C130.945 13.812 131.551 13.696 132.162 13.6971C132.774 13.6974 133.381 13.8197 133.946 14.0571C134.552 14.3066 135.088 14.702 135.508 15.2088C135.992 15.7968 136.356 16.4757 136.579 17.2064C136.875 18.1763 137.013 19.1881 136.989 20.2027C137.007 21.1718 136.887 22.1384 136.632 23.0731C136.418 23.8418 136.051 24.5583 135.552 25.1786C135.143 25.6884 134.616 26.0899 134.018 26.3483C133.434 26.6009 132.805 26.7295 132.171 26.7262C131.54 26.7274 130.915 26.602 130.332 26.3573C129.737 26.1025 129.211 25.7076 128.798 25.2056C128.321 24.6121 127.963 23.9305 127.745 23.199C127.489 22.3592 127.357 21.4861 127.352 20.6076C125.633 21.0215 123.926 21.4744 122.23 21.9663C122.424 24.1058 123.33 26.1163 124.8 27.671C126.585 29.5126 129.042 30.4334 132.171 30.4334C135.311 30.4334 137.765 29.5336 139.55 27.671C140.465 26.673 141.173 25.5007 141.633 24.2228C142.093 22.9449 142.295 21.5873 142.227 20.2297C142.301 18.866 142.102 17.5011 141.642 16.2165C141.182 14.9319 140.471 13.7538 139.55 12.7523M191.723 26.5013C190.636 26.8545 189.459 26.8067 188.404 26.3663C187.812 26.1088 187.29 25.7142 186.878 25.2146C186.401 24.6211 186.043 23.9395 185.825 23.208C185.537 22.2426 185.402 21.2376 185.424 20.2297C185.411 19.2063 185.552 18.187 185.843 17.2064C186.057 16.4612 186.421 15.7688 186.914 15.1728C187.341 14.6835 187.872 14.2962 188.466 14.0391C189.034 13.812 189.64 13.696 190.251 13.6971C190.863 13.6974 191.47 13.8197 192.036 14.0571C192.634 14.3065 193.164 14.6987 193.579 15.1998C194.068 15.7912 194.437 16.4727 194.668 17.2064C194.964 18.1763 195.103 19.1881 195.078 20.2027C195.096 21.1718 194.976 22.1384 194.721 23.0731C194.508 23.8418 194.14 24.5583 193.642 25.1786C193.33 25.5584 192.956 25.881 192.535 26.1324C193.987 26.8342 195.429 27.5781 196.863 28.3639C197.133 28.1468 197.39 27.9124 197.63 27.662C198.546 26.664 199.254 25.4917 199.714 24.2138C200.173 22.9359 200.375 21.5783 200.307 20.2207C200.381 18.857 200.183 17.4922 199.723 16.2075C199.263 14.9229 198.551 13.7448 197.63 12.7433C195.578 10.9729 192.965 10 190.264 10C187.563 10 184.951 10.9729 182.898 12.7433C181.98 13.7468 181.271 14.9253 180.811 16.2094C180.351 17.4935 180.151 18.8573 180.221 20.2207C180.154 21.5783 180.355 22.9359 180.815 24.2138C181.275 25.4917 181.983 26.664 182.898 27.662C184.683 29.5036 187.14 30.4244 190.269 30.4244C192.483 30.5216 194.67 29.9072 196.515 28.6698C194.956 27.902 193.383 27.1761 191.795 26.4923M157.815 11.7086C157.122 11.2597 156.359 10.9312 155.558 10.7368C154.542 10.5042 153.503 10.3954 152.462 10.4129H144.19V30.0195H149.214V23.6399H152.346C153.562 23.677 154.774 23.4753 155.915 23.0461C156.89 22.625 157.772 22.0133 158.511 21.2465C159.102 20.6507 159.55 19.9277 159.823 19.1319C160.125 18.308 160.279 17.4367 160.278 16.5585C160.279 15.5641 160.047 14.5836 159.6 13.6971C159.188 12.8886 158.572 12.203 157.815 11.7086ZM154.826 18.1062C154.683 18.4965 154.444 18.8434 154.13 19.1139C153.725 19.4421 153.242 19.6591 152.729 19.7438C152.034 19.8633 151.329 19.9175 150.623 19.9058H149.178V14.075H152.06C152.588 14.0994 153.108 14.2182 153.595 14.426C154.008 14.5977 154.364 14.8849 154.621 15.2538C154.925 15.6665 155.082 16.1705 155.067 16.6845C155.071 17.169 154.989 17.6503 154.826 18.1062ZM176.5 21.2915C177.085 20.6927 177.53 19.9704 177.803 19.1769C178.112 18.3549 178.27 17.4827 178.267 16.6035C178.296 15.5979 178.082 14.6004 177.643 13.6971C177.231 12.8879 176.616 12.2021 175.858 11.7086C175.161 11.2604 174.395 10.932 173.591 10.7368C172.561 10.5019 171.507 10.3931 170.451 10.4129H162.188V30.0195H167.211V23.6399H170.103L174.814 30.0195H180.944L175.073 22.4342C175.59 22.1085 176.069 21.7251 176.5 21.2915ZM167.211 19.9058V14.075H170.085C170.613 14.0994 171.133 14.2182 171.619 14.426C172.035 14.5976 172.394 14.8846 172.655 15.2538C172.955 15.6684 173.112 16.1711 173.101 16.6845C173.106 17.1699 173.021 17.6521 172.851 18.1062C172.708 18.4965 172.468 18.8434 172.155 19.1139C171.752 19.4404 171.273 19.6572 170.763 19.7438C170.064 19.8636 169.356 19.9178 168.648 19.9058H167.211ZM69.5216 14.21V10.4129H32V14.21H44.3139V33.9426H49.3376V14.21H55.4231V30.0195H69.5216V26.2314H60.4289V21.3814H68.8613V17.5933H60.4289V14.21H69.5216ZM86.5468 24.5217L86.2256 24.7827C85.8455 25.0794 85.446 25.3499 85.0299 25.5925C84.5133 25.911 83.9586 26.162 83.3791 26.3393C82.8001 26.515 82.1991 26.6059 81.5945 26.6093C80.9373 26.6082 80.2842 26.505 79.6582 26.3033C78.9961 26.0926 78.3872 25.7396 77.8736 25.2686C77.3031 24.7269 76.8609 24.0626 76.5797 23.325C76.2053 22.3475 76.0293 21.3041 76.0622 20.2567C76.0331 19.2369 76.1935 18.2206 76.5351 17.2603C76.8035 16.5139 77.2298 15.8354 77.7843 15.2718C78.2956 14.7807 78.9037 14.4036 79.569 14.165C80.2171 13.9367 80.899 13.821 81.5856 13.8231C82.1919 13.8217 82.7945 13.9189 83.3702 14.111C83.9086 14.2986 84.4284 14.5366 84.9228 14.8219C85.3632 15.0951 85.7864 15.3956 86.1899 15.7217L86.5111 15.9736H87.1714L87.689 11.7086C87.332 11.5376 86.9127 11.3487 86.4397 11.1417C85.9127 10.9037 85.3701 10.7022 84.8157 10.5388C84.2282 10.3821 83.6324 10.259 83.0311 10.1699C82.2802 10.0641 81.5229 10.01 80.7647 10.008C79.3679 9.99155 77.9799 10.2324 76.669 10.7188C75.4841 11.1475 74.4084 11.8359 73.5191 12.7343C72.6234 13.6585 71.9356 14.7664 71.5025 15.9826C71.0262 17.34 70.7935 18.772 70.8154 20.2117C70.7875 21.7135 71.0325 23.2078 71.5382 24.6207C71.9744 25.8233 72.6727 26.9118 73.5816 27.806C74.4789 28.6988 75.5605 29.3808 76.7493 29.8036C78.0389 30.2462 79.3935 30.4653 80.7557 30.4514C81.5256 30.4621 82.2952 30.414 83.0579 30.3075C83.62 30.2085 84.209 30.0645 84.8425 29.8845C85.32 29.7478 85.7879 29.5795 86.2434 29.3807L87.6444 28.7688L87.1714 24.5667L86.5468 24.5217ZM158.842 35.1214V33.9426H154.228V35.1214H155.79V44.5333H154.228V45.712H158.842V44.5333H157.28V35.1214H158.842Z" fill="white"/>
</g>
</g>
</svg>
