<svg width="237" height="55" viewBox="0 0 237 55" fill="none" xmlns="http://www.w3.org/2000/svg">
<mask id="mask0_1623_8" style="mask-type:alpha" maskUnits="userSpaceOnUse" x="0" y="0" width="237" height="55">
<rect width="237" height="55" fill="#D9D9D9"/>
</mask>
<g mask="url(#mask0_1623_8)">
<g opacity="0.3">
<path fill-rule="evenodd" clip-rule="evenodd" d="M56.9317 9.84253L61.5176 1.15391H53.7934C51.6211 6.22138 49.9313 10.325 48.725 13.7029C48.9663 11.531 49.2085 7.42843 49.4498 1.15391H41.9668L42.9319 19.2538C47.0352 15.8758 51.8633 12.4978 56.9317 9.84253ZM71.1738 1.15488H62.7249L61.5176 7.4294C64.4147 5.98113 67.553 4.53287 70.6903 3.32679L71.1738 1.15488ZM112.45 5.01627C112.208 4.53287 112.208 4.29166 111.967 3.80923C111.485 2.60218 110.519 1.87853 109.312 1.3961C108.829 1.15488 108.105 0.913664 107.622 0.672448H106.899C101.588 -0.292413 94.8299 -0.292411 87.347 1.15488C84.4499 1.63731 81.3126 2.36193 78.4155 3.32679C76.7257 3.80923 75.2772 4.29166 73.5884 4.77409C72.3811 5.25652 71.1748 5.73992 69.9675 5.98113C66.8292 7.18818 63.6919 8.63548 60.7948 10.0837C58.8638 11.0486 56.9327 12.0144 55.2429 13.2215C50.8973 15.6346 46.794 18.5312 43.1731 21.4267C34.9664 27.9434 29.1733 35.1838 27.4835 41.9407C27.2413 42.4231 27.2413 42.6644 27.2413 43.1468C27 43.6292 27 44.1117 27 44.596C28.6898 37.8371 34.4829 30.5968 42.6896 23.8398L40.5173 33.0119H48.2406L50.8954 21.4267L53.5502 16.3592C55.7225 15.1532 57.8948 13.9461 60.3094 12.7391L55.7235 33.0119H63.9302L69.4821 8.63548C70.4481 8.15208 71.4131 7.91086 72.3792 7.66964C72.1379 8.15207 72.1379 8.87669 71.8966 9.35912C71.6554 11.0476 71.4141 12.4969 71.6554 13.7029C71.8966 14.6688 72.1379 15.6336 72.6214 16.1161C73.3461 16.8397 74.3112 17.8056 76.2422 19.2538C77.931 20.4609 78.8971 21.4257 79.3806 22.1504C79.8631 22.6328 79.8631 23.8398 79.3806 25.7705C79.1393 26.4951 78.8971 27.2188 78.4145 27.7022C78.1723 28.1846 77.6898 28.4258 77.2073 28.4258C76.4835 28.4258 76.2422 28.1846 76 27.7022C76 27.46 76 26.7364 76.2422 25.5293L77.2073 21.6679H69.4831L69.0006 23.8398C68.5171 26.0117 68.2758 27.9434 68.5171 29.1495C68.7583 30.5968 69.4821 31.5616 70.9306 32.5275C72.1369 33.2531 74.0689 33.7355 76.2413 33.7355C78.1713 33.7355 80.1034 33.2531 81.7931 32.5275C83.4829 31.8038 84.6902 31.0802 85.414 29.8731C86.38 28.9083 86.8625 27.2188 87.345 24.8057C88.0688 21.6679 88.0688 19.496 87.5863 18.0487C86.8615 16.6005 84.9315 14.911 81.7931 12.7391C80.5859 12.0144 80.1034 11.2908 79.8621 10.8084C79.6208 10.3259 79.6208 9.36107 79.8621 8.39524C80.1034 7.43037 80.3446 6.94794 80.8271 6.46551C81.0684 5.98211 81.5519 5.98211 82.0344 5.98211C82.5169 5.98211 82.7582 5.98211 82.9994 6.46551C82.9994 6.70673 82.9994 7.43037 82.7582 8.39524L82.2757 10.8084H89.9999L90.2411 9.60228C90.7236 6.94794 90.9649 5.25749 90.7236 4.05141C90.4824 3.81019 90.4824 3.32777 90.2411 3.08558C92.896 2.84436 95.3095 2.60315 97.7241 2.60315C97.2406 2.84436 96.5168 3.32777 96.0343 3.8102C95.0692 5.01725 94.3455 6.22332 93.862 7.67159C93.3785 8.87864 92.8969 11.0506 92.1722 14.4295L90.9649 19.7382C90.4653 22.0678 89.9825 24.4009 89.5164 26.7373C89.5164 27.9444 89.7576 29.1505 90.2411 30.3575C90.9649 31.5636 91.6896 32.2872 92.8959 32.7716C94.3445 33.4953 95.792 33.7365 97.4818 33.7365C99.1706 33.7365 100.861 33.4953 102.309 32.7716C103.757 32.2872 105.206 31.3224 106.172 30.3575C107.137 29.1514 107.861 27.9454 108.344 26.7373C108.827 25.2891 109.31 23.1172 110.034 19.7382L111.241 14.4295C111.965 11.0506 112.448 8.87864 112.69 7.43038C112.691 6.70576 112.691 5.73992 112.45 5.01627ZM104.243 9.3601L100.863 24.081C100.381 25.7705 100.139 26.9776 99.8973 27.46C99.6561 28.1846 99.1726 28.4258 98.6901 28.4258C97.9663 28.4258 97.725 28.1846 97.725 27.7022C97.725 27.2188 97.725 26.0127 98.2075 24.3223L101.587 9.3601C101.828 7.67061 102.311 6.70575 102.553 6.46357C102.794 5.98016 103.278 5.98016 103.76 5.98016C104.243 5.98016 104.484 6.22138 104.484 6.46357C104.725 6.94697 104.484 7.91183 104.243 9.3601Z" fill="white"/>
<path fill-rule="evenodd" clip-rule="evenodd" d="M116.312 32.5275L119.691 16.8407H113.898L114.38 14.6698H128.38L127.898 16.8407H122.105L118.726 32.5275H116.312ZM128.38 22.1504C129.104 21.4258 130.071 21.1846 131.036 21.1846C132.242 21.1846 132.966 21.668 133.449 22.3916C133.931 22.874 133.931 23.8399 133.69 24.8047H126.691C126.933 23.5987 127.415 22.875 128.38 22.1504ZM131.277 30.3556C130.554 30.838 129.83 30.838 129.104 30.838C127.898 30.838 127.174 30.5968 126.449 29.8732C125.967 29.1495 125.726 27.9435 125.967 26.4942H135.621C135.621 26.253 135.864 26.253 135.864 26.0118C136.347 23.8399 136.105 22.1504 135.14 21.1846C134.415 19.9775 133.208 19.2539 131.519 19.2539C129.589 19.2539 128.138 19.9775 126.691 21.1846C125.243 22.3916 124.519 24.0811 124.036 26.253C123.553 28.1837 123.553 29.8732 124.518 31.0793C125.242 32.0441 126.69 32.7697 128.621 32.7697C130.07 32.7697 131.276 32.2853 132.484 31.5617C133.691 30.838 134.414 29.8732 135.139 28.6661L132.966 28.1837C132.485 29.1495 131.76 29.8732 131.277 30.3556ZM136.347 32.5275L140.208 14.6698H142.381L138.519 32.5275H136.347ZM146.242 22.1504C147.207 21.4258 148.174 21.1846 149.14 21.1846C150.106 21.1846 151.07 21.668 151.553 22.3916C151.794 22.874 152.035 23.8399 151.794 24.8047H144.553C145.036 23.5987 145.519 22.875 146.242 22.1504ZM149.14 30.3556C148.417 30.838 147.693 30.838 146.967 30.838C146.002 30.838 145.037 30.5968 144.554 29.8732C144.072 29.1495 143.831 27.9435 144.072 26.4942H153.728V26.0118C154.211 23.8399 154.211 22.1504 153.244 21.1846C152.52 19.9775 151.072 19.2539 149.383 19.2539C147.693 19.2539 146.002 19.9775 144.796 21.1846C143.348 22.3916 142.383 24.0811 141.9 26.253C141.415 28.1837 141.656 29.8732 142.382 31.0793C143.473 32.162 144.947 32.7697 146.485 32.7697C148.175 32.7697 149.383 32.2853 150.589 31.5617C151.554 30.838 152.519 29.8732 153.244 28.6661L151.072 28.1837C150.347 29.1495 149.864 29.8732 149.14 30.3556ZM163.863 27.7022L165.795 27.9435C165.311 29.632 164.587 30.5978 163.38 31.5627C162.174 32.2863 160.968 32.7707 159.517 32.7707C157.829 32.7707 156.38 32.0451 155.656 31.0802C154.932 29.8742 154.691 28.1847 155.174 26.0128C155.415 24.8057 155.898 23.5996 156.621 22.3926C157.345 21.4268 158.31 20.7031 159.277 20.2207C160.242 19.4961 161.448 19.2548 162.414 19.2548C163.862 19.2548 165.069 19.7373 165.795 20.4619C166.519 21.1855 166.76 22.1514 166.76 23.3584L164.587 23.8409C164.587 22.875 164.345 22.1514 163.863 21.9102C163.38 21.4268 162.898 21.1855 162.174 21.1855C161.209 21.1855 160.244 21.4268 159.278 22.3926C158.311 23.1172 157.829 24.3233 157.346 26.0128C157.105 27.7022 157.105 28.9093 157.587 29.8742C158.07 30.5978 158.794 30.839 159.759 30.839C160.726 30.839 161.449 30.5978 162.173 30.1154C162.897 29.6329 163.38 28.9083 163.863 27.7022ZM170.863 22.3916C171.83 21.668 172.795 21.1846 173.761 21.1846C174.968 21.1846 175.692 21.668 176.174 22.3916C176.898 23.1162 176.898 24.3223 176.657 26.0118C176.174 27.7013 175.45 28.9083 174.726 29.632C173.761 30.5968 172.796 30.838 171.589 30.838C170.622 30.838 169.898 30.5968 169.175 29.632C168.692 28.9083 168.692 27.7022 168.933 26.0118C169.416 24.3223 169.898 23.1162 170.863 22.3916ZM167.244 31.0802C168.209 32.0451 169.415 32.7707 171.346 32.7707C172.313 32.7707 173.519 32.5275 174.485 32.0451C175.692 31.3215 176.415 30.5978 177.14 29.8742C177.866 28.9093 178.348 27.461 178.831 25.7715C179.313 23.8409 179.072 22.1514 178.107 21.1865C177.383 19.9795 175.934 19.2558 174.244 19.2558C172.796 19.2558 171.346 19.7382 169.898 20.7041C168.451 21.9111 167.244 23.6006 166.761 26.0137C166.278 28.1847 166.52 29.8732 167.244 31.0802Z" fill="#888A8D"/>
<path fill-rule="evenodd" clip-rule="evenodd" d="M197.899 27.2188L198.623 23.5986C198.864 22.1503 198.864 21.1855 198.381 20.4609C197.899 19.7362 196.934 19.2538 195.727 19.2538C194.036 19.2538 192.587 19.9774 191.14 21.6669C191.14 20.9433 190.657 20.2187 190.175 19.9774C189.69 19.495 188.966 19.2538 188.001 19.2538C187.278 19.2538 186.313 19.495 185.589 19.9774C184.865 20.2196 184.141 20.7021 183.659 21.4257L184.141 19.7362H182.209L179.313 32.5265H181.484L182.932 25.7695C183.175 24.5635 183.416 23.8388 183.899 23.1152C184.14 22.3906 184.623 22.1494 185.347 21.6669C185.829 21.4247 186.553 21.1835 187.035 21.1835C188 21.1835 188.483 21.4247 188.724 21.9081C188.965 22.3906 188.965 23.1152 188.724 24.0801L186.794 32.5265H188.965L190.656 25.0459C190.897 23.5976 191.621 22.6328 192.345 22.1494C193.069 21.4247 193.793 21.1835 194.758 21.1835C195.24 21.1835 195.725 21.4247 195.966 21.6669C196.207 21.9081 196.448 22.1494 196.448 22.3906C196.69 22.873 196.448 23.5976 196.207 24.3213L195.24 29.6309C185.586 37.8361 172.311 45.0775 158.068 49.1791C133.205 56.4185 114.62 51.352 115.827 37.5949C115.827 38.0774 115.827 38.5617 115.586 39.0442V40.2502C114.378 53.7651 132.724 59.0748 157.585 51.5932C171.828 47.4896 185.103 40.2502 194.516 32.2843C195.481 31.3194 196.448 30.5958 197.172 29.8721C203.207 24.3213 207.311 18.288 208.517 12.9783C208.758 12.4959 208.758 12.2547 208.758 11.7713C209 11.2879 209 10.8054 209 10.323C207.555 15.8758 203.692 21.6679 197.899 27.2188Z" fill="#888A8D"/>
</g>
</g>
</svg>
