<svg width="84" height="28" viewBox="0 0 84 28" fill="none" xmlns="http://www.w3.org/2000/svg">
<g clip-path="url(#clip0_1523_563)">
<path d="M10.3454 0.00244141H11.0924C13.6856 0.0600148 16.2367 1.12512 18.0689 3.01065C17.3924 3.71592 16.7018 4.39241 16.0393 5.09768C15.0105 4.14772 13.7702 3.41366 12.4172 3.15458C10.4158 2.72278 8.25947 3.1114 6.58229 4.27726C4.75008 5.5007 3.50981 7.57334 3.24202 9.78991C2.94605 11.9777 3.55209 14.2806 4.94739 15.9791C6.28632 17.6343 8.32994 18.6706 10.444 18.7426C12.4172 18.8577 14.4749 18.2388 15.9125 16.8283C17.04 15.8351 17.5615 14.3238 17.7306 12.8557C15.391 12.8557 13.0514 12.8701 10.7118 12.8557V9.89067H20.5635C21.0709 13.0716 20.338 16.6555 17.9702 18.9297C16.3917 20.5417 14.2071 21.4917 11.9803 21.6788C9.8239 21.8947 7.59706 21.4773 5.68028 20.4122C3.38296 19.16 1.55075 17.0442 0.648732 14.5541C-0.196905 12.2656 -0.210999 9.67477 0.578263 7.37183C1.29705 5.2704 2.67826 3.41366 4.4541 2.11826C6.15947 0.837255 8.23128 0.131981 10.3454 0.00244141Z" fill="#3780FF"/>
<path d="M66.8618 0.750977H69.8779V21.3047C68.8773 21.3047 67.8625 21.3191 66.8618 21.2903C66.8759 14.4534 66.8618 7.60221 66.8618 0.750977Z" fill="#38B137"/>
<path d="M27.2718 7.87573C29.1322 7.51589 31.1476 7.91891 32.6839 9.05598C34.0792 10.0635 35.0517 11.6468 35.3476 13.374C35.7282 15.3747 35.249 17.5624 33.9805 19.1457C32.6134 20.9161 30.3725 21.8661 28.1879 21.7221C26.1866 21.607 24.2416 20.585 23.0577 18.9154C21.7188 17.0731 21.3946 14.5398 22.1275 12.3808C22.8604 10.0635 24.9322 8.29313 27.2718 7.87573ZM27.6946 10.6105C26.9336 10.812 26.2289 11.2582 25.7215 11.8915C24.3544 13.5611 24.4389 16.2814 25.947 17.8359C26.8067 18.7283 28.1033 19.1457 29.3013 18.901C30.4148 18.6995 31.3872 17.9367 31.9228 16.9291C32.853 15.2163 32.5852 12.8558 31.1617 11.5172C30.2456 10.6536 28.9067 10.2938 27.6946 10.6105Z" fill="#FA3913"/>
<path d="M42.2117 7.87581C44.3399 7.4584 46.6654 8.06292 48.258 9.58862C50.8513 11.9635 51.1332 16.4111 48.9204 19.1458C47.5815 20.873 45.411 21.823 43.2688 21.7222C41.2251 21.6646 39.2097 20.6283 37.9976 18.9155C36.6305 17.03 36.3345 14.4392 37.1097 12.237C37.8849 9.99163 39.9144 8.27882 42.2117 7.87581ZM42.6345 10.6105C41.8735 10.8121 41.1688 11.2582 40.6614 11.8772C39.3084 13.518 39.3647 16.1952 40.8164 17.764C41.6761 18.6996 43.0151 19.1602 44.2553 18.9011C45.3547 18.6852 46.3412 17.9368 46.8768 16.9292C47.7929 15.202 47.5251 12.8415 46.0876 11.5029C45.1714 10.6393 43.8325 10.2939 42.6345 10.6105Z" fill="#FCBD06"/>
<path d="M54.8821 8.71034C56.5029 7.67402 58.6592 7.38615 60.4069 8.27854C60.9566 8.52323 61.4076 8.94063 61.8445 9.35804C61.8586 8.96942 61.8445 8.56641 61.8586 8.16339C62.8029 8.17778 63.7472 8.16339 64.7056 8.17778V20.8727C64.6915 22.787 64.2123 24.8165 62.8592 26.2126C61.3794 27.7527 59.1103 28.2277 57.0666 27.9111C54.8821 27.58 52.9794 25.9536 52.1337 23.8953C52.9794 23.4779 53.8673 23.1469 54.7411 22.7582C55.2344 23.9385 56.2351 24.946 57.4894 25.1763C58.7438 25.4066 60.1955 25.09 61.0129 24.0249C61.8868 22.931 61.8868 21.4341 61.8445 20.0955C61.1962 20.7432 60.4492 21.3189 59.5472 21.5348C57.5881 22.0961 55.4317 21.4053 53.9237 20.0523C52.4015 18.6993 51.4995 16.6123 51.5841 14.5396C51.6264 12.1935 52.923 9.93377 54.8821 8.71034ZM57.7995 10.5527C56.9398 10.6966 56.1364 11.186 55.5868 11.8625C54.2619 13.4745 54.2619 16.0509 55.6009 17.6342C56.3619 18.5698 57.5881 19.0879 58.772 18.9584C59.8854 18.8433 60.9143 18.1236 61.4639 17.1304C62.3941 15.4464 62.2391 13.1579 60.9848 11.6898C60.2096 10.783 58.9693 10.3368 57.7995 10.5527Z" fill="#3780FF"/>
<path d="M73.4992 9.44459C75.1905 7.83254 77.7979 7.28559 79.9684 8.1348C82.0261 8.92643 83.3368 10.9271 83.9992 12.9854C80.9408 14.2808 77.8966 15.5618 74.8382 16.8572C75.261 17.6776 75.9093 18.426 76.7831 18.7283C78.0093 19.1745 79.4751 19.0162 80.5039 18.1814C80.9127 17.8647 81.2368 17.4473 81.5469 17.0443C82.3221 17.5768 83.0972 18.095 83.8724 18.6275C82.7731 20.3116 80.9268 21.4918 78.9395 21.6789C76.7408 21.9524 74.4013 21.0888 72.9778 19.3328C70.6382 16.5693 70.8637 11.9346 73.4992 9.44459ZM75.0073 12.1074C74.5281 12.8126 74.3308 13.6762 74.3449 14.5254C76.3885 13.6618 78.4321 12.7982 80.4757 11.9202C80.1375 11.1142 79.32 10.6248 78.4885 10.4953C77.1496 10.2506 75.7543 10.9847 75.0073 12.1074Z" fill="#FA3913"/>
</g>
<defs>
<clipPath id="clip0_1523_563">
<rect width="84" height="28" fill="white"/>
</clipPath>
</defs>
</svg>
