<svg width="109" height="109" viewBox="0 0 109 109" fill="none" xmlns="http://www.w3.org/2000/svg">
<path d="M12.2319 67.3457C12.3288 67.6514 12.428 67.9927 12.5293 68.3697C12.6281 68.7384 12.7173 69.1057 12.7969 69.4714C12.8822 69.8262 12.9541 70.1534 13.0128 70.453L11.8603 70.8185C11.7908 70.5133 11.7173 70.1956 11.6399 69.8656C11.5599 69.5273 11.481 69.2068 11.4032 68.9041C11.3172 68.6041 11.2401 68.3467 11.172 68.1319C11.0331 67.6941 10.9037 67.3578 10.7838 67.1231C10.6639 66.8883 10.5349 66.711 10.3969 66.5911C10.2994 66.513 10.1945 66.4689 10.0823 66.4591C9.96741 66.4409 9.84259 66.4487 9.70779 66.4824C9.56211 66.5104 9.40666 66.5506 9.24143 66.603C9.01838 66.6737 8.83512 66.7409 8.69166 66.8046C8.5482 66.8683 8.44434 66.9422 8.38006 67.0262C8.31579 67.1102 8.28678 67.2194 8.29304 67.3538C8.29103 67.4908 8.30908 67.6624 8.34717 67.8685L8.75624 69.9755C8.83243 70.3877 8.8533 70.7402 8.81887 71.033C8.77355 71.3201 8.67402 71.5654 8.52029 71.7687C8.36395 71.9637 8.15732 72.1293 7.90042 72.2653C7.64352 72.4013 7.34985 72.5218 7.0194 72.6265C6.46591 72.8021 6.00448 72.8666 5.63514 72.8201C5.26579 72.7735 4.95528 72.6402 4.7036 72.42C4.44104 72.1941 4.22471 71.899 4.05463 71.5347C3.87628 71.1731 3.71375 70.7609 3.56703 70.2983C3.46485 69.9761 3.37245 69.6417 3.28981 69.2951C3.19892 68.9512 3.12283 68.6253 3.06156 68.3174C2.9894 68.0039 2.94667 67.7401 2.93336 67.5261L4.06101 67.1685C4.09346 67.3855 4.14184 67.6384 4.20613 67.9271C4.26781 68.2076 4.34167 68.4979 4.42773 68.7979C4.50553 69.1005 4.58503 69.3799 4.66625 69.636C4.80249 70.0656 4.93318 70.406 5.05832 70.6572C5.17259 70.9029 5.29329 71.0828 5.42045 71.197C5.56372 71.3334 5.72321 71.392 5.89891 71.3726C6.06635 71.3559 6.26986 71.3095 6.50943 71.2335C6.79031 71.1445 7.00399 71.0585 7.15048 70.9757C7.28608 70.8872 7.36183 70.7677 7.37774 70.6172C7.39103 70.4584 7.36966 70.2334 7.31362 69.942L6.90456 67.8351C6.84812 67.5711 6.81607 67.3267 6.8084 67.1018C6.79247 66.8796 6.82157 66.6703 6.89571 66.4741C6.96723 66.2696 7.10423 66.0852 7.30673 65.9209C7.40404 65.8264 7.52312 65.7432 7.66396 65.6713C7.80219 65.5911 7.95955 65.5139 8.13605 65.4397C8.30168 65.3599 8.49602 65.2847 8.71907 65.2139C9.18996 65.0646 9.59808 64.9897 9.94345 64.9893C10.2862 64.9806 10.5801 65.0329 10.8251 65.1461C11.0592 65.2537 11.2652 65.4157 11.4429 65.6321C11.6124 65.8511 11.7567 66.1053 11.8758 66.3949C12.0031 66.6818 12.1218 66.9988 12.2319 67.3457Z" fill="white"/>
<path d="M10.2096 57.166L2.56532 57.6069L2.72177 60.3194L1.43691 60.3935L1.04017 53.5149L2.32503 53.4408L2.48073 56.1403L10.125 55.6994L10.2096 57.166Z" fill="white"/>
<path d="M10.3645 48.2138L1.59963 46.4326L2.43066 42.3432C2.54284 41.7912 2.69715 41.3582 2.89358 41.0444C3.09002 40.7306 3.32864 40.5137 3.60946 40.3939C3.88178 40.2724 4.19385 40.2164 4.54565 40.226C4.88896 40.2339 5.26021 40.2784 5.65938 40.3595C5.94815 40.4182 6.2606 40.5126 6.59673 40.6428C6.9261 40.7628 7.21618 40.9456 7.46697 41.1911C7.711 41.4264 7.85702 41.7524 7.90502 42.1689L11.7392 41.4491L11.4285 42.9778L7.56391 43.6517L7.83008 43.3211C7.84348 43.3857 7.84579 43.4614 7.83702 43.548C7.82149 43.6244 7.80251 43.7179 7.78007 43.8283L7.31925 46.0959L10.657 46.7742L10.3645 48.2138ZM6.09625 45.8474L6.51047 43.8091C6.59159 43.4099 6.62996 43.0905 6.62561 42.8508C6.61275 42.6094 6.55809 42.4214 6.46163 42.2868C6.36516 42.1523 6.22609 42.0533 6.04442 41.9898C5.86448 41.9179 5.63862 41.8543 5.36684 41.7991C5.08657 41.7421 4.84956 41.7116 4.65581 41.7076C4.45529 41.6934 4.28947 41.726 4.15835 41.8055C4.01873 41.8833 3.90015 42.0316 3.80259 42.2506C3.70676 42.4611 3.61914 42.7616 3.53975 43.1523L3.11518 45.2416L6.09625 45.8474Z" fill="white"/>
<path d="M13.2091 37.0988L6.72332 30.1593L7.60459 28.449L17.02 29.7028L16.3233 31.0549L14.0015 30.736L12.2747 34.0873L13.8879 35.7814L13.2091 37.0988ZM11.3559 33.1459L12.6956 30.5457L8.42357 29.9532L8.3938 30.0109L11.3559 33.1459Z" fill="white"/>
<path d="M21.2952 24.3431L15.6093 19.2148L13.7896 21.2324L12.8339 20.3704L17.4485 15.254L18.4042 16.116L16.5932 18.1239L22.2791 23.2523L21.2952 24.3431Z" fill="white"/>
<path d="M27.7985 18.1763L22.8416 10.7315L27.7975 7.43175L28.4892 8.47055L24.756 10.9562L26.1753 13.0879L29.4 10.9409L30.0916 11.9797L26.867 14.1267L28.3296 16.3234L32.0628 13.8377L32.7544 14.8765L27.7985 18.1763Z" fill="white"/>
<path d="M41.2422 11.3676C40.6336 11.5698 40.1031 11.7049 39.6509 11.7729C39.2041 11.83 38.8094 11.8104 38.467 11.7141C38.1245 11.6179 37.8205 11.4312 37.5549 11.1541C37.2976 10.8743 37.054 10.4986 36.8243 10.027C36.6001 9.54437 36.3705 8.94942 36.1355 8.24209C35.9006 7.53476 35.7299 6.92479 35.6235 6.41218C35.5227 5.88861 35.4957 5.43638 35.5427 5.05548C35.5897 4.67458 35.7216 4.3431 35.9384 4.06103C36.1552 3.77897 36.461 3.53126 36.8559 3.3179C37.2563 3.09358 37.7567 2.88169 38.3571 2.68225C38.6285 2.59209 38.9287 2.50607 39.2576 2.42419C39.5948 2.33958 39.9306 2.26456 40.2651 2.19913C40.5968 2.12547 40.9024 2.0696 41.182 2.03152L41.5508 3.14186C41.2575 3.19363 40.9711 3.25226 40.6914 3.31775C40.4118 3.38323 40.1541 3.446 39.9184 3.50605C39.6909 3.56337 39.5031 3.61662 39.355 3.6658C38.8615 3.82973 38.4503 3.98004 38.1213 4.11673C37.7895 4.2452 37.5331 4.3943 37.3521 4.56403C37.171 4.73376 37.0611 4.9529 37.0225 5.22144C36.9811 5.48176 37.0013 5.81751 37.0831 6.22869C37.1731 6.63714 37.322 7.15391 37.5296 7.77899C37.7127 8.33005 37.8794 8.79065 38.0297 9.16079C38.1856 9.51997 38.3497 9.80791 38.5221 10.0246C38.7001 10.2303 38.8918 10.3676 39.0973 10.4363C39.311 10.5023 39.5617 10.5149 39.8495 10.4741C40.1456 10.4305 40.4951 10.3418 40.8981 10.2079C41.0544 10.156 41.2175 10.0973 41.3875 10.0317C41.5657 9.96334 41.7316 9.89911 41.8851 9.83897C42.0359 9.77061 42.162 9.71045 42.2635 9.65848L41.4643 7.25274L39.7988 7.806L39.4136 6.64631L42.4239 5.64634L43.932 10.1864C43.6688 10.3286 43.3754 10.4763 43.0518 10.6295C42.7337 10.7717 42.4184 10.9084 42.1059 11.0396C41.7933 11.1708 41.5054 11.2802 41.2422 11.3676Z" fill="white"/>
<path d="M51.8593 9.19718L51.6817 5.91298L48.222 0.436785L49.7798 0.352559L52.3301 4.4198L52.4209 4.41489L54.4919 0.0977773L56.0107 0.0156574L53.1486 5.83367L53.3262 9.11787L51.8593 9.19718Z" fill="white"/>
<path d="M67.8936 10.9639L68.3459 9.53899L69.8328 10.0109L69.3805 11.4359L67.8936 10.9639Z" fill="white"/>
<path d="M80.6933 16.9999L86.2981 10.0299L88.5776 11.8629C89.1651 12.3354 89.6202 12.7514 89.9428 13.1109C90.2776 13.4691 90.4933 13.8093 90.5899 14.1317C90.6866 14.4541 90.6763 14.785 90.559 15.1244C90.4485 15.4693 90.2438 15.8552 89.945 16.2822C89.6461 16.7091 89.2659 17.2096 88.8043 17.7837C88.3426 18.3578 87.9354 18.8366 87.5825 19.2201C87.2296 19.6036 86.8966 19.8863 86.5835 20.0683C86.2771 20.2556 85.9561 20.3367 85.6205 20.3115C85.2849 20.2863 84.9036 20.152 84.4765 19.9087C84.0616 19.664 83.5603 19.3054 82.9727 18.8329L80.6933 16.9999ZM82.6201 16.9479L83.6535 17.7789C84.0317 18.083 84.3478 18.3261 84.6018 18.5081C84.868 18.6888 85.1019 18.799 85.3034 18.8388C85.5105 18.8718 85.7183 18.8276 85.9271 18.7063C86.1358 18.5851 86.3746 18.3711 86.6433 18.0646C86.9243 17.7567 87.263 17.3562 87.6595 16.8632C88.0559 16.3701 88.3717 15.9567 88.6067 15.623C88.8484 15.2947 89.0028 15.0129 89.0697 14.7776C89.1488 14.5409 89.1439 14.3257 89.055 14.1319C88.9784 13.9368 88.8239 13.7347 88.5916 13.5257C88.3648 13.3099 88.0656 13.0527 87.6942 12.754L86.6608 11.923L82.6201 16.9479Z" fill="white"/>
<path d="M89.7779 25.3951L97.0215 20.1487L100.514 24.9707L99.5033 25.7028L96.8725 22.0705L94.7983 23.5727L97.0708 26.7102L96.06 27.4423L93.7876 24.3048L91.6503 25.8528L94.2811 29.4851L93.2704 30.2172L89.7779 25.3951Z" fill="white"/>
<path d="M96.9329 38.0864C96.8174 37.7873 96.6974 37.4528 96.573 37.0827C96.4517 36.7208 96.3401 36.3597 96.2381 35.9996C96.1311 35.6507 96.0391 35.3286 95.9622 35.0331L97.0899 34.5973C97.1781 34.8977 97.271 35.2103 97.3686 35.5349C97.4693 35.8677 97.5678 36.1827 97.664 36.4799C97.7684 36.7741 97.8612 37.0263 97.9424 37.2364C98.108 37.6649 98.2578 37.9926 98.392 38.2195C98.5261 38.4464 98.6658 38.6154 98.8109 38.7266C98.9131 38.7986 99.0205 38.8361 99.1331 38.839C99.2488 38.85 99.373 38.8346 99.5054 38.7927C99.6491 38.7557 99.8018 38.706 99.9635 38.6436C100.182 38.5592 100.361 38.4809 100.5 38.4085C100.639 38.3361 100.738 38.2559 100.797 38.1681C100.856 38.0803 100.878 37.9695 100.864 37.8357C100.857 37.6989 100.829 37.5287 100.778 37.3253L100.24 35.2476C100.139 34.8408 100.096 34.4903 100.112 34.1959C100.14 33.9066 100.224 33.6557 100.365 33.4433C100.509 33.2389 100.705 33.061 100.953 32.9094C101.201 32.7578 101.487 32.6195 101.81 32.4946C102.352 32.2853 102.808 32.1925 103.18 32.2162C103.551 32.2399 103.87 32.3538 104.134 32.5581C104.41 32.7674 104.644 33.0486 104.837 33.4017C105.037 33.7517 105.225 34.1531 105.399 34.6058C105.521 34.9211 105.634 35.2491 105.738 35.5899C105.85 35.9276 105.946 36.2482 106.026 36.5518C106.117 36.8603 106.176 37.1209 106.203 37.3336L105.099 37.76C105.053 37.5454 104.99 37.296 104.908 37.0118C104.829 36.7356 104.737 36.4505 104.633 36.1563C104.537 35.8591 104.44 35.5851 104.343 35.3345C104.181 34.9141 104.029 34.5824 103.889 34.3394C103.76 34.1012 103.628 33.9291 103.494 33.8229C103.343 33.6956 103.18 33.647 103.006 33.6771C102.84 33.7041 102.64 33.7629 102.405 33.8535C102.13 33.9597 101.922 34.0587 101.781 34.1504C101.651 34.247 101.583 34.371 101.576 34.5222C101.573 34.6815 101.608 34.9048 101.682 35.1922L102.22 37.2699C102.293 37.5299 102.34 37.7718 102.361 37.9958C102.391 38.2166 102.375 38.4273 102.313 38.6278C102.254 38.8363 102.128 39.0288 101.937 39.2051C101.845 39.3055 101.731 39.3959 101.595 39.4764C101.462 39.5649 101.31 39.6516 101.138 39.7365C100.978 39.8264 100.789 39.9135 100.57 39.9978C100.11 40.1759 99.7069 40.2758 99.3622 40.2975C99.0206 40.3272 98.7241 40.2932 98.4725 40.1953C98.2322 40.1023 98.0167 39.9533 97.826 39.7483C97.6433 39.5401 97.4836 39.2952 97.3469 39.0135C97.2021 38.735 97.0641 38.426 96.9329 38.0864Z" fill="white"/>
<path d="M99.3124 46.3503L108.151 44.9814L108.376 46.4331L99.5373 47.802L99.3124 46.3503Z" fill="white"/>
<path d="M99.7256 57.5157C99.7705 56.876 99.8476 56.334 99.9569 55.8899C100.074 55.4551 100.243 55.0976 100.462 54.8176C100.682 54.5376 100.97 54.3276 101.327 54.1876C101.684 54.0563 102.124 53.9742 102.648 53.9414C103.179 53.9179 103.817 53.9322 104.561 53.9844C105.304 54.0365 105.933 54.111 106.448 54.2079C106.97 54.3141 107.398 54.4614 107.733 54.6499C108.067 54.8385 108.323 55.0867 108.502 55.3946C108.68 55.7024 108.792 56.0796 108.839 56.526C108.894 56.9816 108.899 57.5249 108.855 58.1561C108.835 58.4414 108.8 58.7517 108.751 59.087C108.701 59.431 108.642 59.7701 108.575 60.1042C108.517 60.439 108.452 60.7429 108.381 61.0159L107.214 60.934C107.278 60.6431 107.333 60.3559 107.378 60.0724C107.424 59.789 107.465 59.5268 107.499 59.2859C107.532 59.0537 107.555 58.8598 107.566 58.7042C107.602 58.1855 107.62 57.748 107.619 57.3917C107.626 57.036 107.586 56.7421 107.498 56.5101C107.41 56.278 107.249 56.093 107.016 55.955C106.791 55.8176 106.473 55.7084 106.061 55.6274C105.649 55.5551 105.115 55.4958 104.458 55.4498C103.879 55.4091 103.389 55.3878 102.99 55.3859C102.598 55.3932 102.269 55.4353 102.003 55.5122C101.745 55.5983 101.545 55.7233 101.404 55.8871C101.261 56.0596 101.154 56.2867 101.082 56.5683C101.01 56.8586 100.959 57.2156 100.929 57.6392C100.917 57.8035 100.91 57.9767 100.905 58.1589C100.901 58.3497 100.897 58.5275 100.894 58.6924C100.9 58.8578 100.907 58.9974 100.917 59.111L103.446 59.2884L103.568 57.5377L104.787 57.6232L104.566 60.7874L99.7933 60.4527C99.762 60.1551 99.7372 59.8275 99.7188 59.47C99.7085 59.1218 99.7022 58.7782 99.6999 58.4392C99.6976 58.1002 99.7062 57.7924 99.7256 57.5157Z" fill="white"/>
<path d="M98.3962 66.2168L106.812 69.2443L106.297 70.6756L99.0885 72.4341L99.0709 72.4831L104.894 74.5777L104.418 75.8988L96.0023 72.8713L96.4776 71.5501L103.91 69.7475L103.927 69.6985L97.9209 67.5379L98.3962 66.2168Z" fill="white"/>
<path d="M89.4563 82.909L90.5849 83.8894L89.5618 85.0671L88.4332 84.0866L89.4563 82.909Z" fill="white"/>
<path d="M76.0864 93.5981C76.3687 93.446 76.6856 93.2851 77.0372 93.1154C77.3811 92.9498 77.7253 92.7938 78.0698 92.6476C78.4026 92.4978 78.7107 92.3663 78.9942 92.2529L79.5677 93.3172C79.2807 93.4423 78.9822 93.5736 78.6723 93.711C78.3548 93.8526 78.0546 93.9897 77.7717 94.1224C77.4929 94.2628 77.2544 94.3864 77.056 94.4933C76.6516 94.7112 76.3453 94.9008 76.1369 95.0623C75.9286 95.2238 75.7784 95.3835 75.6862 95.5414C75.6276 95.6518 75.6038 95.763 75.615 95.8751C75.6186 95.9913 75.6494 96.1125 75.7075 96.2387C75.7622 96.3767 75.8306 96.5219 75.9128 96.6745C76.0238 96.8805 76.1239 97.0481 76.2132 97.1772C76.3024 97.3063 76.3943 97.3946 76.4888 97.4421C76.5833 97.4897 76.696 97.4978 76.8269 97.4667C76.9619 97.4432 77.1272 97.3936 77.3226 97.3178L79.3167 96.524C79.7076 96.3724 80.05 96.2864 80.3441 96.2657C80.6347 96.2569 80.8941 96.309 81.1225 96.4223C81.3432 96.5396 81.5443 96.7118 81.7257 96.939C81.9072 97.1661 82.0801 97.4322 82.2445 97.7374C82.52 98.2486 82.6692 98.69 82.6922 99.0615C82.7151 99.4331 82.6419 99.763 82.4723 100.051C82.2992 100.351 82.0495 100.619 81.7232 100.854C81.401 101.096 81.0263 101.332 80.599 101.563C80.3015 101.723 79.9901 101.876 79.665 102.022C79.3439 102.175 79.0378 102.31 78.7467 102.428C78.4521 102.557 78.2009 102.648 77.9931 102.701L77.432 101.659C77.6392 101.587 77.8786 101.493 78.1504 101.376C78.4145 101.263 78.6859 101.136 78.9647 100.996C79.2476 100.863 79.5073 100.733 79.7438 100.606C80.1406 100.392 80.4508 100.2 80.6744 100.031C80.8944 99.8726 81.0488 99.7205 81.1374 99.5744C81.2447 99.4082 81.2726 99.2406 81.2209 99.0716C81.1733 98.9102 81.0899 98.7188 80.9707 98.4976C80.8309 98.2382 80.7067 98.0442 80.5981 97.9157C80.486 97.7989 80.3545 97.7467 80.2036 97.7591C80.0451 97.7755 79.828 97.8384 79.5521 97.9476L77.558 98.7414C77.3092 98.846 77.075 98.9229 76.8555 98.9723C76.6401 99.0293 76.4291 99.0396 76.2224 99.0033C76.0082 98.9711 75.8015 98.8707 75.6025 98.7023C75.4916 98.6243 75.3876 98.5228 75.2907 98.3978C75.1862 98.2769 75.0811 98.1366 74.9754 97.977C74.8662 97.8291 74.7561 97.6521 74.6451 97.4461C74.4108 97.0112 74.2613 96.6242 74.1967 96.2849C74.1244 95.9497 74.1211 95.6513 74.1868 95.3895C74.2489 95.1394 74.3698 94.9069 74.5493 94.692C74.733 94.4848 74.956 94.2957 75.2184 94.1248C75.4766 93.9463 75.7659 93.7708 76.0864 93.5981Z" fill="white"/>
<path d="M64.9592 97.7468C65.5814 97.5914 66.1122 97.4991 66.5515 97.4698C66.9929 97.4489 67.3723 97.5015 67.6897 97.6278C67.9986 97.7561 68.2655 97.9663 68.4904 98.2586C68.7089 98.5613 68.9074 98.9629 69.0859 99.4632C69.2645 99.9635 69.444 100.575 69.6246 101.298C69.8051 102.021 69.9342 102.646 70.0119 103.171C70.0895 103.697 70.102 104.14 70.0493 104.502C69.9904 104.874 69.8547 105.189 69.6423 105.448C69.4216 105.708 69.1104 105.929 68.7089 106.11C68.3094 106.299 67.7986 106.471 67.1764 106.626C66.9325 106.687 66.6824 106.741 66.4259 106.787C66.1611 106.835 65.9067 106.872 65.6629 106.897C65.4212 106.93 65.2109 106.947 65.0323 106.947L64.7488 105.812C64.9653 105.785 65.1808 105.753 65.3952 105.718C65.6033 105.692 65.8051 105.66 66.0006 105.62C66.1961 105.58 66.3653 105.542 66.5083 105.507C66.9707 105.391 67.3491 105.279 67.6434 105.17C67.9377 105.06 68.1627 104.924 68.3183 104.76C68.4655 104.598 68.5559 104.388 68.5896 104.129C68.617 103.881 68.5982 103.556 68.5331 103.152C68.4597 102.75 68.3484 102.251 68.1993 101.654C68.0524 101.066 67.9159 100.573 67.7899 100.175C67.6575 99.7886 67.52 99.488 67.3771 99.2735C67.2279 99.0696 67.0503 98.9308 66.8443 98.8572C66.63 98.7856 66.3672 98.7709 66.0561 98.8128C65.745 98.8548 65.3582 98.9335 64.8958 99.049C64.6183 99.1182 64.3187 99.2064 63.9971 99.3136C63.6671 99.4228 63.3843 99.5246 63.1489 99.6192L62.8591 98.4588C63.0357 98.379 63.247 98.2949 63.4929 98.2067C63.7305 98.1206 63.9775 98.0366 64.2339 97.9547C64.482 97.8749 64.7237 97.8056 64.9592 97.7468Z" fill="white"/>
<path d="M58.5449 99.0041L55.2273 107.904L53.3035 107.879L50.2256 98.8926L51.7465 98.913L52.4968 101.133L56.2665 101.184L57.063 98.9843L58.5449 99.0041ZM55.8338 102.426L52.9091 102.387L54.2844 106.475L54.3494 106.476L55.8338 102.426Z" fill="white"/>
<path d="M45.3001 97.9516L42.9015 106.568L41.4864 106.174L43.5398 98.7975L39.72 97.7342L40.0651 96.4944L45.3001 97.9516Z" fill="white"/>
<path d="M35.1016 94.3872L30.6498 102.145L25.4858 99.1811L26.1069 98.0986L29.9969 100.331L31.2716 98.1098L27.9116 96.1815L28.5328 95.0991L31.8928 97.0274L33.2063 94.7385L29.3164 92.5061L29.9375 91.4237L35.1016 94.3872Z" fill="white"/>
<path d="M20.8252 83.1619L19.6707 84.1117L18.6795 82.9071L19.834 81.9572L20.8252 83.1619Z" fill="white"/>
</svg>
