<svg width="118" height="22" viewBox="0 0 118 22" fill="none" xmlns="http://www.w3.org/2000/svg">
<g clip-path="url(#clip0_1523_636)">
<path d="M0 0.00585938H22.125V21.9941H0V0.00585938ZM23.9688 0.00585938H46.0938V21.9941H23.9688V0.00585938ZM47.9375 0.00585938H70.0625V21.9941H47.9375V0.00585938ZM71.9062 0.00585938H94.0312V21.9941H71.9062V0.00585938ZM95.875 0.00585938H118V21.9941H95.875V0.00585938Z" fill="#00B67A"/>
<path d="M11.0626 14.825L14.4274 13.9775L15.8333 18.2835L11.0626 14.825ZM18.8063 9.25919H12.8833L11.0626 3.71631L9.24189 9.25919H3.31885L8.1126 12.6949L6.29189 18.2377L11.0856 14.8021L14.0356 12.6949L18.8063 9.25919ZM35.0314 14.825L38.3962 13.9775L39.8021 18.2835L35.0314 14.825ZM42.7751 9.25919H36.8521L35.0314 3.71631L33.2106 9.25919H27.2876L32.0813 12.6949L30.2606 18.2377L35.0544 14.8021L38.0044 12.6949L42.7751 9.25919ZM59.0001 14.825L62.3649 13.9775L63.7708 18.2835L59.0001 14.825ZM66.7439 9.25919H60.8208L59.0001 3.71631L57.1794 9.25919H51.2564L56.0501 12.6949L54.2294 18.2377L59.0232 14.8021L61.9731 12.6949L66.7439 9.25919ZM82.9689 14.825L86.3337 13.9775L87.7396 18.2835L82.9689 14.825ZM90.7126 9.25919H84.7896L82.9689 3.71631L81.1482 9.25919H75.2251L80.0189 12.6949L78.1982 18.2377L82.9919 14.8021L85.9419 12.6949L90.7126 9.25919ZM106.938 14.825L110.302 13.9775L111.708 18.2835L106.938 14.825ZM114.681 9.25919H108.758L106.938 3.71631L105.117 9.25919H99.1939L103.988 12.6949L102.167 18.2377L106.961 14.8021L109.911 12.6949L114.681 9.25919Z" fill="white"/>
</g>
<defs>
<clipPath id="clip0_1523_636">
<rect width="118" height="22" fill="white"/>
</clipPath>
</defs>
</svg>
