<svg width="136" height="34" viewBox="0 0 136 34" fill="none" xmlns="http://www.w3.org/2000/svg">
<path d="M35.4854 12.0488L49.1428 12.0488V14.6571L43.7653 14.6571V29.3604H40.8179V14.6571H35.4629L35.4854 12.0488ZM48.5578 16.8268H51.0778V19.2504H51.1228C51.2128 18.9042 51.3703 18.5811 51.5953 18.2579C51.8203 17.9348 52.0903 17.6347 52.4278 17.3808C52.7428 17.1038 53.1028 16.8961 53.5078 16.7345C53.8903 16.5729 54.2953 16.4806 54.7003 16.4806C55.0153 16.4806 55.2403 16.5037 55.3528 16.5037C55.4653 16.5267 55.6003 16.5498 55.7128 16.5498V19.2043C55.5328 19.1581 55.3303 19.135 55.1278 19.1119C54.9253 19.0889 54.7453 19.0658 54.5428 19.0658C54.0928 19.0658 53.6653 19.1581 53.2603 19.3428C52.8553 19.5274 52.5178 19.8044 52.2028 20.1506C51.9103 20.5199 51.6628 20.9585 51.4828 21.4894C51.3028 22.0203 51.2128 22.6435 51.2128 23.336V29.2911L48.5128 29.2911L48.5578 16.8268ZM68.0877 29.3604H65.4327V27.6061H65.3877C65.0502 28.2524 64.5552 28.7372 63.9027 29.1296C63.2502 29.522 62.5752 29.7066 61.9002 29.7066C60.3027 29.7066 59.1327 29.3142 58.4127 28.4833C57.6927 27.6754 57.3327 26.429 57.3327 24.7901V16.8268H60.0327V24.5132C60.0327 25.6211 60.2352 26.4059 60.6627 26.8444C61.0677 27.3061 61.6527 27.5369 62.3952 27.5369C62.9577 27.5369 63.4302 27.4446 63.8127 27.2599C64.1952 27.0753 64.5102 26.8444 64.7352 26.5444C64.9827 26.2443 65.1402 25.875 65.2527 25.4595C65.3652 25.044 65.4102 24.5824 65.4102 24.0977V16.8268H68.1102V29.3604H68.0877ZM72.6776 25.3441C72.7676 26.152 73.0601 26.7059 73.5776 27.0522C74.0951 27.3753 74.7251 27.5369 75.4451 27.5369C75.6926 27.5369 75.9851 27.5138 76.3001 27.4677C76.6151 27.4215 76.9301 27.3522 77.2001 27.2368C77.4926 27.1214 77.7176 26.9598 77.8976 26.729C78.0776 26.4982 78.1676 26.2212 78.1451 25.875C78.1226 25.5288 78.0101 25.2287 77.7626 24.9979C77.5151 24.767 77.2226 24.6055 76.8626 24.4439C76.5026 24.3054 76.0751 24.19 75.6026 24.0977C75.1301 24.0053 74.6576 23.8899 74.1626 23.7745C73.6676 23.6591 73.1726 23.5206 72.7001 23.359C72.2276 23.1975 71.8226 22.9897 71.4401 22.6897C71.0802 22.4127 70.7652 22.0665 70.5627 21.6279C70.3377 21.1893 70.2252 20.6815 70.2252 20.0352C70.2252 19.3428 70.3827 18.7888 70.7201 18.3271C71.0351 17.8655 71.4626 17.4962 71.9576 17.2192C72.4526 16.9422 73.0151 16.7345 73.6226 16.6191C74.2301 16.5037 74.8151 16.4575 75.3551 16.4575C75.9851 16.4575 76.5926 16.5268 77.1551 16.6652C77.7176 16.8037 78.2576 17.0115 78.7076 17.3346C79.1801 17.6347 79.5626 18.0502 79.8551 18.5349C80.1701 19.0196 80.3501 19.6197 80.4401 20.3122H77.6276C77.4926 19.6428 77.2001 19.2043 76.7501 18.9735C76.2776 18.7426 75.7601 18.6272 75.1526 18.6272C74.9726 18.6272 74.7251 18.6503 74.4776 18.6734C74.2076 18.7195 73.9826 18.7657 73.7351 18.858C73.5101 18.9504 73.3076 19.0889 73.1501 19.2504C72.9926 19.412 72.9026 19.6428 72.9026 19.9198C72.9026 20.266 73.0151 20.5199 73.2401 20.7277C73.4651 20.9354 73.7576 21.097 74.1401 21.2586C74.5001 21.3971 74.9276 21.5125 75.4001 21.6048C75.8726 21.6971 76.3676 21.8125 76.8626 21.928C77.3576 22.0434 77.8301 22.1819 78.3026 22.3434C78.7751 22.505 79.2026 22.7127 79.5626 23.0128C79.9226 23.2898 80.2376 23.636 80.4626 24.0515C80.6876 24.467 80.8001 24.9979 80.8001 25.598C80.8001 26.3366 80.6426 26.9598 80.3051 27.4907C79.9676 27.9985 79.5401 28.4371 79.0226 28.7603C78.5051 29.0834 77.8976 29.3142 77.2676 29.4758C76.6151 29.6143 75.9851 29.7066 75.3551 29.7066C74.5901 29.7066 73.8701 29.6143 73.2176 29.4296C72.5651 29.245 71.9801 28.968 71.5076 28.6218C71.0351 28.2524 70.6526 27.8139 70.3827 27.2599C70.1127 26.729 69.9552 26.0827 69.9327 25.321L72.6551 25.321V25.3441H72.6776ZM81.5651 16.8268H83.6126V13.0414L86.3125 13.0414V16.8037H88.7425V18.858H86.3125V25.5518C86.3125 25.8519 86.335 26.0827 86.3575 26.3135C86.38 26.5213 86.4475 26.7059 86.515 26.8444C86.605 26.9829 86.74 27.0983 86.8975 27.1676C87.0775 27.2368 87.3025 27.283 87.6175 27.283C87.7975 27.283 88 27.283 88.18 27.2599C88.36 27.2368 88.5625 27.2138 88.7425 27.1676V29.3142C88.45 29.3604 88.1575 29.3835 87.865 29.4065C87.5725 29.4527 87.3025 29.4527 86.9875 29.4527C86.2675 29.4527 85.7051 29.3835 85.2776 29.245C84.8501 29.1065 84.5126 28.8987 84.2651 28.6448C84.0176 28.3679 83.8601 28.0447 83.7701 27.6523C83.6801 27.2599 83.6351 26.7752 83.6126 26.2674V18.8811H81.5651V16.7807V16.8268ZM90.6325 16.8268H93.175V18.5349H93.22C93.6025 17.7963 94.12 17.2885 94.795 16.9653C95.47 16.6422 96.19 16.4806 97 16.4806C97.9675 16.4806 98.8 16.6422 99.52 17.0115C100.24 17.3577 100.825 17.8193 101.297 18.4426C101.77 19.0427 102.13 19.7582 102.355 20.5661C102.58 21.374 102.715 22.2511 102.715 23.1513C102.715 24.0053 102.602 24.8132 102.4 25.598C102.175 26.3828 101.86 27.0983 101.432 27.6985C101.005 28.2986 100.465 28.7833 99.79 29.1526C99.115 29.522 98.35 29.7066 97.45 29.7066C97.0675 29.7066 96.6625 29.6605 96.28 29.5912C95.8975 29.522 95.515 29.4066 95.155 29.245C94.795 29.0834 94.4575 28.8757 94.165 28.6218C93.85 28.3679 93.6025 28.0678 93.4 27.7446H93.355V33.9999H90.655V16.8268H90.6325ZM100.06 23.1051C100.06 22.5512 99.9925 21.9972 99.835 21.4663C99.7 20.9354 99.475 20.4738 99.1825 20.0583C98.89 19.6428 98.53 19.3197 98.125 19.0658C97.6975 18.8119 97.2025 18.6965 96.6625 18.6965C95.5375 18.6965 94.6825 19.0889 94.0975 19.8967C93.535 20.7046 93.2425 21.7895 93.2425 23.1282C93.2425 23.7745 93.31 24.3516 93.4675 24.8825C93.625 25.4133 93.8275 25.875 94.1425 26.2674C94.435 26.6598 94.795 26.9598 95.2225 27.1907C95.65 27.4215 96.1225 27.5369 96.685 27.5369C97.315 27.5369 97.81 27.3984 98.2375 27.1445C98.665 26.8906 99.0025 26.5444 99.295 26.152C99.565 25.7365 99.7675 25.2749 99.88 24.744C99.9925 24.19 100.06 23.6591 100.06 23.1051ZM104.807 12.0488H107.507V14.6571H104.807V12.0488ZM104.807 16.8268H107.507V29.3604H104.807V16.8268ZM109.915 12.0488H112.615V29.3604H109.915V12.0488ZM120.85 29.7066C119.882 29.7066 119.005 29.545 118.24 29.1988C117.475 28.8526 116.845 28.414 116.305 27.837C115.787 27.2599 115.382 26.5444 115.112 25.7365C114.842 24.9286 114.685 24.0284 114.685 23.0821C114.685 22.1357 114.82 21.2586 115.112 20.4507C115.382 19.6428 115.787 18.9504 116.305 18.3502C116.822 17.7732 117.475 17.3115 118.24 16.9884C119.005 16.6652 119.882 16.4806 120.85 16.4806C121.817 16.4806 122.695 16.6422 123.46 16.9884C124.225 17.3115 124.855 17.7732 125.395 18.3502C125.912 18.9273 126.317 19.6428 126.587 20.4507C126.857 21.2586 127.015 22.1357 127.015 23.0821C127.015 24.0515 126.88 24.9286 126.587 25.7365C126.295 26.5444 125.912 27.2368 125.395 27.837C124.877 28.414 124.225 28.8757 123.46 29.1988C122.695 29.522 121.84 29.7066 120.85 29.7066ZM120.85 27.5138C121.435 27.5138 121.975 27.3753 122.402 27.1214C122.852 26.8675 123.19 26.5213 123.482 26.1058C123.775 25.6903 123.977 25.2056 124.112 24.6978C124.247 24.1669 124.315 23.636 124.315 23.0821C124.315 22.5512 124.247 22.0203 124.112 21.4894C123.977 20.9585 123.775 20.4969 123.482 20.0814C123.19 19.6659 122.83 19.3428 122.402 19.0889C121.952 18.835 121.435 18.6965 120.85 18.6965C120.265 18.6965 119.725 18.835 119.297 19.0889C118.847 19.3428 118.51 19.689 118.217 20.0814C117.925 20.4969 117.722 20.9585 117.587 21.4894C117.452 22.0203 117.385 22.5512 117.385 23.0821C117.385 23.636 117.452 24.1669 117.587 24.6978C117.722 25.2287 117.925 25.6903 118.217 26.1058C118.51 26.5213 118.87 26.8675 119.297 27.1214C119.747 27.3984 120.265 27.5138 120.85 27.5138ZM127.825 16.8268H129.872V13.0414L132.572 13.0414V16.8037L135.002 16.8037V18.858L132.572 18.858V25.5518C132.572 25.8519 132.595 26.0827 132.617 26.3135C132.64 26.5213 132.707 26.7059 132.775 26.8444C132.865 26.9829 133 27.0983 133.157 27.1676C133.337 27.2368 133.562 27.283 133.877 27.283C134.057 27.283 134.26 27.283 134.44 27.2599C134.62 27.2368 134.822 27.2138 135.002 27.1676V29.3142C134.71 29.3604 134.417 29.3835 134.125 29.4065C133.832 29.4527 133.562 29.4527 133.247 29.4527C132.527 29.4527 131.965 29.3835 131.537 29.245C131.11 29.1065 130.772 28.8987 130.525 28.6448C130.277 28.3679 130.12 28.0447 130.03 27.6523C129.94 27.2599 129.895 26.7752 129.872 26.2674V18.8811H127.825V16.7807V16.8268Z" fill="white"/>
<path d="M32.3323 12.0489L19.9799 12.0489L16.1774 0L12.3524 12.0489L0 12.0258L9.98993 19.4813L6.16496 31.5301L16.1549 24.0746L26.1448 31.5301L22.3424 19.4813L32.3323 12.0489Z" fill="#00B67A"/>
<path d="M23.1996 22.2051L22.3446 19.4814L16.1797 24.0748L23.1996 22.2051Z" fill="#005128"/>
</svg>
